<svg width="481" height="481" viewBox="0 0 481 481" fill="none" xmlns="http://www.w3.org/2000/svg">
<path d="M260.384 121.869C263.251 125.134 266.662 127.878 270.464 129.981C267.606 126.706 264.194 123.96 260.384 121.869ZM267.752 121.629C266.517 120.311 265.211 119.062 263.84 117.885C262.334 116.755 260.728 115.767 259.04 114.933C260.285 116.234 261.599 117.468 262.976 118.629C264.824 119.661 266.288 120.885 267.752 121.629ZM237.536 155.541C238.735 157.699 240.22 159.685 241.952 161.445C243.56 163.348 245.284 165.152 247.112 166.845C245.648 164.877 244.16 162.909 242.456 160.941C241.083 158.915 239.426 157.096 237.536 155.541ZM250.808 151.845C249.486 148.881 247.459 146.286 244.904 144.285C246.227 147.248 248.254 149.843 250.808 151.845ZM260.384 88.1966C264.08 80.9966 273.896 61.1726 275.144 58.4606C269.251 67.8587 264.306 77.8197 260.384 88.1966ZM269.24 90.9086C270.601 89.4175 271.829 87.8115 272.912 86.1086C274.155 84.4508 275.308 82.7284 276.368 80.9486C273.055 83.4855 270.573 86.9534 269.24 90.9086ZM303.896 71.0126C280.304 95.0126 281.84 93.3806 278.816 97.7966C288.776 87.8366 317.672 57.6926 320.6 54.7886C314.696 59.9486 309.248 65.5646 303.896 71.0126ZM293.816 107.853C297.609 106.428 301.168 104.446 304.376 101.973C300.537 103.293 296.961 105.284 293.816 107.853ZM298.472 120.885C326.504 111.693 353.048 104.229 363.104 101.685C341.094 106.396 319.485 112.815 298.472 120.885ZM300.68 134.685C305.32 134.887 309.963 134.394 314.456 133.221C309.818 133.031 305.176 133.525 300.68 134.685ZM309.776 164.373C304.974 162.631 299.909 161.722 294.8 161.685C297.132 162.511 299.546 163.082 302 163.389C304.553 163.975 307.158 164.305 309.776 164.373ZM253.016 86.6846C254.135 82.6833 254.716 78.5511 254.744 74.3966C253.611 78.3947 253.03 82.529 253.016 86.6846ZM238.28 37.5806C237.958 53.4429 238.945 69.3047 241.232 85.0046C240.248 72.7166 238.28 41.0846 238.28 37.5806ZM224.504 74.4446C225.038 77.8432 226.031 81.1534 227.456 84.2846C227.481 80.7828 226.452 77.3546 224.504 74.4446ZM189.608 50.6846C195.902 63.5149 203.357 75.742 211.88 87.2126C228.488 107.853 205.4 79.9166 189.608 50.6846ZM209.48 97.5326C206.559 94.2819 203.255 91.3969 199.64 88.9406C202.447 92.3053 205.768 95.2051 209.48 97.5326ZM162.824 76.1726C174.224 85.3886 187.256 96.9566 200.912 108.837C189.092 96.9678 176.356 86.0462 162.824 76.1726ZM176.096 117.693C179.373 119.389 182.992 120.316 186.68 120.405C183.309 118.973 179.741 118.059 176.096 117.693ZM157.424 141.285C163.328 141.813 183.44 143.013 189.368 143.013C178.809 141.334 168.104 140.755 157.424 141.285ZM192.08 149.085C186.799 148.871 181.512 149.364 176.36 150.549C181.642 150.744 186.926 150.252 192.08 149.085ZM161.48 175.941C163.28 175.341 195.32 164.661 201.296 162.165C190.715 164.934 180.298 168.3 170.096 172.245C167 173.469 164.312 174.693 161.48 175.941ZM206.072 171.261C202.832 173.085 191.672 179.973 183.728 185.277C187.4 183.309 191.336 181.101 195.272 178.869C199.208 176.637 202.64 173.973 206.072 171.261Z" fill="black"/>
<path d="M188.96 205.293C190.016 204.285 193.424 200.709 193.76 200.253C216.92 176.061 210.56 182.037 213.44 179.133C204.68 187.341 188.768 203.997 188.384 204.429C178.784 189.837 176.024 183.933 157.736 174.957C151.959 172.618 146.035 170.661 140 169.101C139.256 168.909 139.256 168.357 139.088 167.709C138.92 167.061 138.728 166.149 138.584 165.309C137.312 159.309 137.72 159.861 135.656 160.197C135.542 159.12 135.542 158.034 135.656 156.957C136.183 156.927 136.683 156.714 137.068 156.355C137.454 155.995 137.702 155.512 137.768 154.989C138.209 154.068 138.698 153.17 139.232 152.301C137.746 152.64 136.188 152.463 134.816 151.797C135.07 153.428 134.837 155.098 134.144 156.597V160.389C133.4 160.221 120.584 161.709 119.408 161.853C119.408 161.349 119.576 160.509 119.408 160.245C119.24 159.981 118.664 160.245 118.424 160.245C116.241 160.655 114.01 160.744 111.8 160.509C110.237 160.377 108.729 159.872 107.401 159.037C106.073 158.202 104.965 157.06 104.168 155.709C102.683 152.48 102.008 148.937 102.2 145.389C102.359 141.179 102.856 136.99 103.688 132.861C117.56 132.285 121.256 134.181 130.472 137.661C130.904 143.709 131.624 148.821 136.112 151.149C137.091 151.547 138.161 151.666 139.204 151.492C140.246 151.318 141.22 150.859 142.016 150.165C145.245 146.888 147.389 142.699 148.16 138.165C152.288 119.517 136.64 104.037 127.928 106.245C124.411 106.582 121.043 107.834 118.159 109.876C115.275 111.918 112.975 114.679 111.488 117.885C111.296 118.389 111.368 118.725 110.888 118.677C109.664 118.533 109.76 118.677 109.976 118.053C111.115 114.922 112.973 112.102 115.4 109.821C118.05 107.614 121.157 106.024 124.496 105.165C114.896 105.165 103.568 109.629 99.5605 118.485C99.1045 119.493 98.9605 120.885 98.0245 121.509C97.531 121.877 97.1172 122.34 96.8078 122.873C96.4985 123.405 96.3 123.994 96.2245 124.605C95.6872 127.233 95.6872 129.944 96.2245 132.573C97.6043 134.454 99.5586 135.836 101.792 136.509C100.531 142.038 100.531 147.78 101.792 153.309C103.592 160.509 111.392 163.101 118.592 161.157V161.853C118.403 161.84 118.213 161.868 118.035 161.934C117.857 162 117.696 162.103 117.56 162.237C116.989 163.216 116.545 164.264 116.24 165.357L114.512 170.157C113.408 170.565 96.8485 170.373 82.3285 189.357C78.4926 187.446 75.0491 184.833 72.1765 181.653C71.7925 181.245 71.4565 180.525 70.9045 180.597C70.3525 180.669 69.8965 181.485 69.5845 181.821C66.9312 184.518 64.0033 186.932 60.8485 189.021C47.6965 198.333 31.2085 201.165 15.2485 201.285C14.2645 201.285 12.8485 200.805 12.8485 202.269C12.9846 234.243 19.3089 265.89 31.4725 295.461C40.8278 316.413 56.3066 334.042 75.8725 346.029C76.4019 357.971 79.1104 369.716 83.8645 380.685C83.3845 380.685 82.6405 380.445 82.1605 380.445C87.3678 401.617 96.8141 421.514 109.928 438.933C107.456 439.841 104.9 440.5 102.296 440.901C100.832 441.381 98.3605 442.605 98.3605 444.333C97.8805 448.701 117.344 448.437 120.728 448.005C123.128 447.765 126.128 447.285 127.376 444.813C129.08 441.405 123.416 431.205 123.68 408.813C122.504 406.677 114.704 389.925 114.08 381.045C114.08 380.565 113.84 380.565 113.576 380.805C104.392 381.345 95.1845 381.345 86.0005 380.805C80.3694 370.124 77.3276 358.269 77.1205 346.197C80.0725 347.421 82.6405 346.029 85.3525 344.565C96.0564 338.108 105.366 329.581 112.736 319.485C109.652 339.267 110.402 359.458 114.944 378.957C115.184 378.717 115.664 378.453 115.664 378.213C115.664 377.973 115.304 377.109 115.184 376.509C110.264 351.933 111.344 339.237 113.864 318.549C124.626 303.82 132.344 287.094 136.568 269.349C136.76 267.381 155.768 269.205 177.368 260.613C182.032 275.954 182.986 292.183 180.152 307.965C178.124 318.538 175.382 328.962 171.944 339.165C170.24 344.085 168.752 349.749 167.144 354.909C159.944 376.509 159.224 380.421 158.888 381.093C156.32 381.357 129.44 383.493 115.544 381.093C120.577 402.276 129.995 422.168 143.192 439.485C140.504 440.973 137.048 440.709 134.36 442.197C132.632 443.181 130.424 445.629 132.872 446.997C135.143 447.988 137.595 448.495 140.072 448.485C145.064 448.845 150.072 448.925 155.072 448.725C156.351 448.75 157.614 448.443 158.737 447.833C159.861 447.223 160.806 446.331 161.48 445.245C162.512 441.861 160.424 440.445 159.08 430.245C155.24 410.589 159.08 393.141 161.48 380.853H160.736C176.144 326.469 191.696 305.037 178.688 259.941C182.589 258.737 186.304 257.001 189.728 254.781C202.04 246.861 202.688 230.781 196.136 217.917C194.05 213.542 191.652 209.324 188.96 205.293ZM99.9205 134.901C99.0615 134.536 98.3116 133.956 97.7438 133.216C97.176 132.475 96.8096 131.601 96.6805 130.677V126.285C96.7232 125.177 97.0797 124.103 97.7085 123.19C98.3373 122.276 99.2126 121.56 100.232 121.125C106.926 119.42 113.939 119.42 120.632 121.125C124.401 121.929 127.889 123.719 130.739 126.312C133.59 128.905 135.701 132.209 136.856 135.885C137.096 137.349 136.616 139.557 134.648 138.837C127.444 133.836 118.84 131.248 110.072 131.445C107.275 131.418 104.478 131.554 101.696 131.853C100.592 132.069 99.5125 132.573 99.5125 133.653C99.5242 133.928 99.6023 134.196 99.7402 134.434C99.8782 134.672 100.072 134.874 100.304 135.021L99.9205 134.901ZM100.664 132.933C101.214 132.721 101.806 132.639 102.392 132.693C102.105 133.562 101.935 134.466 101.888 135.381C100.352 133.869 99.5845 133.197 100.664 132.933ZM117.632 163.893C117.8 163.125 118.352 162.573 119.624 162.573C120.896 162.573 136.832 160.917 136.832 160.917C136.832 160.917 137.384 163.605 137.552 165.045C137.774 166.343 138.079 167.626 138.464 168.885C137.792 168.885 115.88 169.725 115.784 170.301C117.152 165.213 117.632 164.133 117.632 163.893ZM100.016 176.037C95.4661 180.848 91.9966 186.576 89.8405 192.837C87.6805 191.973 85.5205 190.917 83.3605 189.837C87.6335 183.881 93.3702 179.128 100.016 176.037ZM79.0165 345.237C77.6953 345.041 76.4381 344.539 75.3445 343.773C72.1765 341.541 69.2005 338.973 66.2485 336.573C54.3327 326.696 44.3135 314.733 36.6805 301.269C29.5563 287.372 24.3489 272.573 21.2005 257.277C17.2356 241.413 14.8242 225.2 14.0005 208.869C14.0005 206.901 13.7365 204.933 13.7365 202.965C35.9845 203.949 55.0885 198.453 70.4005 183.309C70.4005 184.533 69.8485 185.373 69.1765 197.013C56.9365 209.085 39.8005 212.181 22.7605 210.573C23.8165 221.205 24.2005 275.373 55.4485 314.517C63.2245 324.117 75.2485 333.045 77.2885 333.549L79.0165 344.997V345.237ZM77.4805 332.397C77.0466 332.204 76.636 331.962 76.2565 331.677C69.2548 327.235 62.9469 321.784 57.5365 315.501C35.2645 288.285 26.6965 250.245 24.2485 215.253C24.2485 214.029 23.9845 212.853 23.9845 211.821C39.7045 213.837 55.3765 211.821 69.3205 198.357C67.6165 241.029 71.8645 296.133 77.4805 332.397ZM70.2805 227.037C69.9925 214.197 70.5205 199.605 70.4245 197.685C78.3221 203.592 87.4962 207.562 97.2085 209.277C118.256 212.805 122.336 210.933 127.016 210.429C127.976 238.797 124.136 266.397 111.56 294.429C105.832 307.628 97.0066 319.252 85.8325 328.317C83.4505 329.979 80.9197 331.417 78.2725 332.613C78.1765 332.349 71.6965 294.861 70.2805 227.037ZM133.424 271.773C128.96 296.853 108.44 329.373 85.0165 343.533C83.5932 344.511 81.9381 345.099 80.2165 345.237C79.5925 342.981 78.8005 336.117 78.5125 333.669C108.44 319.629 123.536 277.197 127.64 244.245C128.921 232.568 129.105 220.796 128.192 209.085C118.047 210.625 107.701 210.209 97.7125 207.861C82.7605 204.693 76.4005 200.925 70.6645 196.725C70.5925 192.356 70.9543 187.99 71.7445 183.693C86.6485 198.573 116.744 202.125 136.376 198.093C141.076 222.556 140.041 247.776 133.352 271.773H133.424ZM183.824 256.293C179.208 258.367 174.443 260.092 169.568 261.453C154.832 265.893 148.544 265.893 136.88 267.357C138.801 259.355 140.117 251.22 140.816 243.021C140.816 242.277 140.816 242.037 141.296 241.533C144.721 238.371 148.336 235.421 152.12 232.701C152.6 232.197 153.344 231.957 153.824 231.477C154.304 230.997 153.824 230.493 153.584 229.989C152.235 226.341 150.589 222.809 148.664 219.429C145.633 214.273 143.868 208.472 143.514 202.502C143.159 196.532 144.225 190.563 146.624 185.085C147.994 181.722 150.092 178.706 152.768 176.253C153.222 175.706 153.809 175.284 154.472 175.029C154.976 174.765 155.696 175.269 156.2 175.509C159.746 177.197 163.192 179.089 166.52 181.173C172.808 185.445 177.944 189.813 184.952 201.069C192.152 211.893 199.352 223.101 198.944 236.205C198.608 245.637 192.392 252.573 183.728 256.293H183.824ZM284.48 187.965C285.946 190.114 287.55 192.166 289.28 194.109C291.248 196.077 292.976 198.045 294.944 199.773C291.911 195.456 288.401 191.495 284.48 187.965ZM322.712 88.3647C322.712 91.5327 321.296 92.9967 321.92 92.9967C323.912 90.7407 325.64 86.7567 330.488 86.9967C330.848 86.9967 331.208 87.2127 330.8 86.7087C330.538 86.4519 330.228 86.2482 329.888 86.1087C326.192 84.0687 327.344 80.0127 327.224 77.8287C327.224 77.1567 326.456 79.2447 323.72 81.1647C322.395 81.9791 320.883 82.4416 319.328 82.5087C316.784 82.6287 321.728 83.0847 322.712 88.3647ZM326.768 79.8687C326.443 81.2171 326.613 82.6375 327.247 83.8711C327.882 85.1046 328.938 86.0691 330.224 86.5887C328.97 86.6151 327.738 86.9245 326.62 87.4938C325.502 88.0632 324.527 88.8777 323.768 89.8767C323.885 88.3644 323.52 86.854 322.727 85.5611C321.934 84.2682 320.753 83.2587 319.352 82.6767C320.725 82.8709 322.124 82.7154 323.421 82.2245C324.717 81.7336 325.869 80.9233 326.768 79.8687ZM300.152 42.4767C300.632 42.7167 300.632 41.7327 300.392 41.4927C300.068 41.0625 299.835 40.5703 299.708 40.0464C299.581 39.5225 299.563 38.9782 299.656 38.4472C299.748 37.9162 299.948 37.4098 300.244 36.9593C300.54 36.5089 300.926 36.1241 301.376 35.8287C301.664 35.6367 302.36 35.3487 302.36 35.1087C302.36 34.8687 301.808 34.8207 301.376 34.9167C300.147 35.2901 298.845 35.356 297.584 35.1087C296.024 34.6527 295.4 33.3567 294.752 31.9887C294.488 31.4847 293.96 31.2447 294.008 31.7247C294.554 33.1374 294.749 34.661 294.578 36.1655C294.406 37.6701 293.873 39.1108 293.024 40.3647C292.88 40.5567 293.024 40.7487 293.216 40.6767C297.92 38.6847 299.264 42.0207 300.152 42.4767ZM295.208 34.0047C295.663 34.8845 296.427 35.565 297.353 35.9151C298.279 36.2652 299.302 36.26 300.224 35.9007C299.705 36.4463 299.322 37.1065 299.105 37.8277C298.888 38.549 298.844 39.3112 298.976 40.0527C298.312 39.5702 297.536 39.2662 296.72 39.1695C295.905 39.0729 295.079 39.1869 294.32 39.5007C295.227 37.821 295.54 35.8844 295.208 34.0047ZM204.296 55.4847C204.296 55.7007 204.296 55.9167 204.488 55.9887C204.68 56.0607 205.232 55.1487 205.352 54.8847C207.536 50.0847 211.016 52.4847 211.376 52.1247V51.9807C210.509 51.624 209.7 51.1385 208.976 50.5407C205.904 48.1407 209.36 44.0127 208.496 43.8447C207.632 43.6767 206.384 49.5087 201.296 48.8127C200.96 48.8127 200.576 48.8127 201.056 49.1247C202.164 49.7464 203.063 50.6822 203.64 51.814C204.216 52.9459 204.445 54.2231 204.296 55.4847ZM207.224 46.0527C206.895 47.0254 206.919 48.0831 207.292 49.0399C207.665 49.9968 208.364 50.7915 209.264 51.2847C208.529 51.1723 207.777 51.2758 207.1 51.5825C206.423 51.8893 205.849 52.3861 205.448 53.0127C205.343 52.156 205.015 51.3419 204.497 50.6514C203.979 49.9609 203.289 49.418 202.496 49.0767C202.784 48.9807 204.68 49.3647 207.224 46.0767V46.0527Z" fill="black"/>
<path d="M118.976 140.349C119.408 139.461 119.792 137.589 118.712 137.589C118.304 137.589 118.136 138.165 118.064 138.501C117.992 138.837 117.56 140.229 118.064 140.517C118.209 140.611 118.384 140.647 118.554 140.615C118.724 140.584 118.875 140.489 118.976 140.349ZM119.84 149.397C117.24 150.727 114.383 151.48 111.464 151.605C112.928 152.049 114.486 152.077 115.965 151.687C117.444 151.298 118.786 150.505 119.84 149.397ZM118.112 134.397C119 134.853 119.888 135.261 120.8 135.621C120.716 135.356 120.577 135.111 120.392 134.903C120.207 134.695 119.981 134.528 119.728 134.413C119.475 134.297 119.2 134.236 118.922 134.233C118.644 134.231 118.368 134.286 118.112 134.397ZM116.144 126.765C117.915 126.079 119.639 125.277 121.304 124.365C117.528 125.554 113.897 127.164 110.48 129.165C112.459 128.599 114.361 127.793 116.144 126.765ZM105.68 126.837C106.736 126.309 108.896 125.301 108.776 125.061C106.468 125.716 104.302 126.799 102.392 128.253C102.488 128.493 104.6 127.485 105.68 126.837ZM112.712 147.429C110.984 147.429 109.064 147.429 109.304 145.341C109.76 142.701 111.104 139.197 111.464 137.349C109.966 139.587 108.9 142.086 108.32 144.717C108.128 145.749 108.008 146.973 109.016 147.645C109.599 147.93 110.245 148.06 110.893 148.022C111.54 147.984 112.167 147.78 112.712 147.429ZM106.568 139.485C106.76 140.085 107.336 140.037 107.72 139.485C108.248 138.549 108.344 136.653 107.264 136.845C106.184 137.037 106.4 138.813 106.568 139.485ZM105.824 134.901C106.808 134.637 107.984 134.181 108.776 134.061C108.536 133.89 108.261 133.776 107.971 133.726C107.68 133.676 107.382 133.692 107.099 133.773C106.816 133.854 106.554 133.997 106.334 134.192C106.113 134.387 105.939 134.629 105.824 134.901ZM466.28 213.453C447.296 213.069 430.472 209.805 415.16 197.229C414.306 196.545 413.504 195.799 412.76 194.997C412.472 194.685 411.969 193.917 411.465 193.845C410.961 193.773 410.577 194.445 410.193 194.829C407.318 197.823 403.917 200.263 400.16 202.029C385.928 183.981 369.584 184.101 368.504 183.693C366.104 177.285 365.984 175.725 364.521 175.869V175.221C367.959 176.168 371.607 176.026 374.96 174.813C383.48 171.549 382.568 158.349 381.032 152.013C383.208 151.273 385.129 149.933 386.576 148.149C387.217 146.805 387.466 145.308 387.296 143.829C386.96 141.669 387.032 139.029 384.896 137.709C384.353 136.79 383.856 135.845 383.408 134.877C379.376 126.477 368.288 122.253 358.832 122.205C362.158 122.943 365.24 124.519 367.785 126.783C370.331 129.047 372.255 131.924 373.376 135.141H372.008C370.409 131.455 367.756 128.324 364.383 126.142C361.009 123.96 357.066 122.824 353.049 122.877C341.049 124.581 330.248 141.261 336.632 157.341C326.408 155.949 299.961 152.877 296.769 152.541C309.906 155.391 323.254 157.165 336.68 157.845C338.576 162.645 342.416 167.445 347.312 165.525C348.37 164.989 349.299 164.231 350.036 163.303C350.773 162.376 351.301 161.3 351.585 160.149C352.218 157.734 352.635 155.269 352.832 152.781C361.928 149.421 365.6 147.669 379.232 148.269C380.031 152.158 380.497 156.108 380.624 160.077C380.837 163.475 380.15 166.869 378.632 169.917C377.834 171.228 376.733 172.328 375.422 173.126C374.111 173.923 372.628 174.395 371.096 174.501C366.296 175.149 363.896 173.829 363.608 174.261C363.32 174.693 363.608 175.293 363.608 175.749C362.336 175.581 348.992 174.141 348.992 174.309C348.992 170.373 348.993 170.733 348.848 170.421C348.39 169.492 348.222 168.446 348.368 167.421C348.368 167.277 348.368 166.365 348.488 166.293C347.119 166.909 345.588 167.069 344.12 166.749C344.653 167.566 345.103 168.434 345.464 169.341C345.652 169.832 345.979 170.257 346.405 170.564C346.832 170.872 347.339 171.047 347.864 171.069C348.009 172.039 348.009 173.026 347.864 173.997C345.848 173.637 346.232 173.109 344.96 178.797C344.216 181.989 344.312 182.109 343.544 182.301C341.456 182.829 339.392 183.549 337.304 184.077C328.854 185.981 320.851 189.502 313.736 194.445C305.72 199.725 301.04 207.645 295.664 215.277C293.12 212.469 285.632 205.677 280.616 200.637C281.152 197.013 281.232 193.337 280.856 189.693C278.816 183.765 270.68 181.245 266.456 180.741C267.968 177.597 283.017 145.221 284.241 142.509C288.153 133.893 288.801 133.533 289.04 131.205C288.996 130.035 288.566 128.912 287.816 128.013C286.88 127.173 289.616 128.973 251.816 105.813L239.337 105.981C238.36 105.914 237.384 106.104 236.505 106.533C234.91 107.384 233.413 108.406 232.04 109.581C201.656 130.389 198.632 131.901 199.592 135.453C200.207 137.026 201.013 138.517 201.992 139.893C202.136 140.133 225.992 180.693 225.992 180.837C221.6 181.173 214.808 182.853 212.168 186.789C210.464 189.501 211.184 192.933 211.448 195.885C211.688 199.317 211.448 203.085 211.448 206.445C211.112 225.453 212.672 238.533 212.672 272.805C212.672 276.477 212.432 280.173 212.432 283.869C212.432 286.269 211.856 291.405 211.928 294.669C211.843 296.16 212.275 297.635 213.152 298.845C213.416 299.349 214.136 299.589 214.4 300.069C214.664 300.549 214.112 342.309 214.4 346.269C214.408 347.562 214.812 348.822 215.559 349.878C216.306 350.934 217.359 351.735 218.576 352.173C221.341 353.629 224.324 354.626 227.408 355.125C241.625 357.594 256.205 357.005 270.176 353.397C272.712 352.888 275.026 351.605 276.8 349.725C277.684 348.611 278.121 347.207 278.024 345.789V300.021C278.059 299.683 278.164 299.357 278.334 299.063C278.503 298.77 278.733 298.515 279.008 298.317C280.76 295.101 279.824 292.413 279.752 287.997C279.536 275.301 280.257 271.533 280.257 243.765C280.257 216.669 279.68 208.221 280.257 201.669C286.016 207.597 293.984 215.373 294.824 216.405C293.6 218.157 282.344 231.597 283.808 247.341C284.232 250.521 285.359 253.566 287.106 256.256C288.854 258.946 291.179 261.213 293.913 262.893C297.248 265.032 300.815 266.787 304.544 268.125C290.48 308.181 307.856 333.165 321.968 381.741H321.249C324.129 392.207 325.383 403.053 324.968 413.901C324.784 421.192 323.77 428.439 321.944 435.501C321.44 437.901 320.144 439.869 320.96 442.437C321.624 443.505 322.551 444.386 323.651 444.995C324.752 445.605 325.99 445.922 327.249 445.917C333.801 446.445 336.464 445.653 342.057 445.725C344.466 445.748 346.857 445.291 349.088 444.381C351.488 442.989 349.353 440.661 347.648 439.725C345.008 438.333 341.6 438.549 338.936 437.157C352.007 421.035 361.439 402.279 366.585 382.173C352.264 383.533 337.841 383.38 323.552 381.717C311.24 341.277 305.624 330.285 302.336 313.965C299.751 298.796 300.904 283.227 305.696 268.605C315.752 272.493 334.665 277.485 346.184 277.149C350.011 293.892 357.439 309.6 367.952 323.181C371.067 341.412 370.635 360.073 366.68 378.141C366.68 378.621 366.416 379.293 366.416 379.773C366.416 380.253 366.681 380.229 366.921 380.469C371.454 362.136 372.271 343.082 369.32 324.429C376.625 334.186 385.774 342.413 396.249 348.645C398.889 350.037 401.432 351.333 404.336 350.205C403.97 361.613 400.911 372.772 395.408 382.773C392.048 383.397 368.456 382.533 368.216 382.533C367.976 382.533 367.736 382.269 367.736 382.749C366.193 389.036 364.221 395.211 361.832 401.229C361.093 403.222 360.186 405.149 359.121 406.989C358.664 408.309 357.704 408.309 358.136 411.141C357.954 419.174 356.949 427.168 355.136 434.997C354.584 437.397 352.904 440.301 354.368 442.629C355.138 443.617 356.131 444.408 357.266 444.938C358.401 445.468 359.645 445.721 360.896 445.677C363.88 445.988 366.889 445.988 369.872 445.677C375.632 445.125 383.36 445.677 382.976 442.269C382.976 440.637 380.576 439.485 379.112 438.981C376.562 438.601 374.054 437.974 371.624 437.109C384.573 420.899 394.013 402.175 399.344 382.125C398.84 382.125 398.12 382.341 397.64 382.341C401.816 372.549 405.464 361.173 405.512 350.469C405.512 349.293 405.752 349.317 406.76 348.789C411.99 345.125 416.969 341.116 421.664 336.789C433.172 326.964 442.416 314.765 448.76 301.029C455.552 285.933 460.928 269.253 465.56 241.869C467.432 228.837 467.264 229.125 468.344 218.037C468.54 216.807 468.628 215.562 468.608 214.317C468.68 213.021 467.048 213.477 466.28 213.453ZM368.384 147.309C361.373 147.831 354.601 150.091 348.68 153.885C346.736 154.581 346.281 152.493 346.52 151.125C347.913 145.221 354.368 139.125 362.6 137.301C369.175 135.753 376.018 135.753 382.592 137.301C383.604 137.689 384.483 138.358 385.125 139.23C385.767 140.102 386.146 141.14 386.216 142.221V146.301C386.041 147.246 385.593 148.12 384.928 148.815C384.263 149.51 383.409 149.996 382.473 150.213C383.768 149.493 383.841 147.453 380.384 147.117C376.386 146.845 372.372 146.91 368.384 147.309ZM380.384 148.317C380.946 148.302 381.506 148.383 382.04 148.557C382.976 148.845 382.28 149.493 381.776 149.925L380.816 150.837C380.809 149.988 380.705 149.142 380.504 148.317H380.384ZM286.328 134.901C286.328 135.069 274.736 158.373 272.552 163.149C272.288 163.821 262.952 183.621 262.472 184.029C261.992 184.437 255.056 187.077 253.352 187.797C253.352 187.557 264.368 140.973 264.848 138.477C265.329 138.309 287.169 131.277 287.648 131.085C287.479 132.418 287.073 133.71 286.449 134.901H286.328ZM252.728 187.701C248.544 187.912 244.351 187.84 240.176 187.485C237.776 178.653 234.656 169.917 232.208 161.613C228.584 149.301 228.824 153.141 225.008 138.477C226.088 138.021 262.832 138.165 264.008 138.477C262.904 143.469 254.36 178.677 252.824 187.821L252.728 187.701ZM251.12 107.013C252.032 107.397 285.896 127.725 287.36 129.093L287.672 129.765C286.4 130.317 265.304 136.821 264.224 137.133C263.336 135.813 250.016 111.645 247.232 106.797C248.568 106.794 249.901 106.906 251.216 107.133L251.12 107.013ZM246.512 106.821C248.116 110.264 249.927 113.606 251.936 116.829C253.113 118.989 248.048 109.869 263.336 137.421L224.936 137.565C224.936 136.725 233.96 121.989 235.184 119.877C237.404 115.481 239.863 111.21 242.552 107.085C244.184 107.133 245.48 107.013 246.608 106.941L246.512 106.821ZM208.472 127.029C216.488 121.125 224.552 115.437 233.816 109.221C235.018 108.362 236.325 107.66 237.704 107.133H241.304C241.136 107.373 226.232 133.173 224.192 137.301L201.248 133.173C203.346 130.786 205.78 128.716 208.472 127.029ZM203.384 139.317C202.425 137.692 201.66 135.96 201.104 134.157C201.104 133.917 223.784 138.285 224.024 138.285C224.264 138.285 227.888 151.725 229.616 156.621C235.688 175.653 237.08 178.413 238.976 187.413C237.152 186.549 229.52 184.077 229.376 183.981C229.112 183.381 206.024 144.597 203.384 139.317ZM276.848 347.445C276.225 349.845 271.545 351.645 269.241 352.245C259.641 355.029 250.52 355.197 240.44 355.197C233.295 355.204 226.213 353.869 219.56 351.261C218.68 350.967 217.872 350.486 217.193 349.853C216.514 349.219 215.979 348.447 215.624 347.589C215.24 345.693 215.384 348.357 215.384 300.405C215.845 300.604 216.348 300.687 216.848 300.645C217.328 300.645 218.072 300.885 218.576 300.885C225.776 301.293 226.424 305.325 232.976 306.549C238.76 306.861 240.176 304.749 246.248 305.325C251.048 306.405 254.336 308.253 259.257 307.533C264.584 306.093 265.064 303.597 271.064 302.109C273.29 301.838 275.45 301.18 277.449 300.165C276.32 314.109 278.072 342.885 276.848 347.445ZM225.992 218.925C226.232 218.445 226.472 218.685 226.472 218.925C226.472 225.069 227.48 231.357 226.736 247.437C226.29 263.066 224.976 278.658 222.8 294.141C222.536 294.381 222.296 293.877 222.296 293.637C222.296 292.653 222.536 291.909 222.536 290.925C226.28 253.941 225.992 218.685 225.992 218.925ZM235.88 204.693C236.624 203.949 236.384 205.413 236.384 205.677C236.384 213.165 234.992 257.397 235.88 274.221C235.88 274.461 236.144 275.205 235.88 275.445C235.616 275.685 235.4 275.205 235.4 274.965C235.4 274.725 233 238.197 236.144 207.381V206.157C235.568 205.413 235.568 204.933 235.88 204.693ZM256.28 252.693C256.52 252.453 256.785 252.693 256.785 252.933C256.785 253.173 258.488 298.533 258.249 298.533C258.008 298.533 257.769 298.029 257.769 297.789C257.769 297.549 255.344 253.461 256.208 252.597L256.28 252.693ZM267.585 296.925C267.104 296.925 267.105 296.181 267.105 296.181C267.105 296.181 261.104 223.557 265.136 219.525C265.88 219.285 265.376 221.733 265.376 221.925C263.072 244.245 268.497 296.829 267.512 296.829L267.585 296.925ZM273.488 234.525C273.248 234.789 272.984 235.029 272.744 234.525C272.504 234.021 272.744 233.565 272.744 233.061C272.189 225.947 272.029 218.808 272.264 211.677C272.384 206.877 272.984 202.917 272.984 200.877C274.184 199.677 273.512 206.565 273.488 233.301C273.416 233.685 273.656 233.925 273.416 234.405L273.488 234.525ZM276.441 193.005C268.232 198.021 241.616 201.669 221.384 195.405C218.432 194.445 210.584 191.493 213.536 187.053C215.768 183.693 221.072 182.685 224.744 181.917C225.119 181.869 225.498 181.869 225.872 181.917C226.808 182.085 227.552 184.317 227.72 184.317C227.869 184.413 228.03 184.486 228.2 184.533C243.608 189.621 235.4 188.301 249.464 189.333C251.246 189.475 253.038 189.238 254.72 188.637C257.499 187.836 260.231 186.882 262.905 185.781C263.984 185.373 264.033 184.989 265.785 181.893C278.648 183.765 280.929 191.037 276.368 192.885L276.441 193.005ZM399.08 202.173C396.944 203.181 394.809 204.165 392.672 204.981C390.553 199.007 387.154 193.568 382.712 189.045C388.664 192.501 394.592 195.885 399.08 202.173ZM346.28 174.501C349.712 174.861 364.28 176.253 364.712 176.445C365.011 176.706 365.227 177.048 365.336 177.429C366.033 179.373 366.584 181.389 367.112 183.381C367.112 182.973 353.72 182.277 344.744 181.917C345.608 179.085 345.872 175.725 346.28 174.501ZM328.28 272.661C318.418 270.821 308.768 267.982 299.48 264.189C290.936 260.661 284.888 254.301 284.552 245.157C284.336 232.341 291.249 222.573 298.52 212.133C303.158 204.585 309.495 198.224 317.024 193.557C320.837 191.275 324.854 189.354 329.024 187.821C332.496 190.183 335.186 193.525 336.752 197.421C339.056 202.59 340.07 208.242 339.706 213.89C339.342 219.538 337.612 225.013 334.664 229.845C332.784 233.014 331.178 236.338 329.864 239.781C329.624 240.453 329.12 240.717 329.624 241.149C330.128 241.581 330.824 241.845 331.304 242.301C335.012 244.889 338.57 247.686 341.96 250.677C342.44 251.157 342.44 251.373 342.416 252.093C343.086 259.819 344.354 267.482 346.208 275.013C342.464 274.485 328.832 273.093 328.376 272.661H328.28ZM401.48 348.429C399.776 348.264 398.132 347.706 396.68 346.797C359.744 324.285 340.52 273.357 344.168 226.797C344.634 220.971 345.435 215.178 346.568 209.445C361.358 211.898 376.508 211.029 390.921 206.901C398.21 204.999 404.93 201.359 410.504 196.293C410.696 197.949 411.104 200.901 411.536 207.021C411.536 208.053 411.752 208.797 410.768 209.421C409.784 210.045 402.296 215.589 384.68 219.021C374.809 221.178 364.627 221.52 354.632 220.029C354.632 221.181 354.416 222.429 354.368 223.485C353.283 243.066 355.656 262.686 361.376 281.445C368.576 304.389 385.376 332.589 403.208 337.821C402.921 340.149 401.984 345.885 401.48 348.429ZM406.664 313.797C405.872 321.717 404.48 328.845 403.496 336.525C393.272 334.125 376.784 313.557 370.736 300.525C363.34 284.253 358.577 266.908 356.624 249.141C355.752 239.928 355.503 230.667 355.88 221.421C360.488 221.901 364.52 223.821 385.376 220.461C394.882 218.911 403.91 215.218 411.776 209.661C411.704 210.669 413.48 244.653 406.664 313.797ZM412.809 210.333C418.996 215.371 426.137 219.109 433.803 221.324C441.469 223.538 449.503 224.183 457.424 223.221C456.752 233.15 455.494 243.031 453.656 252.813C450.807 269.843 445.249 286.308 437.193 301.581C426.368 321.645 410.792 334.053 404.288 336.525C405.272 330.429 406.376 324.525 407.096 318.333C410.936 283.893 414.296 245.085 412.809 210.333ZM467.048 220.413C465.633 245.493 457.88 283.461 444.344 307.317C436.817 320.158 426.893 331.435 415.112 340.533C407.288 346.701 405.08 348.237 402.44 348.573C402.44 348.117 404.12 337.869 404.168 337.629C411.056 336.069 448.521 312.045 457.473 235.725C457.977 231.309 457.976 226.701 458.504 222.045C450.392 223.397 442.081 222.936 434.168 220.696C426.254 218.455 418.935 214.49 412.736 209.085C412.736 208.749 412.088 198.165 411.632 196.173C427.064 210.573 445.952 215.733 467.432 214.965C467.408 216.717 467.048 218.685 467.048 220.413Z" fill="black"/>
<path d="M364.328 152.901C363.224 152.733 363.728 154.653 363.92 155.109L364.064 155.397C364.153 155.517 364.276 155.608 364.418 155.655C364.56 155.702 364.713 155.704 364.856 155.661C365.432 155.397 365.096 154.269 364.856 153.765C364.616 153.261 364.76 152.973 364.328 152.901ZM371.408 166.101C368.547 165.979 365.743 165.26 363.176 163.989C364.234 165.045 365.556 165.798 367.004 166.17C368.452 166.541 369.973 166.518 371.408 166.101ZM362.288 150.933C363.205 150.598 364.102 150.214 364.976 149.781C364.725 149.672 364.454 149.617 364.181 149.616C363.907 149.616 363.637 149.672 363.385 149.779C363.134 149.887 362.907 150.045 362.718 150.243C362.53 150.441 362.383 150.676 362.288 150.933ZM372.488 144.789C369.045 143.078 365.494 141.594 361.856 140.349C365.32 142.015 368.869 143.497 372.488 144.789ZM380.48 143.997C378.587 142.607 376.456 141.574 374.192 140.949C376.17 142.193 378.279 143.215 380.48 143.997ZM370.28 162.093C370.818 162.399 371.421 162.572 372.039 162.597C372.657 162.622 373.272 162.499 373.832 162.237C374.816 161.637 374.696 160.485 374.504 159.501C374.006 156.988 373.002 154.604 371.552 152.493C372.008 154.629 373.232 157.605 373.64 160.029C373.808 161.997 371.936 162.093 370.28 162.093ZM375.2 154.845C375.536 155.229 376.136 155.277 376.328 154.845C376.496 154.029 376.328 152.445 375.632 152.445C374.936 152.445 374.6 153.885 375.2 154.845ZM374.168 149.541C375.158 149.716 376.13 149.982 377.072 150.333C376.949 150.075 376.771 149.848 376.552 149.665C376.333 149.482 376.077 149.349 375.801 149.274C375.526 149.199 375.238 149.184 374.956 149.23C374.674 149.276 374.406 149.382 374.168 149.541Z" fill="black"/>
</svg>
