<svg viewBox="0 0 24 24" fill="none" xmlns="http://www.w3.org/2000/svg">
  <path d="M9.89401 7.343L13.798 3.928L9.40601 1" stroke="#0B0B14" stroke-width="1.5" stroke-linecap="round" stroke-linejoin="round" class="stroke"/>
  <path d="M17.0319 5.225C19.0697 6.47849 20.566 8.44771 21.2277 10.7468C21.8893 13.046 21.6687 15.5093 20.6089 17.6543C19.5492 19.7992 17.7267 21.4711 15.4986 22.3425C13.2705 23.2139 10.7973 23.2219 8.56356 22.3649C6.32984 21.508 4.4966 19.8479 3.42299 17.7099C2.34938 15.5718 2.11279 13.11 2.75957 10.8066C3.40635 8.50323 4.88989 6.52437 6.91952 5.25772C8.94915 3.99107 11.3786 3.52791 13.7319 3.959" stroke="#0B0B14" stroke-width="1.5" stroke-linecap="round" stroke-linejoin="round" class="stroke"/>
  <path d="M16.3369 14.478H13.3369V13.728C13.3369 12.9324 13.653 12.1693 14.2156 11.6067C14.7782 11.0441 15.5413 10.728 16.3369 10.728V16.728" stroke="#0B0B14" stroke-width="1.5" stroke-linecap="round" stroke-linejoin="round" class="stroke"/>
  <path d="M7.33691 12.228C7.33691 11.8302 7.49495 11.4486 7.77625 11.1673C8.05756 10.886 8.43909 10.728 8.83691 10.728V10.728C9.23474 10.728 9.61627 10.886 9.89757 11.1673C10.1789 11.4486 10.3369 11.8302 10.3369 12.228V12.228C10.3372 12.7137 10.1717 13.185 9.86791 13.564L7.33691 16.728H10.3369" stroke="#0B0B14" stroke-width="1.5" stroke-linecap="round" stroke-linejoin="round" class="stroke"/>
</svg>
