<svg viewBox="0 0 24 24" fill="none" xmlns="http://www.w3.org/2000/svg">
<path d="M16.9407 9.31111L17.0392 10.3063C17.5697 10.2538 17.9658 9.79429 17.9395 9.26182C17.9132 8.72934 17.4738 8.31111 16.9407 8.31111V9.31111ZM12 9.8L11.9061 10.7956C11.9701 10.8016 12.0345 10.8015 12.0985 10.7951L12 9.8ZM6.81778 9.31111L6.9117 8.31553C6.88048 8.31259 6.84914 8.31111 6.81778 8.31111V9.31111ZM6.81778 12.2444L6.9794 11.2576C6.92597 11.2488 6.87192 11.2444 6.81778 11.2444V12.2444ZM9.80293 12.7333H10.8029C10.8029 12.2434 10.448 11.8257 9.96455 11.7465L9.80293 12.7333ZM9.80293 14.5608L10.5743 15.1972C10.7221 15.0181 10.8029 14.7931 10.8029 14.5608H9.80293ZM7.64009 17.1822L8.36876 17.8671C8.3835 17.8514 8.39774 17.8352 8.41144 17.8186L7.64009 17.1822ZM9.90169 19.04L9.13062 18.4033C9.1159 18.4211 9.1018 18.4394 9.08836 18.4582L9.90169 19.04ZM11.955 16.5535L12.7503 15.9472C12.5653 15.7045 12.2796 15.5596 11.9745 15.5537C11.6694 15.5478 11.3783 15.6815 11.184 15.9168L11.955 16.5535ZM13.8187 18.998L13.0234 19.6042L13.0237 19.6046L13.8187 18.998ZM16.1507 17.2184L16.9456 16.6118L16.9449 16.6107L16.1507 17.2184ZM14.1951 14.6625H13.1951C13.1951 14.8821 13.2674 15.0957 13.4009 15.2701L14.1951 14.6625ZM14.1951 12.7333L14.0193 11.7489C13.5424 11.8341 13.1951 12.2489 13.1951 12.7333H14.1951ZM16.9329 12.2444V11.2444C16.8739 11.2444 16.8151 11.2497 16.7571 11.26L16.9329 12.2444ZM16.9329 8.31111C16.3806 8.31111 15.9329 8.75883 15.9329 9.31111C15.9329 9.8634 16.3806 10.3111 16.9329 10.3111V8.31111ZM22 12C22 17.5228 17.5228 22 12 22V24C18.6274 24 24 18.6274 24 12H22ZM12 22C6.47715 22 2 17.5228 2 12H0C0 18.6274 5.37258 24 12 24V22ZM2 12C2 6.47715 6.47715 2 12 2V0C5.37258 0 0 5.37258 0 12H2ZM12 2C17.5228 2 22 6.47715 22 12H24C24 5.37258 18.6274 0 12 0V2ZM12.9556 5.64444C12.9556 6.17218 12.5277 6.6 12 6.6V8.6C13.6323 8.6 14.9556 7.27675 14.9556 5.64444H12.9556ZM12 6.6C11.4723 6.6 11.0444 6.17218 11.0444 5.64444H9.04444C9.04444 7.27675 10.3677 8.6 12 8.6V6.6ZM11.0444 5.64444C11.0444 5.11671 11.4723 4.68889 12 4.68889V2.68889C10.3677 2.68889 9.04444 4.01214 9.04444 5.64444H11.0444ZM12 4.68889C12.5277 4.68889 12.9556 5.11671 12.9556 5.64444H14.9556C14.9556 4.01214 13.6323 2.68889 12 2.68889V4.68889ZM16.8422 8.31597L11.9015 8.80486L12.0985 10.7951L17.0392 10.3063L16.8422 8.31597ZM12.0939 8.80442L6.9117 8.31553L6.72386 10.3067L11.9061 10.7956L12.0939 8.80442ZM6.81778 8.31111C6.16358 8.31111 5.53617 8.57099 5.07358 9.03358L6.48779 10.4478C6.57531 10.3603 6.69401 10.3111 6.81778 10.3111V8.31111ZM5.07358 9.03358C4.61099 9.49617 4.35111 10.1236 4.35111 10.7778H6.35111C6.35111 10.654 6.40028 10.5353 6.48779 10.4478L5.07358 9.03358ZM4.35111 10.7778C4.35111 11.432 4.61099 12.0594 5.07358 12.522L6.48779 11.1078C6.40028 11.0202 6.35111 10.9015 6.35111 10.7778H4.35111ZM5.07358 12.522C5.53617 12.9846 6.16358 13.2444 6.81778 13.2444V11.2444C6.69401 11.2444 6.57531 11.1953 6.48779 11.1078L5.07358 12.522ZM6.65616 13.2313L9.64131 13.7202L9.96455 11.7465L6.9794 11.2576L6.65616 13.2313ZM8.80293 12.7333V14.5608H10.8029V12.7333H8.80293ZM9.03159 13.9244L6.86874 16.5458L8.41144 17.8186L10.5743 15.1972L9.03159 13.9244ZM6.91142 16.4974C6.68008 16.7435 6.50176 17.0345 6.38751 17.3524L8.26964 18.0289C8.29125 17.9687 8.32499 17.9137 8.36876 17.8671L6.91142 16.4974ZM6.38751 17.3524C6.27326 17.6703 6.22552 18.0082 6.24724 18.3453L8.2431 18.2167C8.23899 18.1529 8.24802 18.089 8.26964 18.0289L6.38751 17.3524ZM6.24724 18.3453C6.26896 18.6824 6.35968 19.0114 6.51378 19.312L8.29353 18.3996C8.26437 18.3427 8.24721 18.2805 8.2431 18.2167L6.24724 18.3453ZM6.51378 19.312C6.66788 19.6126 6.88208 19.8783 7.14309 20.0927L8.41259 18.5473C8.36321 18.5067 8.32268 18.4565 8.29353 18.3996L6.51378 19.312ZM7.14309 20.0927C7.40411 20.3071 7.70638 20.4657 8.03116 20.5585L8.5806 18.6354C8.51915 18.6179 8.46197 18.5879 8.41259 18.5473L7.14309 20.0927ZM8.03116 20.5585C8.35596 20.6513 8.69634 20.6764 9.03123 20.6322L8.7698 18.6494C8.70644 18.6577 8.64204 18.653 8.5806 18.6354L8.03116 20.5585ZM9.03123 20.6322C9.36611 20.588 9.68836 20.4756 9.978 20.3018L8.94892 18.5868C8.89412 18.6197 8.83316 18.641 8.7698 18.6494L9.03123 20.6322ZM9.978 20.3018C10.2676 20.128 10.5185 19.8965 10.715 19.6218L9.08836 18.4582C9.05118 18.5102 9.00372 18.554 8.94892 18.5868L9.978 20.3018ZM10.6728 19.6767L12.7261 17.1903L11.184 15.9168L9.13062 18.4033L10.6728 19.6767ZM11.1598 17.1598L13.0234 19.6042L14.6139 18.3917L12.7503 15.9472L11.1598 17.1598ZM13.0237 19.6046C13.4206 20.1247 14.0078 20.4658 14.6562 20.5529L14.9225 18.5707C14.7998 18.5543 14.6887 18.4897 14.6136 18.3913L13.0237 19.6046ZM14.6562 20.5529C15.3046 20.64 15.961 20.466 16.4811 20.0692L15.2678 18.4792C15.1694 18.5543 15.0452 18.5872 14.9225 18.5707L14.6562 20.5529ZM16.4811 20.0692C17.0012 19.6723 17.3423 19.0851 17.4294 18.4367L15.4472 18.1703C15.4307 18.293 15.3662 18.4041 15.2678 18.4792L16.4811 20.0692ZM17.4294 18.4367C17.5165 17.7883 17.3425 17.1318 16.9456 16.6118L15.3557 17.825C15.4308 17.9234 15.4637 18.0476 15.4472 18.1703L17.4294 18.4367ZM16.9449 16.6107L14.9893 14.0548L13.4009 15.2701L15.3565 17.8261L16.9449 16.6107ZM15.1951 14.6625V12.7333H13.1951V14.6625H15.1951ZM14.3709 13.7178L17.1087 13.2289L16.7571 11.26L14.0193 11.7489L14.3709 13.7178ZM16.9329 13.2444C17.5871 13.2444 18.2145 12.9846 18.6771 12.522L17.2629 11.1078C17.1754 11.1953 17.0567 11.2444 16.9329 11.2444V13.2444ZM18.6771 12.522C19.1397 12.0594 19.3996 11.432 19.3996 10.7778H17.3996C17.3996 10.9015 17.3504 11.0202 17.2629 11.1078L18.6771 12.522ZM19.3996 10.7778C19.3996 10.1236 19.1397 9.49617 18.6771 9.03358L17.2629 10.4478C17.3504 10.5353 17.3996 10.654 17.3996 10.7778H19.3996ZM18.6771 9.03358C18.2145 8.57099 17.5871 8.31111 16.9329 8.31111V10.3111C17.0567 10.3111 17.1754 10.3603 17.2629 10.4478L18.6771 9.03358ZM16.9329 10.3111H16.9407V8.31111H16.9329V10.3111Z" fill="currentColor" />
</svg>
