<svg viewBox="0 0 24 24" fill="none" xmlns="http://www.w3.org/2000/svg">
<path d="M7.904 14.308L4.313 4.441M18.473 1.682C19.2189 1.41717 20.0393 1.45788 20.7553 1.79524C21.4714 2.1326 22.0251 2.73927 22.2958 3.48308C22.5665 4.22688 22.5323 5.04754 22.2006 5.76623C21.8689 6.48492 21.2666 7.04341 20.525 7.32L7.135 12.194L5.082 6.556L18.473 1.682ZM6 20.25C6 20.8467 5.76295 21.419 5.34099 21.841C4.91903 22.2629 4.34674 22.5 3.75 22.5C3.15326 22.5 2.58097 22.2629 2.15901 21.841C1.73705 21.419 1.5 20.8467 1.5 20.25C1.5 19.007 3.75 16.5 3.75 16.5C3.75 16.5 6 19.007 6 20.25Z" stroke="#0B0B14" stroke-width="1.5" stroke-linecap="round" stroke-linejoin="round" class="stroke"/>
</svg>
