<svg viewBox="0 0 24 24" fill="none" xmlns="http://www.w3.org/2000/svg">
  <path d="M18.473 1.682C19.219 1.41718 20.0393 1.45788 20.7554 1.79524C21.4714 2.1326 22.0251 2.73928 22.2958 3.48308C22.5665 4.22689 22.5323 5.04754 22.2006 5.76623C21.869 6.48493 21.2667 7.04341 20.525 7.32L7.13503 12.194L5.08203 6.556L18.473 1.682Z" stroke="#0B0B14" stroke-width="1.5" stroke-linecap="round" stroke-linejoin="round" class="stroke"/>
  <path d="M7.90399 14.308L4.31299 4.441" stroke="#0B0B14" stroke-width="1.5" stroke-linecap="round" stroke-linejoin="round" class="stroke"/>
  <path d="M6 20.25C6 20.8467 5.76295 21.419 5.34099 21.841C4.91903 22.2629 4.34674 22.5 3.75 22.5C3.15326 22.5 2.58097 22.2629 2.15901 21.841C1.73705 21.419 1.5 20.8467 1.5 20.25C1.5 19.007 3.75 16.5 3.75 16.5C3.75 16.5 6 19.007 6 20.25Z" stroke="#0B0B14" stroke-width="1.5" stroke-linecap="round" stroke-linejoin="round" class="stroke"/>
</svg>
