<svg viewBox="0 0 24 24" fill="none" xmlns="http://www.w3.org/2000/svg">
<path d="M11.9999 13.956C13.0802 13.956 13.9559 13.0803 13.9559 12C13.9559 10.9197 13.0802 10.044 11.9999 10.044M11.9999 13.956C10.9197 13.956 10.0439 13.0803 10.0439 12C10.0439 10.9197 10.9197 10.044 11.9999 10.044M11.9999 13.956L11.9997 18.0622M11.9999 10.044L11.9997 5.93774M11.9997 5.93774L10.533 7.40368M11.9997 5.93774L13.4663 7.40368M11.9997 18.0622L10.533 16.5963M11.9997 18.0622L13.4663 16.5963M17.2797 8.67554L13.6768 10.9937M15.8139 8.08826L17.2805 8.67492L17.0845 10.3376M6.72005 8.67554L10.3229 10.9937M8.18596 8.08801L6.71929 8.67468L6.91532 10.3374M17.2795 15.3245L13.6767 13.0063M17.2795 15.3245L15.8134 15.9114M17.2795 15.3245L17.084 13.662M6.71968 15.3245L10.3225 13.0063M6.71968 15.3245L8.18596 15.9114M6.71968 15.3245L6.91532 13.662M13.4669 2.467C13.4669 3.2772 12.8101 3.934 11.9999 3.934C11.1897 3.934 10.5329 3.2772 10.5329 2.467C10.5329 1.6568 11.1897 1 11.9999 1C12.8101 1 13.4669 1.6568 13.4669 2.467ZM13.4669 21.533C13.4669 22.3432 12.8101 23 11.9999 23C11.1897 23 10.5329 22.3432 10.5329 21.533C10.5329 20.7228 11.1897 20.066 11.9999 20.066C12.8101 20.066 13.4669 20.7228 13.4669 21.533ZM21.7779 17.087C21.7779 17.8972 21.1211 18.554 20.3109 18.554C19.5007 18.554 18.8439 17.8972 18.8439 17.087C18.8439 16.2768 19.5007 15.62 20.3109 15.62C21.1211 15.62 21.7779 16.2768 21.7779 17.087ZM5.15592 17.087C5.15592 17.8972 4.49913 18.554 3.68892 18.554C2.87872 18.554 2.22192 17.8972 2.22192 17.087C2.22192 16.2768 2.87872 15.62 3.68892 15.62C4.49913 15.62 5.15592 16.2768 5.15592 17.087ZM21.7779 6.916C21.7779 7.7262 21.1211 8.383 20.3109 8.383C19.5007 8.383 18.8439 7.7262 18.8439 6.916C18.8439 6.1058 19.5007 5.449 20.3109 5.449C21.1211 5.449 21.7779 6.1058 21.7779 6.916ZM5.15592 6.916C5.15592 7.7262 4.49913 8.383 3.68892 8.383C2.87872 8.383 2.22192 7.7262 2.22192 6.916C2.22192 6.1058 2.87872 5.449 3.68892 5.449C4.49913 5.449 5.15592 6.1058 5.15592 6.916Z" stroke="#0B0B14" stroke-width="1.66" stroke-linecap="round" stroke-linejoin="round" class="stroke"/>
</svg>
