<svg viewBox="0 0 24 24" fill="none" xmlns="http://www.w3.org/2000/svg">
  <path d="M12 22.8C12 19.3872 6.53757 18.4008 3.38157 18.1152C2.78363 18.0606 2.22789 17.7838 1.82401 17.3395C1.42014 16.8952 1.19748 16.3156 1.19997 15.7152V3.6C1.2001 3.26344 1.271 2.93067 1.40809 2.6233C1.54518 2.31592 1.74539 2.04082 1.99571 1.81585C2.24602 1.59088 2.54086 1.42107 2.86107 1.31745C3.18129 1.21384 3.51971 1.17872 3.85437 1.2144C7.05117 1.5528 12 2.6016 12 5.8512V22.8Z" stroke="#0B0B14" stroke-width="2.4" stroke-linecap="round" stroke-linejoin="round" class="stroke"/>
  <path d="M12 22.8C12 19.3872 17.4624 18.4008 20.6184 18.1152C21.2163 18.0606 21.7721 17.7838 22.176 17.3395C22.5798 16.8952 22.8025 16.3156 22.8 15.7152V3.6C22.7999 3.26344 22.729 2.93067 22.5919 2.6233C22.4548 2.31592 22.2546 2.04082 22.0043 1.81585C21.7539 1.59088 21.4591 1.42107 21.1389 1.31745C20.8187 1.21384 20.4803 1.17872 20.1456 1.2144C16.9488 1.5528 12 2.6016 12 5.8512V22.8Z" stroke="#0B0B14" stroke-width="2.4" stroke-linecap="round" stroke-linejoin="round" class="stroke"/>
</svg>
