<svg viewBox="0 0 24 24" fill="none" xmlns="http://www.w3.org/2000/svg">
<path d="M20.8 23H5.39995C4.81647 23 4.2569 22.7682 3.84432 22.3556C3.43174 21.9431 3.19995 21.3835 3.19995 20.8M3.19995 20.8V3.93333C3.19995 3.15536 3.509 2.40926 4.0591 1.85915C4.60921 1.30905 5.35532 1 6.13328 1H20.0666C20.2611 1 20.4476 1.07726 20.5852 1.21479C20.7227 1.35232 20.8 1.53884 20.8 1.73333V17.8667C20.8 18.0612 20.7227 18.2477 20.5852 18.3852C20.4476 18.5227 20.2611 18.6 20.0666 18.6H5.39995C4.81647 18.6 4.2569 18.8318 3.84432 19.2444C3.43174 19.6569 3.19995 20.2165 3.19995 20.8ZM19.3333 23V18.6" stroke="currentColor" stroke-width="2" stroke-linecap="round" stroke-linejoin="round" />
</svg>
