<svg viewBox="0 0 24 24" fill="none" xmlns="http://www.w3.org/2000/svg">
<path d="M6.80833 9.03396L10.0657 13.5935C10.1998 13.7812 10.3752 13.9357 10.5783 14.0451C10.7814 14.1544 11.0069 14.2158 11.2375 14.2244C11.468 14.233 11.6974 14.1886 11.9081 14.0947C12.1188 14.0007 12.3052 13.8597 12.4529 13.6825L23.125 0.875M21.6417 10.5172V20.1585C21.6417 20.9452 21.3291 21.6998 20.7727 22.2561C20.2164 22.8125 19.4618 23.125 18.675 23.125H3.84167C3.05486 23.125 2.30027 22.8125 1.74392 22.2561C1.18756 21.6998 0.875 20.9452 0.875 20.1585V5.32579C0.875 4.53902 1.18756 3.78447 1.74392 3.22813C2.30027 2.6718 3.05486 2.35926 3.84167 2.35926H16.45" stroke="#0B0B14" stroke-width="1.75" stroke-linecap="round" stroke-linejoin="round" class="stroke"/>
</svg>
