<svg viewBox="0 0 24 24" fill="none" xmlns="http://www.w3.org/2000/svg">
<path d="M4.58333 9.775C3.59982 9.775 2.65659 10.1657 1.96115 10.8611C1.2657 11.5566 0.875 12.4998 0.875 13.4833V15.7083H2.35833L3.1 21.6417H6.06667M19.4167 9.775C20.4002 9.775 21.3434 10.1657 22.0389 10.8611C22.7343 11.5566 23.125 12.4998 23.125 13.4833V15.7083H21.6417L20.9 21.6417H17.9333M2.35833 6.06667C2.35833 6.65677 2.59275 7.22271 3.01002 7.63998C3.42729 8.05725 3.99323 8.29167 4.58333 8.29167C5.17344 8.29167 5.73938 8.05725 6.15665 7.63998C6.57391 7.22271 6.80833 6.65677 6.80833 6.06667C6.80833 5.47656 6.57391 4.91062 6.15665 4.49335C5.73938 4.07609 5.17344 3.84167 4.58333 3.84167C3.99323 3.84167 3.42729 4.07609 3.01002 4.49335C2.59275 4.91062 2.35833 5.47656 2.35833 6.06667ZM17.1917 6.06667C17.1917 6.65677 17.4261 7.22271 17.8434 7.63998C18.2606 8.05725 18.8266 8.29167 19.4167 8.29167C20.0068 8.29167 20.5727 8.05725 20.99 7.63998C21.4072 7.22271 21.6417 6.65677 21.6417 6.06667C21.6417 5.47656 21.4072 4.91062 20.99 4.49335C20.5727 4.07609 20.0068 3.84167 19.4167 3.84167C18.8266 3.84167 18.2606 4.07609 17.8434 4.49335C17.4261 4.91062 17.1917 5.47656 17.1917 6.06667ZM9.03333 3.84167C9.03333 4.62848 9.34589 5.38306 9.90225 5.93942C10.4586 6.49577 11.2132 6.80833 12 6.80833C12.7868 6.80833 13.5414 6.49577 14.0978 5.93942C14.6541 5.38306 14.9667 4.62848 14.9667 3.84167C14.9667 3.05486 14.6541 2.30027 14.0978 1.74392C13.5414 1.18756 12.7868 0.875 12 0.875C11.2132 0.875 10.4586 1.18756 9.90225 1.74392C9.34589 2.30027 9.03333 3.05486 9.03333 3.84167ZM17.1917 13.4833C17.1917 12.1064 16.6447 10.7859 15.6711 9.81227C14.6974 8.83864 13.3769 8.29167 12 8.29167C10.6231 8.29167 9.30256 8.83864 8.32894 9.81227C7.35531 10.7859 6.80833 12.1064 6.80833 13.4833V15.7083H9.03333L9.775 23.125H14.225L14.9667 15.7083H17.1917V13.4833Z" stroke="#0B0B14" stroke-width="1.75" stroke-linecap="round" stroke-linejoin="round" class="stroke"/>
</svg>
