<svg viewBox="0 0 24 24" fill="none" xmlns="http://www.w3.org/2000/svg">
<mask id="path-1-inside-1_304_104" fill="white">
<path fill-rule="evenodd" clip-rule="evenodd" d="M16.5 2.5H2.5L2.5 16.5H4.5V18.5H2.5C1.39543 18.5 0.5 17.6046 0.5 16.5V2.5C0.5 1.39543 1.39543 0.5 2.5 0.5H16.5C17.6046 0.5 18.5 1.39543 18.5 2.5V4.5H16.5V2.5Z"/>
</mask>
<path d="M2.5 2.5V1.5H1.5L1.5 2.5L2.5 2.5ZM16.5 2.5H17.5V1.5H16.5V2.5ZM2.5 16.5L1.5 16.5L1.5 17.5H2.5V16.5ZM4.5 16.5H5.5V15.5H4.5V16.5ZM4.5 18.5V19.5H5.5V18.5H4.5ZM18.5 4.5V5.5H19.5V4.5H18.5ZM16.5 4.5H15.5V5.5H16.5V4.5ZM2.5 3.5H16.5V1.5H2.5V3.5ZM3.5 16.5L3.5 2.5L1.5 2.5L1.5 16.5L3.5 16.5ZM4.5 15.5H2.5V17.5H4.5V15.5ZM3.5 16.5V18.5H5.5V16.5H3.5ZM2.5 19.5H4.5V17.5H2.5V19.5ZM-0.5 16.5C-0.5 18.1569 0.843146 19.5 2.5 19.5V17.5C1.94771 17.5 1.5 17.0523 1.5 16.5H-0.5ZM-0.5 2.5V16.5H1.5V2.5H-0.5ZM2.5 -0.5C0.843146 -0.5 -0.5 0.843146 -0.5 2.5H1.5C1.5 1.94772 1.94772 1.5 2.5 1.5V-0.5ZM16.5 -0.5H2.5V1.5H16.5V-0.5ZM19.5 2.5C19.5 0.843147 18.1569 -0.5 16.5 -0.5V1.5C17.0523 1.5 17.5 1.94771 17.5 2.5H19.5ZM19.5 4.5V2.5H17.5V4.5H19.5ZM18.5 3.5H16.5V5.5H18.5V3.5ZM15.5 2.5V4.5H17.5V2.5H15.5Z" fill="black" mask="url(#path-1-inside-1_304_104)" class="fill"/>
<path d="M7.5 6.5H21.5C22.0523 6.5 22.5 6.94772 22.5 7.5V21.5C22.5 22.0523 22.0523 22.5 21.5 22.5H7.5C6.94772 22.5 6.5 22.0523 6.5 21.5V7.5C6.5 6.94772 6.94772 6.5 7.5 6.5Z" stroke="black" stroke-width="2" class="stroke"/>
<path d="M9.5 15L13 19L19.5 9.5" stroke="black" stroke-width="2" stroke-linecap="round" stroke-linejoin="round"/>
</svg>
