<svg viewBox="0 0 24 24" fill="none" xmlns="http://www.w3.org/2000/svg">
<path d="M19 23H3.25C2.65326 23 2.08097 22.7893 1.65901 22.4142C1.23705 22.0391 1 21.5304 1 21" stroke="currentColor" stroke-width="1.75" stroke-linecap="round" stroke-linejoin="round"/>
<path d="M19 1H4C3.20435 1 2.44129 1.31217 1.87868 1.86783C1.31607 2.4235 1 3.17714 1 3.96296V21C1 20.4106 1.23705 19.8454 1.65901 19.4287C2.08097 19.0119 2.65326 18.7778 3.25 18.7778H19" stroke="currentColor" stroke-width="1.75" stroke-linecap="round" stroke-linejoin="round"/>
<path d="M17 23V19" stroke="currentColor" stroke-width="1.75" stroke-linecap="round" stroke-linejoin="round"/>
<path d="M5.25 12.75V6.75C5.25 6.35218 5.40804 5.97064 5.68934 5.68934C5.97064 5.40804 6.35218 5.25 6.75 5.25C7.14782 5.25 7.52936 5.40804 7.81066 5.68934C8.09196 5.97064 8.25 6.35218 8.25 6.75V12.75" stroke="currentColor" stroke-width="1.75" stroke-linecap="round" stroke-linejoin="round"/>
<path d="M5.25 9.75H8.25" stroke="currentColor" stroke-width="1.75" stroke-linecap="round" stroke-linejoin="round"/>
<path d="M12.75 15.75V8.25" stroke="currentColor" stroke-width="1.75" stroke-linecap="round" stroke-linejoin="round"/>
<path d="M12.75 8.25H14.25C14.6478 8.25 15.0294 8.40804 15.3107 8.68934C15.592 8.97064 15.75 9.35218 15.75 9.75V10.5C15.75 10.8978 15.592 11.2794 15.3107 11.5607C15.0294 11.842 14.6478 12 14.25 12H12.75" stroke="currentColor" stroke-width="1.75" stroke-linecap="round" stroke-linejoin="round"/>
<path d="M12.75 12H14.25C14.6478 12 15.0294 12.158 15.3107 12.4393C15.592 12.7206 15.75 13.1022 15.75 13.5V14.25C15.75 14.6478 15.592 15.0294 15.3107 15.3107C15.0294 15.592 14.6478 15.75 14.25 15.75H12.75" stroke="currentColor" stroke-width="1.75" stroke-linecap="round" stroke-linejoin="round"/>
<path d="M23 5C22.2044 5 21.4413 5.31607 20.8787 5.87868C20.3161 6.44129 20 7.20435 20 8V9.5C20 10.2956 20.3161 11.0587 20.8787 11.6213C21.4413 12.1839 22.2044 12.5 23 12.5" stroke="currentColor" stroke-width="1.75" stroke-linecap="round" stroke-linejoin="round"/>
</svg>
