<svg width="24" height="24" viewBox="0 0 24 24" fill="none" xmlns="http://www.w3.org/2000/svg">
<rect width="24" height="24" fill="#1D1D20"/>
<path d="M19.6239 4.51763C18.2217 3.87424 16.7181 3.40021 15.1459 3.12872C15.1173 3.12348 15.0887 3.13658 15.0739 3.16277C14.8805 3.50671 14.6663 3.95542 14.5163 4.3081C12.8254 4.05495 11.1431 4.05495 9.48679 4.3081C9.33676 3.94758 9.11478 3.50671 8.92053 3.16277C8.90578 3.13745 8.87718 3.12436 8.84855 3.12872C7.27725 3.39935 5.7736 3.87337 4.37052 4.51763C4.35838 4.52286 4.34797 4.5316 4.34106 4.54294C1.48894 8.80394 0.707629 12.9602 1.09092 17.0649C1.09265 17.085 1.10392 17.1042 1.11953 17.1164C3.00127 18.4983 4.82406 19.3373 6.61301 19.8934C6.64164 19.9021 6.67197 19.8916 6.69019 19.8681C7.11337 19.2902 7.49059 18.6808 7.81402 18.04C7.83311 18.0025 7.81489 17.958 7.77588 17.9431C7.17754 17.7162 6.6078 17.4394 6.05975 17.1252C6.0164 17.0999 6.01293 17.0379 6.05281 17.0082C6.16814 16.9218 6.2835 16.8318 6.39363 16.741C6.41355 16.7245 6.44131 16.721 6.46474 16.7314C10.0652 18.3753 13.9631 18.3753 17.521 16.7314C17.5445 16.7201 17.5722 16.7236 17.593 16.7402C17.7032 16.831 17.8185 16.9218 17.9347 17.0082C17.9746 17.0379 17.972 17.0999 17.9286 17.1252C17.3806 17.4455 16.8108 17.7162 16.2116 17.9423C16.1726 17.9571 16.1553 18.0025 16.1744 18.04C16.5047 18.6799 16.882 19.2893 17.2973 19.8672C17.3147 19.8916 17.3459 19.9021 17.3745 19.8934C19.1721 19.3373 20.9949 18.4983 22.8766 17.1164C22.8931 17.1042 22.9035 17.0859 22.9053 17.0658C23.364 12.3203 22.1369 8.1981 19.6525 4.54381C19.6465 4.5316 19.6361 4.52286 19.6239 4.51763ZM8.35169 14.5656C7.26771 14.5656 6.37454 13.5704 6.37454 12.3482C6.37454 11.1261 7.25039 10.1309 8.35169 10.1309C9.46163 10.1309 10.3462 11.1348 10.3288 12.3482C10.3288 13.5704 9.45296 14.5656 8.35169 14.5656ZM15.6619 14.5656C14.5779 14.5656 13.6847 13.5704 13.6847 12.3482C13.6847 11.1261 14.5606 10.1309 15.6619 10.1309C16.7718 10.1309 17.6563 11.1348 17.639 12.3482C17.639 13.5704 16.7718 14.5656 15.6619 14.5656Z" fill="#FBEEDB"/>
</svg>
