<svg viewBox="0 0 24 24" fill="none" xmlns="http://www.w3.org/2000/svg">
<path d="M20.317 3.88177C18.7873 3.17989 17.147 2.66277 15.4319 2.3666C15.4007 2.36088 15.3695 2.37517 15.3534 2.40374C15.1424 2.77895 14.9087 3.26845 14.7451 3.6532C12.9004 3.37703 11.0652 3.37703 9.25832 3.6532C9.09465 3.2599 8.85248 2.77895 8.64057 2.40374C8.62449 2.37612 8.59328 2.36184 8.56205 2.3666C6.84791 2.66183 5.20756 3.17894 3.67693 3.88177C3.66368 3.88748 3.65233 3.89701 3.64479 3.90939C0.533392 8.55775 -0.31895 13.0919 0.0991801 17.5697C0.101072 17.5917 0.11337 17.6126 0.130398 17.6259C2.18321 19.1335 4.17171 20.0487 6.12328 20.6553C6.15451 20.6648 6.18761 20.6534 6.20748 20.6277C6.66913 19.9973 7.08064 19.3325 7.43348 18.6335C7.4543 18.5926 7.43442 18.544 7.39186 18.5278C6.73913 18.2802 6.1176 17.9783 5.51973 17.6355C5.47244 17.6078 5.46865 17.5402 5.51216 17.5078C5.63797 17.4135 5.76382 17.3154 5.88396 17.2164C5.90569 17.1983 5.93598 17.1945 5.96153 17.2059C9.88928 18.9992 14.1415 18.9992 18.023 17.2059C18.0485 17.1936 18.0788 17.1974 18.1015 17.2155C18.2216 17.3145 18.3475 17.4135 18.4742 17.5078C18.5177 17.5402 18.5149 17.6078 18.4676 17.6355C17.8697 17.9849 17.2482 18.2802 16.5945 18.5268C16.552 18.543 16.533 18.5926 16.5538 18.6335C16.9143 19.3316 17.3258 19.9963 17.7789 20.6267C17.7978 20.6534 17.8319 20.6648 17.8631 20.6553C19.8241 20.0487 21.8126 19.1335 23.8654 17.6259C23.8834 17.6126 23.8948 17.5926 23.8967 17.5707C24.3971 12.3938 23.0585 7.89683 20.3482 3.91033C20.3416 3.89701 20.3303 3.88748 20.317 3.88177ZM8.02002 14.8432C6.8375 14.8432 5.86313 13.7575 5.86313 12.4242C5.86313 11.091 6.8186 10.0053 8.02002 10.0053C9.23087 10.0053 10.1958 11.1005 10.1769 12.4242C10.1769 13.7575 9.22141 14.8432 8.02002 14.8432ZM15.9947 14.8432C14.8123 14.8432 13.8379 13.7575 13.8379 12.4242C13.8379 11.091 14.7933 10.0053 15.9947 10.0053C17.2056 10.0053 18.1705 11.1005 18.1516 12.4242C18.1516 13.7575 17.2056 14.8432 15.9947 14.8432Z" fill="#0B0B14" class="fill"/>
</svg>
