<svg viewBox="0 0 24 24" fill="none" xmlns="http://www.w3.org/2000/svg">
<path d="M12 17.25C11.7929 17.25 11.625 17.0821 11.625 16.875C11.625 16.6679 11.7929 16.5 12 16.5" stroke="black" stroke-width="1.5"/>
<path d="M12 17.25C12.2071 17.25 12.375 17.0821 12.375 16.875C12.375 16.6679 12.2071 16.5 12 16.5" stroke="black" stroke-width="1.75"/>
<path d="M12 13.5V5.25" stroke="black" stroke-width="1.75" stroke-miterlimit="10" stroke-linecap="round"/>
<path d="M1.1207 11.7674C1.1207 14.6185 2.25328 17.3528 4.2693 19.3688C6.28532 21.3848 9.01962 22.5174 11.8707 22.5174C14.7218 22.5174 17.4561 21.3848 19.4721 19.3688C21.4881 17.3528 22.6207 14.6185 22.6207 11.7674C22.6207 8.91633 21.4881 6.18203 19.4721 4.16601C17.4561 2.15 14.7218 1.01741 11.8707 1.01741C9.01962 1.01741 6.28532 2.15 4.2693 4.16601C2.25328 6.18203 1.1207 8.91633 1.1207 11.7674Z" stroke="black" stroke-width="1.75" stroke-linecap="round" stroke-linejoin="round"/>
</svg>
