<svg width="25" height="25" viewBox="0 0 25 25" fill="none" xmlns="http://www.w3.org/2000/svg">
<g clip-path="url(#clip0_803_53)">
<path d="M12.1293 17.4826C11.9222 17.4826 11.7543 17.3147 11.7543 17.1076C11.7543 16.9005 11.9222 16.7326 12.1293 16.7326" stroke="black" stroke-width="1.5"/>
<path d="M12.1293 17.4826C12.3364 17.4826 12.5043 17.3147 12.5043 17.1076C12.5043 16.9005 12.3364 16.7326 12.1293 16.7326" stroke="black" stroke-width="1.75"/>
<path d="M12.1293 13.7326V5.48259" stroke="black" stroke-width="1.75" stroke-miterlimit="10" stroke-linecap="round"/>
<path d="M1.25 12C1.25 14.8511 2.38259 17.5854 4.3986 19.6014C6.41462 21.6174 9.14892 22.75 12 22.75C14.8511 22.75 17.5854 21.6174 19.6014 19.6014C21.6174 17.5854 22.75 14.8511 22.75 12C22.75 9.14892 21.6174 6.41462 19.6014 4.3986C17.5854 2.38259 14.8511 1.25 12 1.25C9.14892 1.25 6.41462 2.38259 4.3986 4.3986C2.38259 6.41462 1.25 9.14892 1.25 12Z" stroke="black" stroke-width="1.75" stroke-linecap="round" stroke-linejoin="round"/>
</g>
<defs>
<clipPath id="clip0_803_53">
<rect width="24" height="24" fill="white" transform="translate(0.129303 0.23259)"/>
</clipPath>
</defs>
</svg>
