<svg viewBox="0 0 24 24" fill="none" xmlns="http://www.w3.org/2000/svg">
  <path d="M16.622 13.7029C17.873 13.7029 19.0958 13.3319 20.1359 12.6369C21.1761 11.9419 21.9867 10.9541 22.4655 9.79839C22.9442 8.64267 23.0694 7.37094 22.8254 6.14403C22.5813 4.91712 21.9789 3.79013 21.0944 2.90558C20.2098 2.02103 19.0829 1.41864 17.8559 1.17459C16.629 0.930545 15.3573 1.0558 14.2016 1.53452C13.0459 2.01323 12.058 2.82391 11.3631 3.86403C10.6681 4.90416 10.2971 6.12701 10.2971 7.37796" stroke="#0B0B14" stroke-width="2" stroke-linecap="round" stroke-linejoin="round" class="stroke"/>
  <path d="M7.37787 22.9469C10.871 22.9469 13.7028 20.1152 13.7028 16.622C13.7028 13.1289 10.871 10.2971 7.37787 10.2971C3.88473 10.2971 1.05298 13.1289 1.05298 16.622C1.05298 20.1152 3.88473 22.9469 7.37787 22.9469Z" stroke="#0B0B14" stroke-width="2" stroke-linecap="round" stroke-linejoin="round" class="stroke"/>
  <path d="M1.05298 4.70204L3.24237 8.35102L6.89134 6.16163" stroke="#0B0B14" stroke-width="2" stroke-linecap="round" stroke-linejoin="round" class="stroke"/>
  <path d="M8.29267 1.19902C6.93843 1.68825 5.78318 2.61018 5.0057 3.82214C4.22822 5.0341 3.87185 6.46851 3.99174 7.90341" stroke="#0B0B14" stroke-width="2" stroke-linecap="round" stroke-linejoin="round" class="stroke"/>
  <path d="M22.947 19.298L20.7576 15.649L17.1086 17.8384" stroke="#0B0B14" stroke-width="2" stroke-linecap="round" stroke-linejoin="round" class="stroke"/>
  <path d="M15.7075 22.801C17.0618 22.3117 18.217 21.3898 18.9945 20.1779C19.772 18.9659 20.1283 17.5315 20.0084 16.0966" stroke="#0B0B14" stroke-width="2" stroke-linecap="round" stroke-linejoin="round" class="stroke"/>
</svg>
