<svg viewBox="0 0 24 24" fill="none" xmlns="http://www.w3.org/2000/svg">
<path d="M16.622 13.7029C17.873 13.7029 19.0958 13.3319 20.1359 12.6369C21.1761 11.9419 21.9867 10.9541 22.4655 9.79839C22.9442 8.64266 23.0694 7.37094 22.8254 6.14403C22.5813 4.91712 21.9789 3.79013 21.0944 2.90558C20.2098 2.02102 19.0829 1.41864 17.8559 1.17459C16.629 0.930541 15.3573 1.0558 14.2016 1.53451C13.0459 2.01323 12.058 2.82391 11.3631 3.86403C10.6681 4.90415 10.2971 6.12701 10.2971 7.37795M1.05304 4.70204L3.24243 8.35102L6.89141 6.16163M8.29257 1.19902C6.93833 1.68825 5.78308 2.61018 5.0056 3.82213C4.22812 5.03409 3.87175 6.46851 3.99164 7.90341M22.9469 19.298L20.7575 15.649L17.1085 17.8384M15.7074 22.801C17.0616 22.3117 18.2169 21.3898 18.9944 20.1779C19.7718 18.9659 20.1282 17.5315 20.0083 16.0966M13.7028 16.622C13.7028 20.1152 10.8711 22.9469 7.37794 22.9469C3.88479 22.9469 1.05304 20.1152 1.05304 16.622C1.05304 13.1289 3.88479 10.2971 7.37794 10.2971C10.8711 10.2971 13.7028 13.1289 13.7028 16.622Z" stroke="currentColor" stroke-width="2" stroke-linecap="round" stroke-linejoin="round"/>
</svg>
