<svg width="24" height="24" viewBox="0 0 24 24" fill="none" xmlns="http://www.w3.org/2000/svg">
  <path fill-rule="evenodd" clip-rule="evenodd" d="M23 12C23 5.92485 18.0751 1 12 1C5.92485 1 1 5.92485 1 12C1 17.7532 5.41676 22.4748 11.0445 22.9591V15.4778H9.00086C8.54301 15.4778 8.13591 15.167 8.07086 14.7138C7.95751 13.9244 7.99856 13.2755 8.06631 12.8283C8.12891 12.4148 8.49976 12.1519 8.91796 12.1519H11.0445C11.0445 6.05617 13.3871 5.54087 17.5004 5.50297C17.9308 5.49902 18.3121 5.77742 18.3752 6.20317C18.4438 6.66617 18.4875 7.32497 18.378 8.07917C18.3132 8.52502 17.9094 8.82287 17.4589 8.83242C15.1348 8.88167 14.7223 9.28192 14.7223 12.1519H17.4873C17.9246 12.1519 18.3097 12.4375 18.373 12.8701C18.4423 13.3436 18.4879 14.0102 18.3806 14.7433C18.3162 15.1838 17.9159 15.4778 17.4707 15.4778H14.7223V22.6605C19.4807 21.4491 23 17.1356 23 12Z" fill="#0B0B14" class="fill"/>
</svg>
