<svg viewBox="0 0 24 24" fill="none" xmlns="http://www.w3.org/2000/svg">
<path fill-rule="evenodd" clip-rule="evenodd" d="M11.9989 1.90735e-06C5.37328 1.90735e-06 0 5.5085 0 12.3041C0 17.7401 3.43804 22.3513 8.20651 23.9782C8.8069 24.0915 9.02569 23.7116 9.02569 23.3853C9.02569 23.093 9.01538 22.3195 9.00949 21.2931C5.67163 22.0363 4.96738 19.6434 4.96738 19.6434C4.4215 18.2219 3.63474 17.8435 3.63474 17.8435C2.5452 17.0807 3.71725 17.0958 3.71725 17.0958C4.9217 17.1826 5.55524 18.364 5.55524 18.364C6.62562 20.2439 8.36417 19.7009 9.0478 19.3859C9.15682 18.5913 9.46696 18.049 9.80951 17.7416C7.14497 17.4311 4.34342 16.3752 4.34342 11.6605C4.34342 10.3176 4.8112 9.2186 5.57882 8.35906C5.45505 8.04787 5.04325 6.79631 5.69668 5.1029C5.69668 5.1029 6.7037 4.77208 8.99622 6.36428C9.95316 6.09085 10.9801 5.95489 12.0004 5.9496C13.0199 5.95489 14.0461 6.09085 15.0045 6.36428C17.2956 4.77208 18.3011 5.1029 18.3011 5.1029C18.956 6.79631 18.5442 8.04787 18.4212 8.35906C19.1903 9.2186 19.6544 10.3176 19.6544 11.6605C19.6544 16.3873 16.8484 17.4274 14.1758 17.7318C14.606 18.1117 14.9898 18.8625 14.9898 20.0098C14.9898 21.6548 14.975 22.9819 14.975 23.3853C14.975 23.7146 15.1916 24.0975 15.8001 23.9774C20.5649 22.3467 24 17.7385 24 12.3041C24 5.5085 18.6267 1.90735e-06 11.9989 1.90735e-06Z" fill="currentColor"/>
</svg>
