<svg width="24" height="26" viewBox="0 0 24 26" fill="none" xmlns="http://www.w3.org/2000/svg">
<path d="M9.16296 18.603L12.162 15.603L12.163 10.603" stroke="black" stroke-width="1.75" stroke-linecap="round" stroke-linejoin="round"/>
<path d="M14.158 7.853L10.158 4.603L14.658 1.853" stroke="black" stroke-width="1.75" stroke-linecap="round" stroke-linejoin="round"/>
<path d="M3.70703 19.6C4.66656 21.1042 6.01712 22.3191 7.61412 23.1147C9.21113 23.9102 10.9944 24.2565 12.7731 24.1163C14.5518 23.9762 16.2589 23.3549 17.7116 22.319C19.1642 21.2832 20.3079 19.8717 21.0199 18.2358C21.732 16.5999 21.9858 14.8011 21.754 13.032C21.5223 11.2629 20.8138 9.59016 19.7043 8.19286C18.5949 6.79555 17.1263 5.7263 15.4558 5.09957C13.7853 4.47285 11.9758 4.31225 10.221 4.63499" stroke="black" stroke-width="1.75" stroke-linecap="round" stroke-linejoin="round"/>
<path d="M6.85196 5.93701C5.63937 6.68685 4.6017 7.68803 3.80896 8.87301" stroke="black" stroke-width="1.75" stroke-linecap="round" stroke-linejoin="round"/>
<path d="M2.33598 12.5C2.08387 13.9026 2.12815 15.3425 2.46598 16.727" stroke="black" stroke-width="1.75" stroke-linecap="round" stroke-linejoin="round"/>
</svg>
