<svg width="24" height="24" viewBox="0 0 24 24" fill="none" xmlns="http://www.w3.org/2000/svg">
<g clip-path="url(#clip0_1023_67)">
<path d="M9.16296 17.603L12.162 14.603L12.163 9.603" stroke="black" stroke-width="1.75" stroke-linecap="round" stroke-linejoin="round"/>
<path d="M14.158 6.853L10.158 3.603L14.658 0.852997" stroke="black" stroke-width="1.75" stroke-linecap="round" stroke-linejoin="round"/>
<path d="M3.70703 18.6C4.66656 20.1042 6.01712 21.3191 7.61412 22.1147C9.21113 22.9102 10.9944 23.2565 12.7731 23.1163C14.5518 22.9762 16.2589 22.3549 17.7116 21.319C19.1642 20.2832 20.3079 18.8717 21.0199 17.2358C21.732 15.5999 21.9858 13.8011 21.754 12.032C21.5223 10.2629 20.8138 8.59016 19.7043 7.19286C18.5949 5.79555 17.1263 4.7263 15.4558 4.09957C13.7853 3.47285 11.9758 3.31225 10.221 3.63499" stroke="black" stroke-width="1.75" stroke-linecap="round" stroke-linejoin="round"/>
<path d="M6.85196 4.93701C5.63937 5.68685 4.6017 6.68803 3.80896 7.87301" stroke="black" stroke-width="1.75" stroke-linecap="round" stroke-linejoin="round"/>
<path d="M2.33598 11.5C2.08387 12.9026 2.12815 14.3425 2.46598 15.727" stroke="black" stroke-width="1.75" stroke-linecap="round" stroke-linejoin="round"/>
</g>
<defs>
<clipPath id="clip0_1023_67">
<rect width="24" height="24" fill="white"/>
</clipPath>
</defs>
</svg>
