<svg viewBox="0 0 24 24" fill="none" xmlns="http://www.w3.org/2000/svg">
<path d="M2 10.848L10.78 2.799C11.119 2.488 11.563 2.315 12.024 2.315C12.484 2.315 12.928 2.488 13.268 2.799L22 10.848M4.517 9.143V20.024C4.517 20.465 4.692 20.889 5.004 21.201C5.316 21.513 5.74 21.688 6.181 21.688H17.867C18.308 21.688 18.731 21.513 19.043 21.201C19.355 20.889 19.53 20.465 19.53 20.024V9.143M9.507 21.688V14.597C9.507 14.302 9.624 14.019 9.832 13.811C10.04 13.603 10.323 13.486 10.617 13.486H13.43C13.724 13.486 14.007 13.603 14.215 13.811C14.424 14.019 14.541 14.302 14.541 14.597V21.688" stroke="currentColor" stroke-width="1.75" stroke-linecap="round" stroke-linejoin="round"/>
</svg>
