<svg viewBox="0 0 24 24" fill="none" xmlns="http://www.w3.org/2000/svg">
<path d="M12.005 23.13C18.149 23.13 23.13 18.149 23.13 12.005C23.13 5.86104 18.149 0.880005 12.005 0.880005C5.86104 0.880005 0.880005 5.86104 0.880005 12.005C0.880005 18.149 5.86104 23.13 12.005 23.13Z" stroke="currentcolor" stroke-width="1.5" stroke-linecap="round" stroke-linejoin="round"/>
<path d="M14.4 16.5H13.65C13.2522 16.5 12.8707 16.342 12.5894 16.0607C12.3081 15.7794 12.15 15.3978 12.15 15V11.25C12.15 11.0511 12.071 10.8603 11.9304 10.7197C11.7897 10.579 11.5989 10.5 11.4 10.5H10.65" stroke="currentcolor" stroke-width="1.5" stroke-linecap="round" stroke-linejoin="round"/>
<path d="M12.1268 7.5C12.0274 7.5 11.932 7.46049 11.8617 7.39016C11.7913 7.31984 11.7518 7.22446 11.7518 7.125C11.7518 7.02554 11.7913 6.93016 11.8617 6.85984C11.932 6.78951 12.0274 6.75 12.1268 6.75" stroke="currentcolor" stroke-width="1.5"/>
<path d="M12.1268 7.5C12.2263 7.5 12.3217 7.46049 12.392 7.39016C12.4623 7.31984 12.5018 7.22446 12.5018 7.125C12.5018 7.02554 12.4623 6.93016 12.392 6.85984C12.3217 6.78951 12.2263 6.75 12.1268 6.75" stroke="currentcolor" stroke-width="1.5"/>
</svg>
