<svg viewBox="0 0 24 24" fill="none" xmlns="http://www.w3.org/2000/svg">
<path d="M15.7083 0.875V2.35833M23.125 8.29167H21.5359M9.59107 3.44611L10.9409 4.79496M21.8256 3.44611L20.4758 4.79496M14.225 11.6865V13.4833H17.1917V11.6865C17.6781 11.4734 18.1131 11.1582 18.4671 10.7623C18.8212 10.3664 19.086 9.89898 19.2436 9.39181C19.4012 8.88463 19.448 8.3495 19.3808 7.82266C19.3136 7.29582 19.1339 6.78958 18.854 6.33823C18.5741 5.88688 18.2004 5.50096 17.7583 5.20662C17.3163 4.91228 16.8161 4.71638 16.2917 4.63221C15.7673 4.54803 15.2309 4.57754 14.7189 4.71874C14.2069 4.85994 13.7312 5.10952 13.3241 5.45059M14.225 15.7083H17.1917M4.0345 8.81677C4.99111 9.80737 6.22662 10.4833 7.57672 10.7546C8.92683 11.0259 10.3275 10.8798 11.5926 10.3357M0.875 23.125C0.875 21.3547 1.57826 19.6569 2.83006 18.4051C4.08187 17.1533 5.77968 16.45 7.55 16.45C9.32032 16.45 11.0181 17.1533 12.2699 18.4051C13.5217 19.6569 14.225 21.3547 14.225 23.125H0.875ZM3.47083 10.8875C3.47083 11.9694 3.9006 13.0069 4.66559 13.7719C5.43059 14.5369 6.46814 14.9667 7.55 14.9667C8.63186 14.9667 9.66941 14.5369 10.4344 13.7719C11.1994 13.0069 11.6292 11.9694 11.6292 10.8875C11.6292 9.80564 11.1994 8.76809 10.4344 8.00309C9.66941 7.2381 8.63186 6.80833 7.55 6.80833C6.46814 6.80833 5.43059 7.2381 4.66559 8.00309C3.9006 8.76809 3.47083 9.80564 3.47083 10.8875Z" stroke="currentColor" stroke-width="1.75" stroke-linecap="round" stroke-linejoin="round"/>
</svg>
