<svg viewBox="0 0 24 24" fill="none" xmlns="http://www.w3.org/2000/svg">
<path d="M11.25 17.25C11.25 18.8413 11.8821 20.3674 13.0074 21.4926C14.1326 22.6179 15.6587 23.25 17.25 23.25C18.8413 23.25 20.3674 22.6179 21.4926 21.4926C22.6179 20.3674 23.25 18.8413 23.25 17.25C23.25 15.6587 22.6179 14.1326 21.4926 13.0074C20.3674 11.8821 18.8413 11.25 17.25 11.25C15.6587 11.25 14.1326 11.8821 13.0074 13.0074C11.8821 14.1326 11.25 15.6587 11.25 17.25Z" stroke="currentColor" stroke-width="1.75" stroke-linecap="round" stroke-linejoin="round"/>
<path d="M23.1 9.659C22.9051 8.89876 22.5293 8.1969 22.0046 7.61326C21.4799 7.02961 20.8219 6.58147 20.0866 6.30705C19.3514 6.03262 18.5606 5.94004 17.7819 6.03719C17.0031 6.13434 16.2593 6.41834 15.614 6.865C15.351 5.46511 14.6947 4.16906 13.722 3.12849C12.7494 2.08791 11.5005 1.34583 10.1215 0.989067C8.74252 0.632301 7.29045 0.675598 5.93518 1.11389C4.5799 1.55219 3.37745 2.36736 2.46851 3.46404C1.55957 4.56072 0.981713 5.89356 0.802551 7.30664C0.623389 8.71972 0.850326 10.1546 1.45682 11.4434C2.0633 12.7322 3.02426 13.8217 4.22728 14.5844C5.43029 15.347 6.8256 15.7513 8.24999 15.75" stroke="currentColor" stroke-width="1.75" stroke-linecap="round" stroke-linejoin="round"/>
</svg>
