<svg viewBox="0 0 24 24" fill="none" xmlns="http://www.w3.org/2000/svg">
<path d="M6.80826 17.3151L17.1915 6.93591M7.78234 12.1472C7.16034 12.1114 6.53778 12.2074 5.95547 12.4288C5.37316 12.6503 4.84423 12.9922 4.40334 13.4323L2.17837 15.6564C1.34384 16.4906 0.875 17.622 0.875 18.8018C0.875 19.3859 0.990102 19.9643 1.21373 20.504C1.43737 21.0437 1.76515 21.5341 2.17837 21.9471C2.59159 22.3602 3.08215 22.6879 3.62204 22.9114C4.16194 23.1349 4.7406 23.25 5.32498 23.25C6.50518 23.25 7.63705 22.7813 8.47158 21.9471L10.6966 19.723C11.1368 19.2823 11.4789 18.7536 11.7004 18.1715C11.9219 17.5894 12.0179 16.9671 11.9821 16.3454M16.2177 12.1028C16.8397 12.1385 17.4622 12.0425 18.0445 11.8211C18.6268 11.5996 19.1557 11.2577 19.5967 10.8177L21.8216 8.59362C22.6562 7.75941 23.125 6.62798 23.125 5.44824C23.125 4.26849 22.6562 3.13706 21.8216 2.30286C20.9871 1.46865 19.8552 1 18.675 1C17.4948 1 16.3629 1.46865 15.5284 2.30286L13.3034 4.52696C12.8643 4.96822 12.5232 5.49715 12.3025 6.07919C12.0819 6.66122 11.9866 7.28326 12.0228 7.90464" stroke="#0B0B14" stroke-width="1.75" stroke-linecap="round" stroke-linejoin="round" class="stroke"/>
</svg>
