<svg viewBox="0 0 24 24" fill="none" xmlns="http://www.w3.org/2000/svg">
  <path d="M6.5 8.5H2.5C2.22386 8.5 2 8.72386 2 9V22C2 22.2761 2.22386 22.5 2.5 22.5H6.5C6.77614 22.5 7 22.2761 7 22V9C7 8.72386 6.77614 8.5 6.5 8.5Z" fill="#0B0B14" class="fill"/>
  <path d="M4.47999 6.5C4.97528 6.50396 5.46058 6.36072 5.87432 6.08843C6.28807 5.81615 6.61161 5.4271 6.8039 4.97065C6.99619 4.5142 7.04856 4.01091 6.95437 3.52465C6.86017 3.03839 6.62366 2.59106 6.27484 2.23943C5.92602 1.88779 5.48061 1.6477 4.99512 1.5496C4.50963 1.45151 4.00594 1.49983 3.54796 1.68845C3.08998 1.87707 2.69834 2.19747 2.42274 2.60902C2.14715 3.02056 2.00001 3.5047 1.99999 4C1.99867 4.32699 2.06178 4.65104 2.1857 4.95365C2.30962 5.25625 2.49193 5.53148 2.72222 5.76363C2.95251 5.99578 3.22627 6.18029 3.52787 6.30664C3.82947 6.43299 4.153 6.49869 4.47999 6.5Z" fill="#0B0B14" class="fill"/>
  <path d="M18.5 22.5H21.5C21.6326 22.5 21.7598 22.4473 21.8536 22.3536C21.9473 22.2598 22 22.1326 22 22V13.6C22 9.83 19.87 8 16.89 8C16.2999 7.979 15.7119 8.08208 15.1642 8.30256C14.6164 8.52305 14.121 8.85604 13.71 9.28C13.6541 9.34064 13.5805 9.38202 13.4996 9.39819C13.4188 9.41436 13.3349 9.40449 13.26 9.37C13.1844 9.34176 13.1191 9.2913 13.0727 9.22527C13.0263 9.15923 13.001 9.0807 13 9C13 8.86739 12.9473 8.74021 12.8536 8.64645C12.7598 8.55268 12.6326 8.5 12.5 8.5H9.5C9.36739 8.5 9.24021 8.55268 9.14645 8.64645C9.05268 8.74021 9 8.86739 9 9V22C9 22.1326 9.05268 22.2598 9.14645 22.3536C9.24021 22.4473 9.36739 22.5 9.5 22.5H12.5C12.6326 22.5 12.7598 22.4473 12.8536 22.3536C12.9473 22.2598 13 22.1326 13 22V14.5C13 13.837 13.2634 13.2011 13.7322 12.7322C14.2011 12.2634 14.837 12 15.5 12C16.163 12 16.7989 12.2634 17.2678 12.7322C17.7366 13.2011 18 13.837 18 14.5V22C18 22.1326 18.0527 22.2598 18.1464 22.3536C18.2402 22.4473 18.3674 22.5 18.5 22.5Z" fill="#0B0B14" class="fill"/>
</svg>
