<svg width="24" height="24" viewBox="0 0 24 24" fill="none" xmlns="http://www.w3.org/2000/svg">
  <path d="M23 0H1C0.734784 0 0.48043 0.105357 0.292893 0.292893C0.105357 0.48043 0 0.734784 0 1L0 23C0 23.2652 0.105357 23.5196 0.292893 23.7071C0.48043 23.8946 0.734784 24 1 24H23C23.2652 24 23.5196 23.8946 23.7071 23.7071C23.8946 23.5196 24 23.2652 24 23V1C24 0.734784 23.8946 0.48043 23.7071 0.292893C23.5196 0.105357 23.2652 0 23 0V0ZM20.36 5.85L19 7.08C18.9455 7.12378 18.9032 7.18075 18.8769 7.24551C18.8507 7.31026 18.8414 7.38066 18.85 7.45V16.93C18.8412 16.9979 18.8504 17.0669 18.8768 17.1301C18.9031 17.1933 18.9456 17.2484 19 17.29L20.35 18.62V18.89H14V18.62L15.16 17.26C15.29 17.13 15.29 17.09 15.29 16.9V10L12.49 17.9L12.18 18.9H11.39C8.74 13.12 7.91 11.08 7.09 9.7V16.7L8.73 18.7V18.97H4V18.7L5.6 16.7V7.7L4.36 6.15V5.63H9.13L12.35 13.34L15 6.06C15.0421 5.88565 15.1444 5.7318 15.289 5.62565C15.4336 5.51951 15.6111 5.46792 15.79 5.48H20.37L20.36 5.85Z" fill="#0B0B14" class="fill"/>
</svg>
