<svg viewBox="0 0 24 24" fill="none" xmlns="http://www.w3.org/2000/svg">
  <path d="M18 10.2V3.8568C18.0032 3.63315 17.9176 3.41735 17.7619 3.25673C17.6063 3.09612 17.3932 3.00379 17.1696 3H2.0304C1.80676 3.00379 1.59374 3.09612 1.43808 3.25673C1.28241 3.41735 1.19679 3.63315 1.2 3.8568V19.2864C1.19555 19.5082 1.23508 19.7287 1.31631 19.9352C1.39755 20.1417 1.51887 20.33 1.67328 20.4893C1.82769 20.6486 2.01213 20.7758 2.21596 20.8634C2.41978 20.9511 2.63894 20.9975 2.8608 21H20.4" stroke="#0B0B14" stroke-width="2.4" stroke-linecap="round" stroke-linejoin="round" class="stroke"/>
  <path d="M22.8 7.8V18.8712C22.7617 19.4709 22.4879 20.0311 22.0384 20.4298C21.5889 20.8286 21 21.0335 20.4 21C19.8 21.0335 19.2111 20.8286 18.7616 20.4298C18.3121 20.0311 18.0383 19.4709 18 18.8712V10.2" stroke="#0B0B14" stroke-width="2.4" stroke-linecap="round" stroke-linejoin="round" class="stroke"/>
  <path d="M1.2 10.2H18" stroke="#0B0B14" stroke-width="2.4" stroke-linecap="round" stroke-linejoin="round" class="stroke"/>
  <path d="M8.4 10.2V21" stroke="#0B0B14" stroke-width="2.4" stroke-linecap="round" stroke-linejoin="round" class="stroke"/>
</svg>
