<svg viewBox="0 0 24 24" fill="none" xmlns="http://www.w3.org/2000/svg">
<path d="M23 5.69116V19.9412C23 20.5379 22.7682 21.1102 22.3556 21.5322C21.9431 21.9541 21.3835 22.1912 20.8 22.1912M20.8 22.1912C20.2165 22.1912 19.6569 21.9541 19.2444 21.5322C18.8318 21.1102 18.6 20.5379 18.6 19.9412V2.69116C18.6 2.29334 18.4455 1.91181 18.1704 1.6305C17.8954 1.3492 17.5223 1.19116 17.1333 1.19116H2.46667C2.07768 1.19116 1.70463 1.3492 1.42958 1.6305C1.15452 1.91181 1 2.29334 1 2.69116V19.9412C1 20.5379 1.23179 21.1102 1.64437 21.5322C2.05695 21.9541 2.61652 22.1912 3.2 22.1912H20.8ZM4.66667 14.6912H14.9333M4.66667 17.6912H10.5333M4.66667 4.94116H14.9333V10.9412H4.66667V4.94116Z" stroke="#0B0B14" stroke-width="2" stroke-linecap="round" stroke-linejoin="round" class="stroke"/>
</svg>
