<svg viewBox="0 0 24 24" fill="none" xmlns="http://www.w3.org/2000/svg">
<path d="M23 6.13334V20.0667C23 20.6501 22.7682 21.2097 22.3556 21.6223C21.9431 22.0349 21.3835 22.2667 20.8 22.2667M20.8 22.2667C20.2165 22.2667 19.6569 22.0349 19.2444 21.6223C18.8318 21.2097 18.6 20.6501 18.6 20.0667V3.2C18.6 2.81102 18.4455 2.43797 18.1704 2.16291C17.8954 1.88786 17.5223 1.73334 17.1333 1.73334H2.46667C2.07768 1.73334 1.70463 1.88786 1.42958 2.16291C1.15452 2.43797 1 2.81102 1 3.2V20.0667C1 20.6501 1.23179 21.2097 1.64437 21.6223C2.05695 22.0349 2.61652 22.2667 3.2 22.2667H20.8ZM4.66667 14.9333H14.9333M4.66667 17.8667H10.5333M4.66667 5.4H14.9333V11.2667H4.66667V5.4Z" stroke="#0B0B14" stroke-width="2" stroke-linecap="round" stroke-linejoin="round" class="stroke"/>
</svg>
