<svg viewBox="0 0 24 24" fill="none" xmlns="http://www.w3.org/2000/svg">
<path d="M15.3388 9.868H15.8598C15.9979 9.868 16.1305 9.9229 16.2282 10.0206C16.3259 10.1183 16.3808 10.2508 16.3808 10.389V14.036M15.3388 14.036H17.4228M20.9048 2.57401H21.4258C21.5639 2.57401 21.6965 2.6289 21.7942 2.7266C21.8919 2.82431 21.9468 2.95683 21.9468 3.09501V6.74201M20.9048 6.74201H22.9888M20.9048 17.162H21.4258C21.5639 17.162 21.6965 17.2169 21.7942 17.3146C21.8919 17.4123 21.9468 17.5448 21.9468 17.683V21.331M20.9048 21.331H22.9888M11.9998 21.783C11.4836 21.7835 10.9765 21.6476 10.5298 21.389C10.5179 21.6644 10.4479 21.9342 10.3244 22.1807C10.2008 22.4271 10.0264 22.6446 9.81278 22.8188C9.59912 22.993 9.35101 23.12 9.08474 23.1915C8.81848 23.2629 8.54011 23.2772 8.26794 23.2334C7.99577 23.1895 7.73596 23.0886 7.50561 22.9371C7.27526 22.7856 7.07958 22.5871 6.93145 22.3546C6.78332 22.1221 6.68609 21.8609 6.64615 21.5881C6.60622 21.3154 6.62449 21.0372 6.69976 20.772C5.99166 20.8408 5.27892 20.7006 4.64964 20.3687C4.02037 20.0368 3.50215 19.5278 3.15904 18.9045C2.81593 18.2813 2.66298 17.5712 2.71909 16.862C2.7752 16.1528 3.03792 15.4755 3.47476 14.914C2.73682 14.8628 2.04578 14.5336 1.54114 13.9927C1.03651 13.4519 0.755859 12.7397 0.755859 12C0.755859 11.2603 1.03651 10.5481 1.54114 10.0073C2.04578 9.46643 2.73682 9.13719 3.47476 9.08601C3.03792 8.52448 2.7752 7.84725 2.71909 7.13803C2.66298 6.42881 2.81593 5.7187 3.15904 5.09547C3.50215 4.47223 4.02037 3.96321 4.64964 3.63131C5.27892 3.29942 5.99166 3.15921 6.69976 3.22801C6.62518 2.96298 6.60748 2.68518 6.64782 2.41282C6.68816 2.14047 6.78562 1.87973 6.93383 1.6477C7.08203 1.41567 7.27761 1.2176 7.50775 1.06647C7.73789 0.915351 7.99738 0.814596 8.2692 0.770818C8.54102 0.727041 8.81902 0.74123 9.08497 0.812454C9.35092 0.883679 9.59881 1.01033 9.81237 1.1841C10.0259 1.35787 10.2003 1.57482 10.3241 1.82074C10.4479 2.06665 10.5184 2.33596 10.5308 2.61101C10.9772 2.35261 11.4839 2.2167 11.9998 2.21701M11.9998 13.664V14.642M11.9998 9.164V10.142M11.9998 4.66301V5.64101M11.9998 18.165V19.143M23.2498 12.734C23.2498 13.0794 23.1125 13.4107 22.8683 13.655C22.624 13.8993 22.2927 14.0365 21.9473 14.0365C21.6018 14.0365 21.2705 13.8993 21.0263 13.655C20.782 13.4107 20.6448 13.0794 20.6448 12.734V11.171C20.6448 11 20.6784 10.8306 20.7439 10.6726C20.8094 10.5145 20.9053 10.3709 21.0263 10.25C21.1472 10.129 21.2908 10.0331 21.4488 9.96765C21.6068 9.90219 21.7762 9.8685 21.9473 9.8685C22.1183 9.8685 22.2877 9.90219 22.4457 9.96765C22.6037 10.0331 22.7473 10.129 22.8683 10.25C22.9892 10.3709 23.0852 10.5145 23.1506 10.6726C23.2161 10.8306 23.2498 11 23.2498 11.171V12.734ZM17.6828 20.028C17.6828 20.3735 17.5455 20.7047 17.3013 20.949C17.057 21.1933 16.7257 21.3305 16.3803 21.3305C16.0348 21.3305 15.7035 21.1933 15.4593 20.949C15.215 20.7047 15.0778 20.3735 15.0778 20.028V18.465C15.0778 18.1196 15.215 17.7883 15.4593 17.544C15.7035 17.2997 16.0348 17.1625 16.3803 17.1625C16.7257 17.1625 17.057 17.2997 17.3013 17.544C17.5455 17.7883 17.6828 18.1196 17.6828 18.465V20.028ZM17.6828 5.53501C17.6828 5.88045 17.5455 6.21175 17.3013 6.45601C17.057 6.70028 16.7257 6.83751 16.3803 6.83751C16.0348 6.83751 15.7035 6.70028 15.4593 6.45601C15.215 6.21175 15.0778 5.88045 15.0778 5.53501V3.97201C15.0778 3.62656 15.215 3.29526 15.4593 3.051C15.7035 2.80673 16.0348 2.66951 16.3803 2.66951C16.7257 2.66951 17.057 2.80673 17.3013 3.051C17.5455 3.29526 17.6828 3.62656 17.6828 3.97201V5.53501Z" stroke="#0B0B14" stroke-width="1.75" stroke-linecap="round" stroke-linejoin="round" class="stroke"/>
</svg>
