<svg viewBox="0 0 24 24" fill="none" xmlns="http://www.w3.org/2000/svg">
  <path d="M10.3514 13.6802C9.87233 12.3206 9.85878 10.8404 10.3129 9.47224C10.767 8.10412 11.663 6.92577 12.86 6.12253C14.057 5.31929 15.487 4.93674 16.9252 5.03503C18.3633 5.13333 19.728 5.70691 20.8046 6.66554C21.8811 7.62418 22.6085 8.91348 22.8722 10.3307C23.1359 11.7478 22.9211 13.2125 22.2615 14.4942C21.6019 15.776 20.5349 16.8021 19.2284 17.4112C17.9219 18.0202 16.45 18.1777 15.0441 17.8589" stroke="#0B0B14" stroke-width="2" stroke-linecap="round" stroke-linejoin="round" class="stroke"/>
  <path d="M13.6305 9.33972C14.1096 10.6993 14.1232 12.1796 13.669 13.5477C13.2149 14.9158 12.3189 16.0941 11.1219 16.8974C9.92495 17.7006 8.49492 18.0832 7.05677 17.9849C5.61861 17.8866 4.25393 17.313 3.17737 16.3544C2.10081 15.3957 1.37346 14.1064 1.10973 12.6892C0.845987 11.2721 1.06082 9.80741 1.72044 8.52567C2.38006 7.24393 3.44704 6.21782 4.75355 5.60874C6.06007 4.99966 7.53198 4.84216 8.93779 5.16102" stroke="#0B0B14" stroke-width="2" stroke-linecap="round" stroke-linejoin="round" class="stroke"/>
</svg>
