<svg viewBox="0 0 24 24" fill="none" xmlns="http://www.w3.org/2000/svg">
<path d="M10.1725 14.2273C9.68593 12.8318 9.67216 11.3123 10.1334 9.90801C10.5946 8.5037 11.5045 7.29417 12.7202 6.46967C13.9358 5.64517 15.3882 5.25249 16.8488 5.35339C18.3094 5.45429 19.6953 6.04304 20.7887 7.02705C21.882 8.01105 22.6207 9.33447 22.8886 10.7892C23.1564 12.2438 22.9382 13.7472 22.2683 15.0629C21.5984 16.3786 20.5148 17.4318 19.1879 18.057C17.861 18.6822 16.3661 18.8439 14.9384 18.5166M13.8275 9.77271C14.3141 11.1683 14.3278 12.6877 13.8666 14.092C13.4054 15.4963 12.4955 16.7059 11.2798 17.5303C10.0642 18.3548 8.61182 18.7475 7.15123 18.6466C5.69065 18.5457 4.30468 17.957 3.21133 16.973C2.11798 15.989 1.37929 14.6655 1.11144 13.2109C0.843585 11.7562 1.06177 10.2528 1.73168 8.93712C2.40159 7.62146 3.48521 6.5682 4.8121 5.94299C6.13899 5.31779 7.63386 5.15613 9.06159 5.48342" stroke="currentColor" stroke-width="2" stroke-linecap="round" stroke-linejoin="round"/>
</svg>
