<svg viewBox="0 0 24 24" fill="none" xmlns="http://www.w3.org/2000/svg">
<path d="M0.875 23.125H23.125M4.26689 9.27067L20.1583 2.05178M20.1583 2.05178L18.9816 5.20633M20.1583 2.05178L17.0137 0.875M6.06667 16.2028H3.1C2.90409 16.2053 2.71693 16.2843 2.57839 16.4228C2.43986 16.5614 2.36089 16.7485 2.35833 16.9444V23.125H6.80833V16.9444C6.80577 16.7485 6.72681 16.5614 6.58827 16.4228C6.44973 16.2843 6.26257 16.2053 6.06667 16.2028ZM13.4833 12.2472H10.5167C10.3208 12.2498 10.1336 12.3287 9.99506 12.4673C9.85652 12.6058 9.77756 12.793 9.775 12.9889V23.125H14.225V12.9889C14.2224 12.793 14.1435 12.6058 14.0049 12.4673C13.8664 12.3287 13.6792 12.2498 13.4833 12.2472ZM20.9 8.29167H17.9333C17.7374 8.29423 17.5503 8.37319 17.4117 8.51173C17.2732 8.65027 17.1942 8.83743 17.1917 9.03333V23.125H21.6417V9.03333C21.6391 8.83743 21.5601 8.65027 21.4216 8.51173C21.2831 8.37319 21.0959 8.29423 20.9 8.29167Z" stroke="currentColor" stroke-width="1.75" stroke-linecap="round" stroke-linejoin="round"/>
</svg>
