<svg viewBox="0 0 24 24" fill="none" xmlns="http://www.w3.org/2000/svg">
<path d="M19.415 3.84167V1.98058C19.4124 1.68595 19.2933 1.40431 19.0838 1.19717C18.8743 0.990029 18.5913 0.874212 18.2967 0.875007H1.9874C1.69427 0.873952 1.41266 0.989059 1.20419 1.19514C0.995714 1.40123 0.877351 1.68151 0.875 1.97465V15.3434C0.87761 15.6382 0.996648 15.9199 1.20615 16.1272C1.41565 16.3345 1.69862 16.4505 1.99333 16.45H6.0662M0.875 4.58334H11.2574M14.6114 19.0152C14.8254 19.2967 15.1042 19.5223 15.424 19.6729C15.7439 19.8236 16.0954 19.8948 16.4486 19.8805M16.4486 19.8805C17.5749 19.8805 18.4885 19.1952 18.4885 18.3506C18.4885 17.5061 17.5749 16.8208 16.4486 16.8208C15.3224 16.8208 14.4097 16.1355 14.4097 15.29C14.4097 14.4445 15.3224 13.7602 16.4486 13.7602M16.4486 19.8805V20.9M16.4486 13.7602C16.8018 13.7462 17.1532 13.8175 17.4731 13.9681C17.7929 14.1187 18.0717 14.3442 18.2858 14.6255M16.4486 13.7602V12.7417M18.1177 10.6156L19.8669 7.62219C19.9152 7.5399 19.9407 7.44619 19.9407 7.35074C19.9407 7.2553 19.9152 7.16159 19.8669 7.07929C19.817 6.99626 19.7464 6.92762 19.662 6.88011C19.5775 6.83261 19.4822 6.80788 19.3854 6.80834H13.5139C13.417 6.80788 13.3217 6.83261 13.2372 6.88011C13.1528 6.92762 13.0822 6.99626 13.0323 7.07929C12.984 7.16159 12.9585 7.2553 12.9585 7.35074C12.9585 7.44619 12.984 7.5399 13.0323 7.62219L14.7825 10.6156C13.9034 11.1772 9.77619 12.6922 9.77619 17.1422C9.77619 20.5964 12.8256 23.125 16.3576 23.125C19.8896 23.125 23.125 20.5964 23.125 17.1422C23.123 12.8653 19.0768 11.3424 18.1177 10.6156Z" stroke="#0B0B14" stroke-width="1.75" stroke-linecap="round" stroke-linejoin="round" class="stroke"/>
</svg>
