<svg viewBox="0 0 24 24" fill="none" xmlns="http://www.w3.org/2000/svg">
<path d="M21.9093 8.01262C21.8189 7.88495 21.6991 7.78084 21.5601 7.70904C21.4211 7.63724 21.2669 7.59985 21.1104 7.6H17.2971V2.88809C17.2976 2.73189 17.2607 2.57785 17.1894 2.43887C17.1181 2.29988 17.0146 2.17999 16.8874 2.08924C16.2734 1.65413 14.9377 1 11.9985 1C9.05934 1 7.72369 1.65413 7.10965 2.08924C6.98197 2.17967 6.87787 2.29942 6.80607 2.43843C6.73427 2.57743 6.69687 2.73164 6.69702 2.88809V7.6H2.88369C2.72724 7.59985 2.57303 7.63724 2.43403 7.70904C2.29502 7.78084 2.17528 7.88495 2.08485 8.01262C1.65267 8.62667 0.998535 9.0608 0.998535 12C0.998535 14.9392 1.65267 15.3733 2.08778 15.9874C2.17821 16.115 2.29796 16.2192 2.43696 16.291C2.57597 16.3628 2.73017 16.4002 2.88662 16.4H6.69996V21.1119C6.69947 21.2681 6.73642 21.4221 6.8077 21.5611C6.87898 21.7001 6.98252 21.82 7.10965 21.9108C7.72369 22.3459 9.05934 23 11.9985 23C14.9377 23 16.2734 22.3459 16.8874 21.9108C17.0151 21.8203 17.1192 21.7006 17.191 21.5616C17.2628 21.4226 17.3002 21.2684 17.3 21.1119V16.4H21.1134C21.2698 16.4002 21.424 16.3628 21.563 16.291C21.702 16.2192 21.8218 16.115 21.9122 15.9874C22.3473 15.3733 23.0015 14.9392 23.0015 12C23.0015 9.0608 22.3444 8.62667 21.9093 8.01262Z" stroke="currentColor" stroke-width="1.5" stroke-linecap="round" stroke-linejoin="round"/>
<path d="M6.69702 7.6001H11.5096" stroke="currentColor" stroke-width="1.5" stroke-linecap="round" stroke-linejoin="round"/>
<path d="M12.4874 16.3999H17.3" stroke="currentColor" stroke-width="1.5" stroke-linecap="round" stroke-linejoin="round"/>
<path d="M6.69702 16.4001V14.9334C6.69702 13.3133 8.4228 12.0001 10.043 12.0001H13.9541C15.5743 12.0001 17.3 10.6869 17.3 9.06676V7.6001" stroke="currentColor" stroke-width="1.5" stroke-linecap="round" stroke-linejoin="round"/>
<path d="M10.043 4.42224C9.90803 4.42224 9.79858 4.3128 9.79858 4.17779C9.79858 4.04279 9.90803 3.93335 10.043 3.93335" stroke="currentColor" stroke-width="1.5"/>
<path d="M10.043 4.42224C10.178 4.42224 10.2875 4.3128 10.2875 4.17779C10.2875 4.04279 10.178 3.93335 10.043 3.93335" stroke="currentColor" stroke-width="1.5"/>
<path d="M13.954 20.0668C13.819 20.0668 13.7096 19.9573 13.7096 19.8223C13.7096 19.6873 13.819 19.5779 13.954 19.5779" stroke="currentColor" stroke-width="1.5"/>
<path d="M13.954 20.0668C14.089 20.0668 14.1985 19.9573 14.1985 19.8223C14.1985 19.6873 14.089 19.5779 13.954 19.5779" stroke="currentColor" stroke-width="1.5"/>
</svg>
