<svg viewBox="0 0 25 25" fill="none" xmlns="http://www.w3.org/2000/svg">
<path d="M9.59143 9.84098C9.59154 9.29101 9.74282 8.75165 10.0288 8.28185C10.3147 7.81205 10.7243 7.42989 11.2127 7.17714C11.7012 6.92438 12.2497 6.81076 12.7984 6.8487C13.347 6.88663 13.8747 7.07466 14.3237 7.39223C14.7727 7.7098 15.1258 8.14469 15.3444 8.64937C15.5629 9.15405 15.6385 9.7091 15.563 10.2539C15.4874 10.7986 15.2635 11.3121 14.9158 11.7382C14.5681 12.1643 14.1099 12.4867 13.5914 12.67C13.2989 12.7734 13.0456 12.9651 12.8665 13.2185C12.6874 13.4719 12.5913 13.7747 12.5914 14.085V15.091" stroke="currentColor" stroke-width="1.75" stroke-linecap="round" stroke-linejoin="round"/>
<path d="M12.5914 18.8409C12.492 18.8409 12.3966 18.8014 12.3263 18.7311C12.2559 18.6608 12.2164 18.5654 12.2164 18.4659C12.2164 18.3665 12.2559 18.2711 12.3263 18.2008C12.3966 18.1305 12.492 18.0909 12.5914 18.0909" stroke="currentColor" stroke-width="1.75"/>
<path d="M12.5914 18.8409C12.6909 18.8409 12.7863 18.8014 12.8566 18.7311C12.9269 18.6608 12.9664 18.5654 12.9664 18.4659C12.9664 18.3665 12.9269 18.2711 12.8566 18.2008C12.7863 18.1305 12.6909 18.0909 12.5914 18.0909" stroke="currentColor" stroke-width="1.75"/>
<path d="M12.5914 24.0909C18.8044 24.0909 23.8414 19.0539 23.8414 12.8409C23.8414 6.62794 18.8044 1.59094 12.5914 1.59094C6.37843 1.59094 1.34143 6.62794 1.34143 12.8409C1.34143 19.0539 6.37843 24.0909 12.5914 24.0909Z" stroke="currentColor" stroke-width="1.75" stroke-miterlimit="10"/>
</svg>
