<svg viewBox="0 0 24 24" fill="none" xmlns="http://www.w3.org/2000/svg">
<path d="M18.6191 6.57468C14.3466 7.26884 13.3297 6.36936 12.3716 5.40144C11.3939 6.37914 10.3673 7.26884 6.11434 6.57468M18.6191 6.57468L17.9249 9.73264M18.6191 6.57468C18.8782 5.46457 18.6943 4.29718 18.1064 3.3205C17.5186 2.34381 16.5731 1.63477 15.4709 1.344C14.4564 1.09943 13.415 0.984449 12.3716 1.0018C11.3249 0.983937 10.2802 1.09892 9.26253 1.344C8.16391 1.63894 7.22313 2.3497 6.63922 3.32592C6.05531 4.30214 5.87409 5.46723 6.1339 6.57468L6.82806 9.73264M5.0291 19.0794V20.0571C5.02279 20.2442 5.07496 20.4285 5.17836 20.5845C5.28176 20.7404 5.43122 20.8603 5.60594 20.9273L12.3618 22.9902V14.3669M12.3618 14.3669L6.03613 12.0009C5.91236 11.9746 5.78414 11.9775 5.66173 12.0096C5.53931 12.0416 5.42608 12.1018 5.33108 12.1854C5.23609 12.269 5.16196 12.3737 5.11461 12.491C5.06727 12.6084 5.04803 12.7352 5.05843 12.8613V14.6505M12.3618 14.3669V23L19.1373 20.9371C19.3128 20.8713 19.4631 20.7517 19.5667 20.5955C19.6703 20.4392 19.7219 20.2542 19.7141 20.0669V18.9328M12.3618 14.3669L18.7071 12.0009C18.8309 11.9746 18.9591 11.9775 19.0815 12.0096C19.2039 12.0416 19.3171 12.1018 19.4121 12.1854C19.5071 12.269 19.5813 12.3737 19.6286 12.491C19.6759 12.6084 19.6952 12.7352 19.6848 12.8613V14.8167M10.162 9.80108V10.5344M14.5714 9.80108V10.5344M6.48587 18.2191C6.48587 18.6981 5.93836 19.0892 5.26374 19.0892C3.91452 19.0892 2.82928 18.2875 2.83905 17.3196V16.4396C2.83905 15.462 3.93408 14.6896 5.2833 14.6896C5.95791 14.6896 6.50542 15.0904 6.49564 15.5793L6.48587 18.2191ZM17.5045 18.2191C17.5045 18.6981 18.0618 19.0892 18.7364 19.0892C20.0759 19.0892 21.1709 18.2875 21.1611 17.3196V16.4396C21.1611 15.462 20.0563 14.6896 18.7071 14.6896C18.0325 14.6896 17.4947 15.0904 17.4947 15.5793L17.5045 18.2191Z" stroke="currentColor" stroke-width="2" stroke-linecap="round" stroke-linejoin="round"/>
</svg>
