<svg viewBox="0 0 24 24" fill="none" xmlns="http://www.w3.org/2000/svg">
<path d="M11.75 23L3.16707 19.7342C2.89082 19.6447 2.65003 19.47 2.47928 19.2351C2.30852 19.0003 2.21659 18.7173 2.21667 18.4269V11.2667C2.21667 11.0497 2.26804 10.8358 2.36657 10.6424C2.46511 10.4491 2.60801 10.2818 2.78358 10.1543C2.95916 10.0268 3.16243 9.94267 3.37676 9.90879C3.5911 9.87491 3.81041 9.89224 4.01676 9.95938L11.75 12.9494M11.75 23V12.9494M11.75 23L20.3329 19.7342C20.6092 19.6447 20.85 19.47 21.0207 19.2351C21.1915 19.0003 21.2834 18.7173 21.2833 18.4269V11.2667C21.2833 11.0497 21.232 10.8358 21.1334 10.6424C21.0349 10.4491 20.892 10.2818 20.7164 10.1543C20.5408 10.0268 20.3376 9.94267 20.1232 9.90879C19.9089 9.87491 19.6896 9.89224 19.4832 9.95938L11.75 12.9494M2.95 4.66667C2.95 5.14818 3.04484 5.62498 3.22911 6.06984C3.41338 6.5147 3.68346 6.91891 4.02394 7.25939C4.36442 7.59987 4.76863 7.86996 5.21349 8.05423C5.65835 8.23849 6.13515 8.33333 6.61667 8.33333C7.09818 8.33333 7.57498 8.23849 8.01984 8.05423C8.4647 7.86996 8.86891 7.59987 9.20939 7.25939C9.54987 6.91891 9.81996 6.5147 10.0042 6.06984C10.1885 5.62498 10.2833 5.14818 10.2833 4.66667C10.2833 4.18515 10.1885 3.70835 10.0042 3.26349C9.81996 2.81863 9.54987 2.41442 9.20939 2.07394C8.86891 1.73346 8.4647 1.46338 8.01984 1.27911C7.57498 1.09484 7.09818 1 6.61667 1C6.13515 1 5.65835 1.09484 5.21349 1.27911C4.76863 1.46338 4.36442 1.73346 4.02394 2.07394C3.68346 2.41442 3.41338 2.81863 3.22911 3.26349C3.04484 3.70835 2.95 4.18515 2.95 4.66667ZM2.95 4.66667L0.75 4.66667M20.55 4.66667C20.55 5.14818 20.4552 5.62498 20.2709 6.06984C20.0866 6.5147 19.8165 6.91891 19.4761 7.25939C19.1356 7.59987 18.7314 7.86996 18.2865 8.05423C17.8416 8.23849 17.3648 8.33333 16.8833 8.33333C16.4018 8.33333 15.925 8.23849 15.4802 8.05423C15.0353 7.86996 14.6311 7.59987 14.2906 7.25939C13.9501 6.91891 13.68 6.5147 13.4958 6.06984C13.3115 5.62498 13.2167 5.14818 13.2167 4.66667C13.2167 4.18515 13.3115 3.70835 13.4958 3.26349C13.68 2.81863 13.9501 2.41442 14.2906 2.07394C14.6311 1.73346 15.0353 1.46338 15.4802 1.27911C15.925 1.09484 16.4018 1 16.8833 1C17.3648 1 17.8416 1.09484 18.2865 1.27911C18.7314 1.46338 19.1356 1.73346 19.4761 2.07394C19.8165 2.41442 20.0866 2.81863 20.2709 3.26349C20.4552 3.70835 20.55 4.18515 20.55 4.66667ZM20.55 4.66667L22.75 4.66667M10.2833 4.73609C10.2833 4.3471 10.4379 3.97405 10.7129 3.699C10.988 3.42394 11.361 3.26942 11.75 3.26942C12.139 3.26942 12.512 3.42394 12.7871 3.699C13.0621 3.97405 13.2167 4.3471 13.2167 4.73609M15.4167 15.6667L17.6167 14.9333" stroke="currentColor" stroke-width="2" stroke-linecap="round" stroke-linejoin="round"/>
</svg>
