<svg viewBox="0 0 24 24" fill="none" xmlns="http://www.w3.org/2000/svg">
<path d="M18.77 6.57468C14.4 7.26884 13.36 6.36936 12.38 5.40144C11.38 6.37914 10.33 7.26884 5.98 6.57468M18.77 6.57468L18.06 9.73264M18.77 6.57468C19.035 5.46457 18.8469 4.29718 18.2456 3.3205C17.6444 2.34381 16.6774 1.63477 15.55 1.344C14.5124 1.09943 13.4472 0.984449 12.38 1.0018C11.3095 0.983937 10.2409 1.09892 9.2 1.344C8.07633 1.63894 7.11408 2.3497 6.51686 3.32592C5.91963 4.30214 5.73427 5.46723 6 6.57468L6.71 9.73264M4.87 19.0794V20.0571C4.86355 20.2442 4.91692 20.4285 5.02267 20.5845C5.12842 20.7404 5.2813 20.8603 5.46 20.9273L12.37 22.9902V14.3669M12.37 14.3669L5.9 12.0009C5.77341 11.9746 5.64227 11.9775 5.51706 12.0096C5.39185 12.0416 5.27604 12.1018 5.17888 12.1854C5.08171 12.269 5.00589 12.3737 4.95747 12.491C4.90905 12.6084 4.88937 12.7352 4.9 12.8613V14.6505M12.37 14.3669V23L19.3 20.9371C19.4796 20.8713 19.6333 20.7517 19.7393 20.5955C19.8452 20.4392 19.898 20.2542 19.89 20.0669V18.9328M12.37 14.3669L18.86 12.0009C18.9866 11.9746 19.1177 11.9775 19.2429 12.0096C19.3682 12.0416 19.484 12.1018 19.5811 12.1854C19.6783 12.269 19.7541 12.3737 19.8025 12.491C19.851 12.6084 19.8706 12.7352 19.86 12.8613V14.8167M10.12 9.80108V10.5344M14.63 9.80108V10.5344M6.36 18.2191C6.36 18.6981 5.8 19.0892 5.11 19.0892C3.73 19.0892 2.62 18.2875 2.63 17.3196V16.4396C2.63 15.462 3.75 14.6896 5.13 14.6896C5.82 14.6896 6.38 15.0904 6.37 15.5793L6.36 18.2191ZM17.63 18.2191C17.63 18.6981 18.2 19.0892 18.89 19.0892C20.26 19.0892 21.38 18.2875 21.37 17.3196V16.4396C21.37 15.462 20.24 14.6896 18.86 14.6896C18.17 14.6896 17.62 15.0904 17.62 15.5793L17.63 18.2191Z" stroke="#0B0B14" stroke-width="2" stroke-linecap="round" stroke-linejoin="round" class="stroke"/>
</svg>
