<svg viewBox="0 0 24 24" fill="none" xmlns="http://www.w3.org/2000/svg">
<path d="M1 8.92308C2.96166 8.24727 5.07376 8.13633 7.09542 8.6029C9.11709 9.06946 10.967 10.0948 12.4341 11.5619C13.9012 13.029 14.9265 14.8789 15.3931 16.9005C15.8596 18.9222 15.7487 21.0343 15.0729 22.9959M1 1.36771C3.96813 0.765368 7.0392 0.907034 9.93927 1.78007C12.8393 2.65311 15.4783 4.23037 17.6206 6.37116C19.7629 8.51195 21.3421 11.1497 22.2172 14.0492C23.0924 16.9486 23.2362 20.0196 22.6361 22.9881M1 19.3341C1 20.306 1.38611 21.2382 2.0734 21.9255C2.76068 22.6128 3.69284 22.9989 4.66481 22.9989C5.63678 22.9989 6.56893 22.6128 7.25622 21.9255C7.9435 21.2382 8.32962 20.306 8.32962 19.3341C8.32962 18.3621 7.9435 17.4299 7.25622 16.7427C6.56893 16.0554 5.63678 15.6693 4.66481 15.6693C3.69284 15.6693 2.76068 16.0554 2.0734 16.7427C1.38611 17.4299 1 18.3621 1 19.3341Z" stroke="currentColor" stroke-width="2" stroke-linecap="round" stroke-linejoin="round"/>
</svg>
