<svg width="24" height="24" viewBox="0 0 24 24" fill="none" xmlns="http://www.w3.org/2000/svg">
  <path d="M1.2 19.8C1.2 20.5956 1.51607 21.3587 2.07868 21.9213C2.64129 22.4839 3.40435 22.8 4.2 22.8C4.99565 22.8 5.75871 22.4839 6.32132 21.9213C6.88393 21.3587 7.2 20.5956 7.2 19.8C7.2 19.0043 6.88393 18.2413 6.32132 17.6787C5.75871 17.1161 4.99565 16.8 4.2 16.8C3.40435 16.8 2.64129 17.1161 2.07868 17.6787C1.51607 18.2413 1.2 19.0043 1.2 19.8V19.8Z" stroke="#0B0B14" stroke-width="2.4" stroke-linecap="round" stroke-linejoin="round" class="stroke"/>
  <path d="M15.6 21.6C15.6 19.8666 15.2586 18.1501 14.5952 16.5486C13.9318 14.9471 12.9595 13.4919 11.7338 12.2662C10.5081 11.0405 9.05292 10.0682 7.45142 9.40479C5.84993 8.74143 4.13345 8.4 2.4 8.4" stroke="#0B0B14" stroke-width="2.4" stroke-linecap="round" stroke-linejoin="round" class="stroke"/>
  <path d="M22.8 21.6C22.8 18.921 22.2723 16.2683 21.2471 13.7933C20.2219 11.3182 18.7193 9.06934 16.825 7.17502C14.9307 5.28071 12.6818 3.77805 10.2067 2.75286C7.7317 1.72766 5.07897 1.2 2.4 1.2" stroke="#0B0B14" stroke-width="2.4" stroke-linecap="round" stroke-linejoin="round" class="stroke"/>
</svg>
