<svg viewBox="0 0 24 24" fill="none" xmlns="http://www.w3.org/2000/svg">
<path d="M17.1417 11.2588C16.9996 12.2436 16.5775 13.1667 15.9256 13.9184C15.2738 14.6701 14.4197 15.2186 13.465 15.4987C12.5103 15.7788 11.4952 15.7786 10.5406 15.4983C9.58595 15.2179 8.732 14.6691 8.08038 13.9172C7.42877 13.1654 7.00693 12.2421 6.86508 11.2573C6.72324 10.2725 6.86737 9.26774 7.28031 8.36253C7.69325 7.45733 8.35761 6.68986 9.1943 6.15147C10.031 5.61309 11.0048 5.32647 11.9997 5.32574M17.1912 6.62311L12.4585 11.3557C12.3367 11.4772 12.1717 11.5455 11.9997 11.5455C11.8277 11.5455 11.6627 11.4772 11.5409 11.3557L10.0576 9.86752M2.35843 4.01354V11.5426C2.35845 13.9224 3.07962 16.2464 4.42686 18.2081C5.77411 20.1698 7.68419 21.6773 9.90532 22.5317L10.9347 22.9272C11.6202 23.1909 12.3792 23.1909 13.0647 22.9272L14.0941 22.5317C16.3152 21.6773 18.2253 20.1698 19.5725 18.2081C20.9198 16.2464 21.641 13.9224 21.641 11.5426V4.01354C21.6429 3.73022 21.5629 3.45238 21.4106 3.21345C21.2583 2.97452 21.0403 2.78466 20.7827 2.66673C18.0137 1.45815 15.0208 0.847899 11.9997 0.875923C8.97863 0.847899 5.98569 1.45815 3.21675 2.66673C2.95914 2.78466 2.74108 2.97452 2.58881 3.21345C2.43654 3.45238 2.35654 3.73022 2.35843 4.01354Z" stroke="currentColor" stroke-width="1.75" stroke-linecap="round" stroke-linejoin="round"/>
</svg>
