<svg viewBox="0 0 24 24" fill="none" xmlns="http://www.w3.org/2000/svg">
<path d="M9.65 3.0151C9.16675 3.0151 8.775 3.40685 8.775 3.8901C8.775 4.37335 9.16675 4.7651 9.65 4.7651V3.0151ZM11.1333 4.7651C11.6166 4.7651 12.0083 4.37335 12.0083 3.8901C12.0083 3.40685 11.6166 3.0151 11.1333 3.0151V4.7651ZM14.1 3.0151C13.6168 3.0151 13.225 3.40685 13.225 3.8901C13.225 4.37335 13.6168 4.7651 14.1 4.7651V3.0151ZM15.5833 4.7651C16.0666 4.7651 16.4583 4.37335 16.4583 3.8901C16.4583 3.40685 16.0666 3.0151 15.5833 3.0151V4.7651ZM9.65 8.94843C9.16675 8.94843 8.775 9.34019 8.775 9.82343C8.775 10.3067 9.16675 10.6984 9.65 10.6984V8.94843ZM11.1333 10.6984C11.6166 10.6984 12.0083 10.3067 12.0083 9.82343C12.0083 9.34019 11.6166 8.94843 11.1333 8.94843V10.6984ZM4.45936 17.8485C3.97611 17.8485 3.58436 18.2402 3.58436 18.7235C3.58436 19.2067 3.97611 19.5985 4.45936 19.5985V17.8485ZM8.16671 18.7235V19.5985C8.64996 19.5985 9.04171 19.2067 9.04171 18.7235H8.16671ZM9.04171 12.7901C9.04171 12.3069 8.64996 11.9151 8.16671 11.9151C7.68346 11.9151 7.29171 12.3069 7.29171 12.7901H9.04171ZM9.65 13.6651C10.1332 13.6651 10.525 13.2734 10.525 12.7901C10.525 12.3069 10.1332 11.9151 9.65 11.9151V13.6651ZM17.4185 8.81944C17.6504 9.24338 18.1822 9.399 18.6061 9.16704C19.03 8.93507 19.1857 8.40336 18.9537 7.97942L17.4185 8.81944ZM14.8417 19.5006C15.3249 19.5006 15.7167 19.1088 15.7167 18.6256C15.7167 18.1423 15.3249 17.7506 14.8417 17.7506V19.5006ZM11.1333 18.6256V17.7506C10.6501 17.7506 10.2583 18.1423 10.2583 18.6256H11.1333ZM10.2583 22.3339C10.2583 22.8171 10.6501 23.2089 11.1333 23.2089C11.6166 23.2089 12.0083 22.8171 12.0083 22.3339H10.2583ZM23.2513 19.6337C23.4078 19.1765 23.164 18.679 22.7068 18.5226C22.2496 18.3661 21.7521 18.6099 21.5956 19.0671L23.2513 19.6337ZM20.2596 22.1558L20.7438 22.8846L20.7439 22.8846L20.2596 22.1558ZM16.835 23.0638L16.7753 23.9368L16.7754 23.9368L16.835 23.0638ZM13.5654 21.6989L12.9866 22.3551L12.9866 22.3552L13.5654 21.6989ZM12.6615 18.4574C12.5686 17.9831 12.1089 17.674 11.6346 17.7669C11.1604 17.8598 10.8512 18.3195 10.9441 18.7937L12.6615 18.4574ZM19.2917 14.7839C18.8084 14.7839 18.4167 15.1756 18.4167 15.6589C18.4167 16.1421 18.8084 16.5339 19.2917 16.5339V14.7839ZM23 15.6589V16.5339C23.4832 16.5339 23.875 16.1421 23.875 15.6589H23ZM23.875 11.9506C23.875 11.4673 23.4832 11.0756 23 11.0756C22.5168 11.0756 22.125 11.4673 22.125 11.9506H23.875ZM10.882 14.6507C10.7255 15.108 10.9693 15.6054 11.4266 15.7619C11.8838 15.9184 12.3813 15.6746 12.5377 15.2173L10.882 14.6507ZM17.2984 11.2207L17.358 10.3477L17.3579 10.3477L17.2984 11.2207ZM21.4718 15.8271C21.5647 16.3013 22.0245 16.6105 22.4987 16.5176C22.9729 16.4247 23.2821 15.965 23.1892 15.4907L21.4718 15.8271ZM9.65 4.7651H11.1333V3.0151H9.65V4.7651ZM14.1 4.7651H15.5833V3.0151H14.1V4.7651ZM9.65 10.6984H11.1333V8.94843H9.65V10.6984ZM4.45936 19.5985H8.16671V17.8485H4.45936V19.5985ZM9.04171 18.7235V12.7901H7.29171V18.7235H9.04171ZM4.45736 3.38593C4.73581 3.38593 4.96153 3.61165 4.96153 3.8901H3.21153C3.21153 4.57815 3.76932 5.13593 4.45736 5.13593V3.38593ZM4.96153 3.8901C4.96153 4.16856 4.7358 4.39427 4.45736 4.39427V2.64427C3.76933 2.64427 3.21153 3.20203 3.21153 3.8901H4.96153ZM4.45736 5.13593C5.14544 5.13593 5.7032 4.57813 5.7032 3.8901H3.9532C3.9532 3.61167 4.17891 3.38593 4.45736 3.38593V5.13593ZM5.7032 3.8901C5.7032 3.20204 5.14542 2.64427 4.45736 2.64427V4.39427C4.17892 4.39427 3.9532 4.16854 3.9532 3.8901H5.7032ZM17.675 3.8901C17.675 4.44482 17.4546 4.97685 17.0623 5.36914L18.2998 6.60656C19.0202 5.88613 19.425 4.909 19.425 3.8901H17.675ZM17.0623 5.36914C16.6701 5.76139 16.138 5.98177 15.5833 5.98177V7.73177C16.6022 7.73177 17.5793 7.32703 18.2998 6.60656L17.0623 5.36914ZM15.5833 5.98177H3.71667V7.73177H15.5833V5.98177ZM3.71667 5.98177C3.16192 5.98177 2.6299 5.7614 2.23764 5.36913L1.0002 6.60657C1.72065 7.32702 2.69779 7.73177 3.71667 7.73177V5.98177ZM2.23764 5.36913C1.84537 4.97687 1.625 4.44484 1.625 3.8901H-0.125C-0.125 4.90897 0.279745 5.88612 1.0002 6.60657L2.23764 5.36913ZM1.625 3.8901C1.625 3.33536 1.84537 2.80333 2.23764 2.41107L1.0002 1.17363C0.279746 1.89408 -0.125 2.87123 -0.125 3.8901H1.625ZM2.23764 2.41107C2.6299 2.0188 3.16192 1.79843 3.71667 1.79843V0.0484314C2.69779 0.0484314 1.72065 0.45318 1.0002 1.17363L2.23764 2.41107ZM3.71667 1.79843H15.5833V0.0484314H3.71667V1.79843ZM15.5833 1.79843C16.138 1.79843 16.6701 2.01881 17.0623 2.41106L18.2998 1.17364C17.5793 0.453176 16.6022 0.0484314 15.5833 0.0484314V1.79843ZM17.0623 2.41106C17.4546 2.80335 17.675 3.33538 17.675 3.8901H19.425C19.425 2.8712 19.0202 1.89407 18.2998 1.17364L17.0623 2.41106ZM4.45736 9.3193C4.7359 9.3193 4.96153 9.54507 4.96153 9.82343H3.21153C3.21153 10.5114 3.76923 11.0693 4.45736 11.0693V9.3193ZM4.96153 9.82343C4.96153 10.1019 4.7358 10.3276 4.45736 10.3276V8.5776C3.76933 8.5776 3.21153 9.13536 3.21153 9.82343H4.96153ZM4.45736 11.0693C5.14553 11.0693 5.7032 10.5114 5.7032 9.82343H3.9532C3.9532 9.54509 4.17882 9.3193 4.45736 9.3193V11.0693ZM5.7032 9.82343C5.7032 9.13538 5.14542 8.5776 4.45736 8.5776V10.3276C4.17892 10.3276 3.9532 10.1019 3.9532 9.82343H5.7032ZM9.65 11.9151H3.71667V13.6651H9.65V11.9151ZM3.71667 11.9151C3.16194 11.9151 2.62991 11.6947 2.23763 11.3025L1.0002 12.5399C1.72064 13.2603 2.69777 13.6651 3.71667 13.6651V11.9151ZM2.23763 11.3025C1.84538 10.9102 1.625 10.3782 1.625 9.82343H-0.125C-0.125 10.8423 0.279738 11.8195 1.0002 12.5399L2.23763 11.3025ZM1.625 9.82343C1.625 9.26869 1.84537 8.73667 2.23764 8.3444L1.0002 7.10697C0.279745 7.82742 -0.125 8.80456 -0.125 9.82343H1.625ZM2.23764 8.3444C2.6299 7.95214 3.16192 7.73177 3.71667 7.73177V5.98177C2.69779 5.98177 1.72065 6.38651 1.0002 7.10697L2.23764 8.3444ZM15.5834 7.73177C15.9587 7.73174 16.3271 7.8327 16.65 8.02408L17.5423 6.51863C16.9493 6.16717 16.2726 5.98172 15.5833 5.98177L15.5834 7.73177ZM16.65 8.02408C16.9729 8.21544 17.2383 8.49017 17.4185 8.81944L18.9537 7.97942C18.6228 7.3747 18.1353 6.87011 17.5423 6.51863L16.65 8.02408ZM1.12083 17.8485C1.39929 17.8485 1.625 18.0742 1.625 18.3526H-0.125C-0.125 19.0407 0.432768 19.5985 1.12083 19.5985V17.8485ZM1.625 18.3526C1.625 18.6311 1.39929 18.8568 1.12083 18.8568V17.1068C0.432768 17.1068 -0.125 17.6646 -0.125 18.3526H1.625ZM1.12083 19.5985C1.80891 19.5985 2.36667 19.0407 2.36667 18.3526H0.616667C0.616667 18.0742 0.842378 17.8485 1.12083 17.8485V19.5985ZM2.36667 18.3526C2.36667 17.6646 1.80891 17.1068 1.12083 17.1068V18.8568C0.842378 18.8568 0.616667 18.6311 0.616667 18.3526H2.36667ZM14.8417 17.7506H11.1333V19.5006H14.8417V17.7506ZM10.2583 18.6256V22.3339H12.0083V18.6256H10.2583ZM21.5956 19.0671C21.2652 20.0326 20.6253 20.8622 19.7753 21.427L20.7439 22.8846C21.9147 22.1065 22.7962 20.9638 23.2513 19.6337L21.5956 19.0671ZM19.7754 21.427C18.9253 21.9918 17.9127 22.2603 16.8945 22.1908L16.7754 23.9368C18.178 24.0325 19.5729 23.6625 20.7438 22.8846L19.7754 21.427ZM16.8946 22.1908C15.8763 22.1213 14.9096 21.7177 14.1442 21.0427L12.9866 22.3552C14.041 23.2851 15.3728 23.841 16.7753 23.9368L16.8946 22.1908ZM14.1442 21.0427C13.3789 20.3677 12.8576 19.4588 12.6615 18.4574L10.9441 18.7937C11.2143 20.1733 11.9324 21.4252 12.9866 22.3551L14.1442 21.0427ZM19.2917 16.5339H23V14.7839H19.2917V16.5339ZM23.875 15.6589V11.9506H22.125V15.6589H23.875ZM12.5377 15.2173C12.8681 14.2518 13.508 13.4223 14.358 12.8574L13.3895 11.3999C12.2186 12.178 11.3372 13.3207 10.882 14.6507L12.5377 15.2173ZM14.358 12.8574C15.208 12.2926 16.2206 12.0242 17.2388 12.0936L17.3579 10.3477C15.9553 10.252 14.5604 10.6218 13.3895 11.3999L14.358 12.8574ZM17.2387 12.0936C18.257 12.1632 19.2238 12.5667 19.9891 13.2418L21.1467 11.9293C20.0923 10.9994 18.7605 10.4435 17.358 10.3477L17.2387 12.0936ZM19.9891 13.2418C20.7545 13.9168 21.2757 14.8256 21.4718 15.8271L23.1892 15.4907C22.919 14.1112 22.2011 12.8592 21.1467 11.9293L19.9891 13.2418Z" fill="#0B0B14" class="fill"/>
</svg>
