<svg viewBox="0 0 24 24" fill="none" xmlns="http://www.w3.org/2000/svg">
<g transform="translate(0 1.5)" stroke="currentColor" stroke-width="1.75" stroke-linecap="round" stroke-linejoin="round">
<path d="M9.67 3.35C9.95 2.48 10.79 1.88 11.71 1.88H12.29C13.21 1.88 14.05 2.48 14.33 3.35L14.69 4.48C15.22 4.69 15.72 4.98 16.16 5.34L17.29 4.98C18.16 4.7 19.11 5.05 19.58 5.84L19.87 6.34C20.33 7.14 20.19 8.14 19.53 8.78L18.66 9.62C18.72 9.91 18.75 10.2 18.75 10.5C18.75 10.8 18.72 11.09 18.66 11.38L19.53 12.22C20.19 12.86 20.33 13.86 19.87 14.66L19.58 15.16C19.11 15.95 18.16 16.3 17.29 16.02L16.16 15.66C15.72 16.02 15.22 16.31 14.69 16.52L14.33 17.65C14.05 18.52 13.21 19.12 12.29 19.12H11.71C10.79 19.12 9.95 18.52 9.67 17.65L9.31 16.52C8.78 16.31 8.28 16.02 7.84 15.66L6.71 16.02C5.84 16.3 4.89 15.95 4.42 15.16L4.13 14.66C3.67 13.86 3.81 12.86 4.47 12.22L5.34 11.38C5.28 11.09 5.25 10.8 5.25 10.5C5.25 10.2 5.28 9.91 5.34 9.62L4.47 8.78C3.81 8.14 3.67 7.14 4.13 6.34L4.42 5.84C4.89 5.05 5.84 4.7 6.71 4.98L7.84 5.34C8.28 4.98 8.78 4.69 9.31 4.48L9.67 3.35Z"/>
<circle cx="12" cy="10.5" r="3"/>
</g>
</svg>
