<svg viewBox="0 0 24 24" fill="none" xmlns="http://www.w3.org/2000/svg">
<path d="M4.58333 13.2114H3.89111C3.71686 13.2107 3.54552 13.2561 3.39444 13.3429C3.24336 13.4297 3.1179 13.5549 3.03078 13.7058L0.875 19.6392M0.875 19.6392H23.125M0.875 19.6392L1.17167 21.9729C1.28044 22.6355 1.66611 23.1003 2.16056 23.1003H21.8889C22.3339 23.1003 22.7196 22.6355 22.8283 21.9729L23.125 19.6392M23.125 19.6392L20.9692 13.7058C20.8821 13.5549 20.7566 13.4297 20.6056 13.3429C20.4545 13.2561 20.2831 13.2107 20.1089 13.2114H19.4167M8.93447 13.2114C8.93447 10.2447 9.50802 9.68105 10.1409 8.79105C10.4376 8.36583 11.3375 7.30772 11.3375 7.30772H7.71813C7.06547 7.30772 6.95669 6.95172 6.72925 6.31883C6.70287 6.12453 6.73486 5.92678 6.82114 5.7507C6.90741 5.57462 7.04409 5.42816 7.2138 5.32994L10.6255 2.8775V0.899719C10.6255 0.899719 12.6032 1.94794 13.5229 2.44239C15.6589 3.53016 15.5007 4.42016 15.5007 5.58705C15.4963 5.78193 15.4343 5.97115 15.3227 6.13094L13.3449 9.26572C14.0339 9.66382 14.6009 10.2428 14.9843 10.9401C15.3678 11.6373 15.5532 12.4262 15.5205 13.2213M17.251 16.0792C17.2653 16.1521 17.2629 16.2273 17.2441 16.2993C17.2252 16.3712 17.1904 16.4379 17.1422 16.4945C17.0905 16.5505 17.0279 16.5952 16.9581 16.6258C16.8883 16.6564 16.813 16.6723 16.7368 16.6725H7.41158C7.25508 16.6703 7.10579 16.6063 6.99625 16.4945C6.94806 16.4379 6.91326 16.3712 6.89442 16.2993C6.87559 16.2273 6.87321 16.1521 6.88747 16.0792L7.29291 13.7058C7.44125 13.3004 7.89613 13.2114 8.36091 13.2114H15.7875C16.2424 13.2114 16.7071 13.3004 16.8456 13.7058L17.251 16.0792Z" stroke="currentColor" stroke-width="1.75" stroke-linecap="round" stroke-linejoin="round"/>
</svg>
