<svg width="24" height="24" viewBox="0 0 24 24" fill="none" xmlns="http://www.w3.org/2000/svg">
<g clip-path="url(#clip0_802_12)">
<path d="M7 12.949L9.04167 15.6398C9.11911 15.7472 9.22306 15.8359 9.34487 15.8985C9.46668 15.9611 9.60283 15.9958 9.74197 15.9996C9.88112 16.0035 10.0193 15.9764 10.1449 15.9207C10.2705 15.865 10.38 15.7822 10.4642 15.6793L17 8" stroke="black" stroke-width="1.75" stroke-linecap="round" stroke-linejoin="round"/>
<path d="M1.25 12C1.25 14.8511 2.38259 17.5854 4.3986 19.6014C6.41462 21.6174 9.14892 22.75 12 22.75C14.8511 22.75 17.5854 21.6174 19.6014 19.6014C21.6174 17.5854 22.75 14.8511 22.75 12C22.75 9.14892 21.6174 6.41462 19.6014 4.3986C17.5854 2.38259 14.8511 1.25 12 1.25C9.14892 1.25 6.41462 2.38259 4.3986 4.3986C2.38259 6.41462 1.25 9.14892 1.25 12Z" stroke="black" stroke-width="1.75" stroke-linecap="round" stroke-linejoin="round"/>
</g>
<defs>
<clipPath id="clip0_802_12">
<rect width="24" height="24" fill="white"/>
</clipPath>
</defs>
</svg>
