<svg viewBox="0 0 24 24" fill="none" xmlns="http://www.w3.org/2000/svg">
<path d="M12 5.325V0.875M12 5.325C13.7703 5.325 15.4682 6.02823 16.72 7.28003M12 5.325C10.2297 5.325 8.53184 6.02823 7.28003 7.28003M7.28003 7.28003L4.13339 4.13339M7.28003 7.28003C6.02823 8.53184 5.325 10.2297 5.325 12M5.325 12H0.875M5.325 12C5.325 13.7703 6.02823 15.4682 7.28003 16.72M7.28003 16.72L4.13339 19.8666M7.28003 16.72C8.53184 17.9718 10.2297 18.675 12 18.675M12 18.675V23.125M12 18.675C13.7703 18.675 15.4682 17.9718 16.72 16.72M16.72 16.72L19.8666 19.8666M16.72 16.72C17.9718 15.4682 18.675 13.7703 18.675 12M18.675 12H23.125M18.675 12C18.675 10.2297 17.9718 8.53184 16.72 7.28003M16.72 7.28003L19.8666 4.13339" stroke="currentColor" stroke-width="1.75" stroke-linecap="round" stroke-linejoin="round"/>
</svg>
