<svg width="24" height="24" viewBox="0 0 24 24" fill="none" xmlns="http://www.w3.org/2000/svg">
  <path fill-rule="evenodd" clip-rule="evenodd" d="M12 0C18.6274 0 24 5.37256 24 12C24 18.6274 18.6274 24 12 24C5.37256 24 0 18.6274 0 12C0 5.37256 5.37256 0 12 0ZM17.7758 6.56675L15.6348 17.3609C15.6348 17.3609 15.3355 18.1094 14.5121 17.75L9.58657 13.8725C9.58657 13.8725 15.066 8.94706 15.2905 8.73747C15.5151 8.52788 15.4402 8.48302 15.4402 8.48302C15.4551 8.2285 15.036 8.48302 15.036 8.48302L7.77512 13.0941L4.75098 12.076C4.75098 12.076 4.28687 11.9113 4.24202 11.5521C4.19709 11.1927 4.76596 10.9981 4.76596 10.9981L16.7878 6.28228C16.7878 6.28228 17.7758 5.84812 17.7758 6.56675ZM11.4659 15.4147L9.51176 17.1964C9.51176 17.1964 9.35897 17.3122 9.19186 17.2396L9.56604 13.9302L11.4659 15.4147Z" fill="#0B0B14" class="fill"/>
</svg>
