<svg width="24" height="24" viewBox="0 0 24 24" fill="none" xmlns="http://www.w3.org/2000/svg">
<path d="M23.25 11.25V18H16.5" stroke="currentColor" stroke-width="1.5" stroke-linecap="round" stroke-linejoin="round"/>
<path d="M23.25 18L15.311 10.061C15.1717 9.92161 15.0063 9.81104 14.8242 9.73559C14.6422 9.66015 14.4471 9.62132 14.25 9.62132C14.0529 9.62132 13.8578 9.66015 13.6758 9.73559C13.4937 9.81104 13.3283 9.92161 13.189 10.061L10.061 13.189C9.9217 13.3284 9.7563 13.439 9.57425 13.5144C9.3922 13.5898 9.19706 13.6287 9 13.6287C8.80294 13.6287 8.6078 13.5898 8.42575 13.5144C8.2437 13.439 8.0783 13.3284 7.939 13.189L0.75 6" stroke="currentColor" stroke-width="1.5" stroke-linecap="round" stroke-linejoin="round"/>
</svg>
