<svg viewBox="0 0 24 24" fill="none" xmlns="http://www.w3.org/2000/svg">
<path d="M23.32 6.44001C23.3912 6.38086 23.4445 6.30313 23.4742 6.21547C23.5038 6.1278 23.5085 6.03364 23.4877 5.94347C23.467 5.85329 23.4216 5.77064 23.3567 5.7047C23.2918 5.63877 23.2099 5.59214 23.12 5.57001L22.33 5.38001C22.2573 5.36172 22.1897 5.32696 22.1325 5.27841C22.0752 5.22987 22.0299 5.16883 22 5.10001C21.9681 5.03285 21.9515 4.95939 21.9515 4.88501C21.9515 4.81062 21.9681 4.73717 22 4.67001L22.45 3.78001C22.4928 3.69287 22.5093 3.59517 22.4975 3.49882C22.4857 3.40247 22.4461 3.31165 22.3835 3.23743C22.321 3.16321 22.2382 3.1088 22.1452 3.08084C22.0522 3.05289 21.9532 3.0526 21.86 3.08001L19.86 3.64001C19.7864 3.66031 19.7089 3.66274 19.6341 3.64709C19.5593 3.63143 19.4894 3.59815 19.43 3.55001C18.6872 2.99287 17.8039 2.6536 16.8791 2.57021C15.9543 2.48682 15.0245 2.6626 14.194 3.07787C13.3634 3.49313 12.665 4.13147 12.1768 4.92135C11.6886 5.71123 11.43 6.62145 11.43 7.55001V7.91001C11.4305 7.97142 11.4083 8.03086 11.3677 8.07697C11.3271 8.12308 11.271 8.15264 11.21 8.16001C8.40004 8.49001 5.71004 7.06001 2.81004 3.72001C2.74888 3.64781 2.66849 3.59446 2.57822 3.56614C2.48794 3.53781 2.39148 3.53569 2.30004 3.56001C2.21294 3.59662 2.13828 3.65763 2.08505 3.73569C2.03182 3.81376 2.0023 3.90555 2.00004 4.00001C1.59478 5.645 1.75687 7.37864 2.46004 8.92001C2.48192 8.95984 2.4934 9.00456 2.4934 9.05001C2.4934 9.09546 2.48192 9.14017 2.46004 9.18001C2.43315 9.21976 2.39495 9.25054 2.35039 9.26837C2.30582 9.28619 2.25693 9.29025 2.21004 9.28L1.08004 9.06001C1.00009 9.04916 0.918713 9.05707 0.842346 9.0831C0.765979 9.10913 0.696717 9.15258 0.640041 9.21001C0.585508 9.26809 0.545344 9.33815 0.522769 9.41456C0.500193 9.49097 0.495834 9.57161 0.510041 9.65C0.59638 10.4175 0.854215 11.1557 1.26446 11.81C1.67471 12.4643 2.22686 13.018 2.88004 13.43C2.91917 13.4537 2.95105 13.4877 2.97221 13.5282C2.99337 13.5688 3.00299 13.6144 3.00004 13.66C2.99955 13.7074 2.98504 13.7536 2.95835 13.7927C2.93165 13.8319 2.89397 13.8622 2.85004 13.88L2.31004 14.09C2.18215 14.146 2.08153 14.2502 2.03004 14.38C2.00308 14.4432 1.98919 14.5113 1.98919 14.58C1.98919 14.6487 2.00308 14.7168 2.03004 14.78C2.32313 15.4213 2.7674 15.982 3.32474 16.4139C3.88208 16.8459 4.53587 17.1362 5.23004 17.26C5.2794 17.2747 5.32351 17.3033 5.35717 17.3423C5.39084 17.3812 5.41265 17.429 5.42004 17.48C5.42498 17.5335 5.41321 17.5873 5.38635 17.6338C5.35949 17.6804 5.31885 17.7175 5.27004 17.74C3.91544 18.2947 2.46376 18.5735 1.00004 18.56C0.867432 18.5335 0.72972 18.5607 0.617198 18.6357C0.504676 18.7108 0.426562 18.8274 0.400041 18.96C0.373519 19.0926 0.400762 19.2303 0.475777 19.3428C0.550791 19.4554 0.667432 19.5335 0.800041 19.56C3.34618 20.7723 6.12068 21.4301 8.94004 21.49C11.4193 21.5266 13.8543 20.8309 15.94 19.49C17.6565 18.3463 19.0628 16.7951 20.0331 14.9749C21.0033 13.1548 21.5073 11.1226 21.5 9.06001V8.19C21.5 8.11728 21.5161 8.04544 21.5472 7.97972C21.5783 7.91399 21.6237 7.85602 21.68 7.81001L23.32 6.44001Z" fill="currentColor"/>
</svg>
