<svg viewBox="0 0 24 24" fill="none" xmlns="http://www.w3.org/2000/svg">
  <path d="M23.32 6.44C23.3912 6.38086 23.4445 6.30313 23.4741 6.21546C23.5037 6.1278 23.5084 6.03364 23.4877 5.94346C23.4669 5.85329 23.4216 5.77063 23.3567 5.7047C23.2918 5.63876 23.2098 5.59214 23.12 5.57L22.33 5.38C22.2572 5.36171 22.1896 5.32695 22.1324 5.27841C22.0752 5.22986 22.0299 5.16882 22 5.1C21.968 5.03284 21.9514 4.95939 21.9514 4.885C21.9514 4.81061 21.968 4.73716 22 4.67L22.45 3.78C22.4928 3.69287 22.5093 3.59516 22.4974 3.49882C22.4856 3.40247 22.446 3.31164 22.3835 3.23742C22.3209 3.1632 22.2381 3.10879 22.1452 3.08084C22.0522 3.05289 21.9531 3.0526 21.86 3.08L19.86 3.64C19.7863 3.66031 19.7089 3.66274 19.6341 3.64708C19.5593 3.63143 19.4893 3.59815 19.43 3.55C18.6871 2.99287 17.8038 2.65359 16.879 2.57021C15.9542 2.48682 15.0245 2.6626 14.1939 3.07787C13.3634 3.49313 12.6649 4.13147 12.1767 4.92135C11.6886 5.71123 11.43 6.62144 11.43 7.55V7.91C11.4304 7.97142 11.4083 8.03085 11.3677 8.07696C11.3271 8.12307 11.271 8.15263 11.21 8.16C8.4 8.49 5.71 7.06 2.80999 3.72C2.74883 3.64781 2.66845 3.59446 2.57817 3.56613C2.48789 3.53781 2.39143 3.53568 2.29999 3.56C2.21289 3.59661 2.13823 3.65762 2.085 3.73569C2.03178 3.81375 2.00226 3.90554 1.99999 4C1.59474 5.645 1.75683 7.37864 2.46 8.92C2.48188 8.95984 2.49335 9.00455 2.49335 9.05C2.49335 9.09545 2.48188 9.14017 2.46 9.18C2.4331 9.21976 2.3949 9.25054 2.35034 9.26836C2.30577 9.28619 2.25689 9.29024 2.21 9.28L1.07999 9.06C1.00004 9.04916 0.918667 9.05706 0.8423 9.0831C0.765933 9.10913 0.696671 9.15258 0.639995 9.21C0.585463 9.26809 0.545299 9.33815 0.522723 9.41456C0.500147 9.49097 0.495788 9.5716 0.509995 9.65C0.596334 10.4174 0.854169 11.1557 1.26441 11.81C1.67466 12.4643 2.22681 13.018 2.88 13.43C2.91912 13.4537 2.951 13.4877 2.97216 13.5282C2.99332 13.5688 3.00295 13.6144 2.99999 13.66C2.9995 13.7074 2.985 13.7536 2.9583 13.7927C2.93161 13.8319 2.89392 13.8622 2.84999 13.88L2.30999 14.09C2.18211 14.146 2.08149 14.2502 2.02999 14.38C2.00304 14.4432 1.98914 14.5113 1.98914 14.58C1.98914 14.6487 2.00304 14.7168 2.02999 14.78C2.32309 15.4213 2.76735 15.982 3.32469 16.4139C3.88203 16.8459 4.53582 17.1362 5.22999 17.26C5.27935 17.2747 5.32346 17.3033 5.35713 17.3423C5.39079 17.3812 5.41261 17.429 5.41999 17.48C5.42494 17.5335 5.41317 17.5873 5.3863 17.6338C5.35944 17.6804 5.31881 17.7175 5.26999 17.74C3.9154 18.2947 2.46371 18.5735 0.999995 18.56C0.867387 18.5335 0.729674 18.5607 0.617152 18.6357C0.50463 18.7108 0.426517 18.8274 0.399995 18.96C0.373473 19.0926 0.400716 19.2303 0.475731 19.3428C0.550745 19.4554 0.667387 19.5335 0.799995 19.56C3.34613 20.7723 6.12064 21.4301 8.93999 21.49C11.4193 21.5266 13.8543 20.8309 15.94 19.49C17.6565 18.3463 19.0627 16.7951 20.033 14.9749C21.0033 13.1548 21.5073 11.1226 21.5 9.06V8.19C21.4999 8.11727 21.516 8.04544 21.5472 7.97971C21.5783 7.91399 21.6237 7.85601 21.68 7.81L23.32 6.44Z" fill="#0B0B14" class="fill"/>
</svg>
