<svg viewBox="0 0 24 24" fill="none" xmlns="http://www.w3.org/2000/svg">
<path d="M21.5333 18.0989V19.5656C21.5333 20.3435 21.2243 21.0897 20.6742 21.6398C20.1241 22.1899 19.3779 22.4989 18.6 22.4989H3.93333C3.15536 22.4989 2.40926 22.1899 1.85915 21.6398C1.30905 21.0897 1 20.3435 1 19.5656V9.29893C1 8.52097 1.30905 7.77486 1.85915 7.22475C2.40926 6.67465 3.15536 6.3656 3.93333 6.3656H18.6C19.3779 6.3656 20.1241 6.67465 20.6742 7.22475C21.2243 7.77486 21.5333 8.52097 21.5333 9.29893V10.7656" stroke="black" stroke-width="1.75" stroke-linecap="round" stroke-linejoin="round"/>
<path d="M18.6 6.36559L16.3228 1.81111C16.2366 1.63875 16.1174 1.48506 15.9718 1.3588C15.8264 1.23254 15.6574 1.13619 15.4745 1.07527C15.2918 1.01433 15.0988 0.990017 14.9066 1.00371C14.7144 1.01739 14.5268 1.06881 14.3545 1.15502L3.93335 6.36559" stroke="black" stroke-width="1.75" stroke-linecap="round" stroke-linejoin="round"/>
<path d="M21.5333 18.0989C21.9223 18.0989 22.2954 17.9444 22.5705 17.6694C22.8455 17.3943 23 17.0212 23 16.6323V12.2323C23 11.8433 22.8455 11.4702 22.5705 11.1951C22.2954 10.9201 21.9223 10.7656 21.5333 10.7656H17.8667C16.8942 10.7656 15.9616 11.1519 15.2739 11.8395C14.5863 12.5272 14.2 13.4598 14.2 14.4323C14.2 15.4048 14.5863 16.3374 15.2739 17.025C15.9616 17.7126 16.8942 18.0989 17.8667 18.0989H21.5333Z" stroke="black" stroke-width="1.75" stroke-linecap="round" stroke-linejoin="round"/>
<path d="M17.8667 14.7989C17.6642 14.7989 17.5 14.6348 17.5 14.4323C17.5 14.2298 17.6642 14.0656 17.8667 14.0656" stroke="black" stroke-width="1.75"/>
<path d="M17.8666 14.7989C18.0691 14.7989 18.2333 14.6348 18.2333 14.4323C18.2333 14.2298 18.0691 14.0656 17.8666 14.0656" stroke="black" stroke-width="1.75"/>
</svg>
