<svg width="200" height="200" viewBox="0 0 200 200" fill="none" xmlns="http://www.w3.org/2000/svg">
<g clip-path="url(#clip0_932_55)">
<path d="M18.08 60.8V139.2C18.08 144.24 20.72 148.8 25.12 151.36L93.04 190.56C97.36 193.04 102.72 193.04 107.04 190.56L174.96 151.36C179.28 148.88 182 144.24 182 139.2V60.8C182 55.76 179.36 51.2 174.96 48.64L107.04 9.44C102.72 6.96 97.36 6.96 93.04 9.44L25.12 48.64C20.8 51.12 18.16 55.76 18.16 60.8H18.08Z" fill="#213147"/>
<path d="M114.8 115.2L105.12 141.76C104.88 142.48 104.88 143.28 105.12 144.08L121.76 189.76L141.04 178.64L117.92 115.2C117.36 113.76 115.36 113.76 114.8 115.2Z" fill="#12AAFF"/>
<path d="M134.24 70.56C133.68 69.12 131.68 69.12 131.12 70.56L121.44 97.12C121.2 97.84 121.2 98.64 121.44 99.44L148.72 174.24L168 163.12L134.24 70.64V70.56Z" fill="#12AAFF"/>
<path d="M100 12.4C100.48 12.4 100.96 12.56 101.36 12.8L174.8 55.2C175.68 55.68 176.16 56.64 176.16 57.6V142.4C176.16 143.36 175.6 144.32 174.8 144.8L101.36 187.2C100.96 187.44 100.48 187.6 100 187.6C99.52 187.6 99.04 187.44 98.64 187.2L25.2 144.8C24.32 144.32 23.84 143.36 23.84 142.4V57.52C23.84 56.56 24.4 55.6 25.2 55.12L98.64 12.72C99.04 12.48 99.52 12.32 100 12.32V12.4ZM100 0C97.36 0 94.8 0.64 92.4 2L18.96 44.4C14.24 47.12 11.36 52.08 11.36 57.52V142.32C11.36 147.76 14.24 152.72 18.96 155.44L92.4 197.84C94.72 199.2 97.36 199.84 100 199.84C102.64 199.84 105.2 199.2 107.6 197.84L181.04 155.44C185.76 152.72 188.64 147.76 188.64 142.32V57.52C188.64 52.08 185.76 47.12 181.04 44.4L107.52 2C105.2 0.64 102.56 0 99.92 0H100Z" fill="#9DCCED"/>
<path d="M51.36 174.32L58.16 155.76L71.76 167.04L59.04 178.72L51.36 174.32Z" fill="#213147"/>
<path d="M93.76 51.52H75.12C73.76 51.52 72.48 52.4 72 53.68L32.08 163.12L51.36 174.24L95.36 53.68C95.76 52.56 94.96 51.44 93.84 51.44L93.76 51.52Z" fill="white"/>
<path d="M126.4 51.52H107.76C106.4 51.52 105.12 52.4 104.64 53.68L59.0399 178.64L78.3199 189.76L127.92 53.68C128.32 52.56 127.52 51.44 126.4 51.44V51.52Z" fill="white"/>
</g>
<defs>
<clipPath id="clip0_932_55">
<rect width="200" height="200" fill="white"/>
</clipPath>
</defs>
</svg>
