<svg viewBox="0 0 200 200" fill="none" xmlns="http://www.w3.org/2000/svg">
<path d="M17.7222 60.8056V139.242C17.7222 144.218 20.3731 148.862 24.7283 151.327L92.5176 190.521C96.8254 193.033 102.175 193.033 106.483 190.521L174.319 151.327C178.627 148.815 181.325 144.218 181.325 139.242V60.8056C181.325 55.8293 178.674 51.1848 174.319 48.6729L106.483 9.47861C102.175 6.96676 96.8254 6.96676 92.5176 9.47861L24.681 48.6729C20.4205 51.1848 17.7222 55.7819 17.7222 60.8056Z" fill="#213147"/>
<path d="M114.341 115.213L104.636 141.754C104.352 142.465 104.352 143.318 104.636 144.029L121.252 189.716L140.519 178.578L117.418 115.166C116.897 113.744 114.862 113.744 114.341 115.213Z" fill="#12AAFF"/>
<path d="M133.703 70.5213C133.182 69.0521 131.146 69.0521 130.578 70.5213L120.874 97.0616C120.59 97.8199 120.59 98.6256 120.874 99.3365L148.141 174.171L167.408 163.033L133.703 70.5213Z" fill="#12AAFF"/>
<path d="M99.5237 12.3697C99.9971 12.3697 100.47 12.5118 100.897 12.7488L174.272 55.1659C175.124 55.6398 175.645 56.5403 175.645 57.5355V142.37C175.645 143.365 175.124 144.265 174.272 144.739L100.897 187.204C100.47 187.441 99.9971 187.583 99.5237 187.583C99.0503 187.583 98.5769 187.441 98.1509 187.204L24.7756 144.787C23.9235 144.313 23.4028 143.412 23.4028 142.417V57.5355C23.4028 56.5403 23.9235 55.6398 24.7756 55.1659L98.1509 12.7488C98.5769 12.5118 99.0503 12.3697 99.5237 12.3697ZM99.5237 0C96.92 0 94.2691 0.710901 91.9495 2.03791L18.5742 44.455C13.935 47.1564 11 52.1327 11 57.5355V142.37C11 147.773 13.8877 152.796 18.5742 155.498L91.9495 197.915C94.2691 199.289 96.8727 199.953 99.5237 199.953C102.175 199.953 104.778 199.242 107.098 197.915L180.473 155.498C185.16 152.796 188.047 147.82 188.047 142.37V57.5355C188.047 52.1327 185.16 47.109 180.473 44.4076L107.098 2.03791C104.731 0.710901 102.127 0 99.5237 0Z" fill="#9DCCED"/>
<path d="M51.0015 174.265L57.7709 155.782L71.3098 167.062L58.6704 178.673L51.0015 174.265Z" fill="#213147"/>
<path d="M93.3222 51.5166H74.7181C73.3452 51.5166 72.0671 52.3697 71.5937 53.6967L31.7344 163.175L51.0013 174.313L94.9318 53.7441C95.3105 52.654 94.5057 51.5166 93.3222 51.5166Z" fill="white"/>
<path d="M125.892 51.5166H107.287C105.915 51.5166 104.636 52.3697 104.163 53.6967L58.6704 178.673L77.9373 189.81L127.454 53.7441C127.88 52.654 127.028 51.5166 125.892 51.5166Z" fill="white"/>
</svg>
