<svg viewBox="0 0 200 200" fill="none" xmlns="http://www.w3.org/2000/svg">
<g clip-path="url(#clip0_507_60)">
<path d="M161.784 34.3978H38.2158V146.707H161.784V34.3978Z" fill="white"/>
<path fill-rule="evenodd" clip-rule="evenodd" d="M200 100C200 155.192 155.229 199.934 100 199.934C44.7715 199.934 0 155.192 0 100C0 44.8082 44.7715 0.0664673 100 0.0664673C155.229 0.0664673 200 44.8082 200 100ZM71.6629 139.768H52.2557C48.1776 139.768 46.1633 139.768 44.935 138.983C43.6084 138.124 42.7977 136.7 42.6995 135.128C42.6257 133.681 43.633 131.912 45.6474 128.377L93.5662 43.97C95.6052 40.3857 96.6369 38.5936 97.9389 37.9308C99.3391 37.2188 101.01 37.2188 102.41 37.9308C103.712 38.5936 104.744 40.3857 106.783 43.97L116.634 61.1549L116.684 61.2425C118.886 65.0878 120.003 67.0378 120.491 69.0843C121.031 71.3184 121.031 73.6752 120.491 75.9092C119.999 77.9714 118.894 79.9354 116.658 83.8388L91.4878 128.304L91.4226 128.418C89.2059 132.294 88.0824 134.259 86.5254 135.742C84.8304 137.363 82.7914 138.54 80.5558 139.204C78.5168 139.768 76.2322 139.768 71.6629 139.768ZM120.672 139.768H148.481C152.583 139.768 154.647 139.768 155.876 138.959C157.202 138.1 158.037 136.651 158.112 135.081C158.182 133.679 157.197 131.98 155.266 128.65C155.2 128.537 155.133 128.422 155.065 128.304L141.136 104.491L140.977 104.223C139.02 100.915 138.032 99.2447 136.763 98.5991C135.364 97.887 133.716 97.887 132.317 98.5991C131.039 99.2619 130.008 101.005 127.969 104.515L114.089 128.329L114.041 128.411C112.009 131.916 110.994 133.667 111.067 135.104C111.165 136.676 111.976 138.124 113.303 138.983C114.506 139.768 116.57 139.768 120.672 139.768Z" fill="#E84142"/>
</g>
<defs>
<clipPath id="clip0_507_60">
<rect width="200" height="200" fill="white"/>
</clipPath>
</defs>
</svg>
