<svg  viewBox="0 0 200 200" fill="none" xmlns="http://www.w3.org/2000/svg">
<path d="M20.0012 32.6399C20.0012 28.3099 20.0013 26.1462 20.8175 24.48C21.5987 22.885 22.8875 21.5962 24.4825 20.815C26.1475 20 28.3112 20 32.6412 20H167.36C171.689 20 173.855 20 175.52 20.8162C177.114 21.5975 178.403 22.8862 179.185 24.4812C180 26.1462 180 28.3112 180 32.6412V167.36C180 171.689 180 173.855 179.185 175.52C178.403 177.114 177.114 178.403 175.52 179.185C173.855 180 171.689 180 167.36 180H32.6412C28.3112 180 26.1475 180 24.4812 179.185C22.8862 178.403 21.5975 177.114 20.8162 175.52C20 173.855 20 171.689 20 167.36V32.6399H20.0012Z" fill="#0000FF"/>
</svg>
