<svg viewBox="0 0 500 500" fill="none" xmlns="http://www.w3.org/2000/svg">
<g clip-path="url(#clip0_2903_30)">
<path d="M389.572 40H110.428C71.5318 40 40 71.5318 40 110.428V389.572C40 428.468 71.5318 460 110.428 460H389.572C428.468 460 460 428.468 460 389.572V110.428C460 71.5318 428.468 40 389.572 40Z" fill="black"/>
<path d="M389.572 40H110.428C71.5318 40 40 71.5318 40 110.428V389.572C40 428.468 71.5318 460 110.428 460H389.572C428.468 460 460 428.468 460 389.572V110.428C460 71.5318 428.468 40 389.572 40Z" fill="#814625"/>
<path d="M314.639 294.082V277.399C324.304 273.877 331.342 262.94 331.342 249.996C331.342 237.051 324.304 226.084 314.639 222.592V205.909C323.741 202.604 330.529 192.687 331.279 180.7H320.207V185.797C320.207 189.721 317.955 193.181 314.639 194.911V192.532C314.639 189.041 311.762 186.199 308.227 186.199H307.664C304.13 186.199 301.252 189.041 301.252 192.532V194.911C297.937 193.181 295.684 189.752 295.684 185.797V180.7H284.612C285.362 192.687 292.15 202.604 301.252 205.909V222.592C291.618 226.084 284.549 237.02 284.549 249.996C284.549 262.971 291.587 273.907 301.252 277.399V294.082C292.15 297.387 285.362 307.304 284.612 319.291H295.684V314.194C295.684 310.27 297.937 306.81 301.252 305.08V307.459C301.252 310.95 304.13 313.792 307.664 313.792H308.227C311.762 313.792 314.639 310.95 314.639 307.459V305.08C317.955 306.81 320.207 310.239 320.207 314.194V319.291H331.279C330.529 307.304 323.741 297.387 314.639 294.082ZM295.684 257.286V242.674C295.684 238.75 297.937 235.29 301.252 233.56V235.939C301.252 239.43 304.13 242.272 307.664 242.272H308.227C311.762 242.272 314.639 239.43 314.639 235.939V233.56C317.955 235.29 320.207 238.719 320.207 242.674V257.286C320.207 261.21 317.955 264.67 314.639 266.4V264.022C314.639 260.53 311.762 257.688 308.227 257.688H307.664C304.13 257.688 301.252 260.53 301.252 264.022V266.4C297.968 264.67 295.684 261.241 295.684 257.286Z" fill="white"/>
<path d="M382.576 258.862V241.098C392.241 237.576 399.279 226.64 399.279 213.695C399.279 200.75 392.241 189.782 382.576 186.292V180.7H369.22V186.292C359.555 189.813 352.517 200.75 352.517 213.695C352.517 226.64 359.555 237.607 369.22 241.098V258.862C359.555 262.384 352.517 273.32 352.517 286.265C352.517 299.21 359.555 310.177 369.22 313.668V319.26H382.576V313.668C392.241 310.147 399.279 299.21 399.279 286.265C399.279 273.32 392.241 262.384 382.576 258.862ZM363.621 220.986V206.373C363.621 202.449 365.873 198.989 369.189 197.259V199.638C369.189 203.129 372.067 205.971 375.601 205.971H376.133C379.667 205.971 382.545 203.129 382.545 199.638V197.259C385.86 198.989 388.112 202.418 388.112 206.373V220.986C388.112 224.909 385.86 228.369 382.545 230.099V227.721C382.545 224.23 379.667 221.387 376.133 221.387H375.57C372.035 221.387 369.158 224.23 369.158 227.721V230.099C365.905 228.369 363.621 224.94 363.621 220.986ZM388.144 293.587C388.144 297.511 385.892 300.971 382.576 302.701V299.21C382.576 295.719 379.699 292.877 376.164 292.877H375.632C372.098 292.877 369.22 295.719 369.22 299.21V302.701C365.905 300.971 363.653 297.541 363.653 293.587V278.974C363.653 275.05 365.905 271.591 369.22 269.86V271.127C369.22 274.618 372.098 277.461 375.632 277.461H376.195C379.73 277.461 382.607 274.618 382.607 271.127V269.86C385.923 271.591 388.175 275.02 388.175 278.974V293.587H388.144Z" fill="white"/>
<path d="M237.431 235.85C237.306 235.14 237.15 234.46 236.899 233.811C236.993 233.657 257.762 205.079 238.526 187.408C219.321 169.736 196.894 192.784 196.769 192.907C193.203 191.795 189.606 191.115 186.04 190.806C186.04 190.806 186.04 190.806 186.009 190.806C178.69 189.601 168.431 190.806 168.431 190.806C164.896 191.115 161.331 191.795 157.796 192.876C157.671 192.753 135.244 169.706 116.039 187.377C96.8344 205.048 117.572 233.657 117.666 233.78C117.447 234.46 117.259 235.14 117.134 235.819C115.07 248.053 100.901 251.822 100.901 273.139C100.901 294.858 115.696 311.974 145.91 311.974H158.297C158.359 312.035 163.145 318.77 173.029 319.172C173.029 319.172 175.312 319.419 180.567 319.234C191.045 319.234 196.143 312.097 196.175 312.005H208.561C238.776 312.005 253.571 294.889 253.571 273.17C253.664 251.884 239.495 248.084 237.431 235.85Z" fill="white"/>
</g>
<defs>
<clipPath id="clip0_2903_30">
<rect width="420" height="420" fill="white" transform="translate(40 40)"/>
</clipPath>
</defs>
</svg>
