<svg viewBox="0 0 200 200" fill="none" xmlns="http://www.w3.org/2000/svg">
<g clip-path="url(#clip0_4915_66)">
<path d="M100 200C155.228 200 200 155.228 200 100C200 44.7715 155.228 0 100 0C44.7715 0 0 44.7715 0 100C0 155.228 44.7715 200 100 200Z" fill="#814625"/>
<path d="M96.2709 94.9363C96.1609 94.6041 96.0841 94.2635 96.0247 93.9195C95.9975 93.7601 95.9656 93.6013 95.9297 93.4438C95.8512 93.1016 95.7641 92.7613 95.67 92.4229C97.2294 90.1491 104.684 78.2891 96.2009 70.6773C86.7859 62.2291 75.7853 73.3023 75.7853 73.3023L75.8194 73.3513C70.875 71.9041 65.5137 71.7345 60.2978 73.3016C60.2334 73.237 49.2687 62.2538 39.8816 70.6773C30.4911 79.1032 40.6312 92.7351 40.6841 92.8063C40.5762 93.1266 40.4891 93.4545 40.4316 93.7866C39.4156 99.6201 32.5 101.42 32.5 111.582C32.5 121.743 39.7347 130.1 54.5016 130.1H60.5609C60.5881 130.138 63.0837 133.544 68.2066 133.54C72.9622 133.536 76.1028 130.129 76.13 130.1H81.9119C96.6787 130.1 103.913 121.939 103.913 111.582C103.913 102.119 97.9156 99.907 96.2709 94.9363Z" fill="white"/>
<path d="M166.839 83.3264C166.839 83.3264 167.937 73.5329 159.589 71.4285V67.5007H153.124V71.3304C144.318 73.2067 145.453 83.3264 145.453 83.3264V85.0054C145.453 85.0054 144.318 95.1273 153.127 97.0017L153.127 105.409C143.845 107.038 145.017 117.489 145.017 117.489V119.169C145.017 119.169 143.882 129.288 152.688 131.164V134.994H159.153V131.066C167.502 128.962 166.403 119.169 166.403 119.169C166.768 119.169 167.064 118.884 167.064 118.532V118.126C167.064 117.774 166.768 117.489 166.403 117.489C166.403 117.489 167.492 107.781 159.262 105.62V97.0017H159.164C167.974 95.1273 166.839 85.0054 166.839 85.0054C167.203 85.0054 167.499 84.7204 167.499 84.3689V83.9626C167.499 83.6114 167.204 83.3264 166.839 83.3264ZM161.571 117.489H160.979C160.614 117.489 160.318 117.774 160.318 118.126V118.532C160.318 118.884 160.614 119.169 160.979 119.169H161.571C161.571 125.244 159.476 126.266 158.771 126.438C158.655 126.466 158.543 126.383 158.543 126.268V124.332C158.543 123.261 157.835 122.675 157.127 122.356C156.231 121.953 155.189 121.953 154.294 122.356C153.586 122.675 152.877 123.261 152.877 124.332V126.268C152.877 126.382 152.767 126.466 152.653 126.439C151.952 126.269 149.85 125.255 149.85 119.169V117.489C149.85 111.414 151.944 110.392 152.649 110.22C152.765 110.192 152.877 110.275 152.877 110.39V112.326C152.877 113.397 153.586 113.983 154.294 114.302C155.189 114.705 156.231 114.705 157.127 114.302C157.835 113.983 158.543 113.397 158.543 112.326V110.39C158.543 110.277 158.653 110.192 158.767 110.219C159.468 110.389 161.571 111.403 161.571 117.489ZM161.415 85.0054H162.006C162.006 91.092 159.904 92.1067 159.203 92.2754C159.089 92.3032 158.979 92.2182 158.979 92.1051V90.1685C158.979 89.0982 158.271 88.5117 157.562 88.1926C156.667 87.7898 155.625 87.7898 154.729 88.1926C154.021 88.5117 153.313 89.0982 153.313 90.1685V92.1051C153.313 92.2201 153.201 92.3026 153.085 92.2745C152.38 92.1026 150.286 91.0804 150.286 85.0054V83.3264C150.286 77.2395 152.388 76.2248 153.089 76.056C153.203 76.0285 153.313 76.1139 153.313 76.2267V78.1629C153.313 79.2335 154.021 79.8198 154.729 80.1389C155.625 80.542 156.667 80.542 157.562 80.1389C158.271 79.8198 158.979 79.2335 158.979 78.1629V76.2267C158.979 76.1117 159.091 76.0289 159.207 76.057C159.912 76.2292 162.006 77.2514 162.006 83.3264H161.415C161.05 83.3264 160.754 83.6114 160.754 83.9626V84.3689C160.754 84.7204 161.05 85.0054 161.415 85.0054Z" fill="white"/>
<path d="M134.488 100.621C134.488 100.621 135.629 90.4426 126.74 88.6095V79.4651C135.393 77.512 134.27 67.5007 134.27 67.5007C134.27 67.5007 129.417 67.5007 129.437 67.5007C129.437 73.5876 127.335 74.602 126.634 74.7707C126.52 74.7985 126.41 74.7132 126.41 74.6004V72.6639C126.41 71.5935 125.701 71.0073 124.993 70.6882C124.098 70.2851 123.055 70.2851 122.16 70.6882C121.452 71.0073 120.744 71.5935 120.744 72.6639V74.6004C120.744 74.7154 120.631 74.7982 120.515 74.7701C119.811 74.5979 117.716 73.5757 117.716 67.5007C117.737 67.5007 112.884 67.5007 112.884 67.5007C112.884 67.5007 111.719 77.8895 120.909 79.566V88.597C111.955 90.397 113.101 100.62 113.101 100.62V102.299C113.101 102.299 111.955 112.523 120.909 114.323V122.934C111.719 124.611 112.884 134.999 112.884 134.999C112.884 134.999 117.736 134.999 117.716 134.999C117.716 128.913 119.819 127.898 120.52 127.729C120.634 127.702 120.744 127.787 120.744 127.9V129.836C120.744 130.907 121.452 131.493 122.16 131.812C123.055 132.215 124.098 132.215 124.993 131.812C125.701 131.493 126.41 130.907 126.41 129.836V127.9C126.41 127.785 126.522 127.702 126.638 127.73C127.343 127.902 129.437 128.924 129.437 134.999C129.417 134.999 134.27 134.999 134.27 134.999C134.27 134.999 135.393 124.988 126.74 123.035V114.311C135.629 112.477 134.488 102.299 134.488 102.299C134.853 102.299 135.149 102.014 135.149 101.663V101.256C135.149 100.905 134.853 100.621 134.488 100.621ZM129.064 102.3H129.655C129.655 108.387 127.553 109.401 126.852 109.57C126.738 109.598 126.627 109.513 126.627 109.4V107.463C126.627 106.393 125.919 105.806 125.211 105.487C124.316 105.084 123.273 105.084 122.378 105.487C121.67 105.806 120.962 106.393 120.962 107.463V109.4C120.962 109.515 120.849 109.597 120.733 109.569C120.029 109.397 117.934 108.375 117.934 102.3V100.621C117.934 94.5342 120.036 93.5195 120.737 93.3507C120.851 93.3232 120.962 93.4082 120.962 93.5214V95.4576C120.962 96.5282 121.67 97.1145 122.378 97.4335C123.273 97.8367 124.316 97.8367 125.211 97.4335C125.919 97.1145 126.627 96.5282 126.627 95.4576V93.5214C126.627 93.4064 126.74 93.3235 126.856 93.3517C127.56 93.5239 129.655 94.546 129.655 100.621H129.064C128.699 100.621 128.403 100.906 128.403 101.257V101.664C128.403 102.015 128.699 102.3 129.064 102.3Z" fill="white"/>
</g>
<defs>
<clipPath id="clip0_4915_66">
<rect width="200" height="200" fill="white"/>
</clipPath>
</defs>
</svg>
