<svg viewBox="0 0 200 200" fill="none" xmlns="http://www.w3.org/2000/svg">
<g clip-path="url(#clip0_507_61)">
<path fill-rule="evenodd" clip-rule="evenodd" d="M100.386 0.197998L47.2677 30.8321L66.7966 42.1494L100.386 22.8322L133.975 42.1494L153.504 30.8321L100.386 0.197998ZM133.975 58.1494L153.504 69.4664V92.1006L119.914 111.418V150.052L100.386 161.369L80.8572 150.052V111.418L47.2677 92.1006V69.4664L66.7966 58.1494L100.386 77.4661L133.975 58.1494ZM153.504 108.101V130.735L133.975 142.052V119.417L153.504 108.101ZM133.78 158.052L167.37 138.735V100.1L186.898 88.7837V150.052L133.78 180.686V158.052ZM167.37 61.4664L147.841 50.1494L167.37 38.8322L186.898 50.1494V72.7836L167.37 84.1008V61.4664ZM80.8572 188.881V166.247L100.386 177.564L119.914 166.247V188.881L100.386 200.198L80.8572 188.881ZM66.7966 142.052L47.2677 130.735V108.101L66.7966 119.417V142.052ZM100.386 61.4664L80.8572 50.1494L100.386 38.8322L119.914 50.1494L100.386 61.4664ZM52.931 50.1494L33.4022 61.4664V84.1008L13.8735 72.7836V50.1494L33.4022 38.8322L52.931 50.1494ZM13.8735 88.7837L33.4022 100.1V138.735L66.9916 158.052V180.686L13.8735 150.052V88.7837Z" fill="#F0B90B"/>
</g>
<defs>
<clipPath id="clip0_507_61">
<rect width="200" height="200" fill="white"/>
</clipPath>
</defs>
</svg>
