<svg viewBox="0 0 200 200" fill="none" xmlns="http://www.w3.org/2000/svg">
<path d="M47.6697 30.6342L100.298 0L152.926 30.6342L133.577 41.9512L100.298 22.6342L67.0183 41.9512L47.6697 30.6342ZM152.926 69.2683L133.577 57.9512L100.298 77.2683L67.0183 57.9512L47.6697 69.2683V91.9025L80.9491 111.22V149.854L100.298 161.171L119.646 149.854V111.22L152.926 91.9025V69.2683ZM152.926 130.537V107.902L133.577 119.22V141.854L152.926 130.537ZM166.664 138.537L133.384 157.854V180.488L186.012 149.854V88.5854L166.664 99.9025V138.537ZM147.315 49.9512L166.664 61.2683V83.9025L186.012 72.5854V49.9512L166.664 38.6342L147.315 49.9512ZM80.9491 166.049V188.683L100.298 200L119.646 188.683V166.049L100.298 177.366L80.9491 166.049ZM47.6697 130.537L67.0183 141.854V119.22L47.6697 107.902V130.537ZM80.9491 49.9512L100.298 61.2683L119.646 49.9512L100.298 38.6342L80.9491 49.9512ZM33.932 61.2683L53.2806 49.9512L33.932 38.6342L14.5835 49.9512V72.5854L33.932 83.9025V61.2683ZM33.932 99.9025L14.5835 88.5854V149.854L67.2116 180.488V157.854L33.932 138.537V99.9025Z" fill="#F0B90B"/>
</svg>
