<svg viewBox="0 0 200 200" fill="none" xmlns="http://www.w3.org/2000/svg">
<g clip-path="url(#clip0_4923_26)">
<path d="M197.083 117.648L124.642 8.29778C124.284 7.76838 123.457 7.98637 123.426 8.62476C123.254 11.3963 120.914 26.1725 104.224 26.1725C90.6838 26.1725 84.4287 23.7436 70.4833 23.7436C65.6633 23.7436 59.9228 26.4683 56.9123 31.0305L51.2188 39.6253L105.721 121.868H127.045C133.331 121.868 139.196 125.013 142.659 130.245L155.668 149.91H200V127.302C200 123.876 198.986 120.513 197.083 117.648ZM137.636 70.8126C128.885 67.2782 122.069 51.7702 122.069 51.7702C139.758 51.7702 151.675 72.8058 151.675 72.8058C151.675 72.8058 146.403 74.3473 137.652 70.8126H137.636Z" fill="url(#paint0_linear_4923_26)"/>
<path d="M131.521 191.949H51.4683C45.7124 191.949 40.3619 189.085 37.1798 184.29L3.11196 132.861C-1.03732 126.601 -1.03732 118.489 3.11196 112.23L41.0172 55.071H41.0326L131.521 191.965V191.949Z" fill="url(#paint1_linear_4923_26)"/>
</g>
<defs>
<linearGradient id="paint0_linear_4923_26" x1="125.609" y1="149.91" x2="125.609" y2="8.00196" gradientUnits="userSpaceOnUse">
<stop stop-color="#FCB124"/>
<stop offset="1" stop-color="#F63E58"/>
</linearGradient>
<linearGradient id="paint1_linear_4923_26" x1="65.7725" y1="191.965" x2="65.7725" y2="55.04" gradientUnits="userSpaceOnUse">
<stop stop-color="#FCB124"/>
<stop offset="1" stop-color="#F63E58"/>
</linearGradient>
</defs>
</svg>
