<svg width="501" height="501" viewBox="0 0 501 501" fill="none" xmlns="http://www.w3.org/2000/svg">
<circle cx="250" cy="250.164" r="250" fill="white"/>
<path d="M147.244 284.538C162.174 284.538 175.956 279.563 187.059 270.952L95.9432 179.869C87.3292 190.776 82.352 204.553 82.352 219.67C82.1608 255.452 111.257 284.538 147.244 284.538Z" fill="#04795B"/>
<path d="M418.295 219.478C418.295 204.553 413.318 190.776 404.703 179.677L313.587 270.76C324.499 279.371 338.281 284.345 353.402 284.345C389.199 284.537 418.295 255.452 418.295 219.478Z" fill="#04795B"/>
<path d="M464.236 120.551L423.845 160.927C437.244 176.999 445.286 197.283 445.286 219.863C445.286 270.57 404.13 311.71 353.402 311.71C331.007 311.71 310.525 303.674 294.446 290.279L250.227 334.481L206.009 290.279C189.93 303.674 169.639 311.71 147.051 311.71C96.3243 311.71 55.1689 270.57 55.1689 219.863C55.1689 197.474 63.209 176.999 76.6087 160.927L55.9352 140.261L36.2184 120.551C13.2482 158.439 0.0397949 202.641 0.0397949 250.096C0.0397949 388.249 112.021 500 250.036 500C388.049 500 500.032 388.059 500.032 250.096C500.415 202.45 487.206 158.248 464.236 120.551Z" fill="#04795B"/>
<path d="M431.121 77.4965C385.754 29.8505 321.436 0 250.228 0C179.019 0 114.893 29.8505 69.3347 77.4965C63.2095 84.0031 57.276 90.8921 51.7241 97.9714L250.036 296.21L448.348 97.7801C443.371 90.891 437.438 83.8117 431.121 77.4965ZM250.228 32.5295C308.802 32.5295 363.167 55.109 403.937 96.2496L250.228 249.904L96.5164 96.2496C137.481 55.109 191.653 32.5295 250.228 32.5295Z" fill="#04795B"/>
</svg>
