<svg viewBox="0 0 200 200" fill="none" xmlns="http://www.w3.org/2000/svg">
<path d="M59.382 113.071C65.2814 113.071 70.7273 111.107 75.1145 107.707L39.111 71.7456C35.7073 76.0521 33.7406 81.4915 33.7406 87.4599C33.665 101.587 45.162 113.071 59.382 113.071Z" fill="#04795B"/>
<path d="M166.485 87.3843C166.485 81.4918 164.518 76.0524 161.114 71.6704L125.11 107.631C129.422 111.031 134.868 112.995 140.843 112.995C154.987 113.071 166.485 101.588 166.485 87.3843Z" fill="#04795B"/>
<path d="M184.637 48.3262L168.678 64.267C173.972 70.6128 177.15 78.6209 177.15 87.536C177.15 107.556 160.887 123.799 140.843 123.799C131.994 123.799 123.9 120.626 117.547 115.338L100.074 132.789L82.6021 115.338C76.2486 120.626 68.231 123.799 59.3057 123.799C39.2615 123.799 22.9994 107.556 22.9994 87.536C22.9994 78.6965 26.1764 70.6128 31.4711 64.267L23.3022 56.1078L15.5114 48.3262C6.43496 63.2847 1.21582 80.7366 1.21582 99.4725C1.21582 154.018 45.4637 198.139 99.9989 198.139C154.533 198.139 198.782 153.942 198.782 99.4725C198.933 80.6612 193.714 63.2093 184.637 48.3262Z" fill="#04795B"/>
<path d="M171.553 31.3273C153.627 12.5159 128.212 0.730469 100.075 0.730469C71.9377 0.730469 46.5992 12.5159 28.5973 31.3273C26.177 33.8962 23.8324 36.6161 21.6387 39.4112L99.9995 117.679L178.36 39.3356C176.393 36.6157 174.049 33.8207 171.553 31.3273ZM100.075 13.5736C123.22 13.5736 144.702 22.4884 160.811 38.7314L100.075 99.3964L39.3378 38.7314C55.5244 22.4884 76.9301 13.5736 100.075 13.5736Z" fill="#04795B"/>
</svg>
