<?xml version="1.0" encoding="UTF-8"?>
<svg version="1.1" xmlns="http://www.w3.org/2000/svg" width="1943" height="1943">
<path d="M0 0 C5.02947577 0.00166701 10.05894773 -0.00253526 15.08842218 -0.00590918 C23.86344607 -0.01101124 32.63846447 -0.01248954 41.4134897 -0.01145306 C54.46446935 -0.00991538 67.515443 -0.01411788 80.56642147 -0.01932769 C105.24670979 -0.02895568 129.92699667 -0.0318109 154.60728651 -0.03238475 C157.32158454 -0.03244951 160.03588257 -0.03251745 162.7501806 -0.03258816 C163.4239283 -0.03260516 164.097676 -0.03262216 164.7918403 -0.03263968 C179.79002077 -0.03304992 194.78820083 -0.03524558 209.78638109 -0.037744 C215.98209891 -0.03877252 222.17781673 -0.03976262 228.37353456 -0.04076025 C229.05832973 -0.04087084 229.7431249 -0.04098143 230.44867143 -0.04109537 C269.64132731 -0.04741117 308.83398292 -0.0515454 348.02663934 -0.05108681 C349.49034427 -0.05107104 350.9540492 -0.0510553 352.41775413 -0.05103961 C359.02469201 -0.05096623 365.6316299 -0.05087807 372.23856778 -0.05078572 C375.18411903 -0.0507446 378.12967027 -0.05070445 381.07522152 -0.05066441 C382.54951608 -0.05064401 384.02381063 -0.05062299 385.49810519 -0.05060135 C432.06001851 -0.04992195 478.6219242 -0.05722736 525.18383539 -0.07114163 C536.90850069 -0.07464353 548.633166 -0.07811338 560.35783136 -0.08140603 C561.08006514 -0.0816089 561.80229893 -0.08181178 562.54641859 -0.0820208 C584.86320495 -0.08825128 607.17999069 -0.09200435 629.49677789 -0.09326401 C630.55024188 -0.09332394 630.55024188 -0.09332394 631.62498797 -0.09338508 C647.05441247 -0.094239 662.48383693 -0.09449933 677.91326145 -0.0942147 C683.43649517 -0.09411824 688.9597289 -0.09406618 694.48296262 -0.09403597 C695.85665427 -0.09402806 697.23034592 -0.09401785 698.60403757 -0.09400535 C720.34701636 -0.09383019 742.08998855 -0.09947942 763.83296545 -0.10815916 C786.39527523 -0.11712009 808.95757512 -0.11857615 831.51988584 -0.11184704 C843.34716411 -0.1085085 855.17442103 -0.10822204 867.00169694 -0.11720029 C1049.90890717 -0.2492391 1049.90890717 -0.2492391 1152.29955804 21.13466892 C1153.25684808 21.39328708 1154.21413812 21.65190524 1155.20043695 21.91836032 C1194.41364528 32.71371234 1230.6407937 52.11545008 1263.29955804 76.13466892 C1263.97035394 76.62145114 1264.64114984 77.10823337 1265.33227289 77.60976657 C1288.15624099 94.17775107 1310.04223425 113.58875885 1328.29955804 135.13466892 C1329.18766025 136.1487601 1330.07710445 137.16167682 1330.96752679 138.17373142 C1354.07243385 164.55755268 1373.2939357 194.45525856 1388.29955804 226.13466892 C1388.61843988 226.79370212 1388.93732172 227.45273532 1389.26586664 228.13173923 C1417.43971056 286.66279501 1422.32503617 355.17023003 1425.42455804 419.13466892 C1425.48247522 420.31064136 1425.48247522 420.31064136 1425.54156244 421.51037082 C1427.05918667 452.93842509 1427.45174422 484.3758369 1427.43422696 515.83511087 C1427.43255995 520.86458664 1427.43676222 525.8940586 1427.44013613 530.92353305 C1427.4452382 539.69855695 1427.4467165 548.47357534 1427.44568002 557.24860057 C1427.44414234 570.29958022 1427.44834484 583.35055387 1427.45355465 596.40153234 C1427.46318264 621.08182067 1427.46603786 645.76210754 1427.46661171 670.44239738 C1427.46667647 673.15669541 1427.46674441 675.87099344 1427.46681511 678.58529147 C1427.46683212 679.25903917 1427.46684912 679.93278687 1427.46686664 680.62695117 C1427.46727688 695.62513165 1427.46947254 710.6233117 1427.47197096 725.62149196 C1427.47299948 731.81720978 1427.47398958 738.01292761 1427.47498721 744.20864543 C1427.47515309 745.23583818 1427.47515309 745.23583818 1427.47532233 746.2837823 C1427.48163813 785.47643819 1427.48577236 824.6690938 1427.48531377 863.86175021 C1427.485298 865.32545514 1427.48528226 866.78916007 1427.48526656 868.252865 C1427.48519319 874.85980289 1427.48510503 881.46674077 1427.48501268 888.07367866 C1427.48497156 891.0192299 1427.48493141 893.96478115 1427.48489137 896.91033239 C1427.48487097 898.38462695 1427.48484995 899.8589215 1427.48482831 901.33321606 C1427.48414891 947.89512938 1427.49145432 994.45703508 1427.50536859 1041.01894626 C1427.50887049 1052.74361156 1427.51234034 1064.46827687 1427.51563299 1076.19294223 C1427.5159373 1077.27629291 1427.5159373 1077.27629291 1427.51624776 1078.38152946 C1427.52247824 1100.69831583 1427.52623131 1123.01510157 1427.52749097 1145.33188876 C1427.52753092 1146.03419809 1427.52757087 1146.73650741 1427.52761204 1147.46009884 C1427.52846596 1162.88952334 1427.52872629 1178.3189478 1427.52844166 1193.74837232 C1427.5283452 1199.27160604 1427.52829314 1204.79483977 1427.52826293 1210.3180735 C1427.52825502 1211.69176514 1427.52824481 1213.06545679 1427.52823231 1214.43914844 C1427.52805715 1236.18212723 1427.53370638 1257.92509942 1427.54238612 1279.66807633 C1427.55134705 1302.2303861 1427.55280311 1324.79268599 1427.546074 1347.35499671 C1427.54273546 1359.18227498 1427.542449 1371.0095319 1427.55142725 1382.83680782 C1427.68346606 1565.74401804 1427.68346606 1565.74401804 1406.29955804 1668.13466892 C1405.9116308 1669.57060397 1405.9116308 1669.57060397 1405.51586664 1671.03554782 C1394.72051462 1710.24875615 1375.31877688 1746.47590457 1351.29955804 1779.13466892 C1350.81277582 1779.80546481 1350.32599359 1780.47626071 1349.82446039 1781.16738376 C1333.25647589 1803.99135186 1313.84546811 1825.87734512 1292.29955804 1844.13466892 C1291.28546686 1845.02277112 1290.27255014 1845.91221532 1289.26049554 1846.80263767 C1262.87667428 1869.90754473 1232.9789684 1889.12904657 1201.29955804 1904.13466892 C1200.64052484 1904.45355075 1199.98149164 1904.77243259 1199.30248773 1905.10097751 C1140.77143195 1933.27482143 1072.26399693 1938.16014704 1008.29955804 1941.25966892 C1007.1235856 1941.31758609 1007.1235856 1941.31758609 1005.92385614 1941.37667331 C974.49580187 1942.89429754 943.05839006 1943.28685509 911.59911609 1943.26933783 C906.56964032 1943.26767082 901.54016836 1943.2718731 896.51069391 1943.27524701 C887.73567001 1943.28034908 878.96065162 1943.28182737 870.18562639 1943.28079089 C857.13464674 1943.27925321 844.08367309 1943.28345571 831.03269462 1943.28866552 C806.35240629 1943.29829351 781.67211942 1943.30114873 756.99182957 1943.30172258 C754.27753154 1943.30178734 751.56323351 1943.30185528 748.84893548 1943.30192599 C748.17518779 1943.30194299 747.50144009 1943.30196 746.80727579 1943.30197751 C731.80909531 1943.30238775 716.81091525 1943.30458341 701.812735 1943.30708183 C695.61701718 1943.30811036 689.42129935 1943.30910045 683.22558153 1943.31009808 C682.54078636 1943.31020867 681.85599119 1943.31031926 681.15044466 1943.3104332 C641.95778877 1943.316749 602.76513316 1943.32088323 563.57247674 1943.32042465 C562.10877182 1943.32040887 560.64506689 1943.32039313 559.18136196 1943.32037744 C552.57442407 1943.32030407 545.96748619 1943.3202159 539.3605483 1943.32012355 C536.41499706 1943.32008243 533.46944581 1943.32004228 530.52389457 1943.32000224 C529.04960001 1943.31998184 527.57530546 1943.31996082 526.1010109 1943.31993918 C479.53909758 1943.31925978 432.97719188 1943.32656519 386.4152807 1943.34047946 C374.6906154 1943.34398136 362.96595009 1943.34745121 351.24128473 1943.35074386 C350.51905094 1943.35094673 349.79681716 1943.35114961 349.0526975 1943.35135863 C326.73591113 1943.35758911 304.41912539 1943.36134218 282.10233819 1943.36260185 C281.04887421 1943.36266177 281.04887421 1943.36266177 279.97412812 1943.36272291 C264.54470362 1943.36357683 249.11527916 1943.36383716 233.68585464 1943.36355253 C228.16262092 1943.36345608 222.63938719 1943.36340401 217.11615346 1943.3633738 C215.74246182 1943.36336589 214.36877017 1943.36335568 212.99507852 1943.36334318 C191.25209973 1943.36316802 169.50912754 1943.36881725 147.76615063 1943.377497 C125.20384086 1943.38645793 102.64154097 1943.38791398 80.07923025 1943.38118487 C68.25195197 1943.37784633 56.42469506 1943.37755987 44.59741914 1943.38653812 C-138.30979108 1943.51857693 -138.30979108 1943.51857693 -240.70044196 1922.13466892 C-241.657732 1921.87605075 -242.61502203 1921.61743259 -243.60132086 1921.35097751 C-282.81452919 1910.55562549 -319.04167761 1891.15388775 -351.70044196 1867.13466892 C-352.37123785 1866.64788669 -353.04203375 1866.16110446 -353.7331568 1865.65957126 C-376.5571249 1849.09158676 -398.44311816 1829.68057898 -416.70044196 1808.13466892 C-417.58854416 1807.12057773 -418.47798836 1806.10766101 -419.36841071 1805.09560642 C-442.47331777 1778.71178515 -461.69481961 1748.81407927 -476.70044196 1717.13466892 C-477.01932379 1716.47563571 -477.33820563 1715.81660251 -477.66675055 1715.1375986 C-505.84059447 1656.60654282 -510.72592008 1588.0991078 -513.82544196 1524.13466892 C-513.86405341 1523.35068729 -513.90266486 1522.56670566 -513.94244635 1521.75896701 C-515.46007058 1490.33091274 -515.85262813 1458.89350093 -515.83511087 1427.43422696 C-515.83344387 1422.40475119 -515.83764614 1417.37527923 -515.84102005 1412.34580478 C-515.84612212 1403.57078089 -515.84760041 1394.79576249 -515.84656394 1386.02073726 C-515.84502625 1372.96975761 -515.84922875 1359.91878396 -515.85443856 1346.86780549 C-515.86406656 1322.18751716 -515.86692177 1297.50723029 -515.86749562 1272.82694045 C-515.86756038 1270.11264242 -515.86762832 1267.39834439 -515.86769903 1264.68404636 C-515.86771603 1264.01029866 -515.86773304 1263.33655096 -515.86775056 1262.64238666 C-515.8681608 1247.64420618 -515.87035645 1232.64602613 -515.87285487 1217.64784587 C-515.8738834 1211.45212805 -515.87487349 1205.25641022 -515.87587112 1199.0606924 C-515.87598171 1198.37589723 -515.8760923 1197.69110206 -515.87620624 1196.98555553 C-515.88252204 1157.79289964 -515.88665627 1118.60024403 -515.88619769 1079.40758762 C-515.88618191 1077.94388269 -515.88616617 1076.48017776 -515.88615048 1075.01647283 C-515.88607711 1068.40953495 -515.88598894 1061.80259706 -515.88589659 1055.19565918 C-515.88585547 1052.25010793 -515.88581532 1049.30455668 -515.88577528 1046.35900544 C-515.88575488 1044.88471088 -515.88573386 1043.41041633 -515.88571222 1041.93612177 C-515.88503282 995.37420845 -515.89233823 948.81230276 -515.9062525 902.25039157 C-515.9097544 890.52572627 -515.91322425 878.80106096 -515.9165169 867.0763956 C-515.91671977 866.35416181 -515.91692265 865.63192803 -515.91713167 864.88780837 C-515.92336215 842.57102201 -515.92711523 820.25423627 -515.92837489 797.93744907 C-515.92841484 797.23513974 -515.92845479 796.53283042 -515.92849595 795.80923899 C-515.92934987 780.37981449 -515.92961021 764.95039003 -515.92932557 749.52096551 C-515.92922912 743.99773179 -515.92917705 738.47449806 -515.92914684 732.95126433 C-515.92913893 731.57757269 -515.92912872 730.20388104 -515.92911622 728.83018939 C-515.92894106 707.0872106 -515.93459029 685.34423841 -515.94327004 663.60126151 C-515.95223097 641.03895173 -515.95368702 618.47665184 -515.94695791 595.91434112 C-515.94361937 584.08706285 -515.94333291 572.25980593 -515.95231116 560.43253001 C-516.08434997 377.52531979 -516.08434997 377.52531979 -494.70044196 275.13466892 C-494.44182379 274.17737888 -494.18320563 273.22008884 -493.91675055 272.23379001 C-483.12139853 233.02058168 -463.71966079 196.79343326 -439.70044196 164.13466892 C-439.21365973 163.46387302 -438.7268775 162.79307712 -438.2253443 162.10195407 C-421.6573598 139.27798597 -402.24635203 117.39199271 -380.70044196 99.13466892 C-379.68635077 98.24656671 -378.67343405 97.35712251 -377.66137946 96.46670017 C-351.27755819 73.36179311 -321.37985231 54.14029126 -289.70044196 39.13466892 C-289.04140875 38.81578708 -288.38237555 38.49690524 -287.70337164 38.16836032 C-229.17231586 9.9945164 -160.66488085 5.10919079 -96.70044196 2.00966892 C-95.91646033 1.97105747 -95.1324787 1.93244602 -94.32474005 1.89266452 C-62.89668578 0.37504029 -31.45927397 -0.01751726 0 0 Z " fill="#AFE76F" transform="translate(515.7004419565201,-0.13466891553252935)"/>
<path d="M0 0 C2.56178026 -0.11599772 5.1220038 -0.19087296 7.68554688 -0.25585938 C8.900448 -0.31314209 8.900448 -0.31314209 10.13989258 -0.37158203 C11.2936438 -0.38777588 11.2936438 -0.38777588 12.47070312 -0.40429688 C13.15140869 -0.42411621 13.83211426 -0.44393555 14.53344727 -0.46435547 C18.01039552 0.5065414 19.4056711 2.30692559 21.62304688 5.11914062 C22.35775196 8.27965549 22.30676951 11.3699566 22.27001953 14.60351562 C22.28316193 16.0263385 22.28316193 16.0263385 22.29656982 17.47790527 C22.31855012 20.60878438 22.30401545 23.73824752 22.28710938 26.86914062 C22.29047789 29.04720328 22.2953308 31.22526409 22.30160522 33.40332031 C22.30897473 37.96632803 22.2982681 42.5288461 22.27490234 47.09179688 C22.24641506 52.93982925 22.26281854 58.78671431 22.29276466 64.63470459 C22.31083522 69.13176107 22.3050806 73.62854567 22.2921257 78.12561035 C22.28879105 80.28178035 22.29288082 82.43797506 22.30452347 84.59411621 C22.31722771 87.60833074 22.29786009 90.6206893 22.27001953 93.63476562 C22.28014069 94.5253064 22.29026184 95.41584717 22.3006897 96.33337402 C22.22493095 100.76223052 22.05327189 102.56628294 19.24897766 106.16992188 C16.24896493 108.39682027 14.76174474 108.76942437 11.06445312 108.86914062 C9.97181152 108.91707764 8.87916992 108.96501465 7.75341797 109.0144043 C6.57602051 109.04896729 5.39862305 109.08353027 4.18554688 109.11914062 C-63.42728046 112.60174415 -129.61343664 141.01494717 -178.37695312 188.11914062 C-179.13347168 188.84842773 -179.88999023 189.57771484 -180.66943359 190.32910156 C-190.49940265 199.85575894 -200.0876822 209.34265888 -208.14697266 220.43603516 C-209.43789903 222.20253901 -210.76156935 223.94066912 -212.09179688 225.67773438 C-250.33888899 276.04916813 -269.56901069 337.96877178 -269.56225586 400.90356445 C-269.56445597 403.18459398 -269.58276417 405.46514793 -269.6015625 407.74609375 C-269.63421166 416.46564393 -269.10381822 424.89408331 -267.88110352 433.52954102 C-267.36856457 437.17886796 -266.98738405 440.8270134 -266.62695312 444.49414062 C-259.16709515 508.41205247 -222.34248681 577.05928368 -172.37695312 618.11914062 C-171.47332031 618.910625 -170.5696875 619.70210937 -169.63867188 620.51757812 C-110.65444934 672.05572591 -32.86083076 695.82056584 44.82891846 690.98175049 C115.84998841 685.59099214 188.845544 651.95146446 236.37304688 598.05664062 C237.45955329 596.74676614 238.54255744 595.4339828 239.62304688 594.11914062 C240.41453125 593.21550781 241.20601562 592.311875 242.02148438 591.38085938 C253.18637714 578.59969992 263.10060568 564.79471364 271.62304688 550.11914062 C272.1397998 549.24370605 272.1397998 549.24370605 272.66699219 548.35058594 C286.01598528 525.68722817 295.71304039 501.81733827 303.18554688 476.61914062 C303.56308105 475.37487305 303.56308105 475.37487305 303.94824219 474.10546875 C305.38353125 469.04581667 306.91306178 463.34003131 305.62304688 458.11914062 C302.70879798 455.4306797 300.77976174 454.74450831 296.8500452 454.74834633 C295.88723072 454.74197328 294.92441624 454.73560024 293.93242556 454.72903407 C292.87747674 454.73729224 291.82252792 454.74555042 290.73561096 454.75405884 C289.61274419 454.75093984 288.48987742 454.74782084 287.33298439 454.74460733 C283.55657292 454.73764273 279.78053765 454.75201763 276.00415039 454.76611328 C273.30234303 454.76697411 270.60054719 454.76323807 267.89874268 454.75956726 C262.07382245 454.7538188 256.24898539 454.75845538 250.42407417 454.76958084 C241.99676389 454.78522523 233.56956582 454.77967646 225.14225387 454.76796441 C211.46259226 454.74906532 197.78294591 454.73985249 184.10327148 454.74023438 C183.28442598 454.74025182 182.46558048 454.74026926 181.62192147 454.74028723 C172.48553444 454.74073948 163.34915287 454.74406785 154.21276855 454.75115967 C152.98068759 454.75210824 152.98068759 454.75210824 151.72371611 454.75307598 C150.49288483 454.75402483 150.49288483 454.75402483 149.23718828 454.75499284 C147.58252331 454.7562626 145.92785834 454.75752802 144.27319336 454.75878906 C143.45564749 454.75941725 142.63810161 454.76004544 141.79578162 454.76069267 C128.16877457 454.77064291 114.54185848 454.76133058 100.91487068 454.73660505 C92.50779078 454.72215983 84.10103058 454.72426553 75.693969 454.74756704 C69.93451707 454.76230043 64.17525277 454.75917827 58.41580839 454.74193813 C55.09139247 454.73258772 51.76792498 454.73421564 48.44347954 454.75216866 C44.84100835 454.77042274 41.23989828 454.7581781 37.63746643 454.7381897 C36.58474834 454.75090932 35.53203024 454.76362893 34.4474116 454.77673399 C29.68388142 454.71955449 27.38037256 454.68394357 23.4734869 451.77024269 C21.18236436 448.48778036 21.0005877 446.63346808 21.0078125 442.64941406 C20.99385437 440.70757233 20.99385437 440.70757233 20.97961426 438.72650146 C20.99524772 437.31049564 21.01183692 435.8945001 21.02929688 434.47851562 C21.03101366 432.99530129 21.03093655 431.51208392 21.0291748 430.02886963 C21.03083084 426.90144163 21.04952164 423.77472759 21.08105469 420.64746094 C21.11977981 416.74714578 21.12493107 412.84779647 21.11798573 408.94732761 C21.08111545 378.27124372 23.43995242 348.22889649 29.62304688 318.11914062 C29.83268066 317.06275391 30.04231445 316.00636719 30.25830078 314.91796875 C35.25370765 290.04476501 43.17030602 265.25533002 53.62304688 242.11914062 C54.05198242 241.15492188 54.48091797 240.19070313 54.92285156 239.19726562 C71.86962574 201.19610376 93.9020748 166.9765018 121.27978516 135.65771484 C122.43075443 134.33939271 123.57273984 133.01323648 124.71289062 131.68554688 C129.95722776 125.69350226 135.56793183 120.07183581 141.18554688 114.43164062 C141.98935791 113.62315674 142.79316895 112.81467285 143.62133789 111.98168945 C148.46102842 107.15490344 153.4262229 102.55737608 158.62304688 98.11914062 C159.58726562 97.27351562 160.55148437 96.42789063 161.54492188 95.55664062 C182.83299332 77.20891054 206.09649233 61.77139541 230.62304688 48.11914062 C231.35749023 47.70599609 232.09193359 47.29285156 232.84863281 46.8671875 C270.63305898 25.74005156 311.8717854 13.0985009 354.32421875 5.58056641 C356.76905991 5.13899504 356.76905991 5.13899504 359.62304688 4.11914062 C363.35843157 3.51477089 367.11800433 3.08391918 370.87304688 2.61914062 C371.87851563 2.48894531 372.88398437 2.35875 373.91992188 2.22460938 C388.34110369 0.42196165 402.6723977 -0.0908471 417.18554688 -0.06835938 C418.46035919 -0.06645599 418.46035919 -0.06645599 419.76092529 -0.06451416 C473.64817981 0.08752869 527.9880942 8.95091442 577.45068359 31.14550781 C579.05250273 31.8634281 580.65903016 32.57086529 582.26806641 33.27246094 C597.61454205 39.96693637 612.23650023 47.55873275 626.62304688 56.11914062 C627.37553711 56.56644531 628.12802734 57.01375 628.90332031 57.47460938 C658.36370427 75.13182429 684.70175747 97.19087622 708.99804688 121.36914062 C709.65208496 122.01850586 710.30612305 122.66787109 710.97998047 123.33691406 C715.39602427 127.76758425 719.54863741 132.37416423 723.62304688 137.11914062 C724.46867187 138.08335937 725.31429688 139.04757812 726.18554688 140.04101562 C744.53327696 161.32908707 759.97079209 184.59258608 773.62304688 209.11914062 C774.03619141 209.85358398 774.44933594 210.58802734 774.875 211.34472656 C806.18174277 267.33467778 821.89838881 332.82843488 821.81054688 396.80664062 C821.80927795 397.75855286 821.80800903 398.71046509 821.80670166 399.69122314 C821.64696428 462.73468321 808.13113982 525.12989416 778.64306641 581.16455078 C777.54011409 583.27805874 776.46966262 585.40637699 775.40039062 587.53710938 C760.87788542 616.17971786 741.91960385 642.98785681 720.03710938 666.49414062 C718.11828691 668.58062719 716.26089285 670.69440071 714.41210938 672.84179688 C710.25646846 677.6049811 705.84357878 682.09013945 701.37304688 686.55664062 C700.11451904 687.81504761 700.11451904 687.81504761 698.83056641 689.09887695 C693.83610747 694.04751074 688.82459897 698.75705139 683.24023438 703.03710938 C680.87276565 704.92048375 678.64520357 706.88199168 676.40039062 708.90820312 C671.8749236 712.95359741 667.17385526 716.67761986 662.31054688 720.30664062 C661.4480835 720.95028564 660.58562012 721.59393066 659.69702148 722.25708008 C598.54104666 767.41252588 521.98819989 797.01486611 445.62304688 800.11914062 C444.48295166 800.17593994 444.48295166 800.17593994 443.31982422 800.23388672 C440.75434342 800.35128756 438.19031025 800.42740488 435.62304688 800.49414062 C434.80876221 800.53240967 433.99447754 800.57067871 433.15551758 800.61010742 C432.38167725 800.62082275 431.60783691 800.63153809 430.81054688 800.64257812 C430.12347656 800.66239746 429.43640625 800.6822168 428.72851562 800.70263672 C425.23959354 799.73573925 423.84660816 797.94036164 421.62304688 795.11914062 C420.8884327 791.95859762 420.93932413 788.86833461 420.97607422 785.63476562 C420.96731262 784.68621704 420.95855103 783.73766846 420.94952393 782.76037598 C420.92754363 779.62949687 420.9420783 776.50003373 420.95898438 773.36914062 C420.95561586 771.19107797 420.95076295 769.01301716 420.94448853 766.83496094 C420.93711902 762.27195322 420.94782565 757.70943515 420.97119141 753.14648438 C420.99967869 747.298452 420.98327521 741.45156694 420.95332909 735.60357666 C420.93525853 731.10652018 420.94101315 726.60973558 420.95396805 722.1126709 C420.9573027 719.9565009 420.95321293 717.80030619 420.94157028 715.64416504 C420.92886604 712.62995051 420.94823366 709.61759195 420.97607422 706.60351562 C420.96595306 705.71297485 420.95583191 704.82243408 420.94540405 703.90490723 C421.02103644 699.48343773 421.19459333 697.67167223 423.98719788 694.07034302 C427.07126227 691.7873466 428.72870693 691.44253015 432.53320312 691.29882812 C433.67740723 691.24049805 434.82161133 691.18216797 436.00048828 691.12207031 C437.82459229 691.05874512 437.82459229 691.05874512 439.68554688 690.99414062 C442.2366334 690.85645569 444.78742522 690.7132005 447.33789062 690.56445312 C449.21130127 690.45858887 449.21130127 690.45858887 451.12255859 690.35058594 C519.24263863 685.84662193 591.20700264 649.27363815 636.37304688 598.05664062 C637.45955329 596.74676614 638.54255744 595.4339828 639.62304688 594.11914062 C640.41453125 593.21550781 641.20601562 592.311875 642.02148438 591.38085938 C653.18637714 578.59969992 663.10060568 564.79471364 671.62304688 550.11914062 C672.1397998 549.24370605 672.1397998 549.24370605 672.66699219 548.35058594 C699.89629825 502.12181789 712.67347396 451.08424271 712.87304688 397.68164062 C712.87840454 396.87984375 712.88376221 396.07804687 712.88928223 395.25195312 C712.94451981 384.36066475 712.21162259 373.89790437 710.62304688 363.11914062 C710.3962715 361.39798539 710.17077485 359.67666055 709.94726562 357.95507812 C705.87596253 328.73053586 697.69123885 300.61938403 684.62304688 274.11914062 C684.1812207 273.21244629 683.73939453 272.30575195 683.28417969 271.37158203 C673.75050021 251.95591537 662.28173197 233.89917839 648.62304688 217.11914062 C647.9963208 216.34812012 647.9963208 216.34812012 647.35693359 215.56152344 C637.66463449 203.70365243 627.47700969 191.8602958 615.62304688 182.11914062 C614.71941406 181.32765625 613.81578125 180.53617188 612.88476562 179.72070312 C600.11251971 168.56359672 586.31196164 158.6000383 571.62304688 150.11914062 C570.63449707 149.54583008 570.63449707 149.54583008 569.62597656 148.9609375 C536.12195211 129.62756811 499.96875274 116.73088579 461.62304688 111.11914062 C460.84944824 111.00199707 460.07584961 110.88485352 459.27880859 110.76416016 C404.25402685 102.8497173 345.29081931 112.62623409 295.62304688 137.11914062 C294.71635254 137.5609668 293.8096582 138.00279297 292.87548828 138.45800781 C273.44556106 147.99868965 255.44047496 159.49006339 238.62304688 173.11914062 C237.68847656 173.85003906 236.75390625 174.5809375 235.79101562 175.33398438 C219.14900484 188.79154749 203.09633051 204.71604131 190.62304688 222.11914062 C189.72656403 223.30260428 188.82669046 224.48350541 187.92382812 225.66210938 C166.63401138 253.66778058 134.02822681 304.45197593 137.62304688 341.11914062 C138.7715097 343.3586152 138.7715097 343.3586152 140.62304688 345.11914062 C142.80451314 345.71269646 142.80451314 345.71269646 145.28861809 345.61298275 C146.25292492 345.62134685 147.21723175 345.62971094 148.21076 345.63832849 C149.2725126 345.62715748 150.33426521 345.61598646 151.42819214 345.60447693 C152.55428804 345.60845035 153.68038393 345.61242377 154.84060395 345.6165176 C158.63404777 345.62514536 162.42681913 345.60523366 166.22021484 345.58569336 C168.9317295 345.58399482 171.64322537 345.58839982 174.35473633 345.59268188 C180.20371185 345.59895855 186.05253264 345.59116963 191.90148544 345.57443047 C200.36357322 345.55066981 208.82549385 345.55359975 217.28760101 345.56405891 C231.02328871 345.58077345 244.75893538 345.58332295 258.49462891 345.57348633 C259.31703053 345.57290338 260.13943215 345.57232044 260.98675503 345.57171983 C270.16166394 345.56499189 279.33656931 345.55592086 288.51147461 345.54541016 C291.83789054 345.54167027 295.16430655 345.53801067 298.49072266 345.53442383 C299.31151825 345.53353291 300.13231384 345.532642 300.97798203 345.53172409 C314.65919028 345.51743785 328.34031913 345.52254824 342.02151978 345.54234654 C350.46309546 345.55368208 358.90432747 345.54786562 367.3458667 345.5200677 C373.12961332 345.50219245 378.9131848 345.50202671 384.69694196 345.51585632 C388.03553517 345.52321907 391.37317433 345.51956386 394.71178055 345.49957085 C398.32961527 345.47908423 401.94611503 345.48909255 405.56393433 345.50682068 C406.62122549 345.49341894 407.67851665 345.4800172 408.76784694 345.46620935 C413.54931143 345.52031999 415.8584464 345.54702436 419.77582073 348.47821999 C421.99389261 351.64932702 422.24093068 353.33134764 422.22241211 357.17749023 C422.22848984 358.38163071 422.23456757 359.58577118 422.24082947 360.82640076 C422.21153099 362.77921715 422.21153099 362.77921715 422.18164062 364.77148438 C422.17737547 366.14978077 422.17506027 367.52808442 422.17457581 368.90638733 C422.16840336 371.81104744 422.14573483 374.71493883 422.11010742 377.61938477 C422.0658804 381.24401272 422.05032121 384.86793252 422.04609966 388.49280357 C422.00997133 413.05164343 421.5208142 437.85548641 417.43554688 462.11914062 C417.27690155 463.0871611 417.27690155 463.0871611 417.11505127 464.07473755 C410.41227185 504.83821653 397.92325742 544.52325797 378.65185547 581.15136719 C377.5255002 583.30571542 376.42747198 585.47334304 375.33007812 587.64257812 C356.26312264 625.01227476 329.8646885 657.85853702 300.37304688 687.49414062 C299.72368164 688.14817871 299.07431641 688.8022168 298.40527344 689.47607422 C293.97460325 693.89211802 289.36802327 698.04473116 284.62304688 702.11914062 C283.65882813 702.96476562 282.69460938 703.81039062 281.70117188 704.68164062 C238.06027831 742.29478646 186.64846296 768.64140089 131.62304688 785.11914062 C129.9590686 785.62199585 129.9590686 785.62199585 128.26147461 786.13500977 C119.36262347 788.75929693 110.39354736 790.8266272 101.31054688 792.68164062 C100.57547913 792.83288391 99.84041138 792.9841272 99.08306885 793.13995361 C74.34082043 798.19824116 49.60162947 800.33617553 24.37304688 800.24414062 C23.5589032 800.24192505 22.74475952 800.23970947 21.90594482 800.23742676 C-67.6314495 799.95238057 -154.79044625 771.1093153 -265.75195312 678.86914062 C-266.40599121 678.21977539 -267.0600293 677.57041016 -267.73388672 676.90136719 C-272.14993052 672.470697 -276.30254366 667.86411702 -280.37695312 663.11914062 C-281.22257812 662.15492188 -282.06820312 661.19070313 -282.93945312 660.19726562 C-335.10227986 599.67501153 -365.20292723 525.69182374 -376.12695312 447.11914062 C-376.30025146 445.87704834 -376.30025146 445.87704834 -376.47705078 444.60986328 C-378.24412096 431.27505294 -378.54626383 418.04684399 -378.50195312 404.61914062 C-378.49973755 403.72841858 -378.49752197 402.83769653 -378.49523926 401.91998291 C-378.39590846 367.89001681 -375.03449364 334.83348691 -366.75195312 301.74414062 C-366.49584259 300.71848999 -366.49584259 300.71848999 -366.23455811 299.67211914 C-351.6007539 241.52646542 -322.83152361 187.93595366 -284.37695312 142.11914062 C-283.59191406 141.14847656 -282.806875 140.1778125 -281.99804688 139.17773438 C-275.23987885 130.93578766 -267.82713765 123.35423901 -260.31445312 115.80664062 C-259.80784149 115.2948526 -259.30122986 114.78306458 -258.77926636 114.25576782 C-252.77259419 108.20077908 -246.64574711 102.54024439 -239.96777344 97.21533203 C-237.49553162 95.21508059 -235.12848483 93.13987262 -232.77148438 91.00585938 C-228.37989322 87.06443798 -223.79217905 83.45972333 -219.06445312 79.93164062 C-218.20343994 79.2887207 -217.34242676 78.64580078 -216.45532227 77.98339844 C-201.46593297 66.91121079 -185.65735509 57.16491206 -169.37695312 48.11914062 C-168.20205322 47.45881836 -168.20205322 47.45881836 -167.00341797 46.78515625 C-144.7801919 34.3760184 -120.78281014 24.34644191 -96.37695312 17.11914062 C-95.50876953 16.86084473 -94.64058594 16.60254883 -93.74609375 16.33642578 C-63.34645453 7.41574961 -31.65886393 1.58684528 0 0 Z " fill="#000000" transform="translate(749.376953125,571.880859375)"/>
</svg>
