<svg width="500" height="500" viewBox="0 0 500 500" fill="none" xmlns="http://www.w3.org/2000/svg">
<g clip-path="url(#clip0_4910_79)">
<path d="M291.956 4.13041L261.522 183.043H238.261L208.043 4.13041C207.608 1.73911 205.435 0.217371 203.043 0.652153C85.4346 22.8261 0.43457 125.87 0.43457 250C0.43457 374.13 85.4346 477.174 203.043 499.348C205.435 499.783 207.608 498.261 208.043 495.87L238.478 316.957H261.739L292.174 495.87C292.608 498.261 294.782 499.783 297.174 499.348C414.782 477.391 499.782 374.13 499.782 250C499.782 125.87 414.565 22.8261 296.956 0.652153C294.565 0.217371 292.391 1.73911 291.956 4.13041Z" fill="#FF6A00"/>
</g>
<defs>
<clipPath id="clip0_4910_79">
<rect width="500" height="500" fill="white"/>
</clipPath>
</defs>
</svg>
