<svg viewBox="0 0 200 200" fill="none" xmlns="http://www.w3.org/2000/svg">
<path d="M116.783 1.65212L104.609 73.2173H95.3043L83.2173 1.65212C83.0434 0.695595 82.1738 0.0868995 81.2173 0.260813C34.1738 9.13038 0.173828 50.3478 0.173828 99.9999C0.173828 149.652 34.1738 190.87 81.2173 199.739C82.1738 199.913 83.0434 199.304 83.2173 198.348L95.3912 126.783H104.696L116.869 198.348C117.043 199.304 117.913 199.913 118.869 199.739C165.913 190.956 199.913 149.652 199.913 99.9999C199.913 50.3478 165.826 9.13038 118.783 0.260813C117.826 0.0868995 116.956 0.695595 116.783 1.65212Z" fill="#FF6A00"/>
</svg>
