<svg xmlns="http://www.w3.org/2000/svg" fill="none" viewBox="0 0 95 23">
	<g fill="#fff">
		<path d="M15.12 4.171v5.783H7.893V4.171H5V18.63h2.892v-5.783h7.228v5.783h2.892V4.17z"/>
		<path d="M23.903 4.171h-2.891V18.63h2.891z"/>
		<path d="M39.915 9.954V6.581a2.417 2.417 0 0 0-2.41-2.41H26.905V18.63h10.602a2.417 2.417 0 0 0 2.41-2.41v-3.132c0-.771-.434-1.422-1.085-1.735.627-.145 1.084-.723 1.084-1.398m-10.12-2.891h6.747c.265 0 .482.217.482.482v1.927a.483.483 0 0 1-.482.482h-6.747zm0 8.674v-2.891h6.747c.265 0 .482.217.482.482v1.927a.483.483 0 0 1-.482.482z"/>
		<path d="M56.169 5.135V4.17c-7.301 0-13.253 5.952-13.253 13.253v1.205h2.892v-1.205c0-.578.048-1.132.144-1.687h7.326v2.892h2.891V5.135m-9.301 7.71a10.4 10.4 0 0 1 6.41-5.373v5.374z"/>
		<path d="M72.181 7.063V4.17H59.169v6.145c0 4.578 3.735 8.313 8.313 8.313h4.699v-2.892h-4.699a5.43 5.43 0 0 1-5.422-5.421V7.063z"/>
		<path d="M85.301 4.171v5.783h-7.229V4.171h-2.891V18.63h2.891v-5.783h7.23v5.783h2.89V4.17z"/>
		<path d="M94.084 4.171h-2.892V18.63h2.892z"/>
	</g>
</svg>
