<svg viewBox="0 0 200 200" fill="none" xmlns="http://www.w3.org/2000/svg">
<path d="M41.1646 70.1266L10.8355 54.6836C8.45571 59.3418 6.4557 64.2279 4.83545 69.2152L37.2152 79.6962C38.2785 76.4051 39.5949 73.1899 41.1646 70.1266Z" fill="white"/>
<path d="M66.9112 42.9114L83.6961 71.8481C86.1517 70.4303 88.7847 69.3417 91.4935 68.6076L82.81 36.3038C85.0125 35.7215 87.2657 35.2152 89.5442 34.8607L84.2024 1.24048C79.0378 2.05061 73.8986 3.29111 68.9366 4.91136L79.3163 36.7595C75.9999 37.8481 72.7847 39.1898 69.6961 40.7595L54.4555 10.962C49.8226 13.3417 45.3163 16.1012 41.1138 19.1898L61.1644 46.6582C63.0125 45.3164 64.9366 44.0759 66.9112 42.9114Z" fill="white"/>
<path d="M157.063 66.886L128.126 83.6961C129.544 86.1518 130.658 88.7847 131.392 91.4936L163.696 82.7847C164.304 84.9873 164.785 87.2404 165.139 89.4936L198.759 84.1518C197.949 78.9873 196.709 73.848 195.063 68.886L163.24 79.3164C162.152 75.9999 160.81 72.7847 159.24 69.6961L189.038 54.405C186.658 49.7721 183.899 45.2658 180.81 41.0632L153.342 61.1392C154.658 62.9873 155.899 64.9113 157.063 66.886Z" fill="white"/>
<path d="M145.266 10.8101C140.607 8.43031 135.721 6.43031 130.734 4.81006L120.278 37.1898C123.544 38.2531 126.759 39.5696 129.848 41.1392L145.266 10.8101Z" fill="white"/>
<path d="M133.165 42.3291L116.177 71.8227C118.633 73.2405 120.911 74.9873 122.911 76.9873L170.557 29.1645C166.861 25.4683 162.835 22.0506 158.633 18.9873L138.987 46.1012C137.114 44.7341 135.19 43.4683 133.165 42.3291Z" fill="white"/>
<path d="M42.3292 66.7849L71.7975 83.7976C73.2152 81.3419 74.9621 79.0634 76.9621 77.0381L29.1899 29.3672C25.4937 33.0634 22.076 37.0887 19.0127 41.2912L46.1013 60.9621C44.7595 62.8355 43.4937 64.7849 42.3292 66.7849Z" fill="white"/>
<path d="M110.304 34.2785L115.443 1.18987C110.354 0.405059 105.165 0 99.9746 0H99.8987V67.4937H99.9746C102.81 67.4937 105.646 67.8481 108.354 68.5823L117.089 35.6962C114.861 35.0886 112.608 34.6329 110.304 34.2785Z" fill="white"/>
<path d="M68.5823 91.6203L35.6962 82.8608C35.1139 85.0887 34.6329 87.3672 34.2785 89.6456L1.18987 84.4811C0.405059 89.5697 0 94.8102 0 100H67.4937C67.4937 97.1393 67.8734 94.3292 68.5823 91.6203Z" fill="white"/>
<path d="M158.835 129.873L189.165 145.316C191.544 140.658 193.544 135.772 195.165 130.785L162.785 120.304C161.722 123.595 160.405 126.81 158.835 129.873Z" fill="white"/>
<path d="M133.063 157.063L116.278 128.127C113.823 129.544 111.19 130.633 108.481 131.367L117.164 163.671C114.962 164.253 112.709 164.76 110.43 165.114L115.772 198.734C120.937 197.924 126.076 196.684 131.038 195.063L120.658 163.215C123.975 162.127 127.19 160.785 130.278 159.215L145.544 189.013C150.177 186.633 154.683 183.874 158.886 180.785L138.835 153.291C136.987 154.684 135.063 155.924 133.063 157.063Z" fill="white"/>
<path d="M42.9369 133.114L71.8736 116.278C70.4559 113.823 69.342 111.19 68.6078 108.481L36.304 117.19C35.6964 114.987 35.2154 112.734 34.861 110.481L1.24072 115.823C2.05085 120.987 3.29136 126.127 4.93693 131.089L36.7597 120.683C37.8483 123.975 39.1901 127.215 40.7597 130.304L10.9622 145.595C13.342 150.228 16.1015 154.734 19.1901 158.937L46.6584 138.861C45.342 137.013 44.1015 135.089 42.9369 133.114Z" fill="white"/>
<path d="M54.7344 189.19C59.3926 191.57 64.2787 193.57 69.266 195.19L79.7217 162.81C76.4559 161.747 73.2407 160.43 70.1521 158.861L54.7344 189.19Z" fill="white"/>
<path d="M66.8104 157.671L83.7977 128.177C81.342 126.76 79.0635 125.013 77.0635 123.013L29.418 170.835C33.1142 174.532 37.1395 177.949 41.342 181.013L60.9876 153.899C62.861 155.241 64.8104 156.506 66.8104 157.671Z" fill="white"/>
<path d="M157.646 133.215L128.177 116.203C126.76 118.658 125.013 120.937 123.013 122.962L170.81 170.633C174.506 166.937 177.924 162.911 180.987 158.709L153.899 139.038C155.241 137.139 156.506 135.215 157.646 133.215Z" fill="white"/>
<path d="M91.6204 131.418L82.8862 164.304C85.1141 164.886 87.3926 165.367 89.6711 165.722L84.5318 198.81C89.6204 199.595 94.8103 200 100 200H100.076V132.506H100C97.1647 132.506 94.3293 132.127 91.6204 131.418Z" fill="white"/>
<path d="M132.507 100C132.507 102.861 132.152 105.671 131.418 108.38L164.304 117.139C164.886 114.911 165.367 112.633 165.722 110.354L198.81 115.519C199.595 110.43 200 105.19 200 100H132.507Z" fill="white"/>
</svg>
