<svg width="500" height="500" viewBox="0 0 500 500" fill="none" xmlns="http://www.w3.org/2000/svg">
<g clip-path="url(#clip0_4909_76)">
<path d="M249.632 499.7C387.703 499.7 499.632 387.771 499.632 249.7C499.632 111.629 387.703 -0.300049 249.632 -0.300049C111.56 -0.300049 -0.368408 111.629 -0.368408 249.7C-0.368408 387.771 111.56 499.7 249.632 499.7Z" fill="#DFFE00"/>
<path d="M397.837 381.34H339.928V249.915L363.117 174.963L346.687 169.117L271.537 381.34H227.495L152.343 169.117L135.915 174.963L159.102 249.915V381.34H101.195V117.668H187.415L240.895 268.622V312.938H258.372V268.622L311.852 117.668H398.07V381.34H397.838H397.837Z" fill="black"/>
</g>
<defs>
<clipPath id="clip0_4909_76">
<rect width="500" height="500" fill="white"/>
</clipPath>
</defs>
</svg>
