<svg viewBox="0 0 200 200" fill="none" xmlns="http://www.w3.org/2000/svg">
<circle cx="100" cy="100" r="100" fill="white"/>
<path d="M100 0C44.7716 0 0 44.7716 0 100C0 155.229 44.7716 200 100 200C155.228 200 200 155.228 200 100C200 44.7713 155.228 0 100 0ZM100 150.916V192.674C60.3487 192.674 28.2051 160.53 28.2051 120.879C28.2051 81.228 60.3487 49.0843 100 49.0843V7.32601C139.651 7.32601 171.795 39.4696 171.795 79.1209C171.795 118.772 139.651 150.916 100 150.916ZM134.432 99.6797V100.32C119.255 107.884 107.884 119.255 100.32 134.432H99.6802C92.116 119.255 80.7449 107.884 65.5678 100.32V99.6797C80.7449 92.1156 92.116 80.7447 99.6802 65.5678H100.32C107.884 80.7447 119.255 92.1156 134.432 99.6797Z" fill="#FF0420"/>
</svg>
