<svg width="500" height="500" viewBox="0 0 500 500" fill="none" xmlns="http://www.w3.org/2000/svg">
<circle cx="250" cy="250" r="250" fill="white"/>
<path d="M250 0C111.929 0 0 111.929 0 250C0 388.072 111.929 500 250 500C388.071 500 500 388.071 500 250C500 111.928 388.071 0 250 0ZM250 377.289V481.685C150.872 481.685 70.5128 401.326 70.5128 302.198C70.5128 203.07 150.872 122.711 250 122.711V18.315C349.128 18.315 429.487 98.674 429.487 197.802C429.487 296.93 349.128 377.289 250 377.289ZM336.081 249.199V250.799C298.138 269.711 269.71 298.137 250.8 336.081H249.201C230.29 298.137 201.862 269.711 163.919 250.799V249.199C201.862 230.289 230.29 201.862 249.201 163.919H250.8C269.71 201.862 298.138 230.289 336.081 249.199Z" fill="#FF0420"/>
</svg>
