<svg width="500" height="500" viewBox="0 0 500 500" fill="none" xmlns="http://www.w3.org/2000/svg">
<g clip-path="url(#clip0_4908_70)">
<path d="M500 250C500 111.929 388.071 0 250 0C111.929 0 0 111.929 0 250C0 388.071 111.929 500 250 500C388.071 500 500 388.071 500 250Z" fill="#162F29"/>
<path d="M441.406 251.025C441.406 252.967 441.379 254.906 441.323 256.848H441.102H348.225V252.606H258.623C258.623 251.719 258.65 250.831 258.65 249.973C258.65 249.112 258.65 248.198 258.623 247.337H348.225V243.125H348.365H441.24C441.35 245.758 441.406 248.392 441.406 251.025ZM257.042 231.925L344.733 221.14L345.26 225.354L437.858 213.958C436.971 209.412 435.917 204.921 434.725 200.513L343.569 211.742L344.096 215.954L255.987 226.796C256.377 228.515 256.737 230.233 257.042 231.979V231.925ZM252.467 214.956L336.277 194.025L337.302 198.129L426.242 175.922C424.41 171.624 422.444 167.382 420.335 163.252L334.004 184.821L335.029 188.924L250.527 210.05C251.221 211.685 251.858 213.321 252.467 214.985V214.956ZM245.037 199.071L323.385 169.49L324.883 173.454L407.777 142.154C405.087 138.217 402.26 134.391 399.267 130.676L320.031 160.59L321.527 164.555L242.237 194.497C243.208 195.994 244.15 197.519 245.037 199.071ZM234.752 184.377L303.95 148.309L305.892 152.079L382.41 112.184C378.89 108.774 375.229 105.53 371.458 102.398L299.544 139.88L301.483 143.651L231.121 180.33C232.34 181.66 233.56 182.991 234.725 184.377H234.752ZM218.062 168.519L280.719 128.68L282.992 132.256L352.135 88.286C347.783 85.5137 343.346 82.9354 338.773 80.5233L275.644 120.668L277.919 124.244L213.46 165.22C215.04 166.274 216.565 167.382 218.09 168.519H218.062ZM203.257 159.259L255.767 116.204L258.456 119.476L317.592 70.9585C312.573 69.0456 307.417 67.3269 302.204 65.8298L249.75 108.857L252.44 112.129L198.017 156.764C199.792 157.541 201.539 158.372 203.257 159.259ZM183.656 151.635L225.131 110.354L228.098 113.349L280.802 60.9779C275.09 60.0354 269.296 59.3423 263.419 58.8988L218.477 103.617L221.444 106.612L177.64 150.194C179.664 150.61 181.66 151.081 183.656 151.635ZM160.729 148.17L193.804 108.081L197.075 110.77L240.131 58.5938C233.587 58.8987 227.127 59.5365 220.779 60.479L186.484 102.037L189.756 104.726L153.936 148.142C154.935 148.114 155.96 148.087 156.958 148.087C158.234 148.087 159.481 148.087 160.729 148.142V148.17ZM140.906 149.362L166.385 109.939L169.933 112.24L200.735 64.5544C193.693 66.3842 186.817 68.6021 180.108 71.1804L158.428 104.754L161.976 107.055L133.753 150.748C136.11 150.194 138.494 149.722 140.906 149.334V149.362ZM118.893 155.489L137.219 121.139L140.934 123.135L165.192 77.6956C157.402 81.4937 149.916 85.791 142.764 90.5594L128.819 116.675L132.561 118.672L110.992 159.093C113.543 157.79 116.176 156.598 118.866 155.517L118.893 155.489ZM103.091 163.557L110.881 141.433L114.873 142.847L130.011 99.8748C122.331 105.974 115.123 112.628 108.441 119.808L101.926 138.3L105.919 139.714L95.716 168.658C98.1004 166.856 100.54 165.165 103.063 163.584L103.091 163.557ZM83.6562 179.387L87.094 163.307L91.2248 164.194L98.1558 131.813C90.8644 141.072 84.4048 151.025 78.8877 161.533L81.965 162.198L75.644 188.813C78.1115 185.514 80.8006 182.354 83.6562 179.387ZM69.3783 198.184V176.892C64.2217 190.504 60.5621 207.444 58.5938 224.05C61.0058 214.846 64.6652 206.168 69.3783 198.184ZM58.7323 276.448C60.7562 290.615 64.3048 304.283 69.2398 317.285V301.567C64.6931 293.804 61.1167 285.375 58.7323 276.448ZM76.3094 312.073L81.8265 337.802L78.7492 338.467C84.266 349.002 90.7258 358.927 98.0173 368.187L91.0863 335.806L86.9554 336.694L83.4621 320.419C80.9392 317.758 78.5273 314.985 76.3094 312.046V312.073ZM95.5221 331.204L105.78 360.315L101.788 361.727L108.303 380.219C114.984 387.4 122.192 394.054 129.872 400.152L114.735 357.181L110.742 358.594L102.924 336.36C100.401 334.752 97.934 333.06 95.5498 331.258L95.5221 331.204ZM110.826 340.823L132.45 381.356L128.708 383.352L142.653 409.469C149.806 414.237 157.291 418.533 165.081 422.331L140.823 376.892L137.08 378.89L118.699 344.456C116.01 343.375 113.376 342.154 110.798 340.852L110.826 340.823ZM133.587 349.196L161.838 392.944L158.289 395.246L179.969 428.819C186.679 431.398 193.554 433.617 200.596 435.446L169.795 387.76L166.246 390.06L140.74 350.583C138.328 350.194 135.916 349.723 133.559 349.169L133.587 349.196ZM153.77 351.858L189.589 395.273L186.318 397.962L220.612 439.521C226.96 440.465 233.421 441.102 239.965 441.406L196.909 389.202L193.637 391.892L160.562 351.802C159.37 351.858 158.15 351.858 156.931 351.858C155.877 351.858 154.796 351.858 153.742 351.802L153.77 351.858ZM177.53 349.806L221.306 393.36L218.34 396.354L263.279 441.073C269.156 440.629 274.952 439.937 280.662 438.994L227.987 386.596L224.994 389.619L183.546 348.365C181.577 348.892 179.553 349.39 177.53 349.806ZM197.934 343.292L252.302 387.9L249.612 391.171L302.065 434.198C307.277 432.7 312.433 430.981 317.452 429.069L258.29 380.552L255.6 383.823L203.146 340.796C201.427 341.683 199.681 342.515 197.907 343.292H197.934ZM213.348 334.808L277.723 375.756L275.45 379.331L338.577 419.477C343.152 417.065 347.617 414.458 351.942 411.715L282.798 367.744L280.525 371.321L217.952 331.535C216.427 332.673 214.902 333.781 213.321 334.835L213.348 334.808ZM231.092 319.725L301.373 356.35L299.431 360.119L371.348 397.602C375.119 394.469 378.777 391.225 382.298 387.817L305.781 347.921L303.84 351.692L234.725 315.677C233.56 317.065 232.367 318.423 231.121 319.725H231.092ZM242.21 305.531L321.39 335.446L319.892 339.41L399.127 369.323C402.094 365.608 404.921 361.783 407.637 357.846L324.744 326.546L323.246 330.51L245.01 300.956C244.123 302.508 243.179 304.033 242.21 305.531ZM250.5 290.006L334.862 311.075L333.837 315.179L420.169 336.748C422.304 332.617 424.273 328.375 426.102 324.079L337.165 301.871L336.137 305.975L252.44 285.071C251.829 286.733 251.165 288.371 250.5 290.006ZM255.987 273.26L343.956 284.073L343.429 288.288L434.585 299.515C435.779 295.079 436.831 290.587 437.719 286.069L345.121 274.675L344.594 278.887L257.042 268.104C256.737 269.85 256.377 271.569 255.987 273.287V273.26Z" fill="white"/>
</g>
<defs>
<clipPath id="clip0_4908_70">
<rect width="500" height="500" fill="white"/>
</clipPath>
</defs>
</svg>
