<svg viewBox="0 0 200 200" fill="none" xmlns="http://www.w3.org/2000/svg">
<g filter="url(#filter0_d_4919_135)">
<path d="M195.062 95.5712C195.062 96.5351 195.048 97.4989 195.021 98.4627H194.91H148.784V96.356H104.282C104.282 95.9154 104.296 95.4748 104.296 95.0479C104.296 94.6211 104.296 94.1668 104.282 93.7399H148.784V91.647H148.853H194.979C195.035 92.9551 195.062 94.2631 195.062 95.5712ZM103.497 86.0843L147.05 80.7281L147.311 82.821L193.299 77.162C192.859 74.9038 192.336 72.6732 191.743 70.4839L146.471 76.0604L146.732 78.1533L102.974 83.537C103.167 84.3907 103.346 85.2443 103.497 86.1119V86.0843ZM101.226 77.6577L142.85 67.262L143.359 69.2998L187.53 58.2707C186.621 56.1365 185.643 54.0299 184.598 51.9783L141.72 62.6906L142.23 64.7284L100.262 75.2205C100.606 76.0328 100.923 76.8452 101.226 77.6714V77.6577ZM97.5355 69.7679L136.447 55.0763L137.19 57.0453L178.359 41.5C177.025 39.5448 175.62 37.6447 174.134 35.7996L134.78 50.6564L135.525 52.6254L96.1449 67.496C96.6267 68.2395 97.0949 68.9969 97.5355 69.7679ZM92.4272 62.4704L126.795 44.5568L127.758 46.4294L165.762 26.6157C164.013 24.922 162.195 23.3111 160.322 21.7552L124.605 40.371L125.569 42.2436L90.6234 60.46C91.2293 61.121 91.8351 61.7819 92.4134 62.4704H92.4272ZM84.1382 54.5944L115.256 34.8083L116.385 36.5844L150.725 14.7467C148.563 13.3698 146.361 12.0892 144.089 10.8913L112.737 30.829L113.866 32.6052L81.8525 52.9559C82.6374 53.4791 83.3947 54.0299 84.1519 54.5944H84.1382ZM76.7855 49.9956L102.864 28.6121L104.2 30.2369L133.569 6.14101C131.077 5.19094 128.516 4.33726 125.927 3.59373L99.8762 24.9633L101.212 26.5881L74.1832 48.7563C75.0644 49.1419 75.9318 49.5549 76.7855 49.9956ZM67.0508 46.209L87.6493 25.7069L89.1227 27.1939L115.298 1.18414C112.461 0.715993 109.584 0.371765 106.664 0.151459L84.3448 22.361L85.8181 23.848L64.0629 45.4931C65.0681 45.6996 66.0595 45.9337 67.0508 46.209ZM55.6638 44.4879L72.0903 24.5778L73.715 25.9135L95.0984 0C91.849 0.151459 88.6407 0.468148 85.4876 0.936297L68.4553 21.5762L70.08 22.9117L52.2903 44.4741C52.786 44.4604 53.2955 44.4465 53.7912 44.4465C54.4245 44.4465 55.0442 44.4465 55.6638 44.4741V44.4879ZM45.8188 45.08L58.4727 25.5004L60.2351 26.6432L75.5325 2.96036C72.0351 3.86911 68.6205 4.97064 65.2884 6.25116L54.5209 22.9256L56.2834 24.0684L42.2665 45.7684C43.4369 45.4931 44.6209 45.259 45.8188 45.0662V45.08ZM34.8863 48.123L43.9876 31.0631L45.8327 32.0544L57.8806 9.48689C54.0114 11.3733 50.2938 13.5074 46.7414 15.8758L39.8155 28.8462L41.6744 29.8377L30.9621 49.913C32.2288 49.2658 33.5369 48.6737 34.8724 48.1367L34.8863 48.123ZM27.0379 52.1298L30.907 41.142L32.8897 41.8442L40.4076 20.5021C36.5935 23.5314 33.0137 26.8359 29.6953 30.4021L26.4596 39.5861L28.4423 40.2883L23.3753 54.6632C24.5595 53.7683 25.7711 52.9284 27.024 52.1435L27.0379 52.1298ZM17.3858 59.9918L19.093 52.0058L21.1447 52.4464L24.587 36.3642C20.9656 40.963 17.7575 45.906 15.0175 51.1246L16.5458 51.4551L13.4065 64.6733C14.6319 63.0348 15.9675 61.4652 17.3858 59.9918ZM10.2946 69.3273V58.7527C7.7336 65.5133 5.91608 73.9262 4.93848 82.1738C6.13639 77.6026 7.95391 73.2928 10.2946 69.3273ZM5.00732 108.197C6.01246 115.233 7.77491 122.022 10.2258 128.479V120.672C7.96767 116.817 6.19146 112.631 5.00732 108.197ZM13.7369 125.89L16.477 138.668L14.9486 138.999C17.6886 144.231 20.8969 149.16 24.5181 153.759L21.0759 137.677L19.0243 138.117L17.2893 130.035C16.0364 128.714 14.8385 127.337 13.7369 125.877V125.89ZM23.2788 135.391L28.3734 149.849L26.3907 150.551L29.6264 159.735C32.9448 163.301 36.5248 166.606 40.3387 169.635L32.8208 148.293L30.8381 148.995L26.9553 137.952C25.7023 137.154 24.4767 136.314 23.2927 135.419L23.2788 135.391ZM30.8795 140.169L41.6193 160.3L39.7605 161.291L46.6864 174.262C50.2387 176.63 53.9564 178.764 57.8255 180.651L45.7776 158.083L43.9187 159.074L34.7898 141.973C33.4543 141.436 32.1461 140.83 30.8656 140.183L30.8795 140.169ZM42.1838 144.327L56.2145 166.056L54.4521 167.198L65.2195 183.873C68.5516 185.153 71.9664 186.254 75.4637 187.163L60.1663 163.48L58.4038 164.623L45.7363 145.016C44.5384 144.823 43.3405 144.589 42.1701 144.314L42.1838 144.327ZM52.2077 145.649L69.9974 167.211L68.3727 168.547L85.405 189.188C88.5581 189.656 91.7663 189.972 95.0158 190.123L73.6324 164.196L72.0076 165.532L55.5812 145.622C54.9891 145.649 54.3833 145.649 53.7774 145.649C53.2542 145.649 52.7172 145.649 52.1939 145.622L52.2077 145.649ZM64.0079 144.631L85.7492 166.262L84.2759 167.748L106.596 189.958C109.515 189.738 112.392 189.394 115.229 188.926L89.0675 162.902L87.5805 164.402L66.9958 143.915C66.0181 144.177 65.0129 144.423 64.0079 144.631ZM74.1418 141.395L101.143 163.549L99.8075 165.174L125.858 186.543C128.447 185.8 131.008 184.946 133.5 183.996L104.117 159.9L102.782 161.525L76.7305 140.156C75.8767 140.596 75.0093 141.009 74.1281 141.395H74.1418ZM81.7975 137.181L113.769 157.519L112.64 159.295L143.993 179.232C146.264 178.035 148.482 176.739 150.629 175.377L116.289 153.539L115.16 155.315L84.0832 135.557C83.3259 136.121 82.5686 136.672 81.7837 137.195L81.7975 137.181ZM90.6097 129.691L125.514 147.88L124.551 149.753L160.267 168.368C162.14 166.812 163.957 165.201 165.706 163.507L127.704 143.694L126.74 145.567L92.4134 127.68C91.8351 128.369 91.243 129.043 90.6234 129.691H90.6097ZM96.1311 122.641L135.456 137.498L134.713 139.467L174.064 154.323C175.537 152.479 176.942 150.579 178.292 148.623L137.121 133.078L136.378 135.047L97.5218 120.369C97.0812 121.14 96.613 121.898 96.1311 122.641ZM100.248 114.93L142.147 125.395L141.638 127.433L184.515 138.146C185.576 136.094 186.552 133.986 187.462 131.853L143.29 120.824L142.78 122.861L101.212 112.48C100.909 113.306 100.578 114.118 100.248 114.93ZM102.974 106.614L146.663 111.984L146.401 114.077L191.674 119.653C192.267 117.45 192.79 115.22 193.231 112.975L147.242 107.316L146.98 109.409L103.497 104.053C103.346 104.92 103.167 105.774 102.974 106.628V106.614Z" fill="white"/>
</g>
<defs>
<filter id="filter0_d_4919_135" x="0.938477" y="0" width="198.123" height="198.124" filterUnits="userSpaceOnUse" color-interpolation-filters="sRGB">
<feFlood flood-opacity="0" result="BackgroundImageFix"/>
<feColorMatrix in="SourceAlpha" type="matrix" values="0 0 0 0 0 0 0 0 0 0 0 0 0 0 0 0 0 0 127 0" result="hardAlpha"/>
<feOffset dy="4"/>
<feGaussianBlur stdDeviation="2"/>
<feComposite in2="hardAlpha" operator="out"/>
<feColorMatrix type="matrix" values="0 0 0 0 0 0 0 0 0 0 0 0 0 0 0 0 0 0 0.25 0"/>
<feBlend mode="normal" in2="BackgroundImageFix" result="effect1_dropShadow_4919_135"/>
<feBlend mode="normal" in="SourceGraphic" in2="effect1_dropShadow_4919_135" result="shape"/>
</filter>
</defs>
</svg>
