<svg width="200" height="200" viewBox="0 0 200 200" fill="none" xmlns="http://www.w3.org/2000/svg">
<path d="M143.643 131.976L186.338 107.389C188.601 106.083 190 103.661 190 101.062V51.8887C190 49.2893 188.601 46.8675 186.338 45.5614L143.643 20.9748C141.379 19.6687 138.57 19.6814 136.319 20.9748L93.6234 45.5614C91.3606 46.8675 89.9618 49.2893 89.9618 51.8887V139.761L60.019 156.994L30.0763 139.761V105.285L60.019 88.0525L79.765 99.426V76.2977L63.6806 67.0287C62.5743 66.3947 61.3035 66.0524 60.019 66.0524C58.7345 66.0524 57.4637 66.3947 56.3575 67.0287L13.6618 91.6153C11.3986 92.9213 10 95.3436 10 97.9428V147.116C10 149.715 11.3986 152.137 13.6618 153.443L56.3575 178.03C58.6202 179.323 61.4178 179.323 63.6806 178.03L106.376 153.443C108.64 152.137 110.038 149.715 110.038 147.116V59.2305L110.572 58.9261L139.968 41.9983L169.911 59.2305V93.7077L139.968 110.94L120.248 99.5909V122.72L136.306 131.964C138.57 133.257 141.379 133.257 143.63 131.964L143.643 131.976Z" fill="url(#paint0_linear_507_62)"/>
<defs>
<linearGradient id="paint0_linear_507_62" x1="9.41512" y1="151.934" x2="182.032" y2="51.4689" gradientUnits="userSpaceOnUse">
<stop stop-color="#A726C1"/>
<stop offset="0.88" stop-color="#803BDF"/>
<stop offset="1" stop-color="#7B3FE4"/>
</linearGradient>
</defs>
</svg>
