<svg viewBox="0 0 200 200" fill="none" xmlns="http://www.w3.org/2000/svg">
	<rect width="200" height="200" rx="40" fill="#00C805" />
	<path
		d="M46.7744 170H49.7822C50.329 170 50.876 169.7218 51.0585 169.2585C73.7524 110.4918 98.4514 81.3864 113.9456 63.9602C114.5838 63.2186 114.3102 62.6627 113.3988 62.6627H85.6919C84.6881 62.6627 83.8403 63.0702 83.1381 63.9602L63.2682 88.9873C60.3517 92.695 59.6227 96.1242 59.6227 101.037V126.62C53.151 145.0659 49.05 157.5795 46.0422 168.888C45.8599 169.6106 46.1333 170 46.7744 170ZM146.3565 34.733C142.0728 30.0985 122.7521 29.913 113.8204 33.4354C111.9619 34.1675 110.1757 35.4095 109.3553 36.1232C101.1527 43.2607 95.6843 48.9146 90.4898 54.4755C89.8512 55.1242 90.1251 55.7729 91.0365 55.7729H121.7512C124.5767 55.7729 126.2168 57.4416 126.2168 60.3143V95.537C126.2168 96.464 126.946 96.7422 127.493 95.9077L145.992 71.3441C148.9999 67.3583 149.9114 66.1537 150.7317 60.5928C151.825 52.4358 151.1866 39.9223 146.3565 34.733ZM106.5101 128.5669L119.1783 107.3401C119.4522 106.7842 119.5429 106.1351 119.5429 105.6718V70.2631C119.5429 69.3361 118.9049 68.9659 118.2673 69.7071C99.2207 91.305 84.3646 114.0142 70.6021 141.3582C70.2557 142.0439 70.6932 142.6556 71.5136 142.3777L99.9507 133.4797C103.158 132.4785 104.9623 131.1623 106.5101 128.5669Z"
		fill="white"
	/>
</svg>
