<svg viewBox="0 0 200 200" fill="none" xmlns="http://www.w3.org/2000/svg">
<g clip-path="url(#clip0_4919_148)">
<path d="M120.396 124.255L120.42 124.239C120.42 124.239 120.396 124.255 120.38 124.263C120.388 124.263 120.396 124.263 120.404 124.263L120.396 124.255Z" fill="#F5F5F5"/>
<path d="M120.379 124.263C82.5906 135.602 51.3413 152.143 31.7651 171.515L30.9014 172.378C36.1082 177.298 41.8156 181.701 47.9831 185.443L49.307 183.822C54.6511 177.298 60.3827 170.999 66.3484 165.063C82.3565 149.127 100.665 135.336 120.379 124.263Z" fill="#F5F5F5"/>
<path d="M124.747 107.456H0C1.50959 127.675 9.02523 146.216 20.8194 161.297L21.3603 160.757C33.4773 148.813 49.2513 137.957 68.2785 128.497C84.9566 120.198 104.105 113.077 124.747 107.456Z" fill="#F5F5F5"/>
<path d="M76.9239 24.3558C110.74 58.0185 153.299 80.2774 199.983 88.7213C194.357 38.8161 151.838 0 100.173 0C86.5303 0 73.5253 2.71785 61.6504 7.62127C66.4698 13.4199 71.6201 19.0653 76.9239 24.3639V24.3558Z" fill="#F5F5F5"/>
<path d="M31.7659 28.477C51.3421 47.881 82.6075 64.3978 120.404 75.7612C100.674 64.664 82.3491 50.8812 66.333 34.937C60.3834 29.0174 54.6599 22.7187 49.2916 16.1782L47.9677 14.5571C41.8002 18.2992 36.0928 22.6946 30.9102 27.6141L31.7739 28.477H31.7659Z" fill="#F5F5F5"/>
<path d="M76.9239 175.636C71.5959 180.935 66.4536 186.58 61.6504 192.379C73.5091 197.282 86.5303 200 100.173 200C151.838 200 194.357 161.176 200 111.254C153.323 119.698 110.764 141.957 76.94 175.62L76.9239 175.636Z" fill="#F5F5F5"/>
<path d="M68.2543 71.4708V71.4869C49.2432 62.0269 33.4773 51.1636 21.3603 39.2357L20.8194 38.6953C9.02523 53.7766 1.50959 72.3176 0 92.5362H124.723C104.089 86.915 84.9567 79.7937 68.2543 71.4708Z" fill="#F5F5F5"/>
</g>
<defs>
<clipPath id="clip0_4919_148">
<rect width="200" height="200" fill="white"/>
</clipPath>
</defs>
</svg>
