<svg width="500" height="500" viewBox="0 0 500 500" fill="none" xmlns="http://www.w3.org/2000/svg">
<circle cx="250" cy="250" r="250" fill="black"/>
<path d="M294.826 303.36L294.879 303.325C294.879 303.325 294.826 303.36 294.791 303.378C294.809 303.378 294.826 303.378 294.844 303.378L294.826 303.36Z" fill="#F5F5F5"/>
<path d="M294.791 303.378C211.738 328.324 143.057 364.714 100.031 407.332L98.1328 409.23C109.577 420.053 122.121 429.741 135.676 437.973L138.586 434.407C150.331 420.053 162.928 406.196 176.04 393.138C211.224 358.079 251.464 327.739 294.791 303.378Z" fill="#F5F5F5"/>
<path d="M304.39 266.403H30.2148C33.5327 310.883 50.051 351.673 75.9728 384.852L77.1615 383.663C103.793 357.386 138.462 333.505 180.281 312.693C216.937 294.436 259.022 278.769 304.39 266.403Z" fill="#F5F5F5"/>
<path d="M199.283 83.5843C273.607 157.642 367.145 206.611 469.75 225.187C457.383 115.397 363.934 30.002 250.382 30.002C220.397 30.002 191.814 35.9812 165.714 46.7686C176.307 59.5255 187.626 71.9452 199.283 83.6021V83.5843Z" fill="#F5F5F5"/>
<path d="M100.032 92.6504C143.057 135.339 211.774 171.676 294.844 196.675C251.482 172.261 211.206 141.939 176.005 106.862C162.929 93.8392 150.349 79.9823 138.551 65.5931L135.641 62.0269C122.086 70.2594 109.542 79.929 98.1509 90.752L100.049 92.6504H100.032Z" fill="#F5F5F5"/>
<path d="M199.283 416.398C187.573 428.055 176.271 440.475 165.714 453.232C191.778 464.019 220.397 469.998 250.382 469.998C363.934 469.998 457.383 384.586 469.785 274.76C367.198 293.336 273.66 342.305 199.319 416.363L199.283 416.398Z" fill="#F5F5F5"/>
<path d="M180.228 187.236V187.271C138.444 166.459 103.793 142.56 77.1615 116.319L75.9728 115.13C50.051 148.309 33.5327 189.099 30.2148 233.579H304.337C258.987 221.213 216.937 205.546 180.228 187.236Z" fill="#F5F5F5"/>
</svg>
