<svg xmlns="http://www.w3.org/2000/svg" viewBox="0 0 1080 1080" role="img" aria-labelledby="title desc">
  <title id="title">HyperAI strategy logo</title>
  <desc id="desc">Hyperliquid logo with an overlaid balance-scale badge for the HyperAI strategy.</desc>
  <defs>
    <radialGradient id="bg-glow" cx="50%" cy="38%" r="72%">
      <stop offset="0" stop-color="#223743" />
      <stop offset="1" stop-color="#192631" />
    </radialGradient>
    <linearGradient id="badge-gradient" x1="0.18" y1="0.14" x2="0.84" y2="0.88" gradientUnits="objectBoundingBox">
      <stop offset="0" stop-color="#243744" />
      <stop offset="1" stop-color="#111b23" />
    </linearGradient>
    <linearGradient id="beam-highlight" x1="0" y1="0" x2="1" y2="1">
      <stop offset="0" stop-color="#f1fdff" />
      <stop offset="1" stop-color="#c6dce3" />
    </linearGradient>
    <filter id="badge-shadow" x="-20%" y="-20%" width="140%" height="140%">
      <feDropShadow dx="0" dy="22" stdDeviation="18" flood-color="#02060a" flood-opacity="0.35" />
    </filter>
  </defs>

  <circle cx="540" cy="540" r="540" fill="url(#bg-glow)" />

  <g transform="translate(220 292) scale(3.2)">
    <path
      d="M200 99.5818C200 165.703 159.536 186.919 138.216 168.028C120.667 152.623 115.446 120.072 89.05 116.73C55.5475 112.515 52.6468 157.129 30.6019 157.129C4.93111 157.129 0 119.781 0 100.599C0 80.9807 5.51124 54.2417 27.4111 54.2417C52.9369 54.2417 54.3872 92.4612 86.2944 90.4266C118.057 88.2469 118.637 48.4288 139.232 31.4263C157.215 16.7488 200 32.5888 200 99.5818Z"
      fill="#97FCE4"
    />
  </g>

  <g filter="url(#badge-shadow)" transform="translate(748 328) scale(1.16) translate(-786 -790)">
    <circle cx="786" cy="790" r="170" fill="url(#badge-gradient)" stroke="#e8fbff" stroke-opacity="0.24" stroke-width="16" />
    <circle cx="786" cy="790" r="136" fill="#16232d" />

    <g transform="translate(786 786) scale(1.14) translate(-786 -786)">
      <circle cx="786" cy="676" r="18" fill="#F62F2F" />
      <path d="M786 694V850" stroke="#22B554" stroke-width="18" stroke-linecap="round" />
      <path d="M722 736H850" stroke="#22B554" stroke-width="18" stroke-linecap="round" />
      <path d="M758 736H814" stroke="#F62F2F" stroke-width="8" stroke-linecap="round" opacity="0.9" />

      <path d="M744 736L724 792" stroke="url(#beam-highlight)" stroke-width="10" stroke-linecap="round" />
      <path d="M744 736L764 792" stroke="url(#beam-highlight)" stroke-width="10" stroke-linecap="round" />
      <path d="M828 736L808 792" stroke="url(#beam-highlight)" stroke-width="10" stroke-linecap="round" />
      <path d="M828 736L848 792" stroke="url(#beam-highlight)" stroke-width="10" stroke-linecap="round" />

      <path
        d="M704 796C722 832 766 832 784 796"
        fill="none"
        stroke="#22B554"
        stroke-width="16"
        stroke-linecap="round"
        stroke-linejoin="round"
      />
      <path
        d="M788 796C806 832 850 832 868 796"
        fill="none"
        stroke="#22B554"
        stroke-width="16"
        stroke-linecap="round"
        stroke-linejoin="round"
      />

      <path d="M752 850H820" stroke="#F62F2F" stroke-width="18" stroke-linecap="round" />
      <path d="M728 884H844" stroke="#22B554" stroke-width="20" stroke-linecap="round" />
    </g>
  </g>
</svg>
