<svg xmlns="http://www.w3.org/2000/svg" viewBox="0 0 1080 1080" role="img" aria-labelledby="title desc">
  <title id="title">Ichimoku Hyperliquid strategy logo</title>
  <desc id="desc">Hyperliquid logo with an overlaid robot badge for the Ichimoku strategy.</desc>
  <defs>
    <radialGradient id="bg-glow" cx="50%" cy="38%" r="72%">
      <stop offset="0" stop-color="#223743" />
      <stop offset="1" stop-color="#192631" />
    </radialGradient>
    <linearGradient id="badge-gradient" x1="0.18" y1="0.14" x2="0.84" y2="0.88" gradientUnits="objectBoundingBox">
      <stop offset="0" stop-color="#243744" />
      <stop offset="1" stop-color="#111b23" />
    </linearGradient>
    <filter id="badge-shadow" x="-20%" y="-20%" width="140%" height="140%">
      <feDropShadow dx="0" dy="22" stdDeviation="18" flood-color="#02060a" flood-opacity="0.35" />
    </filter>
  </defs>

  <circle cx="540" cy="540" r="540" fill="url(#bg-glow)" />

  <g transform="translate(220 292) scale(3.2)">
    <path
      d="M200 99.5818C200 165.703 159.536 186.919 138.216 168.028C120.667 152.623 115.446 120.072 89.05 116.73C55.5475 112.515 52.6468 157.129 30.6019 157.129C4.93111 157.129 0 119.781 0 100.599C0 80.9807 5.51124 54.2417 27.4111 54.2417C52.9369 54.2417 54.3872 92.4612 86.2944 90.4266C118.057 88.2469 118.637 48.4288 139.232 31.4263C157.215 16.7488 200 32.5888 200 99.5818Z"
      fill="#97FCE4"
    />
  </g>

  <g filter="url(#badge-shadow)" transform="translate(748 328) scale(1.16) translate(-786 -790)">
    <circle cx="786" cy="790" r="170" fill="url(#badge-gradient)" stroke="#e8fbff" stroke-opacity="0.24" stroke-width="16" />
    <circle cx="786" cy="790" r="136" fill="#16232d" />

    <g transform="translate(786 766) scale(1.3) translate(-786 -766)">
      <path d="M786 670V710" stroke="#cd4c50" stroke-width="22" stroke-linecap="round" />
      <circle cx="786" cy="652" r="22" fill="#cd4c50" />

      <rect x="702" y="722" width="168" height="144" rx="40" fill="#28b86e" />
      <rect x="728" y="762" width="38" height="38" rx="19" fill="#182430" />
      <rect x="806" y="762" width="38" height="38" rx="19" fill="#182430" />

      <circle cx="748" cy="830" r="12" fill="#cd4c50" />
      <circle cx="784" cy="830" r="12" fill="#cd4c50" />
      <circle cx="820" cy="830" r="12" fill="#cd4c50" />
      <circle cx="856" cy="830" r="12" fill="#cd4c50" />
      <path d="M722 772H692" stroke="#cd4c50" stroke-width="20" stroke-linecap="round" />
      <path d="M880 772H850" stroke="#cd4c50" stroke-width="20" stroke-linecap="round" />
    </g>
  </g>
</svg>
