<svg viewBox="0 0 425 398" width="40px" color="text" xmlns="http://www.w3.org/2000/svg" class="sc-cZwWEu jdXsDn"><defs><style>.cls-1{fill:#a16552;}.cls-2{fill:#f5dcb4;}.cls-3,.cls-7{fill:#4e3f3f;}.cls-4{fill:#e6646e;}.cls-5{fill:#5d5360;}.cls-6{fill:#fff;}.cls-7{opacity:0.35;}</style></defs><path class="cls-1" d="M54.69,144.94a140.69,140.69,0,0,0-5,36.64c0,.87,0,1.72,0,2.57a188.47,188.47,0,0,1-5,44.45c-6.9-2.45-14-7.41-20.78-16C6.07,190,12,153.76,34,145.23c8.32-3.22,15.28-2.54,20.72-.43A.74.74,0,0,0,54.69,144.94Z"></path><path class="cls-2" d="M54.69,144.94a140.69,140.69,0,0,0-5,36.64c0,.87,0,1.72,0,2.57a188.47,188.47,0,0,1-5,44.45c-6.9-2.45-14-7.41-20.78-16C6.07,190,12,153.76,34,145.23c8.32-3.22,15.28-2.54,20.72-.43A.74.74,0,0,0,54.69,144.94Z"></path><path class="cls-1" d="M383.4,212.61c-6.77,8.57-13.88,13.53-20.78,16a188.85,188.85,0,0,1-5-44.44c0-.85,0-1.7,0-2.57a140.21,140.21,0,0,0-5.05-36.78c5.44-2.11,12.4-2.79,20.72.43C395.29,153.76,401.23,190,383.4,212.61Z"></path><path class="cls-2" d="M383.4,212.61c-6.77,8.57-13.88,13.53-20.78,16a188.85,188.85,0,0,1-5-44.44c0-.85,0-1.7,0-2.57a140.21,140.21,0,0,0-5.05-36.78c5.44-2.11,12.4-2.79,20.72.43C395.29,153.76,401.23,190,383.4,212.61Z"></path><path class="cls-1" d="M314.85,229.06a39.84,39.84,0,0,0-4.38,34.18c2.93,8.62,5.55,18.38,5.55,25.64C316,342,265.71,385,203.65,385S91.27,342,91.27,288.88c0-7.26,2.62-17,5.55-25.64a39.81,39.81,0,0,0-4.37-34.17,61.8,61.8,0,0,1-9.72-33.14c0-35.25,30-63.84,67.05-63.84a69.31,69.31,0,0,1,34.15,8.9,39.88,39.88,0,0,0,39.44,0,69.23,69.23,0,0,1,34.14-8.89c37,0,67.06,28.59,67.06,63.84A60.89,60.89,0,0,1,319,221.45,61.61,61.61,0,0,1,314.85,229.06Z"></path><path class="cls-2" d="M314.85,229.06a39.84,39.84,0,0,0-4.38,34.18c2.93,8.62,5.55,18.38,5.55,25.64C316,342,265.71,385,203.65,385S91.27,342,91.27,288.88c0-7.26,2.62-17,5.55-25.64a39.81,39.81,0,0,0-4.37-34.17,61.8,61.8,0,0,1-9.72-33.14c0-35.25,30-63.84,67.05-63.84a69.31,69.31,0,0,1,34.15,8.9,39.88,39.88,0,0,0,39.44,0,69.23,69.23,0,0,1,34.14-8.89c37,0,67.06,28.59,67.06,63.84A60.89,60.89,0,0,1,319,221.45,61.61,61.61,0,0,1,314.85,229.06Z"></path><path class="cls-3" d="M146.41,300.76a6.45,6.45,0,0,0-6.41,7.29c4,28.45,31,50.45,63.65,50.45s59.67-22,63.65-50.45a6.45,6.45,0,0,0-6.4-7.29Z"></path><path class="cls-4" d="M166.68,347.91a69.83,69.83,0,0,0,73.94,0c-4.64-16.06-19.47-12.36-37-12.36S171.32,331.85,166.68,347.91Z"></path><path class="cls-1" d="M380.9,133.36c-13.3-5.16-23.85-2.44-31.27,1.83a163.15,163.15,0,0,0-6.25-15.69q-2.58-5.62-5.57-11.09C317.46,71.18,283.24,40.28,244,27.22L243.2,6.08,217.78,21.34,214.72,21c-1.88-.17-3.74-.3-5.64-.38l-3.71-16L204.28,0c-1.27,0-2.51,0-3.72.14-23.65,1.92-35.42,23.41-37.26,27.09C124,40.29,89.84,71.2,69.49,108.41q-3,5.46-5.57,11.09a167,167,0,0,0-6.26,15.69l-.95-.53c-7.36-3.95-17.58-6.23-30.31-1.3C-1.55,144.2-9.09,190.26,13.56,219c9.24,11.68,19,18.08,28.32,20.93-.12.52-.24,1.05-.35,1.58A109.88,109.88,0,0,0,39,265c0,54.83,40.44,102,98.38,122.73a191.69,191.69,0,0,0,42.06,9.87A201.87,201.87,0,0,0,201.88,399h1.78c90.93,0,164.64-60,164.64-134a109.88,109.88,0,0,0-2.53-23.51c-.12-.53-.23-1.06-.36-1.58,9.37-2.85,19.09-9.25,28.32-20.94C416.39,190.26,408.84,144.19,380.9,133.36ZM54.69,144.94a140.69,140.69,0,0,0-5,36.64c0,.87,0,1.72,0,2.57a188.47,188.47,0,0,1-5,44.45c-6.9-2.45-14-7.41-20.78-16C6.07,190,12,153.76,34,145.23c8.32-3.22,15.28-2.54,20.72-.43A.74.74,0,0,0,54.69,144.94ZM319,221.45a61.61,61.61,0,0,1-4.15,7.61,39.84,39.84,0,0,0-4.38,34.18c2.93,8.62,5.55,18.38,5.55,25.64C316,342,265.71,385,203.65,385S91.27,342,91.27,288.88c0-7.26,2.62-17,5.55-25.64a39.81,39.81,0,0,0-4.37-34.17,61.8,61.8,0,0,1-9.72-33.14c0-35.25,30-63.84,67.05-63.84a69.31,69.31,0,0,1,34.15,8.9,39.88,39.88,0,0,0,39.44,0,69.23,69.23,0,0,1,34.14-8.89c37,0,67.06,28.59,67.06,63.84A60.89,60.89,0,0,1,319,221.45Zm64.4-8.84c-6.77,8.57-13.88,13.53-20.78,16a188.85,188.85,0,0,1-5-44.44c0-.85,0-1.7,0-2.57a140.21,140.21,0,0,0-5.05-36.78c5.44-2.11,12.4-2.79,20.72.43C395.29,153.76,401.23,190,383.4,212.61Z"></path><rect class="cls-3" x="181.43" y="245.71" width="10.8" height="24.52" rx="5.24" transform="translate(-125.45 320.72) rotate(-65.45)"></rect><rect class="cls-3" x="215.08" y="245.71" width="10.8" height="24.52" rx="5.24" transform="translate(77.43 565.71) rotate(-114.55)"></rect><path class="cls-3" d="M145.91,221.43h0c-10.63,0-19.25-8.16-19.25-18.24v-6.08c0-10.07,8.62-18.24,19.25-18.24h0c10.63,0,19.24,8.17,19.24,18.24v6.08C165.15,213.27,156.54,221.43,145.91,221.43Z"></path><path class="cls-5" d="M145.91,178.87v21.28a9.63,9.63,0,0,0,19.24,0v-3C165.15,187,156.54,178.87,145.91,178.87Z"></path><ellipse class="cls-6" cx="145.91" cy="191.03" rx="6.42" ry="6.08"></ellipse><path class="cls-3" d="M261.39,221.43h0c-10.63,0-19.24-8.16-19.24-18.24v-6.08c0-10.07,8.61-18.24,19.24-18.24h0c10.63,0,19.25,8.17,19.25,18.24v6.08C280.64,213.27,272,221.43,261.39,221.43Z"></path><path class="cls-5" d="M261.39,178.87v21.28a9.64,9.64,0,0,0,19.25,0v-3C280.64,187,272,178.87,261.39,178.87Z"></path><ellipse class="cls-6" cx="261.39" cy="191.03" rx="6.42" ry="6.08"></ellipse></svg>