<svg viewBox="0 0 454 500" fill="none" xmlns="http://www.w3.org/2000/svg">
<path d="M453.326 341.049C453.326 352.943 450.188 364.628 444.227 374.923C438.267 385.218 429.695 393.76 419.377 399.686L260.375 491.009C250.118 496.9 238.495 500 226.665 500C214.835 500 203.212 496.9 192.955 491.009L33.9521 399.686C23.6335 393.76 15.0612 385.218 9.10012 374.923C3.13905 364.628 0.00011304 352.944 -3.14713e-05 341.049V158.951C-0.000228872 147.057 3.13822 135.372 9.09868 125.077C15.0591 114.782 23.6308 106.24 33.9487 100.314L192.951 8.99139C203.208 3.1002 214.831 0 226.661 0C238.491 0 250.114 3.1002 260.372 8.99139L419.374 100.314C429.693 106.24 438.265 114.782 444.226 125.077C450.187 135.372 453.326 147.056 453.326 158.951V341.049Z" fill="#1D86CC"/>
<path d="M207.065 34.4161L50.0926 125.039C44.1249 128.483 39.1691 133.436 35.7247 139.402C32.2802 145.367 30.4685 152.134 30.4709 159.022L30.5692 340.467C30.5736 347.344 32.3868 354.099 35.8271 360.055C39.2674 366.01 44.2137 370.957 50.1703 374.399L207.326 465.204C213.292 468.647 220.058 470.46 226.947 470.46C233.835 470.46 240.603 468.647 246.569 465.204L403.542 374.609C409.51 371.165 414.464 366.211 417.909 360.246C421.353 354.28 423.165 347.513 423.163 340.626L423.065 159.181C423.06 152.304 421.246 145.55 417.806 139.595C414.365 133.64 409.419 128.694 403.463 125.252L246.308 34.4431C240.343 31.0004 233.575 29.188 226.687 29.188C219.798 29.188 213.031 31.0004 207.065 34.4431V34.4161Z" fill="white"/>
<path d="M155.254 403.875C155.496 402.693 156.025 401.588 156.796 400.659C203.752 321.02 250.717 241.384 297.69 161.751C298.342 160.645 298.948 159.509 299.502 158.518C299.09 157.798 298.62 157.947 298.221 157.947C278.152 158.018 258.084 158.146 238.002 158.122C237.144 158.107 236.302 158.355 235.589 158.833C234.876 159.31 234.326 159.995 234.014 160.794C218.876 185.817 203.718 210.832 188.542 235.841C156.392 288.86 124.239 341.878 92.082 394.894C91.7978 395.364 91.4999 395.824 91.2462 396.308C90.6778 397.403 90.0318 397.576 88.8782 396.906C83.8882 393.961 78.8443 391.11 73.5431 388.064L216.645 158.66C216.338 157.727 215.705 157.96 215.217 157.943C207.548 157.713 199.876 157.382 192.213 157.314C181.449 156.996 170.721 158.724 160.602 162.407C151.386 165.818 143.554 172.173 138.321 180.487C112.175 221.249 85.9295 261.948 59.5847 302.584C59.172 303.227 58.7325 303.856 58.3062 304.491C56.7974 304.491 57.0202 303.247 56.8815 302.378C56.748 301.069 56.7169 299.752 56.7873 298.439C56.7873 253.493 56.9429 208.547 56.6485 163.604C56.4122 159.731 57.3434 155.877 59.3229 152.539C61.3024 149.202 64.239 146.535 67.7516 144.884C102.33 125.181 136.684 105.071 171.15 85.168C186.533 76.285 201.963 67.4865 217.234 58.4174C220.107 56.4911 223.487 55.4624 226.947 55.4624C230.406 55.4624 233.787 56.4911 236.66 58.4174C264.739 74.8884 293.068 90.9772 321.292 107.215C342.581 119.467 363.88 131.698 385.188 143.907C386.714 144.776 388.198 145.706 389.731 146.561C392.223 147.885 394.283 149.894 395.669 152.35C397.055 154.807 397.709 157.609 397.553 160.425C397.593 209.316 397.593 258.207 397.553 307.098C397.652 308.301 397.521 309.512 397.167 310.666C395.475 312.299 394.864 310.466 394.248 309.597C391.711 306.03 389.434 302.273 387.076 298.581C368.194 269.038 349.249 239.535 330.24 210.072C323.853 200.113 317.385 190.195 311.066 180.196C309.591 177.863 309.324 177.83 307.849 180.335C298.313 196.462 288.783 212.593 279.259 228.727C278.736 229.624 278.511 230.663 278.615 231.696C278.72 232.728 279.149 233.701 279.84 234.475C287.693 247.14 295.532 259.814 303.355 272.496L343.469 337.352C348.882 346.117 354.303 354.874 359.734 363.623C360.742 364.796 361.309 366.283 361.338 367.829C360.252 369.987 357.988 370.592 356.104 371.572C353.012 373.804 349.613 375.578 346.013 376.837C344.071 376.354 343.384 374.602 342.463 373.168C330.044 353.806 317.785 334.346 305.447 314.937C292.757 294.986 280.128 274.961 267.384 255.031C265.75 252.475 265.489 252.458 263.953 255.031C252.867 273.673 241.933 292.403 230.82 311.024C230.252 311.897 229.972 312.926 230.021 313.966C230.071 315.006 230.446 316.005 231.094 316.82C246.064 339.881 260.689 363.146 275.5 386.322C279.631 392.781 283.791 399.216 287.848 405.722C288.639 406.986 289.722 408.247 289.005 409.958C285.117 412.982 280.921 415.589 276.488 417.736C262.653 425.781 248.813 433.816 234.965 441.839C232.747 443.27 230.162 444.031 227.521 444.031C224.881 444.031 222.297 443.27 220.079 441.839C199.681 430.044 179.247 418.303 158.775 406.614C157.365 406.054 156.144 405.104 155.254 403.875Z" fill="#2D374B"/>
<path d="M396.563 311.156C396.593 309.949 396.653 308.745 396.653 307.542C396.653 258.761 396.67 209.983 396.701 161.207C396.875 158.248 396.18 155.304 394.703 152.735C393.225 150.166 391.03 148.084 388.386 146.744C337.14 117.38 285.93 87.9487 234.759 58.4513C232.454 56.9529 229.767 56.1519 227.018 56.1447C224.269 56.1375 221.577 56.9244 219.265 58.4108C190.847 74.9189 162.393 91.3844 133.904 107.807C111.046 121.033 88.1894 134.262 65.3336 147.495C62.8925 148.76 60.8687 150.704 59.5058 153.091C58.1429 155.478 57.4989 158.208 57.6508 160.953C57.768 207.759 57.834 254.565 57.8498 301.371C57.8498 302.412 57.4271 303.572 58.3371 304.491C52.9243 313.5 46.977 322.156 41.2766 330.972C38.4213 335.385 35.5548 339.792 32.677 344.19C32.2169 344.893 31.6857 345.542 30.7757 346.797C30.708 345.323 30.6369 344.507 30.6369 343.696C30.6369 281.971 30.6482 220.246 30.6708 158.522C30.52 151.671 32.2601 144.911 35.6999 138.984C39.1397 133.057 44.146 128.191 50.1703 124.92C70.0422 113.126 90.178 101.771 110.182 90.1863C127.06 80.4173 143.88 70.5738 160.748 60.7879C176.479 51.658 192.051 42.2543 208.049 33.6215C214.177 30.2111 221.108 28.5079 228.119 28.69C235.13 28.872 241.963 30.9325 247.905 34.6562C260.761 41.9466 273.562 49.3722 286.38 56.737C298.437 63.6734 310.494 70.6145 322.549 77.5599C333.659 83.9531 344.772 90.3394 355.889 96.719C366.911 103.047 377.933 109.371 388.957 115.692C393.802 118.475 398.643 121.262 403.457 124.095C408.771 127.101 413.341 131.264 416.826 136.276C420.311 141.288 422.621 147.02 423.586 153.047C423.814 154.788 423.884 156.545 423.796 158.298C423.796 219.036 423.804 279.774 423.819 340.514C423.851 346.285 422.605 351.992 420.171 357.225C417.737 362.459 414.175 367.089 409.74 370.785C407.209 372.714 404.488 374.38 401.62 375.759C385.156 385.36 368.668 394.921 352.157 404.443C334.613 414.588 317.06 424.715 299.5 434.826C282.627 444.596 265.774 454.402 248.937 464.244C244.746 467.063 240.028 469.008 235.067 469.962C226.825 471.57 218.285 470.484 210.709 466.865C202.312 462.364 194.132 457.481 185.854 452.741C174.737 446.366 163.626 439.978 152.521 433.578C149.384 431.775 146.244 429.981 143.102 428.198C141.948 427.542 141.161 426.876 142.061 425.371C146.215 418.416 150.305 411.419 154.439 404.45C154.584 404.197 154.956 404.078 155.223 403.892C159.076 405.691 162.805 407.741 166.388 410.03C184.527 420.399 202.639 430.82 220.723 441.291C222.812 442.611 225.238 443.3 227.71 443.274C230.182 443.247 232.593 442.507 234.654 441.142C251.829 431.069 269.093 421.141 286.319 411.162C287.172 410.669 288.045 410.219 288.911 409.752C290.535 407.678 292.705 406.097 295.177 405.184C310.739 396.271 326.185 387.181 341.744 378.291C343.043 377.551 344.213 376.408 345.905 376.601L361.149 367.775C362.079 365.827 364.065 365.198 365.73 364.238C373.399 359.812 380.997 355.264 388.734 350.98C390.973 349.802 392.824 348.003 394.066 345.799C395.307 343.596 395.887 341.081 395.733 338.556C395.811 330.799 395.733 323.039 395.771 315.278C395.501 313.854 395.785 312.38 396.563 311.156Z" fill="#96BEDC"/>
<path d="M396.579 311.153C396.62 320.783 396.833 330.427 396.616 340.044C396.676 342.297 396.111 344.523 394.983 346.475C393.855 348.426 392.209 350.028 390.226 351.101C380.523 356.593 370.996 362.395 361.206 367.738C357.312 360.637 352.816 353.874 348.56 346.976C326.458 311.169 304.331 275.382 282.179 239.615C280.853 237.471 279.637 235.247 278.156 233.221C277.673 232.64 277.41 231.908 277.41 231.153C277.41 230.398 277.673 229.667 278.156 229.085C283.443 220.246 288.644 211.357 293.877 202.48L308.404 177.85C308.662 177.264 309.115 176.786 309.686 176.497C312.213 180.389 314.76 184.315 317.304 188.244C332.586 212.027 347.866 235.81 363.141 259.593C373.5 275.729 383.858 291.867 394.214 308.005C394.783 309.203 395.587 310.273 396.579 311.153Z" fill="#28A0F0"/>
<path d="M345.962 376.564C339.653 380.703 332.961 384.223 326.459 388.061C314.669 394.989 302.805 401.789 290.974 408.64C290.298 409.022 289.621 409.381 288.968 409.749C288.818 408.655 288.348 407.63 287.615 406.804C277.081 390.255 266.545 373.71 256.008 357.168C247.349 343.584 238.666 330.013 229.958 316.455C229.368 315.752 229.026 314.875 228.985 313.958C228.943 313.042 229.204 312.137 229.728 311.383C241.368 291.789 252.959 272.165 264.502 252.513C264.776 252.059 264.996 251.532 265.676 251.386C266.623 251.6 266.853 252.546 267.303 253.253C288.278 286.276 309.253 319.301 330.228 352.329C334.69 359.359 339.132 366.406 343.621 373.423C344.193 374.61 344.985 375.679 345.955 376.571L345.962 376.564Z" fill="#28A0F0"/>
</svg>
