<svg width="31" height="31" viewBox="0 0 31 31" fill="none" xmlns="http://www.w3.org/2000/svg">
<path fill-rule="evenodd" clip-rule="evenodd" d="M21.0258 26.2892C18.706 30.3072 13.5683 31.6838 9.55035 29.364C5.53235 27.0443 4.15573 21.9065 6.47555 17.8885C8.79525 13.8706 13.933 12.4939 17.951 14.8137C21.9689 17.1335 23.3456 22.2712 21.0258 26.2892ZM10.3904 27.909C13.6047 29.7648 17.715 28.6635 19.5708 25.4491C21.4266 22.2348 20.3253 18.1245 17.1109 16.2687C13.8965 14.4129 9.78635 15.5142 7.93055 18.7286C6.07475 21.943 7.17605 26.0532 10.3904 27.909Z" fill="#482402"/>
<path fill-rule="evenodd" clip-rule="evenodd" d="M18.2612 24.6931C16.8229 27.1842 13.6375 28.0377 11.1463 26.5995C8.65519 25.1612 7.80169 21.9758 9.23989 19.4847C10.6782 16.9935 13.8636 16.14 16.3548 17.5783C18.8459 19.0165 19.6994 22.2019 18.2612 24.6931ZM11.9864 25.1445C13.674 26.1188 15.8318 25.5406 16.8061 23.853C17.7804 22.1655 17.2022 20.0076 15.5147 19.0333C13.8271 18.059 11.6693 18.6372 10.695 20.3247C9.72069 22.0123 10.2989 24.1701 11.9864 25.1445Z" fill="#482402"/>
<path fill-rule="evenodd" clip-rule="evenodd" d="M16.0498 18.1067C13.8505 16.8369 11.0382 17.5904 9.76845 19.7898C8.49875 21.9891 9.25225 24.8013 11.4515 26.0711C13.6508 27.3409 16.4631 26.5873 17.7329 24.388C19.0026 22.1887 18.2491 19.3765 16.0498 18.1067ZM7.93055 18.7286C9.78635 15.5142 13.8965 14.4129 17.1109 16.2687C20.3253 18.1246 21.4266 22.2348 19.5708 25.4491C17.715 28.6635 13.6048 29.7649 10.3904 27.909C7.17605 26.0532 6.07475 21.943 7.93055 18.7286Z" fill="#F6E6D2"/>
<path d="M27.5949 8.1912C27.0495 9.1358 26.2446 9.8371 25.3222 10.257C24.6078 10.5822 24.1673 11.7813 24.6398 12.4081C26.4444 14.802 27.2697 17.8127 26.9415 20.7894C26.8896 21.2597 27.2063 21.6972 27.6486 21.8652C27.8573 21.9445 28.0625 22.0415 28.2621 22.1567C30.2711 23.3166 30.9594 25.8855 29.7995 27.8945C28.6396 29.9035 26.0708 30.5918 24.0618 29.4319L5.07357 18.469C3.06453 17.3092 2.3762 14.7403 3.53609 12.7313C4.69598 10.7223 7.26487 10.034 9.27387 11.1939C9.47347 11.3091 9.66007 11.4383 9.83307 11.5794C10.1997 11.8785 10.7369 11.934 11.1183 11.6539C13.532 9.8813 16.5521 9.0907 19.5276 9.4566C20.3067 9.5524 21.1249 8.5714 21.0493 7.79C20.9518 6.7813 21.1566 5.7335 21.702 4.7889C23.0939 2.3781 25.3365 3.0072 27.7472 4.399C27.7472 4.399 28.9868 5.7804 27.5949 8.1912Z" fill="#E89B37"/>
<path d="M27.5949 8.1912C27.0495 9.1358 26.2446 9.8371 25.3222 10.257C24.6078 10.5822 24.1673 11.7813 24.6398 12.4081C26.4444 14.802 27.2697 17.8127 26.9415 20.7894C26.8896 21.2597 27.2063 21.6972 27.6486 21.8652C27.8573 21.9445 28.0625 22.0415 28.2621 22.1567C30.2711 23.3166 30.9594 25.8855 29.7995 27.8945C28.6396 29.9035 26.0708 30.5918 24.0618 29.4319L5.07357 18.469C3.06453 17.3092 2.3762 14.7403 3.53609 12.7313C4.69598 10.7223 7.26487 10.034 9.27387 11.1939C9.47347 11.3091 9.66007 11.4383 9.83307 11.5794C10.1997 11.8785 10.7369 11.934 11.1183 11.6539C13.532 9.8813 16.5521 9.0907 19.5276 9.4566C20.3067 9.5524 21.1249 8.5714 21.0493 7.79C20.9518 6.7813 21.1566 5.7335 21.702 4.7889C23.0939 2.3781 25.3365 3.0072 27.7472 4.399C27.7472 4.399 28.9868 5.7804 27.5949 8.1912Z" fill="url(#paint0_linear_2_81)"/>
<path d="M25.7046 20.0754C26.0329 17.0987 25.2075 14.0879 23.4029 11.6941L22.9435 12.4899C23.6379 15.8009 23.0738 15.8632 22.7946 18.3953C22.7427 18.8656 23.0593 19.303 23.5016 19.471C23.7104 19.5503 23.9155 19.6473 24.1152 19.7625C26.1242 20.9224 26.8125 23.4913 25.6526 25.5003C24.4927 27.5093 21.9238 28.1976 19.9148 27.0377L22.8249 28.7179C24.8339 29.8777 27.4028 29.1894 28.5627 27.1804C29.7226 25.1714 29.0342 22.6026 27.0252 21.4427C26.8256 21.3274 26.6205 21.2304 26.4117 21.1511C25.9694 20.9832 25.6528 20.5457 25.7046 20.0754Z" fill="#E28432"/>
<path fill-rule="evenodd" clip-rule="evenodd" d="M24.6257 8.7279C25.24 8.4482 25.7748 7.9828 26.1395 7.3512C27.0674 5.744 26.5167 3.6889 24.9095 2.761C23.3023 1.83305 21.2472 2.3837 20.3193 3.9909C19.9547 4.6225 19.819 5.3184 19.8839 5.9902C19.9794 6.9776 19.5299 7.8613 19.0301 8.4268C18.5411 8.9802 17.6374 9.6278 16.4848 9.4861C13.9349 9.1725 11.3439 9.8507 9.27515 11.37C8.17505 12.1779 6.79005 11.9421 5.93345 11.2433C5.82985 11.1588 5.71755 11.0809 5.59615 11.0108C4.39075 10.3149 2.84942 10.7279 2.15349 11.9333C1.45755 13.1387 1.87055 14.68 3.07594 15.3759L24.9014 27.9769C26.1068 28.6729 27.6483 28.2599 28.3442 27.0545C29.0401 25.8491 28.627 24.3077 27.4216 23.6118C27.3003 23.5417 27.1767 23.4834 27.0518 23.4359C26.0183 23.0434 25.1215 21.9619 25.2711 20.6053C25.5524 18.0541 24.8442 15.471 23.2978 13.4196C22.5987 12.4922 22.7077 11.3858 22.9424 10.6856C23.1823 9.97 23.7229 9.1389 24.6257 8.7279ZM25.3218 10.257C26.2442 9.8371 27.0492 9.1358 27.5946 8.1912C28.9865 5.7804 28.1604 2.6978 25.7496 1.30593C23.3388 -0.0859418 20.2561 0.740058 18.8643 3.1508C18.3189 4.0954 18.114 5.1432 18.2116 6.152C18.2871 6.9333 17.4689 7.9143 16.6898 7.8185C13.7144 7.4526 10.6943 8.2432 8.28065 10.0158C7.89925 10.2959 7.36205 10.2404 6.99545 9.9414C6.82245 9.8002 6.63585 9.6711 6.43625 9.5558C4.42722 8.3959 1.85834 9.0842 0.698449 11.0932C-0.461441 13.1022 0.226889 15.6711 2.23588 16.831L24.0614 29.432C26.0704 30.5918 28.6392 29.9035 29.7991 27.8945C30.959 25.8855 30.2707 23.3167 28.2617 22.1568C28.0621 22.0415 27.857 21.9445 27.6483 21.8652C27.2059 21.6973 26.8892 21.2598 26.9411 20.7895C27.2693 17.8128 26.4441 14.802 24.6395 12.4082C24.167 11.7814 24.6074 10.5823 25.3218 10.257Z" fill="#482402"/>
<path fill-rule="evenodd" clip-rule="evenodd" d="M17.5442 12.5973C17.432 13.0475 16.9759 13.3214 16.5258 13.2092C16.0242 13.0842 15.1037 12.9924 14.0923 13.1728C13.0904 13.3515 12.0464 13.7876 11.2177 14.6712C10.9003 15.0096 10.3687 15.0266 10.0302 14.7092C9.69185 14.3919 9.67485 13.8602 9.99225 13.5218C11.1272 12.3117 12.5338 11.7441 13.7973 11.5188C15.0511 11.2952 16.2107 11.3991 16.9323 11.579C17.3824 11.6912 17.6564 12.1471 17.5442 12.5973Z" fill="#482402"/>
<defs>
<linearGradient id="paint0_linear_2_81" x1="4.89911" y1="10.3681" x2="30.1851" y2="25.0692" gradientUnits="userSpaceOnUse">
<stop stop-color="#EFC443"/>
<stop offset="1" stop-color="#E69536"/>
</linearGradient>
</defs>
</svg>
