<svg viewBox="0 0 433 500" fill="none" xmlns="http://www.w3.org/2000/svg">
<path d="M216.173 0.351196L83.643 76.7834L132.368 105.02L216.173 56.8234L299.978 105.02L348.702 76.7834L216.173 0.351196ZM299.978 144.94L348.702 173.176V229.648L264.896 277.844V374.237L216.173 402.474L167.449 374.237V277.844L83.643 229.648V173.176L132.368 144.94L216.173 193.135L299.978 144.94ZM348.702 269.568V326.041L299.978 354.278V297.803L348.702 269.568ZM299.49 394.196L383.298 346V249.607L432.02 221.372V374.237L299.49 450.668V394.196ZM383.298 153.216L334.572 124.98L383.298 96.7435L432.02 124.98V181.452L383.298 209.689V153.216ZM167.449 471.116V414.644L216.173 442.879L264.896 414.644V471.116L216.173 499.351L167.449 471.116ZM132.368 354.278L83.643 326.041V269.568L132.368 297.803V354.278ZM216.173 153.216L167.449 124.98L216.173 96.7435L264.896 124.98L216.173 153.216ZM97.773 124.98L49.0486 153.216V209.689L0.324585 181.452V124.98L49.0486 96.7435L97.773 124.98ZM0.324585 221.372L49.0486 249.607V346L132.854 394.196V450.668L0.324585 374.237V221.372Z" fill="#F0B90B"/>
</svg>
