<svg width="2555" height="407" viewBox="0 0 2555 407" fill="none" xmlns="http://www.w3.org/2000/svg">
<path fill-rule="evenodd" clip-rule="evenodd" d="M330.253 51.9536C330.253 23.2601 353.52 0 382.223 0C410.926 0 434.195 23.2601 434.195 51.9552V201.523H502.145V93.1962C502.145 76.642 515.569 63.2222 532.129 63.2222C548.688 63.2222 562.112 76.642 562.112 93.1962V201.523H502.145V321.66C502.145 340.422 486.931 355.631 468.164 355.631C449.398 355.631 434.183 340.422 434.183 321.66V201.525H330.253V353.046C330.253 382.843 306.089 407 276.282 407C246.476 407 222.313 382.843 222.313 353.046V201.523H330.253V51.9536ZM154.346 101.147C154.346 82.3855 169.56 67.176 188.326 67.176C207.094 67.176 222.308 82.3855 222.308 101.147V201.526H154.346V101.147ZM110.371 296.361C134.658 296.361 154.346 276.679 154.346 252.4V201.526H66.3952V252.4C66.3952 276.679 86.0836 296.361 110.371 296.361ZM627 234.482C627 252.81 612.138 267.668 593.806 267.668C575.472 267.668 560.611 252.81 560.611 234.482V201.668H627V234.482ZM33.1944 135.666C14.8623 135.666 0 150.524 0 168.85V201.666H66.3887V168.85C66.3887 150.524 51.528 135.666 33.1944 135.666Z" fill="url(#paint0_linear_364_62924)"/>
<path d="M828.013 315.707C790.253 315.707 760.046 306.566 737.391 287.885C714.735 269.601 703.208 244.959 703.208 214.354C703.208 183.749 714.735 159.503 737.391 140.823C760.046 122.539 790.651 113 828.013 113C864.977 113 895.184 120.949 917.84 136.848C940.495 152.747 952.419 173.415 952.817 199.648V230.65H773.56C779.919 254.1 804.96 265.627 848.283 265.627C856.233 265.627 864.182 265.229 871.734 264.832C879.286 264.434 885.248 263.639 890.017 262.447C894.787 261.652 900.351 260.062 906.313 258.472C912.275 256.485 916.647 255.293 919.43 254.1C922.212 253.305 926.187 251.318 932.149 248.933C937.713 246.548 941.688 245.356 943.675 244.561V296.629C924.199 303.386 906.313 308.156 890.415 310.938C874.914 314.118 853.848 315.707 828.013 315.707ZM772.367 204.02L884.453 201.635C883.658 190.108 878.093 180.967 867.759 174.21C857.425 167.85 844.309 164.671 828.013 164.671C812.909 164.671 800.587 168.248 790.253 175.005C780.317 182.556 774.355 192.096 772.367 204.02ZM964.343 309.745V119.359H1041.85L1033.5 197.66H1036.68C1041.85 169.043 1052.58 147.977 1068.88 134.066C1085.17 120.154 1109.02 113.397 1140.42 113.397C1160.69 113.795 1176.99 116.975 1188.91 123.732C1200.84 130.489 1209.98 142.015 1216.34 158.709C1222.7 175.402 1225.48 198.058 1225.48 227.47V310.143H1153.93V234.227C1153.93 207.994 1149.96 189.313 1142.01 178.979C1134.06 168.248 1120.55 163.081 1101.07 163.081C1081.6 163.081 1066.09 171.427 1053.77 187.724C1041.85 204.417 1035.49 225.88 1035.49 252.113V310.54L964.343 309.745ZM1243.76 309.745V277.153L1393.21 168.645H1246.94V119.359H1517.62V151.554L1368.96 260.46H1513.64V309.745H1243.76ZM1602.28 385.661L1648.38 307.361L1529.94 119.359H1611.02L1684.95 242.574L1758.48 119.359H1837.18L1680.97 385.661H1602.28ZM1846.72 309.745V119.359H1924.22L1915.88 197.66H1919.06C1924.22 169.043 1934.95 147.977 1951.25 134.066C1967.55 120.154 1991.39 113.397 2022.79 113.397C2049.42 113.795 2068.9 120.154 2082.02 132.476C2094.74 144.4 2102.68 166.26 2105.47 197.66H2108.65C2113.81 169.043 2124.54 147.977 2140.84 134.066C2157.14 120.154 2180.98 113.397 2212.38 113.397C2233.05 113.795 2248.95 116.975 2260.88 123.732C2272.8 130.489 2281.94 142.015 2288.3 158.709C2294.66 175.402 2297.84 198.058 2297.84 227.47V310.143H2226.3V234.227C2226.3 207.597 2222.32 188.916 2214.37 178.582C2206.42 168.248 2192.91 163.081 2173.83 163.081C2154.35 163.081 2138.85 171.427 2126.53 187.724C2114.61 204.417 2108.65 225.88 2108.65 252.113V310.54H2037.1V234.227C2037.1 207.597 2033.13 188.916 2025.18 178.582C2017.23 168.248 2003.72 163.081 1984.24 163.081C1964.76 163.081 1949.26 171.427 1936.94 187.724C1925.02 204.417 1918.66 225.88 1918.66 252.113V310.54L1846.72 309.745ZM2430.2 315.707C2392.44 315.707 2362.23 306.566 2339.57 287.885C2316.52 269.601 2305.39 244.959 2305.39 214.354C2305.39 183.749 2316.92 159.503 2339.57 140.823C2362.23 122.539 2392.83 113 2430.2 113C2467.16 113 2497.37 120.949 2520.02 136.848C2542.68 152.747 2554.6 173.415 2555 199.648V230.65H2375.74C2382.1 254.1 2407.14 265.627 2450.47 265.627C2458.42 265.627 2466.37 265.229 2473.92 264.832C2481.47 264.434 2487.43 263.242 2492.2 262.447C2496.97 261.652 2502.53 260.062 2508.5 258.472C2514.46 256.485 2518.83 255.293 2521.61 254.1C2524.4 252.908 2528.37 251.318 2534.33 248.933C2539.9 246.548 2543.87 245.356 2545.86 244.561V296.629C2526.38 303.386 2508.5 308.156 2492.6 310.938C2477.1 314.118 2456.43 315.707 2430.2 315.707ZM2374.55 204.02L2486.64 201.635C2485.84 190.108 2480.28 180.967 2469.94 174.21C2459.61 167.85 2446.49 164.671 2430.2 164.671C2415.09 164.671 2402.77 168.248 2392.44 175.005C2382.5 182.556 2376.54 192.096 2374.55 204.02Z" fill="black"/>
<defs>
<linearGradient id="paint0_linear_364_62924" x1="313.5" y1="0" x2="313.5" y2="407" gradientUnits="userSpaceOnUse">
<stop offset="0.0547478" stop-color="#6F56FD"/>
<stop offset="0.384211" stop-color="#00CABE"/>
<stop offset="0.592893" stop-color="#00CABE"/>
<stop offset="0.89431" stop-color="#6F56FD"/>
</linearGradient>
</defs>
</svg>
