<svg width="38" height="53" viewBox="0 0 38 53" fill="none" xmlns="http://www.w3.org/2000/svg">
<path fill-rule="evenodd" clip-rule="evenodd" d="M20.8919 48.1001H17.4642L17.6478 51.5L11.7435 48.0083L11.6234 47.4663C9.70135 38.8363 2.46005 36.3389 2.38605 36.3159L1.58819 36.0513L1.51202 35.2153C1.48902 34.9633 1.3425 32.3623 3.2005 18.8613C5.1925 4.37433 18.7969 1.57388 18.9339 1.54688L19.178 1.5L19.4222 1.54688C19.5592 1.57388 33.1636 4.37433 35.1566 18.8613C37.0136 32.3613 36.8661 34.9633 36.8441 35.2153L36.7679 36.0513L35.9691 36.3159C35.6751 36.4159 28.6417 38.8923 26.7327 47.4663L26.6136 48.0083L20.7083 51.5L20.8919 48.1001Z" fill="#002D56"/>
<path d="M20.9308 48.5325H17.4049L17.5939 52.0005L11.5232 48.4386L11.3997 47.8858C9.42331 39.0832 1.97644 36.5362 1.90138 36.5128L1.08096 36.2425L1.00264 35.3898C0.978988 35.1328 0.827818 32.4797 2.73836 18.7087C4.7867 3.93196 18.7766 1.07597 18.9175 1.04843L19.1672 1.00049L19.4193 1.04843C19.5602 1.07597 33.5488 3.93196 35.5981 18.7087C37.5077 32.4787 37.3565 35.1338 37.3329 35.3898L37.2558 36.2425L36.4341 36.5138C36.1318 36.6158 28.9001 39.1403 26.9371 47.8858L26.8126 48.4386L20.7415 52.0005L20.9308 48.5325Z" stroke="white" stroke-width="1.02413" stroke-linecap="round" stroke-linejoin="round"/>
<path fill-rule="evenodd" clip-rule="evenodd" d="M16.0058 46.8179H22.7626L26.3827 27.8242C26.3827 27.8242 30.9939 22.3671 30.8729 17.4531L22.0517 20.167L20.1278 27.5029L19.5692 30.231L18.8436 21.5679L16.2587 20.168L7.80849 16.9331C7.80849 16.9331 7.39143 26.838 14.3524 28.146L16.0058 46.8179Z" fill="#002D56"/>
<path fill-rule="evenodd" clip-rule="evenodd" d="M33.8839 19.0352C31.9939 5.29016 19.1769 2.80615 19.1769 2.80615C19.1769 2.80615 6.36184 5.29016 4.47084 19.0352C2.58084 32.7802 2.79115 35.0981 2.79115 35.0981C2.79115 35.0981 10.7751 37.748 12.8751 47.188L16.2345 49.1743L14.9747 25.9902C14.9747 25.9902 8.25189 24.9971 9.30189 18.8701L16.6564 21.686L17.4962 30.2969L19.1769 30.7939L20.8576 30.2969L21.6984 21.686L29.0519 18.8701C30.1019 24.9981 23.38 25.9902 23.38 25.9902L22.1193 49.1743L25.4796 47.187C27.5806 37.747 35.5646 35.0981 35.5646 35.0981C35.5646 35.0981 35.7749 32.7802 33.8839 19.0352Z" fill="#78848A"/>
<path fill-rule="evenodd" clip-rule="evenodd" d="M15.0854 25.9912L16.3324 48.9209L16.3227 49.1611L15.7123 48.8013L13.5805 27.022L11.1205 25.5249C7.27053 22.9589 9.41252 18.8701 9.41252 18.8701C8.36352 24.9971 15.0854 25.9912 15.0854 25.9912Z" fill="#B0BFC6"/>
<path fill-rule="evenodd" clip-rule="evenodd" d="M4.40723 26.6191L4.08691 34.2393C4.08691 34.2393 9.05842 36.2429 10.9824 41.7769L9.54004 34.479C9.54004 34.479 7.13353 35.1992 5.76953 33.5972C4.40653 31.9942 4.40723 26.6191 4.40723 26.6191Z" fill="#B0BFC6"/>
<path fill-rule="evenodd" clip-rule="evenodd" d="M13.2295 48.1929L8.84473 30.6553C8.84473 30.6553 10.0487 40.8952 10.2617 42.1782C10.2607 42.1802 12.0525 47.7659 13.2295 48.1929Z" fill="#002D56"/>
<path fill-rule="evenodd" clip-rule="evenodd" d="M23.3809 25.9912L22.1338 48.9209L22.1445 49.1611L22.7539 48.8013L24.8867 27.022L27.3467 25.5249C31.1957 22.9589 29.0527 18.8701 29.0527 18.8701C30.1027 24.9971 23.3809 25.9912 23.3809 25.9912Z" fill="#ACBAC3"/>
<path fill-rule="evenodd" clip-rule="evenodd" d="M34.0811 26.6191L34.4004 34.2393C34.4004 34.2393 29.4289 36.2429 27.5039 41.7769L28.9482 34.479C28.9482 34.479 31.3528 35.1992 32.7178 33.5972C34.0818 31.9942 34.0811 26.6191 34.0811 26.6191Z" fill="#919EA5"/>
<path fill-rule="evenodd" clip-rule="evenodd" d="M15.4736 6.0082C13.4083 6.84726 11.5855 8.18914 10.1709 9.91201C8.75627 11.6349 7.7951 13.6839 7.37402 15.873C8.09402 15.311 9.93912 12.1028 13.8701 11.9428C17.8001 11.7828 19.4036 9.61678 18.6816 7.69278C17.9596 5.76678 16.2776 5.6872 15.4736 6.0082Z" fill="#B0BFC6"/>
<path fill-rule="evenodd" clip-rule="evenodd" d="M9.61914 15.0712C9.61914 15.0712 10.7405 13.6268 12.1045 13.5468C13.4675 13.4668 10.5011 16.9152 9.61914 15.0712Z" fill="#B0BFC6"/>
</svg>
