<svg width="24" height="24" viewBox="0 0 24 24" fill="none" xmlns="http://www.w3.org/2000/svg">
<path d="M21.9043 2L13.32 8.37569L14.9075 4.61412L21.9043 2Z" fill="#E2761B"/>
<path d="M2.08698 2L10.6023 8.43608L9.09247 4.61412L2.08698 2Z" fill="#E4761B"/>
<path d="M18.8156 16.7789L16.5294 20.2816L21.4211 21.6275L22.8274 16.8565L18.8156 16.7789Z" fill="#E4761B"/>
<path d="M1.18109 16.8565L2.57874 21.6275L7.4705 20.2816L5.18423 16.7789L1.18109 16.8565Z" fill="#E4761B"/>
<path d="M7.19444 10.8604L5.8313 12.9224L10.6886 13.1381L10.516 7.91846L7.19444 10.8604Z" fill="#E4761B"/>
<path d="M16.7968 10.8604L13.4321 7.85803L13.3199 13.138L18.1686 12.9223L16.7968 10.8604Z" fill="#E4761B"/>
<path d="M7.47058 20.2816L10.3867 18.8581L7.86744 16.891L7.47058 20.2816Z" fill="#E4761B"/>
<path d="M13.6047 18.8581L16.5294 20.2816L16.1239 16.891L13.6047 18.8581Z" fill="#E4761B"/>
<path d="M16.5294 20.2816L13.6047 18.858L13.8377 20.7647L13.8118 21.5671L16.5294 20.2816Z" fill="#D7C1B3"/>
<path d="M7.47058 20.2816L10.1882 21.5671L10.171 20.7647L10.3867 18.858L7.47058 20.2816Z" fill="#D7C1B3"/>
<path d="M10.2313 15.6314L7.79834 14.9153L9.5152 14.1302L10.2313 15.6314Z" fill="#233447"/>
<path d="M13.7599 15.6314L14.476 14.1302L16.2015 14.9153L13.7599 15.6314Z" fill="#233447"/>
<path d="M7.47054 20.2816L7.88466 16.7789L5.18427 16.8565L7.47054 20.2816Z" fill="#CD6116"/>
<path d="M16.1152 16.7789L16.5293 20.2816L18.8156 16.8565L16.1152 16.7789Z" fill="#CD6116"/>
<path d="M18.1686 12.9224L13.3199 13.1381L13.7686 15.6314L14.4847 14.1303L16.2101 14.9154L18.1686 12.9224Z" fill="#CD6116"/>
<path d="M7.79836 14.9154L9.52385 14.1303L10.2313 15.6314L10.6886 13.1381L5.8313 12.9224L7.79836 14.9154Z" fill="#CD6116"/>
<path d="M5.83136 12.9224L7.86744 16.8911L7.79842 14.9154L5.83136 12.9224Z" fill="#E4751F"/>
<path d="M16.2102 14.9154L16.1239 16.8911L18.1686 12.9224L16.2102 14.9154Z" fill="#E4751F"/>
<path d="M10.6886 13.1381L10.2314 15.6314L10.8008 18.5734L10.9302 14.6996L10.6886 13.1381Z" fill="#E4751F"/>
<path d="M13.3199 13.1381L13.087 14.691L13.1905 18.5734L13.7685 15.6314L13.3199 13.1381Z" fill="#E4751F"/>
<path d="M13.7686 15.6314L13.1906 18.5734L13.6047 18.8581L16.1239 16.891L16.2102 14.9153L13.7686 15.6314Z" fill="#F6851B"/>
<path d="M7.79834 14.9153L7.86736 16.891L10.3866 18.8581L10.8007 18.5734L10.2313 15.6314L7.79834 14.9153Z" fill="#F6851B"/>
<path d="M13.8118 21.567L13.8376 20.7647L13.622 20.5749H10.3694L10.171 20.7647L10.1882 21.567L7.47058 20.2816L8.4196 21.058L10.3435 22.3953H13.6478L15.5804 21.058L16.5294 20.2816L13.8118 21.567Z" fill="#C0AD9E"/>
<path d="M13.6047 18.858L13.1906 18.5733H10.8008L10.3867 18.858L10.171 20.7647L10.3695 20.5749H13.622L13.8377 20.7647L13.6047 18.858Z" fill="#161616"/>
<path d="M22.2667 8.7898L23 5.2698L21.9043 2L13.6047 8.16L16.7969 10.8604L21.3091 12.1804L22.3098 11.0157L21.8785 10.7051L22.5687 10.0753L22.0338 9.66118L22.724 9.1349L22.2667 8.7898Z" fill="#763D16"/>
<path d="M1 5.2698L1.73333 8.7898L1.26745 9.1349L1.95765 9.66118L1.43137 10.0753L2.12157 10.7051L1.6902 11.0157L2.68235 12.1804L7.19451 10.8604L10.3867 8.16L2.08706 2L1 5.2698Z" fill="#763D16"/>
<path d="M21.3091 12.1804L16.7969 10.8604L18.1687 12.9224L16.124 16.891L18.8157 16.8565H22.8275L21.3091 12.1804Z" fill="#F6851B"/>
<path d="M7.19443 10.8604L2.68227 12.1804L1.18109 16.8565H5.18423L7.86737 16.891L5.83129 12.9224L7.19443 10.8604Z" fill="#F6851B"/>
<path d="M13.3199 13.1381L13.6046 8.16002L14.916 4.61414H9.09247L10.3866 8.16002L10.6885 13.1381L10.7921 14.7083L10.8007 18.5734H13.1905L13.2078 14.7083L13.3199 13.1381Z" fill="#F6851B"/>
</svg>
