<svg width="30" height="30" viewBox="0 0 30 30" fill="none" xmlns="http://www.w3.org/2000/svg">
<path fill-rule="evenodd" clip-rule="evenodd" d="M1.39705 16.7303C1.895 16.7563 2.39289 16.6782 2.85898 16.5011C3.32506 16.3239 3.7491 16.0515 4.10405 15.7013L11.7801 8.11033C12.1567 7.73963 12.6339 7.48771 13.1525 7.38585C13.6711 7.28398 14.2082 7.33666 14.6971 7.53733C15.6971 7.94733 16.3491 8.91233 16.3491 9.98233V17.1623L22.7071 10.8723C23.4284 10.1613 24.292 9.61082 25.241 9.257C26.1901 8.90319 27.2033 8.75404 28.2141 8.81933L28.25 8.82133C25.335 2.10233 17.8351 -1.43667 10.7201 0.550333C3.60805 2.53733 -0.91295 9.43433 0.15605 16.6683L1.39705 16.7303Z" fill="url(#paint0_linear_2_163)"/>
<path fill-rule="evenodd" clip-rule="evenodd" d="M27.986 12.3403C27.4805 12.3072 26.9736 12.3817 26.4989 12.5587C26.0243 12.7357 25.5925 13.0113 25.232 13.3673L17.349 21.1653C16.849 21.6623 16.169 21.9413 15.459 21.9423C13.981 21.9423 12.781 20.7563 12.781 19.2923V12.1123L6.63 18.1973C5.91962 18.8974 5.07137 19.4421 4.13914 19.7968C3.20691 20.1514 2.21111 20.3082 1.215 20.2573L1.177 20.2543C4.076 26.9943 11.587 30.5563 18.715 28.5693C25.843 26.5833 30.37 19.6683 29.285 12.4223L27.987 12.3393L27.986 12.3403Z" fill="url(#paint1_linear_2_163)"/>
<defs>
<linearGradient id="paint0_linear_2_163" x1="19.49" y1="13.8803" x2="9.60105" y2="3.45633" gradientUnits="userSpaceOnUse">
<stop stop-color="#39A5FF"/>
<stop offset="1" stop-color="#1C84FF"/>
</linearGradient>
<linearGradient id="paint1_linear_2_163" x1="15.31" y1="12.1113" x2="15.31" y2="29.1183" gradientUnits="userSpaceOnUse">
<stop stop-color="#67B5FF"/>
<stop offset="1" stop-color="#66C2FF"/>
</linearGradient>
</defs>
</svg>
