<svg width="46" height="41" viewBox="0 0 46 41" fill="none" xmlns="http://www.w3.org/2000/svg">
<path d="M38.4695 7.86778C40.6422 7.86778 42.4034 6.10651 42.4034 3.93389C42.4034 1.76126 40.6422 0 38.4695 0C36.2969 0 34.5356 1.76126 34.5356 3.93389C34.5356 6.10651 36.2969 7.86778 38.4695 7.86778Z" fill="url(#paint0_linear_2_100)"/>
<path d="M19.4116 1.32031C15.5727 1.31987 11.8199 2.45784 8.62774 4.59031C5.43559 6.72277 2.94749 9.75395 1.4781 13.3005C0.00870717 16.8471 -0.375981 20.7497 0.372684 24.5149C1.12135 28.2801 2.96974 31.7388 5.68411 34.4535C8.39847 37.1681 11.8569 39.0169 15.622 39.766C19.3871 40.5151 23.2898 40.1309 26.8366 38.6619C30.3833 37.1929 33.4148 34.7051 35.5476 31.5132C36.7819 29.666 34.4597 25.1309 35 23C35.3933 21.4489 38.8188 22.3469 38.8188 20.7297C38.8188 15.5824 36.7742 10.6459 33.1347 7.00598C29.4952 3.36608 24.5589 1.3209 19.4116 1.32031ZM19.365 31.3757C17.2138 31.3774 15.1105 30.741 13.3211 29.547C11.5317 28.353 10.1368 26.655 9.31276 24.6679C8.48874 22.6808 8.27267 20.494 8.69191 18.3841C9.11115 16.2741 10.1469 14.336 11.668 12.8149C13.1891 11.2938 15.1272 10.2581 17.2371 9.83886C19.347 9.41962 21.5339 9.63568 23.521 10.4597C25.508 11.2837 27.206 12.6787 28.4 14.468C29.5941 16.2574 30.2305 18.3607 30.2287 20.5119C30.2281 23.3936 29.0836 26.1572 27.0466 28.1955C25.0095 30.2337 22.2466 31.38 19.365 31.3823V31.3757Z" fill="#69F5FD"/>
<path d="M15.0752 2.83838C13.5428 2.8381 12.0178 3.04976 10.5434 3.46736C6.93897 5.32191 4.00475 8.25724 2.15156 11.8624C0.298375 15.4675 -0.380977 19.562 0.208623 23.5724C2.51784 29.2688 8.30088 33.3093 15.0752 33.3093C19.2873 33.3301 23.3431 31.7149 26.3879 28.8043C24.3432 30.5347 21.7316 31.4491 19.0541 31.372C16.3766 31.2949 13.8219 30.2317 11.8802 28.3866C9.93852 26.5414 8.74661 24.0442 8.53322 21.3741C8.31983 18.704 9.09999 16.0492 10.724 13.919C12.348 11.7889 14.7014 10.3335 17.3327 9.83215C19.9639 9.33079 22.6876 9.81878 24.9812 11.2025C27.2747 12.5862 28.9764 14.7681 29.7598 17.3296C30.5433 19.8911 30.3532 22.6516 29.2261 25.0815C30.3959 22.9313 31.0072 20.5217 31.0041 18.0739C31.0152 9.65934 23.8786 2.83838 15.0752 2.83838Z" fill="url(#paint1_linear_2_100)"/>
<path d="M43.8881 17.8695C44.427 17.4644 44.8555 16.9304 45.1342 16.3166C45.413 15.7027 45.5331 15.0287 45.4835 14.3564C45.434 13.6841 45.2163 13.0349 44.8506 12.4686C44.4848 11.9023 43.9827 11.4369 43.3903 11.1152C43.0511 10.9294 42.6864 10.7946 42.3079 10.7151C41.9279 10.6307 40.561 10.384 38.3229 11.5441C36.8316 12.3176 35.8003 13.2799 34.8224 14.3201C33.1067 16.1544 31.5982 18.172 30.324 20.3365C30.2427 20.4558 30.1685 20.5797 30.1017 20.7076C29.9551 20.9772 29.8403 21.2629 29.7595 21.5589V21.5811C29.3683 24.7771 30.4129 27.3597 31.8709 27.7753C33.4911 28.2376 35.9159 26.1084 36.9449 24.1748C37.3672 23.3791 37.5361 22.6524 38.3851 21.6878C38.9497 21.0455 39.5164 20.6388 40.481 19.9564C41.278 19.3941 42.1045 18.8748 42.9569 18.4007C43.1191 18.3364 43.2772 18.2622 43.4303 18.1784C43.5892 18.0851 43.7421 17.9819 43.8881 17.8695Z" fill="url(#paint2_linear_2_100)"/>
<path d="M39.1825 19.3782C39.5012 18.6753 39.6114 17.8957 39.4999 17.132C39.3884 16.3683 39.06 15.6527 38.5536 15.0703C38.0473 14.4879 37.3843 14.0631 36.6436 13.8465C35.9028 13.6299 35.1155 13.6306 34.3751 13.8485C34.0017 13.9574 32.6815 14.3952 31.2636 16.4822C30.3234 17.8757 29.8767 19.2115 29.5166 20.5939C28.8849 23.0247 28.5242 25.518 28.4409 28.0283C28.4247 28.1759 28.4165 28.3243 28.4165 28.4728C28.4167 28.7789 28.4525 29.0839 28.5232 29.3818V29.4062C29.1477 31.1998 30.7168 32.4333 32.4371 32.5C34.6596 32.5867 36.262 30.6753 36.7154 29.2507C36.811 28.9506 36.8688 28.1638 36.9821 26.5836C37.1155 24.77 37.0666 24.53 37.1622 23.8832C37.3652 22.5953 37.8535 21.3689 38.5913 20.2938C38.7022 20.1583 38.8054 20.0166 38.9002 19.8693C39.0046 19.7118 39.0989 19.5477 39.1825 19.3782Z" fill="url(#paint3_linear_2_100)"/>
<path d="M36.6404 29.5464C36.7883 29.109 36.8633 28.6502 36.8627 28.1885C36.847 27.2073 36.5021 26.2599 35.8835 25.4982C35.2649 24.7365 34.4083 24.2047 33.4512 23.9881C32.4942 23.7716 31.4921 23.8828 30.6058 24.3039C29.7195 24.725 29.0003 25.4317 28.5637 26.3104C27.8695 27.4065 26.986 28.3705 25.9545 29.1575C25.8856 29.2264 25.8189 29.2975 25.7433 29.3798C24.1298 30.9666 22.4362 31.6334 21.0427 32.1846C18.5868 33.1514 9.66995 33.9915 4.56701 29.5175C2.53116 27.5173 0.226394 23.5812 0.219727 23.5723C0.901033 28.1783 3.21523 32.3859 6.74026 35.4279C10.2653 38.4699 14.7663 40.1435 19.4224 40.1435C22.2851 40.1435 25.201 39.2723 25.201 39.2723C28.8481 38.1369 32.0785 35.9495 34.4868 32.9847C35.0445 32.2857 35.5511 31.5474 36.0026 30.7755C36.2789 30.4136 36.4957 30.01 36.6449 29.5798L36.6404 29.5464Z" fill="url(#paint4_linear_2_100)"/>
<defs>
<linearGradient id="paint0_linear_2_100" x1="38.4697" y1="0.0211435" x2="37.8823" y2="5.93438" gradientUnits="userSpaceOnUse">
<stop stop-color="#FE37AF"/>
<stop offset="1" stop-color="#FE079C"/>
</linearGradient>
<linearGradient id="paint1_linear_2_100" x1="28.8949" y1="9.43263" x2="0.0019284" y2="22.5456" gradientUnits="userSpaceOnUse">
<stop stop-color="#09EFFB"/>
<stop offset="1" stop-color="#FE37AF"/>
</linearGradient>
<linearGradient id="paint2_linear_2_100" x1="45.5639" y1="10.6551" x2="32.7843" y2="26.1017" gradientUnits="userSpaceOnUse">
<stop stop-color="#891AEA"/>
<stop offset="1" stop-color="#A047EE"/>
</linearGradient>
<linearGradient id="paint3_linear_2_100" x1="33.7846" y1="13.7664" x2="31.4509" y2="27.6572" gradientUnits="userSpaceOnUse">
<stop stop-color="#FE37AF"/>
<stop offset="1" stop-color="#FE079C"/>
</linearGradient>
<linearGradient id="paint4_linear_2_100" x1="36.896" y1="27.3239" x2="10.8923" y2="35.5473" gradientUnits="userSpaceOnUse">
<stop stop-color="#891AEA"/>
<stop offset="1" stop-color="#FE079C"/>
</linearGradient>
</defs>
</svg>
