<svg width="56" height="51" viewBox="0 0 56 51" fill="none" xmlns="http://www.w3.org/2000/svg">
<path d="M29.032 8.25101L40.36 0.0100098L42.272 5.87801L29.032 15.514V8.25001V8.25101Z" fill="#FFC800"/>
<path d="M31.0959 17.097L45.2059 6.828L42.9839 0.006L50.4439 0L55.5159 15.571L42.2759 25.205L31.0959 17.097ZM29.0259 18.675L42.2429 28.267L29.0319 37.986L29.0259 18.676V18.675ZM29.0349 41.072L39.8099 33.23L42.2719 40.785L29.0319 50.421L29.0349 41.072Z" fill="#FFC800"/>
<path d="M26.4839 8.25101L15.1559 0.0100098L13.2429 5.87801L26.4839 15.514V8.25001V8.25101Z" fill="#E1AA00"/>
<path d="M24.42 17.097L10.307 6.828L12.529 0.006L5.071 0L0 15.571L13.24 25.205L24.42 17.097ZM26.49 18.675L13.27 28.267L26.484 37.986L26.49 18.676V18.675ZM26.481 41.072L15.703 33.23L13.243 40.785L26.484 50.421L26.481 41.072Z" fill="#E1AA00"/>
</svg>
