<svg viewBox="0 0 500 500" fill="none" xmlns="http://www.w3.org/2000/svg">
<path d="M378.59 164.465C369.452 159.243 357.702 159.243 347.258 164.465L274.151 207.546L224.543 234.961L152.742 278.042C143.603 283.264 131.854 283.264 121.41 278.042L65.2742 244.1C56.1358 238.878 49.6084 228.434 49.6084 216.684V151.41C49.6084 140.966 54.8303 130.522 65.2742 123.995L121.41 91.3578C130.548 86.1359 142.298 86.1359 152.742 91.3578L208.877 125.3C218.016 130.522 224.543 140.966 224.543 152.716V195.797L274.151 167.076V122.689C274.151 112.246 268.929 101.802 258.486 95.2743L154.047 33.9165C144.909 28.6945 133.159 28.6945 122.715 33.9165L15.6658 96.5797C5.22193 101.802 0 112.246 0 122.689V245.405C0 255.849 5.22193 266.293 15.6658 272.82L121.41 334.178C130.548 339.4 142.298 339.4 152.742 334.178L224.543 292.403L274.151 263.682L345.953 221.906C355.091 216.684 366.841 216.684 377.285 221.906L433.42 254.543C442.559 259.765 449.086 270.209 449.086 281.959V347.233C449.086 357.677 443.864 368.121 433.42 374.648L378.59 407.285C369.452 412.507 357.702 412.507 347.258 407.285L291.123 374.648C281.984 369.426 275.457 358.982 275.457 347.233V305.457L225.849 334.178V377.259C225.849 387.703 231.071 398.147 241.514 404.674L347.258 466.032C356.397 471.254 368.146 471.254 378.59 466.032L484.334 404.674C493.473 399.452 500 389.008 500 377.259V253.238C500 242.794 494.778 232.35 484.334 225.823L378.59 164.465Z" fill="#8247E5"/>
</svg>
