<svg width="146" height="146" viewBox="0 0 146 146" fill="none" xmlns="http://www.w3.org/2000/svg">
<g clip-path="url(#clip0_2_218)">
<mask id="mask0_2_218" style="mask-type:luminance" maskUnits="userSpaceOnUse" x="0" y="0" width="146" height="146">
<path d="M0 -1.57952e-06H146V146H0V-1.57952e-06Z" fill="white"/>
</mask>
<g mask="url(#mask0_2_218)">
<path d="M69.056 4.74418C81.9252 3.98167 94.9994 6.93866 106.249 13.2488C115.428 18.3545 123.394 25.6148 129.35 34.2669C134.404 41.609 138.016 49.9456 139.864 58.668C141.792 67.6927 141.871 77.109 140.103 86.1666C137.893 97.6212 132.632 108.455 125.063 117.325C118.106 125.494 109.213 132.007 99.3039 136.13C84.9425 142.157 68.4985 143.012 53.5736 138.572C44.4844 135.895 35.9784 131.273 28.7625 125.134C19.9842 117.698 13.1197 108.013 9.05446 97.2484C3.59328 82.9501 3.18331 66.8055 7.83896 52.2306C11.2147 41.6146 17.248 31.8587 25.2307 24.0882C33.0859 16.3995 42.8202 10.6369 53.3557 7.49793C58.4574 5.96552 63.7394 5.04514 69.056 4.74418Z" fill="white"/>
<path d="M30.9158 68.0512C31.186 69.2996 31.349 70.5672 31.6182 71.8178C31.7831 72.584 32.0336 72.3977 32.4266 72.0677C33.1794 71.4353 33.9026 70.7648 34.751 70.2546C34.9888 70.3019 35.1115 70.4921 35.2429 70.6636C37.4592 73.5579 40.4068 75.3305 43.8799 76.2967C45.4483 76.7331 47.0416 77.0333 48.7808 77.2067C48.2361 76.5546 47.7971 75.9558 47.4931 75.2704C46.9386 74.0212 47.1327 72.904 48.0683 71.9167C49.2104 70.7117 50.7185 70.2131 52.2488 69.8143C55.4565 68.9782 58.7245 68.8953 62.0175 69.1285C64.6714 69.3165 67.2801 69.7475 69.8377 70.4619C71.9708 71.058 74.0652 71.7709 75.9564 72.9681C76.222 73.181 76.4046 73.474 76.66 73.6973C79.0923 76.3068 80.5105 79.3915 80.607 82.9541C80.6736 85.4149 79.9925 87.7647 78.7592 89.9263C76.5354 93.825 73.2911 96.6545 69.4221 98.8239C65.4425 101.055 61.1698 102.374 56.6401 102.865C48.6126 103.736 41.175 101.996 34.3344 97.7347C28.647 94.1924 24.2785 89.3485 20.713 83.7331C19.0271 81.0777 17.6205 78.2753 16.3297 75.4115C16.1718 75.0613 16.1348 74.6706 15.9738 74.3815C16.0762 74.7228 16.2642 75.1075 15.8913 75.4717C15.7772 74.0212 15.9066 72.5721 15.9826 71.1283C16.1918 67.1399 16.7766 63.2024 17.8286 59.3435C19.8792 51.8224 23.2859 44.9834 28.1331 38.867C34.4556 30.8887 42.3467 25.0086 51.7934 21.237C56.8293 19.2263 62.058 17.9989 67.4694 17.5003C75.9514 16.719 84.1696 17.8363 92.1839 20.6822C90.965 22.9952 84.0042 29.1924 78.5975 32.7799C78.4519 31.185 78.0703 29.675 77.5381 28.2027C77.5103 27.8105 77.8616 27.6878 78.0801 27.5C79.2043 26.5337 80.3343 25.5741 81.4729 24.6246C81.5848 24.5311 81.702 24.4425 81.8009 24.3355C81.9294 24.1965 82.1453 24.0826 82.1007 23.8675C82.052 23.6337 81.7996 23.6434 81.6195 23.6148C81.0921 23.5309 80.5693 23.405 80.0289 23.4153C79.2884 23.3265 78.5585 23.1605 77.8099 23.1461C77.236 23.1114 76.6716 22.9654 76.0915 23.0121C75.7993 22.9919 75.5038 23.0162 75.215 22.9494C74.7285 22.7955 74.2292 22.8636 73.7335 22.8663C73.4382 22.8611 73.1427 22.8437 72.8472 22.8702C71.9994 22.9181 71.1474 22.7768 70.3029 22.9356C70.0968 22.9822 69.8883 23.0036 69.6773 22.9985C69.4326 23.0026 69.1879 23.0098 68.943 23.0061C68.6228 22.9882 68.3041 22.9886 67.9953 23.0962C67.1012 23.1772 66.2062 23.2485 65.322 23.4114C64.2568 23.6364 63.1633 23.6913 62.1047 23.9535C61.1328 24.2064 60.1337 24.3514 59.1806 24.6812C57.9132 25.0306 56.6609 25.4299 55.4133 25.8436C53.5957 26.5662 51.7508 27.2257 50.0208 28.1527C46.0737 30.045 42.4825 32.4786 39.1841 35.3439C36.1477 37.9814 33.4377 40.924 31.0838 44.1893C29.9071 45.8212 28.8354 47.5193 27.865 49.2816C27.2485 50.4296 26.6536 51.588 26.1179 52.7761C25.7225 53.693 25.2575 54.5801 24.9542 55.5357C24.566 56.4903 24.2452 57.4683 23.939 58.4514C23.5726 59.4364 23.3598 60.4654 23.0725 61.473C22.9487 61.8678 22.8712 62.2743 22.7751 62.676C22.6522 63.161 22.5779 63.655 22.4891 64.1466C22.3376 64.9733 22.1992 65.802 22.0805 66.6342C21.9172 67.4894 21.8424 68.3549 21.7753 69.2213C21.6318 69.7942 21.7369 70.388 21.6322 70.9638C21.4718 71.6825 21.5775 72.414 21.5304 73.137C21.5093 73.6449 21.5 74.1544 21.5127 74.6634C21.5177 74.8729 21.418 75.1645 21.6376 75.2659C21.8895 75.3819 22.071 75.1162 22.2526 74.9679C22.8718 74.4619 23.4763 73.9375 24.0821 73.4162C26.1206 71.6611 28.1841 69.9357 30.2302 68.1898C30.4072 68.0389 30.5995 67.6461 30.9158 68.0512Z" fill="#4189C9"/>
<path d="M75.9415 73.1514C73.5346 71.7213 70.9019 70.8885 68.2006 70.2481C64.636 69.4032 61.014 69.0706 57.3615 69.2537C54.7884 69.3828 52.2387 69.7404 49.8705 70.8706C49.5863 71.0061 49.3113 71.1669 49.0496 71.3425C47.1326 72.6287 46.8413 74.3412 48.2277 76.1934C48.5145 76.5763 48.8339 76.9349 49.2202 77.4042C47.9762 77.4091 46.874 77.1716 45.7753 76.9538C42.8337 76.3706 40.0689 75.3493 37.6984 73.4568C36.5571 72.5459 35.5137 71.5239 34.751 70.2545C35.0624 69.7478 35.5832 69.5101 36.0702 69.229C37.0091 68.8352 37.86 68.2726 38.7884 67.8486C42.9681 65.9399 47.3364 64.7688 51.9081 64.3415C53.723 64.1718 55.5396 63.9993 57.3644 64.067C62.7664 64.2679 68.0421 65.213 73.1998 66.8196C74.5218 67.2313 75.8311 67.6851 77.208 68.1506C77.2058 67.7682 76.9853 67.5304 76.8381 67.279C76.2843 66.333 75.6499 65.4435 74.9385 64.6059C74.681 64.303 74.3203 64.0361 74.3279 63.5675C75.0538 63.7332 75.7807 63.8955 76.5052 64.0668C76.6937 64.1114 76.9269 64.2284 77.0518 64.0688C77.2171 63.8578 76.9681 63.675 76.8611 63.5155C75.7914 61.9222 74.4603 60.5634 73.0312 59.2946C73.7881 58.8558 74.5669 59.2138 75.3043 59.3078C82.8718 60.2728 89.7661 62.9695 95.7801 67.6874C103.742 73.9335 108.887 82.0025 111.056 91.9258C111.783 95.2559 111.959 98.6404 111.714 102.011C111.287 107.873 109.445 113.282 105.98 118.087C105.754 118.401 105.445 118.654 105.277 119.013C104.491 120.183 103.339 120.976 102.273 121.84C96.5199 126.506 89.8122 128.937 82.5837 130.071C76.937 130.956 71.2623 131.086 65.5868 130.37C56.5756 129.232 48.3048 126.101 40.789 120.999C38.9838 119.774 37.2139 118.497 35.6289 116.985C35.5688 116.917 35.5719 116.851 35.6377 116.788C35.9776 116.654 36.1915 116.899 36.4146 117.068C40.226 119.948 44.461 121.955 49.0611 123.211C50.5881 123.628 52.1474 123.883 53.7072 124.134C54.0609 124.264 54.4378 124.203 54.8001 124.263C54.8748 124.272 54.9478 124.289 55.0201 124.309C58.5716 124.729 62.1005 124.482 65.6021 123.864C73.3 122.505 80.1371 119.28 85.9935 114.103C89.9845 110.574 93.1354 106.406 94.8019 101.264C96.4599 96.1475 96.2325 91.1206 93.8923 86.1802C93.412 88.3971 92.2493 90.2297 90.7949 91.9005C89.3205 93.5423 87.6322 94.9221 85.7204 96.0255C85.4986 96.1536 85.2533 96.3965 84.9983 96.2011C84.7786 96.0323 84.91 95.7397 84.9777 95.5168C85.4453 93.9762 85.7519 92.4037 85.9405 90.8068C86.6203 84.0875 84.0275 78.8599 78.6795 74.8932C77.8097 74.2479 76.8924 73.6719 75.9415 73.1514Z" fill="#262F71"/>
<path d="M53.7431 124.276C51.7604 124.104 49.8336 123.655 47.9317 123.089C44.3272 122.018 40.9801 120.398 37.8343 118.347C37.0872 117.86 36.4578 117.207 35.6465 116.812C35.1812 116.745 34.9866 116.29 34.6134 116.09C26.7527 109.103 21.3838 100.521 18.2949 90.4957C16.7881 85.6055 15.9953 80.5922 15.8911 75.4725C15.9106 75.089 15.9299 74.7063 15.9602 74.1094C16.341 74.9582 16.6388 75.6315 16.9445 76.3016C19.7732 82.5031 23.393 88.1617 28.3792 92.872C33.6827 97.8817 39.8449 101.22 47.0995 102.399C55.609 103.783 63.571 102.299 70.8915 97.7143C74.542 95.4278 77.5383 92.4696 79.2598 88.4391C81.3474 83.5508 80.5615 79.009 77.3822 74.8227C77.1037 74.456 76.8074 74.103 76.5193 73.7435C76.8979 73.4201 77.098 73.7937 77.3127 73.9742C79.221 75.5776 80.6834 77.5171 81.7106 79.7937C82.6953 81.9753 83.2094 84.2781 83.2394 86.6446C83.2695 89.0388 82.7725 91.3715 81.6921 93.6275C81.9824 93.64 82.1496 93.4992 82.3221 93.3982C83.3295 92.8076 84.2894 92.1521 85.1749 91.3842C85.4506 91.1455 85.6943 90.7844 86.149 90.8389C85.9078 92.6242 85.5458 94.3848 84.9637 96.2405C86.2318 95.5345 87.2989 94.808 88.326 94.0071C89.1697 93.3489 89.8499 92.5224 90.6774 91.8527C91.0299 92.0032 91.0297 92.3526 91.1111 92.6468C92.4584 97.5074 91.4833 102.046 89.0827 106.332C86.1712 111.53 81.8888 115.399 76.894 118.529C72.8403 121.069 68.4682 122.849 63.798 123.891C60.8636 124.546 57.8996 124.72 54.9078 124.416L54.9083 124.417C54.5383 124.216 54.1157 124.455 53.7431 124.276Z" fill="#161F42"/>
<path d="M127.345 88.1982C127.077 82.5817 125.731 77.2301 123.302 72.1665C121.727 68.8828 119.742 65.8632 117.381 63.0685C115.258 60.5548 112.821 58.4098 110.263 56.3753C110.503 56.1392 110.801 56.1843 111.088 56.2194C114.673 56.6541 118.171 57.4536 121.56 58.7066C122.405 59.0189 123.221 59.3954 123.999 59.847C124.292 59.9651 124.535 60.1686 124.809 60.3214C124.876 60.359 124.913 60.4551 125.012 60.4341C124.953 60.3523 124.923 60.2659 124.969 60.1672C122.666 57.1651 119.88 54.6617 116.955 52.283C113.459 49.4393 109.667 47.0765 105.631 45.1002C99.9876 42.3369 94.0483 40.5337 87.8052 39.7574C87.2535 39.6887 86.6857 39.764 86.1488 39.5684C86.1021 39.1999 86.4114 39.0774 86.6249 38.8991C90.2592 35.8705 93.1823 32.2791 95.2452 28.0083C95.8697 26.7153 96.3917 25.3811 96.8299 24.0125C96.9532 23.6277 97.0264 23.2002 97.411 22.9524C100.739 24.5095 103.831 26.4554 106.776 28.6421C109.634 30.7638 112.244 33.1681 114.633 35.7938C119.569 41.2184 123.342 47.3679 125.896 54.2558C128.102 60.2036 129.273 66.3415 129.414 72.6874C129.532 77.9944 128.968 83.2128 127.606 88.344C127.442 88.434 127.406 88.2932 127.345 88.1982Z" fill="#4189C9"/>
<path d="M105.277 119.013C105.271 118.44 105.734 118.119 106.015 117.718C108.675 113.919 110.296 109.712 111.137 105.165C111.658 102.347 111.702 99.5045 111.517 96.6836C111.23 92.3334 110.119 88.1517 108.366 84.1429C107.076 81.193 105.48 78.4277 103.552 75.8552C101.507 73.1266 99.1383 70.7106 96.5116 68.5322C92.4221 65.1404 87.8157 62.722 82.7705 61.1219C80.0917 60.2723 77.3535 59.6805 74.5458 59.4296C74.0414 59.3845 73.5431 59.264 73.0309 59.2945C71.2548 57.985 69.451 56.7189 67.4263 55.8038C67.4307 55.738 67.4354 55.6724 67.4401 55.6066C68.1689 55.6066 68.898 55.6179 69.6266 55.6048C79.8326 55.4218 89.2391 57.9237 97.4567 64.1396C105.976 70.5838 111.298 79.0968 113.292 89.6045C114.992 98.5687 113.673 107.036 108.706 114.803C107.729 116.332 106.657 117.803 105.277 119.013Z" fill="#161F42"/>
<path d="M97.411 22.9524C96.3896 26.0785 95.1056 29.0787 93.27 31.8284C91.4071 34.6189 89.1575 37.0482 86.5702 39.1737C86.4217 39.2958 86.2887 39.4365 86.1487 39.5685C85.2566 40.0223 84.5233 40.7069 83.6965 41.2571C80.6737 43.2689 77.4493 44.8847 74.0827 46.2281C73.9998 46.261 73.9083 46.2717 73.8314 46.2902C73.6842 46.0717 73.8581 45.9921 73.9488 45.9061C75.8604 44.0869 77.045 41.8342 77.8345 39.3538C77.9472 39.0001 78.0907 38.7856 78.4512 38.6431C84.3903 36.2919 89.1303 32.3849 93.0111 27.3721C93.3641 26.9162 93.7096 26.4544 94.1453 25.8819C92.9428 25.857 92.023 26.4624 91.0067 26.6247C90.8153 26.6358 90.5657 26.7959 90.5206 26.4342C94.2101 22.0643 96.9652 17.1795 98.6644 11.7076C98.7723 11.3603 98.6641 10.8838 99.147 10.7092C99.1858 10.7343 99.2021 10.7631 99.1965 10.796C99.1902 10.8305 99.1817 10.8478 99.1708 10.8478C99.0978 14.7143 98.5983 18.5194 97.5447 22.2461C97.4799 22.4758 97.4548 22.7168 97.411 22.9524Z" fill="#161F42"/>
<path d="M74.3275 63.5674C75.5235 64.9108 76.5951 66.3438 77.4542 67.928C77.5369 68.0812 77.7532 68.2534 77.5609 68.4349C77.4155 68.5719 77.2459 68.4035 77.0927 68.3465C73.133 66.8729 69.074 65.744 64.9132 65.0284C62.8205 64.6687 60.6967 64.5098 58.571 64.3568C56.644 64.2182 54.7362 64.2871 52.8386 64.4391C48.4746 64.7888 44.2271 65.7224 40.1884 67.4686C38.9427 68.007 37.6692 68.4905 36.5121 69.2184C36.3801 69.3015 36.2215 69.4386 36.0698 69.2289C39.5931 66.7234 43.4605 64.9313 47.5931 63.6982C53.268 62.0048 59.0654 61.5896 64.9477 62.0523C67.9496 62.2887 70.9154 62.7498 73.8527 63.4043C74.015 63.4405 74.1694 63.5121 74.3275 63.5674Z" fill="#161F42"/>
<path d="M72.8671 22.6562C73.1591 22.6558 73.4511 22.6553 73.7431 22.6549C74.2144 22.8583 74.7314 22.6006 75.2035 22.7985C75.4949 22.7993 75.7863 22.7999 76.0775 22.8007C76.1509 23.2243 75.8032 23.4018 75.5616 23.6056C71.5167 27.0228 67.5015 30.4752 63.4534 33.8889C62.1164 35.0162 60.7909 36.1575 59.4553 37.2866C59.2723 37.4414 59.0691 37.5868 58.9975 37.8375C57.248 38.4926 55.6184 39.3176 54.3344 40.7449C53.7245 41.4229 53.326 42.206 52.8843 42.9761C51.6834 43.7608 50.6733 44.7793 49.582 45.6964C46.7066 48.1132 43.868 50.5738 40.9852 52.982C40.7428 53.1844 40.5818 53.4691 40.2997 53.6263C39.8043 52.8864 39.9116 52.0774 40.0286 51.267C40.3912 50.6719 40.9632 50.2861 41.478 49.8494C44.2737 47.4788 47.0591 45.096 49.8559 42.7268C52.5791 40.4198 55.2922 38.1009 58.0136 35.7921C61.1425 33.1381 64.2671 30.4793 67.3903 27.8186C69.1275 26.3386 70.8552 24.847 72.6177 23.3975C72.8852 23.1776 73.0723 23.002 72.8671 22.6562Z" fill="#5C94CE"/>
<path d="M124.101 60.0378C120.671 58.3717 117.041 57.3555 113.29 56.7464C112.287 56.5837 111.286 56.3839 110.263 56.3754C108.954 55.5486 107.672 54.6767 106.332 53.9035C101.957 51.3785 97.276 49.6905 92.2815 48.8912C92.1983 48.878 92.121 48.8301 91.9604 48.7664C93.4506 48.4943 98.5184 49.2545 102.029 50.2202C105.263 51.1098 108.373 52.3135 111.464 53.9269C111.148 52.9823 110.572 52.344 110.22 51.5885C110.186 51.3865 109.904 51.2103 110.092 50.9965C110.294 50.7678 110.495 51.0117 110.673 51.0925C111.179 51.3226 111.663 51.5996 112.172 51.8266C116.435 54.0296 120.418 56.6592 124.124 59.7077C124.329 59.9814 124.329 59.9814 124.101 60.0378Z" fill="#161F42"/>
<path d="M72.8673 22.6562C72.9582 22.8688 73.2415 22.7133 73.3768 22.9523C72.5621 23.658 71.748 24.3743 70.9218 25.0765C69.4287 26.3455 67.9286 27.606 66.4313 28.8698C64.3053 30.664 62.1743 32.4524 60.0546 34.2541C58.579 35.5079 57.1254 36.7875 55.65 38.0415C53.862 39.5611 52.0576 41.061 50.2679 42.5782C48.8462 43.7834 47.4396 45.0059 46.0199 46.2132C44.5274 47.4826 43.0276 48.7435 41.5303 50.0073C41.031 50.4287 40.5293 50.8473 40.0288 51.267C40.1713 50.6339 40.314 50.0009 40.4565 49.3678C40.2137 48.7468 40.7197 48.4667 41.0648 48.1792C42.4275 47.0435 43.7674 45.8811 45.1195 44.7334C48.2689 42.061 51.4135 39.3831 54.5603 36.7082C57.2628 34.411 59.9707 32.1199 62.6697 29.8188C65.1838 27.6753 67.7166 25.5532 70.2066 23.3812C70.3974 23.2147 70.761 23.0175 70.2358 22.7977C71.0988 22.4837 71.9917 22.7323 72.8673 22.6562Z" fill="#6497D0"/>
<path d="M70.2356 22.7977C70.4394 22.8335 70.6633 22.7255 70.8774 22.8919C70.3616 23.6528 69.6031 24.1492 68.9366 24.7303C67.0248 26.3969 65.0845 28.0311 63.1472 29.6684C61.3765 31.165 59.5875 32.6404 57.8204 34.1413C56.0339 35.6587 54.2718 37.2052 52.4853 38.7226C50.7181 40.2237 48.926 41.6953 47.1591 43.1962C45.3724 44.7138 43.6013 46.2494 41.8273 47.7816C41.2937 48.2424 40.5889 48.5591 40.4563 49.3679C39.5139 49.475 39.0159 50.27 38.326 50.7617C37.2371 51.5375 36.4096 52.6046 35.4051 53.4775C34.3951 54.1945 33.5036 55.0543 32.5618 55.8523C29.7619 58.2251 26.9758 60.6138 24.1654 62.9742C23.7747 63.3022 23.4311 63.6872 22.9937 63.959C22.7971 64.0812 22.6227 64.3076 22.348 64.1168C22.3416 63.609 22.4233 63.1188 22.642 62.6561C24.0412 61.7624 25.2045 60.5792 26.4681 59.5204C29.9499 56.6035 33.401 53.65 36.8594 50.7057C40.2992 47.7771 43.7318 44.84 47.1752 41.9159C50.5445 39.0549 53.9183 36.1983 57.2862 33.3354C60.7277 30.4097 64.1854 27.5026 67.6002 24.5452C68.2792 23.9571 68.9946 23.4111 69.6547 22.8002C69.8482 22.7994 70.0419 22.7985 70.2356 22.7977Z" fill="#689AD1"/>
<path d="M77.8307 22.9457C78.6226 22.9352 79.3882 23.1384 80.1667 23.2375C80.3781 23.7026 79.9784 23.8846 79.7316 24.1005C78.7586 24.951 77.7409 25.7499 76.7933 26.6303C76.6911 26.4952 76.5823 26.3648 76.4882 26.2245C76.2724 25.9021 76.1205 25.9885 75.9809 26.2879C74.832 28.752 72.8567 30.4647 70.7055 31.9919C68.2879 33.708 65.6831 35.0989 62.9429 36.2336C62.7962 35.9533 62.7829 35.9405 63.0346 35.6806C63.5591 35.1388 64.1592 34.6804 64.7323 34.1931C68.877 30.6697 73.0343 27.1612 77.1536 23.6083C77.3936 23.4014 77.5998 23.1612 77.8307 22.9457Z" fill="#4E8FCC"/>
<path d="M77.8307 22.9457C77.8033 23.1979 77.6892 23.3872 77.4887 23.5567C74.8159 25.8185 72.1482 28.0866 69.4828 30.3572C67.4423 32.0956 65.4018 33.8345 63.3775 35.5916C63.1943 35.7506 62.8513 35.8633 62.943 36.2336C61.6644 36.8579 60.3385 37.3656 58.9979 37.8375C58.5449 37.7137 58.9196 37.5519 59.0047 37.4766C59.8003 36.7722 60.6058 36.0788 61.4152 35.3905C62.9046 34.1242 64.3979 32.8624 65.891 31.6005C67.3656 30.3543 68.8464 29.1152 70.3168 27.8639C71.7879 26.6118 73.2586 25.3587 74.7098 24.0841C75.1786 23.6723 75.7532 23.3675 76.0777 22.8006C76.673 22.7165 77.2446 22.918 77.8307 22.9457Z" fill="#5591CD"/>
<path d="M67.4733 40.4848C69.0156 39.7223 70.6263 39.0818 71.9714 37.967C72.251 37.9563 72.2202 38.1167 72.1534 38.2969C70.9119 43.4406 67.0098 46.8179 61.7355 47.3108C60.7197 47.4058 59.7043 47.5222 58.6812 47.4252C58.8124 47.0497 59.1696 47.0817 59.4588 47.0028C60.6039 46.6915 61.7394 46.3571 62.8001 45.8093C64.7902 44.7815 66.2465 43.2644 67.0754 41.1673C67.1729 40.9205 67.2623 40.6666 67.4733 40.4848Z" fill="#161F42"/>
<path d="M67.4733 40.4848C66.8386 42.937 65.2751 44.6337 63.1158 45.8478C61.7281 46.6281 60.1923 46.9896 58.6819 47.4254C58.3117 46.3357 58.7135 45.4163 59.3671 44.5891C60.1339 43.6195 61.1785 43.0147 62.2887 42.5076C63.9792 41.7353 65.7137 41.0787 67.4733 40.4848Z" fill="#418AC9"/>
<path d="M22.3483 64.1169C23.2137 63.7965 23.7713 63.0634 24.4518 62.5051C26.6498 60.7019 28.8087 58.8506 30.9747 57.0087C32.1135 56.0402 33.236 55.0527 34.3654 54.0735C34.6732 53.8068 34.9576 53.5004 35.4049 53.4776C34.2327 54.9404 33.1203 56.4434 32.2889 58.1344C30.0512 60.0303 27.8143 61.9269 25.5854 63.8333C24.5536 64.7157 23.5003 65.5729 22.4845 66.4742C22.3284 66.6128 22.1526 66.7872 21.9126 66.5991C21.9687 65.756 22.0929 64.925 22.3483 64.1169Z" fill="#6497D0"/>
<path d="M30.9156 68.0512C30.2259 68.1038 29.9147 68.7214 29.4585 69.0896C27.5407 70.6375 25.6719 72.2467 23.8054 73.8569C23.1829 74.394 22.5788 74.9512 21.9199 75.4456C21.485 75.7723 21.3211 75.6461 21.3273 75.1375C21.3347 74.5301 21.3291 73.9223 21.3291 73.3148C22.0042 72.5862 22.8107 72.0062 23.5637 71.3677C25.7396 69.5227 27.8921 67.6496 30.0953 65.8367C30.2849 65.6805 30.4438 65.3959 30.77 65.5805C30.8185 66.4039 30.8672 67.2276 30.9156 68.0512Z" fill="#468CCA"/>
<path d="M40.2998 53.6263C40.3031 53.352 40.4879 53.1826 40.6718 53.0273C42.4236 51.5478 44.184 50.0781 45.9338 48.5963C47.3715 47.379 48.7999 46.1511 50.2292 44.9241C50.9806 44.279 51.7262 43.627 52.4721 42.9757C52.6146 42.8511 52.7468 42.7584 52.8844 42.9763C52.7234 43.6401 52.5309 44.2984 52.5504 44.9922C51.7649 45.8544 50.8198 46.5359 49.9385 47.2891C47.2165 49.6156 44.4974 51.9461 41.7563 54.2504C41.6455 54.3436 41.5585 54.4626 41.4676 54.576C40.8998 54.4789 40.5373 54.1293 40.2998 53.6263Z" fill="#5591CD"/>
<path d="M21.9124 66.5991C22.5415 66.4054 22.9099 65.8572 23.3825 65.4663C25.9465 63.3464 28.4707 61.1784 31.009 59.0274C31.4074 58.6896 31.6885 58.1833 32.2885 58.1344C31.8143 59.2777 31.4431 60.4556 31.1158 61.648C30.6603 61.6016 30.4281 61.9672 30.1487 62.2072C27.5054 64.48 24.8374 66.7233 22.182 68.9814C22.0224 69.1171 21.8812 69.3149 21.6204 69.2271C21.5953 68.3377 21.6687 67.459 21.9124 66.5991Z" fill="#5C94CE"/>
<path d="M41.4678 54.576C41.2868 54.2492 41.5953 54.1429 41.7548 54.0066C43.9872 52.0968 46.2268 50.1953 48.4678 48.2953C49.7353 47.2206 51.0073 46.1511 52.2819 45.0849C52.3497 45.028 52.4601 45.022 52.5508 44.9924C52.5529 45.5898 52.6392 46.1748 52.8188 46.7454C52.0548 47.6327 51.0923 48.2967 50.2136 49.0541C48.2481 50.7485 46.2679 52.4261 44.2854 54.1009C44.1585 54.2081 44.0139 54.3115 43.986 54.4978C43.1554 54.8044 42.3189 54.928 41.4678 54.576Z" fill="#4E8FCC"/>
<path d="M30.7701 65.5804C29.9501 66.0505 29.2955 66.7326 28.5748 67.3264C26.676 68.8909 24.8049 70.4895 22.941 72.0955C22.4274 72.538 21.962 73.034 21.3289 73.3147C21.4066 72.538 21.167 71.7416 21.4744 70.9791C24.3519 68.521 27.2361 66.0706 30.1279 63.6293C30.3264 63.4616 30.5295 63.2578 30.837 63.3884C30.8147 64.119 30.7925 64.8498 30.7701 65.5804Z" fill="#4E8FCC"/>
<path d="M30.8373 63.3885C29.912 63.8859 29.1982 64.6554 28.3995 65.3119C26.5161 66.86 24.6733 68.4579 22.8079 70.0279C22.3899 70.3794 22.0983 70.9144 21.4746 70.9792C21.5488 70.3973 21.3181 69.79 21.6206 69.2272C23.4411 67.6747 25.2593 66.1191 27.0827 64.5702C28.3169 63.5219 29.562 62.4865 30.7946 61.4366C31.1888 61.1012 31.0808 61.4695 31.1162 61.648L30.8373 63.3885Z" fill="#5591CD"/>
<path d="M43.9858 54.4978C43.7173 54.3074 43.9046 54.1591 44.0467 54.0398C45.7637 52.599 47.4896 51.1688 49.2046 49.7255C50.2749 48.8248 51.3313 47.9079 52.3913 46.995C52.5202 46.884 52.6313 46.7524 52.8186 46.7454L53.2568 47.6202C52.9206 48.1384 52.3804 48.4626 52.0016 48.9403C49.8933 51.2683 47.5332 53.2517 44.5474 54.3744C44.3699 54.4412 44.1735 54.4579 43.9858 54.4978Z" fill="#488DCA"/>
<path d="M76.793 26.6304C77.0562 25.8025 77.9162 25.5657 78.4243 24.9821C78.9654 24.3604 79.851 24.0834 80.1663 23.2373C80.8008 23.234 81.4081 23.4042 82.0248 23.5196C82.5582 23.6197 82.581 23.8507 82.2131 24.1793C81.4186 24.8887 80.6182 25.5922 79.8109 26.2868C79.0597 26.9329 78.296 27.5646 77.5378 28.2027L76.793 26.6304Z" fill="#468CCA"/>
<path d="M40.7578 59.9197C40.8865 60.243 40.4991 60.4058 40.5441 60.703C40.3414 59.8157 39.86 59.4706 38.9696 59.6479C37.993 59.8422 37.1902 60.3602 36.5096 61.0793C36.3276 61.2716 36.1279 61.4474 35.9363 61.6308C35.7755 61.4301 35.9396 61.2681 35.9998 61.0933C36.3959 59.8276 37.2445 58.9247 38.3214 58.2082C38.5641 58.0466 38.8256 57.916 39.1121 57.8475C40.3627 57.5486 41.0473 58.1601 40.8752 59.4278C40.8526 59.5934 40.8328 59.7643 40.7578 59.9197Z" fill="#428AC9"/>
<path d="M40.7579 59.9197C40.7626 59.7266 40.7688 59.5337 40.7719 59.3406C40.7931 58.0675 40.0711 57.5827 38.8889 58.1235C37.5257 58.7472 36.6664 59.8596 36.0674 61.1979C35.9302 61.2234 35.8579 61.1841 35.9012 61.0305C36.3308 59.441 37.1599 58.1253 38.5399 57.1895C38.8846 56.9559 39.2689 56.8167 39.6781 56.7461C40.3413 56.6318 40.9777 56.9929 41.1223 57.6431C41.2987 58.4364 41.2124 59.2142 40.7579 59.9197Z" fill="#182144"/>
<path d="M52.0014 48.9404C51.7565 48.7424 51.9714 48.669 52.1021 48.5779C52.5138 48.2909 52.7394 47.7794 53.2566 47.6203C53.9191 48.6665 54.9767 49.1282 56.0781 49.5212C56.2999 49.6005 56.5319 49.6513 56.893 49.7527C55.1951 50.1942 53.7328 50.0241 52.3863 49.1043C52.2642 49.0209 52.1599 48.9256 52.0014 48.9404Z" fill="#458CCA"/>
<path d="M112.171 51.8267C111.635 51.763 111.228 51.3972 110.742 51.217C110.555 51.1473 110.375 50.8971 110.174 51.0606C110.008 51.1967 110.279 51.4005 110.22 51.5884C109.923 51.3283 109.819 50.9544 109.664 50.574C110.533 50.9347 111.399 51.2835 112.171 51.8267Z" fill="#63657D"/>
<path d="M124.102 60.0378C124.261 59.9382 124.112 59.8173 124.124 59.7077C124.406 59.8607 124.688 60.0139 124.97 60.1671C125.101 60.3353 125.232 60.5033 125.425 60.7511C124.87 60.6037 124.496 60.3014 124.102 60.0378Z" fill="#263154"/>
<path d="M90.5571 48.5227C90.9747 48.4894 91.2825 48.4767 91.721 48.6111C91.2686 48.8554 90.9572 48.8227 90.5571 48.5227Z" fill="#A09AA9"/>
<path d="M34.6133 116.091C35.0682 116.173 35.2742 116.611 35.6464 116.812C35.6403 116.87 35.6345 116.928 35.6285 116.985C35.2251 116.761 34.8685 116.483 34.6133 116.091Z" fill="#424A7F"/>
<path d="M127.345 88.1982C127.432 88.2467 127.519 88.2954 127.606 88.3441C127.643 88.6374 127.519 88.8788 127.345 89.2382V88.1982Z" fill="#8CB7DE"/>
<path d="M90.5208 26.4342C90.6201 26.6575 90.8426 26.5664 91.0067 26.6248C90.7536 26.7223 90.5005 26.8198 90.226 26.9259C90.1653 26.6166 90.3761 26.5475 90.5208 26.4342Z" fill="#5A5D76"/>
<path d="M35.9013 61.0305C35.9568 61.0862 36.0121 61.142 36.0676 61.1979C36.0238 61.3424 35.9802 61.4866 35.9366 61.6309C35.87 61.7161 35.8034 61.8016 35.6216 62.0348C35.7168 61.5637 35.7226 61.2758 35.9013 61.0305Z" fill="#4F668A"/>
<path d="M72.1532 38.2969C72.1114 38.1766 72.1285 38.0238 71.9712 37.9671C72.0177 37.855 72.1433 37.6973 72.2019 37.7538C72.3777 37.9231 72.3041 38.1262 72.1532 38.2969Z" fill="#555A73"/>
<path d="M22.9326 61.4868C23.1195 60.4343 23.3463 59.393 23.8071 58.4185C25.5256 57.2209 27.0362 55.7699 28.6334 54.4261C31.4043 52.0949 34.1587 49.7442 36.9118 47.3918C39.4246 45.2448 41.9424 43.1037 44.4635 40.9668C47.1889 38.6571 49.9074 36.339 52.6294 34.0256C55.1106 31.9168 57.5973 29.8144 60.0676 27.6927C61.8003 26.2047 63.5704 24.7604 65.2744 23.2387C66.184 23.0063 67.1099 22.9265 68.046 22.9438C68.1375 22.863 68.2397 22.8712 68.345 22.908C68.5526 23.2605 68.2884 23.4612 68.0752 23.6413C65.7207 25.6329 63.3783 27.639 61.0304 29.6384C58.535 31.7638 56.0357 33.8847 53.5414 36.0116C51.2317 37.981 48.9191 39.9472 46.6025 41.9086C43.7859 44.2937 40.977 46.6879 38.1624 49.0753C34.6623 52.0437 31.1783 55.0307 27.6704 57.99C26.3157 59.1329 24.9821 60.3015 23.6077 61.4208C23.4366 61.56 23.2046 61.999 22.9326 61.4868Z" fill="#6D9CD2"/>
<path d="M65.2744 23.2387C65.029 24.0594 64.2369 24.3664 63.6745 24.8665C61.8306 26.506 59.9252 28.0765 58.0391 29.6683C55.9312 31.4472 53.8113 33.212 51.7105 34.9993C49.8851 36.5521 48.0862 38.1361 46.2619 39.6905C44.4938 41.1967 42.703 42.6761 40.9325 44.1792C39.1609 45.683 37.4063 47.207 35.6359 48.7122C33.8661 50.2164 32.0822 51.704 30.3113 53.207C28.8535 54.4445 27.4075 55.696 25.9522 56.9366C25.3631 57.4391 24.7627 57.9285 24.1694 58.4258C24.0423 58.5325 23.9249 58.5849 23.8071 58.4186C24.0283 57.4034 24.3508 56.4241 24.8295 55.499C26.1733 54.6534 27.2961 53.5325 28.5011 52.5171C31.2693 50.1838 34.0258 47.8362 36.7772 45.483C39.6215 43.0507 42.4753 40.63 45.3254 38.205C47.6764 36.205 50.026 34.2037 52.3832 32.211C55.4457 29.6222 58.4815 27.0022 61.5569 24.4283C61.758 24.2601 61.9776 24.0929 62.0599 23.8197C63.0938 23.4176 64.2051 23.4444 65.2744 23.2387Z" fill="#729FD4"/>
<path d="M62.06 23.8198C62.5139 23.9391 62.1431 24.1032 62.0569 24.1803C61.228 24.9229 60.3942 25.6605 59.5462 26.3814C58.0732 27.6337 56.5875 28.8714 55.1094 30.1182C52.9476 31.9418 50.7833 33.7624 48.629 35.5946C46.8606 37.0988 45.11 38.624 43.3426 40.1293C41.5209 41.6808 39.684 43.215 37.8614 44.7657C36.0932 46.2701 34.3394 47.7914 32.5709 49.2952C30.8031 50.7982 29.025 52.2894 27.251 53.785C26.6042 54.3303 25.9594 54.8784 25.305 55.4144C25.1761 55.5199 25.0373 55.7574 24.8296 55.499C25.0299 54.4959 25.5534 53.6289 25.9953 52.7276C28.3961 50.6748 30.8086 48.6359 33.2102 46.5845C35.686 44.4698 38.1687 42.3633 40.6486 40.2533C43.0173 38.2379 45.3901 36.227 47.7598 34.2126C50.2585 32.0882 52.7543 29.9599 55.2575 27.8406C56.5536 26.7431 57.8069 25.5947 59.1411 24.5422C60.0672 24.1114 61.0697 23.9903 62.06 23.8198Z" fill="#78A2D5"/>
<path d="M59.1415 24.5422C58.2145 25.747 56.9581 26.5961 55.8324 27.5838C54.3599 28.876 52.8495 30.1254 51.3537 31.3909C49.8948 32.6251 48.4307 33.8533 46.9744 35.0906C45.5176 36.3283 44.0708 37.5784 42.6133 38.8157C41.1383 40.0682 39.6521 41.3074 38.1773 42.5605C36.7387 43.7826 35.312 45.0188 33.8738 46.2415C32.0493 47.7928 30.2189 49.3371 28.3902 50.8833C27.7437 51.4301 27.0943 51.9732 26.4468 52.5189C26.3151 52.6302 26.1813 52.734 25.9956 52.7276C26.4527 51.4957 27.0563 50.3374 27.7505 49.2243C31.0834 46.515 34.3236 43.695 37.5935 40.9111C41.3811 37.6863 45.1858 34.4811 48.9513 31.2297C51.0811 29.3907 53.2929 27.6469 55.3455 25.7181C56.5744 25.2089 57.8417 24.8229 59.1415 24.5422Z" fill="#7DA5D6"/>
<path d="M55.3455 25.7182C55.4922 25.9782 55.23 26.0571 55.1154 26.1575C53.4967 27.5757 51.8718 28.987 50.2382 30.388C48.807 31.6154 47.3634 32.8282 45.9244 34.0466C44.135 35.5615 42.3427 37.0729 40.5561 38.5907C39.1003 39.8274 37.654 41.0752 36.1979 42.3118C34.3738 43.8605 32.5432 45.4011 30.7178 46.9481C29.9613 47.5894 29.2105 48.237 28.4591 48.8839C28.2523 49.062 28.0291 49.1991 27.7505 49.2244C28.6413 47.4077 29.7406 45.7225 30.9656 44.1161C32.0956 43.2835 33.1274 42.3316 34.1963 41.4262C36.9722 39.075 39.7423 36.717 42.5109 34.3575C44.6524 32.5327 46.798 30.7125 48.9322 28.8794C49.2617 28.5965 49.6772 28.4161 49.9302 28.0439C51.6269 27.0164 53.493 26.3832 55.3455 25.7182Z" fill="#81A7D8"/>
<path d="M86.1493 90.839C84.6804 92.0386 83.2393 93.2801 81.2757 94.1118C81.8678 92.849 82.301 91.7314 82.5673 90.5608C83.7185 85.498 82.651 80.8933 79.6708 76.6928C78.9354 75.6566 77.9465 74.8561 77.0707 73.9507C76.9297 73.8049 76.7744 73.6215 76.5196 73.7436C76.2574 73.6143 76.1283 73.3544 75.9414 73.1514C76.0685 72.99 76.1995 73.0798 76.3241 73.1504C79.8526 75.1514 82.7939 77.7485 84.5914 81.4596C85.4826 83.2994 86.0014 85.2441 86.1832 87.3015C86.2885 88.4945 86.2922 89.6609 86.1493 90.839Z" fill="#0E1F66"/>
<path d="M22.9326 61.4868C23.5154 61.6977 23.7204 61.1156 24.0097 60.8764C26.9714 58.4253 29.8915 55.9242 32.8152 53.4278C35.5739 51.0722 38.3142 48.6951 41.0785 46.3461C44.1554 43.7319 47.258 41.1481 50.3347 38.5339C53.0989 36.1848 55.8406 33.8093 58.5975 31.4517C61.5747 28.9057 64.557 26.3657 67.5399 23.8264C67.8455 23.5662 68.2843 23.4322 68.3396 22.9463C68.5064 22.7867 68.7552 22.9617 68.9226 22.8036C69.1665 22.8025 69.4104 22.8013 69.6545 22.8003C69.4307 23.5751 68.6781 23.8486 68.1539 24.3201C66.6436 25.6785 65.0698 26.9662 63.5177 28.2781C61.7441 29.777 59.9635 31.2681 58.1922 32.77C56.7522 33.9907 55.3257 35.2275 53.8862 36.4486C51.7643 38.2481 49.6329 40.0361 47.5118 41.8364C46.0724 43.0579 44.6477 44.2966 43.2093 45.5195C41.3847 47.0706 39.5495 48.6098 37.7249 50.1611C36.2867 51.3842 34.8614 52.6221 33.4232 53.8452C31.949 55.099 30.4623 56.3379 28.9887 57.5925C27.5145 58.8477 26.0525 60.1177 24.5793 61.3741C24.064 61.8133 23.5304 62.2307 23.0062 62.6593C22.8816 62.7611 22.7621 62.824 22.642 62.6562C22.635 62.2406 22.729 61.8501 22.9326 61.4868Z" fill="#699AD1"/>
<path d="M49.9298 28.0438C49.8069 28.7347 49.133 28.9163 48.7049 29.3015C47.2153 30.6426 45.6634 31.9149 44.1322 33.2097C42.3426 34.7226 40.5462 36.2274 38.7594 37.7435C37.3218 38.9632 35.8935 40.1941 34.4621 41.4209C33.4162 42.3175 32.3714 43.2157 31.327 44.1139C31.2044 44.2194 31.087 44.2835 30.9653 44.1161C31.7107 42.9233 32.6112 41.8429 33.5234 40.784C36.9601 36.7949 40.8628 33.3294 45.3461 30.5461C46.8258 29.6276 48.292 28.6765 49.9298 28.0438Z" fill="#88ABD9"/>
<path d="M75.2037 22.7985C74.7184 22.7345 74.2057 22.9488 73.7432 22.6549C74.2285 22.7174 74.7412 22.5036 75.2037 22.7985Z" fill="#5591CD"/>
<path d="M68.9228 22.8037C68.7678 23.0122 68.5405 22.924 68.3399 22.9462C68.242 22.9456 68.1441 22.9448 68.0464 22.9438C68.3053 22.6894 68.6292 22.8414 68.9228 22.8037Z" fill="#689AD1"/>
<path d="M54.9077 124.416C59.7181 124.638 64.3745 123.869 68.8871 122.214C73.2484 120.613 77.2677 118.395 80.8803 115.464C84.4017 112.607 87.4334 109.326 89.4572 105.224C90.5457 103.017 91.2212 100.694 91.4466 98.2076C91.6462 96.0057 91.2753 93.9294 90.6773 91.8529C90.7433 91.3452 91.2066 91.1134 91.4782 90.7567C92.5247 89.382 93.2979 87.8981 93.6182 86.1902C93.6512 86.0135 93.7379 85.8467 93.8549 85.5229C94.5413 86.9436 95.0634 88.2578 95.4157 89.6415C95.9271 91.6487 96.2162 93.6909 96.0636 95.7536C95.7959 99.3756 94.7412 102.76 92.9382 105.939C91.1552 109.083 88.8549 111.787 86.2014 114.188C83.8802 116.289 81.3043 118.056 78.5381 119.549C75.1889 121.357 71.6759 122.711 67.9751 123.58C65.6669 124.122 63.3331 124.458 60.9581 124.592C59.8192 124.656 58.6782 124.755 57.5464 124.682C56.6685 124.625 55.7678 124.685 54.9077 124.416Z" fill="#0E1F66"/>
</g>
</g>
<defs>
<clipPath id="clip0_2_218">
<rect width="146" height="146" fill="white"/>
</clipPath>
</defs>
</svg>
