<svg width="24" height="24" viewBox="0 0 24 24" fill="none" xmlns="http://www.w3.org/2000/svg">
<path d="M5.50387 7.59007C9.09158 4.13664 14.9084 4.13664 18.4962 7.59007L18.9279 8.00569C19.1073 8.17838 19.1073 8.45832 18.9279 8.63101L17.4509 10.0528C17.3612 10.1391 17.2158 10.1391 17.126 10.0528L16.5319 9.48084C14.029 7.07162 9.97101 7.07162 7.46811 9.48084L6.83177 10.0933C6.74211 10.1797 6.59671 10.1797 6.50699 10.0933L5.02995 8.67156C4.85051 8.49887 4.85051 8.21893 5.02995 8.04624L5.50387 7.59007ZM21.5509 10.5305L22.8655 11.7958C23.0448 11.9685 23.0448 12.2484 22.8655 12.4211L16.9379 18.1269C16.7585 18.2996 16.4677 18.2996 16.2883 18.1269L12.0812 14.0774C12.0364 14.0342 11.9637 14.0342 11.9188 14.0774L7.71189 18.1269C7.53251 18.2996 7.24164 18.2996 7.06226 18.1269L1.13454 12.4211C0.955154 12.2484 0.955154 11.9685 1.13454 11.7958L2.44913 10.5304C2.62852 10.3577 2.91936 10.3577 3.09875 10.5304L7.30586 14.58C7.35066 14.6232 7.42337 14.6232 7.46823 14.58L11.6751 10.5304C11.8545 10.3577 12.1453 10.3577 12.3247 10.5304L16.5318 14.58C16.5767 14.6232 16.6494 14.6232 16.6942 14.58L20.9012 10.5305C21.0807 10.3578 21.3715 10.3578 21.5509 10.5305Z" fill="#3396FF"/>
</svg>
