<svg viewBox="0 0 481 481" fill="none" xmlns="http://www.w3.org/2000/svg">
<path d="M269.551 363.558C269.367 363.609 269.21 363.731 269.116 363.898C269.021 364.064 268.997 364.262 269.047 364.446C269.098 364.631 269.221 364.787 269.387 364.882C269.554 364.977 269.751 365.001 269.935 364.95C276 363.622 281.686 360.939 286.567 357.102C305.119 343.398 304.159 323.958 314.719 306.174C323.167 292.614 330.583 294.174 330.007 292.422C329.986 292.353 329.951 292.289 329.903 292.234C329.856 292.179 329.798 292.134 329.733 292.103C329.667 292.071 329.596 292.053 329.524 292.051C329.451 292.048 329.379 292.06 329.311 292.086C296.095 304.302 314.863 347.862 269.551 363.558ZM403.975 320.886C404.911 319.902 405.847 318.87 406.759 317.838C413.815 309.27 418.759 295.998 418.279 286.23C418.267 286.125 418.226 286.025 418.161 285.941C418.096 285.858 418.009 285.794 417.909 285.757C417.81 285.719 417.703 285.71 417.598 285.73C417.494 285.75 417.398 285.799 417.319 285.87C416.599 286.566 418.615 290.406 413.551 302.502C408.751 313.974 404.551 316.902 399.823 322.254C395.588 327.145 392.368 332.83 390.353 338.978C388.338 345.126 387.568 351.613 388.087 358.062C388.115 358.198 388.189 358.32 388.296 358.407C388.403 358.495 388.537 358.543 388.675 358.543C388.814 358.543 388.948 358.495 389.055 358.407C389.162 358.32 389.236 358.198 389.263 358.062C389.099 351.196 390.317 344.366 392.844 337.98C395.371 331.594 399.157 325.78 403.975 320.886ZM193.255 217.254C195.655 215.598 195.487 210.534 193.255 208.662C192.624 208.153 191.889 207.789 191.101 207.596C190.313 207.403 189.492 207.386 188.697 207.547C187.902 207.707 187.152 208.041 186.5 208.524C185.849 209.007 185.312 209.628 184.927 210.342C184.482 211.459 184.402 212.688 184.698 213.853C184.995 215.018 185.653 216.059 186.578 216.827C187.503 217.594 188.647 218.049 189.847 218.126C191.047 218.203 192.24 217.898 193.255 217.254ZM186.655 211.758C187.375 209.022 192.103 208.638 192.823 211.374C193.303 213.246 193.087 214.566 192.127 215.286C191.55 215.645 190.894 215.857 190.216 215.903C189.538 215.949 188.86 215.828 188.239 215.55C187.59 215.186 187.081 214.614 186.794 213.927C186.507 213.24 186.458 212.476 186.655 211.758ZM275.263 172.854C275.171 172.847 275.079 172.86 274.992 172.891C274.904 172.922 274.825 172.97 274.757 173.033C274.689 173.096 274.636 173.173 274.599 173.257C274.562 173.342 274.543 173.434 274.543 173.526C274.543 175.926 270.487 178.326 269.743 178.566C269.6 178.601 269.477 178.692 269.4 178.818C269.324 178.944 269.3 179.095 269.335 179.238C269.37 179.381 269.461 179.505 269.587 179.581C269.713 179.658 269.864 179.681 270.007 179.646C276.319 178.35 277.279 172.806 275.263 172.854ZM266.839 169.182C266.551 169.014 265.279 168.078 264.823 167.718C264.823 167.406 265.951 163.398 266.167 162.63C266.383 161.862 265.399 161.67 265.135 162.294C264.131 164.24 263.327 166.282 262.735 168.39C262.927 169.086 266.263 169.998 266.503 169.998C266.603 170.012 266.705 169.992 266.793 169.941C266.88 169.891 266.948 169.813 266.987 169.72C267.025 169.627 267.031 169.523 267.005 169.426C266.978 169.329 266.92 169.243 266.839 169.182ZM258.919 156.318C258.885 156.111 258.778 155.922 258.618 155.786C258.457 155.65 258.254 155.576 258.043 155.576C257.833 155.576 257.63 155.65 257.469 155.786C257.309 155.922 257.202 156.111 257.167 156.318C257.076 157.973 257.076 159.631 257.167 161.286C257.318 161.532 257.546 161.721 257.816 161.823C258.086 161.925 258.382 161.933 258.657 161.848C258.932 161.763 259.171 161.588 259.336 161.351C259.501 161.115 259.583 160.83 259.567 160.542C259.235 159.154 259.018 157.742 258.919 156.318ZM275.695 160.518C275.388 159.142 275.171 157.747 275.047 156.342C275.047 156.107 274.954 155.881 274.787 155.714C274.621 155.548 274.395 155.454 274.159 155.454C273.924 155.454 273.698 155.548 273.532 155.714C273.365 155.881 273.271 156.107 273.271 156.342C273.184 157.941 273.184 159.543 273.271 161.142C273.285 161.328 273.339 161.508 273.43 161.671C273.521 161.834 273.646 161.974 273.798 162.083C273.949 162.192 274.122 162.266 274.305 162.3C274.488 162.335 274.677 162.329 274.857 162.282C275.038 162.236 275.206 162.15 275.349 162.032C275.493 161.913 275.609 161.764 275.689 161.596C275.769 161.428 275.811 161.244 275.812 161.058C275.813 160.872 275.773 160.687 275.695 160.518Z" fill="black"/>
<path d="M463.519 127.83C463.351 112.878 458.335 106.974 442.855 107.43C438.439 107.43 359.695 108.222 354.055 108.414C350.274 108.415 346.533 109.191 343.063 110.694C341.071 111.486 330.655 116.694 329.503 119.454C328.255 121.422 329.719 177.486 329.503 189.054C327.836 188.105 326.122 187.24 324.367 186.462C324.05 184.886 323.378 183.402 322.4 182.126C321.423 180.849 320.166 179.812 318.727 179.094C316.519 178.23 313.687 179.262 312.055 177.702C310.423 176.142 313.351 175.302 313.663 172.902C313.654 171.238 313.461 169.58 313.087 167.958C311.641 159.258 309.62 150.664 307.039 142.23C304.879 135.294 302.623 129.414 296.407 125.646C296.407 113.982 295.231 45.6303 294.583 42.0063C293.944 38.4296 292.037 35.2034 289.211 32.9198C286.385 30.6362 282.831 29.4483 279.199 29.5743C278.959 29.5743 113.791 29.5743 113.599 29.7663C106.999 33.7023 105.223 42.4863 104.791 48.9663C104.647 52.2063 107.479 117.63 108.607 138.414C96.9194 138.654 37.8794 140.238 34.4954 142.038C26.8394 143.91 18.3674 149.238 16.7114 157.902C15.6794 163.47 17.7674 270.438 18.4634 275.502C18.9619 280.972 21.4059 286.081 25.3514 289.902C29.6474 293.67 35.5034 294.366 40.6634 294.558L150.175 292.494C139.471 316.734 127.135 351.102 118.975 372.486C118.937 372.547 118.917 372.618 118.917 372.69C118.917 372.762 118.937 372.833 118.975 372.894C121.184 375.064 123.595 377.016 126.175 378.726C122.263 392.094 122.695 392.838 121.831 393.918C114.415 403.014 105.463 408.318 96.6314 409.182C92.5274 409.638 88.4714 410.358 87.0314 414.342C85.8554 417.966 88.9754 420.39 92.6234 421.398C95.0234 422.046 111.391 425.67 113.815 425.958C115.963 426.318 118.167 425.828 119.959 424.59C121.687 423.318 127.375 416.598 129.559 414.582C125.599 433.782 122.839 427.662 132.271 431.766C132.403 431.836 132.549 431.877 132.698 431.884C132.847 431.891 132.996 431.865 133.134 431.807C133.271 431.75 133.395 431.663 133.495 431.552C133.595 431.441 133.669 431.309 133.711 431.166C135.391 426.366 146.767 398.934 151.399 391.806C152.527 420.798 152.335 419.286 152.743 419.406C154.351 419.814 156.103 420.198 157.903 420.558C157.903 424.59 158.023 428.718 158.359 433.23C158.359 433.374 158.167 433.614 157.975 433.998C152.023 447.054 145.351 452.382 138.103 455.598C134.887 457.038 130.447 459.006 130.567 463.446C130.567 467.286 134.503 468.51 138.319 468.366C144.055 468.174 151.471 467.406 154.831 467.238C164.431 466.662 164.671 464.838 168.751 456.606C169.687 454.71 170.791 452.454 171.415 451.35C172.543 464.838 171.055 466.83 172.903 466.734C177.919 466.47 180.103 467.838 180.103 466.038C180.295 461.094 182.503 441.654 183.655 436.878C183.655 436.326 183.271 436.014 182.695 435.894C183.415 431.43 185.095 422.646 185.311 421.038C186.511 420.87 187.711 420.678 188.647 420.462C188.911 420.462 188.647 421.734 192.703 405.006C221.839 416.502 252.919 419.262 280.807 412.71C281.791 416.526 288.919 442.542 292.807 453.942C294.132 457.667 295.897 461.22 298.063 464.526C298.615 465.054 299.551 465.99 300.463 465.99C301.375 465.99 302.383 464.718 302.623 463.422C302.863 462.126 299.095 424.278 297.823 410.622C303.526 409.21 309.055 407.173 314.311 404.55L322.087 430.374C322.315 430.759 322.658 431.063 323.067 431.242C323.476 431.422 323.932 431.469 324.369 431.376C324.806 431.283 325.204 431.056 325.505 430.725C325.806 430.395 325.996 429.978 326.047 429.534L325.303 398.598C328.937 396.23 332.416 393.633 335.719 390.822C337.219 392.272 338.906 393.515 340.735 394.518C340.923 394.622 341.145 394.647 341.352 394.589C341.558 394.531 341.734 394.393 341.839 394.206C343.835 391.188 346.075 388.339 348.535 385.686C348.055 388.782 347.119 395.118 346.999 397.086C346.996 397.213 347.019 397.34 347.066 397.457C347.113 397.575 347.183 397.683 347.273 397.772C347.363 397.862 347.47 397.933 347.588 397.98C347.706 398.027 347.832 398.05 347.959 398.046C350.508 397.967 353.053 398.299 355.495 399.03C347.671 402.798 344.095 405.99 344.575 408.63C345.513 413.345 346.829 417.976 348.511 422.478C349.807 426.222 351.151 430.11 355.183 431.742C373.663 439.566 401.119 433.854 419.671 426.054C435.415 419.886 437.719 409.902 436.327 395.79C436.039 393.102 432.919 392.79 426.367 392.958L442.327 372.774C447.127 367.038 442.951 367.23 441.439 355.974C442.885 358.116 444.622 360.047 446.599 361.71C446.717 361.802 446.852 361.869 446.997 361.906C447.141 361.943 447.292 361.95 447.439 361.926C448.087 361.806 447.583 362.142 453.535 351.438C453.649 351.243 453.691 351.015 453.656 350.792C453.621 350.569 453.511 350.365 453.343 350.214C450.727 348.054 444.415 343.014 444.415 343.014C447.669 342.244 450.875 341.283 454.015 340.134C454.764 339.941 455.442 339.538 455.969 338.973C456.497 338.407 456.851 337.703 456.991 336.942C457.303 335.07 457.327 297.366 457.375 292.23C457.375 291.39 456.031 291.15 455.887 292.062C453.079 311.094 440.191 326.934 423.727 331.662C424.255 329.526 425.599 324.894 424.855 323.622C422.141 321.914 419.253 320.498 416.239 319.398C419.239 317.694 426.175 313.254 426.679 311.886C426.991 311.094 425.455 274.062 425.383 270.006C425.372 269.839 425.307 269.68 425.199 269.552C425.091 269.424 424.945 269.333 424.783 269.293C424.62 269.253 424.449 269.266 424.293 269.329C424.138 269.393 424.007 269.504 423.919 269.646C419.272 278.822 412.399 286.686 403.927 292.518C402.943 293.19 395.863 296.958 395.311 297.462C393.535 299.166 395.743 301.254 396.679 302.574C397.351 303.486 399.655 306.582 400.111 307.23C391.663 308.262 389.431 305.358 388.999 307.23C388.169 309.675 387.049 312.012 385.663 314.19C386.158 316.294 386.792 318.362 387.559 320.382C386.153 320.614 384.718 320.614 383.311 320.382C383.061 320.328 382.799 320.37 382.577 320.499C382.355 320.627 382.189 320.834 382.111 321.078C381.439 323.262 380.911 325.086 380.431 326.79C377.522 321.856 374.316 317.104 370.831 312.558C369.127 299.55 362.983 284.358 349.999 282.342C359.767 278.262 366.175 267.774 367.711 257.142C372.319 257.142 438.895 256.95 441.583 257.142C456.151 257.55 462.655 251.982 464.023 237.126C464.575 231.198 463.519 128.91 463.519 127.83ZM132.103 413.574C132.164 413.32 132.126 413.052 131.997 412.825C131.867 412.598 131.657 412.428 131.407 412.35C129.463 411.63 127.975 413.334 126.895 414.558C124.161 417.886 121.159 420.984 117.919 423.822C116.119 424.686 95.1674 420.342 92.5514 419.526C91.1433 419.207 89.9183 418.345 89.1434 417.126C88.8403 416.241 88.8734 415.274 89.2362 414.411C89.5991 413.549 90.2665 412.849 91.1114 412.446C92.9594 411.318 94.3274 411.414 99.5114 410.454C104.695 409.494 109.831 408.558 118.855 400.062C120.113 398.858 121.284 397.567 122.359 396.198C123.858 399.529 126.38 402.296 129.559 404.094C133.819 405.986 138.575 406.449 143.119 405.414C140.719 410.214 134.095 425.214 132.439 429.798C131.119 429.27 129.775 428.79 128.455 428.406C129.942 423.533 131.16 418.581 132.103 413.574ZM342.871 282.15C339.496 282.295 336.143 282.777 332.863 283.59C322.114 284.805 311.306 285.43 300.487 285.462C298.903 275.862 299.383 277.638 298.975 274.974C298.807 273.822 298.567 272.238 299.407 271.734C310.903 266.598 322.855 261.942 334.303 256.926C336.703 258.678 336.895 258.462 337.111 258.318C337.214 258.207 337.272 258.062 337.272 257.91C337.272 257.759 337.214 257.613 337.111 257.502C336.175 256.556 335.189 255.658 334.159 254.814C324.946 246.575 318.529 235.669 315.799 223.614C315.768 223.471 315.68 223.346 315.556 223.268C315.433 223.189 315.283 223.162 315.139 223.194C314.996 223.226 314.872 223.314 314.793 223.437C314.714 223.561 314.688 223.711 314.719 223.854C316.753 236.391 323.237 247.775 332.983 255.918L299.887 269.598C298.931 269.879 298.09 270.46 297.487 271.254C295.831 270.804 294.334 269.898 293.167 268.638C286.927 263.622 284.431 267.054 276.367 273.438C275.588 274.026 274.85 274.668 274.159 275.358C269.897 271.567 265.649 267.759 261.415 263.934C260.335 262.35 250.495 228.414 246.463 214.782C249.58 207.225 254.609 200.609 261.055 195.582C261.801 197.859 262.74 200.067 263.863 202.182C265.663 203.91 267.991 203.07 270.247 202.518C269.626 203.808 269.267 205.209 269.193 206.639C269.119 208.069 269.331 209.499 269.815 210.846C271.515 214.656 274.168 217.962 277.519 220.446C285.727 227.646 285.319 227.454 285.799 227.454C286.021 227.443 286.231 227.352 286.39 227.197C286.549 227.043 286.646 226.835 286.663 226.614C287.479 218.238 290.167 215.934 297.751 213.27C301.899 211.916 305.409 209.092 307.619 205.331C309.829 201.569 310.588 197.128 309.751 192.846C314.768 192.884 319.766 192.238 324.607 190.926C324.836 190.875 325.035 190.735 325.161 190.537C325.287 190.339 325.33 190.099 325.279 189.87C325.279 189.462 325.111 188.982 324.991 188.478C360.007 205.494 381.343 258.51 353.095 278.214C350.023 280.272 346.53 281.616 342.871 282.15ZM350.935 284.886C357.103 286.206 362.263 291.39 365.623 300.51C381.655 343.83 344.287 396.318 297.895 408.51C297.607 405.606 296.023 388.758 295.711 387.51C295.481 386.409 294.848 385.433 293.935 384.774C290.983 383.142 285.919 384.942 283.231 386.526C280.669 388.227 278.379 390.307 276.439 392.694C276.439 393.462 279.799 407.934 280.519 410.886C251.35 416.987 221.03 414.383 193.327 403.398C197.599 385.638 203.263 361.326 204.847 353.79C221.359 358.926 244.567 358.446 244.807 358.422C244.884 358.402 244.952 358.357 245.001 358.294C245.049 358.231 245.075 358.154 245.075 358.074C245.075 357.995 245.049 357.918 245.001 357.855C244.952 357.792 244.884 357.747 244.807 357.726C231.487 353.286 219.991 341.838 212.455 325.47C200.863 301.014 176.815 301.302 167.455 313.47C153.919 331.038 151.735 382.158 151.519 388.326C150.679 389.862 145.855 399.294 144.031 403.134C129.631 406.566 125.527 398.334 123.775 394.806C123.487 394.206 123.631 395.79 128.095 380.022C130.495 381.198 147.559 387.222 147.583 385.446C147.775 365.046 152.719 316.518 166.111 305.358C175.711 297.486 196.471 298.854 205.663 305.67C211.507 311.004 216.287 317.397 219.751 324.51C227.455 341.046 240.727 353.31 255.463 356.382C274.351 354.726 296.263 324.63 302.527 305.382C314.095 290.718 333.175 282.318 350.935 284.886ZM388.495 382.494C388.527 382.637 388.615 382.762 388.738 382.841C388.862 382.92 389.012 382.946 389.155 382.914C389.299 382.882 389.423 382.795 389.502 382.671C389.581 382.547 389.607 382.397 389.575 382.254C388.063 374.526 383.791 367.854 381.103 360.654C376.447 348.342 379.831 335.118 383.767 322.614C385.523 322.942 387.337 322.707 388.951 321.942C390.271 320.91 389.215 319.158 387.727 314.742C388.951 312.892 389.912 310.881 390.583 308.766C394.335 309.654 398.235 309.703 402.007 308.91C402.154 308.873 402.289 308.801 402.403 308.702C402.517 308.602 402.605 308.477 402.661 308.337C402.717 308.196 402.74 308.045 402.726 307.894C402.713 307.744 402.664 307.598 402.583 307.47C400.975 305.358 396.727 299.574 396.511 299.142C396.295 298.71 396.511 298.758 397.207 298.446C408.679 293.226 418.086 284.334 423.943 273.174C424.231 281.022 425.167 310.23 424.903 311.406C421.174 314.105 417.243 316.512 413.143 318.606C412.964 318.705 412.819 318.855 412.725 319.036C412.631 319.218 412.594 319.423 412.617 319.627C412.64 319.83 412.723 320.021 412.855 320.177C412.987 320.333 413.163 320.446 413.359 320.502C416.755 321.663 420.047 323.108 423.199 324.822C423.631 325.518 422.119 331.014 421.855 332.43L419.455 332.91C419.217 332.973 419.011 333.125 418.882 333.335C418.752 333.545 418.708 333.797 418.759 334.038C419.383 338.286 420.799 348.75 420.799 348.75C413.911 342.342 413.959 338.79 412.471 338.646C412.324 338.628 412.174 338.647 412.036 338.701C411.897 338.756 411.775 338.844 411.679 338.958C400.394 352.053 394.059 368.69 393.775 385.974C393.802 386.104 393.873 386.22 393.976 386.304C394.079 386.388 394.207 386.433 394.339 386.433C394.472 386.433 394.6 386.388 394.703 386.304C394.806 386.22 394.877 386.104 394.903 385.974C395.807 369.62 401.874 353.974 412.231 341.286C414.618 345.398 417.752 349.029 421.471 351.99C421.63 352.131 421.829 352.218 422.04 352.239C422.251 352.261 422.463 352.215 422.646 352.109C422.83 352.002 422.975 351.841 423.061 351.647C423.148 351.454 423.171 351.238 423.127 351.03C423.127 351.03 421.399 339.342 420.727 334.59C437.071 331.686 451.111 317.79 455.839 300.078C455.839 309.942 455.503 334.398 455.503 334.638C455.503 336.198 455.503 337.686 454.111 338.382C450.175 339.765 446.17 340.943 442.111 341.91C441.945 341.954 441.794 342.042 441.673 342.164C441.552 342.286 441.467 342.439 441.425 342.606C441.383 342.772 441.387 342.947 441.436 343.112C441.485 343.277 441.577 343.425 441.703 343.542C442.831 344.454 449.311 349.758 451.447 351.462C451.447 351.462 448.519 357.054 447.031 359.814C444.598 357.563 442.583 354.897 441.079 351.942C440.982 351.774 440.832 351.643 440.653 351.568C440.474 351.493 440.275 351.48 440.087 351.529C439.899 351.578 439.733 351.687 439.613 351.84C439.493 351.992 439.426 352.18 439.423 352.374C440.095 368.406 445.231 366.318 440.983 371.574C426.343 389.982 423.775 395.934 408.007 400.59C411.175 386.19 422.023 380.358 426.367 369.966C428.767 364.278 428.239 357.966 430.135 352.254C431.455 348.29 433.613 344.656 436.462 341.6C439.312 338.544 442.785 336.137 446.647 334.542C446.787 334.495 446.903 334.393 446.968 334.26C447.033 334.128 447.043 333.974 446.995 333.834C446.948 333.694 446.846 333.579 446.714 333.514C446.581 333.448 446.427 333.439 446.287 333.486C441.258 335.261 436.82 338.397 433.468 342.546C430.116 346.694 427.982 351.692 427.303 356.982C426.271 364.35 426.487 367.974 421.879 374.43C416.791 381.51 408.463 387.774 405.775 401.19C401.602 402.229 397.33 402.825 393.031 402.966C392.527 398.67 389.887 396.15 388.015 396.054C386.287 393.03 368.071 365.31 361.351 359.238C368.783 345.865 372.199 330.632 371.191 315.366C374.071 319.614 378.991 327.582 379.855 329.142C371.479 361.446 385.159 366.294 388.495 382.494ZM350.647 383.55C350.647 383.381 350.598 383.215 350.506 383.073C350.414 382.931 350.284 382.818 350.13 382.747C349.976 382.676 349.805 382.651 349.638 382.674C349.47 382.698 349.312 382.768 349.183 382.878C346.115 385.925 343.327 389.242 340.855 392.79C339.442 391.966 338.115 391.001 336.895 389.91C342.696 384.87 347.956 379.239 352.591 373.11C378.079 403.686 376.855 402.798 377.575 402.222C377.632 402.184 377.68 402.135 377.717 402.077C377.754 402.02 377.779 401.955 377.79 401.888C377.801 401.821 377.798 401.752 377.782 401.685C377.766 401.619 377.736 401.557 377.695 401.502C376.015 398.958 358.903 377.502 353.695 371.478C356.169 368.061 358.429 364.494 360.463 360.798C370.063 370.182 384.967 394.878 386.359 397.206C385.034 399.112 384.415 401.421 384.607 403.734C381.576 404.581 378.39 404.721 375.295 404.142C371.623 403.422 357.895 396.678 348.895 396.414C349.471 393.798 350.383 385.806 350.719 383.55H350.647ZM287.815 386.598H288.223C290.095 386.166 293.023 385.518 293.719 387.414C294.079 388.71 301.327 460.302 301.327 462.51C301.366 462.858 301.328 463.21 301.216 463.542C301.104 463.874 300.921 464.177 300.679 464.43C294.439 462.03 279.079 398.358 278.479 392.958C280.898 389.966 284.146 387.754 287.815 386.598ZM32.2634 273.27C32.2634 267.774 28.6154 158.814 28.9754 154.878C29.5994 147.462 32.2634 144.126 38.1434 143.358C44.3594 142.158 102.391 140.502 108.727 140.334C108.871 142.734 108.991 144.414 109.039 144.726C109.305 146.614 110.206 148.356 111.593 149.664C112.98 150.973 114.771 151.771 116.671 151.926C116.671 151.686 115.087 151.926 164.671 152.094C164.671 159.582 165.127 194.766 165.151 196.422C151.039 196.95 136.495 197.526 133.711 197.79C133.327 197.79 132.991 198.486 133.135 198.822C137.311 209.142 155.911 251.046 161.119 261.798C161.605 263.02 162.44 264.072 163.519 264.822C164.191 265.83 164.983 266.958 165.919 268.086C158.311 274.158 155.575 280.878 151.159 290.718C130.831 291.15 48.4394 292.854 46.5914 292.782C41.4554 292.566 37.8314 291.078 35.5754 288.246C32.1434 284.166 32.2874 278.598 32.2634 273.27ZM309.919 177.414C310.423 179.238 312.319 180.222 315.247 180.294C320.287 180.078 322.447 184.422 323.359 189.414C318.453 190.373 313.476 190.927 308.479 191.07C308.335 191.072 308.193 191.107 308.064 191.173C307.935 191.238 307.823 191.333 307.737 191.449C307.651 191.566 307.593 191.7 307.568 191.843C307.543 191.985 307.551 192.132 307.591 192.27C308.358 195.01 308.365 197.906 307.613 200.65C306.86 203.393 305.376 205.881 303.319 207.846C296.863 214.062 286.519 210.63 285.007 224.958C282.847 223.086 274.855 216.294 273.223 214.302C270.415 211.062 269.287 205.686 272.167 202.302C278.335 201.294 284.567 200.741 290.815 200.646C290.955 200.646 291.09 200.591 291.189 200.492C291.288 200.393 291.343 200.258 291.343 200.118C291.343 199.978 291.288 199.844 291.189 199.745C291.09 199.646 290.955 199.59 290.815 199.59C283.627 199.081 276.402 199.598 269.359 201.126C266.671 201.87 265.351 202.398 264.151 199.878C263.551 198.606 259.975 187.71 259.351 185.694C258.247 183.078 258.919 183.87 260.935 182.622C262.911 184.291 265.128 185.651 267.511 186.654C267.511 186.942 268.759 190.758 268.951 191.454C269.033 192.031 269.321 192.558 269.763 192.938C270.204 193.318 270.769 193.524 271.351 193.518C276.948 194.032 282.587 193.213 287.806 191.127C293.025 189.041 297.675 185.748 301.375 181.518C301.449 181.418 301.483 181.293 301.47 181.169C301.457 181.045 301.399 180.931 301.306 180.847C301.214 180.764 301.094 180.717 300.969 180.717C300.844 180.717 300.724 180.763 300.631 180.846C296.914 184.603 292.449 187.536 287.524 189.455C282.599 191.373 277.326 192.234 272.047 191.982C270.367 191.862 270.583 192.222 269.167 187.182C275.647 189.006 277.279 186.534 274.975 188.814C274.9 188.904 274.859 189.017 274.858 189.134C274.857 189.251 274.897 189.365 274.971 189.456C275.045 189.546 275.148 189.609 275.262 189.632C275.377 189.655 275.496 189.637 275.599 189.582C284.329 183.055 290.698 173.864 293.743 163.398C293.766 163.331 293.774 163.259 293.767 163.188C293.761 163.117 293.74 163.048 293.707 162.985C293.673 162.923 293.627 162.867 293.572 162.823C293.516 162.778 293.452 162.745 293.383 162.726C292.135 162.294 292.975 164.766 287.119 174.342C284.719 164.742 286.327 154.59 283.735 144.942C283.7 144.805 283.612 144.688 283.491 144.616C283.369 144.544 283.224 144.523 283.087 144.558C282.951 144.593 282.833 144.681 282.761 144.803C282.689 144.924 282.668 145.069 282.703 145.206C283.124 147.248 283.397 149.317 283.519 151.398C278.407 146.334 267.607 138.246 259.087 140.094C257.252 140.151 255.512 140.928 254.246 142.258C252.979 143.587 252.287 145.362 252.319 147.198C250.255 144.414 251.695 140.166 253.567 137.814C258.511 131.358 267.295 128.214 276.055 125.814C283.807 123.75 294.175 124.038 300.055 131.046C302.606 134.544 304.449 138.506 305.479 142.71C308.545 152.185 310.683 161.934 311.863 171.822C311.955 172.221 311.936 172.637 311.809 173.026C311.683 173.415 311.452 173.762 311.143 174.03C310.664 174.44 310.3 174.968 310.085 175.561C309.871 176.154 309.814 176.792 309.919 177.414ZM162.871 261.222C160.615 256.422 138.319 206.982 134.767 198.822C142.711 198.822 232.351 195.534 233.911 195.486C236.959 205.278 254.719 264.414 254.719 264.918C254.719 264.918 233.503 265.446 222.055 265.902C202.735 256.158 184.855 257.214 171.847 264.102C164.503 263.79 164.167 263.934 162.871 261.222ZM254.071 161.67C253.735 154.47 254.071 149.454 255.199 148.95C259.327 147.078 267.031 146.55 275.599 149.262C276.679 149.622 280.135 151.422 283.615 152.886C283.999 160.566 283.615 168.702 286.015 176.142C283.894 179.862 281.169 183.204 277.951 186.03C263.431 187.95 254.719 176.334 254.023 161.67H254.071ZM276.103 305.19C275.527 306.294 285.295 313.638 286.351 314.43C289.807 317.694 285.583 319.47 282.079 316.326C262.879 299.07 246.511 279.294 225.175 267.486C237.607 267.078 252.991 266.622 255.631 266.598C258.295 269.166 289.231 298.134 297.223 304.998C274.903 305.166 276.319 304.806 276.055 305.19H276.103ZM299.671 304.854C299.431 304.638 258.871 267.99 257.311 266.166C256.399 264.63 239.575 207.534 235.711 196.038C238.082 197.655 239.84 200.022 240.703 202.758C242.143 206.862 258.487 261.582 258.559 261.846C258.756 263.175 259.35 264.414 260.263 265.398C266.575 271.47 293.359 295.758 302.071 302.958C301.567 303.582 301.063 304.206 300.583 304.854H299.671ZM297.919 281.79C293.743 281.454 292.423 280.974 291.391 282.246C291.055 282.774 290.095 283.95 288.871 283.686C288.659 283.637 288.459 283.544 288.285 283.414C288.11 283.284 287.964 283.119 287.856 282.93C287.748 282.74 287.68 282.531 287.656 282.314C287.633 282.097 287.654 281.878 287.719 281.67C288.895 280.566 290.119 279.606 291.223 278.43C291.282 278.347 291.312 278.247 291.307 278.145C291.303 278.044 291.264 277.946 291.198 277.869C291.132 277.792 291.042 277.739 290.942 277.719C290.842 277.699 290.738 277.713 290.647 277.758C289.423 278.55 288.247 279.822 286.855 280.662C286.741 280.664 286.627 280.69 286.524 280.74C286.42 280.79 286.329 280.862 286.255 280.95C285.968 281.067 285.657 281.116 285.348 281.093C285.038 281.07 284.739 280.975 284.471 280.817C284.204 280.66 283.977 280.442 283.808 280.182C283.639 279.922 283.532 279.626 283.495 279.318C283.495 277.398 285.559 276.126 286.759 274.71C287.239 274.23 286.519 273.51 286.015 273.966C284.73 275.052 283.534 276.24 282.439 277.518C281.057 277.958 279.645 278.303 278.215 278.55C277.567 278.55 278.215 278.958 275.383 276.534C278.336 273.765 281.551 271.289 284.983 269.142C290.815 265.302 291.895 271.95 297.151 272.718C297.146 275.759 297.403 278.794 297.919 281.79ZM303.319 301.566L279.151 279.966C280.028 279.793 280.893 279.569 281.743 279.294C281.724 279.815 281.826 280.334 282.042 280.809C282.257 281.284 282.581 281.702 282.986 282.03C283.391 282.358 283.867 282.588 284.376 282.7C284.885 282.813 285.414 282.805 285.919 282.678C286.015 283.187 286.23 283.666 286.547 284.077C286.863 284.487 287.272 284.816 287.74 285.039C288.208 285.261 288.721 285.37 289.239 285.356C289.757 285.342 290.264 285.205 290.719 284.958C294.031 283.446 290.719 282.87 296.071 283.35C296.767 283.35 297.511 283.494 298.231 283.518C298.447 284.646 298.663 285.678 298.903 286.662C298.961 286.859 299.082 287.031 299.246 287.152C299.411 287.273 299.611 287.337 299.815 287.334C342.727 286.422 321.655 280.494 303.271 301.566H303.319ZM245.719 212.19C243.007 203.094 241.591 195.75 236.119 193.878C236.119 194.166 238.159 193.566 167.119 196.278C167.119 184.59 166.615 156.318 166.543 152.022H252.583C251.911 162.414 252.583 173.622 259.783 181.35C258.919 181.686 257.383 182.406 257.023 183.006C257.909 186.885 259.096 190.689 260.575 194.382C254.136 198.926 248.985 205.062 245.623 212.19H245.719ZM235.855 138.006C235.855 134.646 235.087 116.574 234.919 113.262H241.039C241.039 116.67 241.495 134.67 241.639 137.982C239.719 137.934 237.775 137.958 235.855 138.006ZM200.695 138.726C200.719 132.198 199.879 76.9983 199.759 69.7983H205.879C205.879 88.0383 206.407 133.662 206.503 138.63L200.695 138.726ZM162.823 79.0623H168.967C168.967 94.8303 169.471 134.646 169.591 139.374H163.783C163.807 133.47 162.967 85.6383 162.823 79.0623ZM110.719 143.67C110.383 141.63 107.599 77.7183 106.471 53.2383C106.207 45.7023 108.199 36.4383 113.263 32.1423C113.263 48.9423 115.423 141.654 115.903 150.054C114.491 149.647 113.237 148.816 112.31 147.675C111.384 146.534 110.828 145.136 110.719 143.67ZM330.919 123.726C330.722 122.16 331.097 120.574 331.975 119.262C333.854 117.783 335.872 116.489 337.999 115.398C335.599 119.718 336.223 118.518 337.495 194.358C335.516 192.849 333.457 191.447 331.327 190.158C331.087 178.062 330.967 134.094 330.991 123.726H330.919ZM351.895 150.39C353.011 148.807 354.493 147.518 356.215 146.632C357.936 145.746 359.847 145.29 361.783 145.302C371.551 145.302 375.103 156.918 377.023 166.374C378.703 173.79 378.823 182.526 384.223 188.574C409.327 211.326 411.223 179.574 426.487 180.798C431.287 181.35 434.479 185.742 437.911 188.91C439.379 190.558 441.437 191.561 443.638 191.7C445.84 191.839 448.008 191.104 449.671 189.654V223.758C443.767 223.758 368.791 223.206 360.559 223.302C358.555 219.108 356.195 215.093 353.503 211.302C353.791 208.398 352.015 152.982 351.967 150.39H351.895ZM361.495 224.934C372.535 225.102 442.591 225.294 449.863 225.294C449.874 226.208 449.93 227.122 450.031 228.03C450.049 228.224 450.137 228.404 450.279 228.536C450.42 228.669 450.605 228.745 450.799 228.75C452.215 228.75 451.567 230.934 451.327 165.846C451.327 165.687 451.264 165.535 451.152 165.422C451.039 165.309 450.887 165.246 450.727 165.246C450.568 165.246 450.416 165.309 450.303 165.422C450.191 165.535 450.127 165.687 450.127 165.846C450.127 170.118 449.863 184.23 449.839 187.014C449.289 187.882 448.54 188.606 447.655 189.129C446.77 189.651 445.774 189.957 444.749 190.02C443.723 190.083 442.697 189.902 441.755 189.493C440.812 189.083 439.981 188.456 439.327 187.662C432.391 180.462 425.527 174.462 415.495 183.726C407.287 192.198 402.775 199.35 391.495 192.03C386.928 189.597 383.486 185.483 381.895 180.558C378.103 166.95 379.159 145.95 363.127 143.166C360.984 142.947 358.82 143.257 356.824 144.069C354.828 144.881 353.061 146.169 351.679 147.822C351.679 144.174 351.415 140.622 351.271 136.926C351.271 136.773 351.211 136.627 351.103 136.519C350.995 136.411 350.848 136.35 350.695 136.35C350.543 136.35 350.396 136.411 350.288 136.519C350.18 136.627 350.119 136.773 350.119 136.926C350.119 140.91 351.367 196.542 351.751 208.758C348.053 203.918 343.8 199.528 339.079 195.678C339.079 186.534 338.263 127.158 338.167 123.486C338.023 116.814 340.687 112.95 346.831 111.342C351.871 109.95 442.495 108.558 451.111 109.734C456.823 110.454 460.087 116.046 460.903 120.894C461.911 126.918 462.199 226.494 462.223 227.814C462.415 239.574 461.023 252.99 448.783 254.646C446.023 255.03 377.743 255.198 367.831 255.102C368.138 244.692 365.984 234.356 361.543 224.934H361.495ZM291.223 38.1183C294.103 43.1583 292.471 41.7663 294.511 124.662C284.575 120.174 270.511 124.302 260.911 129.462V58.3503C260.911 57.7983 262.159 57.9663 253.711 57.9663C253.183 57.9663 253.231 53.0223 255.007 133.446C253.567 134.746 252.315 136.241 251.287 137.886H243.223C243.223 134.766 242.311 112.638 242.215 112.446C242.188 112.321 242.117 112.21 242.017 112.131C241.916 112.053 241.791 112.011 241.663 112.014C239.07 111.927 236.474 111.983 233.887 112.182C233.811 112.235 233.75 112.307 233.712 112.392C233.674 112.477 233.66 112.57 233.671 112.662C233.671 115.062 234.103 134.55 234.271 138.006L225.223 138.198C225.679 97.2063 225.847 99.3663 225.223 99.3183C218.719 99.5823 218.575 99.4623 218.575 99.9423V138.342L208.015 138.558C208.015 133.206 207.199 72.7263 207.031 69.2223C207.039 69.0644 206.986 68.9098 206.883 68.7895C206.781 68.6693 206.636 68.5923 206.479 68.5743C206.479 68.5743 198.967 68.5743 198.727 68.8143C198.031 69.3663 199.111 136.014 199.111 138.75L187.711 138.966V103.134C187.627 103.101 187.532 103.101 187.447 103.134C180.823 103.134 180.895 103.134 180.895 103.662V139.11L171.151 139.398C170.479 77.4303 169.927 78.5583 170.167 78.5583C170.168 78.4045 170.113 78.2558 170.011 78.1406C169.909 78.0255 169.768 77.952 169.615 77.9343C169.615 77.9343 162.151 77.9343 161.911 78.1263C161.095 78.6303 162.247 135.318 162.247 139.59L149.047 139.83C149.119 46.3023 149.383 50.5983 148.759 50.5983L142.879 50.8143C142.471 50.8143 142.615 45.0783 142.615 139.926C132.727 140.118 133.015 139.926 132.871 140.31C132.825 140.385 132.8 140.471 132.797 140.559C132.794 140.646 132.814 140.734 132.855 140.811C132.897 140.889 132.957 140.954 133.032 141.001C133.106 141.048 133.192 141.075 133.279 141.078C147.847 141.078 236.071 140.19 250.447 139.758C249.007 143.43 249.271 147.486 252.607 149.622V150.15C238.735 150.558 120.031 150.15 117.895 150.15C117.895 147.006 115.207 37.2063 115.183 31.0623C131.815 31.0623 278.383 31.2783 282.199 31.9023C284.07 32.2053 285.85 32.9201 287.411 33.9951C288.971 35.0701 290.274 36.4784 291.223 38.1183ZM29.6234 145.878C26.8634 149.862 26.7194 155.046 26.7194 160.062C26.7194 161.166 30.0794 279.294 30.5834 282.174C30.8705 284.264 31.6015 286.269 32.7275 288.053C33.8535 289.837 35.3483 291.36 37.1114 292.518C34.2904 292.376 31.5325 291.632 29.0234 290.334C23.6954 287.406 21.6794 281.382 20.9594 278.046C19.6874 272.046 18.0074 168.99 18.2954 163.662C18.1274 154.83 21.1274 150.054 29.5754 145.878H29.6234ZM389.623 417.294C399.23 416.624 408.64 414.251 417.415 410.286C423.655 407.406 431.431 402.846 434.647 399.222C435.151 410.55 432.847 417.87 421.207 423.222C405.799 430.422 369.247 439.254 353.455 428.718C352.039 427.35 348.655 416.958 347.311 412.158C354.199 416.742 374.263 418.518 389.575 417.294H389.623ZM172.567 448.734C170.551 448.566 169.591 450.582 168.919 452.046C163.303 464.046 163.375 464.814 157.663 465.198C155.863 465.318 138.919 466.71 137.671 466.71C133.303 467.022 130.879 464.022 133.975 460.35C135.74 459.019 137.699 457.967 139.783 457.23C146.455 454.134 157.015 445.95 159.343 435.822C161.752 438.652 165.039 440.595 168.679 441.342C173.187 441.826 177.733 440.895 181.687 438.678C180.775 443.862 178.663 460.014 178.399 465.078C176.996 464.931 175.586 464.867 174.175 464.886C174.151 463.518 173.695 448.83 172.519 448.734H172.567ZM181.399 436.374C178.281 438.58 174.539 439.732 170.719 439.662C168.699 439.51 166.732 438.944 164.94 437.998C163.148 437.053 161.569 435.748 160.303 434.166C160.303 433.422 160.039 425.382 160.111 421.062C167.888 421.675 175.693 421.828 183.487 421.518C183.103 423.63 181.879 432.198 181.351 436.374H181.399Z" fill="black"/>
<path d="M420.319 126.582C420.455 126.555 420.577 126.481 420.665 126.374C420.752 126.267 420.8 126.133 420.8 125.994C420.8 125.856 420.752 125.722 420.665 125.614C420.577 125.507 420.455 125.434 420.319 125.406H416.287C386.119 126.342 387.103 126.318 387.127 127.158C387.151 127.998 386.215 128.19 420.319 126.582ZM421.327 132.198C415.951 132.198 394.927 132.486 389.527 132.918C389.338 132.951 389.166 133.05 389.042 133.197C388.919 133.344 388.851 133.53 388.851 133.722C388.851 133.914 388.919 134.1 389.042 134.248C389.166 134.395 389.338 134.493 389.527 134.526C395.023 134.526 415.927 133.446 421.351 133.23C421.469 133.202 421.573 133.134 421.647 133.039C421.72 132.943 421.759 132.825 421.756 132.704C421.753 132.584 421.709 132.468 421.631 132.376C421.553 132.283 421.446 132.221 421.327 132.198ZM416.047 141.03C412.303 141.174 400.279 141.03 388.807 141.03C388.553 141.03 388.309 141.131 388.129 141.311C387.949 141.491 387.847 141.736 387.847 141.99C387.847 142.245 387.949 142.489 388.129 142.669C388.309 142.849 388.553 142.95 388.807 142.95C391.207 143.118 413.719 142.182 416.071 142.086C416.211 142.083 416.344 142.024 416.441 141.923C416.538 141.822 416.591 141.686 416.587 141.546C416.584 141.406 416.526 141.273 416.424 141.176C416.323 141.08 416.187 141.027 416.047 141.03ZM338.719 21.1022C335.907 21.7928 333.335 23.2335 331.276 25.2706C329.218 27.3077 327.751 29.8651 327.031 32.6702C324.367 42.8702 333.607 53.9822 344.239 52.2062C346.563 51.7155 348.762 50.7558 350.701 49.3857C352.641 48.0156 354.28 46.264 355.519 44.2382C356.73 42.0023 357.417 39.5208 357.53 36.9807C357.642 34.4406 357.176 31.9081 356.167 29.5742C354.727 25.4462 350.455 18.8462 338.719 21.1022ZM344.527 41.3342C339.895 44.5262 334.471 38.7182 336.607 35.1422C340.447 28.7582 347.263 33.5822 347.431 35.9822C347.429 37.0477 347.16 38.0957 346.648 39.0305C346.137 39.9654 345.399 40.7573 344.503 41.3342H344.527ZM344.239 30.4142C342.62 29.9045 340.877 29.946 339.283 30.5322C337.689 31.1185 336.335 32.2163 335.431 33.6542C334.693 34.9486 334.415 36.4548 334.641 37.9277C334.868 39.4006 335.586 40.7535 336.679 41.7662C337.55 42.6022 338.621 43.2007 339.79 43.5045C340.958 43.8084 342.185 43.8073 343.353 43.5015C344.521 43.1957 345.591 42.5953 346.46 41.7578C347.33 40.9203 347.97 39.8737 348.319 38.7182C350.367 40.0615 352.658 40.9909 355.063 41.4542C354.214 43.5274 352.91 45.3839 351.249 46.8873C349.588 48.3907 347.611 49.5029 345.463 50.1422C335.863 52.9262 327.319 44.2142 328.399 34.8062C328.716 32.615 329.526 30.5244 330.768 28.6921C332.01 26.8597 333.653 25.3335 335.571 24.2287C337.49 23.1239 339.634 22.4693 341.842 22.3143C344.051 22.1594 346.266 22.5081 348.319 23.3342C346.419 25.3425 345.014 27.7669 344.215 30.4142H344.239Z" fill="black"/>
<path d="M317.119 62.3102C322.975 61.9982 430.207 61.1822 438.031 58.8542C444.055 57.7502 446.119 54.9662 445.807 48.8942C445.807 46.8782 446.143 23.7662 445.519 19.6622C444.967 14.5982 442.255 12.1982 436.543 11.8862C431.743 11.4302 320.503 13.1582 315.247 14.2862C310.975 15.1262 308.047 16.6862 307.471 21.4862C307.207 22.9502 308.359 50.0462 308.503 52.6862C308.839 58.3982 311.695 61.7822 317.119 62.3102ZM326.479 60.6782C325.066 60.5079 323.709 60.0255 322.505 59.2659C321.301 58.5063 320.281 57.4885 319.519 56.2862C317.828 53.3726 316.957 50.0551 316.999 46.6862C316.735 42.6062 315.967 27.4862 315.871 23.8382C315.871 22.3502 315.871 17.4062 319.519 15.6302C325.159 15.0542 430.231 13.4942 434.719 13.6382C437.119 13.6382 440.359 13.8302 442.183 15.6782C444.871 18.3902 444.007 22.8782 444.175 48.6782C444.703 55.2542 442.207 56.6942 436.063 57.5822C430.543 58.4222 327.439 60.6782 326.527 60.6782H326.479ZM314.239 20.7902C313.927 22.9502 315.199 43.5902 315.319 46.3262C315.607 53.1182 317.551 57.9422 321.391 60.7262H318.991C313.135 60.7262 310.471 57.9182 310.207 51.9422C310.063 48.5342 308.959 23.1422 309.199 21.7022C309.703 17.3342 312.655 16.3742 316.567 15.8942C315.355 17.2744 314.563 18.9737 314.287 20.7902H314.239Z" fill="black"/>
<path d="M370.879 27.0062C371.767 27.0062 399.319 26.3102 399.079 26.3102C399.203 26.2839 399.314 26.216 399.394 26.1177C399.474 26.0194 399.517 25.8967 399.517 25.7702C399.517 25.6436 399.474 25.521 399.394 25.4227C399.314 25.3244 399.203 25.2564 399.079 25.2302C397.039 25.2302 373.255 24.8222 370.831 25.2302C370.647 25.2971 370.487 25.4206 370.377 25.5832C370.266 25.7457 370.209 25.9389 370.215 26.1355C370.22 26.3321 370.287 26.522 370.406 26.6782C370.526 26.8345 370.691 26.9493 370.879 27.0062ZM407.527 34.5422C404.071 34.8782 369.367 33.7022 369.127 35.4542C369.127 35.7902 369.439 36.0542 369.679 36.1022C372.703 36.4622 407.407 35.7182 407.647 35.6942C407.723 35.6863 407.796 35.6636 407.863 35.6274C407.93 35.5911 407.989 35.5421 408.037 35.483C408.085 35.424 408.121 35.3561 408.143 35.2832C408.164 35.2103 408.171 35.1338 408.163 35.0582C408.156 34.9825 408.133 34.9092 408.097 34.8423C408.06 34.7754 408.011 34.7164 407.952 34.6684C407.893 34.6205 407.825 34.5847 407.752 34.563C407.68 34.5414 407.603 34.5343 407.527 34.5422ZM406.831 43.7582C400.903 43.7582 371.023 43.6142 369.463 43.8782C369.31 43.9188 369.174 44.0091 369.077 44.135C368.98 44.2609 368.928 44.4153 368.928 44.5742C368.928 44.733 368.98 44.8874 369.077 45.0133C369.174 45.1392 369.31 45.2295 369.463 45.2702C371.119 45.5342 404.407 44.7662 406.855 44.6942C406.961 44.6674 407.054 44.6056 407.12 44.5188C407.186 44.432 407.22 44.3254 407.217 44.2166C407.215 44.1077 407.175 44.0031 407.105 43.9198C407.035 43.8365 406.938 43.7795 406.831 43.7582ZM67.5194 197.502C83.7674 196.182 92.3834 175.254 79.7594 163.638C79.3034 163.23 80.1674 162.318 66.8714 181.542C50.7914 166.302 51.6554 166.878 51.2954 167.142C38.5754 179.694 51.1754 198.846 67.5194 197.502Z" fill="black"/>
<path d="M65.7434 173.67C66.1994 174.174 65.9834 174.246 76.8554 155.91C76.8815 155.869 76.8991 155.824 76.9072 155.776C76.9152 155.728 76.9136 155.68 76.9024 155.633C76.8912 155.586 76.8707 155.541 76.842 155.502C76.8133 155.463 76.777 155.431 76.7354 155.406C72.9015 153.388 68.5089 152.692 64.239 153.426C59.969 154.159 56.0604 156.281 53.1194 159.462C52.8314 159.822 52.3994 159.126 65.7434 173.67ZM40.6634 262.59C41.279 262.586 41.8796 262.4 42.3897 262.055C42.8998 261.711 43.2965 261.223 43.53 260.654C43.7635 260.084 43.8233 259.458 43.7018 258.855C43.5803 258.251 43.2831 257.697 42.8474 257.262C44.0474 255.318 51.8234 242.526 54.1034 239.07C54.6943 239.343 55.3538 239.432 55.9959 239.325C56.6381 239.218 57.2331 238.92 57.7034 238.47L68.7914 247.014C68.6106 247.549 68.5784 248.123 68.6981 248.675C68.8179 249.227 69.0851 249.736 69.4714 250.147C69.8576 250.559 70.3484 250.859 70.8914 251.013C71.4344 251.168 72.0092 251.173 72.5546 251.027C73.1001 250.881 73.5956 250.589 73.9884 250.184C74.3812 249.778 74.6566 249.273 74.7852 248.724C74.9138 248.174 74.8907 247.599 74.7185 247.062C74.5463 246.524 74.2314 246.043 73.8074 245.67L77.7434 240.486C78.4479 240.808 79.2465 240.859 79.9862 240.629C80.7259 240.399 81.3545 239.903 81.7514 239.238L93.2234 243.126C93.1614 243.642 93.2294 244.166 93.4212 244.649C93.613 245.132 93.9226 245.56 94.3217 245.893C94.7209 246.226 95.1969 246.455 95.7067 246.557C96.2164 246.659 96.7437 246.633 97.2406 246.48C97.7374 246.326 98.1881 246.051 98.5516 245.68C98.9152 245.308 99.1801 244.851 99.3223 244.351C99.4644 243.851 99.4794 243.323 99.3657 242.816C99.252 242.309 99.0134 241.838 98.6714 241.446C99.6314 238.014 107.935 212.646 108.775 210.246C109.581 210.176 110.329 209.798 110.863 209.19C113.143 210.99 119.983 216.102 122.191 217.59C122.065 218.087 122.063 218.607 122.186 219.105C122.309 219.602 122.552 220.062 122.895 220.443C123.237 220.825 123.668 221.116 124.15 221.291C124.632 221.466 125.149 221.519 125.657 221.447C126.164 221.374 126.646 221.178 127.059 220.875C127.473 220.572 127.805 220.172 128.027 219.71C128.249 219.248 128.354 218.739 128.333 218.227C128.311 217.715 128.164 217.216 127.903 216.774C134.287 206.598 134.575 206.766 133.903 206.31C133.777 206.232 133.626 206.203 133.48 206.23C133.333 206.256 133.202 206.336 133.111 206.454C131.983 208.086 126.655 215.574 126.655 215.574C126.088 215.295 125.45 215.189 124.823 215.27C124.195 215.351 123.605 215.615 123.127 216.03C120.895 214.47 113.815 209.406 111.559 207.654C111.656 207.1 111.601 206.531 111.4 206.005C111.199 205.48 110.861 205.019 110.419 204.671C109.978 204.322 109.451 204.099 108.894 204.026C108.336 203.952 107.77 204.031 107.253 204.253C106.737 204.475 106.29 204.832 105.96 205.288C105.63 205.743 105.429 206.279 105.378 206.838C105.328 207.398 105.429 207.961 105.672 208.468C105.916 208.975 106.291 209.407 106.759 209.718C104.695 215.334 98.6954 234.774 97.1594 240.438C96.5827 240.289 95.9759 240.305 95.4075 240.483C94.8392 240.661 94.332 240.995 93.9434 241.446C91.5434 240.63 84.3434 238.446 82.1594 237.75C82.1594 236.929 81.8332 236.142 81.2526 235.561C80.672 234.98 79.8845 234.654 79.0634 234.654C78.2423 234.654 77.4548 234.98 76.8742 235.561C76.2936 236.142 75.9674 236.929 75.9674 237.75C75.9726 238.436 76.2 239.101 76.6154 239.646L72.3194 244.998C71.9079 244.908 71.4822 244.904 71.0691 244.987C70.656 245.069 70.2646 245.237 69.9194 245.478L58.4714 236.814C58.5964 236.071 58.4461 235.308 58.0489 234.668C57.6516 234.028 57.0346 233.555 56.3135 233.337C55.5923 233.119 54.8164 233.172 54.1313 233.485C53.4461 233.798 52.8986 234.35 52.5914 235.038C52.3527 235.533 52.2555 236.084 52.3105 236.63C52.3656 237.177 52.5708 237.697 52.9034 238.134C50.6474 241.518 42.4634 254.598 41.2874 256.494C40.8567 256.386 40.4077 256.372 39.9709 256.452C39.5342 256.533 39.1199 256.707 38.7562 256.962C38.3925 257.217 38.0879 257.547 37.8631 257.93C37.6383 258.313 37.4986 258.74 37.4533 259.182C37.4081 259.623 37.4585 260.07 37.601 260.49C37.7435 260.911 37.9749 261.296 38.2794 261.619C38.5839 261.943 38.9544 262.197 39.3658 262.364C39.7771 262.532 40.2197 262.609 40.6634 262.59ZM82.4234 271.086C82.2452 271.086 82.0743 271.157 81.9482 271.283C81.8222 271.409 81.7514 271.58 81.7514 271.758C81.7514 271.936 81.8222 272.107 81.9482 272.233C82.0743 272.359 82.2452 272.43 82.4234 272.43C86.6234 272.43 135.919 270.51 137.623 270.486C137.735 270.461 137.835 270.399 137.907 270.309C137.979 270.22 138.018 270.109 138.018 269.994C138.018 269.879 137.979 269.768 137.907 269.679C137.835 269.589 137.735 269.527 137.623 269.502C130.927 269.526 86.7194 270.606 82.4234 271.086ZM103.519 253.926C103.672 253.926 103.819 253.865 103.927 253.757C104.035 253.649 104.095 253.503 104.095 253.35C104.095 253.197 104.035 253.051 103.927 252.943C103.819 252.835 103.672 252.774 103.519 252.774C101.623 252.774 94.7594 252.366 93.1514 252.438C92.8713 252.438 92.6027 252.549 92.4047 252.747C92.2067 252.945 92.0954 253.214 92.0954 253.494C92.0954 253.774 92.2067 254.043 92.4047 254.241C92.6027 254.439 92.8713 254.55 93.1514 254.55C94.7354 254.742 101.527 254.094 103.519 253.926ZM77.8634 256.998H67.5194C67.2957 257.009 67.079 257.079 66.8919 257.202C66.7048 257.325 66.5543 257.496 66.4561 257.698C66.358 257.899 66.3158 258.123 66.3339 258.346C66.3521 258.569 66.43 258.783 66.5594 258.966C67.2074 259.926 67.7114 259.182 77.9114 258.318C78.038 258.258 78.1442 258.161 78.2168 258.041C78.2895 257.921 78.3255 257.783 78.3204 257.642C78.3153 257.502 78.2693 257.366 78.1881 257.252C78.1069 257.138 77.9941 257.049 77.8634 256.998ZM36.9434 269.814C37.4474 269.814 44.7434 269.022 46.3514 268.95C46.5296 268.95 46.7006 268.879 46.8266 268.753C46.9526 268.627 47.0234 268.456 47.0234 268.278C47.0234 268.1 46.9526 267.929 46.8266 267.803C46.7006 267.677 46.5296 267.606 46.3514 267.606C45.4154 267.606 37.3034 267.942 36.7514 268.206C36.6049 268.294 36.4869 268.423 36.4118 268.577C36.3366 268.73 36.3074 268.902 36.3277 269.072C36.348 269.242 36.4168 269.402 36.5261 269.534C36.6353 269.666 36.7802 269.763 36.9434 269.814Z" fill="black"/>
<path d="M121.639 228.198H122.023C132.223 227.286 131.863 227.982 132.295 227.502C132.375 227.408 132.427 227.294 132.447 227.172C132.466 227.05 132.451 226.925 132.404 226.811C132.357 226.697 132.279 226.598 132.18 226.526C132.08 226.453 131.962 226.409 131.839 226.398C128.263 226.398 124.903 226.086 121.687 226.23C120.319 226.254 120.439 228.198 121.639 228.198ZM67.9754 207.246C67.7144 207.246 67.4642 207.35 67.2796 207.534C67.0951 207.719 66.9914 207.969 66.9914 208.23C66.9914 208.491 67.0951 208.742 67.2796 208.926C67.4642 209.111 67.7144 209.214 67.9754 209.214C71.4074 209.214 84.7754 207.99 88.0154 207.654C88.1689 207.625 88.3074 207.543 88.4069 207.422C88.5065 207.302 88.561 207.151 88.561 206.994C88.561 206.838 88.5065 206.687 88.4069 206.566C88.3074 206.446 88.1689 206.364 88.0154 206.334C84.6794 206.598 71.2874 206.958 67.9754 207.246ZM66.3434 212.862C66.1504 212.91 65.9814 213.027 65.8684 213.191C65.7554 213.354 65.706 213.554 65.7296 213.751C65.7532 213.949 65.8481 214.131 65.9965 214.263C66.1449 214.396 66.3365 214.469 66.5354 214.47C70.3274 214.47 85.2074 213.126 88.9514 213.102C89.1169 213.102 89.2756 213.037 89.3926 212.92C89.5097 212.803 89.5754 212.644 89.5754 212.478C89.5754 212.313 89.5097 212.154 89.3926 212.037C89.2756 211.92 89.1169 211.854 88.9514 211.854C81.4014 211.688 73.8487 212.025 66.3434 212.862ZM87.0314 216.702C80.7506 216.612 74.4695 216.86 68.2154 217.446C67.0634 217.59 67.0154 219.342 68.2154 219.342C70.3514 219.342 82.0154 218.142 87.0554 217.95C87.1374 217.949 87.2182 217.931 87.2933 217.898C87.3684 217.865 87.4363 217.818 87.4931 217.759C87.55 217.7 87.5946 217.63 87.6245 217.554C87.6544 217.478 87.669 217.396 87.6674 217.314C87.6658 217.232 87.6481 217.152 87.6153 217.076C87.5825 217.001 87.5352 216.933 87.4762 216.877C87.4171 216.82 87.3474 216.775 87.2711 216.745C87.1948 216.715 87.1134 216.701 87.0314 216.702ZM94.9274 165.006C96.1034 165.006 108.079 163.758 110.431 163.59C110.597 163.59 110.756 163.525 110.873 163.408C110.99 163.29 111.055 163.132 111.055 162.966C111.055 162.801 110.99 162.642 110.873 162.525C110.756 162.408 110.597 162.342 110.431 162.342C109.255 162.342 96.4154 162.726 94.9994 162.822C93.5834 162.918 93.5834 165.006 94.9274 165.006ZM97.3994 169.854C101.167 169.854 115.855 168.462 119.575 168.222C119.711 168.195 119.833 168.121 119.921 168.014C120.008 167.907 120.056 167.773 120.056 167.634C120.056 167.496 120.008 167.362 119.921 167.255C119.833 167.147 119.711 167.074 119.575 167.046C115.831 167.214 101.047 167.286 97.3754 167.67C97.114 167.712 96.8762 167.846 96.7055 168.049C96.5348 168.251 96.4425 168.508 96.4454 168.773C96.4483 169.037 96.5462 169.292 96.7213 169.491C96.8965 169.689 97.1371 169.818 97.3994 169.854Z" fill="black"/>
</svg>
