<svg viewBox="0 0 481 481" fill="none" xmlns="http://www.w3.org/2000/svg">
<path fill-rule="evenodd" clip-rule="evenodd" d="M285.801 220.912C285.801 220.912 285.849 220.912 285.801 220.912V220.912ZM356.217 363.712C343.905 363.496 301.641 364.6 284.601 366.232C283.665 366.232 283.569 367 286.017 366.976C345.609 366.208 353.001 364.576 356.217 364.576C356.331 364.576 356.441 364.531 356.522 364.45C356.603 364.369 356.649 364.259 356.649 364.144C356.649 364.03 356.603 363.92 356.522 363.839C356.441 363.758 356.331 363.712 356.217 363.712V363.712ZM357.033 287.248C344.721 287.008 302.457 288.112 285.417 289.648C284.481 289.648 284.385 290.44 286.833 290.392C346.425 289.648 353.817 287.992 357.033 287.992C357.089 288.007 357.149 288.008 357.206 287.996C357.263 287.985 357.317 287.96 357.363 287.924C357.409 287.888 357.447 287.842 357.473 287.789C357.498 287.737 357.512 287.679 357.512 287.62C357.512 287.562 357.498 287.504 357.473 287.452C357.447 287.399 357.409 287.353 357.363 287.317C357.317 287.281 357.263 287.256 357.206 287.244C357.149 287.233 357.089 287.234 357.033 287.248ZM357.345 217.696C345.009 217.48 302.745 218.584 285.705 220.096C284.769 220.096 284.697 220.864 287.121 220.84C346.737 220.096 354.105 218.44 357.345 218.44C357.416 218.408 357.477 218.356 357.52 218.29C357.562 218.224 357.585 218.147 357.585 218.068C357.585 217.99 357.562 217.913 357.52 217.847C357.477 217.781 357.416 217.729 357.345 217.696ZM357.105 155.392C344.769 155.176 302.505 156.28 285.465 157.792C284.529 157.792 284.457 158.56 286.881 158.536C346.497 157.768 353.865 156.136 357.105 156.136C357.176 156.104 357.237 156.052 357.28 155.986C357.322 155.92 357.345 155.843 357.345 155.764C357.345 155.686 357.322 155.609 357.28 155.543C357.237 155.477 357.176 155.425 357.105 155.392V155.392ZM357.489 91.6724C345.177 91.4564 302.913 92.5604 285.873 94.0724C284.937 94.0724 284.865 94.8644 287.289 94.8404C346.881 94.0724 354.273 92.4404 357.489 92.4404C357.59 92.4404 357.688 92.4 357.76 92.328C357.832 92.2559 357.873 92.1583 357.873 92.0564C357.873 91.9546 357.832 91.8569 357.76 91.7849C357.688 91.7129 357.59 91.6724 357.489 91.6724V91.6724ZM356.889 32.3444C344.577 32.1044 302.313 33.2084 285.273 34.7444C284.337 34.7444 284.241 35.5364 286.689 35.4884C346.281 34.7444 353.673 33.0884 356.889 33.0884C356.945 33.1029 357.005 33.1043 357.062 33.0924C357.119 33.0805 357.173 33.0557 357.219 33.0198C357.266 32.9839 357.303 32.9379 357.329 32.8853C357.354 32.8327 357.368 32.775 357.368 32.7164C357.368 32.6579 357.354 32.6001 357.329 32.5475C357.303 32.495 357.266 32.449 357.219 32.4131C357.173 32.3772 357.119 32.3523 357.062 32.3404C357.005 32.3285 356.945 32.3299 356.889 32.3444ZM267.561 40.9124C268.786 41.7605 270.278 42.1344 271.758 41.9643C273.239 41.7942 274.607 41.0918 275.608 39.9879C276.609 38.884 277.175 37.4539 277.2 35.9638C277.225 34.4738 276.708 33.0254 275.745 31.8884C274.497 29.4884 268.209 28.1924 265.713 31.8884C264.996 33.1879 264.631 34.6525 264.657 36.1364C264.612 37.1308 264.864 38.1159 265.382 38.9664C265.899 39.8169 266.657 40.4943 267.561 40.9124V40.9124ZM266.577 36.3284C266.569 35.3281 266.714 34.3325 267.009 33.3764C268.377 30.1124 273.969 30.7364 275.073 32.2964C275.69 33.3077 275.948 34.498 275.805 35.6743C275.661 36.8506 275.124 37.9438 274.281 38.7764C271.089 41.6804 266.385 38.9204 266.577 36.4004V36.3284ZM276.345 91.3124C275.723 90.5915 274.953 90.013 274.087 89.6165C273.222 89.22 272.281 89.0148 271.329 89.0148C270.376 89.0148 269.436 89.22 268.57 89.6165C267.704 90.013 266.934 90.5915 266.313 91.3124C265.615 92.6185 265.26 94.08 265.281 95.5604C264.921 99.6404 270.249 102.112 273.537 100.984C274.476 100.671 275.326 100.134 276.012 99.4203C276.699 98.7063 277.202 97.8363 277.478 96.8851C277.754 95.9338 277.795 94.9298 277.598 93.9591C277.4 92.9885 276.97 92.0802 276.345 91.3124V91.3124ZM272.937 99.2564C270.873 99.9284 266.985 98.2484 267.201 95.7764C267.165 94.7744 267.312 93.7743 267.633 92.8244C268.977 89.5364 274.569 90.1604 275.673 91.7204C276.103 92.3685 276.374 93.1085 276.466 93.8809C276.558 94.6532 276.467 95.4363 276.201 96.1671C275.935 96.8979 275.501 97.556 274.934 98.0884C274.367 98.6208 273.683 99.0127 272.937 99.2324V99.2564ZM275.937 155.008C274.641 152.608 268.377 151.432 265.905 155.008C265.205 156.305 264.85 157.759 264.873 159.232C264.513 163.288 269.817 165.808 273.129 164.656C274.064 164.342 274.91 163.805 275.593 163.093C276.277 162.381 276.777 161.514 277.053 160.566C277.329 159.618 277.372 158.618 277.177 157.65C276.983 156.682 276.557 155.776 275.937 155.008V155.008ZM272.529 162.952C270.465 163.624 266.577 161.968 266.793 159.472C266.769 158.471 266.915 157.473 267.225 156.52C268.569 153.256 274.137 153.808 275.265 155.416C275.699 156.065 275.975 156.807 276.07 157.582C276.164 158.358 276.074 159.144 275.808 159.878C275.541 160.612 275.106 161.273 274.536 161.807C273.966 162.342 273.278 162.734 272.529 162.952V162.952ZM276.177 217.312C275.555 216.591 274.785 216.013 273.919 215.617C273.054 215.22 272.113 215.015 271.161 215.015C270.208 215.015 269.268 215.22 268.402 215.617C267.536 216.013 266.766 216.591 266.145 217.312C265.448 218.61 265.093 220.064 265.113 221.536C264.681 225.712 270.057 228.112 273.369 227.056C274.317 226.743 275.174 226.202 275.867 225.482C276.559 224.763 277.065 223.885 277.342 222.925C277.619 221.965 277.657 220.952 277.454 219.974C277.251 218.996 276.812 218.083 276.177 217.312V217.312ZM272.769 225.256C270.705 225.928 266.817 224.272 267.033 221.776C267.009 220.775 267.155 219.777 267.465 218.824C268.809 215.56 274.401 216.136 275.505 217.72C275.939 218.369 276.215 219.111 276.31 219.886C276.404 220.662 276.314 221.448 276.048 222.182C275.781 222.916 275.346 223.577 274.776 224.111C274.206 224.646 273.518 225.038 272.769 225.256ZM275.889 286.864C275.269 286.14 274.5 285.558 273.634 285.159C272.768 284.76 271.826 284.554 270.873 284.554C269.919 284.554 268.977 284.76 268.111 285.159C267.245 285.558 266.476 286.14 265.857 286.864C265.14 288.164 264.775 289.629 264.801 291.112C264.441 295.192 269.769 297.664 273.081 296.536C274.02 296.223 274.87 295.686 275.556 294.972C276.243 294.258 276.746 293.388 277.022 292.437C277.298 291.486 277.339 290.482 277.142 289.511C276.944 288.54 276.514 287.632 275.889 286.864V286.864ZM272.481 294.808C270.417 295.48 266.529 293.8 266.721 291.304C266.71 290.304 266.856 289.308 267.153 288.352C268.521 285.088 274.113 285.688 275.217 287.272C275.646 287.922 275.918 288.664 276.009 289.438C276.101 290.212 276.01 290.996 275.744 291.729C275.478 292.461 275.045 293.121 274.478 293.656C273.911 294.191 273.227 294.585 272.481 294.808V294.808Z" fill="black"/>
<path fill-rule="evenodd" clip-rule="evenodd" d="M401.961 359.272C401.961 358.24 402.369 346.768 402.393 343.792C402.417 340.816 402.393 313.6 402.393 310.672C402.393 307.192 401.745 293.752 401.721 293.608C402.113 293.58 402.501 293.499 402.873 293.368C404.158 292.93 405.263 292.077 406.012 290.944C406.762 289.811 407.115 288.462 407.016 287.107C406.918 285.752 406.373 284.468 405.467 283.456C404.56 282.443 403.344 281.76 402.009 281.512C402.657 279.304 402.465 238.6 401.337 224.08C408.321 223.168 408.177 212.488 400.497 211.888C401.433 190.936 400.785 168.424 400.257 161.488C401.502 161.388 402.685 160.899 403.637 160.089C404.589 159.279 405.262 158.19 405.561 156.976C405.775 156.126 405.806 155.241 405.652 154.378C405.498 153.515 405.163 152.694 404.668 151.97C404.174 151.247 403.531 150.636 402.783 150.179C402.035 149.723 401.198 149.43 400.329 149.32C400.329 148.576 400.521 139.432 400.545 136.384C400.545 134.704 399.969 109.216 399.897 107.248C399.681 102.856 399.393 97.6484 399.393 97.5284C400.917 97.3573 402.322 96.6199 403.328 95.4624C404.335 94.3048 404.87 92.8114 404.828 91.278C404.785 89.7445 404.169 88.2829 403.1 87.1825C402.031 86.0821 400.588 85.4232 399.057 85.3364C399.057 84.5924 399.321 76.3364 399.345 73.5044C399.345 71.9444 399.009 50.8964 398.937 48.9764C398.865 47.0564 398.337 37.8884 398.265 37.1204C399.583 37.0733 400.85 36.591 401.865 35.7487C402.881 34.9065 403.59 33.7516 403.881 32.4644C405.465 25.4564 396.057 22.0004 392.649 27.0644C391.891 28.4176 391.526 29.955 391.593 31.5044C386.121 30.9666 380.602 31.1441 375.177 32.0324C375.3 26.325 375.036 20.6158 374.385 14.9444C373.905 12.9764 368.697 12.9764 256.137 17.3444C256.058 17.3514 255.983 17.3797 255.92 17.4263C255.856 17.4728 255.807 17.5358 255.777 17.6084C255.098 23.1811 254.841 28.797 255.009 34.4084C252.129 33.1844 249.609 40.0964 248.505 43.1924C246.573 48.7817 244.97 54.4795 243.705 60.2564C242.975 60.2373 242.248 60.3263 241.545 60.5204C238.926 66.7367 235.711 72.6845 231.945 78.2804C221.793 93.3524 212.025 100.048 197.817 104.56C182.481 109.384 159.081 111.16 156.681 111.112C156.554 109.933 156.49 108.747 156.489 107.56C156.489 106.696 156.129 107.56 160.209 104.992C161.607 104.189 162.911 103.231 164.097 102.136C166.761 99.3861 168.692 96.0109 169.713 92.3204C171.657 85.6964 170.913 79.7444 169.713 72.9764C174.513 72.4724 176.649 65.4404 173.097 62.4404C173.873 61.484 174.27 60.2754 174.213 59.0449C174.155 57.8144 173.647 56.6482 172.785 55.7684C172.435 55.4573 172.066 55.1688 171.681 54.9044C173.577 51.2564 172.113 48.3524 169.281 47.3444C169.362 46.9645 169.418 46.5796 169.449 46.1924C169.477 44.6083 169.091 43.0442 168.329 41.655C167.567 40.2659 166.456 39.0998 165.105 38.2724C164.347 37.9378 163.532 37.7504 162.705 37.7204L162.177 36.6884C159.345 31.8884 152.457 30.4964 148.593 34.2884C147.68 33.9455 146.751 33.6491 145.809 33.4004C143.259 32.7547 140.585 32.7961 138.057 33.5204C137.505 33.7124 138.057 33.7364 137.433 32.4164C135.993 28.9124 132.393 27.9044 128.649 28.2164C128.793 27.9764 129.825 25.8164 130.113 25.1684C130.689 23.6292 130.748 21.9441 130.281 20.3684C129.993 19.7593 129.557 19.233 129.011 18.8385C128.466 18.4439 127.829 18.1941 127.161 18.1124C124.569 17.5844 121.833 19.7924 119.961 21.7124C119.942 19.2174 119.368 16.7578 118.281 14.5124C117.904 13.7878 117.335 13.1806 116.637 12.7568C115.938 12.333 115.137 12.1089 114.321 12.1089C113.504 12.1089 112.703 12.333 112.004 12.7568C111.306 13.1806 110.738 13.7878 110.361 14.5124C109.133 16.6534 108.319 19.0063 107.961 21.4484C105.105 18.1604 99.2245 15.9764 95.9605 18.4004C93.1525 20.4644 93.8485 24.6884 95.4805 27.7364C95.4805 27.9524 95.7445 28.1684 95.8885 28.3844C94.8531 28.4645 93.8473 28.7677 92.94 29.2731C92.0328 29.7785 91.2456 30.4741 90.6325 31.3124C87.6325 36.1124 88.7845 41.4884 97.2805 43.3124C98.0675 43.4997 98.8718 43.6042 99.6805 43.6244C96.1045 46.9124 96.3445 51.5924 98.7445 53.4404C100.501 54.839 102.692 55.5779 104.937 55.5284C105.621 57.0042 106.722 58.2474 108.105 59.1044C107.64 60.9504 107.712 62.8905 108.311 64.6971C108.911 66.5038 110.013 68.102 111.489 69.3044C109.977 74.5604 113.073 78.9044 117.777 81.5444C117.777 86.6564 120.177 89.7524 125.193 90.2084C125.553 95.6084 132.393 98.5604 137.193 97.4084C137.193 101.464 137.193 106.24 137.433 110.296C135.514 110.443 133.606 110.707 131.721 111.088C122.568 112.815 113.97 116.735 106.665 122.512C100.94 127.29 96.0287 132.963 92.1205 139.312C81.5845 154.048 73.8565 171.352 73.4965 189.472C73.2085 203.296 78.6565 213.784 88.4485 223.072C89.2885 223.912 88.6885 226.696 88.4485 227.872C86.7205 234.88 82.5205 242.416 85.4245 244.168C89.3845 246.568 97.7365 247.504 102.345 247.912C99.9445 303.928 107.937 389.512 114.849 389.752H115.737C115.737 390.712 118.809 448.504 118.809 448.504C115.633 452.897 112.87 457.573 110.553 462.472C110.001 463.768 108.153 466.912 110.745 467.92C112.737 468.712 115.041 467.2 116.841 466.288C119.937 464.728 132.777 454.6 133.425 451.456C134.721 445.24 139.593 394.6 140.025 388.744C142.425 388.144 142.857 388.312 145.425 379.144C145.929 377.392 167.409 289.888 171.825 265.816C171.846 265.728 171.897 265.649 171.969 265.593C172.041 265.537 172.129 265.507 172.221 265.507C172.312 265.507 172.4 265.537 172.472 265.593C172.544 265.649 172.595 265.728 172.617 265.816C171.801 282.04 169.257 290.728 165.561 307.48C168.201 321.352 175.449 370.288 178.137 379.768C178.401 380.704 178.689 381.688 179.385 381.832C181.852 382.275 184.345 382.564 186.849 382.696C188.121 388.576 199.329 437.752 201.537 443.8C202.569 446.656 213.993 449.056 221.121 451.48C222.916 451.929 224.747 452.227 226.593 452.368C230.289 452.824 231.513 450.688 228.993 447.832C226.473 444.976 225.657 445.576 216.129 437.128C216.129 437.128 211.089 381.568 211.041 381.304C211.809 381.04 213.441 380.296 213.777 379.552C215.601 375.016 222.369 290.752 205.905 235.768L207.825 235.168C213.561 233.368 208.209 203.968 207.057 183.76C210.297 183.76 238.617 182.848 241.785 181.888C242.017 181.842 242.229 181.724 242.392 181.553C242.555 181.381 242.662 181.163 242.697 180.928C243.375 171.979 243.327 162.99 242.553 154.048C242.289 152.992 242.121 152.68 221.505 153.16C232.449 144.952 242.265 139.096 249.153 122.128C252.757 112.33 254.994 102.082 255.801 91.6724C255.801 92.4404 255.609 111.256 256.425 112.048C258.393 114.04 366.825 111.376 374.217 109.432C374.793 109.264 375.297 108.976 375.369 108.4C375.729 105.4 375.921 99.3524 375.945 93.1364C381.481 93.2418 387.013 92.7834 392.457 91.7684C392.193 94.9364 395.409 97.2164 398.601 97.4084C398.193 107.848 398.433 131.8 399.609 149.08C398.85 148.986 398.08 149.052 397.349 149.276C396.618 149.5 395.942 149.875 395.367 150.379C394.791 150.882 394.328 151.501 394.009 152.195C393.689 152.89 393.52 153.644 393.513 154.408C388.658 154.025 383.778 154.13 378.945 154.72C375.057 155.296 375.537 155.608 375.537 155.104C375.677 149.389 375.421 143.672 374.769 137.992C374.337 136.216 373.473 135.832 256.497 140.392C256.417 140.397 256.341 140.424 256.277 140.471C256.213 140.518 256.164 140.582 256.137 140.656C255.057 143.728 255.369 168.928 255.633 173.608C255.633 174.496 255.633 175.432 256.017 175.744C257.913 177.664 365.961 175.144 373.833 173.128C374.104 173.095 374.359 172.977 374.561 172.792C374.763 172.607 374.903 172.364 374.961 172.096C375.321 169 375.537 162.64 375.537 156.232C375.753 156.232 379.425 156.352 381.297 156.232C394.065 155.944 393.489 154.672 393.297 155.56C393.009 158.752 396.201 161.032 399.393 161.248C399.393 163.816 398.409 188.416 399.681 211.648C398.769 211.629 397.868 211.839 397.059 212.258C396.249 212.677 395.558 213.293 395.049 214.048C394.296 215.403 393.931 216.94 393.993 218.488C387.879 217.956 381.722 218.23 375.681 219.304C375.812 212.895 375.556 206.483 374.913 200.104C374.854 199.9 374.741 199.715 374.584 199.571C374.427 199.427 374.233 199.329 374.025 199.288C368.337 197.704 276.369 201.688 256.641 202.528C256.56 202.529 256.483 202.555 256.418 202.603C256.354 202.65 256.306 202.716 256.281 202.792C255.201 205.864 255.513 231.088 255.777 235.744C255.777 236.632 255.777 237.568 256.161 237.88C257.961 239.752 365.865 237.376 373.977 235.264C374.25 235.234 374.506 235.118 374.709 234.932C374.912 234.747 375.05 234.502 375.105 234.232C375.441 231.424 375.633 225.976 375.681 220.192C378.766 220.369 381.859 220.369 384.945 220.192C388 220.144 391.049 219.871 394.065 219.376C394.484 220.736 395.343 221.917 396.508 222.734C397.672 223.551 399.076 223.957 400.497 223.888C400.497 227.824 399.705 255.544 401.241 281.176C400.479 281.024 399.694 281.037 398.938 281.213C398.182 281.389 397.472 281.724 396.856 282.197C396.24 282.67 395.733 283.269 395.367 283.954C395.001 284.638 394.786 285.394 394.737 286.168C388.287 285.665 381.803 285.85 375.393 286.72C375.528 281.005 375.263 275.287 374.601 269.608C374.145 267.736 371.289 267.544 256.353 272.008C256.274 272.015 256.199 272.044 256.136 272.09C256.072 272.137 256.023 272.2 255.993 272.272C254.985 275.104 254.937 306.472 255.993 307.384C257.913 309.352 366.201 306.712 373.785 304.744C374.361 304.6 374.841 304.312 374.913 303.712C375.297 300.592 375.489 294.112 375.513 287.656C379.81 287.994 384.127 287.994 388.425 287.656C395.385 287.296 394.833 286.48 394.713 287.656C394.425 290.92 397.809 293.248 401.049 293.368C404.289 293.488 401.049 293.368 401.169 293.512C401.289 293.656 401.025 293.128 401.001 294.52C400.713 321.376 400.449 339.664 401.289 358.984C399.924 358.917 398.586 359.378 397.553 360.272C396.521 361.166 395.873 362.424 395.745 363.784C388.726 363.048 381.645 363.144 374.649 364.072C374.759 358.038 374.495 352.002 373.857 346C373.377 344.008 368.169 344.008 255.609 348.4C255.528 348.397 255.448 348.422 255.383 348.47C255.317 348.518 255.27 348.586 255.249 348.664C254.265 351.472 254.193 382.84 255.129 383.752C256.953 385.624 371.409 383.272 373.785 380.68C373.931 380.521 374.023 380.319 374.049 380.104C374.409 377.104 374.625 371.104 374.649 364.936C381.641 365.508 388.671 365.428 395.649 364.696V365.464C395.265 369.736 401.865 373.216 406.017 369.712C406.825 368.861 407.374 367.797 407.601 366.646C407.828 365.494 407.723 364.301 407.298 363.207C406.873 362.112 406.145 361.162 405.2 360.465C404.255 359.768 403.132 359.355 401.961 359.272V359.272ZM393.513 31.4564C393.502 30.4559 393.648 29.4599 393.945 28.5044C395.697 24.3044 404.769 25.5284 402.465 32.0804C402.214 32.7797 401.784 33.4005 401.217 33.8804C398.073 36.7124 393.321 33.9764 393.513 31.4564ZM256.449 18.1364C256.689 18.1364 367.905 15.3284 372.609 15.9284C373.36 26.6993 373.36 37.5095 372.609 48.2804C363.705 50.0564 277.761 52.1684 261.441 51.9524C261.408 51.6508 261.301 51.3621 261.129 51.1124C260.121 49.4564 258.201 49.6724 256.329 49.7204C256.329 47.9204 256.137 45.2804 256.041 42.2564C256.68 39.9805 256.68 37.5723 256.041 35.2964C255.876 29.5732 256.012 23.8453 256.449 18.1364V18.1364ZM251.025 41.6324C253.425 36.2084 255.153 33.9284 254.553 39.8324C254.145 43.9364 252.729 48.9044 252.801 49.9364C252.873 50.9684 254.025 51.3764 254.889 51.5204C256.833 51.8324 259.065 50.9444 259.689 52.0244C260.313 53.1044 254.049 53.9684 253.353 54.7124C252.657 55.4564 253.161 58.3604 253.353 60.2564C250.953 60.1124 247.281 60.0404 244.497 60.2564C245.937 55.6004 249.081 46.2404 251.025 41.6324V41.6324ZM160.929 102.664C159.138 103.781 157.287 104.799 155.385 105.712C155.278 105.76 155.182 105.829 155.103 105.916C155.025 106.003 154.965 106.105 154.929 106.216C154.793 107.814 154.793 109.419 154.929 111.016C155.193 113.824 155.841 112.696 161.361 112.528H162.825C163.219 112.89 163.545 113.321 163.785 113.8C165.889 118.156 167.043 122.909 167.169 127.744C167.313 130.576 167.169 134.512 164.769 136.072C162.412 136.96 159.88 137.28 157.377 137.008C149.337 136 133.545 119.848 128.025 113.92C130.451 113.263 132.921 112.782 135.417 112.48C137.049 112.48 139.233 112.48 139.137 110.968C138.753 105.04 138.801 90.6644 138.801 90.5684C138.681 88.8644 136.593 89.7284 134.385 88.1684C133.742 87.7199 133.256 87.0823 132.993 86.3444C131.817 83.0804 131.913 79.1444 135.393 78.9284C137.961 78.7604 139.329 80.4164 142.593 79.6004C143.802 79.2642 144.933 78.6898 145.918 77.9109C146.903 77.132 147.723 76.1642 148.329 75.0644C149.248 73.5741 149.943 71.9568 150.393 70.2644C150.921 67.5524 150.393 68.5604 151.425 68.7764C152.112 68.81 152.8 68.7016 153.444 68.458C154.088 68.2144 154.675 67.8408 155.169 67.3604C156.961 65.9301 158.316 64.0261 159.081 61.8644L159.369 60.7844C159.918 61.3556 160.569 61.8195 161.289 62.1524C163.172 62.703 165.145 62.8823 167.097 62.6804C168.367 68.8025 169.249 74.9989 169.737 81.2324C170.097 89.2484 167.577 98.2484 160.929 102.664ZM119.577 43.9364C112.881 45.0884 108.993 48.5204 110.697 55.1204C109.809 56.0373 109.05 57.0708 108.441 58.1924C103.065 54.1364 104.913 44.1524 111.081 38.6564C116.409 33.8564 127.641 28.1204 133.497 30.4484C134.313 30.7429 135.034 31.2533 135.584 31.9253C136.133 32.5973 136.49 33.4057 136.617 34.2644C135.541 34.9343 134.557 35.741 133.689 36.6644C127.377 35.6804 121.785 38.1044 119.577 43.9364ZM78.9445 207.136C69.5365 186.376 80.1925 159.136 93.6085 140.32C97.4153 134.144 102.197 128.624 107.769 123.976C113.1 119.642 119.221 116.381 125.793 114.376C131.793 120.952 148.257 137.848 157.161 138.952C158.889 139.091 160.628 139.035 162.345 138.784C163.881 144.112 165.393 149.536 166.641 155.152C147.945 155.968 149.049 155.848 148.905 156.208C148.089 158.608 148.185 180.664 148.545 183.304C140.133 183.205 131.779 184.695 123.921 187.696C126.321 176.368 122.721 161.296 119.385 150.184C119.373 150.134 119.353 150.086 119.323 150.044C119.294 150.001 119.256 149.965 119.213 149.937C119.169 149.91 119.121 149.891 119.07 149.881C119.019 149.872 118.967 149.873 118.917 149.884C118.866 149.895 118.818 149.916 118.776 149.946C118.734 149.975 118.697 150.013 118.67 150.056C118.642 150.1 118.623 150.148 118.614 150.199C118.605 150.25 118.605 150.302 118.617 150.352C120.417 160.552 124.017 178.696 123.009 188.056C117.732 190.158 112.74 192.916 108.153 196.264C108.11 196.299 108.075 196.342 108.049 196.39C108.023 196.438 108.006 196.491 108.001 196.546C107.995 196.601 108 196.656 108.016 196.708C108.032 196.761 108.058 196.81 108.093 196.852C108.127 196.895 108.17 196.93 108.218 196.956C108.267 196.982 108.319 196.999 108.374 197.004C108.429 197.01 108.484 197.005 108.536 196.989C108.589 196.973 108.638 196.947 108.681 196.912C119.31 189.632 131.803 185.551 144.681 185.152C149.384 184.936 154.095 185.332 158.697 186.328L165.417 192.712C162.595 201.779 157.993 210.191 151.881 217.456C145.742 224.948 137.08 229.941 127.521 231.496C121.473 232.432 101.601 232.888 89.8405 221.656C85.2721 217.596 81.5667 212.658 78.9445 207.136V207.136ZM163.281 183.904C162.969 186.712 166.713 185.032 173.193 184.216C180.993 183.232 177.681 184.624 176.433 185.416C174.033 186.976 168.153 190.216 166.569 191.272L159.921 184.912C160.209 184.233 160.545 183.575 160.929 182.944C161.355 182.295 161.977 181.799 162.705 181.528C163.041 181.6 163.329 183.352 163.281 183.904V183.904ZM86.4805 242.464C85.5685 240.424 90.9445 229.648 90.8965 224.56C98.9845 231.76 117.921 234.544 127.761 233.224C137.758 231.7 146.855 226.58 153.345 218.824C159.767 211.18 164.539 202.29 167.361 192.712C167.697 191.392 165.465 192.712 172.161 189.736C174.049 206.961 174.33 224.324 173.001 241.6C150.465 245.536 116.409 248.512 95.5285 245.176C92.3592 244.813 89.275 243.912 86.4085 242.512L86.4805 242.464ZM131.889 444.424C128.265 444.424 124.689 444.424 121.065 444.16L116.865 389.752C124.177 390.074 131.504 389.817 138.777 388.984C138.681 389.248 131.841 444.112 131.817 444.424H131.889ZM212.985 430.312C209.423 432.292 205.539 433.624 201.513 434.248C200.121 428.848 189.513 388.264 188.193 382.816C194.097 383.152 204.057 383.272 209.793 381.712C209.721 381.976 212.553 425.464 212.913 430.312H212.985ZM207.081 233.368C196.691 236.593 186.111 239.166 175.401 241.072C176.654 223.574 176.317 205.998 174.393 188.56C176.174 187.741 177.877 186.761 179.481 185.632C179.685 185.486 179.858 185.3 179.99 185.086C180.122 184.871 180.21 184.633 180.249 184.384C188.241 184.384 196.905 184.072 205.137 183.832C205.857 197.032 210.609 232.288 207.081 233.368ZM240.681 155.08C241.249 163.415 241.249 171.778 240.681 180.112C234.081 181.288 186.273 182.512 179.625 182.512C179.246 182.243 178.811 182.063 178.353 181.984C176.561 181.818 174.756 181.866 172.977 182.128C171.777 182.296 166.305 182.8 164.865 182.824C164.625 182.152 164.361 181.648 164.121 181C164.051 180.772 163.912 180.57 163.723 180.424C163.534 180.278 163.303 180.194 163.065 180.184C162.427 180.209 161.81 180.418 161.289 180.784C160.591 181.333 160.059 182.064 159.753 182.896C158.121 182.896 151.449 182.896 149.841 182.752C149.262 174.036 149.19 165.293 149.625 156.568C149.841 156.712 235.881 154.528 240.681 155.08ZM253.857 97.8644C249.945 125.368 241.137 136.912 226.569 147.496C223.881 149.488 221.097 151.312 218.625 153.232C210.993 153.424 176.313 154.72 169.065 155.032C164.649 135.04 163.665 139.24 165.849 137.776C168.897 135.76 169.281 131.416 169.065 127.744C168.777 122.944 167.601 115.744 164.745 112.096C183.561 109.864 205.545 106.624 219.777 94.0244C229.562 84.8115 237.206 73.5628 242.169 61.0724C246.479 60.8181 250.803 60.8822 255.105 61.2644V61.6964C255.876 73.7669 255.425 85.8844 253.761 97.8644H253.857ZM373.401 107.608C364.545 109.384 264.105 112.024 257.361 111.088C256.905 107.8 256.305 81.4004 257.145 77.4884C257.409 77.4884 368.649 74.6564 373.305 75.2564C374.068 86.0269 374.068 96.8379 373.305 107.608H373.401ZM393.417 87.4964C392.798 88.5538 392.459 89.7516 392.433 90.9764C386.889 90.4747 381.301 90.8473 375.873 92.0804C375.982 86.1336 375.718 80.1859 375.081 74.2724C374.601 72.2324 367.713 72.3524 256.833 76.6724C256.748 76.639 256.653 76.639 256.569 76.6724C256.569 75.5204 256.761 60.8804 255.753 60.3764C255.314 60.2596 254.863 60.1952 254.409 60.1844C254.212 58.5904 254.212 56.9783 254.409 55.3844C255.537 55.0004 260.025 54.6644 261.249 53.1284C275.841 53.5124 371.865 52.2404 374.409 49.4804C374.555 49.3117 374.647 49.1025 374.673 48.8804C375.057 45.7604 375.249 39.2804 375.273 32.8964C380.774 33.2842 386.302 33.0831 391.761 32.2964C392.139 33.5372 392.89 34.6314 393.912 35.4302C394.934 36.2289 396.177 36.6934 397.473 36.7604C397.113 45.7364 397.113 68.5364 398.265 84.9764C397.292 84.9299 396.325 85.1379 395.458 85.5799C394.591 86.0218 393.854 86.6824 393.321 87.4964H393.417ZM394.305 91.9124C394.269 90.9104 394.416 89.9102 394.737 88.9604C396.465 84.7604 405.537 86.0084 403.257 92.5124C402.998 93.2144 402.569 93.8412 402.009 94.3364C398.697 97.1684 393.993 94.4084 394.281 91.9124H394.305ZM372.921 171.328C363.993 173.128 263.529 175.744 256.857 174.808C256.425 171.64 255.777 145.264 256.665 141.208C256.905 141.208 368.145 138.4 372.801 138.976C373.605 149.744 373.645 160.555 372.921 171.328V171.328ZM373.161 233.632C364.233 235.408 263.793 238.072 257.097 237.112C256.665 233.896 256.017 207.544 256.905 203.512C257.145 203.512 368.337 200.704 373.041 201.304C373.833 212.064 373.873 222.867 373.161 233.632V233.632ZM395.145 155.848C395.121 154.847 395.267 153.849 395.577 152.896C397.305 148.696 406.377 149.896 404.097 156.448C403.847 157.155 403.417 157.784 402.849 158.272C399.657 161.104 394.929 158.368 395.145 155.848ZM395.841 218.512C395.83 217.512 395.976 216.516 396.273 215.56C398.001 211.36 407.097 212.56 404.793 219.136C404.536 219.833 404.107 220.452 403.545 220.936C400.353 223.864 395.649 221.104 395.841 218.512V218.512ZM372.849 303.088C363.969 304.864 263.937 307.504 256.785 306.544C256.353 303.232 255.753 276.856 256.593 272.944C256.857 272.944 368.049 270.136 372.753 270.736C373.553 281.536 373.585 292.38 372.849 303.184V303.088ZM372.033 379.552C363.081 381.352 262.665 383.968 255.993 383.032C255.537 379.84 254.913 353.488 255.777 349.432C256.041 349.432 367.233 346.624 371.937 347.2C372.736 358 372.768 368.844 372.033 379.648V379.552ZM396.441 288.112C396.43 287.112 396.576 286.116 396.873 285.16C398.625 280.96 407.697 282.16 405.393 288.736C405.136 289.433 404.707 290.052 404.145 290.536C400.977 293.368 396.249 290.632 396.441 288.112V288.112ZM406.281 366.592C406.007 367.29 405.573 367.914 405.015 368.414C404.456 368.914 403.788 369.277 403.065 369.472C401.001 370.144 397.137 368.464 397.329 365.968C397.255 364.814 397.47 363.659 397.953 362.608C400.209 358.888 408.513 360.328 406.281 366.592V366.592Z" fill="black"/>
<path fill-rule="evenodd" clip-rule="evenodd" d="M275.073 363.328C273.825 360.928 267.537 359.656 265.041 363.328C264.333 364.63 263.977 366.095 264.009 367.576C263.649 371.656 268.977 374.128 272.265 373C273.204 372.687 274.054 372.15 274.74 371.436C275.427 370.722 275.93 369.852 276.206 368.901C276.482 367.95 276.523 366.946 276.326 365.975C276.128 365.004 275.698 364.096 275.073 363.328ZM271.665 371.272C269.601 371.944 265.713 370.288 265.929 367.792C265.896 366.792 266.034 365.794 266.337 364.84C267.681 361.576 273.273 362.128 274.401 363.736C274.835 364.385 275.111 365.127 275.206 365.902C275.3 366.678 275.21 367.464 274.944 368.198C274.677 368.932 274.242 369.593 273.672 370.127C273.102 370.662 272.414 371.054 271.665 371.272ZM165.873 83.8244C165.543 82.5569 165.126 81.3139 164.625 80.1044C164.613 80.0539 164.593 80.0062 164.563 79.9638C164.534 79.9214 164.496 79.8853 164.453 79.8574C164.409 79.8296 164.361 79.8105 164.31 79.8014C164.259 79.7923 164.207 79.7933 164.157 79.8044C164.106 79.8154 164.058 79.8362 164.016 79.8657C163.974 79.8952 163.937 79.9328 163.91 79.9762C163.882 80.0197 163.863 80.0682 163.854 80.119C163.844 80.1698 163.845 80.2219 163.857 80.2724C163.857 81.6164 163.857 82.6723 164.097 84.1363C164.337 85.6003 164.841 89.2484 164.865 89.7284C163.943 90.2214 162.969 90.6079 161.961 90.8804C161.433 91.0244 161.745 91.6964 161.961 91.6484C163.833 91.8164 166.593 91.6484 166.617 89.7044C166.528 87.7275 166.279 85.761 165.873 83.8244V83.8244ZM168.081 76.9124C167.766 76.9366 167.473 77.0787 167.259 77.3102C167.046 77.5416 166.928 77.8453 166.929 78.1604V80.1284C166.929 80.4466 167.055 80.7518 167.28 80.9769C167.505 81.2019 167.81 81.3284 168.129 81.3284C168.447 81.3284 168.752 81.2019 168.977 80.9769C169.202 80.7518 169.329 80.4466 169.329 80.1284V78.1844C169.323 77.853 169.19 77.5364 168.958 77.2998C168.726 77.0632 168.412 76.9246 168.081 76.9124ZM155.745 83.9444C155.904 83.9475 156.063 83.9189 156.211 83.86C156.359 83.8011 156.495 83.7132 156.609 83.6015C156.723 83.4897 156.813 83.3564 156.875 83.2092C156.937 83.062 156.969 82.904 156.969 82.7444V80.6324C156.969 80.3141 156.842 80.0089 156.617 79.7838C156.392 79.5588 156.087 79.4324 155.769 79.4324C155.45 79.4324 155.145 79.5588 154.92 79.7838C154.695 80.0089 154.569 80.3141 154.569 80.6324V82.7444C154.568 83.0585 154.692 83.3601 154.911 83.5845C155.131 83.8089 155.43 83.9381 155.745 83.9444ZM159.321 97.6724C158.417 97.4017 157.535 97.0647 156.681 96.6644C153.465 95.4164 154.521 97.0724 155.721 98.1764C156.704 98.9242 157.894 99.3515 159.129 99.4003C160.209 99.4003 162.633 98.8004 159.321 97.6724ZM172.161 169.672C171.681 169.672 171.632 170.2 171.896 170.392C172.16 170.584 189.921 170.392 190.185 170.392C215.217 169.792 227.073 168.64 228.441 168.592C228.491 168.592 228.541 168.582 228.587 168.563C228.634 168.544 228.676 168.516 228.712 168.48C228.748 168.444 228.776 168.402 228.795 168.355C228.815 168.309 228.825 168.259 228.825 168.208C228.825 168.158 228.815 168.108 228.795 168.061C228.776 168.015 228.748 167.972 228.712 167.937C228.676 167.901 228.634 167.873 228.587 167.854C228.541 167.834 228.491 167.824 228.441 167.824C207.849 167.224 176.817 168.928 172.161 169.672ZM161.961 165.712C161.002 165.428 159.979 165.441 159.028 165.749C158.077 166.058 157.242 166.647 156.633 167.44C156.044 168.487 155.746 169.672 155.769 170.872C155.433 174.688 161.121 177.064 164.241 174.376C164.912 173.749 165.401 172.952 165.655 172.07C165.91 171.187 165.921 170.252 165.688 169.364C165.454 168.475 164.984 167.667 164.328 167.024C163.671 166.381 162.853 165.928 161.961 165.712V165.712ZM164.361 171.448C164.152 171.962 163.826 172.421 163.41 172.787C162.993 173.154 162.497 173.419 161.961 173.56C160.449 174.04 157.569 172.816 157.713 171.016C157.857 169.216 157.713 168.208 159.345 167.392C160.096 167.052 160.923 166.912 161.745 166.984C164.601 167.176 165.081 169.456 164.361 171.424V171.448Z" fill="black"/>
</svg>
