<svg width="24" height="24" viewBox="0 0 24 24" fill="none" xmlns="http://www.w3.org/2000/svg">
<rect width="24" height="24" rx="12" fill="#44CFD8"/>
<g clip-path="url(#clip0_501_23)">
<path fill-rule="evenodd" clip-rule="evenodd" d="M7.24616 6.92308C7.01539 5.72308 7.93846 4.61539 9.13846 4.61539C10.2 4.61539 11.0769 5.49231 11.0769 6.55385V8.95385C11.3538 8.95385 11.6308 8.90769 11.9077 8.90769C12.1846 8.90769 12.4154 8.90769 12.6923 8.95385V6.55385C12.6923 5.49231 13.5692 4.61539 14.6308 4.61539C15.8308 4.61539 16.7538 5.72308 16.5692 6.92308L16.0615 9.73846C17.8615 10.5231 19.2462 11.9077 19.2462 13.6154V14.6769C19.2462 16.1077 18.3231 17.3077 16.9846 18.0923C15.6462 18.9231 13.8923 19.3846 11.9077 19.3846C9.92308 19.3846 8.16923 18.9231 6.83077 18.0923C5.53846 17.3077 4.61539 16.1077 4.61539 14.6769V13.6154C4.61539 11.9077 5.95385 10.5231 7.75385 9.73846L7.24616 6.92308ZM15.3692 10.1077L15.9692 6.78462C16.1077 5.95385 15.5077 5.16923 14.6308 5.16923C13.8923 5.16923 13.2923 5.76923 13.2923 6.50769V9.55385C13.1077 9.50769 12.8769 9.50769 12.6923 9.50769C12.4154 9.50769 12.1846 9.46154 11.9077 9.46154C11.6308 9.46154 11.3538 9.46154 11.0769 9.50769C10.8923 9.50769 10.6615 9.55385 10.4769 9.55385V6.55385C10.4769 5.81539 9.87693 5.21539 9.13846 5.21539C8.30769 5.21539 7.66154 6 7.84616 6.83077L8.44616 10.1538C6.50769 10.8923 5.21539 12.1846 5.21539 13.6615V14.7231C5.21539 16.9846 8.21539 18.8308 11.9077 18.8308C15.6 18.8308 18.6 16.9846 18.6 14.7231V13.6615C18.6462 12.1385 17.3538 10.8462 15.3692 10.1077Z" fill="#633001"/>
<path d="M18.6462 14.6769C18.6462 16.9385 15.6462 18.7846 11.9538 18.7846C8.26154 18.7846 5.26154 16.9385 5.26154 14.6769V13.6154H18.6923V14.6769H18.6462Z" fill="#FEDC90"/>
<path fill-rule="evenodd" clip-rule="evenodd" d="M7.84615 6.83078C7.66154 6.00001 8.30769 5.21539 9.13846 5.21539C9.87692 5.21539 10.4769 5.81539 10.4769 6.55385V9.60001C10.9385 9.55385 11.4 9.5077 11.9077 9.5077C12.3692 9.5077 12.8308 9.55385 13.2923 9.60001V6.55385C13.2923 5.81539 13.8923 5.21539 14.6308 5.21539C15.4615 5.21539 16.1077 6.00001 15.9692 6.83078L15.3692 10.1539C17.3077 10.8923 18.6462 12.1846 18.6462 13.6615C18.6462 15.9231 15.6462 17.7692 11.9538 17.7692C8.26154 17.7692 5.26154 15.9231 5.26154 13.6615C5.26154 12.1846 6.55384 10.8923 8.4923 10.1539L7.84615 6.83078Z" fill="#D1884F"/>
<path d="M10.0615 13.3385C10.0615 13.9385 9.73847 14.4462 9.32309 14.4462C8.9077 14.4462 8.58463 13.9385 8.58463 13.3385C8.58463 12.7385 8.9077 12.2308 9.32309 12.2308C9.73847 12.2308 10.0615 12.7385 10.0615 13.3385Z" fill="#633001"/>
<path d="M15.1846 13.3385C15.1846 13.9385 14.8615 14.4462 14.4462 14.4462C14.0308 14.4462 13.7077 13.9385 13.7077 13.3385C13.7077 12.7385 14.0308 12.2308 14.4462 12.2308C14.8615 12.2308 15.1846 12.7385 15.1846 13.3385Z" fill="#633001"/>
</g>
<defs>
<clipPath id="clip0_501_23">
<rect width="14.6308" height="14.7692" fill="white" transform="translate(4.61539 4.61539)"/>
</clipPath>
</defs>
</svg>
