<svg viewBox="0 0 480 480" fill="none" xmlns="http://www.w3.org/2000/svg">
<path d="M268.918 362.924C268.734 362.975 268.577 363.097 268.483 363.263C268.388 363.429 268.364 363.626 268.415 363.811C268.466 363.995 268.588 364.152 268.754 364.246C268.92 364.34 269.117 364.365 269.302 364.314C275.359 362.988 281.038 360.308 285.913 356.476C304.442 342.789 303.483 323.373 314.03 305.611C322.468 292.068 329.874 293.626 329.299 291.876C329.278 291.807 329.242 291.743 329.195 291.688C329.148 291.633 329.09 291.588 329.025 291.557C328.959 291.525 328.888 291.508 328.816 291.505C328.744 291.502 328.671 291.514 328.604 291.54C295.429 303.741 314.174 347.247 268.918 362.924ZM403.175 320.305C404.11 319.322 405.045 318.291 405.956 317.261C413.003 308.703 417.941 295.448 417.462 285.692C417.45 285.587 417.409 285.487 417.343 285.403C417.278 285.32 417.191 285.256 417.092 285.219C416.993 285.182 416.886 285.173 416.782 285.193C416.678 285.213 416.581 285.261 416.503 285.332C415.784 286.027 417.797 289.863 412.74 301.944C407.945 313.401 403.751 316.326 399.029 321.671C394.798 326.555 391.583 332.233 389.57 338.374C387.558 344.514 386.788 350.994 387.307 357.435C387.335 357.57 387.408 357.692 387.515 357.779C387.622 357.867 387.756 357.915 387.894 357.915C388.033 357.915 388.167 357.867 388.274 357.779C388.381 357.692 388.454 357.57 388.482 357.435C388.317 350.577 389.533 343.756 392.058 337.377C394.582 330.999 398.363 325.193 403.175 320.305ZM192.717 216.801C195.114 215.147 194.946 210.09 192.717 208.22C192.086 207.711 191.351 207.347 190.565 207.155C189.778 206.962 188.958 206.946 188.164 207.106C187.37 207.266 186.621 207.599 185.97 208.082C185.319 208.564 184.783 209.184 184.399 209.898C183.954 211.013 183.874 212.24 184.17 213.404C184.466 214.568 185.124 215.607 186.047 216.374C186.971 217.141 188.114 217.595 189.313 217.672C190.511 217.749 191.703 217.444 192.717 216.801ZM186.125 211.312C186.844 208.579 191.566 208.196 192.285 210.929C192.765 212.798 192.549 214.117 191.59 214.836C191.014 215.194 190.358 215.405 189.681 215.451C189.004 215.497 188.326 215.376 187.707 215.099C187.058 214.735 186.55 214.165 186.263 213.478C185.977 212.792 185.928 212.029 186.125 211.312ZM274.623 172.456C274.531 172.45 274.438 172.462 274.351 172.493C274.264 172.524 274.185 172.572 274.117 172.635C274.05 172.698 273.996 172.774 273.959 172.859C273.922 172.944 273.904 173.035 273.904 173.127C273.904 175.524 269.853 177.922 269.11 178.161C268.967 178.196 268.844 178.287 268.767 178.412C268.691 178.538 268.667 178.689 268.702 178.832C268.737 178.975 268.828 179.099 268.954 179.175C269.079 179.252 269.23 179.275 269.374 179.24C275.678 177.945 276.636 172.408 274.623 172.456ZM266.209 168.789C265.922 168.621 264.651 167.686 264.196 167.327C264.196 167.015 265.323 163.012 265.538 162.245C265.754 161.478 264.771 161.286 264.508 161.909C263.505 163.853 262.702 165.893 262.111 167.998C262.302 168.693 265.634 169.604 265.874 169.604C265.974 169.617 266.075 169.598 266.163 169.547C266.25 169.497 266.318 169.419 266.356 169.326C266.395 169.233 266.401 169.13 266.375 169.032C266.348 168.935 266.29 168.85 266.209 168.789ZM258.299 155.941C258.265 155.734 258.158 155.545 257.998 155.41C257.838 155.274 257.634 155.199 257.424 155.199C257.214 155.199 257.011 155.274 256.851 155.41C256.691 155.545 256.584 155.734 256.549 155.941C256.458 157.593 256.458 159.25 256.549 160.903C256.7 161.148 256.927 161.337 257.197 161.439C257.466 161.54 257.762 161.549 258.037 161.464C258.312 161.379 258.551 161.204 258.716 160.968C258.88 160.732 258.962 160.447 258.946 160.16C258.614 158.774 258.398 157.363 258.299 155.941ZM275.054 160.136C274.747 158.761 274.531 157.368 274.407 155.965C274.407 155.73 274.314 155.504 274.148 155.338C273.981 155.171 273.756 155.078 273.52 155.078C273.285 155.078 273.06 155.171 272.893 155.338C272.727 155.504 272.633 155.73 272.633 155.965C272.546 157.562 272.546 159.162 272.633 160.759C272.647 160.944 272.701 161.125 272.792 161.287C272.883 161.45 273.008 161.59 273.159 161.699C273.31 161.807 273.483 161.881 273.666 161.916C273.849 161.95 274.037 161.944 274.217 161.897C274.397 161.851 274.565 161.766 274.709 161.647C274.852 161.529 274.968 161.38 275.048 161.212C275.128 161.044 275.17 160.861 275.171 160.675C275.172 160.489 275.132 160.305 275.054 160.136Z" fill="#0B0B14"/>
<path d="M462.646 127.488C462.478 112.555 457.468 106.658 442.007 107.113C437.597 107.113 358.95 107.905 353.317 108.096C349.541 108.097 345.804 108.872 342.339 110.373C340.349 111.164 329.946 116.366 328.796 119.123C327.549 121.088 329.011 177.083 328.796 188.636C327.13 187.688 325.418 186.824 323.666 186.047C323.349 184.473 322.677 182.992 321.701 181.716C320.725 180.441 319.47 179.405 318.033 178.689C315.828 177.826 312.999 178.856 311.369 177.298C309.739 175.74 312.664 174.901 312.975 172.504C312.966 170.842 312.773 169.186 312.4 167.566C310.955 158.877 308.937 150.293 306.36 141.87C304.202 134.943 301.949 129.07 295.741 125.307C295.741 113.657 294.566 45.3901 293.919 41.7706C293.281 38.1984 291.376 34.9762 288.553 32.6954C285.731 30.4146 282.181 29.2282 278.554 29.354C278.314 29.354 113.351 29.354 113.159 29.5458C106.568 33.4769 104.794 42.25 104.362 48.722C104.219 51.958 107.047 117.301 108.174 138.059C96.5001 138.299 37.5333 139.881 34.1535 141.679C26.507 143.548 18.0455 148.87 16.3916 157.523C15.3608 163.084 17.4463 269.919 18.1414 274.977C18.6392 280.44 21.0802 285.543 25.0209 289.359C29.3115 293.123 35.1603 293.818 40.3139 294.009L149.69 291.948C138.999 316.158 126.679 350.483 118.529 371.841C118.49 371.902 118.47 371.972 118.47 372.045C118.47 372.117 118.49 372.187 118.529 372.248C120.734 374.415 123.142 376.365 125.72 378.073C121.813 391.424 122.244 392.168 121.381 393.246C113.974 402.331 105.034 407.628 96.2125 408.491C92.1136 408.947 88.0626 409.666 86.6244 413.645C85.4498 417.264 88.566 419.685 92.2094 420.692C94.6065 421.339 110.954 424.959 113.375 425.246C115.52 425.606 117.721 425.116 119.512 423.88C121.237 422.61 126.918 415.898 129.1 413.885C125.145 433.061 122.388 426.948 131.808 431.047C131.94 431.117 132.085 431.158 132.234 431.165C132.383 431.172 132.532 431.146 132.669 431.088C132.807 431.031 132.93 430.944 133.03 430.833C133.13 430.722 133.204 430.591 133.246 430.448C134.924 425.654 146.286 398.256 150.913 391.137C152.039 420.093 151.847 418.583 152.255 418.703C153.861 419.11 155.611 419.494 157.408 419.853C157.408 423.88 157.528 428.003 157.864 432.509C157.864 432.653 157.672 432.893 157.48 433.276C151.536 446.316 144.872 451.638 137.633 454.85C134.421 456.288 129.987 458.253 130.106 462.688C130.106 466.523 134.037 467.746 137.849 467.602C143.578 467.41 150.984 466.643 154.34 466.475C163.928 465.9 164.168 464.078 168.243 455.856C169.178 453.963 170.281 451.71 170.904 450.607C172.03 464.078 170.544 466.068 172.39 465.972C177.4 465.708 179.581 467.075 179.581 465.277C179.773 460.339 181.978 440.923 183.129 436.153C183.129 435.602 182.745 435.29 182.17 435.17C182.889 430.712 184.567 421.939 184.783 420.333C185.981 420.165 187.18 419.973 188.114 419.757C188.378 419.757 188.114 421.028 192.165 404.32C221.265 415.802 252.307 418.559 280.16 412.015C281.143 415.826 288.262 441.81 292.145 453.196C293.468 456.916 295.231 460.464 297.395 463.767C297.946 464.294 298.881 465.229 299.792 465.229C300.703 465.229 301.709 463.958 301.949 462.664C302.189 461.37 298.425 423.569 297.155 409.929C302.85 408.519 308.373 406.485 313.623 403.865L321.389 429.657C321.616 430.041 321.958 430.345 322.367 430.524C322.776 430.704 323.231 430.75 323.668 430.658C324.104 430.565 324.501 430.338 324.802 430.008C325.103 429.678 325.292 429.262 325.344 428.818L324.601 397.92C328.23 395.555 331.705 392.961 335.004 390.154C336.502 391.602 338.187 392.844 340.014 393.845C340.202 393.949 340.423 393.974 340.629 393.916C340.835 393.858 341.011 393.72 341.116 393.534C343.11 390.52 345.346 387.674 347.804 385.024C347.325 388.117 346.39 394.445 346.27 396.41C346.267 396.537 346.289 396.663 346.336 396.781C346.383 396.899 346.454 397.006 346.543 397.096C346.633 397.185 346.74 397.256 346.858 397.303C346.976 397.35 347.102 397.372 347.229 397.369C349.774 397.289 352.316 397.621 354.755 398.352C346.941 402.115 343.37 405.303 343.849 407.94C344.785 412.648 346.1 417.274 347.78 421.771C349.075 425.51 350.417 429.393 354.444 431.023C372.901 438.838 400.323 433.133 418.852 425.342C434.576 419.182 436.878 409.21 435.487 395.116C435.2 392.431 432.083 392.12 425.54 392.287L441.48 372.128C446.274 366.4 442.103 366.591 440.593 355.349C442.037 357.489 443.771 359.417 445.746 361.078C445.864 361.17 445.999 361.237 446.143 361.274C446.288 361.311 446.438 361.318 446.585 361.294C447.233 361.174 446.729 361.51 452.674 350.819C452.787 350.624 452.829 350.396 452.795 350.174C452.76 349.951 452.649 349.747 452.482 349.596C449.869 347.439 443.565 342.405 443.565 342.405C446.815 341.636 450.017 340.676 453.153 339.529C453.901 339.336 454.578 338.934 455.105 338.369C455.631 337.804 455.986 337.1 456.126 336.341C456.437 334.471 456.461 296.814 456.509 291.684C456.509 290.845 455.167 290.606 455.023 291.517C452.218 310.525 439.346 326.345 422.903 331.067C423.43 328.934 424.773 324.308 424.029 323.037C421.318 321.331 418.434 319.917 415.424 318.819C418.42 317.117 425.348 312.682 425.851 311.316C426.163 310.525 424.629 273.539 424.557 269.488C424.545 269.321 424.481 269.162 424.373 269.034C424.265 268.906 424.119 268.816 423.957 268.776C423.794 268.736 423.623 268.748 423.468 268.812C423.313 268.875 423.183 268.986 423.095 269.128C418.453 278.292 411.588 286.146 403.127 291.972C402.145 292.643 395.073 296.406 394.522 296.91C392.748 298.612 394.954 300.697 395.888 302.015C396.56 302.926 398.861 306.019 399.316 306.666C390.879 307.696 388.649 304.796 388.218 306.666C387.389 309.108 386.27 311.441 384.886 313.617C385.38 315.718 386.013 317.784 386.78 319.801C385.375 320.033 383.942 320.033 382.537 319.801C382.287 319.748 382.025 319.789 381.803 319.918C381.582 320.046 381.416 320.252 381.338 320.497C380.667 322.678 380.14 324.5 379.661 326.201C376.755 321.274 373.553 316.527 370.072 311.987C368.371 298.995 362.234 283.822 349.266 281.809C359.022 277.734 365.422 267.259 366.956 256.64C371.559 256.64 438.052 256.448 440.737 256.64C455.287 257.047 461.783 251.486 463.149 236.649C463.7 230.728 462.646 128.567 462.646 127.488ZM131.64 412.878C131.701 412.624 131.663 412.357 131.534 412.13C131.405 411.903 131.194 411.733 130.945 411.655C129.004 410.936 127.518 412.638 126.439 413.861C123.708 417.184 120.71 420.279 117.474 423.113C115.676 423.976 94.7503 419.637 92.1375 418.822C90.7311 418.504 89.5077 417.642 88.7337 416.425C88.431 415.541 88.464 414.576 88.8264 413.714C89.1889 412.852 89.8554 412.154 90.6993 411.751C92.545 410.625 93.9113 410.72 99.0889 409.762C104.266 408.803 109.396 407.868 118.409 399.383C119.665 398.18 120.834 396.89 121.909 395.523C123.405 398.85 125.924 401.613 129.1 403.41C133.354 405.298 138.104 405.761 142.643 404.728C140.246 409.522 133.63 424.503 131.976 429.082C130.658 428.554 129.315 428.075 127.997 427.691C129.482 422.824 130.698 417.879 131.64 412.878ZM342.147 281.617C338.776 281.761 335.427 282.243 332.152 283.055C321.415 284.269 310.62 284.893 299.816 284.925C298.234 275.337 298.713 277.11 298.306 274.45C298.138 273.299 297.898 271.717 298.737 271.214C310.219 266.084 322.156 261.434 333.59 256.424C335.987 258.174 336.179 257.958 336.394 257.814C336.497 257.704 336.554 257.558 336.554 257.407C336.554 257.256 336.497 257.11 336.394 256.999C335.459 256.054 334.475 255.158 333.446 254.315C324.244 246.086 317.834 235.194 315.109 223.153C315.077 223.01 314.99 222.886 314.866 222.807C314.742 222.728 314.593 222.702 314.45 222.734C314.306 222.766 314.182 222.853 314.103 222.977C314.025 223.1 313.998 223.25 314.03 223.393C316.061 235.914 322.537 247.284 332.271 255.417L299.216 269.08C298.261 269.361 297.421 269.941 296.819 270.734C295.165 270.285 293.67 269.379 292.505 268.122C286.272 263.112 283.78 266.54 275.726 272.916C274.947 273.503 274.21 274.144 273.52 274.833C269.263 271.046 265.02 267.243 260.792 263.423C259.713 261.841 249.886 227.947 245.859 214.332C248.972 206.785 253.994 200.176 260.433 195.156C261.177 197.43 262.115 199.635 263.237 201.748C265.035 203.474 267.36 202.635 269.613 202.084C268.992 203.372 268.634 204.771 268.56 206.199C268.486 207.627 268.697 209.056 269.182 210.401C270.879 214.206 273.529 217.509 276.876 219.989C285.074 227.18 284.666 226.989 285.146 226.989C285.367 226.978 285.577 226.886 285.736 226.732C285.894 226.578 285.992 226.371 286.009 226.15C286.824 217.784 289.508 215.483 297.083 212.822C301.226 211.47 304.731 208.65 306.938 204.892C309.146 201.135 309.903 196.7 309.068 192.424C314.078 192.462 319.07 191.816 323.906 190.506C324.134 190.454 324.333 190.315 324.459 190.117C324.585 189.919 324.627 189.68 324.577 189.451C324.577 189.044 324.409 188.564 324.289 188.061C359.262 205.056 380.571 258.006 352.358 277.686C349.29 279.74 345.801 281.084 342.147 281.617ZM350.201 284.349C356.361 285.668 361.515 290.845 364.871 299.954C380.883 343.22 343.561 395.643 297.227 407.82C296.939 404.92 295.357 388.093 295.046 386.846C294.816 385.746 294.183 384.771 293.272 384.114C290.323 382.484 285.266 384.281 282.581 385.863C280.022 387.562 277.735 389.639 275.798 392.024C275.798 392.791 279.153 407.245 279.872 410.193C250.739 416.286 220.457 413.685 192.789 402.714C197.055 384.976 202.712 360.695 204.294 353.168C220.786 358.298 243.965 357.818 244.205 357.794C244.281 357.774 244.349 357.729 244.398 357.666C244.446 357.603 244.472 357.526 244.472 357.447C244.472 357.367 244.446 357.29 244.398 357.227C244.349 357.164 244.281 357.119 244.205 357.099C230.901 352.665 219.419 341.231 211.893 324.883C200.315 300.457 176.297 300.745 166.949 312.898C153.429 330.444 151.248 381.501 151.032 387.661C150.193 389.195 145.375 398.616 143.554 402.451C129.172 405.879 125.073 397.657 123.323 394.133C123.035 393.534 123.179 395.116 127.637 379.367C130.034 380.542 147.077 386.559 147.101 384.785C147.293 364.41 152.231 315.942 165.606 304.796C175.194 296.934 195.929 298.3 205.109 305.108C210.946 310.435 215.72 316.82 219.18 323.924C226.874 340.44 240.13 352.689 254.848 355.757C273.712 354.103 295.597 324.044 301.853 304.82C313.407 290.174 332.463 281.785 350.201 284.349ZM387.715 381.836C387.746 381.979 387.834 382.104 387.957 382.183C388.081 382.261 388.231 382.288 388.374 382.256C388.517 382.224 388.641 382.137 388.72 382.013C388.799 381.889 388.825 381.74 388.793 381.597C387.283 373.878 383.016 367.215 380.332 360.023C375.681 347.727 379.061 334.519 382.992 322.031C384.746 322.358 386.558 322.123 388.17 321.359C389.488 320.329 388.434 318.579 386.947 314.168C388.17 312.32 389.13 310.312 389.8 308.2C393.546 309.086 397.442 309.135 401.21 308.344C401.356 308.306 401.491 308.235 401.605 308.135C401.718 308.036 401.807 307.911 401.863 307.771C401.919 307.631 401.941 307.479 401.928 307.329C401.914 307.178 401.865 307.033 401.785 306.905C400.179 304.796 395.936 299.019 395.721 298.588C395.505 298.156 395.721 298.204 396.416 297.893C407.873 292.679 417.268 283.798 423.119 272.652C423.406 280.49 424.341 309.662 424.077 310.837C420.353 313.532 416.426 315.936 412.332 318.028C412.153 318.126 412.008 318.276 411.914 318.457C411.821 318.639 411.783 318.844 411.806 319.047C411.829 319.249 411.912 319.441 412.044 319.597C412.176 319.752 412.351 319.865 412.548 319.921C415.939 321.081 419.227 322.524 422.375 324.236C422.807 324.931 421.297 330.42 421.033 331.834L418.636 332.314C418.398 332.376 418.192 332.528 418.063 332.738C417.934 332.948 417.89 333.199 417.941 333.44C418.564 337.683 419.978 348.134 419.978 348.134C413.099 341.734 413.147 338.187 411.661 338.043C411.513 338.024 411.364 338.043 411.226 338.098C411.087 338.152 410.965 338.24 410.87 338.354C399.599 351.433 393.271 368.049 392.988 385.312C393.015 385.442 393.086 385.558 393.188 385.641C393.291 385.725 393.419 385.771 393.551 385.771C393.684 385.771 393.812 385.725 393.914 385.641C394.017 385.558 394.088 385.442 394.115 385.312C395.017 368.978 401.077 353.352 411.421 340.679C413.805 344.786 416.935 348.412 420.65 351.37C420.808 351.511 421.007 351.598 421.217 351.619C421.428 351.64 421.64 351.595 421.823 351.488C422.006 351.382 422.151 351.221 422.238 351.028C422.324 350.834 422.347 350.619 422.304 350.411C422.304 350.411 420.578 338.738 419.907 333.992C436.23 331.091 450.253 317.213 454.975 299.523C454.975 309.374 454.639 333.8 454.639 334.04C454.639 335.598 454.639 337.084 453.249 337.779C449.318 339.16 445.317 340.336 441.264 341.303C441.098 341.346 440.947 341.434 440.826 341.556C440.706 341.678 440.62 341.831 440.578 341.997C440.537 342.164 440.541 342.338 440.59 342.503C440.639 342.668 440.731 342.816 440.857 342.933C441.983 343.844 448.455 349.141 450.588 350.843C450.588 350.843 447.664 356.428 446.178 359.184C443.747 356.936 441.735 354.274 440.233 351.322C440.136 351.155 439.986 351.023 439.807 350.949C439.628 350.874 439.43 350.86 439.242 350.909C439.055 350.958 438.888 351.067 438.769 351.22C438.649 351.372 438.582 351.56 438.579 351.754C439.251 367.766 444.38 365.68 440.137 370.93C425.516 389.315 422.951 395.26 407.202 399.91C410.366 385.528 421.201 379.703 425.54 369.324C427.937 363.643 427.409 357.339 429.303 351.634C430.621 347.674 432.776 344.045 435.622 340.993C438.468 337.94 441.937 335.536 445.794 333.944C445.934 333.896 446.049 333.795 446.115 333.662C446.18 333.53 446.19 333.377 446.142 333.237C446.094 333.097 445.993 332.982 445.86 332.917C445.728 332.851 445.575 332.841 445.435 332.889C440.411 334.661 435.979 337.794 432.631 341.937C429.283 346.081 427.152 351.072 426.474 356.356C425.444 363.715 425.659 367.334 421.057 373.782C415.975 380.854 407.658 387.11 404.973 400.509C400.805 401.547 396.538 402.142 392.245 402.283C391.742 397.992 389.105 395.475 387.235 395.38C385.509 392.359 367.316 364.674 360.604 358.609C368.026 345.253 371.439 330.039 370.432 314.792C373.308 319.034 378.222 326.992 379.085 328.551C370.72 360.814 384.383 365.656 387.715 381.836ZM349.913 382.891C349.913 382.722 349.864 382.557 349.772 382.414C349.681 382.272 349.55 382.159 349.397 382.089C349.243 382.018 349.072 381.993 348.905 382.016C348.737 382.04 348.58 382.11 348.451 382.22C345.386 385.263 342.602 388.576 340.134 392.12C338.722 391.296 337.397 390.332 336.179 389.243C341.972 384.209 347.225 378.586 351.855 372.464C377.311 403.002 376.089 402.115 376.808 401.54C376.865 401.502 376.913 401.452 376.949 401.395C376.986 401.338 377.011 401.273 377.022 401.206C377.033 401.139 377.031 401.07 377.015 401.004C376.998 400.938 376.969 400.875 376.928 400.821C375.25 398.28 358.159 376.851 352.958 370.834C355.428 367.421 357.685 363.858 359.717 360.167C369.305 369.54 384.191 394.205 385.581 396.53C384.258 398.434 383.639 400.739 383.831 403.05C380.803 403.896 377.621 404.035 374.531 403.458C370.863 402.738 357.152 396.003 348.164 395.739C348.739 393.126 349.65 385.144 349.985 382.891H349.913ZM287.159 385.935H287.567C289.437 385.504 292.361 384.857 293.056 386.75C293.416 388.045 300.655 459.548 300.655 461.753C300.693 462.101 300.655 462.452 300.543 462.784C300.432 463.115 300.249 463.418 300.007 463.671C293.775 461.274 278.434 397.681 277.835 392.287C280.251 389.299 283.494 387.09 287.159 385.935ZM31.9243 272.748C31.9243 267.259 28.2808 158.434 28.6404 154.503C29.2636 147.096 31.9243 143.764 37.797 142.997C44.0053 141.798 101.965 140.144 108.293 139.977C108.437 142.374 108.557 144.052 108.605 144.363C108.871 146.249 109.77 147.988 111.156 149.295C112.541 150.602 114.33 151.399 116.228 151.554C116.228 151.315 114.646 151.554 164.168 151.722C164.168 159.201 164.624 194.341 164.647 195.995C150.553 196.522 136.027 197.098 133.246 197.361C132.863 197.361 132.527 198.057 132.671 198.392C136.842 208.699 155.419 250.551 160.62 261.29C161.106 262.51 161.939 263.561 163.018 264.31C163.689 265.317 164.48 266.444 165.415 267.57C157.816 273.635 155.083 280.346 150.673 290.174C130.37 290.606 48.0802 292.308 46.2345 292.236C41.1049 292.02 37.4854 290.534 35.2322 287.705C31.8044 283.63 31.9483 278.069 31.9243 272.748ZM309.236 177.011C309.739 178.832 311.633 179.815 314.557 179.887C319.591 179.671 321.748 184.01 322.659 188.996C317.759 189.954 312.789 190.507 307.798 190.65C307.653 190.651 307.511 190.686 307.383 190.752C307.254 190.818 307.142 190.912 307.056 191.028C306.97 191.145 306.913 191.279 306.887 191.421C306.862 191.564 306.87 191.71 306.911 191.848C307.676 194.585 307.684 197.477 306.932 200.218C306.18 202.958 304.698 205.442 302.644 207.405C296.196 213.613 285.865 210.186 284.355 224.496C282.198 222.626 274.215 215.842 272.585 213.853C269.781 210.617 268.654 205.248 271.531 201.868C277.69 200.861 283.915 200.308 290.156 200.214C290.296 200.214 290.43 200.158 290.529 200.059C290.627 199.961 290.683 199.826 290.683 199.687C290.683 199.547 290.627 199.413 290.529 199.314C290.43 199.215 290.296 199.159 290.156 199.159C282.976 198.65 275.76 199.167 268.726 200.693C266.042 201.436 264.723 201.964 263.525 199.447C262.925 198.176 259.354 187.294 258.731 185.28C257.628 182.668 258.299 183.459 260.313 182.212C262.285 183.879 264.5 185.237 266.881 186.239C266.881 186.527 268.127 190.338 268.319 191.033C268.4 191.609 268.688 192.136 269.129 192.515C269.57 192.894 270.134 193.1 270.716 193.095C276.306 193.608 281.937 192.79 287.15 190.707C292.362 188.623 297.007 185.334 300.703 181.11C300.776 181.009 300.81 180.885 300.797 180.761C300.784 180.637 300.726 180.523 300.633 180.439C300.541 180.356 300.421 180.31 300.297 180.309C300.172 180.309 300.052 180.355 299.96 180.438C296.247 184.191 291.787 187.12 286.868 189.036C281.95 190.952 276.683 191.813 271.411 191.561C269.733 191.441 269.949 191.8 268.535 186.767C275.006 188.588 276.636 186.119 274.335 188.397C274.26 188.486 274.219 188.599 274.218 188.716C274.217 188.833 274.257 188.946 274.331 189.037C274.404 189.128 274.507 189.19 274.622 189.213C274.736 189.236 274.855 189.219 274.959 189.164C283.678 182.645 290.038 173.465 293.08 163.012C293.102 162.944 293.11 162.873 293.104 162.802C293.098 162.731 293.077 162.662 293.043 162.6C293.01 162.537 292.964 162.482 292.908 162.437C292.853 162.393 292.789 162.36 292.72 162.341C291.474 161.909 292.313 164.378 286.464 173.943C284.067 164.354 285.673 154.215 283.084 144.579C283.049 144.442 282.962 144.325 282.84 144.253C282.719 144.181 282.574 144.16 282.437 144.195C282.301 144.23 282.183 144.318 282.111 144.44C282.04 144.561 282.019 144.706 282.054 144.843C282.474 146.882 282.746 148.949 282.869 151.027C277.763 145.969 266.976 137.891 258.467 139.737C256.634 139.793 254.896 140.57 253.631 141.898C252.366 143.226 251.675 144.998 251.707 146.832C249.646 144.052 251.084 139.809 252.954 137.46C257.892 131.012 266.665 127.872 275.414 125.475C283.156 123.413 293.512 123.701 299.384 130.7C301.932 134.193 303.772 138.151 304.801 142.35C307.863 151.812 309.999 161.55 311.178 171.426C311.269 171.824 311.25 172.239 311.124 172.628C310.997 173.016 310.767 173.363 310.458 173.631C309.98 174.041 309.616 174.567 309.401 175.16C309.187 175.752 309.13 176.39 309.236 177.011ZM162.37 260.715C160.117 255.921 137.849 206.542 134.301 198.392C142.235 198.392 231.764 195.108 233.322 195.06C236.366 204.84 254.104 263.903 254.104 264.406C254.104 264.406 232.915 264.934 221.481 265.389C202.185 255.657 184.327 256.712 171.335 263.591C164 263.28 163.665 263.423 162.37 260.715ZM253.457 161.286C253.122 154.095 253.457 149.085 254.584 148.582C258.707 146.712 266.401 146.185 274.959 148.894C276.037 149.253 279.489 151.051 282.965 152.513C283.348 160.184 282.965 168.309 285.362 175.74C283.243 179.456 280.521 182.793 277.308 185.616C262.806 187.534 254.104 175.932 253.409 161.286H253.457ZM275.462 304.628C274.887 305.731 284.643 313.066 285.697 313.857C289.149 317.117 284.93 318.891 281.431 315.75C262.254 298.516 245.907 278.764 224.597 266.971C237.014 266.564 252.379 266.108 255.015 266.084C257.676 268.649 288.574 297.581 296.556 304.436C274.263 304.604 275.678 304.245 275.414 304.628H275.462ZM299.001 304.293C298.761 304.077 258.251 267.474 256.693 265.653C255.782 264.119 238.979 207.093 235.12 195.612C237.488 197.226 239.244 199.59 240.106 202.323C241.544 206.422 257.868 261.074 257.94 261.338C258.135 262.665 258.729 263.902 259.642 264.886C265.946 270.95 292.697 295.208 301.398 302.399C300.894 303.022 300.391 303.645 299.912 304.293H299.001ZM297.251 281.257C293.08 280.922 291.762 280.442 290.731 281.713C290.395 282.24 289.437 283.415 288.214 283.151C288.002 283.102 287.803 283.009 287.628 282.879C287.453 282.749 287.308 282.584 287.2 282.395C287.092 282.206 287.024 281.997 287 281.78C286.977 281.564 286.998 281.345 287.064 281.137C288.238 280.035 289.461 279.076 290.563 277.901C290.622 277.819 290.652 277.718 290.647 277.617C290.643 277.515 290.604 277.418 290.538 277.341C290.472 277.264 290.382 277.211 290.282 277.191C290.182 277.171 290.079 277.185 289.988 277.23C288.765 278.021 287.591 279.292 286.201 280.131C286.086 280.132 285.973 280.159 285.869 280.208C285.766 280.258 285.674 280.33 285.601 280.418C285.314 280.535 285.004 280.583 284.695 280.56C284.386 280.537 284.086 280.443 283.82 280.286C283.553 280.128 283.326 279.911 283.157 279.651C282.988 279.391 282.881 279.096 282.845 278.788C282.845 276.871 284.906 275.6 286.105 274.186C286.584 273.707 285.865 272.988 285.362 273.443C284.077 274.527 282.883 275.714 281.79 276.991C280.409 277.43 278.999 277.774 277.571 278.021C276.924 278.021 277.571 278.429 274.743 276.008C277.692 273.242 280.903 270.769 284.331 268.625C290.156 264.79 291.234 271.429 296.484 272.197C296.479 275.233 296.735 278.265 297.251 281.257ZM302.644 301.009L278.506 279.436C279.381 279.263 280.246 279.039 281.095 278.764C281.076 279.285 281.178 279.803 281.393 280.277C281.608 280.751 281.931 281.169 282.336 281.497C282.74 281.825 283.216 282.054 283.724 282.166C284.233 282.279 284.761 282.271 285.266 282.144C285.362 282.653 285.576 283.131 285.892 283.541C286.208 283.95 286.616 284.28 287.084 284.502C287.551 284.724 288.064 284.832 288.581 284.818C289.099 284.804 289.605 284.668 290.06 284.421C293.368 282.911 290.06 282.336 295.405 282.815C296.1 282.815 296.843 282.959 297.562 282.983C297.778 284.11 297.994 285.14 298.234 286.123C298.291 286.319 298.411 286.491 298.576 286.612C298.741 286.733 298.94 286.797 299.145 286.794C342.003 285.884 320.957 279.963 302.596 301.009H302.644ZM245.116 211.744C242.407 202.659 240.993 195.324 235.527 193.454C235.527 193.742 237.565 193.143 166.613 195.851C166.613 184.178 166.11 155.941 166.038 151.65H251.971C251.3 162.029 251.971 173.223 259.162 180.942C258.299 181.277 256.765 181.997 256.406 182.596C257.29 186.47 258.476 190.269 259.953 193.958C253.522 198.496 248.377 204.624 245.02 211.744H245.116ZM235.264 137.652C235.264 134.296 234.497 116.246 234.329 112.938H240.441C240.441 116.342 240.897 134.32 241.041 137.628C239.123 137.58 237.181 137.604 235.264 137.652ZM200.147 138.371C200.171 131.851 199.332 76.7192 199.213 69.5282H205.325C205.325 87.7455 205.852 133.313 205.948 138.275L200.147 138.371ZM162.322 78.7807H168.459C168.459 94.5291 168.962 134.296 169.082 139.018H163.281C163.305 133.121 162.466 85.3485 162.322 78.7807ZM110.283 143.309C109.947 141.271 107.167 77.4383 106.04 52.9887C105.777 45.462 107.766 36.2095 112.824 31.9189C112.824 48.698 114.981 141.295 115.461 149.685C114.05 149.278 112.797 148.448 111.872 147.309C110.946 146.169 110.392 144.773 110.283 143.309ZM330.21 123.389C330.013 121.825 330.387 120.241 331.265 118.931C333.141 117.453 335.156 116.161 337.281 115.072C334.884 119.386 335.507 118.188 336.778 193.934C334.801 192.427 332.744 191.026 330.617 189.739C330.378 177.658 330.258 133.744 330.282 123.389H330.21ZM351.16 150.02C352.274 148.439 353.754 147.151 355.474 146.266C357.193 145.381 359.102 144.926 361.036 144.939C370.792 144.939 374.339 156.54 376.257 165.984C377.935 173.391 378.055 182.116 383.448 188.157C408.521 210.881 410.414 179.168 425.659 180.391C430.453 180.942 433.642 185.328 437.069 188.492C438.535 190.138 440.59 191.139 442.789 191.279C444.988 191.418 447.154 190.684 448.815 189.236V223.297C442.918 223.297 368.035 222.746 359.813 222.842C357.812 218.652 355.454 214.643 352.766 210.857C353.054 207.956 351.28 152.609 351.232 150.02H351.16ZM360.748 224.472C371.774 224.64 441.743 224.831 449.006 224.831C449.017 225.744 449.073 226.656 449.174 227.564C449.192 227.757 449.28 227.937 449.421 228.069C449.562 228.202 449.748 228.278 449.941 228.283C451.356 228.283 450.708 230.464 450.469 165.457C450.469 165.298 450.405 165.146 450.293 165.033C450.181 164.921 450.028 164.858 449.869 164.858C449.71 164.858 449.558 164.921 449.446 165.033C449.333 165.146 449.27 165.298 449.27 165.457C449.27 169.724 449.006 183.818 448.982 186.599C448.432 187.465 447.685 188.189 446.801 188.711C445.917 189.233 444.922 189.538 443.898 189.601C442.874 189.664 441.849 189.483 440.908 189.074C439.967 188.665 439.136 188.038 438.483 187.246C431.556 180.055 424.701 174.062 414.681 183.315C406.483 191.776 401.977 198.919 390.711 191.609C386.149 189.178 382.711 185.069 381.123 180.151C377.335 166.56 378.39 145.586 362.378 142.805C360.237 142.586 358.075 142.896 356.082 143.707C354.089 144.517 352.325 145.804 350.944 147.455C350.944 143.812 350.681 140.264 350.537 136.573C350.537 136.42 350.476 136.274 350.368 136.166C350.26 136.058 350.114 135.998 349.961 135.998C349.809 135.998 349.663 136.058 349.555 136.166C349.447 136.274 349.386 136.42 349.386 136.573C349.386 140.552 350.633 196.115 351.016 208.316C347.322 203.482 343.074 199.097 338.36 195.252C338.36 186.119 337.545 126.817 337.449 123.15C337.305 116.486 339.966 112.627 346.102 111.021C351.136 109.63 441.648 108.24 450.253 109.415C455.958 110.134 459.218 115.719 460.033 120.561C461.04 126.577 461.327 226.03 461.351 227.348C461.543 239.094 460.153 252.493 447.928 254.147C445.171 254.53 376.976 254.698 367.076 254.602C367.382 244.205 365.231 233.881 360.796 224.472H360.748ZM290.563 37.8874C293.44 42.9212 291.81 41.5309 293.847 124.324C283.923 119.842 269.877 123.965 260.289 129.118V58.0944C260.289 57.543 261.535 57.7108 253.098 57.7108C252.57 57.7108 252.618 52.773 254.392 133.097C252.954 134.396 251.703 135.888 250.677 137.532H242.623C242.623 134.416 241.712 112.315 241.616 112.123C241.588 111.999 241.518 111.887 241.418 111.809C241.317 111.73 241.192 111.689 241.065 111.692C238.475 111.605 235.882 111.661 233.298 111.86C233.222 111.912 233.161 111.984 233.123 112.069C233.085 112.153 233.071 112.247 233.083 112.339C233.083 114.736 233.514 134.2 233.682 137.652L224.645 137.843C225.1 96.9022 225.268 99.0595 224.645 99.0115C218.149 99.2752 218.005 99.1554 218.005 99.6348V137.987L207.458 138.203C207.458 132.858 206.643 72.4525 206.476 68.9529C206.483 68.7952 206.43 68.6408 206.327 68.5207C206.225 68.4006 206.081 68.3237 205.924 68.3057C205.924 68.3057 198.422 68.3057 198.182 68.5454C197.487 69.0967 198.565 135.662 198.565 138.395L187.18 138.61V102.823C187.095 102.789 187.001 102.789 186.916 102.823C180.3 102.823 180.372 102.823 180.372 103.35V138.754L170.64 139.042C169.969 77.1507 169.418 78.2773 169.657 78.2773C169.658 78.1237 169.603 77.9752 169.501 77.8602C169.399 77.7452 169.258 77.6718 169.106 77.6541C169.106 77.6541 161.651 77.6541 161.412 77.8458C160.597 78.3492 161.747 134.967 161.747 139.234L148.563 139.473C148.635 46.0613 148.899 50.352 148.276 50.352L142.403 50.5677C141.996 50.5677 142.139 44.8388 142.139 139.569C132.264 139.761 132.551 139.569 132.408 139.953C132.361 140.027 132.336 140.113 132.333 140.201C132.33 140.288 132.35 140.375 132.392 140.453C132.433 140.531 132.493 140.596 132.568 140.643C132.642 140.69 132.727 140.716 132.815 140.72C147.365 140.72 235.48 139.833 249.838 139.401C248.4 143.069 248.663 147.12 251.995 149.253V149.781C238.14 150.188 119.583 149.781 117.45 149.781C117.45 146.64 114.765 36.9766 114.741 30.8402C131.353 30.8402 277.739 31.0559 281.55 31.6792C283.419 31.9818 285.196 32.6957 286.755 33.7694C288.314 34.8431 289.615 36.2496 290.563 37.8874ZM29.2876 145.514C26.531 149.493 26.3872 154.67 26.3872 159.68C26.3872 160.783 29.743 278.764 30.2464 281.641C30.533 283.728 31.2632 285.73 32.3878 287.512C33.5123 289.294 35.0053 290.815 36.7663 291.972C33.9487 291.83 31.1943 291.086 28.6883 289.791C23.3669 286.866 21.3534 280.85 20.6343 277.518C19.3639 271.525 17.686 168.597 17.9736 163.276C17.8058 154.455 20.8021 149.685 29.2396 145.514H29.2876ZM388.841 416.593C398.435 415.924 407.834 413.554 416.599 409.594C422.831 406.717 430.597 402.163 433.809 398.544C434.313 409.858 432.012 417.168 420.386 422.514C404.997 429.705 368.49 438.526 352.718 428.003C351.304 426.637 347.924 416.258 346.582 411.464C353.461 416.042 373.5 417.816 388.793 416.593H388.841ZM172.054 447.994C170.041 447.826 169.082 449.84 168.411 451.302C162.802 463.287 162.874 464.054 157.169 464.438C155.371 464.558 138.448 465.948 137.202 465.948C132.839 466.26 130.418 463.263 133.51 459.596C135.273 458.266 137.229 457.215 139.311 456.48C145.975 453.388 156.522 445.214 158.847 435.098C161.253 437.925 164.535 439.865 168.171 440.611C172.673 441.094 177.213 440.164 181.163 437.951C180.252 443.128 178.143 459.26 177.879 464.318C176.478 464.171 175.069 464.107 173.66 464.126C173.636 462.76 173.181 448.09 172.006 447.994H172.054ZM180.875 435.65C177.76 437.853 174.023 439.003 170.209 438.933C168.191 438.782 166.226 438.216 164.436 437.271C162.646 436.327 161.07 435.024 159.806 433.444C159.806 432.701 159.542 424.671 159.614 420.357C167.38 420.969 175.176 421.121 182.961 420.812C182.577 422.921 181.355 431.479 180.827 435.65H180.875Z" fill="#0B0B14"/>
<path d="M419.499 126.242C419.635 126.214 419.756 126.141 419.844 126.034C419.931 125.927 419.979 125.793 419.979 125.654C419.979 125.516 419.931 125.382 419.844 125.275C419.756 125.168 419.635 125.095 419.499 125.067H415.472C385.341 126.002 386.324 125.978 386.348 126.817C386.372 127.656 385.437 127.848 419.499 126.242ZM420.506 131.851C415.136 131.851 394.139 132.138 388.745 132.57C388.556 132.603 388.385 132.701 388.261 132.848C388.137 132.995 388.07 133.181 388.07 133.373C388.07 133.565 388.137 133.751 388.261 133.898C388.385 134.044 388.556 134.143 388.745 134.176C394.234 134.176 415.113 133.097 420.53 132.881C420.647 132.853 420.751 132.786 420.825 132.69C420.898 132.595 420.937 132.477 420.934 132.356C420.931 132.236 420.887 132.12 420.809 132.028C420.731 131.936 420.624 131.873 420.506 131.851ZM415.232 140.672C411.493 140.816 399.484 140.672 388.026 140.672C387.772 140.672 387.528 140.773 387.348 140.953C387.168 141.132 387.067 141.376 387.067 141.631C387.067 141.885 387.168 142.129 387.348 142.309C387.528 142.488 387.772 142.589 388.026 142.589C390.423 142.757 412.907 141.822 415.256 141.726C415.396 141.723 415.529 141.665 415.626 141.564C415.722 141.462 415.775 141.327 415.772 141.187C415.769 141.047 415.71 140.914 415.609 140.818C415.508 140.721 415.372 140.669 415.232 140.672ZM338 20.8925C335.191 21.5823 332.622 23.0211 330.567 25.0558C328.511 27.0904 327.046 29.6445 326.327 32.4461C323.666 42.6335 332.895 53.7317 343.513 51.9579C345.834 51.4679 348.03 50.5093 349.967 49.141C351.904 47.7726 353.542 46.0231 354.779 43.9998C355.989 41.7667 356.675 39.2883 356.787 36.7513C356.899 34.2143 356.434 31.685 355.427 29.354C353.988 25.2311 349.722 18.6393 338 20.8925ZM343.801 41.0994C339.175 44.2874 333.758 38.4866 335.891 34.9151C339.726 28.539 346.534 33.357 346.701 35.754C346.699 36.8183 346.43 37.865 345.919 38.7986C345.408 39.7323 344.672 40.5233 343.777 41.0994H343.801ZM343.513 30.1929C341.896 29.6839 340.155 29.7254 338.563 30.3109C336.971 30.8964 335.619 31.9929 334.716 33.4289C333.979 34.7218 333.701 36.2261 333.927 37.6972C334.153 39.1683 334.871 40.5194 335.963 41.5309C336.833 42.3658 337.902 42.9636 339.069 43.2671C340.236 43.5705 341.462 43.5695 342.628 43.2641C343.794 42.9586 344.863 42.359 345.732 41.5225C346.6 40.6861 347.239 39.6408 347.588 38.4866C349.634 39.8283 351.922 40.7566 354.324 41.2192C353.475 43.2899 352.174 45.1441 350.514 46.6456C348.855 48.1472 346.881 49.258 344.736 49.8965C335.148 52.677 326.614 43.9758 327.693 34.5795C328.009 32.3911 328.818 30.3031 330.059 28.473C331.3 26.6429 332.94 25.1186 334.856 24.0152C336.772 22.9117 338.914 22.2579 341.119 22.1031C343.325 21.9484 345.537 22.2967 347.588 23.1217C345.69 25.1276 344.287 27.5489 343.489 30.1929H343.513Z" fill="#0B0B14"/>
<path d="M316.427 62.0494C322.276 61.7377 429.375 60.9228 437.189 58.5976C443.206 57.495 445.267 54.7145 444.956 48.65C444.956 46.6365 445.291 23.5532 444.668 19.4542C444.117 14.3965 441.408 11.9995 435.703 11.6879C430.909 11.2324 319.807 12.9583 314.557 14.0849C310.291 14.9239 307.366 16.4819 306.791 21.276C306.527 22.7382 307.678 49.8006 307.822 52.4373C308.157 58.1422 311.01 61.522 316.427 62.0494ZM325.775 60.4194C324.364 60.2493 323.008 59.7675 321.806 59.0088C320.604 58.2501 319.585 57.2336 318.824 56.0328C317.134 53.1228 316.265 49.8094 316.307 46.4447C316.044 42.3698 315.277 27.2685 315.181 23.6251C315.181 22.1389 315.181 17.201 318.824 15.4272C324.457 14.852 429.399 13.2939 433.881 13.4377C436.278 13.4377 439.514 13.6295 441.336 15.4752C444.021 18.1838 443.158 22.6663 443.326 48.4343C443.853 55.0021 441.36 56.4403 435.224 57.3272C429.71 58.1662 326.734 60.4194 325.823 60.4194H325.775ZM313.551 20.5808C313.239 22.7382 314.509 43.3526 314.629 46.0852C314.917 52.8688 316.859 57.6868 320.694 60.4673H318.297C312.448 60.4673 309.787 57.6628 309.524 51.6942C309.38 48.2904 308.277 22.9299 308.517 21.4917C309.02 17.1291 311.969 16.1703 315.876 15.6909C314.664 17.0694 313.874 18.7665 313.599 20.5808H313.551Z" fill="#0B0B14"/>
<path d="M370.12 26.7891C371.007 26.7891 398.525 26.094 398.285 26.094C398.409 26.0678 398.52 25.9999 398.599 25.9017C398.679 25.8036 398.722 25.681 398.722 25.5547C398.722 25.4283 398.679 25.3058 398.599 25.2076C398.52 25.1094 398.409 25.0415 398.285 25.0153C396.248 25.0153 372.493 24.6078 370.072 25.0153C369.888 25.0822 369.729 25.2056 369.618 25.3679C369.508 25.5302 369.451 25.7232 369.456 25.9195C369.462 26.1159 369.529 26.3055 369.648 26.4616C369.767 26.6177 369.932 26.7323 370.12 26.7891ZM406.723 34.3158C403.271 34.6514 368.61 33.4768 368.371 35.2267C368.371 35.5622 368.682 35.8259 368.922 35.8739C371.942 36.2334 406.603 35.4903 406.843 35.4664C406.918 35.4585 406.992 35.4358 407.058 35.3996C407.125 35.3635 407.184 35.3145 407.232 35.2555C407.28 35.1965 407.316 35.1287 407.337 35.0559C407.359 34.9831 407.366 34.9067 407.358 34.8311C407.35 34.7556 407.328 34.6823 407.291 34.6156C407.255 34.5488 407.206 34.4898 407.147 34.4419C407.088 34.3941 407.02 34.3583 406.948 34.3366C406.875 34.315 406.798 34.3079 406.723 34.3158ZM406.028 43.5204C400.107 43.5204 370.264 43.3765 368.706 43.6402C368.553 43.6808 368.417 43.771 368.32 43.8968C368.224 44.0225 368.171 44.1767 368.171 44.3353C368.171 44.494 368.224 44.6482 368.32 44.7739C368.417 44.8997 368.553 44.9899 368.706 45.0305C370.36 45.2942 403.607 44.5271 406.052 44.4552C406.157 44.4285 406.25 44.3667 406.316 44.28C406.382 44.1934 406.416 44.0869 406.413 43.9782C406.41 43.8695 406.371 43.765 406.301 43.6818C406.231 43.5986 406.134 43.5416 406.028 43.5204ZM67.1366 197.074C83.3644 195.755 91.9698 174.853 79.3614 163.252C78.906 162.844 79.7689 161.933 66.4894 181.133C50.4293 165.912 51.2923 166.488 50.9327 166.751C38.2285 179.288 50.8129 198.416 67.1366 197.074Z" fill="#0B0B14"/>
<path d="M65.3628 173.271C65.8182 173.775 65.6025 173.846 76.461 155.533C76.4871 155.493 76.5046 155.447 76.5127 155.399C76.5208 155.352 76.5192 155.303 76.508 155.256C76.4968 155.209 76.4763 155.165 76.4476 155.126C76.419 155.087 76.3828 155.054 76.3412 155.03C72.512 153.015 68.1249 152.319 63.8602 153.052C59.5956 153.784 55.6918 155.904 52.7545 159.081C52.4668 159.44 52.0354 158.745 65.3628 173.271ZM40.3139 262.081C40.9287 262.077 41.5286 261.891 42.0381 261.547C42.5475 261.203 42.9438 260.716 43.177 260.147C43.4101 259.578 43.4698 258.953 43.3485 258.35C43.2272 257.747 42.9303 257.194 42.4952 256.76C43.6937 254.818 51.4601 242.042 53.7372 238.59C54.3274 238.863 54.9861 238.952 55.6274 238.845C56.2688 238.738 56.863 238.44 57.3328 237.991L68.407 246.524C68.2265 247.059 68.1943 247.632 68.3139 248.183C68.4334 248.734 68.7004 249.242 69.0861 249.654C69.4719 250.065 69.9621 250.364 70.5044 250.519C71.0467 250.673 71.6209 250.678 72.1656 250.532C72.7103 250.386 73.2052 250.095 73.5976 249.69C73.9899 249.285 74.2649 248.781 74.3934 248.232C74.5218 247.683 74.4988 247.109 74.3268 246.572C74.1548 246.035 73.8403 245.554 73.4168 245.182L77.3479 240.004C78.0515 240.326 78.8492 240.377 79.5879 240.147C80.3267 239.917 80.9545 239.422 81.351 238.758L92.8087 242.641C92.7468 243.157 92.8147 243.68 93.0063 244.162C93.1979 244.645 93.507 245.072 93.9057 245.405C94.3043 245.738 94.7798 245.965 95.2889 246.068C95.7981 246.17 96.3247 246.143 96.8209 245.99C97.3171 245.837 97.7672 245.563 98.1303 245.192C98.4935 244.82 98.758 244.364 98.9 243.865C99.042 243.365 99.0569 242.838 98.9434 242.331C98.8299 241.825 98.5915 241.354 98.25 240.963C99.2088 237.535 107.502 212.199 108.341 209.802C109.146 209.732 109.893 209.354 110.427 208.747C112.704 210.545 119.536 215.651 121.741 217.137C121.615 217.633 121.613 218.152 121.735 218.649C121.858 219.147 122.101 219.606 122.443 219.986C122.785 220.367 123.216 220.658 123.697 220.833C124.178 221.007 124.695 221.061 125.202 220.989C125.709 220.916 126.19 220.72 126.603 220.418C127.016 220.115 127.348 219.715 127.569 219.254C127.791 218.793 127.896 218.284 127.874 217.772C127.853 217.261 127.706 216.763 127.446 216.322C133.822 206.158 134.109 206.326 133.438 205.871C133.312 205.792 133.161 205.764 133.015 205.79C132.869 205.817 132.738 205.897 132.647 206.015C131.521 207.645 126.199 215.123 126.199 215.123C125.632 214.844 124.996 214.738 124.369 214.819C123.742 214.9 123.153 215.165 122.676 215.579C120.446 214.021 113.375 208.963 111.122 207.213C111.218 206.66 111.163 206.091 110.963 205.567C110.762 205.042 110.424 204.581 109.983 204.233C109.543 203.885 109.016 203.663 108.46 203.589C107.903 203.516 107.337 203.594 106.821 203.816C106.305 204.038 105.859 204.395 105.529 204.849C105.2 205.304 104.999 205.839 104.949 206.398C104.898 206.958 105 207.52 105.242 208.026C105.485 208.533 105.86 208.964 106.328 209.275C104.267 214.884 98.2739 234.299 96.7398 239.956C96.1638 239.808 95.5578 239.823 94.9902 240.001C94.4225 240.179 93.916 240.512 93.5278 240.963C91.1308 240.148 83.9397 237.967 81.7584 237.272C81.7584 236.452 81.4327 235.665 80.8528 235.085C80.2729 234.505 79.4864 234.18 78.6663 234.18C77.8462 234.18 77.0597 234.505 76.4798 235.085C75.8999 235.665 75.5741 236.452 75.5741 237.272C75.5793 237.956 75.8064 238.621 76.2213 239.165L71.9307 244.511C71.5197 244.421 71.0945 244.417 70.6819 244.499C70.2693 244.582 69.8784 244.749 69.5336 244.99L58.0998 236.337C58.2246 235.595 58.0746 234.833 57.6778 234.194C57.2811 233.554 56.6648 233.082 55.9446 232.864C55.2243 232.646 54.4494 232.699 53.7651 233.012C53.0807 233.325 52.534 233.876 52.2271 234.563C51.9887 235.057 51.8916 235.607 51.9466 236.153C52.0016 236.699 52.2065 237.219 52.5387 237.655C50.2855 241.035 42.1117 254.099 40.9371 255.993C40.5069 255.884 40.0585 255.87 39.6223 255.951C39.1861 256.031 38.7723 256.205 38.4091 256.459C38.0458 256.714 37.7416 257.044 37.5171 257.426C37.2926 257.809 37.153 258.235 37.1078 258.677C37.0626 259.118 37.1129 259.564 37.2553 259.984C37.3977 260.404 37.6287 260.789 37.9329 261.112C38.237 261.434 38.607 261.688 39.0179 261.855C39.4287 262.023 39.8707 262.1 40.3139 262.081ZM82.0221 270.566C81.8441 270.566 81.6734 270.637 81.5475 270.763C81.4217 270.889 81.351 271.06 81.351 271.238C81.351 271.416 81.4217 271.586 81.5475 271.712C81.6734 271.838 81.8441 271.909 82.0221 271.909C86.2169 271.909 135.452 269.991 137.154 269.967C137.265 269.942 137.365 269.88 137.437 269.791C137.509 269.701 137.548 269.59 137.548 269.476C137.548 269.361 137.509 269.25 137.437 269.161C137.365 269.071 137.265 269.009 137.154 268.984C130.466 269.008 86.3128 270.087 82.0221 270.566ZM103.092 253.428C103.245 253.428 103.391 253.367 103.499 253.259C103.607 253.151 103.667 253.005 103.667 252.852C103.667 252.7 103.607 252.554 103.499 252.446C103.391 252.338 103.245 252.277 103.092 252.277C101.198 252.277 94.3428 251.87 92.7368 251.942C92.4571 251.942 92.1888 252.053 91.991 252.25C91.7933 252.448 91.6821 252.717 91.6821 252.996C91.6821 253.276 91.7933 253.544 91.991 253.742C92.1888 253.94 92.4571 254.051 92.7368 254.051C94.3189 254.243 101.102 253.595 103.092 253.428ZM77.4678 256.496H67.1366C66.9132 256.506 66.6967 256.577 66.5099 256.7C66.323 256.823 66.1727 256.993 66.0747 257.195C65.9766 257.396 65.9344 257.619 65.9526 257.842C65.9707 258.065 66.0485 258.279 66.1778 258.461C66.825 259.42 67.3284 258.677 77.5157 257.814C77.6422 257.754 77.7482 257.658 77.8208 257.538C77.8933 257.418 77.9293 257.279 77.9242 257.139C77.9191 256.999 77.8732 256.864 77.7921 256.749C77.711 256.635 77.5983 256.547 77.4678 256.496ZM36.5985 269.296C37.1019 269.296 44.3889 268.505 45.9949 268.433C46.1729 268.433 46.3436 268.362 46.4694 268.236C46.5953 268.111 46.666 267.94 46.666 267.762C46.666 267.584 46.5953 267.413 46.4694 267.287C46.3436 267.161 46.1729 267.091 45.9949 267.091C45.06 267.091 36.9581 267.426 36.4068 267.69C36.2604 267.778 36.1426 267.907 36.0675 268.06C35.9925 268.213 35.9633 268.385 35.9836 268.555C36.0038 268.725 36.0726 268.885 36.1817 269.016C36.2908 269.148 36.4355 269.245 36.5985 269.296Z" fill="#0B0B14"/>
<path d="M121.19 227.732H121.573C131.76 226.821 131.401 227.516 131.832 227.036C131.912 226.942 131.964 226.828 131.983 226.707C132.002 226.585 131.988 226.46 131.941 226.346C131.894 226.233 131.816 226.134 131.717 226.061C131.617 225.988 131.5 225.944 131.377 225.934C127.805 225.934 124.449 225.622 121.237 225.766C119.871 225.79 119.991 227.732 121.19 227.732ZM67.5921 206.806C67.3314 206.806 67.0814 206.909 66.8971 207.093C66.7128 207.278 66.6093 207.528 66.6093 207.788C66.6093 208.049 66.7128 208.299 66.8971 208.483C67.0814 208.668 67.3314 208.771 67.5921 208.771C71.0198 208.771 84.3712 207.549 87.6072 207.213C87.7605 207.184 87.8988 207.102 87.9983 206.982C88.0977 206.861 88.1521 206.71 88.1521 206.554C88.1521 206.398 88.0977 206.247 87.9983 206.126C87.8988 206.006 87.7605 205.924 87.6072 205.895C84.2754 206.158 70.9 206.518 67.5921 206.806ZM65.9621 212.415C65.7693 212.462 65.6006 212.579 65.4877 212.742C65.3748 212.906 65.3255 213.105 65.349 213.302C65.3726 213.5 65.4674 213.681 65.6156 213.814C65.7638 213.946 65.9552 214.02 66.1539 214.021C69.9412 214.021 84.8027 212.678 88.5421 212.654C88.7073 212.654 88.8659 212.589 88.9827 212.472C89.0996 212.355 89.1653 212.196 89.1653 212.031C89.1653 211.866 89.0996 211.707 88.9827 211.59C88.8659 211.474 88.7073 211.408 88.5421 211.408C81.0014 211.242 73.4581 211.578 65.9621 212.415ZM86.6244 216.25C80.3514 216.159 74.0781 216.408 67.8318 216.993C66.6812 217.137 66.6333 218.887 67.8318 218.887C69.9651 218.887 81.6147 217.688 86.6484 217.496C86.7302 217.495 86.811 217.477 86.886 217.444C86.961 217.412 87.0288 217.364 87.0856 217.305C87.1423 217.246 87.1869 217.177 87.2168 217.101C87.2467 217.024 87.2612 216.943 87.2597 216.861C87.2581 216.779 87.2404 216.699 87.2076 216.624C87.1748 216.549 87.1276 216.481 87.0686 216.424C87.0096 216.367 86.9401 216.323 86.8638 216.293C86.7876 216.263 86.7063 216.248 86.6244 216.25ZM94.5106 164.618C95.6852 164.618 107.646 163.372 109.995 163.204C110.161 163.204 110.319 163.138 110.436 163.021C110.553 162.904 110.619 162.746 110.619 162.581C110.619 162.415 110.553 162.257 110.436 162.14C110.319 162.023 110.161 161.957 109.995 161.957C108.821 161.957 95.9968 162.341 94.5826 162.437C93.1683 162.533 93.1683 164.618 94.5106 164.618ZM96.9796 169.46C100.743 169.46 115.413 168.07 119.128 167.83C119.264 167.802 119.385 167.729 119.473 167.622C119.56 167.515 119.608 167.381 119.608 167.243C119.608 167.104 119.56 166.971 119.473 166.863C119.385 166.756 119.264 166.683 119.128 166.655C115.389 166.823 100.623 166.895 96.9556 167.279C96.6945 167.32 96.457 167.454 96.2865 167.657C96.116 167.859 96.0238 168.115 96.0267 168.38C96.0296 168.644 96.1274 168.899 96.3023 169.097C96.4773 169.295 96.7176 169.424 96.9796 169.46Z" fill="#0B0B14"/>
</svg>
