<svg viewBox="0 0 480 480" fill="none" xmlns="http://www.w3.org/2000/svg">
<path fill-rule="evenodd" clip-rule="evenodd" d="M285.12 220.8C285.12 220.8 285.168 220.8 285.12 220.8V220.8ZM355.536 363.6C343.224 363.384 300.96 364.488 283.92 366.12C282.984 366.12 282.888 366.888 285.336 366.864C344.928 366.096 352.32 364.464 355.536 364.464C355.651 364.464 355.761 364.419 355.842 364.337C355.923 364.257 355.968 364.147 355.968 364.032C355.968 363.917 355.923 363.808 355.842 363.727C355.761 363.646 355.651 363.6 355.536 363.6ZM356.352 287.136C344.04 286.896 301.776 288 284.736 289.536C283.8 289.536 283.704 290.328 286.152 290.28C345.744 289.536 353.136 287.88 356.352 287.88C356.409 287.895 356.468 287.896 356.525 287.884C356.583 287.872 356.637 287.847 356.683 287.811C356.729 287.775 356.766 287.729 356.792 287.677C356.818 287.624 356.831 287.567 356.831 287.508C356.831 287.449 356.818 287.392 356.792 287.339C356.766 287.287 356.729 287.241 356.683 287.205C356.637 287.169 356.583 287.144 356.525 287.132C356.468 287.12 356.409 287.121 356.352 287.136ZM356.664 217.584C344.328 217.368 302.064 218.472 285.024 219.984C284.088 219.984 284.016 220.752 286.44 220.728C346.056 219.984 353.424 218.328 356.664 218.328C356.736 218.296 356.797 218.243 356.839 218.177C356.882 218.111 356.905 218.035 356.905 217.956C356.905 217.877 356.882 217.801 356.839 217.735C356.797 217.669 356.736 217.616 356.664 217.584ZM356.424 155.28C344.088 155.064 301.824 156.168 284.784 157.68C283.848 157.68 283.776 158.448 286.2 158.424C345.816 157.656 353.184 156.024 356.424 156.024C356.496 155.992 356.557 155.939 356.599 155.873C356.642 155.807 356.665 155.731 356.665 155.652C356.665 155.573 356.642 155.497 356.599 155.431C356.557 155.365 356.496 155.312 356.424 155.28ZM356.808 91.56C344.496 91.344 302.232 92.448 285.192 93.96C284.256 93.96 284.184 94.752 286.608 94.728C346.2 93.96 353.592 92.328 356.808 92.328C356.91 92.328 357.008 92.2875 357.08 92.2155C357.152 92.1435 357.192 92.0458 357.192 91.944C357.192 91.8422 357.152 91.7445 357.08 91.6725C357.008 91.6005 356.91 91.56 356.808 91.56ZM356.208 32.232C343.896 31.992 301.632 33.096 284.592 34.632C283.656 34.632 283.56 35.424 286.008 35.376C345.6 34.632 352.992 32.976 356.208 32.976C356.265 32.9905 356.324 32.9919 356.381 32.98C356.439 32.9681 356.493 32.9432 356.539 32.9073C356.585 32.8714 356.622 32.8254 356.648 32.7729C356.674 32.7203 356.687 32.6625 356.687 32.604C356.687 32.5455 356.674 32.4877 356.648 32.4351C356.622 32.3825 356.585 32.3366 356.539 32.3007C356.493 32.2648 356.439 32.2399 356.381 32.228C356.324 32.2161 356.265 32.2175 356.208 32.232ZM266.88 40.8C268.105 41.6481 269.597 42.0219 271.078 41.8519C272.558 41.6818 273.927 40.9794 274.928 39.8755C275.929 38.7716 276.495 37.3414 276.52 35.8514C276.545 34.3613 276.028 32.913 275.064 31.776C273.816 29.376 267.528 28.08 265.032 31.776C264.315 33.0755 263.951 34.5401 263.976 36.024C263.932 37.0184 264.184 38.0035 264.701 38.854C265.218 39.7045 265.977 40.3819 266.88 40.8ZM265.896 36.216C265.888 35.2157 266.034 34.2201 266.328 33.264C267.696 30 273.288 30.624 274.392 32.184C275.01 33.1952 275.268 34.3856 275.124 35.5619C274.98 36.7381 274.443 37.8313 273.6 38.664C270.408 41.568 265.704 38.808 265.896 36.288V36.216ZM275.664 91.2C275.042 90.479 274.272 89.9006 273.407 89.5041C272.541 89.1076 271.6 88.9023 270.648 88.9023C269.696 88.9023 268.755 89.1076 267.889 89.5041C267.024 89.9006 266.254 90.479 265.632 91.2C264.935 92.506 264.58 93.9675 264.6 95.448C264.24 99.528 269.568 102 272.856 100.872C273.796 100.559 274.645 100.022 275.332 99.3079C276.018 98.5938 276.521 97.7239 276.797 96.7726C277.074 95.8214 277.115 94.8173 276.917 93.8467C276.72 92.876 276.29 91.9678 275.664 91.2ZM272.256 99.144C270.192 99.816 266.304 98.136 266.52 95.664C266.485 94.662 266.631 93.6619 266.952 92.712C268.296 89.424 273.888 90.048 274.992 91.608C275.422 92.2561 275.694 92.9961 275.786 93.7684C275.877 94.5408 275.786 95.3238 275.52 96.0546C275.254 96.7854 274.82 97.4435 274.253 97.9759C273.686 98.5084 273.002 98.9002 272.256 99.12V99.144ZM275.256 154.896C273.96 152.496 267.696 151.32 265.224 154.896C264.525 156.193 264.169 157.647 264.192 159.12C263.832 163.176 269.136 165.696 272.448 164.544C273.384 164.229 274.229 163.693 274.913 162.981C275.596 162.268 276.097 161.401 276.373 160.454C276.649 159.506 276.691 158.505 276.497 157.538C276.302 156.57 275.877 155.664 275.256 154.896ZM271.848 162.84C269.784 163.512 265.896 161.856 266.112 159.36C266.089 158.359 266.235 157.361 266.544 156.408C267.888 153.144 273.456 153.696 274.584 155.304C275.019 155.953 275.295 156.695 275.389 157.47C275.484 158.245 275.394 159.032 275.127 159.766C274.861 160.5 274.425 161.161 273.855 161.695C273.286 162.229 272.598 162.621 271.848 162.84ZM275.496 217.2C274.874 216.479 274.104 215.901 273.239 215.504C272.373 215.108 271.432 214.902 270.48 214.902C269.528 214.902 268.587 215.108 267.721 215.504C266.856 215.901 266.086 216.479 265.464 217.2C264.768 218.498 264.412 219.951 264.432 221.424C264 225.6 269.376 228 272.688 226.944C273.636 226.63 274.494 226.09 275.186 225.37C275.879 224.65 276.385 223.772 276.661 222.812C276.938 221.853 276.976 220.84 276.773 219.862C276.57 218.884 276.132 217.97 275.496 217.2ZM272.088 225.144C270.024 225.816 266.136 224.16 266.352 221.664C266.329 220.663 266.475 219.665 266.784 218.712C268.128 215.448 273.72 216.024 274.824 217.608C275.259 218.257 275.535 218.999 275.629 219.774C275.724 220.549 275.634 221.336 275.367 222.07C275.101 222.804 274.665 223.465 274.095 223.999C273.526 224.533 272.838 224.925 272.088 225.144ZM275.208 286.752C274.588 286.027 273.819 285.446 272.953 285.047C272.087 284.648 271.145 284.441 270.192 284.441C269.239 284.441 268.297 284.648 267.431 285.047C266.565 285.446 265.796 286.027 265.176 286.752C264.459 288.051 264.095 289.516 264.12 291C263.76 295.08 269.088 297.552 272.4 296.424C273.34 296.111 274.189 295.574 274.876 294.86C275.562 294.146 276.065 293.276 276.341 292.325C276.617 291.373 276.659 290.369 276.461 289.399C276.264 288.428 275.834 287.52 275.208 286.752ZM271.8 294.696C269.736 295.368 265.848 293.688 266.04 291.192C266.029 290.191 266.175 289.195 266.472 288.24C267.84 284.976 273.432 285.576 274.536 287.16C274.966 287.81 275.237 288.552 275.329 289.326C275.421 290.099 275.33 290.884 275.064 291.616C274.798 292.349 274.364 293.009 273.798 293.544C273.231 294.078 272.547 294.473 271.8 294.696Z" fill="#0B0B14"/>
<path fill-rule="evenodd" clip-rule="evenodd" d="M401.28 359.16C401.28 358.128 401.688 346.656 401.712 343.68C401.736 340.704 401.712 313.488 401.712 310.56C401.712 307.08 401.064 293.64 401.04 293.496C401.433 293.467 401.82 293.386 402.192 293.256C403.478 292.817 404.582 291.965 405.332 290.832C406.082 289.699 406.435 288.349 406.336 286.995C406.237 285.64 405.692 284.355 404.786 283.343C403.88 282.331 402.664 281.648 401.328 281.4C401.976 279.192 401.784 238.488 400.656 223.968C407.64 223.056 407.496 212.376 399.816 211.776C400.752 190.824 400.104 168.312 399.576 161.376C400.822 161.276 402.005 160.786 402.957 159.977C403.909 159.167 404.582 158.078 404.88 156.864C405.094 156.014 405.125 155.128 404.972 154.265C404.818 153.402 404.482 152.582 403.988 151.858C403.493 151.134 402.851 150.524 402.103 150.067C401.354 149.61 400.518 149.317 399.648 149.208C399.648 148.464 399.84 139.32 399.864 136.272C399.864 134.592 399.288 109.104 399.216 107.136C399 102.744 398.712 97.5359 398.712 97.416C400.237 97.2449 401.641 96.5075 402.648 95.3499C403.654 94.1924 404.189 92.699 404.147 91.1655C404.105 89.6321 403.488 88.1705 402.42 87.0701C401.351 85.9697 399.908 85.3108 398.376 85.224C398.376 84.4799 398.64 76.224 398.664 73.392C398.664 71.832 398.328 50.784 398.256 48.864C398.184 46.944 397.656 37.776 397.584 37.008C398.903 36.9609 400.169 36.4786 401.185 35.6363C402.201 34.794 402.909 33.6392 403.2 32.352C404.784 25.344 395.376 21.888 391.968 26.952C391.211 28.3052 390.845 29.8426 390.912 31.392C385.44 30.8541 379.922 31.0316 374.496 31.92C374.62 26.2126 374.355 20.5034 373.704 14.832C373.224 12.864 368.016 12.864 255.456 17.232C255.378 17.239 255.303 17.2673 255.239 17.3138C255.176 17.3604 255.126 17.4233 255.096 17.496C254.418 23.0686 254.161 28.6846 254.328 34.296C251.448 33.072 248.928 39.984 247.824 43.08C245.892 48.6693 244.289 54.3671 243.024 60.144C242.295 60.1249 241.567 60.2139 240.864 60.408C238.245 66.6242 235.03 72.5721 231.264 78.168C221.112 93.24 211.344 99.936 197.136 104.448C181.8 109.272 158.4 111.048 156 111C155.874 109.82 155.81 108.635 155.808 107.448C155.808 106.584 155.448 107.448 159.528 104.88C160.927 104.076 162.231 103.118 163.416 102.024C166.08 99.2736 168.011 95.8985 169.032 92.2079C170.976 85.5839 170.232 79.632 169.032 72.864C173.832 72.36 175.968 65.328 172.416 62.328C173.192 61.3716 173.59 60.1629 173.532 58.9325C173.475 57.702 172.966 56.5357 172.104 55.656C171.755 55.3449 171.386 55.0563 171 54.792C172.896 51.144 171.432 48.24 168.6 47.232C168.681 46.852 168.737 46.4672 168.768 46.08C168.796 44.4958 168.411 42.9318 167.649 41.5426C166.887 40.1535 165.775 38.9874 164.424 38.16C163.666 37.8254 162.852 37.638 162.024 37.608L161.496 36.576C158.664 31.776 151.776 30.384 147.912 34.176C147 33.833 146.07 33.5366 145.128 33.288C142.579 32.6423 139.904 32.6837 137.376 33.408C136.824 33.6 137.376 33.624 136.752 32.304C135.312 28.8 131.712 27.792 127.968 28.104C128.112 27.864 129.144 25.704 129.432 25.056C130.008 23.5167 130.067 21.8317 129.6 20.256C129.313 19.6469 128.876 19.1205 128.331 18.726C127.785 18.3315 127.148 18.0817 126.48 18C123.888 17.472 121.152 19.68 119.28 21.6C119.262 19.105 118.688 16.6454 117.6 14.4C117.223 13.6754 116.654 13.0681 115.956 12.6443C115.258 12.2206 114.457 11.9965 113.64 11.9965C112.823 11.9965 112.022 12.2206 111.324 12.6443C110.626 13.0681 110.057 13.6754 109.68 14.4C108.452 16.541 107.638 18.8939 107.28 21.336C104.424 18.048 98.544 15.864 95.28 18.288C92.472 20.352 93.168 24.576 94.8 27.624C94.8 27.84 95.064 28.056 95.208 28.272C94.1726 28.3521 93.1668 28.6552 92.2595 29.1606C91.3523 29.666 90.5651 30.3617 89.952 31.2C86.952 36 88.104 41.376 96.6 43.2C97.387 43.3872 98.1914 43.4918 99 43.512C95.424 46.8 95.664 51.48 98.064 53.328C99.8204 54.7266 102.011 55.4655 104.256 55.416C104.94 56.8918 106.041 58.1349 107.424 58.992C106.96 60.8379 107.031 62.778 107.631 64.5847C108.23 66.3913 109.332 67.9896 110.808 69.192C109.296 74.448 112.392 78.792 117.096 81.432C117.096 86.544 119.496 89.64 124.512 90.096C124.872 95.496 131.712 98.448 136.512 97.296C136.512 101.352 136.512 106.128 136.752 110.184C134.834 110.33 132.926 110.595 131.04 110.976C121.887 112.702 113.29 116.622 105.984 122.4C100.26 127.177 95.3482 132.851 91.44 139.2C80.904 153.936 73.176 171.24 72.816 189.36C72.528 203.184 77.976 213.672 87.768 222.96C88.608 223.8 88.008 226.584 87.768 227.76C86.04 234.768 81.84 242.304 84.744 244.056C88.704 246.456 97.056 247.392 101.664 247.8C99.264 303.816 107.256 389.4 114.168 389.64H115.056C115.056 390.6 118.128 448.392 118.128 448.392C114.953 452.785 112.189 457.46 109.872 462.36C109.32 463.656 107.472 466.8 110.064 467.808C112.056 468.6 114.36 467.088 116.16 466.176C119.256 464.616 132.096 454.488 132.744 451.344C134.04 445.128 138.912 394.488 139.344 388.632C141.744 388.032 142.176 388.2 144.744 379.032C145.248 377.28 166.728 289.776 171.144 265.704C171.166 265.616 171.217 265.537 171.289 265.481C171.36 265.425 171.449 265.394 171.54 265.394C171.631 265.394 171.72 265.425 171.791 265.481C171.863 265.537 171.914 265.616 171.936 265.704C171.12 281.928 168.576 290.616 164.88 307.368C167.52 321.24 174.768 370.176 177.456 379.656C177.72 380.592 178.008 381.576 178.704 381.72C181.172 382.163 183.665 382.451 186.168 382.584C187.44 388.464 198.648 437.64 200.856 443.688C201.888 446.544 213.312 448.944 220.44 451.368C222.236 451.817 224.066 452.114 225.912 452.256C229.608 452.712 230.832 450.576 228.312 447.72C225.792 444.864 224.976 445.464 215.448 437.016C215.448 437.016 210.408 381.456 210.36 381.192C211.128 380.928 212.76 380.184 213.096 379.44C214.92 374.904 221.688 290.64 205.224 235.656L207.144 235.056C212.88 233.256 207.528 203.856 206.376 183.648C209.616 183.648 237.936 182.736 241.104 181.776C241.336 181.729 241.549 181.612 241.712 181.44C241.875 181.268 241.981 181.05 242.016 180.816C242.694 171.867 242.646 162.877 241.872 153.936C241.608 152.88 241.44 152.568 220.824 153.048C231.768 144.84 241.584 138.984 248.472 122.016C252.076 112.217 254.313 101.969 255.12 91.56C255.12 92.328 254.928 111.144 255.744 111.936C257.712 113.928 366.144 111.264 373.536 109.32C374.112 109.152 374.616 108.864 374.688 108.288C375.048 105.288 375.24 99.2399 375.264 93.0239C380.8 93.1294 386.333 92.671 391.776 91.6559C391.512 94.824 394.728 97.104 397.92 97.296C397.512 107.736 397.752 131.688 398.928 148.968C398.169 148.873 397.399 148.94 396.668 149.164C395.937 149.387 395.262 149.763 394.686 150.266C394.111 150.769 393.648 151.388 393.328 152.083C393.009 152.777 392.84 153.532 392.832 154.296C387.978 153.913 383.097 154.017 378.264 154.608C374.376 155.184 374.856 155.496 374.856 154.992C374.997 149.277 374.74 143.559 374.088 137.88C373.656 136.104 372.792 135.72 255.816 140.28C255.737 140.284 255.661 140.311 255.597 140.358C255.533 140.405 255.484 140.47 255.456 140.544C254.376 143.616 254.688 168.816 254.952 173.496C254.952 174.384 254.952 175.32 255.336 175.632C257.232 177.552 365.28 175.032 373.152 173.016C373.424 172.982 373.679 172.865 373.881 172.68C374.083 172.495 374.222 172.252 374.28 171.984C374.64 168.888 374.856 162.528 374.856 156.12C375.072 156.12 378.744 156.24 380.616 156.12C393.384 155.832 392.808 154.56 392.616 155.448C392.328 158.64 395.52 160.92 398.712 161.136C398.712 163.704 397.728 188.304 399 211.536C398.089 211.517 397.187 211.726 396.378 212.145C395.569 212.565 394.878 213.18 394.368 213.936C393.615 215.291 393.25 216.827 393.312 218.376C387.199 217.844 381.042 218.118 375 219.192C375.132 212.782 374.875 206.371 374.232 199.992C374.174 199.787 374.06 199.603 373.903 199.458C373.747 199.314 373.553 199.217 373.344 199.176C367.656 197.592 275.688 201.576 255.96 202.416C255.88 202.417 255.802 202.443 255.738 202.49C255.673 202.538 255.625 202.604 255.6 202.68C254.52 205.752 254.832 230.976 255.096 235.632C255.096 236.52 255.096 237.456 255.48 237.768C257.28 239.64 365.184 237.264 373.296 235.152C373.569 235.122 373.826 235.006 374.028 234.82C374.231 234.635 374.37 234.389 374.424 234.12C374.76 231.312 374.952 225.864 375 220.08C378.086 220.257 381.179 220.257 384.264 220.08C387.32 220.031 390.368 219.759 393.384 219.264C393.803 220.623 394.663 221.804 395.827 222.621C396.992 223.438 398.395 223.844 399.816 223.776C399.816 227.712 399.024 255.432 400.56 281.064C399.799 280.912 399.014 280.924 398.258 281.1C397.501 281.276 396.792 281.612 396.176 282.085C395.56 282.557 395.052 283.156 394.687 283.841C394.321 284.526 394.106 285.281 394.056 286.056C387.607 285.552 381.122 285.737 374.712 286.608C374.847 280.892 374.583 275.175 373.92 269.496C373.464 267.624 370.608 267.432 255.672 271.896C255.594 271.903 255.519 271.931 255.455 271.978C255.392 272.024 255.342 272.087 255.312 272.16C254.304 274.992 254.256 306.36 255.312 307.272C257.232 309.24 365.52 306.6 373.104 304.632C373.68 304.488 374.16 304.2 374.232 303.6C374.616 300.48 374.808 294 374.832 287.544C379.129 287.881 383.447 287.881 387.744 287.544C394.704 287.184 394.152 286.368 394.032 287.544C393.744 290.808 397.128 293.136 400.368 293.256C403.608 293.376 400.368 293.256 400.488 293.4C400.608 293.544 400.344 293.016 400.32 294.408C400.032 321.264 399.768 339.552 400.608 358.872C399.244 358.804 397.906 359.265 396.873 360.16C395.84 361.054 395.192 362.312 395.064 363.672C388.045 362.935 380.964 363.032 373.968 363.96C374.079 357.925 373.814 351.89 373.176 345.888C372.696 343.896 367.488 343.896 254.928 348.288C254.847 348.285 254.768 348.31 254.702 348.357C254.637 348.405 254.59 348.474 254.568 348.552C253.584 351.36 253.512 382.728 254.448 383.64C256.272 385.512 370.728 383.16 373.104 380.568C373.25 380.408 373.343 380.207 373.368 379.992C373.728 376.992 373.944 370.992 373.968 364.824C380.96 365.396 387.991 365.316 394.968 364.584V365.352C394.584 369.624 401.184 373.104 405.336 369.6C406.144 368.749 406.694 367.685 406.921 366.533C407.148 365.381 407.042 364.189 406.617 363.094C406.192 362 405.465 361.049 404.52 360.353C403.575 359.656 402.451 359.242 401.28 359.16ZM392.832 31.344C392.821 30.3435 392.967 29.3474 393.264 28.392C395.016 24.192 404.088 25.416 401.784 31.968C401.534 32.6672 401.103 33.2881 400.536 33.768C397.392 36.6 392.64 33.864 392.832 31.344ZM255.768 18.024C256.008 18.024 367.224 15.216 371.928 15.816C372.679 26.5869 372.679 37.397 371.928 48.168C363.024 49.944 277.08 52.056 260.76 51.84C260.728 51.5384 260.62 51.2497 260.448 51C259.44 49.344 257.52 49.56 255.648 49.608C255.648 47.808 255.456 45.168 255.36 42.144C256 39.868 256 37.4599 255.36 35.184C255.195 29.4608 255.331 23.7329 255.768 18.024ZM250.344 41.52C252.744 36.096 254.472 33.816 253.872 39.72C253.464 43.824 252.048 48.792 252.12 49.824C252.192 50.856 253.344 51.264 254.208 51.408C256.152 51.72 258.384 50.832 259.008 51.912C259.632 52.992 253.368 53.856 252.672 54.6C251.976 55.344 252.48 58.248 252.672 60.144C250.272 60 246.6 59.928 243.816 60.144C245.256 55.488 248.4 46.128 250.344 41.52ZM160.248 102.552C158.457 103.669 156.606 104.686 154.704 105.6C154.597 105.648 154.501 105.717 154.423 105.804C154.344 105.891 154.285 105.993 154.248 106.104C154.113 107.701 154.113 109.307 154.248 110.904C154.512 113.712 155.16 112.584 160.68 112.416H162.144C162.539 112.778 162.864 113.209 163.104 113.688C165.209 118.043 166.362 122.796 166.488 127.632C166.632 130.464 166.488 134.4 164.088 135.96C161.732 136.847 159.199 137.168 156.696 136.896C148.656 135.888 132.864 119.736 127.344 113.808C129.77 113.151 132.241 112.669 134.736 112.368C136.368 112.368 138.552 112.368 138.456 110.856C138.072 104.928 138.12 90.5519 138.12 90.4559C138 88.7519 135.912 89.616 133.704 88.056C133.062 87.6074 132.575 86.9699 132.312 86.232C131.136 82.968 131.232 79.032 134.712 78.816C137.28 78.648 138.648 80.304 141.912 79.488C143.122 79.1518 144.253 78.5774 145.238 77.7985C146.223 77.0196 147.042 76.0518 147.648 74.952C148.567 73.4617 149.263 71.8444 149.712 70.152C150.24 67.44 149.712 68.448 150.744 68.664C151.432 68.6976 152.119 68.5892 152.763 68.3456C153.408 68.102 153.995 67.7284 154.488 67.248C156.28 65.8177 157.635 63.9136 158.4 61.752L158.688 60.672C159.238 61.2432 159.889 61.7071 160.608 62.04C162.492 62.5906 164.464 62.7699 166.416 62.568C167.687 68.6901 168.568 74.8864 169.056 81.12C169.416 89.136 166.896 98.1359 160.248 102.552ZM118.896 43.824C112.2 44.976 108.312 48.408 110.016 55.008C109.128 55.9248 108.369 56.9583 107.76 58.08C102.384 54.024 104.232 44.04 110.4 38.544C115.728 33.744 126.96 28.008 132.816 30.336C133.633 30.6305 134.354 31.1409 134.903 31.8129C135.453 32.4849 135.81 33.2932 135.936 34.152C134.86 34.8219 133.876 35.6286 133.008 36.552C126.696 35.568 121.104 37.992 118.896 43.824ZM78.264 207.024C68.856 186.264 79.512 159.024 92.928 140.208C96.7348 134.031 101.517 128.512 107.088 123.864C112.419 119.529 118.54 116.269 125.112 114.264C131.112 120.84 147.576 137.736 156.48 138.84C158.209 138.979 159.948 138.922 161.664 138.672C163.2 144 164.712 149.424 165.96 155.04C147.264 155.856 148.368 155.736 148.224 156.096C147.408 158.496 147.504 180.552 147.864 183.192C139.453 183.092 131.098 184.582 123.24 187.584C125.64 176.256 122.04 161.184 118.704 150.072C118.693 150.022 118.672 149.974 118.643 149.931C118.613 149.889 118.576 149.853 118.532 149.825C118.489 149.797 118.44 149.778 118.389 149.769C118.339 149.76 118.286 149.761 118.236 149.772C118.186 149.783 118.138 149.804 118.095 149.833C118.053 149.863 118.017 149.9 117.989 149.944C117.961 149.987 117.942 150.036 117.933 150.087C117.924 150.137 117.925 150.19 117.936 150.24C119.736 160.44 123.336 178.584 122.328 187.944C117.051 190.046 112.06 192.803 107.472 196.152C107.429 196.187 107.394 196.229 107.368 196.278C107.342 196.326 107.326 196.379 107.32 196.434C107.315 196.488 107.32 196.543 107.336 196.596C107.351 196.648 107.377 196.697 107.412 196.74C107.447 196.783 107.489 196.818 107.538 196.844C107.586 196.87 107.639 196.886 107.694 196.892C107.748 196.897 107.803 196.892 107.856 196.876C107.909 196.861 107.957 196.835 108 196.8C118.629 189.519 131.123 185.438 144 185.04C148.703 184.824 153.415 185.219 158.016 186.216L164.736 192.6C161.915 201.666 157.313 210.078 151.2 217.344C145.062 224.836 136.4 229.828 126.84 231.384C120.792 232.32 100.92 232.776 89.16 221.544C84.5916 217.483 80.8862 212.545 78.264 207.024ZM162.6 183.792C162.288 186.6 166.032 184.92 172.512 184.104C180.312 183.12 177 184.512 175.752 185.304C173.352 186.864 167.472 190.104 165.888 191.16L159.24 184.8C159.528 184.12 159.865 183.463 160.248 182.832C160.674 182.183 161.296 181.687 162.024 181.416C162.36 181.488 162.648 183.24 162.6 183.792ZM85.8 242.352C84.888 240.312 90.264 229.536 90.216 224.448C98.304 231.648 117.24 234.432 127.08 233.112C137.077 231.588 146.174 226.467 152.664 218.712C159.086 211.067 163.858 202.177 166.68 192.6C167.016 191.28 164.784 192.6 171.48 189.624C173.369 206.848 173.65 224.211 172.32 241.488C149.784 245.424 115.728 248.4 94.848 245.064C91.6787 244.701 88.5945 243.8 85.728 242.4L85.8 242.352ZM131.208 444.312C127.584 444.312 124.008 444.312 120.384 444.048L116.184 389.64C123.497 389.961 130.824 389.705 138.096 388.872C138 389.136 131.16 444 131.136 444.312H131.208ZM212.304 430.2C208.743 432.179 204.859 433.512 200.832 434.136C199.44 428.736 188.832 388.152 187.512 382.704C193.416 383.04 203.376 383.16 209.112 381.6C209.04 381.864 211.872 425.352 212.232 430.2H212.304ZM206.4 233.256C196.011 236.481 185.43 239.054 174.72 240.96C175.974 223.462 175.636 205.885 173.712 188.448C175.494 187.629 177.197 186.649 178.8 185.52C179.004 185.373 179.178 185.187 179.309 184.973C179.441 184.759 179.529 184.521 179.568 184.272C187.56 184.272 196.224 183.96 204.456 183.72C205.176 196.92 209.928 232.176 206.4 233.256ZM240 154.968C240.568 163.302 240.568 171.666 240 180C233.4 181.176 185.592 182.4 178.944 182.4C178.565 182.131 178.13 181.95 177.672 181.872C175.881 181.706 174.076 181.754 172.296 182.016C171.096 182.184 165.624 182.688 164.184 182.712C163.944 182.04 163.68 181.536 163.44 180.888C163.37 180.659 163.231 180.458 163.042 180.311C162.853 180.165 162.623 180.082 162.384 180.072C161.747 180.097 161.13 180.305 160.608 180.672C159.911 181.22 159.379 181.952 159.072 182.784C157.44 182.784 150.768 182.784 149.16 182.64C148.581 173.924 148.509 165.181 148.944 156.456C149.16 156.6 235.2 154.416 240 154.968ZM253.176 97.752C249.264 125.256 240.456 136.8 225.888 147.384C223.2 149.376 220.416 151.2 217.944 153.12C210.312 153.312 175.632 154.608 168.384 154.92C163.968 134.928 162.984 139.128 165.168 137.664C168.216 135.648 168.6 131.304 168.384 127.632C168.096 122.832 166.92 115.632 164.064 111.984C182.88 109.752 204.864 106.512 219.096 93.912C228.882 84.6991 236.526 73.4503 241.488 60.96C245.799 60.7056 250.123 60.7698 254.424 61.152V61.584C255.195 73.6545 254.745 85.772 253.08 97.752H253.176ZM372.72 107.496C363.864 109.272 263.424 111.912 256.68 110.976C256.224 107.688 255.624 81.288 256.464 77.376C256.728 77.376 367.968 74.544 372.624 75.144C373.387 85.9144 373.387 96.7255 372.624 107.496H372.72ZM392.736 87.384C392.117 88.4413 391.779 89.6391 391.752 90.864C386.208 90.3623 380.62 90.7348 375.192 91.9679C375.302 86.0212 375.037 80.0735 374.4 74.16C373.92 72.12 367.032 72.24 256.152 76.56C256.067 76.5265 255.973 76.5265 255.888 76.56C255.888 75.408 256.08 60.768 255.072 60.264C254.633 60.1472 254.182 60.0828 253.728 60.072C253.531 58.478 253.531 56.8659 253.728 55.272C254.856 54.888 259.344 54.552 260.568 53.016C275.16 53.4 371.184 52.128 373.728 49.368C373.875 49.1993 373.967 48.9901 373.992 48.768C374.376 45.648 374.568 39.168 374.592 32.784C380.094 33.1718 385.621 32.9706 391.08 32.184C391.458 33.4248 392.209 34.519 393.231 35.3178C394.253 36.1165 395.497 36.581 396.792 36.648C396.432 45.624 396.432 68.424 397.584 84.864C396.612 84.8175 395.645 85.0255 394.777 85.4674C393.91 85.9094 393.174 86.57 392.64 87.384H392.736ZM393.624 91.7999C393.589 90.7979 393.735 89.7978 394.056 88.848C395.784 84.6479 404.856 85.896 402.576 92.3999C402.318 93.102 401.889 93.7288 401.328 94.2239C398.016 97.0559 393.312 94.296 393.6 91.7999H393.624ZM372.24 171.216C363.312 173.016 262.848 175.632 256.176 174.696C255.744 171.528 255.096 145.152 255.984 141.096C256.224 141.096 367.464 138.288 372.12 138.864C372.924 149.632 372.965 160.443 372.24 171.216ZM372.48 233.52C363.552 235.296 263.112 237.96 256.416 237C255.984 233.784 255.336 207.432 256.224 203.4C256.464 203.4 367.656 200.592 372.36 201.192C373.152 211.952 373.192 222.754 372.48 233.52ZM394.464 155.736C394.441 154.735 394.587 153.737 394.896 152.784C396.624 148.584 405.696 149.784 403.416 156.336C403.166 157.042 402.736 157.671 402.168 158.16C398.976 160.992 394.248 158.256 394.464 155.736ZM395.16 218.4C395.149 217.399 395.295 216.403 395.592 215.448C397.32 211.248 406.416 212.448 404.112 219.024C403.856 219.72 403.426 220.34 402.864 220.824C399.672 223.752 394.968 220.992 395.16 218.4ZM372.168 302.976C363.288 304.752 263.256 307.392 256.104 306.432C255.672 303.12 255.072 276.744 255.912 272.832C256.176 272.832 367.368 270.024 372.072 270.624C372.872 281.424 372.904 292.267 372.168 303.072V302.976ZM371.352 379.44C362.4 381.24 261.984 383.856 255.312 382.92C254.856 379.728 254.232 353.376 255.096 349.32C255.36 349.32 366.552 346.512 371.256 347.088C372.056 357.888 372.088 368.731 371.352 379.536V379.44ZM395.76 288C395.749 286.999 395.895 286.003 396.192 285.048C397.944 280.848 407.016 282.048 404.712 288.624C404.456 289.32 404.026 289.94 403.464 290.424C400.296 293.256 395.568 290.52 395.76 288ZM405.6 366.48C405.326 367.178 404.893 367.802 404.334 368.302C403.776 368.802 403.108 369.164 402.384 369.36C400.32 370.032 396.456 368.352 396.648 365.856C396.575 364.702 396.789 363.547 397.272 362.496C399.528 358.776 407.832 360.216 405.6 366.48Z" fill="#0B0B14"/>
<path fill-rule="evenodd" clip-rule="evenodd" d="M274.392 363.216C273.144 360.816 266.856 359.544 264.36 363.216C263.653 364.518 263.297 365.982 263.328 367.464C262.968 371.544 268.296 374.016 271.584 372.888C272.524 372.575 273.373 372.038 274.06 371.324C274.746 370.61 275.249 369.74 275.525 368.789C275.802 367.837 275.843 366.833 275.645 365.863C275.448 364.892 275.018 363.984 274.392 363.216ZM270.984 371.16C268.92 371.832 265.032 370.176 265.248 367.68C265.216 366.68 265.354 365.682 265.656 364.728C267 361.464 272.592 362.016 273.72 363.624C274.155 364.273 274.431 365.015 274.525 365.79C274.62 366.565 274.53 367.352 274.263 368.086C273.997 368.82 273.561 369.481 272.991 370.015C272.422 370.549 271.734 370.941 270.984 371.16ZM165.192 83.7119C164.863 82.4445 164.446 81.2015 163.944 79.9919C163.933 79.9415 163.912 79.8937 163.883 79.8514C163.853 79.809 163.816 79.7729 163.772 79.745C163.729 79.7171 163.68 79.6981 163.629 79.689C163.579 79.6799 163.527 79.6809 163.476 79.6919C163.426 79.703 163.378 79.7238 163.336 79.7533C163.293 79.7828 163.257 79.8203 163.229 79.8638C163.201 79.9073 163.182 79.9558 163.173 80.0066C163.164 80.0574 163.165 80.1095 163.176 80.1599C163.176 81.5039 163.176 82.5599 163.416 84.0239C163.656 85.4879 164.16 89.1359 164.184 89.6159C163.263 90.109 162.289 90.4955 161.28 90.7679C160.752 90.9119 161.064 91.5839 161.28 91.5359C163.152 91.7039 165.912 91.5359 165.936 89.5919C165.847 87.615 165.599 85.6486 165.192 83.7119ZM167.4 76.7999C167.086 76.8242 166.793 76.9663 166.579 77.1977C166.365 77.4292 166.247 77.7329 166.248 78.0479V80.0159C166.248 80.3342 166.375 80.6394 166.6 80.8645C166.825 81.0895 167.13 81.2159 167.448 81.2159C167.766 81.2159 168.072 81.0895 168.297 80.8645C168.522 80.6394 168.648 80.3342 168.648 80.0159V78.0719C168.642 77.7405 168.51 77.424 168.277 77.1874C168.045 76.9508 167.731 76.8121 167.4 76.7999ZM155.064 83.8319C155.224 83.8351 155.382 83.8064 155.531 83.7476C155.679 83.6887 155.814 83.6008 155.928 83.4891C156.042 83.3773 156.133 83.2439 156.195 83.0968C156.256 82.9496 156.288 82.7916 156.288 82.6319V80.5199C156.288 80.2017 156.162 79.8964 155.937 79.6714C155.712 79.4464 155.406 79.3199 155.088 79.3199C154.77 79.3199 154.465 79.4464 154.24 79.6714C154.015 79.8964 153.888 80.2017 153.888 80.5199V82.6319C153.888 82.9461 154.011 83.2477 154.231 83.4721C154.451 83.6964 154.75 83.8256 155.064 83.8319ZM158.64 97.5599C157.737 97.2892 156.854 96.9523 156 96.5519C152.784 95.3039 153.84 96.9599 155.04 98.0639C156.024 98.8118 157.213 99.2391 158.448 99.2879C159.528 99.2879 161.952 98.6879 158.64 97.5599ZM171.48 169.56C171 169.56 170.952 170.088 171.216 170.28C171.48 170.472 189.24 170.28 189.504 170.28C214.536 169.68 226.392 168.528 227.76 168.48C227.811 168.48 227.86 168.47 227.907 168.451C227.954 168.431 227.996 168.403 228.032 168.367C228.067 168.332 228.096 168.289 228.115 168.243C228.134 168.196 228.144 168.146 228.144 168.096C228.144 168.045 228.134 167.996 228.115 167.949C228.096 167.902 228.067 167.86 228.032 167.824C227.996 167.789 227.954 167.76 227.907 167.741C227.86 167.722 227.811 167.712 227.76 167.712C207.168 167.112 176.136 168.816 171.48 169.56ZM161.28 165.6C160.321 165.315 159.299 165.328 158.348 165.637C157.397 165.945 156.561 166.535 155.952 167.328C155.364 168.375 155.065 169.559 155.088 170.76C154.752 174.576 160.44 176.952 163.56 174.264C164.231 173.637 164.72 172.84 164.975 171.957C165.23 171.075 165.241 170.139 165.007 169.251C164.773 168.363 164.303 167.554 163.647 166.911C162.991 166.269 162.173 165.815 161.28 165.6ZM163.68 171.336C163.471 171.85 163.146 172.309 162.729 172.675C162.313 173.042 161.817 173.306 161.28 173.448C159.768 173.928 156.888 172.704 157.032 170.904C157.176 169.104 157.032 168.096 158.664 167.28C159.416 166.94 160.242 166.799 161.064 166.872C163.92 167.064 164.4 169.344 163.68 171.312V171.336Z" fill="#0B0B14"/>
</svg>
