<svg viewBox="0 0 480 480" fill="none" xmlns="http://www.w3.org/2000/svg">
<path d="M34.4971 56.3607C37.4181 56.3607 42.0553 56.6007 48.7014 56.3775C118.787 54.0541 147.133 62.3659 159.81 56.3775C161.656 55.5062 160.852 52.3548 158.524 51.6059C152.57 49.7525 146.346 48.9191 140.114 49.1409C139.394 49.1409 140.285 48.4449 141.075 46.1839C142.131 43.1429 138.382 39.2234 129.794 40.6923C131.01 38.9217 132.074 37.0508 132.974 35.0999C137.897 24.3255 133.747 12.7903 121.933 15.2889C117.265 16.381 112.878 18.439 109.054 21.3301C104.841 24.8224 105.454 26.9345 104.676 25.8904C101.124 21.0517 97.8858 14.516 90.4668 17.5402C86.9877 19.144 84.0034 21.6533 81.8262 24.8056C78.5644 29.1979 79.2628 31.3988 78.1971 33.8542C76.4138 32.7837 73.1928 28.3482 67.5019 25.9672C62.1856 23.7447 56.3675 26.9273 53.7009 30.9212C50.2447 36.0984 51.5408 38.5322 51.5864 40.9827C47.6429 40.9827 43.4258 36.4608 36.9453 44.2854C36.6227 44.6109 36.4034 45.0244 36.3151 45.474C36.2267 45.9237 36.2731 46.3894 36.4485 46.8128C36.9285 47.9025 32.385 47.8592 25.2252 50.1202C19.8296 51.8291 20.3313 56.3487 34.4971 56.3607Z" fill="#FDF8F2" class="bg"/>
<path d="M31.4534 56.4615C33.7144 56.5359 37.8763 56.5791 45.4176 56.4927C117.286 55.6695 146.945 62.4596 159.81 56.3799C161.656 55.5087 160.852 52.3572 158.524 51.6084C152.57 49.755 146.346 48.9216 140.114 49.1434C139.394 49.1434 140.285 48.4473 141.074 46.1864C142.13 43.1453 138.381 39.2259 129.793 40.6948C131.01 38.9241 132.074 37.0532 132.974 35.1024C137.896 24.328 133.747 12.7927 121.933 15.2913C117.265 16.3828 112.878 18.4399 109.054 21.3301C104.841 24.8224 105.453 26.9346 104.676 25.8905C101.123 21.0517 97.8855 14.516 90.4666 17.5403C86.9874 19.1441 84.0031 21.6534 81.8259 24.8056C78.5641 29.1979 79.2625 31.3989 78.1969 33.8543C76.4135 32.7838 73.1925 28.3483 67.5017 25.9673C62.1853 23.7447 56.3672 26.9274 53.7007 30.9212C50.2444 36.0984 51.5405 38.5322 51.5861 40.9828C47.6426 40.9828 43.4255 36.4609 36.945 44.2854C36.6224 44.6109 36.4032 45.0244 36.3148 45.4741C36.2264 45.9237 36.2728 46.3895 36.4482 46.8128C36.9282 47.9025 32.3847 47.8593 25.225 50.1203C20.0958 51.7404 19.4549 56.0583 31.4534 56.4615ZM38.4835 47.1728C37.7635 45.6919 37.7635 45.5671 38.9276 44.4174C43.2911 40.1451 46.0561 41.458 52.4334 42.9389C53.2614 43.1309 53.8879 42.7373 53.7007 41.8828C53.2229 40.4022 53.0795 38.8341 53.2808 37.2914C53.4821 35.7487 54.0231 34.2699 54.8647 32.9614C57.5409 28.2427 62.3437 25.7249 67.9697 28.3291C71.7355 30.6392 75.195 33.4149 78.2665 36.5905C79.4521 37.8146 80.0834 37.2841 80.0594 36.5113C79.8386 28.9459 86.8159 19.9668 93.3684 18.9348C96.4454 18.4547 99.5704 21.6062 101.498 24.4552C104.02 28.1802 104.342 31.0389 106.425 27.4122C110.628 20.0917 126.935 12.2047 131.562 20.8021C133.759 24.8824 132.832 29.4427 131.248 33.7943C129.984 36.8051 128.327 39.6349 126.318 42.2093C125.996 42.6893 126.224 43.3326 126.92 43.1957L131.44 42.3365C133.6 41.8565 137.781 42.1085 138.981 44.8255C139.79 46.6616 135.861 50.7947 137.728 50.8595C165.41 51.8196 165.09 56.7735 143.93 56.7735C143.93 56.7207 106.519 54.3086 29.8789 54.803C25.477 54.8318 20.7246 52.8181 27.9588 51.0515C37.7179 48.6754 39.5036 49.2946 38.4835 47.1728Z" fill="#0B0B14" class="fg"/>
<path d="M258.15 53.4182C266.992 55.0047 268.929 53.8766 280.779 53.8766C311.684 53.8766 291.428 54.5967 324.256 53.8766C358.955 53.1109 366.369 55.7967 375.108 55.9864C381.872 56.1304 386.101 55.7463 390.841 56.3656C397.789 57.2377 404.814 57.3006 411.776 56.5528C415.182 56.2624 415.448 49.9595 406.073 48.3922C389.135 45.5864 402.794 48.6586 383.235 44.8831C381.512 44.5495 384.286 43.2606 382.755 39.3387C382.337 38.47 381.67 37.7454 380.838 37.2573C380.007 36.7691 379.049 36.5395 378.087 36.5977C376.219 36.6649 382.182 29.5892 379.868 25.1489C378.83 22.8181 377.213 20.7915 375.171 19.2619C373.129 17.7323 370.729 16.7505 368.2 16.4098C364.95 15.9965 361.661 15.9965 358.41 16.4098C354.769 16.878 351.254 18.0494 348.061 19.8589C344.087 22.2145 340.629 25.3457 337.891 29.066C337.274 25.9765 335.995 23.0574 334.142 20.5093C322.597 5.033 300.165 15.373 294.738 27.4507C291.066 35.6113 292.917 39.2115 291.668 37.2242C288.704 32.491 282.003 31.0461 276.413 31.8358C272.381 32.407 269.148 35.1096 268.118 41.5517C267.782 43.6519 265.442 37.9826 255.375 43.7119C248.182 47.809 250.661 52.0693 258.15 53.4182Z" fill="#FDF8F2" class="bg"/>
<path d="M258.15 53.4182C266.992 55.0047 268.929 53.8766 280.779 53.8766C311.684 53.8766 291.428 54.5967 324.256 53.8766C358.955 53.1109 366.369 55.7967 375.108 55.9864C381.872 56.1304 386.101 55.7463 390.841 56.3656C397.789 57.2377 404.814 57.3006 411.776 56.5528C415.182 56.2624 415.448 49.9595 406.073 48.3922C389.135 45.5864 402.794 48.6586 383.235 44.8831C381.512 44.5495 384.286 43.2606 382.755 39.3387C382.337 38.47 381.67 37.7454 380.838 37.2573C380.007 36.7691 379.049 36.5395 378.087 36.5977C376.219 36.6649 382.182 29.5892 379.868 25.1489C378.83 22.8181 377.213 20.7915 375.171 19.2619C373.129 17.7323 370.729 16.7505 368.2 16.4098C364.95 15.9965 361.661 15.9965 358.41 16.4098C354.769 16.878 351.254 18.0494 348.061 19.8589C344.087 22.2145 340.629 25.3457 337.891 29.066C337.274 25.9765 335.995 23.0574 334.142 20.5093C322.597 5.033 300.165 15.373 294.738 27.4507C291.066 35.6113 292.917 39.2115 291.668 37.2242C288.704 32.491 282.003 31.0461 276.413 31.8358C272.381 32.407 269.148 35.1096 268.118 41.5517C267.782 43.6519 265.442 37.9826 255.375 43.7119C248.182 47.809 250.661 52.0693 258.15 53.4182ZM254.826 46.1816C258.275 43.8919 263.298 41.7077 266.853 43.7167C271.785 46.5057 267.249 37.6874 274.39 34.1351C277.192 33.1948 280.196 33.029 283.085 33.6551C290.874 35.412 290.838 40.2148 293.056 42.2766C293.139 42.369 293.248 42.4348 293.368 42.4657C293.489 42.4966 293.616 42.4912 293.733 42.4502C293.851 42.4092 293.953 42.3343 294.028 42.2351C294.103 42.1359 294.147 42.0167 294.155 41.8925C294.268 41.1413 293.675 38.8563 293.687 37.2842C293.8 26.6562 305.517 15.901 315.089 14.8713C328.559 13.4312 336.907 22.9047 336.283 32.2702C336.24 32.9303 336.105 33.5951 336.677 33.8087C337.248 34.0223 337.795 33.5063 337.949 32.9351C338.923 29.3348 344.204 22.9575 352.854 19.7797C370.817 13.184 380.321 23.38 378.214 29.7764C376.488 35.0064 373.174 38.0738 378.672 38.5011C380.833 38.6691 381.577 41.8829 380.593 44.0215C379.767 45.8264 379.393 46.148 385.856 47.3817C400.701 50.1995 408.418 49.2275 411.792 53.0605C411.955 53.1913 412.071 53.3707 412.124 53.5725C412.177 53.7742 412.164 53.9877 412.087 54.1814C412.009 54.3751 411.872 54.5389 411.694 54.6487C411.517 54.7584 411.309 54.8083 411.101 54.7911C404.184 55.5428 397.199 55.4065 390.316 54.3854C383.876 53.5574 378.26 54.6111 369.221 53.603C343.644 50.754 317.763 52.3141 304.805 52.2877C291.92 52.2589 301.291 51.8941 279.603 51.9085C276.483 51.9085 270.189 52.6285 263.762 52.2613C257.024 51.8917 249.169 49.9403 254.826 46.1816Z" fill="#0B0B14" class="fg"/>
<path d="M12.4463 129.038C184.733 122.174 319.95 123.628 449.178 129.038C449.303 129.05 449.419 129.11 449.502 129.205C449.585 129.3 449.629 129.423 449.624 129.549C449.619 129.675 449.566 129.795 449.476 129.883C449.386 129.972 449.265 130.022 449.139 130.025C275.28 123.671 164.478 125.008 12.4871 130.025C12.3608 130.023 12.24 129.973 12.1495 129.884C12.059 129.796 12.0056 129.677 12.0004 129.551C11.9952 129.424 12.0385 129.301 12.1214 129.206C12.2043 129.11 12.3206 129.05 12.4463 129.038Z" fill="#0B0B14" class="fg"/>
<path d="M383.439 270.545C384.817 263.297 383.473 225.823 383 219.685C380.924 218.505 310.829 183.474 310.034 183.109C306.194 181.367 306.261 181.638 295.828 181.052C291.219 180.795 34.9574 172.515 33.3612 172.412C28.5609 172.109 29.4994 172.155 23.3189 178.278C22.9398 178.65 22.6736 179.122 22.5508 179.638C22.2098 181.913 22.1767 184.222 22.4524 186.505C22.7141 187.945 29.7706 187.54 139.382 191.183C157.818 191.795 285.358 195.816 299.574 196.161C306.775 198.453 354.363 222.748 372.799 232.363C373.039 236.175 374.306 257.383 373.937 262.43C358.52 269.563 40.8666 400.964 40.617 401.468C40.4257 401.768 40.2944 402.102 40.2305 402.452C40.1177 407.17 39.3977 412.657 40.6314 413.538C42.0715 414.57 48.9864 419.385 49.9921 417.858C50.0281 417.803 329.44 303.629 381.216 277.383C382.676 276.637 382.553 275.223 383.439 270.545Z" fill="#FDF8F2" class="bg"/>
<path d="M442.438 193.898C440.357 192.714 370.845 157.655 370.036 157.281C366.196 155.531 366.266 155.793 355.832 155.226C351.224 154.974 52.0729 146.679 50.4768 146.564C45.6909 146.225 46.6101 146.3 40.4369 152.425C39.2968 153.556 39.6304 154.513 39.4 158.824C39.1936 162.734 34.1916 160.605 167.075 163.924C184.183 164.352 353.934 169.766 357.68 170.016C364.266 170.46 359.387 169.008 431.349 205.733C431.087 212.905 431.126 288.484 430.199 298.939C414.264 306.368 106.125 450.095 105.873 450.604C105.683 450.905 105.553 451.24 105.489 451.59C105.376 456.307 104.656 461.793 105.887 462.674C107.327 463.706 114.24 468.521 115.229 466.995C115.253 466.956 384.953 342.185 438.249 314.862C439.728 314.103 439.243 312.622 440.486 308.026C444.137 294.523 443.004 200.265 442.438 193.898Z" fill="#FDF8F2" class="bg"/>
<path d="M383 219.685C380.924 218.505 310.829 183.474 310.034 183.109C306.194 181.367 306.261 181.638 295.828 181.052C291.219 180.795 34.9574 172.515 33.3612 172.412C28.5609 172.109 29.4994 172.155 23.3189 178.278C22.9398 178.65 22.6736 179.122 22.5508 179.638C22.2098 181.913 22.1767 184.222 22.4524 186.505C22.7141 187.945 29.7706 187.54 139.382 191.183C157.818 191.795 285.358 195.816 299.574 196.161C306.775 198.453 354.363 222.748 372.799 232.363C373.039 236.175 374.306 257.383 373.937 262.43C358.52 269.563 40.8666 400.964 40.617 401.468C40.4257 401.768 40.2944 402.102 40.2305 402.452C40.1177 407.17 39.3977 412.657 40.6314 413.538C42.0715 414.57 48.9864 419.385 49.9921 417.858C50.0281 417.803 329.421 303.593 381.216 277.383C382.697 276.634 382.563 275.223 383.446 270.548C384.807 263.301 383.473 225.823 383 219.685ZM300.283 194.1C277.452 192.931 24.9078 186.088 24.4326 185.303C24.1865 184.071 24.1865 182.803 24.4326 181.571C29.6026 181.777 299.558 189.822 304.965 190.156C310.838 192.395 366.7 222.196 372.492 224.69C372.653 226.395 372.698 228.11 372.629 229.821C372.564 229.766 303.554 194.268 300.283 194.1ZM47.6663 416.209C45.8387 414.846 43.8867 413.657 41.8363 412.66C41.073 412.242 41.5098 412.53 42.1963 403.882C42.2419 403.285 42.4915 403.745 44.5365 404.907C48.1103 406.935 48.3959 407.002 48.3527 408.359C48.0911 416.502 48.2711 416.586 47.6663 416.209ZM380.501 275.266C380.501 277.69 52.6947 415.11 50.0137 415.878C50.0137 415.83 50.0785 410.094 50.1265 409.441C50.1937 408.514 50.3521 408.111 50.7577 408.022C72.3857 399.451 380.52 270.504 381.106 270.224C382.289 269.657 380.496 273.949 380.501 275.266ZM381.896 267.615C381.814 268.555 49.8145 406.935 49.1904 406.194C47.468 404.602 45.5634 403.221 43.5164 402.077C44.2604 401.535 363.82 269.386 375.65 263.904C376.423 261.11 375.084 240.812 374.714 223.749C372.413 222.407 335.428 203.347 328.461 199.596C311.299 190.367 307.454 188.294 301.701 187.871C297.265 187.545 24.1542 180.431 24.9438 179.545C27.104 177.087 28.8897 175.081 29.3265 174.567C29.5666 174.276 29.7754 174.197 31.1507 174.272C31.5587 174.272 289.429 182.511 297.028 182.651C306.089 182.816 304.598 182.243 310.159 185.08C310.894 185.454 369.799 215.063 380.816 220.643C381.113 228.134 382.954 255.318 381.896 267.605V267.615Z" fill="#0B0B14" class="fg"/>
<path d="M442.438 193.898C440.357 192.714 370.845 157.655 370.036 157.281C366.196 155.531 366.266 155.793 355.832 155.226C351.224 154.974 52.0729 146.679 50.4768 146.564C45.6909 146.225 46.6101 146.3 40.4369 152.425C39.2968 153.556 39.6304 154.513 39.4 158.824C39.1936 162.734 34.1916 160.605 167.075 163.924C184.183 164.352 353.934 169.766 357.68 170.016C364.266 170.46 359.387 169.008 431.349 205.733C431.087 212.905 431.126 288.484 430.199 298.939C414.264 306.368 106.125 450.095 105.873 450.604C105.683 450.905 105.553 451.24 105.489 451.59C105.376 456.307 104.656 461.793 105.887 462.674C107.327 463.706 114.24 468.521 115.229 466.995C115.253 466.956 384.953 342.185 438.249 314.862C439.728 314.103 439.243 312.622 440.486 308.026C444.137 294.523 443.004 200.265 442.438 193.898ZM431.277 203.422C388.851 181.664 364.754 168.506 359.55 168.089C345.819 167.813 79.0629 160.542 49.788 159.774C43.7323 159.616 41.8458 159.863 41.3706 159.086C41.2133 157.962 41.2133 156.822 41.3706 155.699C46.5261 155.896 122.175 157.528 301.79 162.299C374.897 164.241 360.791 161.731 375.475 169.469C407.157 186.167 427.47 196.713 431.241 198.585C431.238 199.857 431.387 201.869 431.277 203.422ZM113.429 457.992C113.512 459.769 113.503 461.549 113.4 463.325C113.469 465.159 113.517 465.711 112.951 465.346C111.141 463.957 109.186 462.768 107.121 461.798C106.355 461.378 106.795 461.666 107.481 453.018C107.527 452.423 107.774 452.882 109.821 454.043C113.393 456.071 113.719 455.829 113.503 457.144C113.435 457.421 113.41 457.707 113.429 457.992ZM437.613 312.202C437.613 314.629 115.558 464.429 115.548 464.335C115.395 463.161 115.323 461.977 115.332 460.793C115.332 457.795 115.164 457.713 115.812 457.564C119.259 456.779 164.492 435.212 415.642 318.724C431.445 311.394 437.083 307.748 438.314 307.15C439.545 306.552 437.608 310.916 437.613 312.202ZM433.197 197.392C430.895 196.058 395.449 177.524 388.486 173.782C371.318 164.563 367.478 162.479 361.727 162.057C357.289 161.731 41.289 154.616 42.0834 153.726C44.2436 151.266 46.0293 149.264 46.4685 148.748C46.7086 148.465 46.9126 148.383 48.2879 148.458C48.6959 148.458 349.448 156.697 357.054 156.837C366.112 157.002 364.624 156.433 370.185 159.268L440.904 195.146C441.086 203.926 441.122 284.348 439.065 304.354C437.839 306.099 425.948 311.631 298.984 370.635C108.528 459.151 115.505 456.583 114.454 455.335C112.728 453.747 110.823 452.365 108.777 451.218C109.526 450.681 429.76 302.194 432.023 300.504C433.931 285.03 433.286 211.769 433.197 197.392Z" fill="#0B0B14" class="fg"/>
<path d="M75.249 400.215L61.9952 406.297L62.4297 412.384L113.933 448.456L133.485 437.809L75.249 400.215Z" fill="#0B0B14" class="fg"/>
<path d="M113.523 383.879L100.269 389.964L100.703 396.05L153.68 430.143L173.237 419.498L113.523 383.879Z" fill="#0B0B14" class="fg"/>
<path d="M154.344 366.689L141.091 372.776L141.525 378.858L194.497 410.403L215.297 400.584L154.344 366.689Z" fill="#0B0B14" class="fg"/>
<path d="M196.777 350.039L183.523 356.126L183.958 362.208L237.623 389.87L258.548 380.183L196.777 350.039Z" fill="#0B0B14" class="fg"/>
<path d="M239.034 332.393L225.781 338.48L226.213 344.562L281.256 369.903L301.617 360.038L239.034 332.393Z" fill="#0B0B14" class="fg"/>
<path d="M281.758 314.284L268.499 320.366L268.938 326.452L322.614 350.409L343.065 340.633L281.758 314.284Z" fill="#0B0B14" class="fg"/>
<path d="M328.999 294.196L315.745 300.281L316.177 306.363L368.361 329.227L388.758 319.449L328.999 294.196Z" fill="#0B0B14" class="fg"/>
<path d="M375.192 274.861L361.938 280.943L362.373 287.027L412.234 308.876L431.841 298.766L375.192 274.861Z" fill="#0B0B14" class="fg"/>
<path d="M405.573 187.23L419.209 194.46L419.05 199.193L376.454 217.852L356.816 207.872L405.573 187.23Z" fill="#0B0B14" class="fg"/>
<path d="M364.043 165.986L377.676 173.216L377.741 177.505L341.177 199.385L320.816 189.383L364.043 165.986Z" fill="#0B0B14" class="fg"/>
<path d="M275.705 163.269L290.759 163.625L290.665 167.498L279.737 181.047L257.927 180.219L275.705 163.269Z" fill="#0B0B14" class="fg"/>
<path d="M315.413 164.57L331.655 164.925L331.556 168.799L312.302 185.538L305.803 182.286H291.721L315.413 164.57Z" fill="#0B0B14" class="fg"/>
<path d="M54.0796 157.809L69.5823 158.193L69.4815 162.062L65.3124 175.095L39.5873 173.991L54.0796 157.809Z" fill="#0B0B14" class="fg"/>
<path d="M91.3619 158.02L105.105 158.404L105.461 176L82.6541 174.903L91.3619 158.02Z" fill="#0B0B14" class="fg"/>
<path d="M127.244 158.927L140.671 159.312L143.027 176.907L123.411 175.803L127.244 158.927Z" fill="#0B0B14" class="fg"/>
<path d="M164.118 160.355L178.334 160.742L180.828 178.338L160.057 177.238L164.118 160.355Z" fill="#0B0B14" class="fg"/>
<path d="M201.417 161.791L215.47 162.175L217.933 179.77L197.399 178.666L201.417 161.791Z" fill="#0B0B14" class="fg"/>
<path d="M238.118 162.408L251.079 162.871C251.079 167.191 251.578 163.728 247.992 180.762L228.851 179.758L238.118 162.408Z" fill="#0B0B14" class="fg"/>
<path d="M382.738 266.043L431.692 269.991L432.501 255.758L383.084 253.07L382.738 266.043Z" fill="#0B0B14" class="fg"/>
<path d="M382.023 238.116L432.318 234.449L431.963 219.947L382.368 225.139L382.023 238.116Z" fill="#0B0B14" class="fg"/>
<path d="M141.854 108.37C141.587 103.937 141.22 103.438 139.883 103.308C129.322 102.29 122.492 102.507 120.895 102.322C117.514 101.933 125.038 95.5052 116.717 80.4681C105.054 59.3945 73.4152 66.9791 72.1479 91.2185C72.0536 93.6083 72.1943 96.0015 72.5679 98.3638C73.288 101.662 73.888 101.808 72.2823 101.854C70.3639 101.54 68.3972 101.947 66.7619 102.999C57.6418 109.468 48.9398 116.507 40.708 124.074C40.1319 124.843 40.1103 123.724 40.0863 135.18C40.0503 152.584 40.7296 169.051 41.4904 172.196C41.6849 172.995 41.8049 173.223 42.5417 173.468C44.4427 174.099 47.8869 173.888 48.0069 174.267C49.9583 180.38 53.4673 181.645 56.0619 181.818C58.196 181.947 60.3162 181.397 62.1176 180.245C63.9191 179.094 65.309 177.401 66.0874 175.409C67.5659 175.251 83.2847 175.938 91.6877 176.434C92.2062 184.509 105.086 187.276 109.466 177.111C109.548 176.913 109.697 176.749 109.886 176.648C110.076 176.548 110.295 176.516 110.505 176.559C112.311 176.93 114.18 176.869 115.958 176.382C118.358 175.57 138.774 161.74 143.244 155.457C143.949 151.485 142.005 110.874 141.854 108.37Z" fill="#FDF8F2" class="bg"/>
<path d="M101.353 113.422C122.986 109.738 119.319 72.9026 96.5123 72.2522C92.8532 72.29 89.3134 73.5582 86.4627 75.8525C71.2792 88.5638 83.3617 116.487 101.353 113.422ZM96.4331 73.5171C111.384 73.9683 120.233 93.7722 110.916 106.207C101.973 118.146 82.6393 111.505 80.6903 93.525C79.4446 82.0113 88.1333 73.2675 96.4331 73.5171Z" fill="#0B0B14" class="fg"/>
<path d="M141.854 108.37C141.587 103.937 141.22 103.438 139.883 103.308C129.322 102.29 122.492 102.507 120.895 102.322C117.514 101.933 125.038 95.5052 116.717 80.4681C105.054 59.3945 73.4152 66.9791 72.1479 91.2185C72.0536 93.6083 72.1943 96.0015 72.5679 98.3638C73.288 101.662 73.888 101.808 72.2823 101.854C70.3639 101.54 68.3972 101.947 66.7619 102.999C57.6418 109.468 48.9398 116.507 40.708 124.074C40.1319 124.843 40.1103 123.724 40.0863 135.18C40.0503 152.584 40.7296 169.051 41.4904 172.196C41.6849 172.995 41.8049 173.223 42.5417 173.468C44.4427 174.099 47.8869 173.888 48.0069 174.267C49.9583 180.38 53.4673 181.645 56.0619 181.818C58.196 181.947 60.3162 181.397 62.1176 180.245C63.9191 179.094 65.309 177.401 66.0874 175.409C67.5659 175.251 83.2847 175.938 91.6877 176.434C92.2062 184.509 105.086 187.276 109.466 177.111C109.548 176.913 109.697 176.749 109.886 176.648C110.076 176.548 110.295 176.516 110.505 176.559C112.311 176.93 114.18 176.869 115.958 176.382C118.358 175.57 138.774 161.74 143.244 155.457C143.949 151.485 142.005 110.874 141.854 108.37ZM132.652 138.488C132.596 138.525 132.532 138.546 132.465 138.549C132.398 138.552 132.332 138.537 132.274 138.506C132.215 138.474 132.166 138.427 132.132 138.37C132.098 138.312 132.08 138.247 132.08 138.18C132.128 131.429 132.275 116.113 132.272 115.237C132.272 113.905 132.421 113.66 133.048 113.182C137.814 109.517 137.69 108.922 137.69 109.973C137.69 134.364 137.963 134.162 137.581 134.578C136.063 136.031 134.412 137.339 132.652 138.488ZM93.8671 69.5449C112.164 67.2191 125.033 89.2647 116.642 105.946C109.807 119.533 92.1414 120.421 82.2142 108.586C70.2758 94.3675 76.2546 71.7842 93.8671 69.5449ZM77.9395 78.8072C76.4977 81.9759 75.5327 85.3406 75.0761 88.7919C73.7584 102.19 82.9391 114.498 92.6742 117.193C97.7146 118.59 92.6382 117.947 92.067 117.815C88.3343 116.923 84.8676 115.155 81.9536 112.657C79.0396 110.16 76.7619 107.004 75.3089 103.452C71.1254 93.8899 74.1856 81.661 77.9395 78.8072ZM42.6089 124.291C43.5978 123.455 67.0619 103.325 68.8212 103.359C73.7512 103.45 73.9384 103.056 74.284 103.978C75.8567 107.895 78.3953 111.351 81.6633 114.023C84.9313 116.695 88.8224 118.497 92.9742 119.26C97.0855 119.731 101.25 119.204 105.114 117.724C108.979 116.243 112.429 113.853 115.173 110.756C119.026 106.138 118.481 103.771 119.674 103.817C134.209 104.359 138.803 104.211 139.766 104.645C130.424 111.247 121.567 118.509 113.263 126.376C112.063 127.509 110.752 126.748 106.326 126.535C98.2138 126.143 54.6938 124.134 42.7673 125.282C41.524 125.402 41.272 125.423 42.6089 124.291ZM119.542 146.665C119.014 146.979 119.16 146.171 119.177 140.749C119.227 124.041 119.098 131.695 119.417 124.519C119.463 123.532 120.161 123.093 123.209 120.697C125.401 118.974 125.588 118.667 125.588 119.766C125.588 119.994 125.129 138.905 125.108 140.725C125.043 143.554 124.378 143.756 119.542 146.665ZM99.5147 128.275C92.391 150.025 93.2598 150.006 92.1798 149.912C84.1752 149.221 85.5193 150.978 87.1586 145.446C92.3454 127.941 91.7813 127.538 92.5158 127.555C100.376 127.718 99.7259 127.629 99.5147 128.275ZM49.7134 147.971C49.7134 147.911 49.5022 148.705 54.4874 132.098C56.1675 126.53 55.9683 126.64 56.7364 126.676C62.312 126.945 62.4728 126.278 62.0455 127.461C59.5597 134.013 57.4757 140.709 55.8051 147.515C55.4571 148.715 55.2842 148.367 54.0386 148.369C54.0386 148.369 50.8631 148.347 50.2919 148.335C49.6486 148.316 49.6726 148.242 49.7134 147.971ZM113.577 175.469C97.9234 174.068 46.5812 173.192 42.7337 171.948C42.2393 167.134 41.6776 152.569 41.8169 149.572C42.6785 149.694 69.3493 150.424 69.4189 150.424C75.7145 150.517 74.6561 150.848 74.6657 149.272C74.5299 142.795 74.8017 136.316 75.4793 129.873C75.9834 126.767 77.0802 127.567 77.0826 128.856C77.1355 151.914 75.3329 150.968 78.3595 150.908C83.1599 150.812 110.748 152.109 111.098 152.109C111.986 152.109 112.324 151.974 112.356 152.601C113.316 172.959 114.83 175.58 113.577 175.469ZM141.765 154.828C133.792 162.232 125.138 168.865 115.918 174.641C114.977 174.975 115.425 172.668 114.578 161.412C114.578 155.222 112.862 136.015 113.205 131.112C113.342 129.168 114.18 130.584 114.221 130.963C114.345 132.079 114.149 134.647 114.866 142.244C115.8 152.157 115.346 151.511 116.194 151.158C125.067 146.164 133.468 140.373 141.292 133.858C141.441 141.488 141.923 148.828 141.765 154.821V154.828Z" fill="#0B0B14" class="fg"/>
<path d="M232.602 109.849C232.362 105.413 231.966 104.916 230.629 104.787C220.068 103.769 213.24 103.985 211.644 103.803C208.262 103.414 215.784 96.9862 207.465 81.9467C195.817 60.8899 164.166 68.4793 162.911 92.7115C162.816 95.1021 162.957 97.4961 163.331 99.8592C164.051 103.157 164.651 103.301 163.045 103.349C161.127 103.035 159.16 103.442 157.525 104.492C148.401 110.961 139.695 118.001 131.459 125.567C130.871 126.352 130.861 125.306 130.839 136.678C130.803 154.077 131.485 170.549 132.243 173.689C132.435 174.488 132.558 174.718 133.292 174.961C134.969 175.328 136.675 175.539 138.39 175.592C138.462 175.584 138.534 175.596 138.599 175.626C138.665 175.657 138.72 175.705 138.76 175.765C140.711 181.873 144.22 183.138 146.813 183.311C148.947 183.442 151.068 182.892 152.87 181.741C154.672 180.589 156.061 178.895 156.838 176.902C158.317 176.746 174.035 177.431 182.441 177.927C182.964 186.088 195.899 188.702 200.219 178.609C200.301 178.41 200.449 178.246 200.639 178.144C200.828 178.042 201.047 178.01 201.258 178.052C203.066 178.424 204.936 178.363 206.716 177.875C209.116 177.066 229.518 163.233 233.997 156.95C234.681 152.963 232.741 112.343 232.602 109.849Z" fill="#FDF8F2" class="bg"/>
<path d="M192.101 114.901C213.732 111.214 210.066 74.3909 187.26 73.7308C183.601 73.7683 180.061 75.0365 177.21 77.3311C162.024 90.0424 174.1 117.968 192.101 114.901ZM187.178 74.9957C202.127 75.447 210.976 95.2508 201.659 107.686C192.716 119.625 173.382 112.988 171.436 95.0036C170.19 83.49 178.881 74.7461 187.178 74.9957Z" fill="#0B0B14" class="fg"/>
<path d="M232.602 109.849C232.362 105.413 231.966 104.916 230.629 104.787C220.068 103.769 213.24 103.985 211.644 103.803C208.262 103.414 215.784 96.9862 207.465 81.9467C195.817 60.8899 164.166 68.4793 162.911 92.7115C162.816 95.1021 162.957 97.4961 163.331 99.8592C164.051 103.157 164.651 103.301 163.045 103.349C161.127 103.035 159.16 103.442 157.525 104.492C148.401 110.961 139.695 118.001 131.459 125.567C130.871 126.352 130.861 125.306 130.839 136.678C130.803 154.077 131.485 170.549 132.243 173.689C132.435 174.488 132.558 174.718 133.292 174.961C134.969 175.328 136.675 175.539 138.39 175.592C138.462 175.584 138.534 175.596 138.599 175.626C138.665 175.657 138.72 175.705 138.76 175.765C140.711 181.873 144.22 183.138 146.813 183.311C148.947 183.442 151.068 182.892 152.87 181.741C154.672 180.589 156.061 178.895 156.838 176.902C158.317 176.746 174.035 177.431 182.441 177.927C182.964 186.088 195.899 188.702 200.219 178.609C200.301 178.41 200.449 178.246 200.639 178.144C200.828 178.042 201.047 178.01 201.258 178.052C203.066 178.424 204.936 178.363 206.716 177.875C209.116 177.066 229.518 163.233 233.997 156.95C234.681 152.963 232.741 112.343 232.602 109.849ZM223.381 139.966C223.323 139.999 223.257 140.016 223.191 140.016C223.124 140.016 223.059 139.999 223.001 139.966C222.943 139.933 222.895 139.886 222.861 139.829C222.827 139.771 222.808 139.706 222.807 139.64C222.807 132.893 223.001 117.573 222.999 116.696C222.999 115.369 223.15 115.12 223.774 114.639C228.541 110.977 228.416 110.382 228.416 111.433C228.416 136.606 228.656 135.675 228.308 136.037C226.833 137.543 225.178 138.863 223.381 139.966ZM184.613 71.0307C202.909 68.7049 215.779 90.7505 207.391 107.432C200.552 121.024 182.89 121.912 172.96 110.072C161.017 95.8437 167.003 73.2629 184.613 71.0307ZM168.669 80.293C167.23 83.4638 166.269 86.8302 165.817 90.2825C164.497 103.678 173.678 115.991 183.413 118.681C188.453 120.076 183.377 119.433 182.806 119.303C179.069 118.417 175.599 116.651 172.684 114.152C169.769 111.652 167.494 108.493 166.048 104.936C161.864 95.3733 164.931 83.1444 168.669 80.2858V80.293ZM133.357 125.769C134.344 124.934 157.791 104.804 159.55 104.837C164.478 104.931 164.665 104.542 165.011 105.464C166.586 109.379 169.125 112.833 172.393 115.504C175.661 118.176 179.55 119.978 183.701 120.743C187.814 121.218 191.981 120.692 195.848 119.212C199.715 117.731 203.167 115.339 205.912 112.239C209.752 107.621 209.22 105.257 210.412 105.3C224.948 105.814 229.542 105.694 230.502 106.128C221.171 112.742 212.316 120.004 204.004 127.86C202.804 128.993 201.491 128.232 197.07 128.018C188.95 127.627 145.43 125.618 133.484 126.765C132.272 126.883 132.018 126.902 133.357 125.769ZM210.292 148.144C209.76 148.463 209.908 147.649 209.923 142.227C209.973 125.519 209.846 133.174 210.163 125.997C210.206 125.011 210.907 124.571 213.953 122.176C216.146 120.453 216.334 120.146 216.334 121.245C216.334 121.473 215.875 140.384 215.854 142.203C215.791 145.033 215.122 145.237 210.292 148.144ZM190.263 129.753C183.139 151.509 184.006 151.487 182.928 151.396C174.921 150.721 176.265 152.457 177.904 146.924C183.091 129.425 182.527 129.024 183.262 129.038C191.125 129.201 190.474 129.115 190.263 129.753ZM140.459 149.449C140.459 149.389 140.243 150.169 145.236 133.577C146.916 128.008 146.714 128.131 147.482 128.181C153.053 128.537 153.221 127.776 152.791 128.959C144.463 151.876 147.804 149.932 144.777 149.932V149.809C140.375 149.79 140.375 149.96 140.459 149.449ZM204.323 176.948C188.542 175.549 137.32 174.673 133.48 173.434C132.988 168.612 132.426 154.048 132.563 151.05C133.427 151.175 160.098 151.902 160.165 151.905C166.463 151.998 165.851 152.644 165.858 151.065C165.985 127.783 167.824 127.9 167.831 130.334C167.881 153.393 166.081 152.445 169.108 152.387C173.908 152.293 201.496 153.587 201.844 153.587C202.732 153.587 203.075 153.453 203.106 154.079C204.146 174.435 205.6 177.061 204.323 176.948ZM232.513 156.307C224.541 163.713 215.887 170.349 206.666 176.127C205.725 176.461 206.186 174.154 205.324 162.897C205.324 155.937 203.152 132.487 204.186 131.479C204.986 132.382 204.383 131.974 205.511 143.912C206.45 153.822 206.097 152.999 206.951 152.644C215.824 147.649 224.225 141.858 232.05 135.343C232.187 142.966 232.672 150.306 232.513 156.299V156.307Z" fill="#0B0B14" class="fg"/>
<path d="M323.749 111.834C323.49 107.398 323.113 106.899 321.776 106.772C311.215 105.752 304.387 105.968 302.791 105.785C299.402 105.396 306.936 98.9662 298.61 83.9291C286.94 62.8556 255.303 70.4473 254.043 94.6795C253.947 97.07 254.087 99.4642 254.461 101.827C255.166 105.125 255.779 105.269 254.17 105.317C252.256 105.01 250.296 105.419 248.664 106.464C239.541 112.931 230.834 119.967 222.596 127.531C222.02 128.299 221.998 127.382 221.974 138.634C221.938 156.038 222.62 172.505 223.381 175.647C223.573 176.444 223.695 176.677 224.43 176.917C226.104 177.284 227.808 177.495 229.521 177.548C229.708 177.548 229.866 177.627 229.895 177.721C231.846 183.829 235.355 185.099 237.95 185.272C240.084 185.403 242.205 184.853 244.006 183.702C245.808 182.55 247.198 180.857 247.976 178.866C249.454 178.707 265.173 179.391 273.576 179.895C274.097 187.984 287.017 190.715 291.356 180.57C291.438 180.371 291.587 180.208 291.777 180.107C291.966 180.006 292.185 179.975 292.396 180.018C294.202 180.385 296.069 180.322 297.846 179.835C300.247 179.029 320.663 165.194 325.134 158.913C325.837 154.934 323.888 114.315 323.749 111.834Z" fill="#FDF8F2" class="bg"/>
<path d="M283.241 116.874C304.871 113.187 301.208 76.3519 278.402 75.6967C274.739 75.7391 271.197 77.0113 268.345 79.3089C253.162 92.0083 265.242 119.946 283.241 116.874ZM278.323 76.9639C293.271 77.4176 302.108 97.219 292.803 109.662C283.853 121.631 264.541 114.976 262.589 96.9958C261.344 85.4606 270.02 76.7167 278.323 76.9688V76.9639Z" fill="#0B0B14" class="fg"/>
<path d="M323.749 111.834C323.49 107.398 323.113 106.899 321.776 106.772C311.215 105.752 304.387 105.968 302.791 105.785C299.402 105.396 306.936 98.9662 298.61 83.9291C286.94 62.8556 255.303 70.4473 254.043 94.6795C253.947 97.07 254.087 99.4642 254.461 101.827C255.166 105.125 255.779 105.269 254.17 105.317C252.256 105.01 250.296 105.419 248.664 106.464C239.541 112.931 230.834 119.967 222.596 127.531C222.02 128.299 221.998 127.382 221.974 138.634C221.938 156.038 222.62 172.505 223.381 175.647C223.573 176.444 223.695 176.677 224.43 176.917C226.104 177.284 227.808 177.495 229.521 177.548C229.708 177.548 229.866 177.627 229.895 177.721C231.846 183.829 235.355 185.099 237.95 185.272C240.084 185.403 242.205 184.853 244.006 183.702C245.808 182.55 247.198 180.857 247.976 178.866C249.454 178.707 265.173 179.391 273.576 179.895C274.097 187.984 287.017 190.715 291.356 180.57C291.438 180.371 291.587 180.208 291.777 180.107C291.966 180.006 292.185 179.975 292.396 180.018C294.202 180.385 296.069 180.322 297.846 179.835C300.247 179.029 320.663 165.194 325.134 158.913C325.837 154.934 323.888 114.315 323.749 111.834ZM314.532 141.937C314.475 141.969 314.41 141.987 314.343 141.987C314.277 141.987 314.212 141.97 314.154 141.937C314.096 141.904 314.048 141.857 314.014 141.801C313.979 141.744 313.961 141.679 313.959 141.613C313.959 134.863 314.153 119.545 314.151 118.672C314.151 117.342 314.3 117.095 314.926 116.612C319.678 112.942 319.566 112.354 319.563 113.408C319.508 137.119 319.892 137.539 319.46 137.983C317.983 139.495 316.328 140.822 314.532 141.937ZM275.746 73.0011C294.037 70.673 306.912 92.7186 298.523 109.395C291.685 122.987 274.022 123.875 264.093 112.035C252.166 97.8165 258.145 75.2405 275.746 73.0011ZM259.811 82.2562C258.368 85.4287 257.403 88.7976 256.947 92.2529C255.627 105.651 264.832 117.964 274.543 120.654C279.583 122.049 274.505 121.408 273.931 121.276C270.199 120.382 266.732 118.614 263.818 116.116C260.905 113.618 258.627 110.463 257.173 106.911C252.994 97.3509 256.064 85.1148 259.82 82.2562H259.811ZM224.499 127.742C225.486 126.907 248.94 106.776 250.702 106.808C255.63 106.896 255.817 106.512 256.163 107.434C257.735 111.351 260.273 114.806 263.54 117.477C266.807 120.149 270.697 121.95 274.848 122.714C278.962 123.187 283.13 122.66 286.997 121.18C290.864 119.699 294.318 117.307 297.064 114.207C300.904 109.592 300.371 107.228 301.564 107.271C316.1 107.813 320.694 107.662 321.654 108.094C312.322 114.712 303.466 121.977 295.151 129.835C293.951 130.97 292.638 130.209 288.215 129.993C280.102 129.597 236.58 127.579 224.631 128.743C223.422 128.851 223.16 128.875 224.499 127.742ZM301.427 150.114C300.899 150.433 301.058 149.634 301.072 144.2C301.123 127.49 300.995 135.144 301.312 127.968C301.355 126.983 302.056 126.542 305.102 124.144C307.296 122.418 307.483 122.114 307.483 123.218C307.483 123.443 307.027 142.352 307.003 144.169C306.948 147.003 306.254 147.2 301.427 150.114ZM281.4 131.724C274.353 153.505 275.16 153.46 274.077 153.366C266.073 152.677 267.412 154.432 269.049 148.897C274.226 131.393 273.672 130.994 274.406 131.009C282.262 131.172 281.612 131.078 281.403 131.724H281.4ZM231.63 151.436C231.63 151.379 231.402 152.157 236.388 135.543C238.068 129.972 237.866 130.097 238.629 130.145C244.2 130.502 244.368 129.741 243.938 130.922C235.612 153.839 238.956 151.895 235.929 151.895V151.773C231.522 151.773 231.527 151.936 231.609 151.422L231.63 151.436ZM295.475 178.916C279.406 177.476 228.486 176.648 224.627 175.402C224.147 170.587 223.578 156.016 223.71 153.021C224.571 153.143 251.247 153.873 251.312 153.873C257.607 153.969 256.995 154.612 257.005 153.035C256.78 146.254 257.217 139.467 258.311 132.77C258.868 130.512 259.396 131.153 259.398 132.329C259.448 155.387 257.238 154.41 260.252 154.355C265.053 154.257 292.64 155.555 292.991 155.555C293.879 155.555 294.22 155.418 294.249 156.05C295.199 176.41 296.718 179.039 295.465 178.919L295.475 178.916ZM323.665 158.275C315.692 165.68 307.036 172.314 297.813 178.088C296.874 178.424 297.318 176.118 296.471 164.858C296.471 157.898 294.311 134.448 295.338 133.442C296.135 134.345 295.537 133.922 296.663 145.873C297.599 155.786 297.249 154.96 298.103 154.607C306.976 149.612 315.376 143.821 323.202 137.307C323.329 144.939 323.812 152.279 323.655 158.277L323.665 158.275Z" fill="#0B0B14" class="fg"/>
<path d="M406.99 133.056C401.229 130.5 392.207 126.23 389.147 124.607C388.698 124.367 388.751 124.154 388.768 124.06C389.896 118.61 389.584 112.96 387.863 107.666C386.142 102.373 383.071 97.6202 378.953 93.8755C369.71 86.5286 359.821 85.9309 350.962 90.8729C347.44 92.8383 344.246 95.3433 341.498 98.2966C339.18 101.352 337.511 104.848 336.592 108.571C335.673 112.294 335.525 116.166 336.156 119.949C327.719 123.798 319.545 128.201 311.688 133.128C310.632 133.776 310.337 133.932 310.323 134.671C309.958 153.544 310.291 179.031 310.474 179.929C310.516 180.291 310.646 180.638 310.852 180.938C311.058 181.239 311.334 181.485 311.657 181.655C313.071 182.406 313.181 182.483 313.964 182.855C314.22 183.191 313.616 190.192 317.105 193.053C320.171 195.566 324.688 194.546 328.329 190.173C328.446 190.029 344.208 198.365 347.59 200.074C346.524 205.181 348.07 209.434 351.094 210.843C353.735 212.072 358.41 211.391 362.042 207.109C364.072 207.915 364.041 207.985 366.033 206.787C379.414 198.754 391.624 193.125 405.854 181.758C406.152 181.518 406.094 181.638 406.135 181.278C407.742 165.775 408.24 150.178 407.626 134.604C407.602 134.208 407.635 133.342 406.99 133.056Z" fill="#FDF8F2" class="bg"/>
<path d="M406.99 133.056C401.229 130.5 392.207 126.23 389.147 124.607C388.698 124.367 388.751 124.154 388.768 124.06C389.896 118.61 389.584 112.96 387.863 107.666C386.142 102.373 383.071 97.6202 378.953 93.8755C369.71 86.5286 359.821 85.9309 350.962 90.8729C347.44 92.8383 344.246 95.3433 341.498 98.2966C339.18 101.352 337.511 104.848 336.592 108.571C335.673 112.294 335.525 116.166 336.156 119.949C327.719 123.798 319.545 128.201 311.688 133.128C310.632 133.776 310.337 133.932 310.323 134.671C309.958 153.544 310.291 179.031 310.474 179.929C310.516 180.291 310.646 180.638 310.852 180.938C311.058 181.239 311.334 181.485 311.657 181.655C313.071 182.406 313.181 182.483 313.964 182.855C314.22 183.191 313.616 190.192 317.105 193.053C320.171 195.566 324.688 194.546 328.329 190.173C328.446 190.029 344.208 198.365 347.59 200.074C346.524 205.181 348.07 209.434 351.094 210.843C353.735 212.072 358.41 211.391 362.042 207.109C364.072 207.915 364.041 207.985 366.033 206.787C379.414 198.754 391.624 193.125 405.854 181.758C406.152 181.518 406.094 181.638 406.135 181.278C407.742 165.775 408.24 150.178 407.626 134.604C407.602 134.208 407.635 133.342 406.99 133.056ZM370.027 90.3713C374.918 92.0194 379.162 95.1724 382.153 99.3791C395.411 120.081 384.313 139.954 367.365 141.622C355.792 142.758 345.452 133.783 341.664 123.592C334.176 103.433 351.608 83.9124 370.022 90.3713H370.027ZM343.961 97.3534C343.986 97.3408 344.014 97.3369 344.041 97.3424C344.068 97.3479 344.093 97.3624 344.11 97.3836C344.128 97.4047 344.138 97.4313 344.139 97.4589C344.14 97.4866 344.131 97.5137 344.115 97.5358C340.181 102.835 338.375 109.416 339.053 115.981C339.4 120.511 340.738 124.91 342.971 128.867C345.204 132.824 348.279 136.242 351.978 138.881C354.644 140.771 357.647 142.135 360.825 142.899C355.94 143.396 349.839 139.88 346.08 136.579C336 127.723 334.752 110.473 341.04 100.692C341.728 99.36 342.729 98.2145 343.956 97.3534H343.961ZM362.949 183.256C362.709 207.685 363.278 206.127 362.303 205.64C347.516 198.245 341.755 194.537 316.265 182.358C312.058 180.344 311.628 180.707 311.643 179.696C311.705 175.64 311.58 178.556 311.899 161.04C311.943 158.654 310.647 159.223 321.003 163.769C335.376 170.081 335.203 170.41 335.016 169.078C334.48 165.238 334.843 150.049 335.863 147.843C336.547 146.367 336.357 159.29 336.297 159.29C336.297 170.744 335.928 170.386 337.214 170.962C341.155 172.724 351.337 177.493 353.79 178.561C363.652 182.857 362.956 181.861 362.944 183.256H362.949ZM322.655 141.226C322.984 140.487 322.544 140.725 328.526 143.185C328.91 143.343 328.929 143.302 327.777 145.455C319.088 161.678 320.511 160.737 319.638 161.352C318.121 160.682 316.81 160.152 314.965 159.381C313.452 158.745 314.669 159.211 322.655 141.226ZM346.916 163.881C351.411 152.601 350.626 153.191 351.534 153.599C358.014 156.518 356.915 156.014 357.448 156.398C349.625 175.508 350.727 175.746 349.789 175.256C348.85 174.766 344.477 172.654 343.839 172.376C343.051 172.059 343.603 172.193 346.916 163.881ZM312.284 134.751C320.064 129.76 328.128 125.227 336.437 121.175C337.427 127.537 340.571 133.366 345.344 137.688C352.64 144.55 359.689 145.532 369.288 143.643C373.583 142.69 377.562 140.648 380.84 137.713C384.119 134.778 386.588 131.049 388.009 126.885C388.408 125.81 388.58 126.127 391.338 127.317C397.61 130.032 402.451 132.247 406.09 133.942C393.652 140.691 364.862 158.397 364.768 158.479C357.803 153.89 312.339 134.775 312.284 134.751ZM404.75 180.771C385.926 193.6 364.991 205.296 364.295 205.575C364.295 205.525 364.562 160.32 365.399 159.84C369.84 157.291 398.181 140.458 406.406 134.998C406.627 141.56 405.706 171.029 404.75 180.771Z" fill="#0B0B14" class="fg"/>
<path d="M370.771 137.516C380.749 134.395 387.88 120.383 382.182 106.642C373.133 84.8197 345.233 89.332 344.228 112.472C343.52 128.796 357.407 141.689 370.771 137.516ZM353.574 96.4126C369.096 86.1398 388.417 105.106 381.961 124.389C380.992 127.696 379.094 130.656 376.492 132.915C373.889 135.174 370.692 136.638 367.281 137.132C357.018 137.813 349.453 130.509 346.52 121.708C343.462 112.537 345.745 101.604 353.574 96.4222V96.4126Z" fill="#0B0B14" class="fg"/>
<path d="M457.544 210.577C456.932 205.056 454.964 201.01 450.049 190.516C438.132 165.074 441.35 175.652 441.708 164.753C441.986 156.294 438.05 145.11 431.255 139.4C427.403 135.971 422.707 133.628 417.651 132.612C411.919 131.974 406.121 132.87 400.85 135.209C397.11 136.854 393.624 139.025 390.498 141.656C385.616 146.171 381.802 154.47 382.097 166.104C382.128 167.41 382.294 166.663 376.433 168.869C375.295 169.296 374.217 169.896 373.072 170.347C372.592 170.542 372.53 170.828 372.496 171.284C371.776 180.193 369.537 218.433 371.001 226.581C371.101 227.275 371.267 227.957 371.496 228.619C368.279 234.06 369.477 241.604 375.079 241.82C376.699 247.64 378.679 254.385 380.727 260.649C379.819 262.433 379.366 264.413 379.408 266.413C379.45 268.414 379.985 270.373 380.967 272.117C382.052 273.707 383.673 274.853 385.534 275.346C387.395 275.838 389.37 275.645 391.1 274.801C402.355 278.663 424.247 275.905 436.058 273.973C437.408 275.066 439.127 275.596 440.858 275.451C442.027 275.417 443.165 275.074 444.157 274.456C445.149 273.839 445.96 272.968 446.506 271.935C448.186 271.551 449.866 271.138 451.563 270.68C453.901 270.048 453.85 269.343 454.52 265.006C455 261.873 459.02 223.883 457.544 210.577Z" fill="#FDF8F2" class="bg"/>
<path d="M404.993 186.894C419.95 194.541 436.178 181.163 435.832 163.289C436.656 148.504 422.442 133.032 406.79 138.699C387.644 145.64 386.192 177.284 404.993 186.894ZM414.2 139.083C425.821 139.452 433.735 151.11 434.316 160.845C435.232 176.206 426.635 185.13 417.433 187.086C405.062 189.715 392.408 177.766 392.903 162.585C392.533 150.764 401.868 138.692 414.2 139.083Z" fill="#0B0B14" class="fg"/>
<path d="M457.544 210.577C456.932 205.056 454.964 201.01 450.049 190.516C438.132 165.074 441.35 175.652 441.708 164.753C441.986 156.294 438.05 145.11 431.255 139.4C427.403 135.971 422.707 133.628 417.651 132.612C411.919 131.974 406.121 132.87 400.85 135.209C397.11 136.854 393.624 139.025 390.498 141.656C385.616 146.171 381.802 154.47 382.097 166.104C382.128 167.41 382.294 166.663 376.433 168.869C375.295 169.296 374.217 169.896 373.072 170.347C372.592 170.542 372.53 170.828 372.496 171.284C371.776 180.193 369.537 218.433 371.001 226.581C371.101 227.275 371.267 227.957 371.496 228.619C368.279 234.06 369.477 241.604 375.079 241.82C376.699 247.64 378.679 254.385 380.727 260.649C379.819 262.433 379.366 264.413 379.408 266.413C379.45 268.414 379.985 270.373 380.967 272.117C382.052 273.707 383.673 274.853 385.534 275.346C387.395 275.838 389.37 275.645 391.1 274.801C402.355 278.663 424.247 275.905 436.058 273.973C437.408 275.066 439.127 275.596 440.858 275.451C442.027 275.417 443.165 275.074 444.157 274.456C445.149 273.839 445.96 272.968 446.506 271.935C448.186 271.551 449.866 271.138 451.563 270.68C453.901 270.048 453.85 269.343 454.52 265.006C455 261.873 459.02 223.883 457.544 210.577ZM436.528 148.796C439.252 153.934 440.547 159.708 440.279 165.517C440.011 171.325 438.189 176.956 435.004 181.82C419.792 203.996 389.329 190.828 387.294 165.979C384.675 134.042 421.993 121.446 436.528 148.796ZM394.381 140.269C390.093 145.048 387.279 150.967 386.278 157.31C385.554 161.876 385.744 166.54 386.839 171.031C387.934 175.523 389.911 179.752 392.655 183.472C398.075 190.619 401.719 191.215 404.176 192.919C401.555 193.231 390.169 187.653 385.546 175.669C379.107 158.944 388.465 143.05 394.381 140.257V140.269ZM451.33 268.731C448.419 269.244 445.951 269.88 444.317 270.255C424.787 274.714 389.293 278.219 385.256 267.761C380.435 254.124 376.322 240.247 372.933 226.185C372.494 220.475 372.373 214.745 372.571 209.022C375.413 217.938 383.026 239.715 386.41 246.483C387.826 249.311 390.092 249.044 391.931 249.052C404.745 249.092 447.164 245.336 451.832 244.477C453.548 244.16 454.299 244.103 454.232 245.005C452.502 266.326 453.495 268.339 451.33 268.719V268.731ZM454.798 207.296C441.297 209.019 410.604 211.731 390.327 212.514C386.029 200.686 375.859 175.484 375.206 173.182C374.885 172.059 374.345 171.37 375.127 171.137C382.685 168.874 382.289 168.814 382.368 169.539C383.294 176.709 386.796 183.298 392.221 188.078C397.647 192.857 404.624 195.501 411.855 195.516C417.984 195.575 423.976 193.701 428.98 190.162C433.984 186.623 437.746 181.597 439.733 175.798C439.874 175.385 439.91 174.913 440.347 174.656C441.206 176.19 455.759 207.255 454.798 207.296Z" fill="#0B0B14" class="fg"/>
<path d="M388.343 317.67C392.018 316.185 391.617 316.403 392.334 317.466C392.333 317.476 392.329 317.486 392.324 317.494C392.318 317.502 392.31 317.508 392.301 317.512C392.685 317.946 393.073 318.378 393.465 318.808C394.271 318.568 394.451 319.905 397.9 320.488C399.899 320.813 401.944 320.681 403.885 320.104C405.825 319.526 407.609 318.517 409.104 317.152C413.346 313.583 413.348 310.134 414.807 309.049C414.841 308.124 414.93 307.203 415.074 306.289C415.155 305.045 414.526 305.749 424.931 300.843C431.568 297.722 430.639 297.775 431.443 298.608C432.256 299.657 433.343 300.46 434.584 300.93C435.825 301.4 437.172 301.517 438.475 301.27C440.318 301.039 442.099 300.454 443.72 299.547C446.021 298.366 448.001 296.642 449.488 294.525C450.974 292.408 451.923 289.96 452.252 287.395C452.305 287.037 454.372 285.837 454.751 285.645C456.165 284.925 456.383 282.906 456.762 281.54C458.798 274.215 465.883 249.054 468 229.238C465.633 226.375 442.813 212.627 439.575 210.692C439.532 204.338 437.229 198.206 433.079 193.394C428.928 188.582 423.201 185.404 416.922 184.429C399.473 181.386 387.001 190.574 381.344 206.792C378.041 216.263 380.578 219.494 379.081 220.101C373.32 222.436 362.733 227.575 361.125 228.336C356.308 230.623 339.463 275.473 338.453 279.028C338.071 280.367 338.357 280.912 338.851 281.416C346.971 289.715 386.329 318.489 388.343 317.67Z" fill="#FDF8F2" class="bg"/>
<path d="M388.343 317.67C392.018 316.185 391.617 316.403 392.334 317.466C392.333 317.476 392.329 317.486 392.324 317.494C392.318 317.502 392.31 317.508 392.301 317.512C392.685 317.946 393.073 318.378 393.465 318.808C394.271 318.568 394.451 319.905 397.9 320.488C399.899 320.813 401.944 320.681 403.885 320.104C405.825 319.526 407.609 318.517 409.104 317.152C413.346 313.583 413.348 310.134 414.807 309.049C414.841 308.124 414.93 307.203 415.074 306.289C415.155 305.045 414.526 305.749 424.931 300.843C431.568 297.722 430.639 297.775 431.443 298.608C432.256 299.657 433.343 300.46 434.584 300.93C435.825 301.4 437.172 301.517 438.475 301.27C440.318 301.039 442.099 300.454 443.72 299.547C446.021 298.366 448.001 296.642 449.488 294.525C450.974 292.408 451.923 289.96 452.252 287.395C452.305 287.037 454.372 285.837 454.751 285.645C456.165 284.925 456.383 282.906 456.762 281.54C458.798 274.215 465.883 249.054 468 229.238C465.633 226.375 442.813 212.627 439.575 210.692C439.532 204.338 437.229 198.206 433.079 193.394C428.928 188.582 423.201 185.404 416.922 184.429C399.473 181.386 387.001 190.574 381.344 206.792C378.041 216.263 380.578 219.494 379.081 220.101C373.32 222.436 362.733 227.575 361.125 228.336C356.308 230.623 339.463 275.473 338.453 279.028C338.071 280.367 338.357 280.912 338.851 281.416C346.971 289.715 386.329 318.489 388.343 317.67ZM428.157 190.852C437.129 197.738 441.3 211.525 436.186 225.355C430.113 241.777 414.217 245.996 413.346 245.252C414.049 245.06 416.742 243.716 417.397 243.385C429.679 237.202 438.427 218.903 433.692 202.865C432.105 197.382 428.953 192.48 424.622 188.762C425.9 189.275 427.092 189.98 428.157 190.852ZM381.375 213.378C382.454 206.274 385.545 199.627 390.282 194.224C392.776 191.53 395.786 189.364 399.133 187.855C402.48 186.346 406.096 185.524 409.767 185.44C437.659 185.315 442.889 229.557 415.002 242.538C409.814 245.069 403.858 245.531 398.342 243.83C392.826 242.129 388.165 238.392 385.304 233.379C381.705 227.373 380.313 220.3 381.368 213.378H381.375ZM362.006 229.524C362.399 229.284 373.567 224.294 373.608 224.275C380.266 221.128 379.666 221.546 379.734 222.067C380.321 227.586 382.417 232.837 385.792 237.243C392.447 245.624 400.248 246.102 404.739 247.1C418.609 250.189 434.854 239.432 438.907 220.953C440.46 213.87 438.955 212.111 440.729 213.205C469.07 230.712 466.617 229.046 465.789 229.358C415.167 247.873 405.785 258.124 403.836 256.821C366.36 231.602 360.758 230.297 361.999 229.524H362.006ZM458.464 235.82C457.71 238.333 451.861 256.046 448.261 265.231C447.682 266.707 447.402 266.573 441.939 269.11C438.694 270.615 439.059 271.575 448.484 247.268C448.484 247.225 451.933 238.388 452.204 238.061C454.057 236.904 456.009 235.915 458.037 235.104C458.483 234.917 458.457 235.085 458.457 235.82H458.464ZM422.759 251.058C421.305 257.073 413.672 278.291 412.635 281.204C411.473 284.466 409.954 284.656 403.675 287.445C404.786 283.554 406.144 279.738 407.741 276.02C415.969 253.458 414.351 255.04 417.289 253.598C423.208 250.693 422.279 251.118 422.752 251.058H422.759ZM376.5 279.332C377.799 278.118 393.938 264.233 397.315 261.811C397.363 261.777 397.421 261.758 397.48 261.759C397.539 261.759 397.597 261.779 397.644 261.814C397.692 261.849 397.727 261.898 397.745 261.955C397.763 262.011 397.763 262.072 397.744 262.128C397.478 262.925 392.927 275.293 392.322 275.878C385.47 282.539 385.283 282.961 383.54 284.865C383.12 285.323 383.459 285.302 378.368 281.596C376.368 280.134 375.716 280.062 376.493 279.332H376.5ZM370.817 269.045C366.24 272.871 366.583 272.799 366.072 272.432C358.586 267.065 358.744 267.499 359.265 267.151C361.999 265.349 367.737 260.388 371.671 257.431C376.695 253.65 382.796 249.467 384.872 247.948C385.436 247.537 385.338 247.403 389.802 250.108C390.602 250.587 391.345 251.157 392.015 251.805C391.991 251.848 375.504 265.123 370.81 269.045H370.817ZM349.633 257.107C353.344 247.66 353.082 246.786 361.329 241.026C366.914 237.116 366.453 236.014 368.229 236.9C370.11 237.846 371.856 239.04 373.421 240.449C372.996 241.129 349.875 259.574 349.835 259.584C348.394 259.98 349.076 258.48 349.609 257.114L349.633 257.107ZM362.039 298.037C351.69 290.46 340.351 280.996 340.027 280.564C339.593 279.978 339.586 279.961 339.823 279.272C341.023 275.818 342.2 272.329 343.63 268.952C346.769 261.511 346.373 261.463 346.99 261.883C347.036 261.914 380.665 286.605 390.297 293.882C390.995 294.41 391.571 287.623 397.197 270.281C397.917 268.054 400.363 260.837 401.277 258.492C401.659 257.512 401.921 258.156 402.9 258.799C403.558 259.228 397.521 272.254 388.528 308.95C388.211 310.237 389.176 310.379 389.514 309.344C391.648 302.787 392.296 300.924 393.815 296.105C394.055 295.317 393.856 295.802 400.982 292.231C404.434 290.503 405.823 289.682 418.264 283.473C429.837 277.695 429.444 278.307 429.679 277.035C435.638 244.998 434.974 245.37 435.806 245.564C436.476 245.72 436.387 246.013 436.654 247.59C434.057 268.212 431.311 275.103 431.443 276.927C432.055 276.74 453.861 266.028 459.227 263.993C459.326 264.535 459.655 262.764 456.556 276.315C454.734 284.289 455.029 283.924 454.211 284.418C446.77 288.919 407.189 307.614 399.168 311.331C388.482 316.285 388.233 316.612 387.256 315.916C387.474 315.911 377.319 309.227 362.032 298.037H362.039Z" fill="#0B0B14" class="fg"/>
<path d="M421.761 194.594C407.245 180.464 384.798 195.465 384.844 216.7C384.815 222.076 386.356 227.344 389.279 231.857C390.861 234.339 392.987 236.429 395.496 237.968C398.005 239.507 400.831 240.455 403.761 240.74C406.69 241.025 409.646 240.639 412.405 239.612C415.163 238.586 417.652 236.945 419.682 234.814C432.341 222.527 430.879 203.468 421.761 194.594ZM415.66 235.923C394.598 249.419 374.069 218.747 394.874 196.368C397.973 193.365 401.94 191.414 406.21 190.792C420.998 188.872 432.994 206.369 425.006 224.68C423.11 229.287 419.848 233.202 415.66 235.899V235.923Z" fill="#0B0B14" class="fg"/>
<path d="M377.461 290.781C376.295 291.496 375.386 292.562 374.862 293.826C374.339 295.089 374.229 296.486 374.547 297.816C376.333 303.886 384.614 301.138 384.503 295.037C384.587 294.18 384.427 293.318 384.041 292.549C383.655 291.779 383.06 291.135 382.323 290.69C381.587 290.245 380.739 290.017 379.879 290.034C379.019 290.05 378.181 290.309 377.461 290.781ZM380.985 298.978C380.496 299.368 379.905 299.608 379.283 299.67C378.661 299.731 378.035 299.611 377.479 299.324C376.924 299.037 376.464 298.595 376.154 298.052C375.845 297.508 375.7 296.887 375.736 296.263C375.8 292.207 379.314 290.407 380.942 291.487C380.892 291.529 380.837 291.566 380.778 291.595C380.041 291.821 379.394 292.276 378.932 292.894C378.47 293.512 378.216 294.26 378.208 295.032C378.199 295.803 378.435 296.558 378.883 297.186C379.331 297.814 379.967 298.284 380.699 298.527C381.074 298.651 381.318 298.721 380.985 298.978ZM380.142 296.381C379.912 296.091 379.756 295.75 379.685 295.386C379.615 295.023 379.634 294.648 379.739 294.293C379.845 293.938 380.034 293.614 380.291 293.347C380.549 293.081 380.866 292.881 381.218 292.764C383.159 292.061 383.347 294.425 382.857 296.431C382.646 297.298 380.874 297.209 380.154 296.381H380.142Z" fill="#0B0B14" class="fg"/>
<path d="M351.591 271.313C349.191 269.35 345.06 271.268 344.751 275.809C344.654 276.621 344.817 277.443 345.215 278.157C345.612 278.872 346.226 279.443 346.967 279.788C347.708 280.134 348.539 280.237 349.342 280.083C350.146 279.929 350.88 279.525 351.44 278.929C351.974 278.454 352.405 277.873 352.704 277.224C353.004 276.574 353.166 275.869 353.18 275.154C353.194 274.439 353.06 273.729 352.787 273.068C352.514 272.407 352.106 271.81 351.591 271.313ZM346.071 277.278C345.74 276.365 345.702 275.372 345.96 274.436C346.218 273.5 346.76 272.667 347.511 272.053C348.989 270.977 350.468 271.558 350.72 272.221C350.494 272.403 349.661 272.636 349.414 272.792C348.994 273.031 348.64 273.372 348.385 273.783C348.13 274.194 347.982 274.663 347.954 275.146C347.926 275.629 348.019 276.111 348.225 276.549C348.431 276.987 348.743 277.366 349.133 277.652C349.33 277.775 349.335 277.755 350.266 278.214C349.961 278.513 349.587 278.732 349.176 278.849C348.765 278.967 348.331 278.979 347.914 278.886C347.497 278.793 347.11 278.597 346.788 278.316C346.466 278.035 346.219 277.678 346.071 277.278ZM351.726 276.109C351.598 276.572 351.212 276.745 350.458 276.589C350.295 276.575 350.135 276.53 349.989 276.454C349.843 276.379 349.713 276.276 349.607 276.15C349.501 276.025 349.421 275.879 349.371 275.723C349.321 275.566 349.302 275.401 349.316 275.238C349.436 273.776 351.476 272.674 351.75 274.006C351.885 274.701 351.879 275.417 351.73 276.109H351.726Z" fill="#0B0B14" class="fg"/>
<path d="M302.37 359.265C306.348 357.66 305.911 357.895 306.691 359.049C306.691 359.049 306.691 359.073 306.652 359.097C307.07 359.561 307.49 360.033 307.915 360.497C308.791 360.23 308.997 361.697 312.691 362.311C314.853 362.665 317.066 362.525 319.166 361.902C321.266 361.278 323.197 360.187 324.815 358.711C329.408 354.847 329.408 351.114 330.985 349.936C331.024 348.945 331.12 347.958 331.273 346.979C331.367 345.635 330.685 346.393 341.959 341.065C349.136 337.671 348.135 337.743 349.006 338.65C349.886 339.785 351.063 340.654 352.406 341.163C353.749 341.671 355.206 341.798 356.617 341.53C358.609 341.279 360.534 340.645 362.286 339.663C364.777 338.386 366.919 336.521 368.528 334.231C370.137 331.941 371.165 329.293 371.522 326.517C371.58 326.126 373.819 324.837 374.229 324.624C375.761 323.848 375.991 321.667 376.402 320.188C378.6 312.268 386.259 285.04 388.561 263.594C385.993 260.474 361.302 245.612 357.805 243.522C357.771 236.643 355.284 230.002 350.792 224.793C346.3 219.584 340.098 216.147 333.299 215.101C314.419 211.811 300.918 221.747 294.798 239.293C291.224 249.541 293.972 253.046 292.333 253.71C286.092 256.245 274.644 261.799 272.904 262.622C267.688 265.094 249.468 313.631 248.371 317.476C247.951 318.954 248.263 319.518 248.801 320.066C256.037 326.642 263.633 332.812 271.552 338.547C284.146 347.68 300.666 359.954 302.37 359.265Z" fill="#FDF8F2" class="bg"/>
<path d="M302.37 359.265C306.348 357.66 305.911 357.895 306.691 359.049C306.691 359.049 306.691 359.073 306.652 359.097C307.07 359.561 307.49 360.033 307.915 360.497C308.791 360.23 308.997 361.697 312.691 362.311C314.853 362.665 317.066 362.525 319.166 361.902C321.266 361.278 323.197 360.187 324.815 358.711C329.408 354.847 329.408 351.114 330.985 349.936C331.024 348.945 331.12 347.958 331.273 346.979C331.367 345.635 330.685 346.393 341.959 341.065C349.136 337.671 348.135 337.743 349.006 338.65C349.886 339.785 351.063 340.654 352.406 341.163C353.749 341.671 355.206 341.798 356.617 341.53C358.609 341.279 360.534 340.645 362.286 339.663C364.777 338.386 366.919 336.521 368.528 334.231C370.137 331.941 371.165 329.293 371.522 326.517C371.58 326.126 373.819 324.837 374.229 324.624C375.761 323.848 375.991 321.667 376.402 320.188C378.6 312.268 386.259 285.04 388.561 263.594C385.993 260.474 361.302 245.612 357.805 243.522C357.771 236.643 355.284 230.002 350.792 224.793C346.3 219.584 340.098 216.147 333.299 215.101C314.419 211.811 300.918 221.747 294.798 239.293C291.224 249.541 293.972 253.046 292.333 253.71C286.092 256.245 274.644 261.799 272.904 262.622C267.688 265.094 249.468 313.631 248.371 317.476C247.951 318.954 248.263 319.518 248.801 320.066C256.037 326.642 263.633 332.812 271.552 338.547C284.146 347.68 300.666 359.954 302.37 359.265ZM345.446 222.038C355.155 229.507 359.667 244.405 354.13 259.38C347.556 277.158 330.369 281.723 329.408 280.914C330.169 280.708 333.088 279.248 333.796 278.893C347.112 272.218 356.557 252.412 351.428 235.025C348.178 224.013 341.81 220.658 341.609 219.746C342.992 220.321 344.284 221.093 345.446 222.038ZM294.815 246.411C295.983 238.725 299.327 231.533 304.451 225.686C307.15 222.77 310.407 220.426 314.029 218.793C317.651 217.16 321.565 216.272 325.537 216.181C355.722 216.049 361.376 263.914 331.206 277.962C325.593 280.702 319.147 281.202 313.178 279.362C307.209 277.522 302.164 273.479 299.068 268.054C295.178 261.553 293.675 253.901 294.815 246.411ZM273.861 263.885C274.286 263.621 286.366 258.225 286.412 258.206C293.694 254.961 292.967 255.249 293.041 255.806C293.674 261.779 295.942 267.462 299.596 272.23C306.796 281.303 315.231 281.812 320.096 282.911C335.095 286.298 352.678 274.609 357.059 254.613C358.739 246.954 357.111 245.046 359.029 246.234C389.677 265.21 387.046 263.383 386.139 263.712C331.317 283.633 321.195 294.83 319.105 293.419C278.599 266.079 272.52 264.725 273.861 263.885ZM378.228 270.696C377.414 273.413 371.109 292.591 367.187 302.523C366.568 304.09 366.263 303.975 360.347 306.723C356.835 308.353 357.227 309.385 367.43 283.093C367.43 283.048 371.191 273.512 371.455 273.13C373.459 271.879 375.571 270.809 377.765 269.933C378.269 269.715 378.233 269.902 378.233 270.696H378.228ZM339.604 287.188C338.028 293.69 329.764 316.657 328.638 319.809C327.388 323.34 325.734 323.565 318.944 326.565C318.608 325.999 321.963 317.985 323.343 314.204C332.26 289.785 330.498 291.508 333.695 289.939C340.106 286.79 339.088 287.258 339.604 287.188ZM289.546 317.783C291.889 315.585 308.645 301.354 312.062 298.822C312.114 298.783 312.176 298.762 312.24 298.762C312.305 298.762 312.367 298.782 312.419 298.82C312.471 298.858 312.509 298.911 312.528 298.972C312.548 299.034 312.547 299.1 312.526 299.16C312.242 299.974 307.276 313.381 306.64 314.017C299.317 321.319 299.027 321.679 297.136 323.738C296.684 324.218 297.076 324.206 291.543 320.198C289.4 318.635 288.706 318.568 289.546 317.783ZM283.395 306.649C278.441 310.787 278.801 310.71 278.254 310.316C270.167 304.484 270.333 304.973 270.885 304.609C273.844 302.688 280.056 297.29 284.307 294.089C289.731 290.008 296.341 285.448 298.6 283.828C299.209 283.386 299.097 283.249 303.959 286.168C304.827 286.685 305.633 287.3 306.36 288.002C306.314 288.038 288.466 302.408 283.395 306.649ZM260.447 293.733C264.457 283.504 264.172 282.573 273.103 276.32C279.146 272.091 278.638 270.91 280.56 271.885C282.593 272.911 284.481 274.202 286.174 275.725C285.716 276.464 260.696 296.426 260.653 296.426C259.148 296.863 259.868 295.207 260.447 293.733ZM301.168 357.362C291.769 350.666 287.569 348.059 273.873 338.021C262.688 329.825 250.392 319.586 250.051 319.113C249.586 318.474 249.571 318.465 249.833 317.714C251.168 313.976 252.401 310.201 253.949 306.541C257.35 298.495 256.906 298.433 257.576 298.896C257.626 298.925 294.025 325.634 304.442 333.521C305.196 334.092 305.829 326.75 311.923 307.983C312.708 305.569 315.343 297.763 316.335 295.224C316.743 294.175 317.038 294.84 318.089 295.553C318.793 296.033 312.242 310.112 302.543 349.825C302.202 351.22 303.263 351.374 303.628 350.25C305.983 343.167 306.633 341.144 308.282 335.921C308.549 335.074 308.328 335.6 316.04 331.733C319.772 329.861 321.277 328.975 334.739 322.252C347.263 316.012 346.836 316.665 347.093 315.292C353.545 280.626 352.82 281.024 353.722 281.238C354.442 281.408 354.351 281.718 354.639 283.429C351.824 305.751 348.862 313.192 349.004 315.179C349.659 314.97 373.245 303.382 379.071 301.179C379.174 301.767 379.551 299.851 376.19 314.538C374.21 323.162 374.534 322.771 373.646 323.306C365.596 328.164 322.762 348.414 314.086 352.425C302.486 357.777 302.212 358.106 301.168 357.372V357.362Z" fill="#0B0B14" class="fg"/>
<path d="M338.529 226.06C322.825 210.776 298.516 227.006 298.605 249.976C298.569 255.796 300.238 261.5 303.405 266.383C311.942 278.699 326.855 278.711 336.304 269.559C349.978 256.324 348.401 235.663 338.529 226.06ZM331.931 270.776C309.129 285.39 286.935 252.198 309.425 228.002C312.778 224.751 317.07 222.638 321.692 221.963C337.687 219.873 350.657 238.815 342.031 258.636C339.985 263.62 336.46 267.857 331.931 270.776Z" fill="#0B0B14" class="fg"/>
<path d="M290.591 330.171C289.327 330.941 288.34 332.093 287.774 333.461C287.208 334.829 287.092 336.341 287.442 337.779C289.362 344.353 298.351 341.379 298.216 334.774C298.304 333.848 298.129 332.915 297.711 332.084C297.292 331.253 296.647 330.556 295.851 330.075C295.054 329.594 294.138 329.348 293.207 329.365C292.277 329.382 291.37 329.661 290.591 330.171ZM294.407 339.051C293.877 339.474 293.235 339.735 292.56 339.8C291.885 339.866 291.205 339.734 290.604 339.421C290.002 339.108 289.504 338.627 289.17 338.037C288.836 337.446 288.681 336.771 288.724 336.094C288.793 331.707 292.597 329.76 294.362 330.929C294.305 330.972 294.246 331.012 294.184 331.047C293.383 331.289 292.681 331.781 292.179 332.45C291.677 333.119 291.401 333.931 291.392 334.767C291.382 335.604 291.64 336.422 292.127 337.102C292.614 337.782 293.305 338.289 294.1 338.55C294.527 338.682 294.77 338.763 294.407 339.042V339.051ZM293.495 336.241C293.239 335.927 293.064 335.556 292.984 335.159C292.904 334.762 292.922 334.352 293.036 333.964C293.151 333.575 293.358 333.221 293.641 332.931C293.923 332.641 294.272 332.424 294.657 332.299C296.399 331.675 296.486 333.02 296.747 334.584C296.654 335.113 296.572 335.693 296.433 336.265C296.2 337.222 294.268 337.148 293.507 336.231L293.495 336.241Z" fill="#0B0B14" class="fg"/>
<path d="M262.599 309.104C260 306.997 255.536 309.054 255.207 313.967C255.104 314.845 255.28 315.733 255.71 316.505C256.141 317.277 256.804 317.894 257.604 318.268C258.405 318.642 259.304 318.754 260.172 318.588C261.04 318.422 261.834 317.987 262.441 317.344C263.017 316.829 263.481 316.2 263.804 315.497C264.126 314.794 264.301 314.032 264.315 313.259C264.33 312.485 264.186 311.717 263.89 311.003C263.595 310.288 263.156 309.642 262.599 309.104ZM256.654 315.556C256.297 314.567 256.257 313.492 256.537 312.479C256.818 311.466 257.407 310.565 258.221 309.901C259.839 308.739 261.45 309.363 261.673 310.084C261.421 310.28 260.523 310.532 260.252 310.7C259.796 310.96 259.413 311.329 259.136 311.774C258.86 312.22 258.7 312.727 258.67 313.251C258.64 313.774 258.742 314.296 258.966 314.77C259.19 315.244 259.529 315.655 259.952 315.964C260.163 316.098 260.17 316.072 261.181 316.571C260.851 316.893 260.446 317.126 260.003 317.252C259.559 317.377 259.092 317.39 258.643 317.289C258.193 317.188 257.776 316.977 257.429 316.674C257.082 316.372 256.815 315.987 256.654 315.556ZM262.748 314.293C262.609 314.785 262.211 314.982 261.402 314.836C261.045 314.807 260.714 314.637 260.482 314.363C260.25 314.09 260.136 313.736 260.166 313.379C260.295 311.797 262.506 310.6 262.806 312.047C262.942 312.792 262.922 313.557 262.748 314.293Z" fill="#0B0B14" class="fg"/>
<path d="M208.5 399.531C212.611 397.87 212.158 398.11 212.964 399.303C212.963 399.314 212.958 399.324 212.952 399.333C212.945 399.342 212.936 399.349 212.926 399.353C213.36 399.845 213.792 400.337 214.232 400.832C215.134 400.551 215.355 402.061 219.162 402.704C221.398 403.069 223.689 402.923 225.861 402.277C228.033 401.631 230.031 400.502 231.705 398.974C236.457 394.975 236.457 391.087 238.087 389.894C238.125 388.86 238.226 387.829 238.389 386.807C238.483 385.418 237.782 386.21 249.43 380.711C256.871 377.204 255.831 377.267 256.724 378.208C257.634 379.385 258.854 380.286 260.247 380.808C261.64 381.331 263.152 381.454 264.611 381.165C266.674 380.901 268.667 380.243 270.482 379.228C273.062 377.91 275.281 375.983 276.947 373.613C278.612 371.243 279.674 368.502 280.04 365.628C280.097 365.225 282.406 363.879 282.833 363.658C284.41 362.839 284.66 360.59 285.087 359.059C287.36 350.86 295.3 322.687 297.669 300.495C294.969 297.247 269.448 281.881 265.843 279.728C265.805 278.206 265.662 276.688 265.415 275.185C265.368 275.05 265.333 274.911 265.312 274.77C264.288 268.597 261.335 262.906 256.878 258.515C252.42 254.123 246.687 251.256 240.499 250.324C220.959 246.913 206.99 257.203 200.656 275.358C196.96 285.962 199.802 289.586 198.122 290.272C191.672 292.913 179.813 298.647 178.015 299.494C172.6 302.048 153.79 352.238 152.638 356.256C152.213 357.737 152.528 358.363 153.08 358.927C160.572 365.73 168.432 372.116 176.626 378.056C189.663 387.525 206.731 400.244 208.5 399.531Z" fill="#FDF8F2" class="bg"/>
<path d="M208.5 399.531C212.611 397.87 212.158 398.11 212.964 399.303C212.963 399.314 212.958 399.324 212.952 399.333C212.945 399.342 212.936 399.349 212.926 399.353C213.36 399.845 213.792 400.337 214.232 400.832C215.134 400.551 215.355 402.061 219.162 402.704C221.398 403.069 223.689 402.923 225.861 402.277C228.033 401.631 230.031 400.502 231.705 398.974C236.457 394.975 236.457 391.087 238.087 389.894C238.125 388.86 238.226 387.829 238.389 386.807C238.483 385.418 237.782 386.21 249.43 380.711C256.871 377.204 255.831 377.267 256.724 378.208C257.634 379.385 258.854 380.286 260.247 380.808C261.64 381.331 263.152 381.454 264.611 381.165C266.674 380.901 268.667 380.243 270.482 379.228C273.062 377.91 275.281 375.983 276.947 373.613C278.612 371.243 279.674 368.502 280.04 365.628C280.097 365.225 282.406 363.879 282.833 363.658C284.41 362.839 284.66 360.59 285.087 359.059C287.36 350.86 295.3 322.687 297.669 300.495C294.969 297.247 269.448 281.881 265.843 279.728C265.805 278.206 265.662 276.688 265.415 275.185C265.368 275.05 265.333 274.911 265.312 274.77C264.288 268.597 261.335 262.906 256.878 258.515C252.42 254.123 246.687 251.256 240.499 250.324C220.959 246.913 206.99 257.203 200.656 275.358C196.96 285.962 199.802 289.586 198.122 290.272C191.672 292.913 179.813 298.647 178.015 299.494C172.6 302.048 153.79 352.238 152.638 356.256C152.213 357.737 152.528 358.363 153.08 358.927C160.572 365.73 168.432 372.116 176.626 378.056C189.663 387.525 206.731 400.244 208.5 399.531ZM253.066 257.536C263.147 265.217 267.784 280.703 262.057 296.179C255.253 314.569 237.458 319.295 236.481 318.458C238.028 317.835 239.543 317.136 241.02 316.362C254.763 309.455 264.561 288.974 259.261 271.016C255.901 259.622 249.308 256.151 249.101 255.244C250.544 255.777 251.885 256.552 253.066 257.536ZM200.673 282.757C200.846 277.657 205.361 266.755 210.648 261.312C213.44 258.293 216.81 255.866 220.557 254.173C224.304 252.479 228.353 251.555 232.463 251.454C263.699 251.272 269.515 300.78 238.325 315.378C232.527 318.225 225.861 318.751 219.689 316.851C213.516 314.95 208.301 310.766 205.108 305.151C201.079 298.426 199.511 290.51 200.673 282.757ZM178.985 300.838C179.424 300.562 191.929 294.982 191.972 294.962C199.511 291.602 198.755 291.902 198.834 292.497C199.493 298.678 201.842 304.559 205.622 309.493C213.063 318.854 221.792 319.408 226.816 320.534C242.333 324.038 260.533 311.944 265.075 291.252C266.815 283.319 265.13 281.349 267.115 282.575C298.833 302.187 296.102 300.322 295.17 300.66C238.459 321.285 227.965 332.859 225.805 331.397C183.884 303.147 177.61 301.7 178.985 300.838ZM286.993 307.885C286.15 310.7 279.593 330.538 275.554 340.815C274.913 342.443 274.594 342.315 268.476 345.157C264.842 346.837 265.243 347.92 275.798 320.711C275.798 320.666 279.699 310.794 279.97 310.405C282.04 309.105 284.225 307.997 286.496 307.093C287.027 306.865 286.988 307.062 286.988 307.885H286.993ZM247.008 324.95C245.383 331.671 236.834 355.432 235.672 358.704C234.374 362.352 232.665 362.587 225.637 365.693C225.292 365.11 228.757 356.812 230.198 352.876C239.393 327.605 237.588 329.376 240.883 327.768C247.527 324.523 246.512 325.013 247.004 324.95H247.008ZM195.256 356.608C198.832 353.303 215.657 339.198 218.554 336.977C218.607 336.937 218.672 336.915 218.738 336.914C218.805 336.913 218.87 336.934 218.924 336.973C218.977 337.012 219.017 337.067 219.037 337.131C219.057 337.194 219.056 337.263 219.034 337.325C218.732 338.206 213.612 352.039 212.947 352.699C205.37 360.254 205.111 360.67 203.107 362.76C202.627 363.264 203.032 363.24 197.315 359.097C195.1 357.489 194.365 357.424 195.251 356.608H195.256ZM188.847 345.088C183.716 349.362 184.097 349.29 183.528 348.877C175.178 342.812 175.313 343.343 175.898 342.971C178.966 340.962 185.405 335.424 189.819 332.122C195.46 327.907 202.274 323.198 204.607 321.503C205.236 321.045 205.101 320.901 210.151 323.925C211.047 324.455 211.874 325.092 212.616 325.821C212.58 325.831 194.116 340.69 188.842 345.085L188.847 345.088ZM165.124 331.723C166.751 327.668 168.623 323.716 170.731 319.888C173.084 317.669 175.579 315.606 178.2 313.71C184.441 309.332 183.934 308.101 185.914 309.09C188.018 310.148 189.97 311.484 191.72 313.06C191.24 313.828 165.362 334.476 165.318 334.488C163.78 334.98 164.519 333.245 165.119 331.721L165.124 331.723ZM207.257 397.565C197.498 390.665 193.168 387.933 178.995 377.55C167.419 369.068 154.705 358.471 154.35 357.986C153.87 357.321 153.87 357.312 154.129 356.546C155.478 352.67 156.786 348.774 158.387 344.982C161.903 336.663 161.461 336.603 162.143 337.061C162.186 337.097 199.845 364.745 210.626 372.891C211.409 373.484 212.067 365.89 218.369 346.468C219.178 343.974 221.919 335.907 222.93 333.267C223.347 332.182 223.65 332.871 224.742 333.608C225.486 334.104 218.703 348.561 208.661 389.784C208.308 391.224 209.395 391.385 209.784 390.221C212.223 382.9 212.892 380.802 214.584 375.399C222.38 371.105 228.025 368.199 241.961 361.253C254.922 354.784 254.478 355.471 254.742 354.052C261.369 318.177 260.656 318.599 261.606 318.82C262.35 318.993 262.252 319.3 262.554 321.083C259.64 344.176 256.571 351.89 256.722 353.935C257.404 353.723 281.816 341.73 287.828 339.447C287.939 340.054 288.308 338.074 284.838 353.248C282.795 362.179 283.129 361.769 282.209 362.323C273.883 367.364 229.566 388.308 220.599 392.455C208.615 397.997 208.346 398.338 207.252 397.563L207.257 397.565Z" fill="#0B0B14" class="fg"/>
<path d="M245.912 261.696C229.648 245.872 204.506 262.682 204.581 286.449C204.548 292.469 206.275 298.368 209.549 303.421C218.377 316.168 233.803 316.185 243.588 306.706C257.745 292.994 256.125 271.635 245.912 261.696ZM239.083 307.959C215.482 323.08 192.52 288.758 215.802 263.698C219.271 260.335 223.712 258.152 228.494 257.457C245.04 255.297 258.455 274.885 249.536 295.411C247.424 300.568 243.774 304.95 239.083 307.959Z" fill="#0B0B14" class="fg"/>
<path d="M196.3 369.423C194.992 370.223 193.971 371.418 193.385 372.835C192.799 374.253 192.677 375.819 193.038 377.31C195.009 384.107 204.319 381.025 204.187 374.19C204.279 373.231 204.098 372.266 203.666 371.406C203.233 370.545 202.567 369.825 201.742 369.326C200.918 368.828 199.97 368.573 199.007 368.59C198.044 368.607 197.106 368.896 196.3 369.423ZM200.244 378.606C199.696 379.039 199.035 379.305 198.34 379.371C197.645 379.438 196.946 379.302 196.326 378.98C195.707 378.658 195.194 378.164 194.848 377.558C194.503 376.951 194.34 376.257 194.38 375.56C194.45 371.021 198.388 369.005 200.212 370.213C200.156 370.26 200.095 370.301 200.03 370.335C199.201 370.584 198.472 371.092 197.952 371.784C197.431 372.476 197.145 373.316 197.135 374.182C197.125 375.048 197.392 375.895 197.897 376.599C198.401 377.302 199.118 377.827 199.941 378.095C200.38 378.236 200.632 378.316 200.253 378.606H200.244ZM199.303 375.692C199.045 375.367 198.87 374.986 198.791 374.579C198.713 374.172 198.733 373.752 198.851 373.355C198.968 372.958 199.18 372.594 199.467 372.296C199.755 371.998 200.11 371.773 200.503 371.641C202.308 370.99 202.401 372.375 202.663 374.002C202.569 374.55 202.483 375.155 202.337 375.747C202.113 376.717 200.14 376.621 199.312 375.692H199.303Z" fill="#0B0B14" class="fg"/>
<path d="M167.347 347.622C164.656 345.44 160.038 347.574 159.688 352.663C159.582 353.571 159.765 354.49 160.211 355.288C160.657 356.087 161.343 356.725 162.171 357.112C163 357.498 163.93 357.614 164.828 357.443C165.726 357.272 166.548 356.822 167.176 356.157C167.775 355.624 168.257 354.973 168.592 354.245C168.927 353.517 169.109 352.728 169.125 351.927C169.141 351.126 168.991 350.33 168.685 349.589C168.379 348.848 167.923 348.179 167.347 347.622ZM161.198 354.292C160.826 353.269 160.783 352.156 161.073 351.108C161.363 350.059 161.973 349.127 162.818 348.441C164.498 347.241 166.154 347.889 166.418 348.628C165.939 348.873 165.445 349.087 164.939 349.269C164.47 349.535 164.075 349.916 163.79 350.374C163.505 350.833 163.339 351.356 163.309 351.895C163.278 352.435 163.383 352.973 163.613 353.461C163.844 353.949 164.194 354.372 164.63 354.691C164.853 354.832 164.855 354.808 165.897 355.322C165.558 355.66 165.139 355.907 164.68 356.041C164.22 356.175 163.734 356.191 163.266 356.089C162.799 355.986 162.364 355.768 162.003 355.454C161.641 355.14 161.365 354.741 161.198 354.292ZM167.5 352.996C167.359 353.488 166.944 353.695 166.106 353.548C165.736 353.518 165.393 353.341 165.153 353.058C164.912 352.775 164.794 352.409 164.824 352.038C164.959 350.414 167.21 349.158 167.556 350.658C167.683 351.434 167.663 352.227 167.498 352.996H167.5Z" fill="#0B0B14" class="fg"/>
<path d="M109.264 446.788C113.611 445.033 113.133 445.309 113.985 446.548C113.985 446.548 113.985 446.572 113.942 446.596C114.401 447.09 114.859 447.623 115.322 448.129C116.282 447.839 116.506 449.421 120.548 450.1C122.911 450.486 125.331 450.331 127.626 449.649C129.922 448.966 132.033 447.773 133.801 446.159C138.823 441.932 138.823 437.847 140.548 436.558C140.587 435.465 140.692 434.376 140.865 433.296C140.963 431.818 140.222 432.665 152.547 426.854C160.398 423.151 159.294 423.22 160.249 424.214C161.211 425.455 162.497 426.406 163.966 426.961C165.434 427.517 167.028 427.656 168.57 427.363C170.749 427.087 172.854 426.393 174.77 425.318C177.5 423.93 179.848 421.894 181.608 419.389C183.369 416.883 184.489 413.984 184.87 410.946C184.93 410.521 187.378 409.103 187.827 408.875C189.507 408.03 189.747 405.632 190.203 404.014C192.603 395.35 200.992 365.571 203.512 342.138C200.687 338.727 173.699 322.475 169.881 320.193C169.843 318.584 169.691 316.98 169.427 315.393C169.378 315.25 169.342 315.103 169.319 314.953C168.233 308.431 165.11 302.419 160.398 297.78C155.686 293.142 149.626 290.113 143.088 289.13C122.446 285.53 107.685 296.398 100.993 315.585C97.0858 326.789 100.093 330.626 98.3171 331.356C91.5102 334.16 78.9741 340.198 77.0732 341.101C71.3584 343.82 51.4369 396.919 50.2488 401.076C49.7976 402.661 50.1336 403.306 50.7288 403.901C58.6519 411.08 66.9566 417.827 75.6067 424.111C89.3549 434.11 107.397 447.544 109.264 446.788Z" fill="#FDF8F2" class="bg"/>
<path d="M109.264 446.788C113.611 445.033 113.133 445.309 113.985 446.548C113.985 446.548 113.985 446.572 113.942 446.596C114.401 447.09 114.859 447.623 115.322 448.129C116.282 447.839 116.506 449.421 120.548 450.1C122.911 450.486 125.331 450.331 127.626 449.649C129.922 448.966 132.033 447.773 133.801 446.159C138.823 441.932 138.823 437.847 140.548 436.558C140.587 435.465 140.692 434.376 140.865 433.296C140.963 431.818 140.222 432.665 152.547 426.854C160.398 423.151 159.294 423.22 160.249 424.214C161.211 425.455 162.497 426.406 163.966 426.961C165.434 427.517 167.028 427.656 168.57 427.363C170.749 427.087 172.854 426.393 174.77 425.318C177.5 423.93 179.848 421.894 181.608 419.389C183.369 416.883 184.489 413.984 184.87 410.946C184.93 410.521 187.378 409.103 187.827 408.875C189.507 408.03 189.747 405.632 190.203 404.014C192.603 395.35 200.992 365.571 203.512 342.138C200.687 338.727 173.699 322.475 169.881 320.193C169.843 318.584 169.691 316.98 169.427 315.393C169.378 315.25 169.342 315.103 169.319 314.953C168.233 308.431 165.11 302.419 160.398 297.78C155.686 293.142 149.626 290.113 143.088 289.13C122.446 285.53 107.685 296.398 100.993 315.585C97.0858 326.789 100.093 330.626 98.3171 331.356C91.5102 334.16 78.9741 340.198 77.0732 341.101C71.3584 343.82 51.4369 396.919 50.2488 401.076C49.7976 402.661 50.1336 403.306 50.7288 403.901C58.6519 411.08 66.9566 417.827 75.6067 424.111C89.3549 434.11 107.397 447.544 109.264 446.788ZM156.361 296.746C166.981 304.906 171.911 321.203 165.858 337.577C158.674 357.019 139.869 362.006 138.832 361.123C139.665 360.897 142.855 359.299 143.632 358.91C158.161 351.599 168.51 329.962 162.908 310.971C159.356 298.93 152.396 295.262 152.177 294.285C153.692 294.882 155.103 295.712 156.361 296.746ZM101.013 323.397C101.205 318.004 105.945 306.488 111.552 300.723C114.501 297.537 118.061 294.976 122.019 293.191C125.977 291.406 130.253 290.434 134.593 290.332C167.617 290.186 173.774 342.515 140.791 357.861C134.653 360.855 127.605 361.4 121.08 359.385C114.554 357.371 109.04 352.949 105.657 347.017C101.409 339.924 99.7662 331.571 101.013 323.397ZM78.0981 342.503C78.5613 342.212 91.7791 336.315 91.8247 336.291C99.7044 332.568 98.9916 333.058 99.0708 333.679C99.7596 340.212 102.242 346.426 106.243 351.635C114.125 361.555 123.337 362.114 128.655 363.317C145.053 367.02 164.279 354.237 169.072 332.379C170.91 323.997 169.132 321.911 171.232 323.21C204.758 343.931 201.863 341.95 200.879 342.32C141.163 364.685 129.87 376.333 127.58 374.797C83.22 344.992 76.6267 343.417 78.0932 342.503H78.0981ZM192.21 349.943C191.317 352.9 184.426 373.882 180.137 384.746C179.46 386.462 179.126 386.33 172.655 389.335C168.815 391.116 169.24 392.246 180.398 363.502C180.398 363.451 184.517 353.022 184.805 352.61C186.998 351.241 189.307 350.07 191.706 349.108C192.25 348.873 192.205 349.081 192.205 349.95L192.21 349.943ZM149.976 367.98C148.255 375.092 139.216 400.2 137.975 403.645C136.6 407.504 134.802 407.751 127.374 411.04C127.009 410.423 130.672 401.679 132.174 397.524C141.902 370.82 139.991 372.697 143.455 370.99C150.511 367.541 149.41 368.048 149.976 367.98ZM95.2521 401.432C97.3739 399.442 115.673 383.805 119.885 380.673C119.942 380.637 120.008 380.62 120.074 380.623C120.141 380.625 120.205 380.648 120.259 380.688C120.312 380.728 120.352 380.783 120.374 380.847C120.395 380.91 120.397 380.978 120.38 381.042C120.07 381.933 114.631 396.619 113.947 397.287C105.851 405.178 105.616 405.663 103.557 407.919C103.062 408.459 103.475 408.399 97.4387 404.05C95.1009 402.37 94.3256 402.291 95.2521 401.432ZM82.9224 393.271C74.0682 386.918 74.253 387.429 74.8698 387.031C78.1196 384.921 84.8929 379.036 89.5421 375.531C95.4729 371.062 102.693 366.13 105.158 364.313C105.825 363.833 105.698 363.684 111.014 366.872C111.962 367.436 112.842 368.109 113.635 368.876C81.3455 394.682 83.7817 393.888 82.9128 393.266L82.9224 393.271ZM63.4258 375.133C67.8085 363.953 67.5205 362.935 77.2844 356.097C83.8897 351.474 83.3448 350.178 85.445 351.218C87.6693 352.335 89.7335 353.746 91.5822 355.413C91.0878 356.222 63.7402 378.042 63.6778 378.056C62.0049 378.56 62.7921 376.748 63.4258 375.133ZM107.949 444.707C97.6283 437.432 93.1016 434.53 78.122 423.556C65.8812 414.597 52.4402 403.395 52.0777 402.884C51.5833 402.193 51.5737 402.164 51.8377 401.355C53.1962 397.234 54.6459 393.139 56.338 389.138C60.0535 380.344 59.5927 380.257 60.3055 380.759C60.3535 380.793 100.148 409.998 111.566 418.617C112.394 419.243 113.102 411.229 119.748 390.696C120.603 388.055 123.485 379.518 124.568 376.741C125.012 375.606 125.346 376.326 126.488 377.101C127.273 377.634 120.046 393.127 109.483 436.45C109.113 437.972 110.263 438.13 110.671 436.913C113.246 429.173 113.959 426.958 115.759 421.25C116.052 420.319 115.807 420.89 124.241 416.666C128.322 414.621 129.971 413.658 144.686 406.314C158.382 399.48 157.911 400.203 158.192 398.7C165.258 360.799 164.456 361.236 165.443 361.466C166.233 361.651 166.127 361.994 166.427 363.867C163.352 388.264 160.11 396.398 160.266 398.575C160.986 398.355 186.785 385.682 193.148 383.272C193.261 383.913 193.647 381.832 189.987 397.877C187.839 407.312 188.18 406.878 187.208 407.463C178.401 412.77 131.581 434.919 122.086 439.304C109.389 445.163 109.106 445.525 107.949 444.709V444.707Z" fill="#0B0B14" class="fg"/>
<path d="M148.8 301.143C131.626 284.423 105.049 302.177 105.116 327.305C105.084 333.665 106.911 339.896 110.373 345.232C119.7 358.701 135.997 358.716 146.354 348.683C161.3 334.205 159.588 311.646 148.8 301.143ZM141.575 350.039C116.649 366.024 92.3715 329.722 116.971 303.267C120.64 299.716 125.331 297.407 130.383 296.666C147.868 294.377 162.053 315.09 152.616 336.764C150.38 342.214 146.526 346.847 141.575 350.039Z" fill="#0B0B14" class="fg"/>
<path d="M96.3852 414.976C95.0055 415.821 93.9285 417.081 93.3085 418.575C92.6885 420.069 92.5574 421.722 92.9338 423.295C95.0315 430.481 104.858 427.243 104.714 420.007C104.813 418.994 104.623 417.974 104.166 417.065C103.71 416.155 103.005 415.393 102.135 414.867C101.264 414.341 100.262 414.072 99.2442 414.092C98.2269 414.111 97.2357 414.417 96.3852 414.976ZM100.554 424.675C99.9745 425.131 99.2756 425.411 98.5411 425.48C97.8067 425.549 97.0678 425.406 96.4128 425.066C95.7579 424.727 95.2146 424.206 94.8479 423.565C94.4812 422.925 94.3066 422.193 94.3451 421.456C94.4195 416.656 98.579 414.556 100.506 415.809C100.446 415.857 100.382 415.9 100.314 415.936C99.436 416.198 98.6644 416.734 98.1124 417.465C97.5604 418.197 97.257 419.086 97.2465 420.002C97.236 420.919 97.5191 421.814 98.0542 422.559C98.5894 423.303 99.3486 423.856 100.221 424.137C100.682 424.286 100.953 424.37 100.554 424.677V424.675ZM99.5583 421.6C99.2875 421.256 99.1036 420.851 99.0218 420.421C98.9401 419.99 98.963 419.546 99.0887 419.126C99.2143 418.706 99.4389 418.323 99.7437 418.008C100.048 417.693 100.424 417.456 100.84 417.316C102.743 416.63 102.842 418.094 103.127 419.815C103.024 420.391 102.938 421.034 102.782 421.658C102.527 422.688 100.427 422.582 99.5583 421.603V421.6Z" fill="#0B0B14" class="fg"/>
<path d="M65.7801 391.934C62.9335 389.633 58.0564 391.886 57.6867 397.258C57.5686 398.221 57.7583 399.197 58.2288 400.045C58.6993 400.894 59.4264 401.571 60.3058 401.981C61.1853 402.391 62.1719 402.512 63.1243 402.327C64.0766 402.141 64.9459 401.659 65.6073 400.949C66.2388 400.386 66.7471 399.698 67.1004 398.929C67.4538 398.16 67.6445 397.326 67.6608 396.48C67.677 395.633 67.5183 394.793 67.1947 394.011C66.8711 393.229 66.3895 392.522 65.7801 391.934ZM59.2805 398.993C58.8869 397.913 58.8405 396.737 59.1477 395.629C59.4549 394.521 60.1005 393.536 60.9942 392.813C62.7583 391.536 64.52 392.22 64.7889 393.005C64.52 393.221 63.5384 393.497 63.2431 393.684C62.7446 393.968 62.3249 394.372 62.0224 394.859C61.7199 395.346 61.5442 395.902 61.5113 396.474C61.4784 397.047 61.5893 397.619 61.8339 398.137C62.0786 398.656 62.4492 399.106 62.9119 399.444C63.1519 399.591 63.1519 399.567 64.2536 400.109C63.8929 400.466 63.4484 400.726 62.961 400.866C62.4735 401.006 61.9587 401.022 61.4637 400.911C60.9687 400.801 60.5094 400.567 60.128 400.233C59.7465 399.899 59.4551 399.474 59.2805 398.998V398.993ZM65.9385 397.608C65.8041 398.163 65.3529 398.362 64.46 398.204C64.2666 398.188 64.0782 398.134 63.9055 398.045C63.7329 397.957 63.5794 397.835 63.4539 397.687C63.3284 397.539 63.2333 397.368 63.1741 397.183C63.1148 396.998 63.0926 396.803 63.1087 396.61C63.2503 394.896 65.6265 393.576 65.9889 395.153C66.141 395.968 66.1239 396.805 65.9385 397.613V397.608Z" fill="#0B0B14" class="fg"/>
</svg>
