<svg width="480" height="480" viewBox="0 0 480 480" fill="none" xmlns="http://www.w3.org/2000/svg">
<path d="M12.4224 405.821C11.604 406.21 12.0888 406.814 12.9024 407.143C13.716 407.472 58.548 387.533 67.9848 383.717C138.278 355.289 211.505 331.032 315.905 307.49C395.201 289.608 466.937 277.306 466.966 277.298C467.99 277.181 468.684 275.434 467.062 275.695C310.687 300.866 156.614 337.387 12.4224 405.821Z" fill="black"/>
<path d="M200.94 109.558C197.952 111.254 185.621 114.391 139.942 134.021C117.826 143.525 114.425 145.061 114.691 145.781C114.982 146.561 126.288 169.541 124.79 175.464C124.512 176.558 124.022 177.845 115.97 175.963C103.296 173.002 51.6888 160.032 40.356 153.883C37.1256 152.134 36.5544 151.387 38.1648 146.779C44.604 128.34 71.5248 81.0816 77.5032 76.0056C77.6683 75.8302 77.8687 75.6919 78.0912 75.5995C78.3136 75.5071 78.5529 75.4627 78.7936 75.4697C79.0346 75.4764 79.271 75.534 79.488 75.6389C79.7049 75.7438 79.8972 75.8933 80.052 76.0776C84.3192 80.2296 90.6984 93.6672 92.3472 97.5816C93.276 99.7848 91.3224 99.5808 110.16 90.2616C124.32 83.2584 159.84 66.3408 175.075 62.4408C178.056 61.6776 178.997 61.6224 181.075 64.8192C188.453 76.1952 197.41 92.8104 200.926 105.6C201.079 106.152 202.08 108.912 200.94 109.558ZM122.266 175.418C124.301 175.418 124.265 173.638 116.693 154.74C112.831 145.109 112.07 145.121 113.813 143.981C120.204 139.802 171.905 117.432 199.838 108.365C201.979 107.669 186.271 74.8608 178.577 64.9248C177.535 63.5808 176.918 63.8976 175.457 64.26C159.816 68.1 93.6768 100.272 93.6768 100.272C91.9968 101.014 92.3208 100.512 89.4504 95.1408C86.6239 89.4422 83.4573 83.9186 79.968 78.6C78.4128 76.3944 77.6736 77.82 74.2608 83.16C72.9 85.2864 50.3592 123.353 41.4216 143.64C38.4768 150.329 38.568 150.84 40.0848 151.67C51.2376 157.766 118.418 175.118 122.266 175.418Z" fill="black"/>
<path d="M342.686 48.732C342.768 49.5048 344.114 48.1296 270.866 66.7992C217.058 80.5128 211.138 84.1824 210.098 83.6448C209.237 83.1984 209.345 82.7256 209.885 82.5216C210.919 82.1328 222.792 78.4416 223.939 78.096C274.579 62.5176 333.497 49.6656 341.136 48.3936C342.535 48.1608 342.667 48.5496 342.686 48.732Z" fill="black"/>
<path d="M193.056 59.016C183.41 57.9984 250.286 38.1 307.068 28.1088C317.933 26.1888 319.308 26.6256 306.06 29.2224C291.535 32.0688 266.986 37.7784 252.809 41.4624C205.666 53.7456 195.643 58.2072 193.056 59.016Z" fill="black"/>
<path d="M207.89 70.3512C207.36 70.3512 207.022 70.3896 206.906 69.984C206.791 69.5784 207.022 69.3216 207.386 69.1656C220.346 63.5664 241.81 58.6536 248.587 57.3792C251.078 56.8992 251.515 57.792 250.241 58.068C235.875 61.2487 221.729 65.3515 207.89 70.3512Z" fill="black"/>
<path d="M276.074 323.87C317.09 330.11 354.293 342.746 357.379 346.073C360.994 349.973 329.796 408.132 319.133 423.48C317.51 425.813 316.162 427.757 314.167 426.005C309.509 421.913 302.407 404.918 300.228 398.837C299.537 396.917 215.011 435.869 214.771 435.974C213.487 436.416 212.4 435.053 211.8 433.992C204.61 420.468 199.243 406.051 195.84 391.118C195.264 388.694 194.602 387.007 196.507 385.651C208.488 377.124 251.294 361.622 265.198 356.539C282.415 350.244 281.196 351.137 280.531 349.819C277.272 342.254 275.033 334.291 273.874 326.136C273.821 325.834 273.84 325.522 273.931 325.226C274.022 324.931 274.181 324.662 274.397 324.442C274.61 324.221 274.874 324.055 275.167 323.954C275.458 323.856 275.77 323.827 276.074 323.87ZM276.653 325.286C275.503 325.19 275.088 325.908 275.314 326.954C276.658 332.695 278.311 338.357 280.272 343.915C282.958 351.706 283.097 351.269 281.887 351.97C279.773 353.196 219.929 374.29 197.455 387.31C196.802 387.689 196.735 387.809 196.918 388.51C200.969 404.018 206.397 419.134 213.137 433.678C214.421 436.188 210.768 435.18 245.234 419.58C247.217 418.682 298.841 395.357 300.626 396.715C301.673 397.51 301.13 397.37 307.284 410.657C309.127 415.2 311.455 419.532 314.23 423.574C316.02 425.645 316.603 424.19 318.034 421.882C326.842 407.657 353.462 359.254 356.222 348.574C356.662 346.882 357.242 346.32 340.69 341.014C319.639 334.637 298.262 329.388 276.653 325.286Z" fill="black"/>
<path d="M124.538 448.656C125.554 446.542 193.43 412.846 194.479 414.898C194.844 415.618 194.366 415.476 179.952 422.081C134.227 443.04 122.815 452.242 124.538 448.656Z" fill="black"/>
<path d="M189.25 394.99C189.282 395.052 189.301 395.119 189.305 395.189C189.308 395.258 189.297 395.328 189.271 395.393C189.245 395.458 189.206 395.515 189.155 395.563C189.105 395.611 189.044 395.647 188.978 395.669C174.61 401.921 148.205 415.896 142.082 419.482C141.463 419.842 141.298 419.242 141.578 418.824C143.702 415.68 188.64 392.818 189.25 394.99Z" fill="black"/>
<path d="M157.562 453.067C154.74 450.862 195.977 432.554 198.816 431.371C199.493 431.09 199.903 431.69 199.618 431.995C198.324 433.387 181.692 440.962 174.072 444.6C160.344 451.154 161.4 451.298 157.562 453.067Z" fill="black"/>
<path d="M283.891 81.804C281.755 83.3902 280.018 85.4486 278.81 87.8184C277.603 90.1882 276.96 92.8051 276.931 95.4648C277.526 98.8632 277.411 99.1008 278.131 99.1392C278.851 99.1776 278.695 98.7456 280.452 95.7792C280.951 94.9368 281.232 96.6384 281.599 97.632C282.499 100.085 284.239 96.0672 284.323 97.392C284.438 99.1128 284.246 98.5632 284.76 99.0888C284.978 98.7991 285.137 98.4689 285.226 98.1175C285.317 97.7662 285.336 97.4004 285.283 97.0416C285.283 96.833 285.223 96.6293 285.108 96.4553C284.993 96.2813 284.83 96.1447 284.638 96.0631C284.446 95.9815 284.234 95.958 284.03 95.9959C283.824 96.0338 283.634 96.1313 283.486 96.276C282.194 97.5096 282.73 97.032 281.993 95.4336C280.694 92.6232 279.05 96.6024 278.393 97.3824C276.713 94.9488 280.982 83.628 285.444 82.392C286.133 82.2 286.224 83.2656 286.728 82.392C287.314 81.408 285.746 80.724 283.891 81.804Z" fill="black"/>
<path d="M446.482 193.2C444.67 192.982 445.546 193.289 447.946 188.34C449.386 185.378 449.724 181.339 446.789 181.783C445.45 181.987 446.623 180.792 445.939 177.979C445.529 176.299 443.981 175.512 441.66 177.353C441.18 177.73 441.18 176.873 441.142 176.268C440.851 172.051 438.127 170.508 435.782 172.349C434.316 173.544 433.284 175.188 432.845 177.029C432.79 177.242 432.583 177.907 432.365 177.223C426.43 162.274 418.507 157.43 407.165 148.577C400.882 143.95 394.351 139.664 387.607 135.739C384.682 133.934 380.861 105.847 352.272 87.6648C337.565 78.3048 320.626 75.144 300.574 79.1064C289.092 81.3744 292.846 82.9776 290.95 78.996C290.81 78.5827 290.592 78.2016 290.302 77.875C290.014 77.5486 289.663 77.2834 289.27 77.0952C285.168 75.5448 282.204 78.732 278.568 81.7392C277.889 82.3032 278.138 80.2848 275.614 77.8992C272.609 75.0456 268.757 77.508 266.909 79.8432C261.907 86.1648 266.719 83.484 255.797 86.0016C236.174 90.5208 241.462 105.221 228.271 107.462C226.003 107.849 218.911 108.158 218.393 110.287C217.075 115.807 220.814 123.547 223.622 124.994C224.53 125.46 224.141 125.777 225.967 128.702C226.894 130.19 228.607 131.014 229.519 129.154C230.203 127.757 230.239 130.018 232.922 131.057C233.154 131.149 233.405 131.185 233.653 131.16C233.901 131.135 234.139 131.05 234.348 130.913C234.881 130.558 234.907 129.89 234.905 129.101C234.905 127.738 237.281 133.013 239.112 130.87C239.926 129.91 239.561 129.178 240.73 130.243C242.494 131.849 243.766 131.443 244.476 130.277C244.68 129.943 244.766 129.386 245.242 129.662C247.092 130.451 248.717 131.688 249.967 133.262C250.776 134.283 251.258 135.522 251.357 136.82C251.455 138.118 251.165 139.416 250.519 140.546C250.337 140.952 250.154 141.026 249.763 140.786C248.222 139.826 246.802 139.327 246.331 141.086C246.084 142.005 246.067 142.97 246.278 143.897C244.073 142.937 243.343 143.734 243.682 145.265C244.301 148.066 244.334 147.379 242.863 146.65C241.663 146.057 239.242 144.842 238.399 146.563C238.187 147.007 238.07 147.49 238.056 147.982C238.043 148.473 238.133 148.962 238.32 149.417C239.789 153.838 240.221 152.407 239.602 154.171C239.406 154.863 239.463 155.601 239.76 156.255C240.058 156.909 240.578 157.436 241.229 157.742C243.338 157.442 241.79 157.15 248.566 154.694C256.327 151.774 264.396 149.737 272.614 148.622C269.734 151.855 262.382 154.723 255.449 157.982C236.39 166.97 238.061 174.079 236.906 174.965C235.75 176.095 234.893 177.496 234.413 179.04C234.38 179.177 234.388 179.32 234.435 179.452C234.483 179.584 234.568 179.7 234.68 179.784C234.792 179.868 234.927 179.918 235.067 179.927C235.207 179.936 235.347 179.904 235.469 179.834C235.984 179.544 236.462 179.192 236.894 178.788C236.957 178.75 237.211 178.86 237.218 178.92C237.382 180.547 237.048 180.218 235.721 183.276C235.356 184.118 235.759 185.254 236.681 184.913C237.281 184.596 237.852 184.226 238.387 183.809C238.831 185.182 238.733 184.704 238.507 185.234C237.92 186.211 237.576 187.314 237.504 188.45C237.55 189.713 239.083 188.602 240.058 187.793C240.389 187.517 240.324 187.594 240.595 187.937C240.866 188.28 241.44 188.705 241.478 189.137C241.517 189.569 241.042 190.03 240.857 190.5C240.192 192.18 241.03 192.77 241.817 192.437C243.444 191.736 243.194 190.394 245.098 191.081C245.467 191.215 245.818 191.251 245.844 191.818C245.892 192.845 246.59 193.978 247.404 193.135C248.604 191.878 248.179 190.663 250.066 190.538C252.134 189.487 254.306 188.652 256.546 188.047C270.946 183.866 274.973 182.501 275.266 183.053C275.539 183.554 272.731 185.645 271.846 188.652C271.481 189.898 271.766 191.17 272.837 190.61C273.108 190.469 272.94 190.519 274.195 189.65C275.009 193.514 274.231 190.183 272.47 197.002C272.426 197.207 272.453 197.421 272.546 197.61C272.64 197.798 272.794 197.949 272.983 198.038C273.173 198.127 273.389 198.149 273.593 198.1C273.797 198.052 273.979 197.935 274.109 197.77C274.87 196.853 275.338 196.068 275.455 196.159C275.832 196.702 275.993 197.366 275.906 198.022C275.51 199.088 275.232 200.195 275.076 201.322C274.558 203.153 276.25 204.619 277.762 201.802C278.134 201.108 278.33 202.085 279.854 203.822C280.548 204.617 280.114 204.694 280.238 208.164C280.286 209.515 281.53 209.719 282.142 208.574C283.015 206.933 282.802 206.53 283.428 206.791C287.352 208.423 286.872 207.902 287.232 208.284C287.592 208.666 287.51 209.743 287.712 210.185C288.192 211.258 289.255 211.303 289.687 210.425C290.338 209.1 290.249 208.265 291.166 207.619C292.622 206.298 294.156 205.062 295.754 203.916C311.407 194.822 310.375 195.706 310.493 196.118C312.893 204.554 312.78 204.168 312.204 204.629C305.822 210.171 300.269 216.602 295.716 223.723C285.25 241.022 287.299 262.704 307.236 280.385C312.943 285.446 314.578 284.784 314.321 285.511C312.71 290.071 313.661 290.386 312.161 291.869C311.258 292.757 309.854 295.044 310.858 296.014C311.71 296.837 312.538 295.879 313.613 295.15C313.891 294.958 313.951 294.866 315.276 295.63C315.624 295.829 315.31 296.455 315.305 296.83C315.257 300.372 317.945 298.692 319.178 296.65C319.603 295.949 319.982 296.131 323.088 295.826C323.477 295.788 323.906 295.572 324.233 295.685C324.713 295.846 324.451 296.446 324.566 296.834C324.941 298.097 326.088 298.404 327.338 296.7C328.385 295.274 328.229 294.931 329.311 294.653C334.778 293.242 332.671 293.126 333.871 294.689C334.637 295.704 335.438 294.929 336.115 293.873C336.984 292.512 336.595 292.397 337.543 291.926C341.494 289.975 341.426 289.654 341.592 290.225C342.281 292.601 344.174 290.902 344.952 288.49C345.794 285.871 358.392 280.843 357.737 273.37C357.257 268.001 348.919 257.597 345.175 252.593C343.222 249.982 342.346 249.091 342.965 247.553C343.538 246.125 343.246 245.683 344.153 246.221C353.726 251.878 358.536 251.412 358.716 252.701C359.021 256.061 359.71 259.375 360.77 262.577C364.882 276.017 375.797 289.625 385.25 294.358C385.992 294.73 384.871 295.318 384.343 299.302C384.137 300.847 383.486 300.727 381.926 303.382C381.01 304.951 381.756 306.523 383.268 305.873C384.737 305.474 384.269 304.102 386.04 305.117C386.434 305.342 386.839 305.268 386.729 305.887C386.455 306.629 386.455 307.442 386.729 308.184C387.355 309.223 388.433 308.738 389.282 307.944C390.722 306.583 390.6 305.846 391.788 305.818C397.968 305.671 394.848 304.361 396.475 307.15C396.998 308.045 398.028 307.798 398.635 307.068C400.154 305.275 399.881 304.723 401.126 304.387C406.406 302.959 405.144 302.909 405.785 304.217C405.895 304.486 406.109 304.697 406.375 304.81C406.644 304.92 406.944 304.92 407.213 304.81C407.964 304.5 408.492 303.106 409.025 302.182C409.397 301.529 409.049 301.793 413.63 299.518C413.854 299.407 413.964 299.429 414.041 299.7C414.413 301.027 415.157 301.234 416.146 300.346C417.857 298.81 417.05 297.631 418.646 296.506C428.196 289.766 429.926 287.866 430.862 283.934C430.75 283.195 430.622 281.33 430.634 281.22C430.01 277.788 422.976 261.101 420.658 253.171C419.429 248.964 416.297 236.05 419.354 232.879C422.256 229.396 424.872 225.687 427.181 221.786C429.595 217.731 431.436 213.359 432.65 208.798C432.996 207.674 433.771 208.49 434.894 208.363C446.35 207.05 452.081 193.874 446.482 193.2ZM270.61 78.4464C273.936 76.7664 275.244 79.0608 277.354 82.2864C278.383 83.8656 274.908 83.4864 274.908 83.4288C265.399 83.9088 266.203 84.264 265.19 84.0552C266.515 81.7747 268.375 79.8482 270.61 78.4464ZM229.054 127.634C228.607 128.758 228.221 129.533 227.515 128.818C226.916 128.216 226.442 127.503 226.121 126.718C226.034 126.598 225.821 125.887 226.073 125.957C229.111 126.773 229.186 127.306 229.054 127.634ZM233.333 130.054C232.291 130.159 230.117 127.298 230.933 127.279C231.36 127.267 233.21 127.536 233.438 127.538C233.885 127.586 233.88 128.018 233.981 128.827C234.082 129.636 233.76 130.01 233.333 130.054ZM238.939 129.374C238.661 129.926 238.358 130.411 237.902 130.246C237.226 129.827 236.657 129.257 236.239 128.58C235.658 127.788 235.954 127.74 236.837 127.79C240.022 127.98 239.434 128.4 238.939 129.374ZM242.863 130.303C242.434 130.291 242.026 130.111 241.726 129.802C241.346 129.5 240.998 129.158 240.694 128.782C240.492 128.542 240.581 128.302 240.622 128.302C241.73 128.286 242.822 128.583 243.77 129.158C243.917 129.36 243.403 130.222 242.863 130.303ZM248.117 141.142C249.624 141.994 250.13 141.977 248.059 144.038C247.466 144.629 247.37 144.449 247.193 143.383C246.809 141.053 247.483 140.786 248.117 141.142ZM245.237 144.557C247.039 145.327 246.326 145.706 245.398 146.621C245.045 146.969 244.829 146.424 244.543 145.421C244.162 144.079 245.518 144.634 245.237 144.557ZM240.382 151.277C239.824 150.301 239.428 149.242 239.208 148.14C239.208 145.858 241.109 146.911 243.355 148.466C240.749 151.435 240.768 151.99 240.415 151.277H240.382ZM270.204 182.957C248.1 189.276 251.458 189.408 246.482 190.051C244.382 190.325 241.07 187.942 239.122 182.81C238.7 180.863 238.38 178.894 238.162 176.914C238.41 173.721 239.754 170.713 241.966 168.398C248.556 160.958 265.402 155.856 272.705 150.473C274.402 149.222 274.416 148.19 276.084 148.073C280.502 147.758 282.943 147.458 286.91 149.318C290.494 150.98 293.657 153.428 296.165 156.48C297.487 157.877 297.125 156.156 284.438 169.44C281.153 172.78 278.4 176.607 276.278 180.785C275.914 181.625 275.813 181.358 270.206 182.959L270.204 182.957ZM352.222 281.023C351.437 281.707 345.372 286.757 344.4 286.363C344.148 286.262 343.877 286.214 343.606 286.219C343.334 286.226 343.068 286.284 342.818 286.394C342.571 286.505 342.348 286.663 342.161 286.86C341.974 287.057 341.827 287.287 341.731 287.542C341.611 287.851 341.582 288.502 340.824 288.787C337.33 290.551 337.45 290.746 337.306 290.29C336.986 289.272 336.242 289.382 335.105 289.476C334.745 289.486 334.404 289.63 334.147 289.879C333.89 290.131 333.737 290.47 333.718 290.827C333.437 292.433 333.019 292.21 329.755 293.227C328.771 293.537 329.405 292.351 328.33 291.953C326.21 291.168 325.039 292.193 324.754 293.556C324.61 294.25 324.691 294.182 321.235 294.646C319.714 294.847 320.916 293.462 319.229 292.966C316.685 292.212 316.205 294.346 315.526 294.118C314.304 293.707 314.498 293.158 314.237 291.384C315.905 281.784 316.205 286.709 309.482 280.49C300.362 272.059 293.448 263.911 291.415 251.839C288.336 233.573 299.045 218.33 312.482 205.651C313.142 205.123 312.619 204.662 316.147 214.123C321.034 225.968 329.232 236.153 339.761 243.456C342.302 245.249 342.744 245.047 342.35 245.875C341.938 246.521 341.686 247.258 341.616 248.021C341.544 248.784 341.659 249.554 341.947 250.265C353.244 266.858 362.258 272.261 352.224 281.026L352.222 281.023ZM421.032 228.593C419.242 231.06 415.682 233.191 416.866 241.056C417.264 246.701 418.502 252.252 420.542 257.53C429.502 283.346 433.536 282.605 424.954 290.227C422.746 292.178 420.384 293.95 417.893 295.524C416.789 296.23 416.594 294.72 415.315 295.709C414.746 296.15 414.05 296.556 414.05 297.454C414.05 297.902 413.69 297.934 409.901 299.933C409.306 300.245 409.867 299.059 408.403 298.891C407.275 298.762 405.802 299.086 405.744 300.317C405.67 301.93 404.707 301.927 401.532 302.918C400.558 303.221 401.47 301.682 399.612 301.286C399.074 301.106 398.491 301.121 397.963 301.33C397.438 301.536 397.001 301.925 396.732 302.424C395.882 304.296 397.056 303.763 392.345 304.363C391.075 304.524 392.585 303.127 390.766 302.599C390.211 302.383 389.604 302.335 389.023 302.458C388.44 302.582 387.905 302.87 387.485 303.293C386.962 303.734 387.334 304.301 385.805 303.156C385.385 302.842 385.565 300.055 385.618 299.662C385.896 297.727 386.412 296.405 386.522 294.938C386.681 292.834 383.83 293.827 375.401 284.561C356.417 263.681 360.149 242.719 358.958 242.652C358.754 242.652 358.517 243.17 358.478 243.372C357.398 249.89 359.278 251.213 357.895 250.771C346.81 247.318 336.886 240.888 329.206 232.181C317.662 219.821 314.642 205.558 311.803 195.701C311.369 194.194 329.875 186.797 340.212 179.381C346.846 174.788 352.394 168.797 356.462 161.83C362.326 152.616 363.235 144.691 363.182 134.686C363.182 133.44 362.844 132.199 362.777 130.954C362.566 128.886 362.158 126.842 361.555 124.853C357.955 110.518 348.29 102.226 338.338 100.452C335.364 99.8486 332.294 99.8782 329.333 100.538C328.147 100.898 328.078 101.738 328.634 101.722C333.156 101.515 336.314 100.891 341.177 102.602C346.802 104.574 351.624 108.341 354.898 113.323C358.181 118.368 360.293 124.084 361.08 130.051C362.04 139.361 362.345 140.251 359.738 150.833C357.49 159.972 348.65 172.709 336.264 180.312C325.464 186.95 295.788 201.108 291.144 206.03C288.941 208.368 281.364 206.894 277.546 197.664C272.616 185.748 278.006 178.289 286.759 168.953C301.601 153.125 314.614 147.636 314.94 126.878C314.945 126.632 314.894 126.387 314.794 126.162C314.695 125.937 314.546 125.736 314.359 125.575C313.932 125.652 313.951 126.019 313.999 127.164C313.932 135.271 310.795 143.052 305.218 148.937C301.682 152.623 299.863 154.517 298.865 155.383C297.358 156.689 298.322 155.767 292.992 151.598C290.798 149.766 288.254 148.4 285.516 147.582C282.778 146.765 279.9 146.514 277.061 146.844C265.442 147.564 248.455 152.294 242.021 156.382C241.274 156.862 240.314 155.525 240.78 154.375C242.196 150.866 243.542 150.502 248.525 145.637C249.73 144.625 250.706 143.373 251.398 141.96C252.089 140.547 252.475 139.005 252.533 137.434C252.542 136.017 252.202 134.62 251.537 133.368C250.872 132.117 249.907 131.05 248.729 130.265C238.997 122.477 223.769 130.57 220.514 117.305C220.45 117.034 220.514 116.99 220.733 116.93C222.828 116.35 227.419 111.223 227.491 109.01C227.515 108.245 228.274 109.226 231.77 107.93C236.227 106.279 238.202 102.437 241.236 97.2096C246.05 88.9128 255.72 86.6976 265.476 85.6896C266.491 85.5864 274.872 84.9696 275.585 85.1808C275.189 85.8823 274.752 86.5603 274.277 87.2112C271.068 91.6608 271.157 95.3568 271.942 94.6944C272.974 91.1842 274.721 87.9254 277.073 85.1232C280.222 81.0744 287.431 74.664 289.49 79.2936C291.65 84.1584 291.394 90.5016 290.652 95.784C289.742 102.264 289.267 101.222 290.198 102.173C291.427 100.548 292.214 93.8664 292.373 91.8528C292.982 84.0744 291.461 83.3208 292.514 82.9536C324.73 71.7168 362.218 82.728 381.902 126.283C389.717 143.563 375.955 126.763 413.194 155.167C439.954 175.579 437.909 205.32 421.034 228.595L421.032 228.593ZM444.571 201.25C443.35 202.811 441.821 204.104 440.081 205.049C438.338 205.995 436.421 206.572 434.448 206.746C431.635 206.326 434.995 207.007 434.971 190.066C434.83 186.787 434.309 183.536 433.421 180.377C432.89 177.679 437.345 171.06 438.924 173.568C440.285 175.728 439.488 181.121 441.528 179.386C442.565 178.507 443.179 177.341 444.029 177.586C446.018 178.157 443.134 183.946 445.812 183.437C445.966 183.408 446.102 183.312 446.254 183.276C449.926 182.414 446.16 188.851 444.396 191.959C442.488 195.319 447.036 193.714 447.096 195.463C447.079 196.547 446.846 197.616 446.414 198.61C445.982 199.604 445.356 200.502 444.574 201.252L444.571 201.25Z" fill="black"/>
<path d="M247.337 105.206C247.291 105.271 247.258 105.345 247.238 105.423C247.219 105.501 247.217 105.582 247.231 105.661C247.243 105.74 247.272 105.815 247.315 105.883C247.358 105.951 247.414 106.01 247.478 106.056C248.904 107.326 251.558 98.7888 255.182 96.8016C255.235 96.7486 255.271 96.6794 255.281 96.6048C255.156 96.5251 255.026 96.4538 254.892 96.3912C250.454 98.112 248.472 103.661 247.337 105.206Z" fill="black"/>
<path d="M251.868 103.838C251.64 103.927 251.446 104.087 251.316 104.295C251.186 104.503 251.129 104.748 251.15 104.992C251.172 105.236 251.273 105.466 251.438 105.648C251.602 105.829 251.822 105.952 252.062 105.998C253.565 106.248 253.176 103.903 251.868 103.838Z" fill="black"/>
<path d="M277.757 274.26C270.154 269.7 269.789 269.172 269.82 268.078C269.851 266.983 279.084 270.559 284.426 269.503C285.221 269.347 285.706 268.334 284.765 267.823C278.39 264.35 277.325 263.542 274.375 261.686C272.294 260.371 270.576 259.08 270.571 257.407C270.528 228.322 195.521 163.505 136.966 186.974C114.115 196.133 83.5728 219.338 72.744 231.566C70.5165 234.096 68.4941 236.799 66.696 239.65C67.2696 240.022 74.1216 237.888 76.6824 239.513C77.2368 239.866 76.5336 240.415 75.936 240.233C73.8432 239.621 70.5432 240.746 68.46 240.78C57.8448 240.948 44.1552 249.926 37.74 257.791C29.3832 268.032 28.0224 279.974 28.6416 282.511C28.9944 283.966 27.3288 283.471 24.66 286.315C6.48717 305.755 28.0752 317.071 26.2296 333.386C25.2 342.506 17.976 345.785 20.8296 356.508C22.9008 364.296 30.8136 369.007 31.3896 367.548C31.9656 366.089 26.3496 361.068 25.4352 356.832C25.3848 356.592 25.6752 356.395 25.8216 356.592C26.5896 357.552 27.5568 359.561 28.6728 361.042C29.5512 362.203 30.624 363.202 31.5984 364.298C31.944 364.685 32.4408 364.109 32.388 363.946C31.6968 360.756 30.6787 357.646 29.3496 354.665C28.8336 353.839 31.2696 351.744 33.648 366.775C33.7584 367.469 34.7976 368.021 35.0256 366.814C35.9496 361.93 35.1 352.452 31.488 347.215C28.7856 343.291 28.788 343.572 28.4688 343.855C27.4869 344.858 26.3133 345.655 25.0176 346.195C25.1784 344.969 26.6832 344.858 29.724 340.015C35.0592 331.522 34.0896 326.174 31.7016 317.561C29.3136 308.947 27.54 304.807 27.7128 300.816C27.7526 299.179 28.2319 297.583 29.1005 296.196C29.969 294.811 31.1949 293.683 32.6496 292.932C33.8304 292.361 33.1632 292.452 33.1992 290.556C33.1905 290.359 33.2335 290.165 33.3235 289.99C33.4137 289.814 33.5479 289.666 33.7128 289.558C35.6736 291.845 36.7152 307.078 52.2576 314.885C58.4016 318.146 65.5181 319.073 72.2928 317.496C86.0808 315.538 86.2128 315.492 88.0416 318.518C88.1964 318.83 88.265 319.181 88.2405 319.529C88.2161 319.877 88.0994 320.213 87.9024 320.501C87.5448 321.319 87.7848 321.391 86.6424 318.514C86.4984 318.151 86.328 317.748 85.848 317.748C69.2448 317.762 68.436 324.062 50.7408 316.289C49.7424 315.85 50.7216 317.309 50.7624 318.386C50.9592 323.568 50.1816 325.865 47.2344 332.105C46.1817 333.713 45.0398 335.258 43.8144 336.739C41.1096 340.603 46.7448 347.976 46.9632 357.547C47.2286 362.309 46.8768 367.082 45.9168 371.753C43.8936 379.937 48.2184 377.993 51.1464 381.158C51.8832 381.958 51.288 382.202 51.684 384.624C51.8145 385.426 51.9876 386.22 52.2024 387.002C53.3712 389.282 54.8136 389.074 54.7992 389.582C56.8517 389.964 58.9428 390.098 61.0272 389.978C62.153 389.983 63.2657 389.738 64.2869 389.263C65.3078 388.79 66.2124 388.097 66.936 387.235C67.7688 386.254 67.416 385.958 66.804 384.744C66.6816 384.504 64.464 380.405 64.296 380.165C62.3601 377.702 60.5561 375.139 58.8912 372.485C58.5105 371.846 58.2746 371.134 58.2 370.392C58.1253 369.653 58.2139 368.906 58.4592 368.206C64.6488 334.188 60.4656 352.663 81.7896 329.362C88.9176 321.574 87.0288 318.833 88.2336 325.486C88.6495 329.362 88.7779 333.264 88.6176 337.159C87.48 342.312 92.6976 340.118 109.126 349.13C114.71 352.193 114.355 356.738 119.41 358.01C125.666 356.616 123.97 356.028 125.832 358.858C126.297 359.273 126.729 359.724 127.126 360.206C127.395 360.415 127.637 360.658 127.846 360.926C128.762 361.73 135.509 361.21 139.781 358.066C140.271 357.708 140.667 357.235 140.935 356.69C140.628 355.886 140.143 355.159 139.882 354.314C139.603 353.95 137.722 352.058 137.47 351.823C131.93 346.392 132.37 350.342 117.73 338.928C114.782 336.871 112.278 334.241 110.369 331.195C109.217 328.454 117.286 319.022 118.934 303.746C121.063 284.009 114.007 276.9 114.907 276.338C115.023 276.271 115.151 276.228 115.284 276.211C115.418 276.197 115.553 276.209 115.681 276.25C115.809 276.29 115.927 276.355 116.027 276.444C116.128 276.533 116.209 276.641 116.266 276.763C121.601 285.835 121.786 298.946 119.738 308.695C119.705 308.846 119.7 308.585 119.772 309.845C124.853 307.982 129.768 305.693 134.462 303C135.494 302.434 136.45 301.73 137.477 301.145C137.657 301.066 137.805 300.926 137.897 300.754C137.989 300.578 138.02 300.379 137.986 300.185C136.909 291.881 137.755 283.442 140.458 275.518C141.845 271.711 141.984 270.982 142.361 270.319C142.649 269.81 143.844 269.782 143.654 270.434C143.654 270.482 141.557 276.526 140.83 280.128C140.83 280.181 138.941 288.929 138.926 290.899C138.681 294.91 138.944 298.934 139.709 302.88C142.843 312.132 144.122 313.44 145.32 319.169C148.956 336.581 147.336 339.614 146.746 346.272C146.623 347.664 147.538 348.346 148.625 349.044C151.361 350.796 152.659 350.904 153.701 353.707C154.09 354.754 154.597 355.754 155.21 356.688C157.385 360.012 172.205 357.557 168.998 354.168C167.952 353.064 167.986 352.267 165.29 348.792C163.523 346.901 162.047 344.755 160.91 342.43C159.554 339.991 160.032 336.725 161.501 328.298C163.34 317.561 166.89 307.19 172.015 297.578C182.16 275.275 183.074 273.619 183.535 272.479C192.876 249.12 190.553 251.861 191.803 249.842C192.067 249.42 192.833 249.324 192.874 250.202C192.9 250.764 192.288 252.581 191.705 255.106C188.136 270.518 170.311 301.102 171.734 302.22C176.981 306.341 187.421 306.893 193.382 310.658C194.513 311.378 196.236 312.79 194.808 313.198C193.459 313.584 188.542 312.446 189.218 318.358C184.644 317.878 184.474 318.271 181.951 323.844C180.84 326.304 179.791 330.53 181.435 332.878C182.057 333.766 182.314 333.211 183.502 332.971C190.668 331.531 192.182 328.853 194.016 329.17C196.598 329.614 200.064 326.462 201.761 323.734C203.458 321.005 209.254 319.682 209.273 316.534C209.347 304.342 207.727 303.25 198.814 296.748C193.735 293.045 192.156 286.373 197.986 284.028C206.585 280.572 205.454 284.779 202.265 278.323C201.277 276.542 200.684 274.572 200.523 272.544C200.363 270.516 200.64 268.476 201.336 266.563C203.014 261.732 206.045 257.482 210.067 254.323C216.434 249.569 218.256 252.48 216.456 252.898C210.914 254.179 202.946 262.992 202.56 270.965C202.27 276.965 208.702 283.846 210.199 290.182C211.377 294.461 212.007 298.872 212.074 303.31C212.077 303.958 212.228 304.596 212.515 305.174C212.802 305.755 213.218 306.264 213.73 306.658C214.243 307.054 214.839 307.327 215.473 307.459C216.107 307.589 216.762 307.574 217.39 307.414C218.364 307.087 217.123 309.787 220.205 310.534C222.758 311.15 222.862 309.106 225.542 310.322C235.085 314.654 240.564 308.597 235.975 303.953C235.176 303.144 235.795 302.004 236.503 301.099C237.552 299.758 239.095 299.107 242.902 297.242C250.622 293.357 257.53 288.031 263.254 281.554C267.233 275.774 264.084 278.338 274.188 280.198C275.302 280.402 280.958 281.158 281.035 281.158C287.878 281.21 287.546 280.994 287.892 280.046C288.295 278.926 285.643 278.978 277.757 274.26ZM270.778 261.845C270.871 260.645 270.749 261.298 274.903 263.784C282.612 268.399 283.303 268.358 281.623 268.282C278.153 267.924 274.718 267.269 271.361 266.318C270.053 265.944 270.427 266.309 270.778 261.84V261.845ZM64.0344 387.624C63.9336 387.73 63.8544 387.895 63.7296 387.934C63.1584 388.114 63.1656 388.162 60.9528 384.094C60.288 382.872 61.6728 382.279 62.2128 383.657C62.6916 385.034 63.3014 386.364 64.0344 387.624ZM59.1552 379.728C60.2736 379.306 61.6152 378.3 61.7616 378.581C62.8344 380.621 55.8384 382.466 54.0456 382.589C53.1384 382.39 52.7304 381.934 54.1176 381.506C54.72 381.322 56.0256 380.906 59.1552 379.728ZM132.835 353.88C133.951 354.12 137.057 358.769 136.126 358.992C136.052 358.997 135.978 358.982 135.91 358.954C135.842 358.922 135.782 358.879 135.734 358.822C134.615 357.36 133.42 355.961 132.154 354.626C131.743 354.074 132.48 353.806 132.845 353.88H132.835ZM129.439 348.48C129.806 348.24 130.116 348.739 130.054 348.96C129.862 349.613 128.582 351 126.638 354.869C124.375 359.366 125.446 351.12 129.439 348.48ZM165.098 356.724C164.362 357.113 164.206 356.839 161.604 353.078C161.447 352.766 161.311 352.447 161.196 352.118C160.843 351.43 161.916 351.012 162.84 352.558C163.669 353.902 164.424 355.291 165.098 356.719V356.724ZM163.032 348.859C163.161 348.881 163.281 348.936 163.38 349.02C163.48 349.106 163.554 349.214 163.596 349.339C160.601 350.182 157.519 350.674 154.411 350.806C154.394 350.635 154.444 350.465 154.549 350.33C154.655 350.196 154.808 350.11 154.978 350.086C157.524 349.032 160.287 348.61 163.032 348.854V348.859ZM182.316 328.102C181.745 328.21 181.356 327.355 182.04 327.142C188.345 325.238 187.67 325.75 188.258 326.239C187.099 327.36 186.271 327.343 182.316 328.097V328.102ZM192.542 326.856C192.114 324.504 191.369 322.219 190.327 320.066C188.998 317.071 193.529 322.438 193.822 326.659C193.92 328.066 192.823 327.84 192.542 326.851V326.856ZM225.036 295.87C224.249 297.055 223.757 294.314 223.135 293.777C222.415 295.08 219.478 304.166 219.331 304.603C219.226 304.922 219.137 305.388 218.671 305.302C218.206 305.215 218.191 304.721 218.256 304.342C218.794 300.257 220.063 296.302 222.002 292.668C221.386 292.406 220.445 292.085 220.999 291.689C223.306 290.059 226.512 293.64 225.036 295.865V295.87ZM231.17 306.002C229.687 305.364 230.249 307.397 228.965 307.224C227.242 306.984 226.474 304.063 228.926 303.895C229.813 303.866 230.693 304.066 231.481 304.474C232.269 304.882 232.94 305.484 233.429 306.226C233.638 306.586 233.799 306.972 233.909 307.375C232.8 307.764 233.76 307.114 231.17 306.002ZM240.727 248.57C240.149 247.771 239.393 247.118 238.517 246.667C231.641 242.827 226.037 242.921 229.286 242.074C231.467 242.29 233.601 242.846 235.61 243.72C242.719 246.802 241.498 249.264 240.72 248.566L240.727 248.57ZM233.594 239.794C219.895 236.038 219.331 246.007 238.394 253.862C238.588 253.966 238.758 254.107 238.894 254.28C236.707 255.782 223.723 249.59 222.094 242.626C220.284 234.842 238.344 236.542 244.363 244.37C244.843 244.982 244.711 244.642 244.798 245.388C243.014 245.052 240.893 241.788 233.594 239.789V239.794ZM245.834 276.317C245.016 277.111 243.074 276.557 243.523 275.263C243.763 274.567 244.274 274.658 245.244 274.692C245.422 274.711 245.592 274.781 245.734 274.891C245.875 275.002 245.983 275.148 246.043 275.318C246.106 275.486 246.12 275.669 246.082 275.844C246.046 276.022 245.959 276.182 245.834 276.312V276.317ZM247.889 279.127C247.632 279.223 247.351 279.223 247.094 279.127C248.921 277.589 250.106 275.426 250.421 273.06C250.45 272.227 250.27 271.402 249.895 270.66C249.521 269.916 248.966 269.278 248.282 268.805C247.488 268.243 248.378 267.391 249.329 267.65C253.224 268.711 254.558 276.07 247.889 279.12V279.127ZM274.874 278.491C269.959 277.723 265.279 275.851 261.192 273.014C257.105 270.178 253.716 266.448 251.278 262.111C249.883 259.327 249.523 256.14 250.26 253.116C250.783 251.107 252.05 249.374 253.802 248.266C255.557 247.157 257.666 246.754 259.704 247.142C261.223 247.474 262.627 248.206 263.77 249.262C264.914 250.318 265.752 251.659 266.203 253.15C266.652 254.638 266.695 256.222 266.33 257.734C265.963 259.246 265.198 260.63 264.115 261.749C263.635 262.308 263.302 262.294 262.884 261.698C259.157 256.375 261.365 253.654 260.506 253.181C258.432 252.038 256.946 259.433 264.276 266.443C270.643 271.898 277.764 276.406 285.42 279.823C281.873 279.684 278.345 279.238 274.874 278.486V278.491Z" fill="black"/>
</svg>
