<svg viewBox="0 0 480 480" fill="none" xmlns="http://www.w3.org/2000/svg">
<path d="M162.322 196.53C162.586 196.314 162.322 195.882 162.058 196.05C155.072 200.275 113.447 228.073 109.63 230.617C109.366 230.809 109.63 231.241 109.894 231.049C123.673 222.36 158.553 199.266 162.322 196.53ZM163.354 179.318C163.388 179.284 163.41 179.24 163.417 179.191C163.423 179.143 163.412 179.095 163.387 179.053C163.363 179.012 163.324 178.98 163.279 178.962C163.234 178.945 163.184 178.944 163.138 178.958C157.977 181.791 91.1222 222.167 85.433 225.72C85.3884 225.749 85.357 225.794 85.3458 225.846C85.3345 225.898 85.3443 225.952 85.373 225.996C85.4016 226.041 85.4468 226.072 85.4986 226.083C85.5503 226.095 85.6045 226.085 85.649 226.056C95.9233 220.055 157.785 182.991 163.354 179.318ZM128.09 186.808C128.133 186.792 128.172 186.767 128.205 186.735C128.237 186.702 128.262 186.663 128.278 186.62C128.293 186.577 128.299 186.531 128.294 186.485C128.29 186.439 128.276 186.395 128.252 186.356C128.229 186.316 128.197 186.282 128.159 186.257C128.122 186.231 128.078 186.214 128.033 186.206C127.988 186.199 127.942 186.202 127.897 186.215C127.853 186.227 127.813 186.249 127.778 186.28C121.825 189.4 86.2491 210.285 82.9604 212.133C82.9223 212.176 82.8988 212.229 82.8935 212.286C82.8882 212.342 82.9014 212.399 82.9311 212.448C82.9608 212.497 83.0054 212.534 83.0583 212.555C83.1112 212.577 83.1695 212.58 83.2245 212.565C94.939 205.988 124.874 188.824 128.09 186.808ZM193.384 271.69C194.221 271.417 194.99 270.969 195.64 270.375C196.29 269.782 196.806 269.057 197.153 268.248C197.501 267.439 197.672 266.566 197.656 265.686C197.639 264.806 197.435 263.939 197.057 263.144C196.865 263.144 196.505 263.144 196.553 263.336C197.297 268.306 194.633 270.538 193.216 271.09C192.856 271.282 193 271.834 193.384 271.69ZM189.544 265.977C189.409 266.104 189.245 266.197 189.067 266.247C188.889 266.297 188.701 266.304 188.519 266.266C188.338 266.228 188.168 266.148 188.025 266.03C187.881 265.913 187.768 265.763 187.695 265.593C187.191 264.753 185.463 256.687 185.055 256.303C185.015 256.269 184.968 256.245 184.917 256.233C184.866 256.222 184.814 256.223 184.763 256.238C184.713 256.252 184.667 256.279 184.63 256.315C184.593 256.352 184.566 256.397 184.551 256.447C184.915 259.2 185.493 261.921 186.279 264.585C186.328 265.09 186.503 265.574 186.788 265.994C187.074 266.413 187.46 266.754 187.911 266.985C188.09 267.067 188.284 267.112 188.481 267.116C188.677 267.12 188.873 267.084 189.055 267.01C189.237 266.936 189.402 266.825 189.54 266.684C189.678 266.544 189.785 266.377 189.856 266.193C189.808 266.001 189.544 265.833 189.544 265.977ZM193.384 258.319C193.168 256.994 192.855 255.686 192.448 254.406C192.432 254.351 192.406 254.3 192.37 254.255C192.335 254.21 192.29 254.172 192.24 254.145C192.19 254.117 192.135 254.099 192.078 254.092C192.021 254.086 191.963 254.091 191.908 254.106C191.853 254.122 191.801 254.149 191.757 254.184C191.712 254.22 191.674 254.264 191.646 254.314C191.618 254.364 191.601 254.42 191.594 254.477C191.588 254.534 191.592 254.591 191.608 254.647C191.909 255.95 192.294 257.233 192.76 258.487C192.808 258.531 192.866 258.561 192.928 258.576C192.991 258.591 193.056 258.591 193.118 258.574C193.18 258.557 193.237 258.525 193.284 258.481C193.33 258.436 193.365 258.381 193.384 258.319ZM181.718 258.295C181.683 258.213 181.616 258.147 181.533 258.113C181.45 258.08 181.357 258.08 181.274 258.115C181.191 258.15 181.126 258.217 181.092 258.3C181.058 258.383 181.059 258.477 181.094 258.559C181.381 259.681 181.843 260.75 182.462 261.728C182.51 261.756 182.563 261.772 182.618 261.776C182.673 261.78 182.728 261.771 182.779 261.75C182.83 261.729 182.876 261.697 182.912 261.656C182.949 261.614 182.976 261.565 182.99 261.512C182.731 260.382 182.302 259.297 181.718 258.295ZM193.793 251.43C193.961 251.43 194.105 251.43 194.177 251.142C194.249 250.854 193.697 250.062 193.288 249.87C191.488 249.101 189.352 250.302 189.544 251.262C189.52 251.339 189.522 251.422 189.551 251.497C189.58 251.573 189.633 251.636 189.702 251.678C189.771 251.719 189.852 251.736 189.933 251.726C190.013 251.716 190.087 251.679 190.144 251.622C190.603 251.115 191.245 250.81 191.929 250.774C192.612 250.738 193.282 250.974 193.793 251.43ZM180.326 254.046C180.326 254.046 180.494 253.902 180.494 253.782C180.494 253.662 179.942 253.23 179.677 253.23C178.429 253.23 177.421 254.358 177.757 254.887C177.777 254.927 177.807 254.961 177.846 254.985C177.884 255.009 177.928 255.022 177.973 255.022C178.018 255.022 178.062 255.009 178.101 254.985C178.139 254.961 178.169 254.927 178.189 254.887C178.368 254.498 178.69 254.193 179.088 254.036C179.486 253.88 179.93 253.883 180.326 254.046ZM293.438 279.9C293.678 279.66 293.438 279.084 293.054 279.252C292.639 279.504 292.163 279.638 291.678 279.642C291.193 279.645 290.715 279.517 290.297 279.27C289.878 279.024 289.534 278.669 289.301 278.243C289.068 277.818 288.955 277.337 288.973 276.851C288.973 276.73 288.925 276.614 288.84 276.529C288.754 276.443 288.638 276.395 288.517 276.395C288.396 276.395 288.28 276.443 288.195 276.529C288.109 276.614 288.061 276.73 288.061 276.851C288.037 277.489 288.189 278.121 288.499 278.678C288.81 279.235 289.268 279.696 289.823 280.011C290.378 280.325 291.008 280.482 291.646 280.462C292.284 280.442 292.904 280.248 293.438 279.9ZM298.479 273.827C299.319 273.395 299.175 272.146 299.271 271.426C299.392 270.25 299.968 264.801 299.92 264.225C299.872 263.648 299.392 263.769 299.295 264.225C299.055 265.137 298.599 271.738 298.527 272.65C298.527 273.131 298.383 273.539 297.807 273.563C297.345 273.514 296.905 273.34 296.535 273.059C296.497 273.047 296.457 273.048 296.42 273.06C296.383 273.073 296.35 273.096 296.327 273.127C296.303 273.159 296.29 273.197 296.288 273.236C296.287 273.275 296.298 273.314 296.319 273.347C296.919 273.683 297.567 274.235 298.479 273.827ZM292.166 263.528C292.004 264.488 291.956 265.463 292.022 266.433C292.06 266.479 292.108 266.515 292.162 266.54C292.216 266.565 292.275 266.578 292.334 266.578C292.393 266.578 292.452 266.565 292.506 266.54C292.56 266.515 292.608 266.479 292.646 266.433C292.863 265.445 293.007 264.442 293.078 263.432C293.065 263.311 293.005 263.201 292.911 263.124C292.816 263.047 292.695 263.012 292.574 263.024C292.453 263.037 292.342 263.097 292.266 263.192C292.189 263.286 292.153 263.408 292.166 263.528ZM303.688 267.993C303.711 268.088 303.765 268.172 303.841 268.232C303.917 268.292 304.012 268.324 304.109 268.324C304.206 268.324 304.3 268.292 304.376 268.232C304.452 268.172 304.506 268.088 304.529 267.993C304.529 267.993 304.697 266.073 304.697 265.593C304.672 265.487 304.613 265.392 304.528 265.324C304.443 265.256 304.337 265.219 304.229 265.219C304.12 265.219 304.014 265.256 303.929 265.324C303.844 265.392 303.785 265.487 303.76 265.593C303.712 266.073 303.664 267.921 303.688 267.993ZM306.473 262.4C307.529 262.4 305.465 260.384 304.577 259.712C304.547 259.683 304.511 259.661 304.473 259.646C304.434 259.632 304.393 259.625 304.352 259.626C304.311 259.627 304.27 259.636 304.233 259.653C304.195 259.67 304.161 259.694 304.133 259.724C304.104 259.754 304.082 259.789 304.067 259.827C304.052 259.866 304.045 259.907 304.047 259.948C304.048 259.989 304.057 260.03 304.074 260.068C304.091 260.105 304.115 260.139 304.145 260.168C304.457 260.576 306.569 262.4 306.473 262.4ZM290.125 260.168C291.089 259.19 292.209 258.379 293.438 257.767C293.63 257.767 293.438 257.191 293.222 257.215C291.733 257.628 290.456 258.588 289.645 259.904C289.453 260.072 289.885 260.408 290.125 260.168ZM407.727 254.479C407.794 254.504 407.868 254.502 407.933 254.473C407.999 254.443 408.05 254.389 408.075 254.322C408.101 254.256 408.098 254.181 408.069 254.116C408.04 254.051 407.986 254 407.919 253.974C406.191 252.918 354.676 232.37 350.307 230.761C350.067 230.761 349.971 231.049 350.307 231.145C365.19 237.147 405.591 253.878 407.727 254.479ZM357.58 220.271C373.088 225.072 412.432 239.259 416.825 240.579C417.089 240.579 417.257 240.243 417.017 240.123C413.368 238.419 362.213 220.919 357.748 219.647C357.665 219.625 357.577 219.636 357.503 219.679C357.429 219.722 357.374 219.792 357.352 219.875C357.33 219.958 357.341 220.046 357.384 220.12C357.427 220.195 357.497 220.249 357.58 220.271ZM418.481 230.089C418.841 230.089 419.082 229.657 418.745 229.489C414.953 227.761 362.501 208.172 357.94 206.708C351.675 204.932 413.2 228.481 418.481 230.089ZM358.132 152.672C358.732 153.829 359.681 154.767 360.845 155.353C362.008 155.94 363.327 156.144 364.614 155.937C367.374 155.745 367.542 154.329 370.327 157.473C371.285 158.596 372.092 159.839 372.727 161.17C372.967 161.698 373.664 161.458 373.832 161.026C374.936 158.362 377.36 152.312 377.649 152.216C377.937 152.12 410.56 141.03 413.248 139.638C414.417 139.118 415.461 138.355 416.31 137.398C417.159 136.442 417.793 135.314 418.169 134.092C418.669 131.268 418.555 128.37 417.833 125.594C417.257 122.186 416.609 118.777 415.913 115.368C415.719 112.648 414.62 110.071 412.792 108.047C411.723 107.305 410.514 106.789 409.239 106.529C407.964 106.269 406.649 106.271 405.375 106.534C402.35 106.87 365.358 118.345 359.549 121.178C353.739 124.01 351.531 126.195 353.283 134.476C353.859 137.861 356.62 150.248 358.132 152.672ZM356.62 123.866C359.02 122.21 405.807 107.278 408.591 107.591C409.96 107.694 411.253 108.258 412.26 109.191C413.267 110.124 413.929 111.371 414.136 112.728C415.639 118.768 416.73 124.904 417.401 131.092C417.49 132.488 417.194 133.881 416.547 135.121C415.899 136.361 414.925 137.4 413.728 138.125C411.328 139.59 377.721 151.424 377.096 151.592C375.505 154.071 374.178 156.71 373.136 159.466C372.168 157.504 370.682 155.844 368.839 154.665C368.142 154.257 367.182 154.017 363.317 154.809C360.293 155.433 358.516 151.904 357.724 149.264C356.013 143.362 354.642 137.367 353.619 131.308C353.36 129.907 353.505 128.461 354.036 127.139C354.567 125.818 355.464 124.674 356.62 123.842V123.866Z" fill="#0B0B14"/>
<path d="M368.094 145.519C367.878 145.519 368.094 145.927 368.094 145.855C374.336 143.623 402.446 133.853 405.351 132.316C405.615 132.316 405.351 131.788 405.159 131.86C402.062 132.604 374.384 143.191 368.094 145.519ZM362.117 138.269C369.559 135.869 377.096 133.828 384.37 131.068C384.421 131.068 384.47 131.048 384.506 131.012C384.542 130.976 384.562 130.927 384.562 130.876C384.562 130.825 384.542 130.776 384.506 130.74C384.47 130.704 384.421 130.684 384.37 130.684C376.856 132.724 369.535 135.485 362.165 138.077C362.151 138.052 362.13 138.032 362.104 138.019C362.078 138.006 362.049 138.001 362.02 138.005C361.992 138.009 361.965 138.021 361.944 138.041C361.922 138.06 361.907 138.085 361.9 138.113C361.893 138.141 361.895 138.171 361.904 138.198C361.914 138.225 361.932 138.248 361.956 138.265C361.979 138.282 362.007 138.291 362.036 138.292C362.064 138.293 362.093 138.285 362.117 138.269ZM364.11 129.244C374.84 126.123 403.19 115.969 404.462 115.152C404.5 115.137 404.535 115.114 404.563 115.085C404.592 115.056 404.615 115.021 404.631 114.983C404.646 114.945 404.654 114.905 404.654 114.864C404.654 114.823 404.646 114.782 404.63 114.744C404.615 114.707 404.592 114.672 404.563 114.643C404.534 114.614 404.499 114.591 404.461 114.576C404.423 114.56 404.383 114.552 404.342 114.552C404.301 114.552 404.26 114.561 404.222 114.576C402.854 114.816 367.062 127.971 364.038 128.979C363.87 129.003 363.942 129.292 364.11 129.244ZM240.939 104.734C240.92 106.674 241.489 108.574 242.571 110.183C243.468 111.285 244.604 112.167 245.894 112.762C247.184 113.357 248.593 113.649 250.013 113.616C253.92 113.516 257.83 113.612 261.727 113.904C261.793 114.655 261.793 115.41 261.727 116.161C261.439 119.545 260.383 120.962 256.926 121.586C256.11 121.586 256.47 122.954 257.286 122.834C257.286 122.834 268.305 127.203 272.074 114.6C324.213 113.832 320.084 113.928 321.452 113.616C322.281 113.444 323.051 113.063 323.69 112.508C324.329 111.953 324.815 111.244 325.101 110.447C325.797 108.719 326.95 88.2426 327.238 83.5135C327.43 80.2248 328.246 75.7119 325.677 73.0953C324.36 71.9216 322.64 71.3023 320.876 71.3669C318.62 71.1989 247.9 75.6878 246.292 76.1679C242.331 77.4402 241.011 80.1288 240.819 84.1857C240.651 88.8427 240.819 102.454 240.939 104.734ZM242.163 83.2495C242.643 78.8565 245.236 77.4162 249.605 76.9121C253.974 76.408 312.162 72.4231 316.627 72.5432C318.727 72.4512 320.831 72.6124 322.893 73.0233C326.733 74.1035 326.229 78.5925 325.989 82.2893C324.381 107.831 324.717 109.679 323.013 111.408C321.308 113.136 321.98 112.392 271.738 113.544C271.601 113.555 271.473 113.614 271.376 113.711C271.28 113.808 271.22 113.936 271.209 114.072C271.033 115.458 270.566 116.791 269.838 117.983C269.111 119.176 268.14 120.201 266.988 120.992C265.837 121.783 264.532 122.322 263.157 122.573C261.783 122.825 260.372 122.783 259.015 122.45C260.639 121.827 261.971 120.62 262.753 119.067C263.534 117.513 263.708 115.723 263.24 114.048C263.196 113.745 263.07 113.459 262.875 113.222C262.68 112.985 262.425 112.806 262.135 112.704C258.244 112.193 254.311 112.081 250.397 112.368C249.051 112.483 247.697 112.255 246.463 111.705C245.229 111.155 244.154 110.301 243.339 109.223C242.376 107.42 241.944 105.381 242.091 103.342C242.067 101.013 241.947 85.2659 242.163 83.2495Z" fill="#0B0B14"/>
<path d="M259.927 87.4024C272.578 87.4024 305.201 87.4024 308.802 87.0904C309.042 87.0904 309.042 86.7063 308.802 86.7063C305.609 86.4662 263.552 87.0664 259.927 87.1864V87.4024ZM258.199 97.7967C269.673 97.5806 299.127 97.1725 302.368 97.0525C302.413 97.0525 302.455 97.0348 302.487 97.0033C302.518 96.9718 302.536 96.9291 302.536 96.8845C302.536 96.8399 302.518 96.7972 302.487 96.7657C302.455 96.7342 302.413 96.7164 302.368 96.7164C290.894 96.7164 261.415 97.3406 258.199 97.4126C257.934 97.4126 257.934 97.8207 258.199 97.7967ZM303.352 105.094C299.464 104.83 283.812 104.974 279.899 105.094C279.842 105.094 279.787 105.117 279.746 105.158C279.706 105.198 279.683 105.253 279.683 105.31C279.683 105.368 279.706 105.423 279.746 105.463C279.787 105.504 279.842 105.526 279.899 105.526C283.812 105.526 299.464 105.838 303.352 105.526C303.41 105.526 303.465 105.504 303.505 105.463C303.546 105.423 303.568 105.368 303.568 105.31C303.568 105.253 303.546 105.198 303.505 105.158C303.465 105.117 303.41 105.094 303.352 105.094ZM98.5638 94.796C99.5612 96.1643 101.05 97.0933 102.717 97.3886C107.086 98.5168 125.234 101.037 129.795 101.397C141.425 102.314 153.108 102.362 164.746 101.542C164.881 103.032 165.349 104.473 166.114 105.759C166.88 107.045 167.924 108.143 169.17 108.973C170.416 109.802 171.832 110.341 173.314 110.55C174.796 110.76 176.306 110.635 177.733 110.183C177.838 110.156 177.933 110.098 178.006 110.017C178.078 109.936 178.125 109.835 178.14 109.727C178.156 109.619 178.139 109.51 178.092 109.411C178.045 109.313 177.97 109.231 177.877 109.175C176.593 108.224 175.576 106.958 174.924 105.498C174.272 104.039 174.008 102.437 174.156 100.845C178.023 101.859 182.105 101.683 185.871 100.341C189.76 98.5889 191.008 95.5402 191.44 91.4593C191.92 86.8983 192.184 68.4143 191.872 63.8053C191.845 61.9608 191.376 60.1496 190.504 58.5242C189.733 57.0253 188.446 55.8568 186.879 55.2354C167.315 48.9701 108.958 46.2815 106.846 46.5215C105.153 46.5929 103.511 47.1187 102.092 48.0438C100.672 48.9688 99.5284 50.2589 98.7799 51.7787C94.0508 62.7971 97.4836 93.1397 98.5638 94.796ZM98.1077 57.78C98.3648 54.6351 99.7857 51.6991 102.093 49.5462C105.213 47.1457 109.486 47.6258 113.183 47.8418C135.263 48.7345 157.273 50.9066 179.101 54.3472C185.199 55.4035 189.904 56.5557 190.576 62.8451C191.521 73.5381 191.174 84.306 189.544 94.9161C188.78 96.6405 187.504 98.0882 185.889 99.063C184.275 100.038 182.399 100.492 180.518 100.365C175.717 100.485 173.316 98.9969 173.316 100.053C173.049 101.752 173.205 103.491 173.771 105.116C174.336 106.74 175.293 108.201 176.557 109.367C175.239 109.57 173.894 109.496 172.606 109.15C171.319 108.804 170.118 108.194 169.079 107.359C168.04 106.523 167.187 105.481 166.573 104.297C165.959 103.114 165.599 101.816 165.514 100.485C145.438 101.686 125.29 100.412 105.525 96.6924C103.603 96.5716 101.751 95.9238 100.172 94.82C98.7559 93.4757 98.8279 91.1712 98.5158 89.3949C97.0979 78.9121 96.9609 68.2958 98.1077 57.78Z" fill="#0B0B14"/>
<path d="M113.039 65.8697C127.634 65.4136 165.13 67.8382 169.307 68.0302C169.547 68.0302 169.619 67.6221 169.307 67.6221C134.716 64.7655 117.168 65.4617 112.991 65.6297C112.975 65.6328 112.96 65.6391 112.947 65.648C112.934 65.657 112.922 65.6684 112.913 65.6818C112.904 65.6952 112.898 65.7102 112.895 65.726C112.892 65.7417 112.892 65.758 112.895 65.7737C112.898 65.7895 112.904 65.8045 112.913 65.8178C112.922 65.8312 112.934 65.8426 112.947 65.8516C112.961 65.8605 112.976 65.8667 112.991 65.8698C113.007 65.8729 113.023 65.8729 113.039 65.8697ZM111.311 80.1288C120.193 80.3449 174.468 81.5692 179.437 81.4491C179.63 81.4491 179.63 81.1611 179.437 81.1371C170.58 80.5609 116.28 79.8408 111.311 79.7448C111.071 79.7448 111.071 80.1048 111.311 80.1288ZM167.147 91.4113C164.578 90.9552 140.405 91.4113 135.004 91.7954C134.692 91.7954 134.692 92.2995 135.004 92.2755C140.333 91.8914 164.41 92.0594 167.099 91.8434C167.339 91.8194 167.411 91.4593 167.147 91.4113ZM19.8508 151.448C20.6123 152.433 21.5918 153.227 22.7123 153.768C23.8329 154.31 25.0638 154.584 26.3082 154.569C29.2848 154.713 58.1151 152.289 59.9155 152.169C65.5807 151.88 67.1171 154.209 67.5732 160.138C67.5775 160.272 67.6245 160.401 67.7075 160.505C67.7904 160.61 67.9048 160.686 68.0338 160.721C68.1628 160.756 68.2997 160.748 68.4242 160.7C68.5487 160.651 68.6543 160.564 68.7254 160.45C70.1038 157.504 71.1737 154.423 71.9181 151.256C76.4791 151.736 82.7685 152.625 85.361 147.872C87.8053 138.152 88.0758 128.013 86.1532 118.177C85.9897 117.488 85.5964 116.874 85.0379 116.438C84.4795 116.002 83.7892 115.768 83.0805 115.777C58.4272 114.168 22.6594 115.993 12.5532 116.689C12.4087 116.695 12.2716 116.755 12.1693 116.857C12.0671 116.959 12.007 117.096 12.0011 117.241C11.9051 132.052 18.2424 149.312 19.8508 151.448ZM82.4084 116.593C83.2246 116.593 84.4968 116.593 84.8089 117.505C88.1216 130.684 84.4728 147.488 83.3926 148.544C80.68 151.232 75.2068 150.44 71.39 150.08C71.1019 150.08 69.8777 156.657 68.6054 158.338C68.4805 156.683 67.9709 155.08 67.1171 153.657C66.4287 152.658 65.4756 151.87 64.3647 151.383C63.2538 150.895 62.029 150.727 60.8277 150.896C47.6248 152.505 26.3322 153.753 23.7156 152.841C21.0991 151.928 19.8508 149.024 18.9146 146.503C17.9784 143.983 12.9373 128.523 13.0573 117.649C29.861 116.497 50.3134 116.089 82.4084 116.593Z" fill="#0B0B14"/>
<path d="M25.42 126.075C32.2855 126.075 76.167 125.475 78.0394 125.163C78.3035 125.163 78.2074 124.755 78.0394 124.731C76.335 124.515 29.3088 125.619 25.468 125.691C25.1559 125.715 25.1559 126.099 25.42 126.075ZM30.6051 136.037C30.317 136.037 30.317 136.517 30.6051 136.493C43.4959 135.221 76.8151 134.357 80.4639 134.093C80.5212 134.093 80.5762 134.07 80.6167 134.029C80.6572 133.989 80.68 133.934 80.68 133.877C80.68 133.819 80.6572 133.764 80.6167 133.724C80.5762 133.683 80.5212 133.661 80.4639 133.661C77.2472 133.324 34.2299 135.605 30.6051 136.037ZM58.9793 141.894C56.7468 141.894 47.8648 142.47 45.6564 142.614C45.5863 142.614 45.5192 142.642 45.4696 142.692C45.4201 142.741 45.3923 142.809 45.3923 142.879C45.3923 142.949 45.4201 143.016 45.4696 143.065C45.5192 143.115 45.5863 143.143 45.6564 143.143C47.8648 143.143 56.7708 142.663 58.9793 142.422C59.3153 142.374 59.3153 141.894 58.9793 141.894ZM417.593 421.555C417.065 420.667 414.665 416.754 413.968 415.602C415.134 414.621 416.174 413.5 417.065 412.265C417.065 412.265 395.22 370.376 379.473 352.684C363.726 334.992 358.324 330.911 351.003 330.095C343.681 329.279 331.799 337.777 326.71 341.978C321.908 345.819 315.091 352.9 313.987 353.98C311.586 353.98 309.186 354.1 306.785 354.245C308.047 352.293 309.139 350.237 310.05 348.099C313.459 340.634 311.562 337.921 307.649 325.534C319.964 327.647 333.599 327.623 343.369 320.013C358.204 308.515 365.718 281.869 370.567 264.801C370.597 264.685 370.59 264.562 370.547 264.451C370.504 264.339 370.427 264.243 370.327 264.177L369.367 263.649C372.905 262.249 376.017 259.948 378.393 256.975C388.709 260.19 399.242 262.661 409.912 264.369C423.571 265.689 428.924 258.152 434.397 245.669C436.39 241.794 437.697 237.603 438.262 233.282C438.468 231.344 438.267 229.384 437.672 227.528C437.076 225.672 436.1 223.961 434.805 222.504C431.892 219.792 428.497 217.651 424.795 216.19C420.762 214.246 369.583 196.986 360.677 195.042C356.644 194.106 352.059 192.641 347.906 193.626C346.2 194.235 344.638 195.189 343.316 196.427C341.995 197.666 340.942 199.164 340.224 200.827C336.204 208.611 333.756 217.111 333.023 225.841C332.039 235.947 334.487 240.844 347.882 242.98C347.988 246.512 346.733 249.949 344.377 252.582C344.377 252.702 344.377 253.135 344.569 253.159C347.126 253.212 349.666 252.744 352.036 251.783C354.405 250.821 356.553 249.386 358.348 247.565C361.735 249.118 365.253 250.363 368.863 251.286C363.293 255.487 363.846 258.992 364.062 259.808C363.346 259.181 362.665 258.516 362.021 257.816C361.937 257.736 361.825 257.692 361.709 257.692C361.593 257.692 361.482 257.736 361.397 257.816C351.651 265.281 338.424 283.189 335.591 286.454C328.87 294.111 324.525 295 315.427 292.887C315.427 292.623 315.067 278.148 320.06 270.01C325.053 261.872 325.725 249.222 320.06 241.804C314.395 234.386 308.538 235.755 308.538 235.755C305.198 232.281 300.978 229.776 296.329 228.508C291.679 227.24 286.773 227.256 282.132 228.553C265.112 232.49 259.351 240.796 255.726 258.224C252.101 275.651 237.242 285.157 235.994 286.19C230.889 284.34 225.421 283.715 220.03 284.365C219.886 284.221 213.405 271.691 212.829 269.962C214.245 266.481 218.35 256.879 218.35 255.079C218.397 254.231 218.194 253.389 217.768 252.655C217.341 251.921 216.709 251.329 215.949 250.95C217.781 250.264 219.312 248.954 220.272 247.25C221.233 245.547 221.561 243.559 221.2 241.637C220.838 239.714 219.81 237.982 218.296 236.743C216.783 235.505 214.88 234.84 212.925 234.867C212.907 233.154 212.498 231.469 211.728 229.94C210.958 228.41 209.847 227.078 208.482 226.044C207.117 225.01 205.534 224.303 203.853 223.976C202.172 223.65 200.438 223.713 198.786 224.16C196.699 225.258 194.809 226.693 193.192 228.409C187.143 225.336 176.389 223.368 171.42 227.113C169.993 228.244 168.982 229.818 168.548 231.587C168.113 233.356 168.279 235.219 169.019 236.883C169.691 238.323 171.42 239.86 170.628 241.3C168.998 244.464 168.638 248.13 169.619 251.55C170.374 253.487 171.686 255.158 173.388 256.351C174.132 256.855 176.077 258.056 176.461 258.248C177.325 271.33 184.935 278.58 192.544 279.588C192.664 282.661 192.808 285.71 192.952 288.782C183.279 286.964 173.79 284.273 164.602 280.741C164.242 280.38 151.495 243.124 149.527 237.531C149.488 237.415 149.414 237.313 149.315 237.24C149.216 237.167 149.098 237.126 148.975 237.123H144.87C144.102 232.562 149.671 229.009 144.462 223.56C144.678 223.392 155.24 217.055 156.08 216.359C158.616 218.554 161.801 219.857 165.148 220.069C168.495 220.282 171.82 219.392 174.612 217.535C174.702 217.472 174.77 217.384 174.807 217.281C174.844 217.178 174.849 217.067 174.82 216.961C174.791 216.856 174.73 216.762 174.646 216.693C174.561 216.624 174.457 216.582 174.348 216.575C172.302 216.475 170.323 215.812 168.629 214.66C166.935 213.508 165.592 211.911 164.746 210.045C168.067 208.689 171.068 206.653 173.556 204.068C174.865 202.385 175.813 200.451 176.341 198.386C176.87 196.321 176.968 194.17 176.629 192.065C175.918 187.322 174.287 182.764 171.828 178.646C170.58 176.414 166.067 168.492 164.962 166.788C164.062 165.089 162.825 163.592 161.327 162.387C159.828 161.181 158.101 160.294 156.248 159.778C151.447 158.89 146.646 161.315 142.181 163.091C132.987 166.836 80.3439 194.97 76.167 197.73C72.3765 200.187 68.7811 202.931 65.4127 205.94C64.1357 207.749 63.3177 209.842 63.0291 212.037C62.7406 214.233 62.9901 216.465 63.7563 218.543C64.9086 222.816 79.4077 245.093 81.0641 246.629C82.2479 247.805 83.5604 248.844 84.9769 249.726C88.3714 251.133 92.1523 251.303 95.6592 250.206C98.0598 249.51 124.465 235.947 132.051 231.506C133.058 234.174 134.86 236.47 137.212 238.083C136.444 238.227 135.676 238.371 134.812 238.563C133.035 246.905 131.76 255.346 130.995 263.841C129.987 278.076 132.027 292.959 140.597 304.386C149.167 315.812 163.402 321.021 177.517 325.126C176.533 326.951 174.276 341.594 176.365 351.892C176.005 351.892 165.418 350.164 165.298 350.332L164.794 351.028C163.114 350.332 162.01 350.884 160.137 348.027C159.057 346.443 158.025 344.738 155.912 344.57C154.894 344.488 153.871 344.665 152.939 345.084C152.007 345.504 151.196 346.153 150.583 346.971C149.119 348.771 148.15 350.922 147.775 353.212C147.775 353.524 148.039 353.716 148.303 353.74C151.639 354.076 152.144 352.468 153.56 353.74C151.303 353.932 149.023 354.076 146.766 354.221C144.366 351.82 105.477 301.073 102.477 298.36C102.309 298.216 53.4821 302.921 51.8737 303.425C51.6337 303.425 51.9937 304.242 52.1618 304.434C58.4992 310.771 96.2354 354.149 97.9637 355.949C97.9637 356.189 97.9637 356.165 103.125 356.117C103.125 357.701 103.389 359.31 103.581 360.918C103.581 361.022 103.62 361.122 103.692 361.198C103.763 361.274 103.861 361.32 103.965 361.326L108.094 361.158C106.75 362.262 101.06 367.279 91.2903 381.322C84.4568 391.123 78.5348 401.529 73.5984 412.409C74.8083 413.467 76.0918 414.438 77.4393 415.314C76.8151 416.562 73.5264 423.308 73.4784 423.38C70.3337 425.468 63.2042 426.5 61.3078 427.34C60.8339 427.485 60.4005 427.738 60.0423 428.081C59.6842 428.423 59.4113 428.845 59.2455 429.311C59.0798 429.778 59.0258 430.277 59.088 430.769C59.1501 431.26 59.3267 431.73 59.6034 432.141C60.7556 433.846 79.6478 433.654 82.7444 433.102C85.8411 432.55 79.8158 430.701 87.8095 421.411C90.2101 422.491 91.6744 423.043 91.6744 423.043C106.51 415.842 130.083 394.501 141.125 382.883C141.125 382.883 156.585 398.438 166.763 407.32C176.941 416.202 190.264 431.013 215.301 429.525C240.339 428.037 243.651 408.376 243.651 408.376C243.651 408.376 236.906 398.774 238.682 389.796C239.714 390.021 240.719 390.351 241.683 390.78C241.467 395.149 241.683 420.187 271.57 428.733C304.385 438.119 328.558 406.768 336.912 396.398C345.266 386.027 351.147 377.506 351.147 377.506C358.548 388.962 367.739 399.158 378.369 407.704C395.773 421.579 399.973 422.971 399.973 422.971C401.635 422.796 403.257 422.35 404.774 421.651C410.968 425.588 406.743 428.853 409.383 429.309C412.384 429.957 427.747 430.581 428.132 428.277C428.516 425.972 420.162 422.803 417.593 421.555ZM82.0003 426.788C77.1992 428.517 75.2068 423.692 74.7987 422.803C75.3028 421.723 77.4153 417.018 77.9914 415.746C78.9996 416.466 85.505 420.355 87.1614 421.147C86.1772 422.203 82.7684 425.972 81.9763 426.788H82.0003ZM358.492 246.749C358.421 246.702 358.338 246.676 358.252 246.676C358.167 246.676 358.083 246.702 358.012 246.749C354.507 250.017 350.014 252.027 345.242 252.462C346.561 251.134 347.589 249.545 348.258 247.796C348.928 246.047 349.225 244.178 349.13 242.308C349.125 242.176 349.078 242.049 348.996 241.946C348.914 241.842 348.801 241.767 348.674 241.732C334.751 239.524 331.751 235.419 335.447 217.991C336.72 212.014 340.248 200.419 345.049 196.386C348.458 193.506 352.851 194.322 356.86 195.234C365.19 197.106 425.587 217.703 429.14 219.743C436.125 223.776 438.886 229.465 435.117 239.74C433.005 245.501 429.164 254.143 424.723 258.368C418.337 264.465 410.92 263.169 402.422 261.536C392.22 259.616 382.258 257.599 373.208 252.822C373.613 251.788 373.927 250.72 374.144 249.63C374.144 249.198 374.384 248.405 373.904 248.117C372.515 248.742 371.189 249.498 369.943 250.374C366 249.588 362.153 248.381 358.468 246.773L358.492 246.749ZM365.694 255.679C367.703 253.059 370.291 250.939 373.256 249.486C373.135 250.631 372.728 251.728 372.074 252.675C371.42 253.623 370.539 254.392 369.511 254.911C369.399 254.975 369.318 255.08 369.284 255.204C369.25 255.327 369.267 255.46 369.331 255.571C369.394 255.682 369.5 255.764 369.624 255.798C369.747 255.832 369.879 255.815 369.991 255.751C374.12 253.663 369.727 253.351 377.48 256.495C375.824 259.52 369.391 262.641 368.503 263.025C367.13 262.218 365.828 261.294 364.614 260.264C364.584 258.685 364.929 257.122 365.622 255.703L365.694 255.679ZM277.811 269.554C276.467 268.69 274.666 270.178 273.01 266.217C272.645 265.569 272.45 264.839 272.441 264.095C272.432 263.351 272.61 262.616 272.959 261.959C273.308 261.302 273.816 260.743 274.438 260.334C275.059 259.924 275.773 259.677 276.515 259.616C278.795 259.448 278.795 260.456 279.923 261.032C281.052 261.608 288.373 257.84 292.814 251.718C295.045 249.03 296.762 245.954 297.879 242.644C299.551 245.764 301.715 248.592 304.289 251.022C306.116 253.066 308.56 254.456 311.25 254.983C311.25 254.983 313.171 293.391 293.15 289.935C293.15 289.79 291.734 289.094 291.95 289.718C293.083 292.604 293.889 295.607 294.35 298.672C294.663 301.265 293.87 305.034 290.534 304.89C289.06 304.692 287.653 304.149 286.429 303.305C280.517 299.866 275.564 294.996 272.026 289.142C272.314 288.902 279.107 270.442 277.739 269.578L277.811 269.554ZM181.166 270.49C178.247 265.462 176.885 259.681 177.253 253.879C177.44 250.509 177.809 247.151 178.357 243.82C179.475 245.475 181.2 246.622 183.158 247.013C188.341 248.471 193.885 247.905 198.666 245.429C198.613 246.805 198.885 248.174 199.461 249.426C200.037 250.677 200.899 251.775 201.978 252.63C202.026 252.049 202.233 251.492 202.577 251.021C202.921 250.55 203.388 250.183 203.928 249.961C204.467 249.738 205.057 249.669 205.633 249.76C206.209 249.852 206.749 250.1 207.193 250.479C207.636 250.857 207.967 251.351 208.148 251.905C208.33 252.459 208.354 253.053 208.22 253.621C208.085 254.188 207.797 254.708 207.386 255.122C206.975 255.536 206.458 255.828 205.891 255.967C207.846 258.054 209.104 260.696 209.492 263.529C211.268 270.73 218.71 284.293 219.094 284.845C218.43 289.21 216.204 293.185 212.829 296.032C208.028 300.089 200.61 302.393 195.713 298.432C193.312 296.56 193.793 284.245 193.553 278.916C193.547 278.772 193.487 278.635 193.384 278.532C193.282 278.43 193.145 278.37 193 278.364C190.555 278.028 188.217 277.149 186.156 275.791C184.096 274.432 182.366 272.629 181.094 270.514L181.166 270.49ZM96.7635 248.285C93.2854 249.658 89.4349 249.76 85.8891 248.574C84.4008 247.829 63.3962 220.896 64.2844 211.966C64.7165 207.357 68.1012 204.452 71.654 202.027C75.3748 199.267 142.445 163.859 146.958 162.131C151.471 160.402 156.008 159.394 160.017 162.539C162.97 164.939 171.588 179.823 173.436 184.288C176.029 190.481 176.989 198.499 172.62 203.348C170.013 205.87 166.928 207.845 163.546 209.157C163.445 209.216 163.367 209.307 163.323 209.416C163.28 209.525 163.274 209.645 163.306 209.757C164.055 211.741 165.328 213.485 166.989 214.804C168.65 216.123 170.638 216.967 172.74 217.247C170.146 218.647 167.198 219.254 164.262 218.994C161.326 218.733 158.532 217.617 156.224 215.782C155.6 215.278 143.79 222.504 143.55 222.696C142.896 221.968 142.071 221.415 141.149 221.088C140.754 220.958 140.327 220.961 139.933 221.095C139.539 221.229 139.199 221.488 138.965 221.832C138.413 222.816 138.965 224.112 139.421 225.048C139.421 225.312 139.205 225.481 138.869 225.673C131.211 230.282 98.924 247.493 96.6915 248.309L96.7635 248.285ZM132.771 230.906L139.685 226.897C139.366 228.171 139.173 229.474 139.109 230.786C139.109 231.05 139.493 231.218 139.637 230.93C140.043 229.51 140.316 228.055 140.453 226.585C140.801 227.261 141.211 227.904 141.677 228.505C141.845 228.745 142.229 228.505 142.157 228.241C141.773 227.185 138.893 222.552 140.477 221.976C142.061 221.4 144.798 225.216 145.278 225.961C147.198 229.657 143.118 233.378 143.814 237.099C143.19 237.099 139.709 237.459 138.581 237.627C135.849 236.185 133.727 233.807 132.603 230.93L132.771 230.906ZM102.045 298.96C104.445 301.361 142.854 351.484 145.446 354.173L143.046 354.293C140.477 350.692 104.637 303.185 101.661 299.081L102.045 298.96ZM98.3238 355.301C97.0995 353.5 56.3147 307.434 52.9539 303.762C54.1782 303.762 100.652 299.537 100.724 299.441C111.551 313.844 139.133 350.644 142.133 354.293C139.781 354.365 102.957 354.965 98.3238 355.301ZM104.253 360.318C104.109 358.854 103.965 357.389 103.701 355.949C109.942 355.949 151.711 354.701 154.256 354.413C155.073 355.402 156.081 356.218 157.219 356.812C158.357 357.406 159.602 357.765 160.881 357.869C161.097 357.869 161.242 357.461 160.881 357.437C158.405 356.908 156.195 355.523 154.64 353.524C153.992 352.732 153.368 352.012 152.24 352.084C151.127 352.586 149.899 352.777 148.687 352.636C149.15 350.677 150.062 348.853 151.351 347.307C151.964 346.481 152.837 345.885 153.83 345.615C154.823 345.345 155.878 345.417 156.825 345.819C158.361 346.731 158.985 348.723 160.185 349.972C161.196 351.009 162.556 351.634 164.002 351.724C162.743 353.722 161.697 355.846 160.881 358.061C146.334 358.661 108.454 360.102 104.325 360.27L104.253 360.318ZM200.874 384.827C188.079 380.751 175.675 375.537 163.81 369.248C162.364 368.633 161.205 367.492 160.569 366.055C160.065 364.327 164.314 353.14 165.37 350.596C166.499 351.244 177.589 353.332 200.85 354.173C204.283 354.293 207.716 354.173 211.148 353.884C211.236 353.884 211.322 353.863 211.4 353.824C211.478 353.785 211.547 353.728 211.6 353.659C211.653 353.589 211.69 353.509 211.707 353.423C211.725 353.337 211.722 353.249 211.7 353.164C210.524 349.869 209.946 346.389 209.996 342.89C209.978 342.831 209.942 342.778 209.892 342.741C209.842 342.704 209.782 342.684 209.72 342.684C209.658 342.684 209.598 342.704 209.548 342.741C209.498 342.778 209.462 342.831 209.444 342.89C208.881 346.234 209.195 349.666 210.356 352.852C199.21 353.53 188.024 353.184 176.941 351.82C175.639 337.55 177.993 323.183 183.782 310.075C183.926 309.763 183.47 309.619 183.254 309.859C180.638 312.932 178.453 321.501 177.781 323.542C165.178 319.725 151.855 315.74 142.974 305.346C125.93 285.35 132.747 255.631 135.1 239.163C139.467 238.285 143.928 237.97 148.375 238.227C151.855 248.406 163.114 281.197 163.426 281.437C172.845 285.403 182.712 288.208 192.808 289.79C192.376 298.048 194.945 299.657 196.889 300.617C204.691 304.362 218.494 296.944 220.054 285.013C225.129 284.455 230.264 285.079 235.058 286.838C227.856 292.887 220.39 300.761 221.183 312.019C222.047 324.022 228.048 331.007 230.785 329.423C225.551 347.019 222.767 378.226 237.866 388.908C225.744 392.485 212.541 388.572 200.874 384.827ZM287.893 384.635C276.587 388.884 260.671 392.365 249.197 391.333C245.877 390.944 242.684 389.832 239.843 388.073C237.001 386.314 234.581 383.952 232.753 381.154C229.419 374.597 227.769 367.312 227.952 359.958C227.567 345.286 230.617 330.728 236.858 317.445C243.843 302.681 255.15 289.502 271.353 289.742C274.44 294.43 278.21 298.63 282.54 302.201C284.532 303.642 288.109 306.018 290.558 305.994C293.006 305.97 295.479 303.594 295.359 299.441C296.895 302.705 299.128 305.61 302.296 305.922C309.042 306.594 314.875 299.705 315.451 293.919C323.301 295.72 328.222 295.432 334.319 289.31C338.112 285.518 347.354 273.371 351.723 268.402C354.796 264.945 358.492 262.088 361.757 258.8C363.973 261.177 366.539 263.201 369.367 264.801C364.902 280.5 358.012 305.034 344.833 317.252C340.25 321.487 334.476 324.21 328.294 325.054C321.332 326.134 314.419 325.198 307.433 324.838C306.929 323.254 303.448 312.715 302.128 309.043C302.128 308.998 302.11 308.955 302.079 308.924C302.047 308.892 302.005 308.875 301.96 308.875C301.916 308.875 301.873 308.892 301.841 308.924C301.81 308.955 301.792 308.998 301.792 309.043C303.256 314.324 309.57 334.224 310.362 337.345C310.739 338.875 310.9 340.451 310.842 342.026C310.842 345.675 306.041 354.173 306.041 354.269C292.456 355.097 279.064 357.903 266.288 362.598C266.288 362.046 266.096 343.778 265.88 342.05C265.88 341.738 265.4 341.858 265.352 342.05C265.184 343.826 265.496 362.166 265.712 362.718C263.6 363.535 261.511 364.375 259.423 365.287C259.183 365.287 259.423 365.767 259.591 365.671C278.695 358.066 299.176 354.534 319.724 355.301C319.724 355.829 321.164 363.895 321.188 363.991C321.212 364.087 300.136 380.002 287.965 384.635H287.893ZM321.692 361.734C321.692 360.942 320.876 356.501 320.852 356.429C322.251 353.427 324.753 351.08 327.838 349.876C327.615 350.907 327.108 351.855 326.373 352.612C326.109 352.948 326.373 353.596 326.878 353.284C327.382 352.972 326.878 352.852 327.358 353.836C327.385 353.924 327.446 353.998 327.526 354.042C327.606 354.087 327.701 354.099 327.79 354.076C329.062 353.716 330.19 353.332 331.583 352.9L321.692 361.734ZM348.098 342.41C348.086 343.27 347.835 344.109 347.372 344.834C346.91 345.559 346.256 346.141 345.482 346.515C343.681 347.307 331.799 351.748 327.742 353.332C327.622 353.116 327.502 352.9 327.358 352.684C328.159 351.684 328.629 350.459 328.702 349.179C328.696 349.067 328.649 348.96 328.569 348.88C328.489 348.8 328.383 348.753 328.27 348.747C328.15 346.587 328.918 345.939 330.67 344.81C332.423 343.682 347.474 335.568 347.474 335.592C347.598 335.644 347.708 335.725 347.792 335.83C347.876 335.935 347.932 336.06 347.954 336.193C348.204 338.255 348.292 340.334 348.218 342.41H348.098ZM409.239 424.148C408.591 423.596 406.167 421.747 405.591 421.315C408.471 420.092 411.088 418.323 413.296 416.106L416.249 421.267C414.186 422.71 411.836 423.693 409.359 424.148H409.239Z" fill="#0B0B14"/>
<path d="M467.692 399.662C466.06 398.342 458.09 404.079 456.194 405.688C455.978 405.688 449.328 405.52 447.984 405.424C448.14 404.849 448.252 404.263 448.32 403.671L409.912 396.734L418.338 411.857L415.193 416.034L418.458 420.619C418.938 420.619 443.447 419.011 443.447 419.011C444.039 417.913 444.568 416.783 445.031 415.626C446.592 415.626 453.961 415.098 454.393 415.05C456.076 415.764 457.897 416.092 459.723 416.01C462.579 415.77 469.541 401.151 467.692 399.662ZM454.177 414.354C453.721 414.354 446.664 414.978 445.223 415.026C445.799 413.561 447.624 406.888 447.864 406C449.184 406.168 455.642 406.48 455.738 406.48C455.69 407.896 455.858 412.505 454.177 414.354ZM357.58 389.244L344.521 389.052C339.304 396.789 333.553 404.153 327.31 411.089C314.827 425.492 302.32 427.892 302.32 427.892C369.535 428.541 397.573 423.428 397.573 423.428C384.106 415.314 366.342 402.351 357.58 389.244ZM72.5663 422.923L76.4551 415.458L72.5663 412.121L78.5436 400.118C59.0513 402.303 30.2931 412.721 30.2931 412.721C30.2931 412.721 30.0771 414.137 29.885 416.538L20.859 417.714C19.4081 415.834 18.1457 413.816 17.0902 411.689C15.7699 408.688 14.0416 408.592 13.3454 409.288C12.6493 409.985 12.6493 424.652 14.3296 426.092C16.01 427.532 18.9866 424.82 30.005 425.588C30.1657 426.574 30.4313 427.539 30.7972 428.469L58.1152 428.949C58.1152 428.949 58.1152 428.469 59.0273 427.652C60.8037 426.116 66.541 426.236 72.5663 422.923ZM21.8673 424.532C21.0987 423.702 20.6037 422.656 20.4492 421.535C20.2946 420.414 20.488 419.273 21.0031 418.266L29.813 417.546C29.0007 419.878 29.0007 422.416 29.813 424.748C29.669 424.628 24.3158 424.508 21.8673 424.532ZM146.166 390.852H134.164C129.352 396.307 124.179 401.431 118.68 406.192C110.44 413.304 101.373 419.397 91.6745 424.34L89.2739 422.947L87.0414 425.108V428.997L194.345 428.012C194.345 428.012 186.927 427.388 174.252 416.466C161.578 405.544 146.166 390.852 146.166 390.852Z" fill="#0B0B14"/>
</svg>
