<svg viewBox="0 0 480 480" fill="none" xmlns="http://www.w3.org/2000/svg">
<path fill-rule="evenodd" clip-rule="evenodd" d="M67.392 78.688C113.352 82.744 122.784 68.056 124.08 65.344C125.471 62.2528 125.743 58.7737 124.848 55.504C121.128 38.944 105.456 49.648 104.712 50.368C95.112 30.568 78.744 47.152 77.832 48.232C69.288 30.952 58.632 30.952 53.52 31.432C41.16 32.752 33.432 45.448 33.432 45.448C31.3379 49.1657 30.3472 53.4033 30.576 57.664C31.056 64.864 39.96 76.288 67.392 78.688ZM42.864 38.872C64.464 22.288 77.4 50.872 77.616 50.632C96.576 30.64 104.16 53.272 104.52 53.344C104.88 53.416 116.256 42.496 120.864 50.32C138.24 79.672 74.952 78.472 65.088 77.248C36 73.648 20.184 56.296 42.864 38.872ZM389.52 130.216C390.406 130.033 391.198 129.539 391.752 128.824C391.992 128.68 391.752 128.32 391.512 128.464C390.078 129.02 388.561 129.336 387.024 129.4C386.97 129.381 386.91 129.384 386.859 129.409C386.807 129.434 386.767 129.478 386.748 129.532C386.729 129.586 386.732 129.646 386.757 129.697C386.782 129.749 386.826 129.789 386.88 129.808C387.259 130.074 387.695 130.249 388.152 130.319C388.61 130.39 389.078 130.355 389.52 130.216Z" fill="#0B0B14"/>
<path fill-rule="evenodd" clip-rule="evenodd" d="M464.712 208.6C461.76 203.968 456.648 202.552 451.152 202.24C452.643 197.135 452.517 191.694 450.792 186.664C449.745 184.694 448.255 182.995 446.439 181.7C444.623 180.404 442.531 179.549 440.328 179.2C442.728 158.56 431.184 144.232 407.928 136.888C408.386 132.586 408.118 128.237 407.136 124.024C411.36 124.336 413.424 121.624 414.816 114.952C416.424 107.368 414.816 97.5759 412.608 95.0079C408.36 90.2079 400.92 90.9759 398.208 91.6239C393.744 92.7039 390.624 95.2479 389.808 95.1039C388.513 94.6564 387.128 94.5361 385.775 94.7538C384.423 94.9716 383.145 95.5206 382.056 96.3519C379.152 98.6079 378.24 101.56 375.768 104.248C374.417 105.447 372.926 106.479 371.328 107.32C373.595 108.436 376.025 109.181 378.528 109.528C378.192 111.16 377.76 113.368 377.472 115.048C376.758 115.181 376.053 115.358 375.36 115.576C375.311 115.595 375.27 115.628 375.24 115.671C375.21 115.713 375.193 115.764 375.192 115.816C375.192 114.736 374.736 123.016 375.984 123.472C376.254 123.602 376.535 123.706 376.824 123.784C376.824 128.368 376.536 130.84 378.456 133.552C379.387 134.723 380.554 135.686 381.881 136.376C383.209 137.067 384.666 137.47 386.16 137.56C386.125 137.887 386.125 138.217 386.16 138.544C379.416 138.544 370.752 143.344 365.28 147.184C356.181 154.084 348.325 162.484 342.048 172.024C335.61 174.407 329.516 177.636 323.928 181.624C321.84 173.392 318.984 162.856 315.528 151.96L315.192 151.672C298.478 148.682 281.553 147.021 264.576 146.704C264.24 146.704 264.024 147.184 264.072 147.352C268.799 163.848 275.05 179.869 282.744 195.208C282.744 195.208 284.904 195.664 288.24 196.312C282.384 197.44 279.984 200.608 279.432 204.4C266.4 193.216 247.08 208.024 249.192 224.848C246.027 223.183 242.419 222.551 238.876 223.042C235.333 223.532 232.033 225.121 229.44 227.584C227.195 229.99 225.587 232.919 224.76 236.104C222.76 242.313 222.178 248.891 223.059 255.354C223.939 261.818 226.259 268.001 229.848 273.448L200.808 273.088C200.598 273.088 200.396 273.171 200.248 273.32C200.099 273.468 200.016 273.67 200.016 273.88C200.016 273.88 199.776 311.272 199.776 320.416L169.272 321.208L169.608 285.208C168.768 285.784 139.512 296.344 95.832 298.072C52.152 299.8 13.32 286.864 12 285.88C12 301.456 12 318.688 12.192 335.704C13.272 336.472 52.632 348.352 95.4 346.672C120.294 345.836 145.02 342.255 169.128 335.992L169.272 321.928H199.776C199.776 323.44 199.776 375.712 199.896 378.112L169.176 378.424V339.664C167.976 340.696 139.536 349.264 95.88 350.992C67.554 351.802 39.2878 347.943 12.216 339.568C12.36 357.304 12.6 374.656 12.96 389.44C14.256 391.096 56.16 404.992 99 403.312C141.84 401.632 168.36 389.776 169.176 389.128V379.216L200.688 379.696C200.9 379.696 201.104 379.613 201.257 379.465C201.409 379.318 201.498 379.116 201.504 378.904C201.504 378.904 201.768 323.392 201.768 321.904L235.368 321.496C235.368 323.704 236.352 358 236.448 360.352C234.572 360.446 232.807 361.269 231.529 362.646C230.252 364.023 229.563 365.845 229.61 367.723C229.657 369.601 230.436 371.386 231.781 372.697C233.126 374.009 234.93 374.743 236.808 374.743C238.686 374.743 240.49 374.009 241.835 372.697C243.18 371.386 243.959 369.601 244.006 367.723C244.053 365.845 243.364 364.023 242.087 362.646C240.809 361.269 239.044 360.446 237.168 360.352C237.168 357.952 236.904 320.704 236.904 320.704C236.904 320.601 236.883 320.499 236.843 320.404C236.803 320.31 236.745 320.224 236.671 320.152C236.597 320.081 236.509 320.025 236.413 319.987C236.317 319.95 236.215 319.933 236.112 319.936L201.792 320.44C201.792 311.32 201.792 277.24 201.648 274.84L230.448 274.48C233.331 278.357 236.883 281.689 240.936 284.32C252.336 291.784 297.288 299.608 342.528 291.4C342.788 293.432 343.743 295.311 345.23 296.719C346.717 298.127 348.645 298.978 350.688 299.128C366.048 300.928 399.024 297.568 412.584 291.4C417.783 289.023 422.508 285.721 426.528 281.656C428.929 279.231 430.513 276.117 431.06 272.748C431.606 269.379 431.087 265.924 429.576 262.864C450.528 251.32 477.456 228.832 464.712 208.6ZM376.8 122.704C375.912 122.44 375.672 116.92 375.648 115.984C376.224 115.984 376.776 115.768 377.352 115.696C376.973 118.013 376.789 120.357 376.8 122.704ZM19.008 331.936C19.008 332.076 18.9524 332.21 18.8534 332.309C18.7543 332.408 18.62 332.464 18.48 332.464C18.34 332.464 18.2057 332.408 18.1066 332.309C18.0076 332.21 17.952 332.076 17.952 331.936L17.328 295.072C17.328 294.715 17.4696 294.374 17.7216 294.122C17.9737 293.87 18.3155 293.728 18.672 293.728C19.0285 293.728 19.3703 293.87 19.6224 294.122C19.8744 294.374 20.016 294.715 20.016 295.072L19.008 331.936ZM155.616 320.848C154.453 320.848 153.316 320.503 152.349 319.857C151.382 319.211 150.629 318.293 150.184 317.218C149.739 316.144 149.622 314.961 149.849 313.821C150.076 312.68 150.636 311.632 151.458 310.81C152.281 309.988 153.328 309.428 154.469 309.201C155.609 308.974 156.792 309.09 157.866 309.536C158.941 309.981 159.859 310.734 160.505 311.701C161.151 312.668 161.496 313.805 161.496 314.968C161.496 316.527 160.877 318.023 159.774 319.126C158.671 320.228 157.175 320.848 155.616 320.848ZM19.056 387.04C19.0291 387.17 18.9583 387.286 18.8556 387.37C18.7529 387.453 18.6245 387.499 18.492 387.499C18.3595 387.499 18.2311 387.453 18.1284 387.37C18.0257 387.286 17.9549 387.17 17.928 387.04L16.44 349.072C16.4147 348.885 16.4296 348.695 16.4837 348.515C16.5378 348.335 16.6299 348.168 16.7538 348.026C16.8777 347.884 17.0305 347.77 17.202 347.693C17.3735 347.615 17.5597 347.574 17.748 347.574C17.9363 347.574 18.1225 347.615 18.294 347.693C18.4655 347.77 18.6183 347.884 18.7422 348.026C18.8661 348.168 18.9582 348.335 19.0123 348.515C19.0664 348.695 19.0813 348.885 19.056 349.072V387.04ZM155.448 375.496C154.285 375.496 153.148 375.151 152.181 374.505C151.214 373.859 150.461 372.941 150.016 371.866C149.571 370.792 149.454 369.609 149.681 368.469C149.908 367.328 150.468 366.28 151.29 365.458C152.113 364.636 153.16 364.076 154.301 363.849C155.441 363.622 156.624 363.738 157.698 364.184C158.773 364.629 159.691 365.382 160.337 366.349C160.983 367.316 161.328 368.453 161.328 369.616C161.328 370.388 161.176 371.153 160.88 371.866C160.585 372.58 160.152 373.228 159.606 373.774C159.06 374.32 158.412 374.753 157.698 375.048C156.985 375.344 156.22 375.496 155.448 375.496ZM236.856 363.952C237.573 363.952 238.273 364.164 238.869 364.563C239.465 364.961 239.93 365.527 240.204 366.189C240.478 366.851 240.55 367.58 240.41 368.283C240.271 368.986 239.925 369.632 239.419 370.138C238.912 370.645 238.266 370.99 237.563 371.13C236.86 371.27 236.131 371.198 235.469 370.924C234.807 370.65 234.241 370.185 233.843 369.589C233.445 368.993 233.232 368.293 233.232 367.576C233.232 366.615 233.614 365.693 234.293 365.013C234.973 364.334 235.895 363.952 236.856 363.952ZM379.2 109.6C394.632 111.28 397.608 108.568 402.12 106.72C402.531 108.181 402.597 109.717 402.312 111.208C401.437 113.379 400.887 115.668 400.68 118C400.046 118.358 399.464 118.802 398.952 119.32C398.977 118.173 398.856 117.028 398.592 115.912C397.728 113.896 387.72 114.784 387.672 115.912C387.408 120.712 388.512 118.912 386.16 118.912C385.747 118.906 385.338 118.988 384.96 119.152C384.96 115.576 384.96 115.408 384.552 115.264C382.627 114.76 380.626 114.613 378.648 114.832C378.744 114.688 379.2 110.656 379.2 109.6ZM397.68 123.328C394.895 123.832 392.041 123.832 389.256 123.328C388.576 120.986 388.205 118.566 388.152 116.128C389.688 115.12 398.136 115.96 397.584 116.416C397.833 118.711 397.897 121.023 397.776 123.328H397.68ZM378.48 115.624C380.245 115.58 382.007 115.79 383.712 116.248V123.112C381.88 123.352 380.024 123.352 378.192 123.112C378.204 120.609 378.364 118.108 378.672 115.624H378.48ZM379.584 132.64C377.928 130.24 378.264 127.84 378.216 124.144C380.215 124.418 382.241 124.418 384.24 124.144C384.159 124.814 384.259 125.493 384.528 126.112C384.669 126.326 384.853 126.508 385.068 126.646C385.283 126.785 385.524 126.878 385.777 126.919C386.03 126.959 386.288 126.947 386.536 126.882C386.784 126.818 387.015 126.703 387.216 126.544C387.246 126.533 387.273 126.516 387.297 126.494C387.32 126.473 387.339 126.447 387.353 126.418C387.366 126.389 387.374 126.357 387.375 126.326C387.376 126.294 387.371 126.262 387.36 126.232C387.349 126.202 387.332 126.175 387.311 126.151C387.289 126.128 387.263 126.109 387.234 126.095C387.205 126.082 387.174 126.074 387.142 126.073C387.11 126.072 387.078 126.077 387.048 126.088C384.768 126.568 385.464 124.456 385.656 122.224C385.709 121.425 385.709 120.623 385.656 119.824C386.29 119.809 386.925 119.849 387.552 119.944C387.641 121.268 387.866 122.578 388.224 123.856C388.257 123.983 388.331 124.095 388.436 124.173C388.541 124.252 388.669 124.292 388.8 124.288C388.56 124.288 395.28 125.584 398.4 124.288C398.5 124.245 398.587 124.175 398.65 124.086C398.714 123.997 398.751 123.893 398.76 123.784C398.76 123.784 398.88 121.816 398.88 119.848C399.771 119.656 400.628 119.332 401.424 118.888C401.62 118.976 401.841 118.996 402.05 118.943C402.259 118.891 402.444 118.77 402.576 118.6C403.704 117.472 406.176 114.472 408.84 117.112C412.56 120.76 405.912 123.52 406.44 123.928C406.1 128.411 406.399 132.921 407.328 137.32C406.584 137.824 391.056 146.92 390.84 147.136L386.568 139C386.717 138.544 386.774 138.062 386.736 137.584C388.948 137.481 391.137 137.077 393.24 136.384C393.285 136.38 393.328 136.367 393.367 136.344C393.406 136.322 393.44 136.292 393.466 136.256C393.493 136.219 393.511 136.177 393.519 136.133C393.528 136.089 393.527 136.044 393.517 136C393.506 135.957 393.486 135.916 393.459 135.88C393.431 135.845 393.396 135.816 393.356 135.796C393.316 135.775 393.272 135.763 393.227 135.761C393.182 135.759 393.138 135.767 393.096 135.784C391.157 136.26 389.164 136.478 387.168 136.432C385.742 136.341 384.349 135.957 383.078 135.305C381.806 134.652 380.682 133.745 379.776 132.64H379.584ZM386.4 139.264L390.192 147.352L381.456 150.688C381.6 149.968 385.92 140.44 386.4 139.264ZM410.88 138.616C439.344 149.416 445.944 170.848 432.48 199.864C431.185 202.581 429.263 204.951 426.872 206.779C424.481 208.606 421.689 209.839 418.728 210.376C403.464 214.048 372.888 207.136 359.376 198.088C359.333 194.455 359.606 190.825 360.192 187.24C371.4 182.92 391.848 182.44 401.616 184.6C401.743 184.621 401.873 184.6 401.986 184.539C402.099 184.478 402.188 184.381 402.24 184.264C402.36 183.976 410.016 165.064 416.976 157.864C417.008 157.832 417.033 157.795 417.05 157.754C417.067 157.713 417.075 157.669 417.075 157.624C417.075 157.579 417.067 157.535 417.05 157.494C417.033 157.453 417.008 157.415 416.976 157.384C416.945 157.352 416.907 157.327 416.866 157.31C416.825 157.293 416.781 157.285 416.736 157.285C416.691 157.285 416.647 157.293 416.606 157.31C416.565 157.327 416.528 157.352 416.496 157.384C412.865 161.433 409.797 165.954 407.376 170.824C407.256 170.512 393.648 166.96 393.456 167.008C393.358 167.042 393.272 167.102 393.208 167.183C393.143 167.263 393.102 167.36 393.089 167.463C393.077 167.565 393.093 167.669 393.137 167.763C393.18 167.856 393.249 167.936 393.336 167.992C393.672 168.208 406.752 171.616 406.968 171.592C404.568 175.936 402.672 180.256 401.376 183.352C394.64 182.143 387.784 181.732 380.952 182.128L388.8 156.688L383.064 154.984C375.248 163.852 368.727 173.783 363.696 184.48C362.352 184.84 360.984 185.272 359.616 185.776C356.982 184.502 354.149 183.69 351.24 183.376C356.158 172.769 362.031 162.632 368.784 153.088C368.976 152.824 368.496 152.584 368.304 152.848C360.816 162.064 354.882 172.44 350.736 183.568C349.238 183.43 347.728 183.606 346.302 184.085C344.876 184.565 343.566 185.337 342.456 186.352C341.235 187.51 340.206 188.855 339.408 190.336C338.592 192.328 340.224 193.168 341.4 192.568C341.16 193.912 342.624 194.968 344.112 194.08C344.05 194.291 344.05 194.516 344.112 194.728C339.984 194.176 330 193.48 326.616 193.36C325.968 190.576 325.08 186.76 323.928 182.224C329.76 178.504 336.001 175.468 342.528 173.176C343.392 172.864 354.96 153.328 373.512 143.416C377.299 141.232 381.471 139.798 385.8 139.192C385.152 140.392 382.2 146.248 381.6 148.096C380.4 151.648 380.088 151.84 380.472 152.008C380.856 152.176 380.472 152.2 384.864 150.568C384.306 151.68 383.887 152.857 383.616 154.072C385.467 155.01 387.463 155.626 389.52 155.896C391.144 154.616 392.526 153.055 393.6 151.288C397.968 155.608 397.752 155.464 398.112 155.488C398.198 155.492 398.283 155.477 398.362 155.443C398.441 155.41 398.511 155.36 398.568 155.296C403.451 150.388 407.591 144.793 410.856 138.688L410.88 138.616ZM410.496 138.472C406.977 144.163 402.813 149.43 398.088 154.168C397.296 153.256 391.968 148.36 391.44 147.616C397.051 144.559 402.484 141.186 407.712 137.512L410.496 138.472ZM347.232 194.944C348.461 194.076 349.532 193.005 350.4 191.776C352.738 192.98 355.359 193.527 357.984 193.36C357.648 197.56 357.984 196.12 357.672 196.072C354.222 195.46 350.734 195.083 347.232 194.944ZM326.784 193.552C335.184 194.584 342.216 194.896 344.472 194.992C344.772 195.279 345.161 195.457 345.575 195.496C345.988 195.535 346.403 195.434 346.752 195.208C347.64 195.208 355.8 196.192 356.808 196.24C347.206 197.557 337.531 198.279 327.84 198.4C327.864 198.232 326.928 194.128 326.784 193.552ZM344.808 187.72L342.696 190.264C341.904 191.128 341.04 192.328 340.296 191.8C338.976 190.984 342.432 187.36 343.056 186.784C347.112 182.872 353.88 184 359.04 186.232C358.58 188.342 358.283 190.484 358.152 192.64C353.352 192.64 351.168 191.512 350.664 190.96C350.16 190.408 350.232 190.96 350.04 191.176C349.087 192.618 347.803 193.811 346.296 194.656C346.07 194.777 345.808 194.809 345.559 194.747C345.311 194.685 345.094 194.533 344.952 194.32C344.712 193.72 345.6 192.832 348.192 189.52C348.252 189.444 348.28 189.346 348.269 189.25C348.258 189.153 348.208 189.064 348.132 189.004C348.056 188.943 347.958 188.916 347.862 188.927C347.765 188.938 347.676 188.988 347.616 189.064C347.808 188.824 345.672 191.464 345.408 191.968C343.68 194.368 341.808 193.768 342.288 192.4C342.768 191.032 343.272 191.104 345.456 188.272C345.529 188.186 345.565 188.075 345.556 187.962C345.547 187.849 345.494 187.745 345.408 187.672C345.322 187.599 345.211 187.563 345.098 187.572C344.986 187.581 344.881 187.634 344.808 187.72ZM358.056 200.944C358.114 200.321 358.114 199.695 358.056 199.072H358.2C373.152 209.272 410.88 218.272 426.24 209.056C424.013 216.782 420.438 224.054 415.68 230.536C389.904 208.288 358.848 202.288 354.024 201.448C358.08 201.232 357.96 201.328 358.056 200.944ZM283.2 195.064C277.824 183.616 268.032 157.168 264.672 147.616C281.495 147.943 298.266 149.588 314.832 152.536C322.368 176.416 327.048 198.424 327.048 198.424C327.06 198.522 327.109 198.611 327.185 198.673C327.261 198.736 327.358 198.767 327.456 198.76C337.541 199.248 347.648 198.442 357.528 196.36C357.764 197.771 357.821 199.207 357.696 200.632C357.696 200.8 333.024 202.552 328.008 203.032L283.2 195.064ZM425.184 280.288C414.384 291.16 402.864 293.56 387.816 296.008C377.928 297.64 360.552 299.488 350.76 298.408C337.728 296.872 342.792 273.112 359.4 277.528C361.73 278.145 363.889 279.286 365.712 280.864C365.82 280.962 365.954 281.029 366.098 281.056C366.242 281.083 366.39 281.07 366.527 281.017C366.664 280.965 366.783 280.876 366.872 280.76C366.962 280.644 367.017 280.506 367.032 280.36C367.546 276.437 369.022 272.702 371.328 269.488C372.482 267.936 373.96 266.654 375.659 265.729C377.358 264.805 379.238 264.262 381.168 264.136C386.76 263.704 391.056 267.496 393.84 272.344C398.4 280.288 394.848 252.88 416.88 255.712C419.525 256.12 422.007 257.247 424.055 258.969C426.103 260.691 427.639 262.943 428.496 265.478C429.353 268.013 429.497 270.735 428.913 273.346C428.329 275.958 427.039 278.359 425.184 280.288ZM448.632 247.504C442.564 252.857 436.043 257.675 429.144 261.904C427.949 259.671 426.235 257.758 424.147 256.326C422.059 254.893 419.657 253.983 417.144 253.672C414.402 253.141 411.573 253.269 408.89 254.045C406.207 254.821 403.747 256.223 401.712 258.136C398.489 261.648 396.202 265.915 395.064 270.544C386.064 256.144 368.784 261.136 365.688 278.68C354.408 270.736 341.016 278.464 342.456 290.68C301.296 297.544 254.136 291.016 241.824 282.904C237.469 280.144 233.729 276.516 230.838 272.246C227.948 267.977 225.968 263.157 225.024 258.088C222.384 244.432 226.944 231.688 230.376 228.808C232.997 226.422 236.291 224.905 239.808 224.464C243.323 224.162 246.842 225.004 249.84 226.864C250.248 226.864 250.824 226.864 250.68 226.24C247.536 213.184 259.944 200.632 270.36 201.52C273.672 201.877 276.8 203.224 279.336 205.384C278.784 212.728 284.568 222.04 286.392 224.248C291.192 220.072 311.976 204.616 316.44 201.856L319.128 202.336C286.416 224.104 277.176 235 276.528 235.6C276.336 235.792 277.344 236.992 278.928 238.648C278.664 238.912 275.976 241.288 275.256 241.96C276.432 242.776 267.72 236.68 264.36 237.16C263.414 237.354 262.565 237.872 261.96 238.624C260.64 240.352 261.768 241.984 263.304 243.424C266.78 246.675 270.719 249.392 274.992 251.488C281.136 253.888 284.592 252.256 289.392 248.44L293.088 251.896C296.52 255.424 333.456 233.296 334.536 232.696C334.729 232.589 334.952 232.55 335.169 232.585C335.387 232.619 335.586 232.726 335.736 232.888L344.784 242.824C357.687 246.668 371.065 248.68 384.528 248.8C401.136 248.8 423.888 230.152 427.344 208.48C430.337 206.479 432.708 203.676 434.184 200.392C437.238 193.924 439.325 187.043 440.376 179.968C442.353 180.358 444.216 181.194 445.821 182.413C447.426 183.632 448.733 185.2 449.64 187C451.17 192.112 450.976 197.585 449.088 202.576C448.996 202.84 449.013 203.13 449.134 203.382C449.256 203.634 449.472 203.827 449.736 203.92C450.84 204.328 459.336 203.632 463.008 209.632C471.168 223 460.2 237.088 448.632 247.384V247.504ZM288.6 248.032C286.806 249.432 284.773 250.498 282.6 251.176C281.616 249.784 277.104 244.12 276.024 242.752L279.528 239.224C282.525 242.148 285.549 245.044 288.6 247.912V248.032Z" fill="#0B0B14"/>
<path fill-rule="evenodd" clip-rule="evenodd" d="M362.016 318.232C330.672 318.232 305.112 342.232 304.2 372.16C275.232 372.16 277.272 372.04 276.888 372.4C276.736 372.573 276.651 372.794 276.648 373.024C276.648 373.024 276.888 407.752 276.936 410.92C272.832 410.92 172.416 411.712 169.056 411.784L169.224 394.096C166.56 395.704 131.208 406.528 99.864 407.776C56.184 409.504 14.616 395.44 13.08 394.168C13.632 413.992 14.4 428.368 15.648 431.488C20.448 443.728 30.912 452.92 99.792 451.672C168.264 450.448 168.84 431.488 168.84 431.488L169.032 412.696C172.392 412.696 277.944 412.96 277.944 412.96C278.205 412.96 278.455 412.856 278.64 412.672C278.824 412.487 278.928 412.237 278.928 411.976C278.928 411.976 278.424 375.976 278.376 373.912L304.176 373.36C304.176 405.568 330.912 429.472 362.016 429.472C393.936 429.472 419.856 404.56 419.856 373.888C419.856 343.216 393.936 318.232 362.016 318.232ZM20.4 430.072C20.4 430.212 20.3444 430.346 20.2453 430.445C20.1463 430.544 20.012 430.6 19.872 430.6C19.732 430.6 19.5977 430.544 19.4986 430.445C19.3996 430.346 19.344 430.212 19.344 430.072C19.344 430.696 17.88 412.96 17.544 403.888C17.5373 403.533 17.6687 403.19 17.9105 402.93C18.1523 402.67 18.4856 402.515 18.84 402.496C19.0165 402.49 19.1926 402.518 19.3581 402.58C19.5236 402.641 19.6754 402.735 19.8046 402.855C19.9339 402.976 20.0382 403.121 20.1115 403.281C20.1849 403.442 20.2258 403.616 20.232 403.792C20.496 412.408 20.304 421.456 20.4 430.072ZM154.584 426.184C153.421 426.184 152.284 425.839 151.317 425.193C150.35 424.547 149.597 423.629 149.152 422.554C148.707 421.48 148.59 420.298 148.817 419.157C149.044 418.016 149.604 416.969 150.426 416.146C151.249 415.324 152.296 414.764 153.437 414.537C154.577 414.31 155.76 414.427 156.834 414.872C157.909 415.317 158.827 416.07 159.473 417.037C160.119 418.004 160.464 419.141 160.464 420.304C160.464 421.864 159.844 423.359 158.742 424.462C157.639 425.565 156.143 426.184 154.584 426.184ZM400.416 399.952C365.472 404.512 326.016 399.352 326.016 399.352C324.297 382.128 323.84 364.802 324.648 347.512C331.136 346.411 337.752 346.274 344.28 347.104C344.88 349.574 345.226 352.099 345.312 354.64H400.224C402.216 368.776 400.416 399.952 400.416 399.952ZM94.776 241.888C137.568 240.208 160.2 231.952 169.752 226.648C154.848 204.016 95.352 205.048 95.352 205.048C23.592 206.056 13.104 225.232 12.24 227.152C13.368 229.048 51.984 243.64 94.776 241.888ZM112.272 134.248C109.152 135.544 109.536 146.248 112.128 149.176C113.088 150.256 113.808 149.992 114.528 148.576C115.824 145.504 116.064 133.888 112.272 134.248Z" fill="#0B0B14"/>
<path fill-rule="evenodd" clip-rule="evenodd" d="M95.808 293.968C120.818 293.137 145.588 288.798 169.392 281.08C169.392 281.08 169.392 273.592 169.584 264.472L189.6 264.808C190.464 264.808 190.248 264.976 190.152 247.096H210.288C210.388 247.102 210.488 247.089 210.582 247.056C210.676 247.023 210.763 246.971 210.837 246.904C210.911 246.837 210.97 246.756 211.012 246.665C211.054 246.574 211.077 246.476 211.08 246.376V116.296L261.48 115.384C261.586 117.255 262.418 119.011 263.798 120.279C265.179 121.547 266.999 122.226 268.872 122.173C270.746 122.12 272.525 121.338 273.831 119.994C275.138 118.651 275.868 116.85 275.868 114.976C275.868 113.102 275.138 111.301 273.831 109.958C272.525 108.614 270.746 107.832 268.872 107.779C266.999 107.726 265.179 108.405 263.798 109.673C262.418 110.941 261.586 112.697 261.48 114.568H245.28C245.28 114.016 245.568 80.08 245.568 80.08C245.563 79.8797 245.484 79.6882 245.347 79.5421C245.21 79.3961 245.024 79.3056 244.824 79.288H225.624C225.624 76.888 225.936 58.696 225.936 57.352L276.336 56.968C276.463 64.4808 279.552 71.6395 284.932 76.885C290.312 82.1306 297.546 85.0383 305.06 84.975C312.574 84.9117 319.758 81.8825 325.049 76.547C330.339 71.2116 333.308 64.0019 333.308 56.488C333.308 48.9741 330.339 41.7644 325.049 36.429C319.758 31.0935 312.574 28.0643 305.06 28.001C297.546 27.9377 290.312 30.8454 284.932 36.091C279.552 41.3366 276.463 48.4952 276.336 56.008C274.848 56.008 226.896 55.744 225.24 56.008C225.055 56.0057 224.876 56.07 224.735 56.189C224.594 56.308 224.501 56.4737 224.472 56.656C224.328 57.688 224.856 78.256 224.904 79.312H187.2L186.984 63.784C188.864 63.6993 190.635 62.8823 191.92 61.5077C193.205 60.1331 193.901 58.3103 193.858 56.4293C193.816 54.5482 193.039 52.7585 191.694 51.4432C190.348 50.1278 188.541 49.3913 186.66 49.3913C184.779 49.3913 182.972 50.1278 181.626 51.4432C180.281 52.7585 179.504 54.5482 179.462 56.4293C179.419 58.3103 180.115 60.1331 181.4 61.5077C182.685 62.8823 184.456 63.6993 186.336 63.784L186.048 79.912C186.045 79.9896 186.057 80.0671 186.085 80.1398C186.112 80.2125 186.154 80.2788 186.208 80.3349C186.262 80.391 186.326 80.4355 186.398 80.466C186.469 80.4964 186.546 80.5121 186.624 80.512L244.224 80.92C244.224 82.696 244.752 114.088 244.776 114.664H210.288C210.052 114.664 209.827 114.758 209.66 114.924C209.494 115.091 209.4 115.316 209.4 115.552V245.728L190.032 245.944C190.032 244.024 188.544 141.904 188.544 141.904C188.541 141.809 188.519 141.716 188.48 141.63C188.441 141.544 188.385 141.466 188.316 141.402C188.247 141.337 188.166 141.287 188.077 141.254C187.989 141.22 187.895 141.205 187.8 141.208L166.2 141.664C166.073 131.809 162.053 122.403 155.017 115.501C147.98 108.6 138.499 104.761 128.643 104.825C118.787 104.888 109.356 108.848 102.409 115.84C95.4621 122.832 91.5631 132.288 91.5631 142.144C91.5631 152 95.4621 161.456 102.409 168.448C109.356 175.44 118.787 179.4 128.643 179.463C138.499 179.527 147.98 175.688 155.017 168.787C162.053 161.885 166.073 152.479 166.2 142.624H187.2C187.2 144.424 188.52 244.024 188.544 245.968L169.8 246.184C169.8 238.024 169.968 231.784 169.968 231.784C160.224 237.208 138.6 244.768 94.896 245.416C44.904 246.16 13.728 233.824 12.12 232.336V281.92C13.392 283 53.016 295.672 95.808 293.968ZM268.8 111.304C269.517 111.304 270.217 111.517 270.813 111.915C271.409 112.313 271.874 112.879 272.148 113.541C272.422 114.203 272.494 114.932 272.354 115.635C272.215 116.338 271.869 116.984 271.363 117.491C270.856 117.997 270.21 118.343 269.507 118.482C268.804 118.622 268.075 118.55 267.413 118.276C266.751 118.002 266.185 117.537 265.787 116.941C265.389 116.345 265.176 115.645 265.176 114.928C265.176 113.967 265.558 113.045 266.237 112.365C266.917 111.686 267.839 111.304 268.8 111.304ZM292.392 67.912C296.378 64.3097 300.026 60.3491 303.288 56.08C304.392 57.064 305.4 57.928 306.192 58.48C306.254 58.5267 306.33 58.552 306.408 58.552C306.486 58.552 306.562 58.5267 306.624 58.48L310.104 55.408C312.906 59.7482 316.121 63.8071 319.704 67.528C315.96 68.944 296.304 68.104 292.392 67.912ZM320.352 67.312C317.481 62.9294 314.158 58.8593 310.44 55.168C313.704 52.264 318.24 48.112 320.736 45.424C321.024 48.76 321.744 65.944 320.352 67.312ZM320.64 44.632C320.112 44.632 320.208 45.76 306.24 57.808C301.992 54.4 292.728 45.184 292.032 44.488C296.04 44.392 320.496 44.824 320.64 44.632ZM291.6 44.896C291.816 45.28 301.056 54.064 302.88 55.72C298.792 59.3612 295.055 63.3789 291.72 67.72C290.54 60.1607 290.5 52.4673 291.6 44.896ZM183.12 56.416C183.12 55.6992 183.333 54.9986 183.731 54.4026C184.129 53.8066 184.695 53.3422 185.357 53.0679C186.019 52.7936 186.748 52.7218 187.451 52.8616C188.154 53.0015 188.8 53.3466 189.307 53.8534C189.813 54.3603 190.159 55.006 190.298 55.709C190.438 56.412 190.366 57.1406 190.092 57.8028C189.818 58.465 189.353 59.031 188.757 59.4292C188.161 59.8275 187.461 60.04 186.744 60.04C186.268 60.04 185.797 59.9463 185.357 59.7641C184.917 59.582 184.518 59.3151 184.181 58.9786C183.845 58.642 183.578 58.2425 183.396 57.8028C183.214 57.3632 183.12 56.8919 183.12 56.416ZM149.304 142.336H147.672V147.136C147.698 147.326 147.682 147.519 147.627 147.703C147.572 147.886 147.478 148.056 147.352 148.2C147.226 148.344 147.07 148.46 146.896 148.539C146.721 148.618 146.532 148.659 146.34 148.659C146.148 148.659 145.959 148.618 145.784 148.539C145.61 148.46 145.454 148.344 145.328 148.2C145.202 148.056 145.108 147.886 145.053 147.703C144.998 147.519 144.982 147.326 145.008 147.136V142.336H142.416V146.752C142.426 146.937 142.398 147.122 142.336 147.296C142.273 147.47 142.176 147.63 142.051 147.766C141.926 147.902 141.775 148.012 141.607 148.09C141.439 148.167 141.257 148.21 141.072 148.216C140.886 148.207 140.704 148.161 140.535 148.081C140.367 148.001 140.216 147.889 140.091 147.751C139.966 147.613 139.87 147.451 139.808 147.276C139.745 147.1 139.718 146.914 139.728 146.728V142.408H137.064V147.64C137.08 147.827 137.059 148.015 137.001 148.193C136.943 148.371 136.849 148.536 136.726 148.677C136.603 148.818 136.452 148.933 136.283 149.015C136.115 149.096 135.931 149.143 135.744 149.152C135.373 149.133 135.023 148.969 134.772 148.695C134.521 148.421 134.387 148.06 134.4 147.688V142.504H118.008C118.16 145.321 117.616 148.131 116.424 150.688C116.164 151.268 115.754 151.768 115.236 152.137C114.718 152.506 114.111 152.73 113.478 152.786C112.845 152.842 112.208 152.729 111.633 152.457C111.058 152.185 110.566 151.765 110.208 151.24C106.536 147.088 106.392 135.592 109.968 132.304C110.533 131.715 111.291 131.349 112.104 131.272C113.712 131.128 117.288 131.632 117.912 139.504H149.28C151.2 139.48 150.96 142.336 149.304 142.336ZM169.8 246.928H188.568C188.76 255.496 188.928 261.76 188.976 263.728H169.608C169.656 258.16 169.728 252.28 169.8 246.928ZM156 257.992C157.164 257.992 158.302 258.337 159.269 258.985C160.237 259.632 160.99 260.552 161.435 261.627C161.879 262.703 161.994 263.887 161.765 265.028C161.536 266.169 160.974 267.217 160.149 268.038C159.324 268.86 158.275 269.418 157.132 269.642C155.99 269.866 154.807 269.746 153.733 269.298C152.659 268.849 151.742 268.091 151.099 267.121C150.456 266.151 150.115 265.012 150.12 263.848C150.126 262.293 150.749 260.803 151.851 259.706C152.953 258.608 154.445 257.992 156 257.992ZM18.552 279.856C18.552 279.996 18.4964 280.13 18.3973 280.229C18.2983 280.328 18.164 280.384 18.024 280.384C17.884 280.384 17.7497 280.328 17.6506 280.229C17.5516 280.13 17.496 279.996 17.496 279.856L16.536 244.528C16.5359 244.176 16.6742 243.837 16.9211 243.586C17.168 243.335 17.5037 243.19 17.856 243.184C18.0313 243.181 18.2056 243.213 18.3685 243.278C18.5314 243.342 18.6798 243.439 18.8049 243.562C18.9301 243.685 19.0294 243.832 19.0973 243.993C19.1651 244.155 19.2 244.329 19.2 244.504L18.552 279.856ZM398.712 358.216C398.712 358.216 384.792 357.52 380.616 357.376C378.216 357.376 347.304 357.184 344.448 357.232C341.088 357.232 326.352 357.856 326.352 357.856C326.193 357.856 326.04 357.919 325.928 358.032C325.815 358.144 325.752 358.297 325.752 358.456C325.752 358.615 325.815 358.768 325.928 358.88C326.04 358.993 326.193 359.056 326.352 359.056C326.352 359.056 341.088 359.776 344.448 359.872C347.28 359.872 378.312 360.112 380.616 360.064C384.768 360.064 398.688 359.416 398.688 359.416C398.847 359.419 399.001 359.359 399.116 359.249C399.231 359.138 399.297 358.987 399.3 358.828C399.303 358.669 399.243 358.515 399.133 358.4C399.022 358.285 398.871 358.219 398.712 358.216Z" fill="#0B0B14"/>
<path fill-rule="evenodd" clip-rule="evenodd" d="M269.952 154.336C270.029 154.815 270.291 155.244 270.682 155.531C271.072 155.819 271.56 155.941 272.04 155.872C272.496 155.758 272.893 155.479 273.155 155.089C273.416 154.698 273.524 154.225 273.456 153.76C273.423 153.526 273.344 153.3 273.222 153.097C273.101 152.894 272.94 152.717 272.75 152.576C272.559 152.436 272.342 152.335 272.112 152.28C271.882 152.225 271.643 152.216 271.409 152.255C271.176 152.293 270.952 152.378 270.752 152.504C270.551 152.63 270.378 152.795 270.242 152.988C270.107 153.182 270.011 153.401 269.961 153.633C269.911 153.864 269.908 154.103 269.952 154.336ZM271.872 155.032C271.744 155.052 271.613 155.046 271.487 155.015C271.362 154.983 271.244 154.926 271.141 154.848C271.037 154.769 270.951 154.671 270.887 154.558C270.823 154.445 270.783 154.321 270.768 154.192C270.528 152.68 272.376 152.632 272.64 153.928C272.67 154.174 272.609 154.423 272.467 154.627C272.325 154.831 272.113 154.975 271.872 155.032ZM381.6 119.944C381.576 119.512 381.576 119.08 381.6 118.648C381.57 118.489 381.485 118.345 381.36 118.241C381.235 118.137 381.078 118.081 380.916 118.081C380.754 118.081 380.597 118.137 380.472 118.241C380.347 118.345 380.262 118.489 380.232 118.648C380.232 119.104 380.232 119.584 380.352 120.064C380.323 120.169 380.319 120.28 380.342 120.386C380.365 120.493 380.414 120.593 380.484 120.676C380.554 120.76 380.643 120.825 380.744 120.867C380.845 120.908 380.955 120.924 381.064 120.914C381.172 120.903 381.277 120.867 381.368 120.807C381.459 120.747 381.534 120.666 381.587 120.57C381.64 120.475 381.669 120.368 381.671 120.259C381.673 120.15 381.649 120.042 381.6 119.944ZM392.448 118.816C392.418 118.657 392.333 118.513 392.208 118.409C392.083 118.305 391.926 118.249 391.764 118.249C391.602 118.249 391.445 118.305 391.32 118.409C391.195 118.513 391.11 118.657 391.08 118.816C391.08 119.296 391.08 119.752 391.2 120.232C391.244 120.396 391.347 120.538 391.488 120.632C391.63 120.725 391.801 120.764 391.969 120.74C392.137 120.717 392.291 120.633 392.401 120.504C392.511 120.375 392.571 120.21 392.568 120.04C392.507 119.634 392.467 119.226 392.448 118.816ZM343.872 243.04L334.656 234.904L313.248 246.904C319.44 252.76 329.544 261.088 329.544 261.088L336.504 252.376C338.514 253.643 340.589 254.805 342.72 255.856C341.064 267.088 340.32 267.856 343.368 269.728C346.416 271.6 353.664 257.536 354.216 253.264C354.624 250.168 353.496 249.088 343.872 243.04ZM343.464 255.304C341.498 253.936 339.428 252.724 337.272 251.68C337.032 251.68 336.672 252.208 343.344 243.88C345.563 245.679 347.932 247.285 350.424 248.68C348.339 251.122 346.007 253.342 343.464 255.304Z" fill="#0B0B14"/>
</svg>
