<svg viewBox="0 0 480 480" fill="none" xmlns="http://www.w3.org/2000/svg">
<path d="M182.342 317.54H288.369C288.686 317.54 288.99 317.414 289.214 317.19C289.438 316.966 289.564 316.662 289.564 316.345V251.854C289.564 251.537 289.438 251.233 289.214 251.009C288.99 250.785 288.686 250.659 288.369 250.659H182.342C182.025 250.659 181.721 250.785 181.497 251.009C181.273 251.233 181.147 251.537 181.147 251.854V316.345C181.147 316.662 181.273 316.966 181.497 317.19C181.721 317.414 182.025 317.54 182.342 317.54ZM183.537 253.049H287.174V315.15H183.537V253.049Z" fill="#0B0B14"/>
<path d="M247.189 347.209C247.14 346.933 246.995 346.683 246.78 346.503C246.565 346.323 246.294 346.224 246.013 346.224H223.066C222.82 346.224 222.579 346.3 222.377 346.442C222.176 346.584 222.023 346.785 221.94 347.017L219.208 354.666C219.144 354.847 219.124 355.04 219.15 355.23C219.176 355.419 219.247 355.6 219.357 355.757C219.467 355.913 219.614 356.041 219.784 356.129C219.954 356.217 220.143 356.263 220.334 356.263H247.385C247.56 356.263 247.732 356.225 247.891 356.151C248.049 356.077 248.189 355.969 248.301 355.835C248.413 355.701 248.495 355.544 248.54 355.375C248.585 355.206 248.592 355.03 248.561 354.858L247.189 347.209ZM222.022 353.875L223.9 348.617H245.021L245.961 353.875H222.022Z" fill="#0B0B14"/>
<path d="M169.224 344.448L298.478 344.594C298.692 344.613 298.907 344.57 299.096 344.47C299.286 344.369 299.443 344.216 299.547 344.028C299.651 343.841 299.698 343.627 299.683 343.413C299.667 343.198 299.59 342.993 299.46 342.822L289.624 328.612C289.514 328.453 289.368 328.323 289.197 328.233C289.025 328.143 288.835 328.096 288.642 328.096H178.518C178.321 328.096 178.128 328.144 177.954 328.236C177.781 328.329 177.633 328.463 177.523 328.626L168.232 342.564C168.115 342.746 168.048 342.956 168.038 343.173C168.028 343.389 168.077 343.604 168.178 343.796C168.279 343.988 168.429 344.149 168.613 344.264C168.797 344.378 169.008 344.442 169.224 344.448ZM172.934 339.82H195.181C195.011 340.576 194.851 341.307 194.703 342.06H171.457L172.934 339.82ZM175.934 335.319H196.306C196.115 336.022 195.931 336.726 195.754 337.43H174.526L175.934 335.319ZM210.691 330.476C210.543 331.273 210.395 332.088 210.247 332.919H199.459C199.693 332.102 199.933 331.288 200.176 330.476H210.691ZM235.551 330.476C235.419 331.26 235.328 332.08 235.269 332.919H212.675C212.823 332.088 212.974 331.27 213.12 330.476H235.551ZM243.008 330.476C242.984 331.311 242.989 332.121 243.025 332.919H237.668C237.727 332.1 237.831 331.284 237.979 330.476H243.008ZM249.653 330.476C249.797 331.286 249.942 332.1 250.088 332.919H245.415C245.377 332.126 245.375 331.318 245.401 330.476H249.653ZM292.82 337.42H253.368C253.229 336.716 253.094 336.012 252.962 335.31H291.362L292.82 337.42ZM250.93 337.42H245.977C245.834 336.703 245.719 335.998 245.628 335.31H250.519C250.657 336.019 250.795 336.726 250.932 337.43L250.93 337.42ZM211.217 342.117C211.318 341.352 211.423 340.58 211.538 339.811H216.528L216.175 342.117H211.217ZM203.652 342.101C203.8 341.333 203.972 340.571 204.156 339.811H209.121C209.009 340.578 208.906 341.338 208.808 342.101H203.652ZM197.138 342.086C197.289 341.331 197.454 340.568 197.631 339.811H201.694C201.52 340.561 201.357 341.317 201.216 342.086H197.138ZM205.327 335.31H209.831C209.711 336.008 209.592 336.713 209.484 337.42H204.773C204.814 337.277 205.186 335.871 205.342 335.319L205.327 335.31ZM235.137 337.42H228.162L228.325 335.31H235.163C235.147 336.029 235.142 336.737 235.139 337.43L235.137 337.42ZM237.551 335.31H243.221C243.305 336.003 243.412 336.703 243.544 337.42H237.53C237.532 336.734 237.537 336.027 237.554 335.319L237.551 335.31ZM225.762 337.42H219.308L219.631 335.31H225.92L225.762 337.42ZM216.894 337.42H211.908C212.02 336.703 212.147 336.008 212.257 335.31H217.222L216.894 337.42ZM218.945 339.811H251.41C251.578 340.607 251.75 341.367 251.927 342.163H218.591L218.945 339.811ZM202.856 335.31C202.765 335.656 202.392 337.059 202.299 337.42H198.221C198.403 336.718 198.592 336.012 198.785 335.31H202.856ZM254.379 342.242C254.197 341.443 254.023 340.602 253.853 339.803H294.477L296.195 342.242H254.379ZM289.703 332.919H252.519C252.371 332.102 252.225 331.288 252.082 330.476H288.016L289.703 332.919ZM179.156 330.476H197.678C197.443 331.286 197.204 332.1 196.961 332.919H177.528L179.156 330.476Z" fill="#0B0B14"/>
<path d="M467.712 118.396C467.826 118.263 467.909 118.107 467.956 117.938C468.003 117.77 468.012 117.593 467.984 117.42C467.955 117.248 467.888 117.083 467.789 116.939C467.689 116.795 467.56 116.675 467.409 116.586C448.286 105.445 430.359 95.7692 412.67 87.0254C412.57 86.8125 412.407 86.6353 412.203 86.5174C412 86.3996 411.765 86.3466 411.53 86.3657C411.258 86.3487 410.985 86.3647 410.717 86.4135C387.603 87.7808 370.025 89.9392 346.985 92.3893C346.67 92.4224 346.381 92.5793 346.181 92.8253C345.982 93.0714 345.888 93.3865 345.921 93.7016C346.086 95.2792 345.727 104.867 345.204 130.364C348.603 133.738 352.257 136.844 356.135 139.655C369.798 150.039 382.368 161.79 396.031 172.164C400.152 131.05 399.949 134.079 399.689 133.885C423.147 126.812 441.144 124.085 465.288 119.35C464.841 133.154 464.237 146.508 463.467 159.507L395.006 177.305C385.703 170.674 361.264 148.81 345.204 136.287C344.931 146.671 344.931 156.031 344.656 166.405C344.656 166.405 379.909 194.279 393.024 204.65L395.575 179.648L463.319 162.036C462.661 172.814 461.885 183.36 460.998 193.731C442.927 197.575 416.349 203.262 392.436 210.323C392.436 210.323 359.142 184.127 344.114 172.104C343.839 181.395 343.839 189.491 343.566 198.782C343.279 200.645 343.565 202.55 344.386 204.246C345.073 205.508 346.001 206.623 347.118 207.526C357.636 217.412 368.476 226.17 379.388 235.404C367.606 249.335 312.339 315.523 312.339 315.523C308.634 311.144 303.441 308.29 297.758 307.508V247.75C297.742 246.496 297.236 245.299 296.349 244.413C295.463 243.526 294.265 243.021 293.011 243.005H235.46C235.46 233.176 235.194 196.755 235.187 187.105C252.909 187.454 270.504 187.708 285.365 187.839L284.817 155.424C249.567 154.877 214.59 155.424 179.612 155.149C179.612 165.533 179.885 174.989 179.885 185.652C195.51 186.202 214.157 186.68 232.797 187.058C232.797 196.731 233.062 233.191 233.069 243.005H175.511C174.257 243.021 173.059 243.526 172.173 244.413C171.286 245.299 170.78 246.496 170.764 247.75V310.807C163.744 307.596 155.834 306.895 148.359 308.823C127.434 271.295 125.123 269.382 103.565 232.407C113.255 224.184 123.201 215.863 132.507 207.105C133.773 206.092 134.822 204.835 135.592 203.407C136.516 201.543 136.85 199.441 136.549 197.381L134.35 93.8163C134.33 92.9701 133.434 92.5064 132.66 92.3821C131.653 92.2244 128.904 91.971 120.641 91.077C102.993 89.1647 87.7312 87.5083 68.6589 86.3896C68.393 86.3432 68.1201 86.3585 67.861 86.4344C67.602 86.5102 67.3639 86.6445 67.165 86.827C48.8361 95.8815 30.9685 105.71 12.5726 116.864C12.3683 116.988 12.2061 117.172 12.1071 117.389C12.0081 117.607 11.9767 117.85 12.0172 118.086C12.0576 118.322 12.1679 118.54 12.3339 118.713C12.4998 118.885 12.7137 119.004 12.9479 119.053C13.2467 130.063 14.0307 140.033 14.559 151.119C20.6256 153.357 82.9076 168.007 83.1466 168.062C82.353 156.407 81.5571 145.873 80.7563 134.284L132.009 96.1827L132.741 130.704C132.535 130.614 132.309 130.584 132.087 130.617C131.865 130.65 131.657 130.744 131.486 130.89L82.451 172.995C81.4089 172.787 32.8688 160.893 27.4045 159.801C23.062 158.965 18.7733 157.869 14.5614 156.521C15.1064 167.995 15.9262 177.078 17.021 188.552C43.0085 193.502 58.9256 198.718 86.156 204.674C85.1282 194.143 84.3418 185.482 83.5697 175.175L132.789 132.919L133.632 172.568C83.7944 211.783 86.1823 210.045 86.1608 209.806C63.2138 204.887 40.5249 198.333 17.2983 193.684C18.1182 203.522 18.938 212.163 20.0304 222.002C19.988 223.617 20.5761 225.185 21.6702 226.373C22.7479 227.021 23.967 227.396 25.2222 227.466C44.0793 232.046 61.8752 235.564 88.5655 242.47C88.5194 242.647 88.5145 242.832 88.5511 243.01C88.5877 243.189 88.6648 243.358 88.7765 243.502C88.8883 243.647 89.0316 243.764 89.1955 243.844C89.3595 243.924 89.5397 243.966 89.7224 243.966C90.4801 243.966 89.5025 244.38 101.727 233.984C123.053 270.535 125.529 272.774 146.029 309.532C130.523 314.856 121.296 332.188 123.266 343.8C114.725 340.889 104.669 344.125 98.0741 352.152C94.3988 356.69 92.1005 362.186 91.4511 367.989C90.8017 373.793 91.8284 379.661 94.4098 384.899C96.9834 389.649 100.942 393.502 105.759 395.947C110.577 398.392 116.024 399.313 121.377 398.586C121.057 403.01 126.378 411.145 126.469 411.274C128.344 413.969 130.79 416.218 133.633 417.86C136.477 419.502 139.647 420.496 142.919 420.773C153.883 421.55 164.14 415.552 172.152 409.72C174.471 422.525 187.522 430.394 198.424 433.3C208.195 436.179 218.639 435.781 228.162 432.167C236.636 428.778 239.224 424.105 242.141 417.273C243.157 421.958 245.373 426.298 248.57 429.87C251.767 433.441 255.837 436.122 260.381 437.648C264.442 439.065 268.848 439.156 272.964 437.909C280.292 435.074 283.72 427.473 285.632 419.867C286.876 423.492 288.908 426.796 291.582 429.541C294.257 432.286 297.507 434.403 301.098 435.741C305.663 437.26 310.572 437.413 315.223 436.182C319.873 434.95 324.064 432.388 327.279 428.809C329.354 426.278 330.859 423.329 331.689 420.163C332.52 416.997 332.657 413.689 332.091 410.466C333.413 411.918 334.828 413.282 336.326 414.551C344.996 420.625 361.663 416.346 368.249 408.611C372.97 403.113 374.346 391.362 368.168 387.127C370.586 386.318 372.809 385.012 374.693 383.293C376.576 381.573 378.079 379.478 379.103 377.142C385.426 361.964 365.67 346.403 351.115 350.88C353.752 346.485 354.736 341.294 353.888 336.239C353.041 331.185 350.419 326.598 346.494 323.303C342.568 320.008 337.596 318.221 332.471 318.263C327.346 318.305 322.404 320.173 318.533 323.533C318.056 323.894 317.609 324.294 317.196 324.728C316.495 322.133 315.356 319.677 313.831 317.464C313.831 317.464 369.444 250.867 381.216 236.951C383.586 238.966 385.955 241.015 388.325 243.096C388.395 243.348 388.545 243.57 388.752 243.728C388.96 243.887 389.214 243.973 389.475 243.973C390.431 243.973 394.432 242.341 432.696 233.695C440.149 232.022 447.194 230.415 454.391 228.675C455.778 228.58 457.124 228.164 458.323 227.461C459.079 226.804 459.678 225.986 460.075 225.067C460.473 224.147 460.659 223.151 460.62 222.15C464.452 187.33 466.603 152.984 467.712 118.396ZM15.1829 118.085C33.1676 107.233 50.6623 97.6384 68.6111 88.7847C91.049 90.1065 108.145 92.1622 130.243 94.5214C76.743 134.296 79.1835 132.434 78.9731 132.676C58.012 126.574 36.7123 121.702 15.1829 118.085ZM89.5359 241.33C88.3671 231.427 87.3846 222.358 86.4429 212.734L133.692 175.558L134.17 197.575C134.425 199.167 134.195 200.798 133.511 202.258C132.878 203.424 132.019 204.452 130.984 205.281C117.617 217.831 103.412 229.127 89.5359 241.33ZM175.511 245.393C191.239 245.393 277.577 245.441 293.014 245.393C293.634 245.408 294.224 245.661 294.663 246.099C295.101 246.538 295.355 247.128 295.371 247.748V321.257C295.355 321.877 295.102 322.468 294.663 322.907C294.225 323.345 293.634 323.599 293.014 323.614H175.511C174.89 323.599 174.3 323.345 173.861 322.907C173.422 322.468 173.169 321.877 173.154 321.257V247.755C173.17 247.135 173.423 246.545 173.862 246.107C174.3 245.668 174.891 245.415 175.511 245.4V245.393ZM177.827 326.004H290.676L312.98 356.973C313.219 357.451 313.219 357.977 312.684 357.977H156.383C155.666 357.977 155.559 357.372 155.719 357.128L177.827 326.004ZM318.2 327.142C319.93 325.175 322.045 323.583 324.414 322.465C326.783 321.347 329.356 320.727 331.974 320.644C334.592 320.56 337.2 321.014 339.635 321.977C342.071 322.941 344.283 324.394 346.135 326.247C347.987 328.099 349.439 330.312 350.402 332.748C351.365 335.184 351.818 337.792 351.733 340.41C351.648 343.028 351.028 345.601 349.909 347.97C348.79 350.338 347.198 352.452 345.23 354.181C344.992 354.391 344.848 354.687 344.828 355.003C344.808 355.32 344.915 355.631 345.125 355.869C345.335 356.106 345.63 356.251 345.947 356.271C346.263 356.29 346.575 356.184 346.812 355.974C359.201 345.354 383.145 361.221 376.899 376.189C375.743 378.84 373.876 381.12 371.505 382.777C369.134 384.434 366.351 385.402 363.463 385.575C363.146 385.569 362.84 385.69 362.612 385.909C362.383 386.129 362.252 386.431 362.246 386.748C362.239 387.065 362.36 387.371 362.58 387.6C362.799 387.828 363.101 387.96 363.418 387.966C372.145 388.683 370.971 401.746 366.43 407.04C360.581 413.91 345.302 417.904 337.782 412.643C334.475 409.876 331.622 406.607 329.327 402.955C329.127 402.626 328.931 402.296 328.718 401.968C328.546 401.708 328.279 401.526 327.974 401.46C327.669 401.394 327.351 401.45 327.087 401.616C326.822 401.781 326.633 402.044 326.56 402.347C326.486 402.65 326.534 402.969 326.693 403.237C326.884 403.56 327.09 403.876 327.286 404.194C329.401 407.749 330.362 411.872 330.037 415.996C329.712 420.12 328.117 424.042 325.472 427.222C322.575 430.44 318.804 432.745 314.619 433.856C310.434 434.966 306.017 434.834 301.906 433.475C297.819 431.967 294.238 429.341 291.572 425.896C288.905 422.451 287.26 418.326 286.825 413.992C286.8 413.703 286.671 413.434 286.462 413.234C286.253 413.033 285.979 412.915 285.69 412.902C285.401 412.888 285.117 412.98 284.89 413.161C284.664 413.341 284.511 413.597 284.459 413.882C282.912 422.391 280.111 432.557 272.192 435.633C268.577 436.706 264.717 436.617 261.156 435.38C256.333 433.766 252.11 430.736 249.036 426.685C245.962 422.634 244.182 417.751 243.926 412.672C243.913 412.402 243.808 412.144 243.629 411.941C243.45 411.737 243.208 411.601 242.941 411.554C242.674 411.507 242.4 411.551 242.162 411.681C241.924 411.81 241.737 412.016 241.632 412.266C237.852 421.21 236.268 426.33 227.29 429.925C218.246 433.348 208.331 433.718 199.058 430.979C188.301 428.111 175.367 420.223 174.256 407.437C174.238 407.224 174.163 407.02 174.039 406.845C173.916 406.671 173.747 406.533 173.552 406.445C173.356 406.358 173.141 406.325 172.929 406.35C172.716 406.374 172.514 406.455 172.344 406.584C164.455 412.502 153.976 419.217 143.105 418.373C140.183 418.128 137.351 417.24 134.812 415.773C132.273 414.305 130.09 412.295 128.419 409.885C126.297 406.859 123.082 400.324 123.83 398.347C123.852 398.267 123.897 398.196 123.96 398.142C124.022 398.087 124.099 398.052 124.181 398.041C124.488 397.962 124.752 397.765 124.913 397.492C125.075 397.219 125.121 396.894 125.043 396.586C124.964 396.279 124.767 396.016 124.494 395.854C124.221 395.693 123.895 395.646 123.588 395.725C118.39 396.998 112.916 396.517 108.02 394.355C103.123 392.193 99.0795 388.473 96.518 383.773C94.1556 378.952 93.2214 373.555 93.8258 368.22C94.4301 362.884 96.5478 357.833 99.929 353.662C106.383 345.801 116.47 343.006 124.444 346.876C124.654 346.977 124.889 347.015 125.12 346.984C125.351 346.953 125.568 346.856 125.744 346.704C125.92 346.551 126.048 346.351 126.112 346.126C126.176 345.902 126.173 345.664 126.103 345.442C123.11 335.95 129.973 322.772 138.27 316.412C142.865 312.918 148.351 310.789 154.101 310.268C159.85 309.748 165.629 310.856 170.778 313.467V321.276C170.794 322.428 171.222 323.537 171.985 324.4C172.748 325.263 173.796 325.825 174.937 325.983L153.764 355.795C153.474 356.235 153.306 356.743 153.276 357.269C153.247 357.795 153.356 358.32 153.594 358.79C151.384 358.301 149.093 358.32 146.892 358.845C144.69 359.369 142.637 360.386 140.885 361.818C140.76 361.917 140.657 362.039 140.58 362.178C140.504 362.316 140.456 362.469 140.439 362.627C140.422 362.784 140.436 362.943 140.481 363.095C140.527 363.247 140.601 363.389 140.702 363.511C140.802 363.634 140.926 363.736 141.066 363.81C141.206 363.884 141.359 363.93 141.517 363.945C141.675 363.96 141.834 363.943 141.985 363.895C142.136 363.848 142.277 363.77 142.398 363.668C143.707 362.596 145.22 361.801 146.845 361.329C148.47 360.857 150.174 360.72 151.854 360.924C154.881 361.271 157.683 362.691 159.752 364.928C161.82 367.165 163.018 370.07 163.126 373.115C163.127 373.316 163.178 373.514 163.275 373.69C163.372 373.867 163.512 374.016 163.682 374.123C163.852 374.231 164.046 374.294 164.247 374.307C164.448 374.319 164.649 374.281 164.831 374.195C169.227 372.066 173.993 370.805 178.867 370.481C181.184 370.347 183.495 370.832 185.563 371.886C187.631 372.94 189.382 374.526 190.634 376.48C190.807 376.738 191.073 376.919 191.376 376.984C191.68 377.049 191.996 376.993 192.26 376.829C192.523 376.665 192.712 376.405 192.787 376.104C192.862 375.803 192.817 375.484 192.661 375.216C191.19 372.892 189.122 371.005 186.673 369.752C184.224 368.5 181.483 367.927 178.738 368.095C174.137 368.387 169.622 369.48 165.397 371.324C164.942 368.364 163.621 365.605 161.601 363.393C173.737 363.728 288.329 363.695 304.602 363.212C301.683 365.618 299.393 368.7 297.931 372.189C296.469 375.678 295.878 379.471 296.21 383.24C296.223 383.397 296.268 383.55 296.341 383.689C296.414 383.829 296.513 383.953 296.634 384.054C296.755 384.156 296.894 384.232 297.044 384.279C297.195 384.327 297.353 384.344 297.51 384.33C297.667 384.316 297.82 384.272 297.959 384.199C298.099 384.126 298.223 384.026 298.324 383.906C298.425 383.785 298.502 383.645 298.549 383.495C298.596 383.345 298.614 383.187 298.6 383.03C298.269 379.14 299.026 375.235 300.788 371.751C302.55 368.268 305.247 365.343 308.576 363.305C311.906 361.267 315.737 360.195 319.64 360.211C323.544 360.226 327.367 361.327 330.68 363.391C330.815 363.479 330.966 363.538 331.124 363.566C331.282 363.594 331.444 363.59 331.601 363.554C331.757 363.518 331.905 363.451 332.035 363.356C332.165 363.262 332.275 363.142 332.357 363.004C332.44 362.866 332.494 362.713 332.516 362.554C332.538 362.395 332.528 362.233 332.486 362.078C332.444 361.923 332.372 361.778 332.272 361.651C332.173 361.525 332.05 361.42 331.909 361.342C327.033 358.241 321.161 357.107 315.48 358.171C315.647 357.337 315.492 356.471 315.048 355.747L293.621 325.971C294.763 325.814 295.811 325.253 296.576 324.389C297.34 323.526 297.769 322.417 297.785 321.264V309.92C302.18 310.617 306.244 312.683 309.399 315.822C312.554 318.961 314.639 323.015 315.358 327.407C315.502 328.404 316.491 329.042 318.2 327.149V327.142ZM398.419 131.767C398.264 131.816 398.12 131.897 397.996 132.004C397.873 132.111 397.773 132.242 397.702 132.389L348.804 95.915C348.681 95.8241 348.589 95.6982 348.539 95.5539C348.489 95.4095 348.484 95.2535 348.524 95.1062C348.564 94.9589 348.648 94.8272 348.765 94.7284C348.881 94.6296 349.025 94.5683 349.176 94.5525C371.304 92.1933 388.449 90.128 410.875 88.799C427.987 97.2392 445.312 106.554 463.744 117.22C439.913 121.874 421.938 124.637 398.419 131.774V131.767ZM458.237 222.002C458.268 223.237 457.854 224.442 457.07 225.398C456.21 225.911 455.24 226.211 454.24 226.271C453.791 226.271 454.89 226.211 432.168 231.353C420.131 234.075 406.491 237.159 389.429 241.547L392.238 212.863C415.976 205.798 442.544 200.092 460.785 196.21C460.018 204.914 459.169 213.511 458.237 222.002Z" fill="#0B0B14"/>
<path d="M179.61 122.636V150.304C192.709 149.919 265.929 149.826 284.545 150.032L283.997 121.826C279.86 121.817 197.669 123.248 179.61 122.636Z" fill="#0B0B14"/>
<path d="M284.275 83.538C278.754 70.5883 272.455 57.9843 265.413 45.795C265.027 44.7025 264.302 43.7624 263.343 43.113C262.982 42.874 262.229 42.3696 248.42 42.3696C246.601 42.3696 235.139 41 202.837 41C201.808 41.053 200.796 41.2809 199.844 41.6741C198.724 42.2791 197.799 43.1913 197.179 44.3034C189.466 56.6553 183.191 69.8487 178.477 83.6264C178.417 83.8038 178.399 83.9928 178.425 84.1783C178.451 84.3639 178.52 84.5406 178.627 84.6944C178.734 84.8482 178.876 84.9746 179.041 85.0636C179.206 85.1525 179.389 85.2015 179.577 85.2064C179.338 96.3525 179.338 106.263 179.338 117.521C186.987 118.341 220.327 117.249 229.343 117.249L283.722 116.701L283.187 85.2064C283.384 85.2048 283.578 85.1544 283.751 85.0598C283.924 84.9651 284.071 84.8292 284.178 84.664C284.286 84.4988 284.351 84.3095 284.368 84.1131C284.385 83.9166 284.353 83.7191 284.275 83.538ZM180.965 84.1428C185.586 70.6534 191.699 57.7222 199.189 45.5894C199.556 44.8938 200.096 44.3044 200.757 43.8779C201.422 43.6138 202.123 43.4526 202.837 43.3999C221.17 43.3999 235.555 43.8325 248.198 44.7671C255.483 44.7671 261.371 44.9512 262.018 45.1113C262.618 45.5605 263.061 46.1868 263.285 46.9017C270.24 58.9342 276.466 71.3735 281.93 84.1523L180.965 84.1428Z" fill="#0B0B14"/>
</svg>
