<svg viewBox="0 0 480 480" fill="none" xmlns="http://www.w3.org/2000/svg">
<path fill-rule="evenodd" clip-rule="evenodd" d="M185.013 200.94C183.844 201.578 182.829 202.462 182.037 203.532C181.234 202.756 180.367 202.049 179.445 201.42C173.949 198.708 167.446 204.564 173.037 211.979C175.56 215.01 178.702 217.465 182.253 219.179C186.284 216.611 194.756 210.467 193.988 205.452C193.87 204.464 193.509 203.52 192.937 202.706C192.366 201.892 191.601 201.232 190.712 200.785C189.823 200.338 188.837 200.118 187.843 200.145C186.848 200.172 185.876 200.445 185.013 200.94ZM99.1231 137.729C104.072 137.765 109.015 137.404 113.906 136.649C114.129 136.649 114.342 136.56 114.5 136.403C114.657 136.245 114.746 136.032 114.746 135.809C114.746 135.586 114.657 135.373 114.5 135.215C114.342 135.058 114.129 134.969 113.906 134.969C109.03 134.187 104.108 133.73 99.1711 133.601C95.6914 133.601 89.3559 133.457 86.0201 133.601C82.6844 133.745 76.4209 134.441 75.5569 134.609C66.2457 136.457 89.6199 137.753 99.1231 137.729ZM241.528 63.3346C246.477 63.3772 251.421 63.016 256.311 62.2546C256.534 62.2546 256.747 62.1661 256.905 62.0086C257.063 61.8511 257.151 61.6375 257.151 61.4147C257.151 61.1919 257.063 60.9783 256.905 60.8208C256.747 60.6633 256.534 60.5748 256.311 60.5748C251.436 59.7843 246.513 59.3273 241.576 59.2069C238.001 59.2069 231.641 59.0629 228.425 59.2069C225.209 59.3509 218.826 60.0468 217.962 60.2148C209.179 61.9427 231.905 63.3586 241.528 63.3346ZM349.496 129.21C354.445 129.237 359.389 128.868 364.279 128.106C364.498 128.106 364.709 128.018 364.864 127.863C365.02 127.708 365.107 127.497 365.107 127.278C365.107 127.058 365.02 126.847 364.864 126.692C364.709 126.537 364.498 126.45 364.279 126.45C359.403 125.664 354.481 125.207 349.544 125.082C345.992 125.082 339.609 124.938 336.393 125.082C333.177 125.226 326.794 125.922 325.93 126.09C316.642 127.938 339.969 129.234 349.496 129.21ZM457.272 72.2139C452.396 71.4277 447.474 70.9707 442.537 70.846C438.985 70.846 432.578 70.702 429.386 70.846C426.194 70.99 419.787 71.6859 418.923 71.8539C410.091 73.6058 433.322 75.0217 442.489 74.9977C447.438 75.0281 452.382 74.6589 457.272 73.8937C457.494 73.8937 457.708 73.8053 457.866 73.6477C458.023 73.4902 458.112 73.2766 458.112 73.0538C458.112 72.831 458.023 72.6174 457.866 72.4599C457.708 72.3024 457.494 72.2139 457.272 72.2139ZM90.0278 87.4287C89.5959 90.3085 89.3559 101.54 90.4598 103.867C90.8198 104.563 92.3796 104.683 93.5076 104.803C99.8191 105.475 130.345 106.003 133.417 103.987C134.112 103.555 134.232 102.548 134.328 101.42C134.64 97.6519 134.04 87.9567 132.865 85.6048C132.217 84.3089 128.641 84.3329 90.6518 86.2528C90.1958 86.3968 90.0998 86.9727 90.0278 87.4287ZM90.9158 87.0927C117.026 86.8048 128.593 86.6608 131.209 86.9248C132.183 92.0315 132.449 97.2481 132.001 102.428C132.001 102.188 101.571 104.827 91.6357 102.956C90.7871 97.7132 90.5455 92.3904 90.9158 87.0927ZM62.8139 57.359C69.1254 58.031 99.6511 58.5589 102.723 56.5431C103.395 56.0871 103.539 55.1032 103.611 53.9753C103.923 50.2076 103.347 40.4883 102.171 38.1605C101.523 36.8646 97.8032 36.8886 59.9581 38.8084C59.5022 38.8084 59.4062 39.5284 59.3342 39.9843C58.9022 42.8641 58.6622 54.0953 59.7661 56.3991C60.0061 57.119 61.662 57.239 62.8139 57.359ZM60.2221 39.6484C86.2601 39.3364 97.8752 39.2164 100.515 39.4804C101.526 44.5742 101.816 49.7846 101.379 54.9592C101.379 54.7192 70.9013 57.359 61.0141 55.5112C60.1541 50.2702 59.8884 44.9489 60.2221 39.6484ZM301.476 54.5032C307.739 55.1752 338.313 55.7271 341.385 53.7113C342.057 53.2553 342.201 52.2714 342.297 51.1195C342.584 47.3518 342.009 37.6565 340.833 35.3047C340.185 34.0088 336.561 34.0568 298.62 35.9767C298.164 35.9767 298.068 36.6726 297.996 37.1526C297.564 40.0563 297.324 51.2395 298.428 53.5673C298.764 54.2872 300.372 54.3832 301.476 54.5032ZM298.884 36.7926C324.658 36.5046 336.561 36.3606 339.177 36.6246C340.187 41.7265 340.478 46.9448 340.041 52.1274C340.161 51.8874 309.563 54.5272 299.676 52.6554C298.815 47.4146 298.549 42.0931 298.884 36.7926ZM168.91 104.179C168.478 107.083 168.238 118.29 169.342 120.618C169.678 121.314 171.286 121.434 172.39 121.554C178.485 122.202 189.188 122.25 195.188 122.154C197.588 122.154 210.451 121.962 212.298 120.738C212.97 120.306 213.09 119.322 213.186 118.17C213.498 114.403 212.922 104.707 211.747 102.356C211.459 101.756 210.787 101.684 210.115 101.636C203.515 101.108 176.157 102.692 169.51 103.004C169.078 103.028 168.982 103.723 168.91 104.179ZM169.774 103.843C172.965 103.843 207.043 103.363 210.091 103.675C211.102 108.777 211.393 113.996 210.955 119.178C210.955 118.938 180.477 121.578 170.59 119.706C169.721 114.466 169.448 109.145 169.774 103.843ZM350 99.6678C356.263 100.34 386.837 100.868 389.909 98.8518C390.581 98.4199 390.701 97.4119 390.797 96.284C391.109 92.5163 390.533 82.7971 389.357 80.4692C388.709 79.1493 385.085 79.1973 347.144 81.1172C346.688 81.1172 346.592 81.8371 346.52 82.2931C346.088 85.1969 345.848 96.404 346.952 98.7078C347.288 99.4278 348.896 99.5478 350 99.6678ZM347.408 81.9331C350.576 81.9331 384.653 81.4772 387.701 81.7891C388.712 86.8829 389.002 92.0933 388.565 97.268C388.685 97.028 358.087 99.6678 348.2 97.8199C347.339 92.5709 347.074 87.2417 347.408 81.9331ZM414.843 47.3278C420.938 47.9757 431.522 48.0237 437.641 47.9277C440.041 47.9277 452.904 47.7357 454.752 46.5118C455.424 46.0799 455.568 45.096 455.64 43.944C455.952 40.1763 455.376 30.4571 454.2 28.1293C453.912 27.5293 453.24 27.4573 452.568 27.4093C445.969 26.8813 418.611 28.4892 411.987 28.7772C411.531 28.7772 411.435 29.4971 411.363 29.9771C410.931 32.8569 410.691 44.064 411.795 46.3918C412.131 47.0878 413.739 47.2078 414.843 47.3278ZM412.251 29.6171C415.419 29.6171 449.496 29.1372 452.544 29.4492C453.555 34.551 453.846 39.7694 453.408 44.952C453.408 44.712 422.93 47.3518 413.043 45.4799C412.182 40.239 411.917 34.9177 412.251 29.6171ZM140.856 47.9997C142.632 49.0796 149.135 48.1437 151.199 47.8317C150.911 50.7835 150.407 67.0303 151.919 69.8381C152.081 70.0541 152.287 70.2339 152.522 70.3661C152.758 70.4984 153.018 70.5801 153.287 70.606C157.703 71.6379 175.725 70.918 177.813 70.294C178.509 70.102 178.773 69.4781 178.941 68.7581C179.733 65.2304 178.941 52.9194 178.749 49.2956C180.861 49.4396 187.148 49.5836 188.828 48.3117C189.02 48.1752 189.176 47.9953 189.284 47.7867C189.393 47.5782 189.45 47.3469 189.452 47.1118C189.404 40.8003 170.398 11.6905 164.71 12.0025C158.111 12.3865 140.496 40.8003 140.232 46.8478C140.219 47.0788 140.27 47.3088 140.381 47.5122C140.491 47.7156 140.655 47.8844 140.856 47.9997ZM164.854 14.0663C168.478 13.8983 186.596 40.0083 187.412 46.7518C184.252 47.3697 181.017 47.5153 177.813 47.1838C177.664 47.1682 177.514 47.186 177.373 47.2358C177.232 47.2856 177.103 47.3662 176.997 47.4718C176.277 48.1917 176.997 48.4797 177.381 60.9347C177.482 63.456 177.418 65.9813 177.189 68.4942C173.829 69.1181 156.935 70.054 153.191 69.0461C151.943 66.3343 151.895 49.6316 152.159 47.4478C152.196 47.3849 152.216 47.3137 152.218 47.2409C152.22 47.1681 152.203 47.096 152.169 47.0313C152.136 46.9667 152.087 46.9116 152.026 46.8711C151.965 46.8306 151.896 46.8061 151.823 46.7998C149.564 47.1206 147.289 47.3129 145.008 47.3758C143.801 47.4686 142.589 47.2966 141.456 46.8718C141.816 41.0883 160.006 14.2343 164.806 13.9943L164.854 14.0663ZM411.099 97.34C404.524 97.7239 386.885 126.138 386.645 132.185C386.631 132.401 386.68 132.615 386.787 132.803C386.893 132.991 387.053 133.143 387.245 133.241C389.021 134.345 395.524 133.409 397.612 133.097C397.324 135.497 396.772 152.296 398.308 155.104C398.476 155.319 398.686 155.498 398.925 155.63C399.165 155.762 399.428 155.844 399.7 155.871C404.116 156.903 422.114 156.183 424.226 155.559C424.898 155.367 425.162 154.744 425.33 154.024C426.146 150.496 425.33 138.209 425.138 134.561C427.226 134.561 433.538 134.849 435.217 133.553C435.413 133.427 435.573 133.252 435.682 133.046C435.791 132.84 435.846 132.61 435.841 132.377C435.793 126.066 416.811 97.028 411.099 97.34ZM424.13 132.449C423.985 132.436 423.839 132.454 423.702 132.504C423.565 132.554 423.441 132.634 423.338 132.737C422.594 133.457 423.338 133.721 423.698 146.2C423.812 148.721 423.747 151.247 423.506 153.76C419.979 154.408 403.18 155.296 399.508 154.312C398.26 151.6 398.212 134.921 398.5 132.713C398.537 132.65 398.557 132.579 398.559 132.506C398.561 132.434 398.544 132.361 398.511 132.297C398.477 132.232 398.428 132.177 398.367 132.137C398.307 132.096 398.237 132.072 398.164 132.065C395.906 132.386 393.63 132.571 391.349 132.617C390.144 132.733 388.928 132.569 387.797 132.137C388.229 126.306 406.42 99.4758 411.219 99.2358C414.819 99.0918 432.938 125.154 433.754 131.921C430.59 132.575 427.346 132.753 424.13 132.449ZM247.192 130.121C245.92 130.265 243.208 130.673 242.896 129.449C242.392 127.53 243.568 118.65 243.064 118.194C242.56 117.738 242.536 117.978 242.416 118.194C241.104 121.547 240.483 125.131 240.592 128.73C240.832 131.873 242.992 132.617 245.512 131.753C246.157 131.541 246.79 131.292 247.408 131.009C247.526 130.981 247.627 130.906 247.69 130.803C247.753 130.699 247.772 130.575 247.744 130.457C247.715 130.34 247.641 130.238 247.537 130.175C247.434 130.112 247.31 130.093 247.192 130.121ZM238.624 120.354C238.577 120.018 238.399 119.715 238.13 119.508C237.861 119.302 237.521 119.209 237.185 119.25C236.851 119.292 236.547 119.465 236.34 119.73C236.133 119.996 236.04 120.332 236.081 120.666C236.273 122.034 236.081 123.81 237.665 123.81C237.856 123.812 238.046 123.771 238.219 123.688C238.392 123.605 238.544 123.483 238.662 123.332C238.78 123.182 238.862 123.005 238.902 122.818C238.941 122.63 238.936 122.436 238.888 122.25C238.722 121.631 238.634 120.995 238.624 120.354ZM250.816 120.354C250.876 120.64 251.033 120.896 251.261 121.08C251.488 121.263 251.771 121.363 252.063 121.362C252.252 121.366 252.439 121.328 252.611 121.249C252.782 121.171 252.934 121.054 253.054 120.909C253.174 120.763 253.26 120.592 253.304 120.409C253.349 120.226 253.351 120.035 253.311 119.85C253.311 119.25 253.311 118.65 253.023 117.738C252.897 117.492 252.694 117.294 252.445 117.173C252.195 117.053 251.913 117.017 251.642 117.071C251.371 117.126 251.124 117.267 250.94 117.474C250.757 117.681 250.645 117.942 250.624 118.218C250.696 119.058 250.648 119.514 250.816 120.354ZM255.159 131.129C253.071 134.105 250.911 136.697 247.504 136.985C247.404 137.008 247.314 137.065 247.25 137.146C247.186 137.226 247.152 137.326 247.152 137.429C247.152 137.532 247.186 137.632 247.25 137.712C247.314 137.793 247.404 137.849 247.504 137.873C248.496 138.281 249.587 138.389 250.64 138.184C251.693 137.979 252.664 137.471 253.431 136.721C254.979 135.39 255.936 133.5 256.095 131.465C256.117 131.404 256.127 131.339 256.124 131.273C256.121 131.208 256.105 131.144 256.077 131.085C256.049 131.026 256.01 130.973 255.961 130.929C255.913 130.885 255.857 130.851 255.795 130.829C255.734 130.807 255.668 130.798 255.603 130.801C255.538 130.804 255.474 130.82 255.415 130.848C255.356 130.876 255.303 130.915 255.259 130.963C255.215 131.011 255.181 131.068 255.159 131.129Z" fill="#0B0B14"/>
<path fill-rule="evenodd" clip-rule="evenodd" d="M413.307 253.808C406.78 249.224 402.34 249.32 400.756 248.264C402.759 240.312 403.839 232.154 403.972 223.954C403.66 209.315 393.053 190.669 380.214 184.261C372.894 180.638 359.815 176.894 351.704 177.806C347.196 178.327 342.817 179.643 338.769 181.693C336.207 177.123 333.105 172.877 329.53 169.046C323.314 163.023 316.187 160.911 307.571 159.447C301.582 156.07 295.106 153.642 288.373 152.248C286.333 150.712 277.646 146.536 276.374 147.016C275.582 143.632 273.974 137.921 273.782 136.793C275.842 133.548 277.077 129.849 277.382 126.018C278.669 125.768 279.889 125.244 280.957 124.482C282.025 123.72 282.917 122.738 283.573 121.602C285.571 117.94 286.192 113.684 285.325 109.603C284.869 106.363 283.765 100.652 281.629 98.1798C281.586 97.5828 281.465 96.9939 281.269 96.428C281.935 95.9158 282.429 95.2125 282.685 94.4121C283.453 94.0762 284.533 94.8201 285.229 95.1801C287.203 96.8538 288.989 98.7366 290.557 100.796C290.62 101.006 290.765 101.182 290.958 101.285C291.152 101.389 291.378 101.411 291.589 101.348C291.799 101.284 291.975 101.139 292.078 100.946C292.182 100.752 292.204 100.526 292.14 100.316C292.404 93.4042 286.261 89.7085 282.541 92.2283C282.424 91.5286 282.205 90.8496 281.893 90.2125C287.269 87.2847 290.221 90.3324 293.124 95.996C294.264 97.9718 295.074 100.12 295.524 102.356C295.505 102.572 295.573 102.787 295.712 102.954C295.852 103.12 296.052 103.224 296.268 103.243C296.485 103.263 296.7 103.195 296.866 103.055C297.033 102.916 297.137 102.716 297.156 102.5C297.645 100.093 297.556 97.6053 296.897 95.2399C296.238 92.8745 295.027 90.6992 293.364 88.8926C289.597 84.6449 285.109 84.7169 282.589 86.8287C281.958 87.3892 281.372 87.999 280.837 88.6526C280.405 88.0526 279.901 87.4287 279.373 86.8047C280.856 85.5823 282.559 84.6538 284.389 84.0689C285.233 83.8417 286.114 83.7862 286.979 83.9057C287.845 84.0253 288.678 84.3174 289.429 84.7649C291.473 85.8574 293.424 87.1176 295.26 88.5326C295.403 88.6898 295.599 88.7872 295.811 88.8053C296.022 88.8234 296.233 88.7608 296.4 88.6301C296.567 88.4995 296.678 88.3103 296.712 88.1008C296.745 87.8913 296.698 87.6769 296.58 87.5007C295.544 84.9334 293.753 82.741 291.445 81.2131C290.331 80.4623 289.062 79.9711 287.733 79.7757C286.404 79.5803 285.048 79.6857 283.766 80.0841C282.483 80.4826 281.306 81.1639 280.321 82.0779C279.337 82.9918 278.57 84.1151 278.078 85.3648C277.454 84.7169 276.806 84.0929 276.134 83.517C278.534 80.3252 281.965 77.5654 285.901 78.2614C291.295 79.2209 296.137 82.1556 299.484 86.4927C299.592 86.6837 299.772 86.8238 299.983 86.8823C300.195 86.9408 300.421 86.9129 300.612 86.8047C300.803 86.6965 300.943 86.5169 301.001 86.3054C301.06 86.0939 301.032 85.8677 300.924 85.6768C300.159 83.5834 299.057 81.6296 297.66 79.8933C293.412 74.7336 281.605 70.294 276.182 79.2453C275.581 80.2321 275.083 81.2774 274.694 82.3651C273.504 81.4532 272.235 80.65 270.902 79.9652C272.003 77.4923 273.841 75.4201 276.165 74.0324C278.49 72.6448 281.186 72.0096 283.885 72.2138C289.837 72.7845 295.4 75.4258 299.604 79.6773C299.734 79.8523 299.929 79.9683 300.145 79.9998C300.361 80.0313 300.581 79.9757 300.756 79.8453C300.931 79.7148 301.047 79.5201 301.078 79.3041C301.11 79.0881 301.054 78.8684 300.924 78.6933C292.164 63.3585 271.79 65.2544 269.126 79.1493C267.824 78.6018 266.463 78.2072 265.071 77.9734C265.526 69.814 274.358 66.5263 283.189 67.0782C285.033 67.0895 286.86 67.4225 288.589 68.0622C288.68 68.1205 288.782 68.1602 288.889 68.1791C288.996 68.198 289.105 68.1956 289.211 68.1723C289.317 68.1489 289.417 68.1048 289.506 68.0427C289.595 67.9806 289.67 67.9016 289.729 67.8102C289.787 67.7188 289.827 67.6168 289.846 67.5101C289.864 67.4033 289.862 67.2939 289.839 67.188C289.815 67.0822 289.771 66.982 289.709 66.8931C289.647 66.8043 289.568 66.7286 289.477 66.6703C287.79 65.3341 285.846 64.3617 283.765 63.8145C273.47 60.8147 260.511 67.7262 263.175 77.8054C261.54 77.6503 259.905 78.0993 258.578 79.0676C257.252 80.0359 256.326 81.4565 255.975 83.061C254.723 82.5117 253.333 82.3576 251.991 82.6192C250.649 82.8807 249.418 83.5456 248.464 84.5249C246.514 84.3972 244.571 84.8571 242.885 85.8454C241.2 86.8336 239.849 88.3047 239.009 90.0685C232.817 94.8681 231.809 99.6677 231.041 107.491C230.93 111.15 231.211 114.811 231.881 118.41C233.297 126.906 235.025 133.577 241.048 139.697C242.723 141.611 244.801 143.132 247.133 144.148C249.465 145.165 251.993 145.653 254.535 145.576C255.039 150.376 255.063 149.824 254.871 149.848C245.272 151.264 244.264 150.808 244.696 153.04L242.704 153.568C233.825 148.768 223.962 148.216 213.187 147.712C199.34 147.088 183.141 158.031 173.302 167.583C143.952 157.143 95.4515 179.582 94.8756 213.899C92.8357 214.427 52.2308 213.899 39.8718 259.064C33.6083 283.182 38.4079 294.221 46.7833 306.628C44.9834 308.86 32.5523 318.627 26.9608 330.818C15.2977 356.52 24.561 402.812 46.4233 420.187C63.702 433.914 86.4042 432.906 106.707 431.634C116.08 444.718 129.114 454.738 144.168 460.432C167.278 469.575 197.9 470.367 217.65 463.168C225.888 460.356 233.402 455.759 239.656 449.705C251.041 455.159 263.451 458.141 276.07 458.455C288.69 458.769 301.233 456.409 312.875 451.529C328.018 445.121 344.696 427.531 350.336 412.028C353.648 402.861 353.192 394.869 353.192 385.006C397.228 384.43 420.699 351.624 403.42 327.218C403.66 327.218 410.619 328.178 417.099 318.363C425.03 306.495 428.733 292.301 427.61 278.07C427.201 273.212 425.702 268.508 423.226 264.307C420.75 260.107 417.36 256.519 413.307 253.808ZM281.317 107.107C281.577 106.222 281.754 105.314 281.845 104.395C283.693 110.947 284.581 120.282 278.534 123.426C281.389 120.042 280.933 114.427 277.694 112.555C279.578 111.275 280.908 109.328 281.413 107.107H281.317ZM258.951 81.0212C259.701 80.4433 260.574 80.0472 261.503 79.8639C262.431 79.6807 263.39 79.7154 264.303 79.9652C270.542 80.9252 276.062 85.6528 280.021 90.5964C280.629 91.2207 281.024 92.0211 281.149 92.8833C281.274 93.7454 281.123 94.625 280.717 95.3961C280.331 94.4979 279.766 93.6879 279.056 93.0154C278.346 92.3429 277.507 91.8219 276.59 91.4844C276.044 90.2326 275.182 89.1447 274.088 88.3283C272.994 87.5118 271.705 86.9949 270.35 86.8287C269.703 85.8517 268.771 85.0973 267.681 84.668C266.59 84.2387 265.394 84.1553 264.255 84.4289C263.361 83.544 262.222 82.9475 260.986 82.7165C259.749 82.4854 258.472 82.6305 257.319 83.133C257.681 82.3057 258.242 81.5803 258.951 81.0212ZM252.495 144.736C244.96 143.728 238.433 135.857 236.129 128.61C234.152 121.837 233.182 114.81 233.249 107.755C233.384 104.55 234.04 101.389 235.193 98.3958C233.965 102.331 234.134 106.57 235.673 110.395C235.692 110.618 235.799 110.824 235.97 110.968C236.141 111.112 236.362 111.182 236.585 111.163C236.807 111.144 237.014 111.037 237.158 110.866C237.302 110.695 237.372 110.474 237.353 110.251C237.353 109.507 238.025 106.651 238.193 105.451C239.177 98.0839 240.976 93.1882 241.024 91.3164C241.564 90.1429 242.385 89.1211 243.415 88.3423C244.445 87.5634 245.652 87.0517 246.928 86.8527C240.904 92.1083 239.033 102.907 241.72 108.451C241.778 108.667 241.919 108.852 242.112 108.965C242.306 109.077 242.536 109.108 242.752 109.051C242.969 108.994 243.153 108.853 243.266 108.659C243.378 108.466 243.409 108.235 243.352 108.019C243.689 104.196 244.445 100.422 245.608 96.764C246.832 92.9005 248.525 89.2013 250.648 85.7488C251.307 85.2022 252.108 84.8535 252.957 84.7431C253.807 84.6327 254.67 84.765 255.447 85.1249C249.52 89.3245 245.272 100.604 247.552 107.443C247.554 107.561 247.582 107.677 247.632 107.784C247.682 107.891 247.755 107.986 247.844 108.063C247.933 108.14 248.038 108.197 248.151 108.231C248.264 108.264 248.383 108.274 248.5 108.259C248.617 108.243 248.73 108.204 248.83 108.142C248.931 108.08 249.018 107.998 249.084 107.901C249.151 107.804 249.197 107.693 249.218 107.577C249.239 107.461 249.236 107.342 249.208 107.227C250.019 103.39 251.168 99.6315 252.639 95.996C256.095 87.3807 258.207 85.4848 258.327 85.2448C259.01 84.9766 259.753 84.8997 260.476 85.0223C261.199 85.1449 261.875 85.4625 262.431 85.9408C260.929 86.9262 259.607 88.1596 258.519 89.5885C256.103 93.2113 254.468 97.2979 253.719 101.588C253.368 103.749 253.368 105.953 253.719 108.115C253.719 108.338 253.808 108.551 253.965 108.709C254.123 108.867 254.337 108.955 254.559 108.955C254.782 108.955 254.996 108.867 255.153 108.709C255.311 108.551 255.399 108.338 255.399 108.115C256.071 104.683 261.783 89.8285 264.423 86.9007C265.226 86.6368 266.096 86.66 266.884 86.9664C267.671 87.2728 268.328 87.8434 268.742 88.5806C268.07 90.4044 260.511 108.691 260.463 108.739C260.301 108.895 260.207 109.109 260.202 109.334C260.198 109.559 260.283 109.777 260.439 109.939C260.595 110.101 260.809 110.195 261.034 110.199C261.259 110.204 261.476 110.119 261.639 109.963C263.298 108.723 264.721 107.195 265.838 105.451C266.856 103.764 267.739 101.998 268.478 100.172C270.076 96.7646 270.778 93.0065 270.518 89.2525C271.389 89.4306 272.202 89.819 272.888 90.3836C273.574 90.9483 274.112 91.6723 274.454 92.4923C272.858 98.1835 270.728 103.712 268.094 109.003C267.56 110.305 266.832 111.519 265.934 112.603C265.782 112.736 265.682 112.92 265.655 113.121C265.627 113.322 265.673 113.526 265.784 113.696C265.895 113.866 266.064 113.989 266.259 114.044C266.455 114.099 266.663 114.081 266.846 113.995C270.59 112.483 273.11 108.427 274.646 104.683C276.204 101.303 276.754 97.5452 276.23 93.8602C282.061 96.26 278.006 105.307 275.174 112.291C274.585 112.413 274.029 112.659 273.542 113.011C271.142 114.667 271.358 116.058 272.366 115.411C278.845 111.091 279.781 120.69 276.062 124.314C274.406 124.602 276.062 126.474 273.854 132.113C270.902 139.745 270.758 132.497 274.622 147.832C262.407 152.632 262.095 153.424 259.887 154.072C258.889 152.58 257.667 151.253 256.263 150.136C256.119 149.992 256.263 150.688 255.567 145.336C255.543 144.4 254.391 145 252.495 144.736ZM245.296 154.983C245.916 158.085 246.824 161.122 248.008 164.055C248.221 164.209 248.477 164.292 248.74 164.292C249.003 164.292 249.259 164.209 249.472 164.055C252.551 162.128 255.479 159.97 258.231 157.599C250.456 174.038 246.472 185.869 244.456 203.388C244.456 203.496 244.499 203.6 244.576 203.676C244.652 203.753 244.756 203.796 244.864 203.796C244.972 203.796 245.076 203.753 245.153 203.676C245.229 203.6 245.272 203.496 245.272 203.388C247.672 189.349 253.359 173.342 258.423 159.663C258.283 162.061 258.283 164.465 258.423 166.863C258.438 167.024 258.492 167.18 258.58 167.317C258.668 167.453 258.788 167.567 258.93 167.647C259.071 167.727 259.23 167.772 259.392 167.777C259.555 167.783 259.716 167.749 259.863 167.679C264.159 165.951 283.645 156.351 287.749 153.928C327.73 162.567 348.632 210.251 342.225 243.585C319.762 237.777 296.628 246.392 279.829 262.303C267.635 260.053 255.91 255.753 245.152 249.584V237.585C287.437 235.329 287.389 235.185 287.389 233.817C287.391 223.167 288.097 212.529 289.501 201.972C292.404 181.813 296.34 182.029 295.164 181.213C295.128 181.173 295.084 181.14 295.034 181.117C294.985 181.095 294.931 181.083 294.876 181.083C294.822 181.083 294.768 181.095 294.718 181.117C294.669 181.14 294.624 181.173 294.588 181.213C287.677 190.813 285.997 221.362 285.733 233.097C280.933 233.937 248.68 235.305 244.6 235.497C242.992 235.497 243.16 236.457 243.088 239.577C237.305 239.385 235.337 239.289 231.785 240.681C231.617 223.258 230.921 191.341 229.097 187.477C228.852 187.1 228.476 186.826 228.041 186.709C225.642 185.869 214.674 183.709 201.259 181.333C212.936 168.251 228.336 159.056 245.392 154.983H245.296ZM235.553 241.209C238.029 240.793 240.531 240.552 243.04 240.489V249.656C230.849 250.232 227.969 250.328 227.513 249.656C227.489 249.584 226.481 243.825 235.649 241.209H235.553ZM227.297 188.653C228.833 193.453 229.505 225.13 229.697 241.593C226.769 243.297 225.45 245.529 225.714 249.992C215.082 248.24 151.127 236.025 147.456 233.721C147.378 233.672 147.314 233.605 147.268 233.525C147.222 233.446 147.196 233.357 147.192 233.265C145.296 222.178 143.568 181.046 143.928 174.518C151.535 174.422 220.794 186.373 227.393 188.653H227.297ZM415.467 317.427C413.067 320.907 408.268 325.418 404.212 325.418H401.5C401.317 325.42 401.139 325.474 400.986 325.574C400.833 325.673 400.711 325.815 400.636 325.981C400.56 326.147 400.534 326.332 400.559 326.513C400.585 326.694 400.661 326.863 400.78 327.002C404.733 331.753 406.988 337.687 407.188 343.863C407.388 350.04 405.521 356.107 401.884 361.104C391.565 376.535 370.686 383.11 352.184 383.086C351.91 383.086 351.648 383.195 351.454 383.388C351.261 383.582 351.152 383.844 351.152 384.118C351.371 390.202 351.194 396.295 350.624 402.357C347.912 422.467 327.754 443.153 312.083 449.705C300.647 454.631 288.268 456.983 275.822 456.592C263.483 456.037 251.377 453.035 240.208 447.761C239.962 447.647 239.691 447.601 239.421 447.626C239.151 447.652 238.893 447.748 238.673 447.905C232.546 453.909 225.172 458.489 217.074 461.32C197.876 468.111 167.662 467.44 145.08 458.512C130.155 452.857 117.249 442.892 108.003 429.882C107.673 429.635 107.26 429.523 106.851 429.57C86.3322 430.458 64.7579 431.97 47.7432 418.603C26.4088 401.733 17.5295 356.352 28.8086 331.61C34.6642 318.723 47.5272 309.628 48.7751 307.156C50.263 304.108 32.1924 295.685 41.9836 259.639C46.7833 241.857 60.7742 224.482 78.6528 218.507C82.1565 217.331 94.6116 216.107 96.2675 215.339C96.4343 215.269 96.5775 215.153 96.6797 215.004C96.7819 214.855 96.8388 214.68 96.8434 214.499C96.8434 180.614 145.392 158.727 173.638 168.902L174.285 168.758C180.771 162.443 188.174 157.143 196.244 153.04C201.545 150.259 207.44 148.802 213.426 148.792C223.674 149.2 233.129 149.776 241.648 153.928C225.272 158.626 210.641 168.04 199.58 180.997C176.325 176.894 147 172.286 143.4 172.79C143.158 172.791 142.923 172.874 142.735 173.027C142.547 173.18 142.417 173.393 142.368 173.63C141.816 177.014 144.12 220.714 146.496 233.625C146.688 234.561 154.511 236.769 165.358 239.337C157.157 240.189 149.313 243.14 142.584 247.904C132.001 255.92 123.817 269.119 117.602 283.35C105.603 310.876 100.803 342.217 100.803 346.369C100.803 347.209 101.715 347.497 102.747 347.881C99.9522 352.322 97.5436 356.995 95.5475 361.848C94.9236 364.631 97.2754 365.591 99.5072 364.607C102.279 362.76 104.817 360.584 107.067 358.128C107.307 357.888 113.738 350.928 113.93 350.664C114.818 350.664 115.322 350.856 115.754 350.424C117.098 349.153 159.335 298.852 160.223 297.869C162.277 292.236 164.682 286.738 167.422 281.406C167.443 281.355 167.473 281.309 167.511 281.271C167.549 281.232 167.595 281.201 167.645 281.18C167.695 281.159 167.749 281.148 167.803 281.147C167.858 281.147 167.912 281.157 167.962 281.178C168.012 281.198 168.058 281.229 168.097 281.267C168.136 281.305 168.167 281.35 168.188 281.401C168.209 281.451 168.22 281.505 168.22 281.559C168.221 281.613 168.21 281.667 168.19 281.718C166.642 287.37 164.569 292.866 161.998 298.133C167.158 298.876 177.333 300.388 182.181 301.348C195.02 287.069 208.315 280.326 225.378 271.183C225.474 271.128 225.587 271.113 225.694 271.14C225.801 271.167 225.894 271.234 225.954 271.327C226.362 272.047 225.954 271.543 207.451 283.326C192.26 292.925 110.354 363 108.171 372.743C108.063 373.322 108.063 373.916 108.171 374.495C105.363 373.367 102.483 371.231 99.4832 369.839C97.4791 368.94 95.3884 368.249 93.2437 367.775C91.8998 367.631 90.8439 368.279 91.1559 369.599C91.5398 371.999 94.9956 375.479 96.6274 377.158C100.342 381.171 104.423 384.826 108.818 388.078C109.322 388.366 109.946 388.63 110.378 388.222L115.97 383.254C118.034 384.91 118.034 385.246 119.09 385.102C121.226 384.838 129.529 381.454 141.12 376.367C139.631 380.419 138.664 384.645 138.24 388.942C138.263 389.036 138.317 389.12 138.393 389.18C138.469 389.24 138.563 389.272 138.66 389.272C138.757 389.272 138.851 389.24 138.928 389.18C139.004 389.12 139.057 389.036 139.08 388.942C140.952 373.343 148.415 363.911 157.199 358.224C172.774 348.121 192.524 349.801 192.524 349.801C192.645 349.814 192.766 349.802 192.882 349.767C192.998 349.731 193.105 349.672 193.198 349.593C193.29 349.515 193.365 349.418 193.418 349.309C193.472 349.2 193.502 349.082 193.508 348.961C195.452 323.211 228.665 304.54 255.519 310.564C255.829 310.602 256.141 310.525 256.398 310.348C256.654 310.171 256.837 309.906 256.911 309.604C259.272 298.061 263.844 287.084 270.374 277.278C288.853 250.376 323.818 233.913 355.112 250.064C357.727 251.408 368.839 258.896 368.863 261.007C368.863 261.116 368.906 261.219 368.982 261.296C369.059 261.372 369.162 261.415 369.271 261.415C369.379 261.415 369.483 261.372 369.559 261.296C369.636 261.219 369.679 261.116 369.679 261.007C369.679 258.248 358.111 250.4 355.64 249.008C352.033 247.074 348.237 245.514 344.312 244.353C349.856 214.499 332.313 175.31 310.187 161.007C317.387 162.471 323.386 164.463 328.906 169.862C332.501 173.78 335.626 178.106 338.217 182.749C339.537 184.741 351.464 171.254 379.758 185.485C392.261 191.749 402.364 210.035 402.628 223.882C402.41 232.093 401.283 240.254 399.268 248.216C399.236 248.363 399.238 248.516 399.276 248.662C399.314 248.808 399.385 248.943 399.484 249.056C401.404 250.952 405.532 250.088 412.515 255.056C416.374 257.649 419.596 261.081 421.94 265.096C424.284 269.11 425.689 273.603 426.05 278.238C427.062 292.109 423.367 305.916 415.563 317.427H415.467ZM98.6913 358.656C100.779 354.12 102.027 350.736 103.275 348.169C106.223 349.18 109.238 349.982 112.298 350.569C109.898 352.488 101.019 361.2 98.8353 362.568C96.0035 364.199 97.3714 361.776 98.8593 358.656H98.6913ZM96.0995 370.655C99.8432 371.591 105.243 374.927 108.099 375.455C109.756 378.361 112.085 380.83 114.89 382.654L109.394 386.71C107.379 385.294 94.3956 372.911 92.7157 369.671C93.9224 369.878 95.1103 370.183 96.2675 370.583L96.0995 370.655Z" fill="#0B0B14"/>
</svg>
