<svg viewBox="0 0 984 1096" fill="none" xmlns="http://www.w3.org/2000/svg">
<path d="M581.9 738.399C581.93 738.289 581.939 738.175 581.925 738.062C581.911 737.949 581.874 737.84 581.818 737.74C581.761 737.641 581.686 737.554 581.595 737.484C581.505 737.414 581.401 737.363 581.291 737.333C581.181 737.302 581.065 737.294 580.951 737.308C580.838 737.322 580.728 737.358 580.628 737.414C580.529 737.47 580.441 737.546 580.371 737.636C580.3 737.725 580.248 737.828 580.218 737.938C577.078 750.522 578.074 763.775 583.06 775.756C583.408 776.506 584.568 775.756 584.394 775.18C580.495 763.317 579.637 750.674 581.9 738.399V738.399ZM620.934 736.67C621.688 737.361 623.022 736.67 622.442 735.517C619.348 731.581 615.159 728.635 610.395 727.047C605.631 725.458 600.502 725.296 595.646 726.581C594.95 726.581 595.356 728.022 596.052 727.907C600.596 727.405 605.195 727.933 609.504 729.451C613.814 730.968 617.721 733.436 620.934 736.67V736.67Z" fill="white"/>
<path d="M592.108 720.355C589.587 717.933 586.317 716.43 582.828 716.089C583.597 704.084 586.057 692.247 590.136 680.922C590.6 680 588.918 679.25 588.454 680.173C583.459 691.411 580.909 703.572 580.972 715.858C580.972 715.858 572.098 716.492 569.372 719.778C568.276 721.258 567.741 723.075 567.864 724.909C559.895 720.946 550.999 719.194 542.112 719.836C541.866 719.836 541.63 719.933 541.456 720.106C541.282 720.279 541.184 720.514 541.184 720.758C541.184 721.003 541.282 721.237 541.456 721.41C541.63 721.583 541.866 721.681 542.112 721.681C551.046 721.85 559.873 723.648 568.154 726.984C568.789 729.448 570.118 731.681 571.984 733.421C573.851 735.161 576.177 736.335 578.692 736.807C581.206 737.279 583.804 737.029 586.18 736.086C588.556 735.142 590.613 733.545 592.108 731.481C592.108 731.481 596.4 724.678 592.108 720.355V720.355ZM571.112 721.45C572.33 718.625 576.448 717.933 579.522 717.876C583.174 717.725 586.776 718.757 589.788 720.816C591.122 721.854 592.746 723.237 592.456 724.909C589.382 742.146 565.776 734.248 571.112 721.45V721.45ZM68.5999 735.978C67.3623 744.579 68.7356 753.351 72.5439 761.171C73.0079 761.863 74.2259 761.171 73.9359 760.594C70.7759 752.773 69.6007 744.299 70.5139 735.92C71.0359 735.92 84.3759 734.998 84.3179 722.718C90.9404 720.924 97.8951 720.707 104.618 722.084C104.806 722.126 105.003 722.094 105.169 721.995C105.334 721.897 105.455 721.739 105.507 721.555C105.56 721.37 105.538 721.173 105.448 721.003C105.358 720.833 105.207 720.705 105.024 720.643C98.1834 718.478 90.8093 718.66 84.0859 721.162C83.5639 719.778 79.3299 713.955 67.7879 715.397C65.3873 710.737 64.7696 705.369 66.0496 700.29C67.3297 695.212 70.4204 690.767 74.7479 687.782C75.6179 687.091 74.7479 685.765 73.9359 686.341C69.0932 689.313 65.5595 693.994 64.0429 699.447C62.5263 704.899 63.1389 710.72 65.7579 715.743C56.5939 717.933 55.7819 722.43 55.3179 723.987C47.5144 723.519 39.7048 724.8 32.4659 727.734C32.289 727.841 32.1621 728.013 32.1132 728.213C32.0642 728.413 32.0972 728.624 32.2049 728.8C32.3126 728.976 32.4861 729.102 32.6874 729.151C32.8886 729.2 33.101 729.167 33.2779 729.06C40.3586 727.161 47.6392 726.097 54.9699 725.889C55.1429 727.465 55.641 728.988 56.4331 730.364C57.2251 731.74 58.294 732.939 59.5731 733.886C60.8522 734.832 62.314 735.507 63.8672 735.867C65.4203 736.227 67.0314 736.265 68.5999 735.978V735.978ZM58.6239 722.084C64.4239 714.82 82.7519 715.339 82.7519 723.41C82.1719 733.614 67.6719 736.151 60.3639 731.654C58.8767 730.605 57.8418 729.037 57.4655 727.264C57.0893 725.49 57.3993 723.641 58.3339 722.084H58.6239ZM395.43 227.678C395.413 227.527 395.363 227.382 395.284 227.252C395.205 227.122 395.098 227.012 394.971 226.927C394.844 226.843 394.7 226.788 394.549 226.765C394.398 226.742 394.244 226.753 394.098 226.796C393.951 226.838 393.816 226.913 393.701 227.013C393.587 227.113 393.496 227.237 393.435 227.376C393.374 227.516 393.345 227.666 393.348 227.818C393.352 227.97 393.39 228.118 393.458 228.254C393.806 229.292 395.662 234.423 395.836 234.769C395.972 234.933 396.158 235.05 396.366 235.1C396.575 235.15 396.794 235.131 396.99 235.047C397.187 234.962 397.351 234.816 397.456 234.63C397.562 234.445 397.604 234.23 397.576 234.019C397.518 233.673 395.836 228.715 395.43 227.678V227.678ZM367.59 237.19C367.537 236.978 367.414 236.789 367.24 236.654C367.067 236.519 366.853 236.446 366.633 236.446C366.413 236.446 366.199 236.519 366.025 236.654C365.852 236.789 365.729 236.978 365.676 237.19C365.414 238.533 365.428 239.915 365.717 241.252C366.006 242.59 366.564 243.855 367.358 244.973C367.479 245.051 367.617 245.099 367.761 245.111C367.905 245.123 368.049 245.1 368.181 245.042C368.314 244.985 368.43 244.896 368.519 244.783C368.608 244.671 368.667 244.538 368.692 244.396C367.943 242.067 367.571 239.635 367.59 237.19V237.19ZM197.824 456.26C213.194 457.759 228.564 459.431 243.934 460.93C244.688 460.93 245.094 460.18 244.978 459.604C232.102 399.244 235.002 390.424 232.276 390.424C215.672 391.928 198.935 390.937 182.628 387.484C182.467 387.434 182.295 387.429 182.131 387.47C181.967 387.51 181.818 387.594 181.699 387.713C181.579 387.831 181.495 387.98 181.454 388.143C181.414 388.306 181.418 388.476 181.468 388.637C188.022 410.14 196.664 455.914 197.824 456.26ZM183.788 389.559C199.438 392.792 215.476 393.763 231.406 392.441C234.248 414.579 238.076 436.544 242.6 458.451L198.114 453.781C194.793 432.078 190.007 410.623 183.788 389.559V389.559ZM290.45 433.2C291.436 433.2 291.146 431.643 290.45 431.586C285.23 431.586 264.06 431.067 258.724 430.317C257.738 430.317 257.274 431.701 258.318 431.874C268.971 433.225 279.721 433.669 290.45 433.2V433.2ZM254.722 413.311C253.678 413.311 253.736 414.81 254.722 414.925C267.228 415.835 279.773 416.085 292.306 415.674C293.292 415.674 292.944 414.118 292.306 414.06C289 413.772 260.928 413.772 254.722 413.311ZM253.388 399.071C265.235 400.567 277.175 401.222 289.116 401.031C289.316 400.98 289.492 400.865 289.619 400.703C289.745 400.542 289.814 400.343 289.814 400.138C289.814 399.933 289.745 399.734 289.619 399.572C289.492 399.41 289.316 399.295 289.116 399.244C283.316 399.244 256.52 397.63 253.62 397.572C253.521 397.557 253.42 397.562 253.323 397.585C253.225 397.609 253.134 397.651 253.053 397.71C252.972 397.769 252.904 397.843 252.852 397.928C252.8 398.014 252.765 398.108 252.75 398.206C252.735 398.305 252.739 398.405 252.763 398.502C252.787 398.599 252.829 398.69 252.889 398.77C252.948 398.85 253.023 398.918 253.108 398.97C253.194 399.022 253.289 399.056 253.388 399.071V399.071ZM307.792 438.561C323.564 439.274 339.368 438.54 355.004 436.371C355.303 436.345 355.583 436.215 355.795 436.004C356.007 435.793 356.138 435.515 356.164 435.218C354.714 398.149 359.006 393.191 355.41 393.71C339.633 396.015 323.616 396.19 307.792 394.229C307.386 394.229 306.168 394.805 306.168 395.209C305.762 409.275 306.168 423.284 306.574 437.351C306.574 437.672 306.702 437.98 306.931 438.207C307.159 438.434 307.469 438.561 307.792 438.561V438.561ZM354.482 396.189C353.554 408.83 353.321 421.513 353.786 434.18C338.924 436.091 323.927 436.766 308.952 436.198C308.546 422.996 307.85 409.794 307.618 396.592C323.229 397.554 338.89 397.419 354.482 396.189V396.189ZM263.828 463.12C276.878 463.927 335.342 463.524 341.664 462.659C342.476 462.659 342.244 461.276 341.664 461.276C335.226 460.987 276.994 461.967 264.002 461.852C263.016 462.025 263.016 463.063 263.828 463.12ZM336.386 483.586C336.586 483.586 336.778 483.507 336.919 483.367C337.06 483.226 337.14 483.035 337.14 482.837C337.14 482.638 337.06 482.447 336.919 482.307C336.778 482.166 336.586 482.087 336.386 482.087C300.252 482.087 207.742 477.706 197.65 476.841C196.838 476.841 196.838 477.994 197.65 478.109C233.61 481.741 326.236 483.932 336.386 483.586ZM320.204 511.892C321.248 511.892 321.538 510.22 320.494 510.047C282.154 505.319 243.587 502.644 204.958 502.034C204.758 502.034 204.566 502.113 204.425 502.254C204.283 502.394 204.204 502.585 204.204 502.784C204.204 502.982 204.283 503.173 204.425 503.313C204.566 503.454 204.758 503.533 204.958 503.533C234.944 504.686 250.836 505.378 320.204 511.892V511.892ZM307.85 536.278C308.034 536.278 308.212 536.205 308.342 536.076C308.473 535.946 308.546 535.77 308.546 535.586C308.546 535.403 308.473 535.227 308.342 535.097C308.212 534.967 308.034 534.895 307.85 534.895C301.354 534.203 214.528 532.3 207.104 532.243C206.292 532.243 206.292 533.511 207.104 533.511C233.262 534.606 300.6 536.97 307.85 536.278V536.278ZM289.928 566.141C291.146 566.141 291.088 564.411 289.928 564.238C276.936 562.567 224.562 558.473 211.512 558.128C210.816 558.128 210.642 559.281 211.512 559.338C224.214 561.125 276.704 565.795 289.928 566.141ZM285.868 591.507C286.039 591.46 286.191 591.359 286.299 591.218C286.406 591.077 286.465 590.905 286.465 590.729C286.465 590.552 286.406 590.38 286.299 590.239C286.191 590.099 286.039 589.997 285.868 589.95C280.88 588.509 224.678 583.494 222.068 583.782C221.945 583.782 221.827 583.83 221.74 583.917C221.653 584.003 221.604 584.121 221.604 584.243C221.604 584.365 221.653 584.483 221.74 584.569C221.827 584.656 221.945 584.704 222.068 584.704C224.446 585.511 280.532 591.91 285.868 591.507V591.507ZM295.612 615.835C292.886 615.028 236.626 610.07 224.678 609.321C223.924 609.321 223.982 610.416 224.678 610.474C236.278 611.915 292.306 617.795 295.38 617.565C295.611 617.595 295.844 617.534 296.029 617.393C296.214 617.252 296.335 617.045 296.366 616.815C296.397 616.586 296.335 616.354 296.193 616.17C296.052 615.986 295.843 615.866 295.612 615.835V615.835ZM305.704 553.458C306.98 575.019 307.966 596.695 309.706 618.256C309.59 618.405 309.516 618.582 309.494 618.769C309.471 618.956 309.5 619.146 309.578 619.317C309.655 619.489 309.778 619.637 309.934 619.744C310.089 619.852 310.271 619.916 310.46 619.928C324.844 621.215 339.289 621.696 353.728 621.37C353.87 621.377 354.012 621.356 354.145 621.308C354.279 621.259 354.401 621.184 354.504 621.087C354.607 620.99 354.689 620.873 354.745 620.743C354.801 620.613 354.83 620.473 354.83 620.332L351.524 555.303C351.509 555.007 351.38 554.728 351.164 554.524C350.948 554.32 350.662 554.207 350.364 554.207L306.806 552.363C306.659 552.354 306.512 552.377 306.374 552.429C306.237 552.481 306.112 552.561 306.008 552.665C305.904 552.768 305.823 552.892 305.771 553.029C305.718 553.166 305.695 553.312 305.704 553.458V553.458ZM349.32 556.34C350.422 577.325 351.466 598.31 352.568 619.294C338.73 619.582 324.886 619.12 311.098 617.911C310.402 596.811 308.952 575.711 307.966 554.496L349.32 556.34ZM74.6899 481.972C62.5115 482.536 50.4604 484.687 38.8459 488.371C36.1199 489.236 26.7239 490.965 26.0279 494.597C25.3319 498.229 29.9139 498.114 32.3499 497.941C46.8406 496.94 61.1252 493.973 74.8059 489.12C76.1389 488.747 77.3688 488.077 78.4019 487.16C78.9156 486.686 79.2611 486.059 79.3865 485.373C79.512 484.687 79.4107 483.979 79.0979 483.355C78.2279 482.03 76.3139 481.914 74.6899 481.972Z" fill="white"/>
<path d="M983.724 305.275C969.05 267.226 879.672 24.8074 871.204 2.26626C870.664 1.54144 869.883 1.03067 869 0.825012C852.354 0.825012 750.332 3.18866 740.994 3.88046C739.834 3.88046 652.196 287 647.092 305.332C647.092 305.909 648.02 320.033 648.426 321.244C648.832 322.454 650.108 322.224 650.282 321.244C650.456 320.264 649.528 308.33 649.47 307.754C653.356 308.157 657.3 308.503 661.07 308.791C659.986 314.757 660.404 320.897 662.288 326.663C662.388 326.843 662.546 326.984 662.736 327.065C662.927 327.146 663.139 327.161 663.339 327.108C663.539 327.055 663.716 326.937 663.841 326.772C663.965 326.608 664.031 326.407 664.028 326.202C662.604 320.553 662.172 314.702 662.752 308.907C668.958 309.483 675.222 309.944 681.486 310.405C680.707 317.252 681.562 324.184 683.98 330.641C684.077 330.808 684.227 330.939 684.407 331.011C684.587 331.084 684.787 331.095 684.973 331.042C685.16 330.989 685.324 330.875 685.438 330.719C685.553 330.562 685.611 330.372 685.604 330.179C683.895 323.77 683.133 317.148 683.342 310.521C689.838 310.982 696.392 311.386 702.946 311.731V329.891C703.017 330.095 703.15 330.271 703.327 330.396C703.504 330.521 703.715 330.588 703.932 330.588C704.149 330.588 704.36 330.521 704.537 330.396C704.713 330.271 704.847 330.095 704.918 329.891V311.847L723.304 312.769C723.304 315.594 723.304 329.142 723.71 330.064C723.776 330.241 723.895 330.393 724.05 330.5C724.206 330.608 724.391 330.666 724.58 330.666C724.769 330.666 724.954 330.608 725.11 330.5C725.265 330.393 725.384 330.241 725.45 330.064C725.602 324.295 725.447 318.522 724.986 312.769C732.236 313.057 739.428 313.346 746.678 313.519C746.803 319.306 747.267 325.08 748.07 330.814C748.07 331.794 749.752 331.505 749.81 330.814C749.749 325.032 749.362 319.257 748.65 313.519C756.364 313.519 764.078 313.864 771.85 313.922C771.85 313.922 771.154 327.585 771.328 330.179C771.328 331.102 772.894 331.448 773.01 330.179C773.416 327.585 773.88 313.864 773.764 313.692H792.788V328.335C792.854 328.511 792.973 328.663 793.128 328.771C793.284 328.878 793.468 328.936 793.658 328.936C793.847 328.936 794.032 328.878 794.188 328.771C794.343 328.663 794.462 328.511 794.528 328.335C794.788 323.457 794.788 318.569 794.528 313.692H796.79C795.978 354.623 794.122 430.029 794.122 437.12C791.512 437.12 640.596 436.717 629.054 437.12C614.728 402.069 590.948 365 559.454 344.88C530.374 327.06 496.813 317.786 462.652 318.131C462.652 318.131 453.082 290.92 452.096 287.23C454.766 277.686 456.418 267.889 457.026 258.002C458.854 239.284 459.647 220.481 459.404 201.678C459.404 184.383 459.81 169.912 442.004 162.13C441.389 161.048 441.066 159.827 441.066 158.584C441.066 157.342 441.389 156.12 442.004 155.039C437.563 155.235 433.249 156.565 429.476 158.901C428.596 154.748 426.456 150.963 423.345 148.056C420.234 145.149 416.301 143.26 412.076 142.644C413.633 143.578 414.884 144.942 415.677 146.569C416.469 148.196 416.77 150.017 416.542 151.81C384.12 132.209 375.942 171.181 359.992 169.105C356.153 168.097 352.863 165.634 350.828 162.245C349.326 164.718 348.581 167.572 348.684 170.459C348.787 173.346 349.733 176.141 351.408 178.502C349.729 178.047 348.161 177.259 346.796 176.187C345.43 175.115 344.297 173.78 343.463 172.262C342.629 170.744 342.112 169.075 341.942 167.354C341.773 165.632 341.954 163.895 342.476 162.245C338.177 164.272 334.623 167.585 332.314 171.721C330.005 175.856 329.056 180.606 329.6 185.305C330.225 188.992 331.717 192.479 333.955 195.485C336.192 198.49 339.112 200.928 342.476 202.6C338.361 203.465 334.074 202.937 330.296 201.101C334.164 207.469 340.034 212.392 347 215.11C347.675 230.539 350.767 245.768 356.164 260.25C353.346 269.125 352.827 278.564 354.656 287.691C358.6 318.419 387.6 330.295 416.6 320.379C414.454 325.279 408.77 325.625 403.84 326.72C396.85 328.239 389.955 330.164 383.192 332.485C369.777 337.856 357.108 344.908 345.492 353.47C233.32 356.41 176.77 352.951 160.646 351.741C172.652 343.497 185.76 329.718 181.352 315.825C179.048 309.092 175.486 302.853 170.854 297.434C150.96 273.279 118.132 270.05 91.336 259.212C88.436 258.002 60.248 244.108 57.116 232.174C56.5821 230.481 56.5852 228.666 57.1247 226.975C57.6642 225.283 58.7141 223.798 60.132 222.72C61.002 222.201 60.77 220.529 59.61 220.644C53.483 221.222 47.6583 223.562 42.8479 227.378C38.0376 231.194 34.4501 236.32 32.5242 242.131C30.5983 247.941 30.4175 254.183 32.0037 260.093C33.5899 266.004 36.8746 271.327 41.456 275.412C50.504 284.059 62.51 288.326 73.066 294.667C83.622 301.009 94.178 310.348 93.656 323.492C93.134 336.636 81.65 347.59 69.992 353.066C57.232 358.831 43.08 361.08 30.03 366.326C5.90198 376.069 -0.768027 395.151 2.82797 407.488C4.74146 413.026 8.64525 417.665 13.79 420.517C25.39 427.493 42.21 426.282 51.026 437.812C53.2421 440.371 54.4753 443.628 54.5071 447.004C54.539 450.381 53.3674 453.66 51.2 456.26C47.024 461.448 29.914 471.768 28 473.555C27.362 474.304 28.406 475.4 29.102 474.65C37.1897 470.812 45.9191 468.487 54.854 467.79C69.006 465.426 108.214 451.244 114.942 439.311C116.261 437.282 116.72 434.817 116.221 432.453C115.721 430.088 114.303 428.016 112.274 426.686C109.606 424.783 99.34 425.821 94.41 418.499C84.782 404.317 97.31 388.291 108.852 379.758C118.82 373.099 129.451 367.477 140.578 362.982C153.106 397.572 177.582 481.799 179.322 488.429C175.03 489.005 142.028 493.732 137.388 494.194C132.748 494.655 114.652 490.043 111.578 492.118C104.794 488.88 97.1054 488.027 89.77 489.697C88.313 484.457 86.3714 479.362 83.97 474.477C46.734 474.477 24.288 486.469 14.834 493.732C14.486 493.732 14.834 495.001 14.834 495.174C18.14 507.799 34.09 564.354 36.352 570.638C36.352 570.983 75.618 583.897 105.952 556.052C105.952 556.052 104.56 547.347 104.328 543.311C109.436 542.83 114.218 540.601 117.856 537.005C121.495 533.409 123.766 528.67 124.28 523.595C146.856 525.86 169.192 530.065 191.038 536.163C194.228 550.057 205.596 609.609 208.438 625.347C202.741 625.359 197.152 626.892 192.256 629.786C191.618 630.19 48.706 636.877 35.656 643.507C24.3315 648.454 15.0286 657.071 9.26598 667.951C4.30584 679.238 2.50242 691.646 4.04597 703.867C7.17797 732.692 24.288 757.481 38.092 782.328C49.054 802.16 46.734 838.422 47.314 846.608C34.322 839.748 1.95797 843.668 1.78397 843.783C0.943602 844.545 0.432115 845.601 0.35645 846.729C0.280785 847.857 0.646802 848.97 1.37797 849.836C15.2912 867.555 31.6093 883.27 49.866 896.533C50.736 921.034 50.388 986.352 49.866 994.538C49.866 998.343 48.068 1012.87 48.416 1016.33C48.6082 1019.08 49.4958 1021.74 50.9964 1024.05C52.4969 1026.37 54.5619 1028.28 57 1029.59C65.178 1033.62 65.062 1032.24 232.392 1028.84C232.392 1031.66 232.74 1034.6 232.856 1037.2H246.602V1059.28C246.196 1058.93 242.658 1057.26 241.324 1057.78C234.217 1060.57 227.383 1064.01 220.908 1068.04C201.826 1079.57 199.332 1089.26 199.332 1089.43C199.194 1090.52 199.476 1091.62 200.122 1092.5C200.768 1093.39 201.73 1094 202.812 1094.21C220.212 1097.56 278.966 1095.25 284.766 1094.21C288.13 1093.52 288.478 1090.41 288.304 1087.07C288.251 1086.11 287.871 1085.2 287.228 1084.49C286.585 1083.78 285.716 1083.3 284.766 1083.15C288.13 1076.06 283.432 1067.41 278.966 1061.07C274.5 1054.72 276.356 1040.02 276.414 1038.76C281.866 1039.16 287.318 1039.56 292.828 1040.08C293.12 1035.79 293.78 1031.52 294.8 1027.34C329.747 1026.74 364.618 1023.91 399.2 1018.87C399.2 1018.87 403.492 995.806 405 984.276C413.932 984.276 484.46 984.276 510.792 983.815C511.546 990.502 516.244 1029.94 516.592 1029.94C541.938 1040.6 574.592 1043.08 601.91 1042.27C603.012 1042.27 659.04 1038.87 692.97 1033.16C709.039 1030.76 725.267 1029.57 741.516 1029.59C732.932 1035.01 700.916 1053.57 694.072 1058.13C693.842 1058.47 693.72 1058.87 693.72 1059.28C693.72 1059.69 693.842 1060.09 694.072 1060.43C725.508 1078.07 777.128 1076.4 816.8 1076.4C833.33 1076.4 855.95 1077.5 882.514 1065.97C888.314 1063.49 901.016 1057.32 898.464 1051.5C898.058 1050.8 840.058 1019.39 829.212 1012.87C823.876 970.44 820.164 928.932 828.806 878.604C831.3 864.076 842.842 818.821 872.886 757.539C889.3 724.275 885.472 686.283 868.768 662.07C865.894 657.672 862.307 653.776 858.154 650.54C852.087 647.555 845.558 645.606 838.84 644.775C849.686 598.655 858.27 547.866 857.458 500.65C858.072 486.383 854.954 472.201 848.41 459.488C841.682 447.958 829.096 438.331 815.176 439.426C815.524 404.433 815.988 323.088 815.988 313.634H819.004V329.603C819.073 329.793 819.198 329.957 819.365 330.073C819.531 330.189 819.729 330.252 819.932 330.252C820.135 330.252 820.333 330.189 820.499 330.073C820.665 329.957 820.791 329.793 820.86 329.603C821.15 328.219 821.208 316.055 820.86 313.576H837.216C837.272 318.452 837.601 323.322 838.202 328.162C838.249 328.332 838.351 328.483 838.493 328.59C838.634 328.697 838.807 328.755 838.985 328.755C839.163 328.755 839.336 328.697 839.477 328.59C839.619 328.483 839.721 328.332 839.768 328.162C839.688 323.353 839.262 318.555 838.492 313.807L855.892 313.288C855.245 318.518 856.195 323.821 858.618 328.508C859.024 329.026 860.068 328.969 860.01 328.162C858.479 323.356 857.792 318.325 857.98 313.288L880.6 312.135C880.6 312.135 880.194 324.587 880.6 325.798C880.671 326.002 880.804 326.178 880.981 326.303C881.158 326.428 881.369 326.495 881.586 326.495C881.803 326.495 882.014 326.428 882.191 326.303C882.367 326.178 882.501 326.002 882.572 325.798V312.077L899.45 311.386C897.938 317.002 898.409 322.964 900.784 328.277C901.248 329.257 902.756 328.277 902.466 327.585C900.755 322.321 900.357 316.722 901.306 311.27L922.128 310.233C921.835 315.378 921.835 320.537 922.128 325.683C922.175 325.853 922.277 326.004 922.419 326.111C922.56 326.218 922.733 326.276 922.911 326.276C923.089 326.276 923.262 326.218 923.403 326.111C923.545 326.004 923.647 325.853 923.694 325.683C923.986 320.498 923.986 315.302 923.694 310.117L941.5 309.195C941.5 311.443 941.5 322.224 942.08 323.377C942.127 323.547 942.229 323.698 942.371 323.805C942.512 323.912 942.685 323.97 942.863 323.97C943.041 323.97 943.214 323.912 943.355 323.805C943.497 323.698 943.599 323.547 943.646 323.377C943.713 318.605 943.538 313.834 943.124 309.08L961.51 307.984C961.51 310.175 962.496 319.514 963.018 321.647C963.069 321.846 963.185 322.022 963.348 322.147C963.511 322.273 963.711 322.341 963.917 322.341C964.123 322.341 964.323 322.273 964.486 322.147C964.649 322.022 964.765 321.846 964.816 321.647C964.816 319.284 963.54 310.117 963.192 308.157L981.578 307.004C979.573 310.946 979.118 315.488 980.302 319.745C980.302 320.321 981.926 320.206 981.752 319.745C981.037 314.833 981.72 309.82 983.724 305.275V305.275ZM704.918 310.06C686.358 309.08 667.856 307.754 649.354 306.197C650.05 305.044 742.154 4.51461 742.154 5.09111H766.456C759.264 44.7543 710.022 287.922 704.918 310.06V310.06ZM707.934 310.06C716.46 270.627 768.312 4.51461 768.254 4.51461H795.862C794.18 24.8074 782.986 289.651 782 312.135C762.106 312.135 712.922 310.463 707.934 310.233V310.06ZM794.934 439.772V453.839C789.069 464.488 783.859 475.481 779.332 486.757C762.86 526.132 754.45 587.529 763.962 644.602C600.054 645.121 612.756 645.006 612.814 644.602C613.278 638.837 611.944 608.629 611.886 608.514C619.794 600.953 626.069 591.871 630.33 581.822C644.25 548.846 635.376 512.642 626.676 479.032C631.316 476.956 635.898 474.708 640.364 472.229C641.06 471.825 641.06 470.038 640.944 469.635C638.171 459.86 634.88 450.238 631.084 440.81C651.964 440.233 794.76 440.176 794.934 439.945V439.772ZM795.456 457.701L792.324 644.545H767.036C760.112 606.066 760.92 566.605 769.414 528.438C775.852 497.191 782 484.393 795.456 457.874V457.701ZM504.296 902.932C457.896 902.932 335.11 901.721 319.798 901.549C325.598 866.44 336.502 782.386 335.516 774.719C347.116 774.719 406.16 774.027 424.14 774.084C452.681 777.29 481.51 777 509.98 773.22C504.412 800.027 499.714 823.029 504.296 903.105V902.932ZM391.08 613.299C388.76 601.769 381.568 562.97 380.872 555.649C383.47 555.449 386.081 555.833 388.51 556.771C390.94 557.709 393.126 559.177 394.908 561.068C401.288 565.68 468.742 605.804 475.412 609.378C489.018 616.689 503.391 622.489 518.274 626.673C553.944 636.589 582.596 635.148 609.972 610.301C609.972 612.319 610.726 644.026 611.48 644.891H594.08C583.468 645.674 573.175 648.848 563.98 654.172C554.786 659.496 546.93 666.83 541.01 675.618C519.318 662.186 444.382 628.345 391.08 613.299V613.299ZM395.198 648.58H389.398C389.05 647.312 375.13 589.72 372.694 576.633C371.36 569.773 370.374 562.855 368.924 555.994C372.227 556.195 375.539 556.195 378.842 555.994C381.278 581.303 393.4 642.931 395.198 648.58V648.58ZM579 626.385C552.552 635.724 516.36 625.751 490.724 614.567C477.616 608.802 466.132 600.327 453.546 593.582C418.746 575.077 391.022 555.879 388.18 554.726C378.9 550.979 370.142 560.491 346.594 544.003C346.014 543.6 344.796 542.85 344.97 542.043C345.144 541.236 347.29 541.409 348.102 541.524C351.811 542.106 355.421 543.193 358.832 544.753C359.818 545.156 360.746 543.715 359.702 543.254C353.743 540.372 348.039 536.998 342.65 533.165C341.78 531.839 342.65 530.628 344.1 530.744C344.622 530.744 357.034 536.509 360.224 537.777C361.21 538.238 362.022 536.855 361.094 536.336C354.794 533.482 348.656 530.287 342.708 526.766C340.156 524.287 341.316 521.635 343.346 521.635C343.81 521.981 354.946 526.42 359.992 528.092C361.442 528.611 362.022 526.362 360.63 525.844C356.976 524.518 346.594 520.886 345.26 520.079C343.926 519.271 342.94 517.427 345.26 516.85C347.58 516.274 362.66 517.715 366.72 518.003C366.907 518.012 367.093 517.975 367.262 517.897C367.431 517.819 367.579 517.702 367.693 517.554C367.807 517.407 367.884 517.235 367.916 517.052C367.949 516.869 367.936 516.681 367.88 516.504C366.839 514.458 366.493 512.132 366.894 509.874C367.59 507.799 368.634 509.183 369.562 510.451C371.534 513.045 380.466 526.881 388.47 528.957C419.094 536.97 451.4 537.777 480.4 541.121C487.592 541.928 508.24 545.502 511.372 546.367C513.518 547.001 520.42 549.134 520.304 546.886C519.782 539.68 514.852 510.682 514.098 503.245C528.018 502.553 612.118 489.639 624.762 480.185C632.244 508.606 639.784 538.527 632.824 567.87C629.558 581.35 622.909 593.787 613.496 604.02C604.084 614.253 592.215 621.947 579 626.385V626.385ZM401.056 270.108C398.272 277.084 389.456 274.893 387.078 273.509C386.878 273.387 386.735 273.191 386.681 272.964C386.626 272.737 386.665 272.498 386.788 272.299C386.911 272.1 387.108 271.958 387.337 271.904C387.565 271.85 387.806 271.888 388.006 272.011C389.688 272.933 396.996 274.259 399.606 269.186C400.186 268.494 401.288 269.532 401.056 270.108ZM395.604 249.931C395.076 251.42 394.196 252.762 393.037 253.843C391.878 254.924 390.475 255.713 388.946 256.142C387.417 256.572 385.806 256.63 384.249 256.311C382.693 255.993 381.236 255.307 380.002 254.312C381.477 245.893 381.081 237.255 378.842 229.004C378.842 227.966 377.102 228.427 377.276 229.465C378.55 237.276 378.958 245.202 378.494 253.101C374.836 253.675 371.443 255.346 368.768 257.891C366.093 260.437 364.266 263.734 363.53 267.341C363.53 267.341 355.816 259.558 352.22 240.361C350.712 232.174 349.03 223.988 348.334 215.687C366.256 221.452 391.196 213.842 413.7 195.336C416.52 199.557 420.269 203.086 424.662 205.655C427.612 204.234 431.009 204.032 434.109 205.091C437.21 206.15 439.762 208.386 441.21 211.31C442.658 214.234 442.883 217.608 441.837 220.696C440.79 223.785 438.557 226.336 435.624 227.793C436.842 236.325 436.436 252.755 426.112 255.292C417.934 257.31 412.076 252.121 395.604 249.931V249.931ZM418.804 319.111C432.787 313.595 444.34 303.317 451.4 290.113C452.212 293.053 461.144 319.572 462.014 321.071C460.637 326.434 457.985 331.39 454.281 335.523C450.577 339.656 445.929 342.845 440.728 344.823C410.452 358.37 398.33 339.98 407.03 328.565C407.088 328.508 417.528 326.951 418.978 319.399L418.804 319.111ZM404.188 328.681C398.388 335.426 402.448 348.57 415.788 351.395C429.128 354.219 460.042 343.842 464.276 321.013C464.276 320.494 527.496 326.317 553.538 344.073C615.714 385.927 634.738 459.373 637.986 470.269C600.692 494.424 508.994 500.593 498.786 501.227C493.034 475.118 491.371 448.283 493.856 421.67C493.856 420.978 492.87 421.036 492.812 421.67C489.564 448.718 490.897 476.116 496.756 502.726C496.827 502.965 496.972 503.177 497.169 503.332C497.366 503.487 497.607 503.577 497.858 503.591C502.498 503.591 507.196 503.591 511.836 503.245C512.242 510.393 517.056 538.699 517.636 545.79C506.074 542.628 494.285 540.354 482.372 538.988C399.78 530.283 384.468 529.821 376.174 516.62C376.754 495.116 382.496 443.231 410.336 351.741C410.379 351.569 410.383 351.39 410.349 351.216C410.314 351.042 410.242 350.878 410.137 350.735C410.032 350.592 409.897 350.474 409.741 350.389C409.585 350.304 409.412 350.253 409.234 350.242C388.818 351.51 368.383 352.586 347.928 353.47C350.48 352.49 379.712 333.293 404.362 328.969L404.188 328.681ZM408.016 352.49C377.16 456.26 374.724 503.418 374.956 514.371C374.55 513.795 371.418 505.551 367.358 506.07C369.214 468.597 376.464 434.526 394.154 364.078C394.154 363.386 393.806 362.463 392.994 362.579C315.066 370.098 236.583 370.001 158.674 362.29C157.356 359.998 156.175 357.63 155.136 355.2C155.89 354.738 156.644 354.335 157.398 353.816C189.24 356.756 283.2 359.408 408.016 352.49ZM155.89 362.29L145.044 360.792C146.726 359.984 152.12 357.16 153.164 356.583C154.034 358.255 154.904 360.446 155.89 362.29V362.29ZM117.494 371.111C105.372 377.856 92.032 388.002 89.016 402.3C88.281 405.652 88.2949 409.124 89.0565 412.471C89.8181 415.818 91.3089 418.958 93.424 421.67C99.224 429.107 105.024 424.61 110.824 429.049C116.624 433.488 112.912 438.965 109.2 442.366C96.087 451.267 81.6131 458.003 66.338 462.313C55.782 465.426 45.226 467.041 35.54 470.211C43.834 464.792 54.216 460.757 56.42 450.437C56.8944 447.634 56.6662 444.758 55.7557 442.063C54.8453 439.368 53.2805 436.938 51.2 434.987C46.321 430.474 40.3113 427.348 33.8 425.936C21.794 422.304 5.49597 418.442 4.04597 403.453C3.8629 397.101 5.48547 390.828 8.72741 385.352C11.9694 379.876 16.6992 375.419 22.374 372.495C44.704 359.696 77.532 361.887 91.626 337.04C94.617 332.158 95.9601 326.455 95.4593 320.761C94.9584 315.067 92.6399 309.681 88.842 305.39C72.834 285.674 38.904 283.771 33.568 258.059C31.9828 250.502 33.4639 242.628 37.6891 236.15C41.9143 229.673 48.5417 225.115 56.13 223.469C54.9629 225.455 54.3479 227.713 54.3479 230.013C54.3479 232.312 54.9629 234.57 56.13 236.556C59.9217 242.525 65.0162 247.569 71.036 251.314C104.792 274.662 155.368 269.013 176.016 310.117C182.28 322.57 179.902 325.798 172.71 336.982C162.966 352.778 134.836 361.483 117.494 371.111V371.111ZM103.4 541.582C103.268 541.586 103.139 541.62 103.022 541.68C102.905 541.741 102.804 541.828 102.726 541.933C102.648 542.039 102.595 542.161 102.571 542.29C102.547 542.418 102.553 542.551 102.588 542.677C103.748 546.713 103.574 551.094 104.618 555.187C95.4015 562.632 84.5381 567.795 72.9218 570.25C61.3056 572.706 49.2687 572.384 37.802 569.312L17.154 494.367C37.2777 482.174 60.5281 476.046 84.086 476.726C84.9855 481.847 86.5046 486.841 88.61 491.599C95.54 490.005 102.791 490.507 109.432 493.041C106.515 495.647 103.943 498.611 101.776 501.861C98.644 501.342 95.048 499.497 91.858 500.766C88.668 502.034 88.9 505.551 90.234 508.26C94.0552 516.202 96.5434 524.713 97.6 533.453C97.6 534.606 99.572 534.606 99.456 533.453C99.4838 532.973 99.4838 532.492 99.456 532.012C103.444 532.577 107.507 532.283 111.37 531.149C115.233 530.015 118.805 528.068 121.844 525.44C121.004 529.782 118.737 533.723 115.399 536.645C112.06 539.567 107.839 541.304 103.4 541.582ZM121.612 522.846C115.29 532.07 102.124 530.859 99.456 530.628C98.0765 522.642 95.5979 514.883 92.09 507.568C91.162 505.954 90.35 503.591 92.496 502.611C94.642 501.631 98.296 503.302 101.022 503.187C100.268 504.571 99.224 506.646 100.152 508.087C102.356 511.489 110.302 506.415 113.26 503.591C113.704 503.581 114.143 503.681 114.538 503.882C114.933 504.083 115.271 504.38 115.522 504.744C118.364 509.01 111.23 512.815 108.33 513.795C108.192 513.795 108.059 513.849 107.961 513.947C107.863 514.044 107.808 514.176 107.808 514.314C107.808 514.451 107.863 514.583 107.961 514.68C108.059 514.778 108.192 514.832 108.33 514.832C110.1 514.516 111.787 513.841 113.283 512.849C114.78 511.858 116.055 510.57 117.03 509.067C117.596 509.398 118.09 509.84 118.48 510.365C118.871 510.89 119.15 511.489 119.302 512.124C119.454 512.76 119.474 513.419 119.363 514.063C119.252 514.707 119.011 515.321 118.654 515.87C117.451 517.345 115.954 518.558 114.257 519.431C112.561 520.304 110.7 520.819 108.794 520.943C107.982 520.943 108.33 522.327 109.142 522.212C111.309 522.118 113.429 521.553 115.353 520.557C117.277 519.561 118.958 518.158 120.278 516.447C120.824 516.75 121.296 517.17 121.659 517.676C122.022 518.182 122.268 518.762 122.379 519.374C122.49 519.986 122.463 520.614 122.3 521.215C122.138 521.815 121.843 522.372 121.438 522.846H121.612ZM124.048 521.577C124.048 521.577 125.266 516.62 121.264 515.121C121.743 513.551 121.598 511.859 120.858 510.393C120.149 509.21 119.098 508.265 117.842 507.684C117.974 506.914 117.928 506.124 117.707 505.375C117.486 504.626 117.096 503.937 116.566 503.36C114.71 501.342 114.188 502.956 115.406 501.169C116.044 500.305 114.652 499.267 113.956 500.016C111.715 502.123 109.31 504.051 106.764 505.781C105.894 506.3 101.776 508.491 101.776 506.531C103.223 502.93 105.24 499.583 107.75 496.615C109.216 495.088 111.152 494.09 113.252 493.777C115.352 493.464 117.497 493.854 119.35 494.885C122.65 496.033 126.12 496.617 129.616 496.615C137.446 496.615 175.726 490.85 179.902 490.101C183.769 504.744 187.365 519.444 190.69 534.203C168.709 528.595 146.392 524.378 123.874 521.577H124.048ZM143.42 362.233C174.682 367.075 262.842 378.029 391.66 365.288C366.72 455.165 365.27 507.396 365.328 507.568C364.676 508.782 364.297 510.122 364.217 511.496C364.137 512.869 364.358 514.244 364.864 515.524C360.282 515.178 343.636 512.18 341.664 516.447C341.32 517.083 341.175 517.807 341.247 518.526C341.32 519.245 341.606 519.926 342.07 520.482C338.822 521.116 339.576 524.979 340.736 526.708C341.385 527.631 342.213 528.415 343.172 529.014C342.572 529.004 341.986 529.19 341.503 529.544C341.021 529.899 340.67 530.401 340.504 530.974C339.286 534.606 345.086 537.489 349.494 540.025C349.494 540.025 343.694 539.045 343.23 541.409C342.766 543.773 345.26 545.272 346.768 546.309C353.104 550.51 360.103 553.627 367.474 555.533C372.194 586.846 378.916 617.829 387.6 648.292C361.5 647.254 221.836 645.467 211.454 631.689C209.134 616.008 197.07 519.963 143.246 362.233H143.42ZM207.8 780.426C213.6 779.907 219.4 779.503 224.794 779.1C224.794 780.253 225.954 889.096 226.07 900.972C153.628 900.396 162.966 900.972 149.684 900.972C149.336 866.843 149.046 835.77 148.93 828.621C169.905 814.261 189.601 798.136 207.8 780.426V780.426ZM187.384 633.303C182.57 637.627 142.84 691.933 131.994 709.689C117.668 644.084 69.586 640.971 68.194 640.509C102.82 639.356 182.222 633.649 187.21 633.303H187.384ZM43.254 787.113C35.598 769.415 22.2 750.275 13.5 729.117C4.62597 706.749 1.89997 677.232 19.3 658.093C34.322 641.432 63.148 636.704 88.088 651.751C110.36 665.184 122.888 688.82 129.79 713.148C127.876 716.319 66.802 806.08 61.756 813.344C61.756 813.632 72.312 824.009 75.212 826.719C72.486 830.697 61.06 846.896 57.812 850.989C55.2611 849.626 52.6039 848.469 49.866 847.53C49.866 847.53 50.678 804.12 43.254 787.113V787.113ZM58.798 852.085C61.93 847.992 73.82 832.023 76.488 828.045C83.738 834.848 90.93 841.65 98.006 848.626C92.5966 853.346 87.6626 858.578 83.274 864.249C77.184 873.761 81.418 885.637 68.31 894.746C67.382 893.939 60.016 887.136 57.812 884.772C57.2158 884.133 56.8168 883.336 56.6626 882.478C56.5084 881.619 56.6053 880.735 56.942 879.93C58.218 877.105 64.482 863.211 58.798 852.085V852.085ZM61.06 1028.61C58.0824 1027.76 55.4613 1025.98 53.5895 1023.52C51.7178 1021.07 50.6962 1018.08 50.678 1015C50.156 1003.82 55.55 1002.84 52.302 898.32C57.174 901.779 61.988 904.892 66.628 907.659C67.4062 908.167 68.3276 908.412 69.2567 908.36C70.1858 908.308 71.0737 907.962 71.79 907.371C72.6924 906.598 73.5268 905.749 74.284 904.835C74.6334 904.35 74.881 903.8 75.012 903.218C75.143 902.636 75.1547 902.034 75.0465 901.448C74.9382 900.861 74.7122 900.303 74.3819 899.805C74.0516 899.307 73.6237 898.881 73.124 898.551L69.354 895.611C82.404 887.251 79.04 874.972 84.376 866.094C88.7544 860.183 93.8157 854.804 99.456 850.067L105.952 856.639C105.952 856.639 123.758 845.686 146.552 829.89C146.958 848.511 148.988 1020.13 149.8 1028.32C134.314 1028.61 66.802 1030.28 61.06 1028.61V1028.61ZM149.51 901.779C181.12 902.356 189.298 902.586 225.896 902.874C226.244 935.043 226.65 957.296 228.68 984.161C228.68 984.161 176.48 985.718 150.438 987.216C150.148 967.097 149.8 933.198 149.8 901.779H149.51ZM151.25 1028.32C151.25 1021.17 150.612 994.884 150.496 988.946C176.596 987.716 202.715 986.794 228.854 986.179C228.854 989.292 231.696 1016.44 232.392 1026.88L151.25 1028.32ZM282.562 1083.32C276.399 1083.63 270.223 1083.63 264.06 1083.32C263.217 1083.22 262.423 1082.88 261.773 1082.33C261.124 1081.79 260.649 1081.07 260.406 1080.26C258.165 1072.8 253.841 1066.13 247.936 1061.01C248.342 1054.72 248.574 1039.22 248.574 1037.95C257.197 1038.18 265.839 1038.58 274.5 1039.16C274.157 1045.8 274.604 1052.46 275.834 1058.99C278.444 1066.31 287.202 1074.73 282.562 1083.32V1083.32ZM281.286 715.685C257.216 715.685 229.608 740.244 224.852 776.736L209.83 777.889C215.588 771.984 220.827 765.6 225.49 758.807C233.378 730.616 260.58 710.727 283.49 710.324C295.436 710.694 306.812 715.485 315.39 723.756C323.216 731.282 329.43 740.302 333.66 750.275C349.03 758.692 377.682 766.013 409.524 771.605C399.2 771.605 349.552 772.067 335.168 772.355C329.948 739.321 304.312 716.146 281.286 715.685V715.685ZM398.214 1017.08C366.082 1021.92 297.294 1025.27 295.322 1025.32C298.28 1012.06 301.122 998.573 304.08 984.968C337.295 984.737 370.509 984.603 403.724 984.565C401.868 995.518 400.07 1006.41 398.214 1017.31V1017.08ZM304.544 982.489C309.764 957.181 319.45 903.624 319.508 903.278L504.412 905.18C505.63 930.604 508.066 956.028 510.908 981.336C475.876 982.259 326.294 982.72 304.544 982.95V982.489ZM519.492 1028.61C514.272 983.584 509.69 943.172 507.892 897.744C504.818 821.761 512.01 795.991 512.532 775.699C513.634 729.06 535.732 661.09 580.566 649.56C588.305 647.178 596.478 646.526 604.5 647.652C612.522 648.779 620.194 651.655 626.966 656.075C631.929 660.292 636.247 665.205 639.784 670.66C647.291 682.04 652.173 694.929 654.078 708.405C655.983 721.88 654.865 735.608 650.804 748.603C643.264 772.931 623.95 799.393 613.336 826.892C593.152 879.411 595.124 1000.25 604.752 1040.2C575.908 1041.3 547.084 1037.56 519.492 1029.13V1028.61ZM607.13 1039.85C600.054 1010.45 600.286 973.553 600.576 942.826C600.185 909.15 603.747 875.543 611.19 842.688C622.384 798.182 657.242 767.397 657.59 721.969C657.892 701.405 651.301 681.326 638.856 664.895C632.901 656.184 624.018 649.868 613.8 647.081H792.324C791.918 672.736 788.67 999.323 788.67 999.381L745.924 1027.46C698.944 1028.09 653.878 1038.52 607.13 1040.37V1039.85ZM863.548 659.764C880.31 680.807 887.038 713.437 871.726 753.561C858.908 787.402 802.648 865.287 828.226 1011.95C827.82 1011.95 813.61 1002.72 806.766 998.919C806.766 998.919 812.566 677.405 813.146 647.254C850.498 645.006 860.358 656.305 863.548 660.283V659.764ZM846.148 458.854C853.063 471.34 856.337 485.495 855.602 499.728C856.356 547.693 847.772 597.733 836.868 644.487C832.228 643.968 816.336 643.738 813.088 643.911C813.088 630.882 815.466 450.264 815.582 440.867C821.844 441.126 827.938 442.96 833.294 446.196C838.65 449.433 843.092 453.966 846.206 459.373L846.148 458.854ZM803.808 998.919C803.518 1001.51 893.65 1051.84 896.608 1053.11C889.88 1063.72 856.008 1072.42 842.842 1073.69C834.722 1074.5 760.714 1073.69 744.648 1072.25C727.78 1070.88 711.297 1066.51 695.986 1059.34C702.192 1056.22 790.758 1001.17 790.816 998.919C791.802 956.431 798.646 339.346 798.878 313.576H814.712C814.364 364.712 804.504 994.25 803.866 999.438L803.808 998.919ZM784.262 312.135C785.596 272.184 797.312 4.22636 797.08 4.11106L821.15 3.64986C823.76 23.3662 861.75 310.809 861.75 310.982C858.328 311.155 796.152 312.135 784.262 312.135V312.135ZM863.896 310.867C863.896 310.867 826.66 26.0181 822.6 3.70751L847.888 3.24631C852.876 23.1932 925.434 285.443 931.35 307.696C931.408 307.696 886.4 310.233 863.896 310.982V310.867ZM933.844 307.523C933.844 307.523 852.644 13.9692 849.396 3.07336L869.348 2.72746C883.152 43.486 972.762 284.002 980.708 304.41C965.125 305.717 949.504 306.793 933.844 307.638V307.523Z" fill="white"/>
</svg>
