<svg viewBox="0 0 480 480" fill="none" xmlns="http://www.w3.org/2000/svg">
<path d="M259.833 121.631C262.701 124.898 266.113 127.644 269.918 129.747C267.058 126.471 263.645 123.724 259.833 121.631ZM267.205 121.391C265.968 120.073 264.662 118.823 263.291 117.645C261.784 116.515 260.176 115.527 258.488 114.691C259.734 115.994 261.049 117.228 262.426 118.389C264.275 119.422 265.74 120.647 267.205 121.391ZM236.973 155.321C238.172 157.48 239.658 159.468 241.391 161.228C243 163.133 244.724 164.937 246.554 166.631C245.089 164.661 243.601 162.692 241.896 160.723C240.521 158.697 238.863 156.877 236.973 155.321ZM250.252 151.623C248.928 148.658 246.901 146.061 244.345 144.059C245.668 147.024 247.696 149.62 250.252 151.623ZM259.833 87.9416C263.531 80.7378 273.352 60.9035 274.601 58.1901C268.704 67.5931 263.757 77.5593 259.833 87.9416ZM268.694 90.655C270.055 89.1632 271.284 87.5563 272.367 85.8525C273.61 84.1939 274.765 82.4706 275.825 80.6898C272.51 83.2281 270.027 86.6977 268.694 90.655ZM303.368 70.7486C279.763 94.7611 281.3 93.1283 278.275 97.5466C288.24 87.5814 317.151 57.4217 320.08 54.5162C314.173 59.6788 308.722 65.2978 303.368 70.7486ZM293.282 107.608C297.077 106.182 300.638 104.199 303.848 101.725C300.006 103.046 296.429 105.038 293.282 107.608ZM297.941 120.647C325.987 111.45 352.545 103.982 362.606 101.437C340.585 106.15 318.964 112.573 297.941 120.647ZM300.15 134.454C304.792 134.656 309.438 134.163 313.933 132.989C309.292 132.8 304.648 133.293 300.15 134.454ZM309.251 164.157C304.446 162.414 299.378 161.505 294.267 161.468C296.6 162.294 299.015 162.866 301.471 163.173C304.025 163.76 306.631 164.09 309.251 164.157ZM252.461 86.4288C253.58 82.4254 254.161 78.291 254.19 74.1344C253.056 78.1346 252.475 82.271 252.461 86.4288ZM237.717 37.2992C237.395 53.1698 238.383 69.0399 240.671 84.7479C239.686 72.4535 237.717 40.805 237.717 37.2992ZM223.934 74.1824C224.468 77.5828 225.462 80.8948 226.888 84.0275C226.912 80.524 225.883 77.094 223.934 74.1824ZM189.02 50.41C195.317 63.2471 202.776 75.4805 211.304 86.957C227.92 107.608 204.82 79.6572 189.02 50.41ZM208.902 97.2824C205.98 94.0301 202.674 91.1436 199.057 88.6859C201.865 92.0524 205.188 94.9537 208.902 97.2824ZM162.222 75.9113C173.628 85.1321 186.667 96.7061 200.33 108.592C188.503 96.7174 175.761 85.7901 162.222 75.9113ZM175.501 117.453C178.779 119.15 182.4 120.078 186.091 120.166C182.717 118.734 179.147 117.819 175.501 117.453ZM156.819 141.057C162.726 141.585 182.849 142.786 188.78 142.786C178.215 141.107 167.504 140.527 156.819 141.057ZM191.493 148.861C186.209 148.648 180.919 149.141 175.765 150.326C181.049 150.522 186.336 150.029 191.493 148.861ZM160.877 175.731C162.678 175.131 194.735 164.445 200.714 161.948C190.127 164.719 179.705 168.086 169.498 172.033C166.4 173.258 163.711 174.483 160.877 175.731ZM205.493 171.049C202.251 172.874 191.085 179.765 183.137 185.072C186.811 183.103 190.749 180.894 194.687 178.661C198.625 176.428 202.059 173.762 205.493 171.049Z" fill="#0B0B14"/>
<path d="M188.372 205.099C189.428 204.09 192.838 200.512 193.174 200.056C216.346 175.851 209.983 181.83 212.864 178.925C204.1 187.137 188.18 203.802 187.795 204.234C178.19 189.635 175.429 183.727 157.131 174.747C151.351 172.406 145.423 170.449 139.386 168.888C138.642 168.696 138.642 168.143 138.474 167.495C138.306 166.847 138.114 165.934 137.969 165.094C136.697 159.091 137.105 159.643 135.04 159.979C134.925 158.902 134.925 157.815 135.04 156.737C135.567 156.708 136.067 156.495 136.453 156.135C136.839 155.775 137.086 155.292 137.153 154.768C137.594 153.847 138.083 152.949 138.618 152.079C137.131 152.419 135.572 152.241 134.199 151.575C134.454 153.207 134.22 154.878 133.527 156.377V160.171C132.783 160.003 119.96 161.492 118.783 161.636C118.783 161.132 118.952 160.291 118.783 160.027C118.615 159.763 118.039 160.027 117.799 160.027C115.614 160.438 113.382 160.527 111.172 160.291C109.608 160.159 108.098 159.654 106.77 158.819C105.441 157.983 104.332 156.841 103.536 155.489C102.05 152.258 101.374 148.714 101.566 145.163C101.725 140.952 102.223 136.76 103.055 132.629C116.935 132.053 120.632 133.95 129.853 137.431C130.285 143.482 131.006 148.597 135.496 150.926C136.475 151.325 137.546 151.444 138.589 151.27C139.632 151.096 140.606 150.636 141.403 149.942C144.633 146.663 146.779 142.473 147.55 137.936C151.681 119.278 136.024 103.79 127.308 105.999C123.789 106.337 120.419 107.589 117.533 109.632C114.648 111.675 112.347 114.438 110.859 117.645C110.667 118.149 110.739 118.485 110.259 118.437C109.034 118.293 109.13 118.437 109.347 117.813C110.485 114.68 112.344 111.859 114.773 109.577C117.425 107.369 120.533 105.778 123.874 104.918C114.269 104.918 102.935 109.385 98.9251 118.245C98.4689 119.254 98.3248 120.647 97.3883 121.271C96.8946 121.639 96.4806 122.103 96.171 122.636C95.8615 123.168 95.663 123.757 95.5874 124.369C95.0498 126.999 95.0498 129.71 95.5874 132.341C96.9679 134.223 98.9232 135.605 101.158 136.279C99.8966 141.811 99.8966 147.556 101.158 153.087C102.959 160.291 110.763 162.885 117.967 160.94V161.636C117.778 161.623 117.588 161.651 117.41 161.717C117.232 161.784 117.07 161.887 116.935 162.02C116.362 163 115.919 164.049 115.614 165.142L113.885 169.944C112.78 170.352 96.2117 170.16 81.6842 189.154C77.8463 187.243 74.4009 184.628 71.5269 181.446C71.1427 181.038 70.8065 180.318 70.2542 180.39C69.7019 180.462 69.2457 181.278 68.9335 181.614C66.2789 184.313 63.3495 186.728 60.193 188.818C47.0341 198.135 30.5375 200.968 14.5692 201.088C13.5847 201.088 12.168 200.608 12.168 202.073C12.3042 234.064 18.6318 265.727 30.8017 295.314C40.1619 316.276 55.6488 333.915 75.2248 345.908C75.7545 357.857 78.4644 369.608 83.221 380.582C82.7407 380.582 81.9963 380.342 81.5161 380.342C86.7261 401.525 96.1773 421.433 109.299 438.86C106.825 439.769 104.267 440.428 101.663 440.829C100.198 441.31 97.7245 442.534 97.7245 444.263C97.2443 448.633 116.718 448.369 120.104 447.937C122.505 447.697 125.507 447.217 126.756 444.743C128.461 441.334 122.794 431.128 123.058 408.725C121.881 406.587 114.077 389.827 113.453 380.942C113.453 380.462 113.213 380.462 112.948 380.702C103.76 381.242 94.5469 381.242 85.3581 380.702C79.724 370.016 76.6806 358.155 76.4734 346.076C79.427 347.301 81.9963 345.908 84.7097 344.443C95.4193 337.983 104.734 329.452 112.108 319.35C109.022 339.143 109.772 359.344 114.317 378.853C114.557 378.613 115.038 378.349 115.038 378.109C115.038 377.868 114.677 377.004 114.557 376.404C109.635 351.815 110.715 339.112 113.237 318.414C124.003 303.677 131.726 286.942 135.952 269.188C136.145 267.219 155.162 269.044 176.774 260.447C181.439 275.796 182.394 292.034 179.559 307.824C177.53 318.403 174.786 328.832 171.347 339.04C169.642 343.963 168.153 349.63 166.544 354.792C159.341 376.404 158.62 380.318 158.284 380.99C155.715 381.254 128.821 383.391 114.917 380.99C119.952 402.184 129.376 422.087 142.58 439.413C139.89 440.901 136.433 440.637 133.743 442.126C132.014 443.11 129.805 445.56 132.254 446.928C134.526 447.92 136.98 448.427 139.458 448.417C144.452 448.778 149.463 448.858 154.466 448.657C155.745 448.683 157.009 448.376 158.133 447.765C159.257 447.155 160.203 446.262 160.877 445.176C161.91 441.79 159.821 440.373 158.476 430.168C154.634 410.501 158.476 393.044 160.877 380.75H160.133C175.549 326.338 191.109 304.895 178.094 259.775C181.996 258.571 185.714 256.834 189.14 254.612C201.458 246.688 202.107 230.6 195.551 217.729C193.464 213.353 191.064 209.131 188.372 205.099ZM99.2853 134.67C98.4259 134.305 97.6756 133.725 97.1075 132.984C96.5394 132.243 96.1729 131.368 96.0436 130.444V126.049C96.0864 124.941 96.4431 123.867 97.0722 122.953C97.7013 122.039 98.577 121.322 99.5975 120.887C106.294 119.181 113.311 119.181 120.008 120.887C123.779 121.691 127.268 123.482 130.12 126.077C132.972 128.671 135.084 131.976 136.241 135.654C136.481 137.119 136 139.328 134.031 138.608C126.823 133.605 118.215 131.016 109.443 131.212C106.644 131.185 103.845 131.322 101.062 131.62C99.9577 131.836 98.8771 132.341 98.8771 133.421C98.8888 133.696 98.967 133.965 99.105 134.203C99.243 134.441 99.4367 134.643 99.6695 134.79L99.2853 134.67ZM100.03 132.701C100.58 132.489 101.172 132.407 101.759 132.461C101.471 133.331 101.301 134.235 101.254 135.15C99.7175 133.637 98.9491 132.965 100.03 132.701ZM117.007 163.677C117.175 162.909 117.727 162.356 119 162.356C120.272 162.356 136.217 160.699 136.217 160.699C136.217 160.699 136.769 163.389 136.937 164.83C137.159 166.128 137.463 167.412 137.849 168.672C137.177 168.672 115.254 169.512 115.158 170.088C116.526 164.998 117.007 163.917 117.007 163.677ZM99.3814 175.827C94.8286 180.641 91.3573 186.372 89.2001 192.636C87.0389 191.772 84.8778 190.715 82.7167 189.635C86.992 183.676 92.7317 178.92 99.3814 175.827ZM78.3704 345.115C77.0486 344.919 75.7907 344.418 74.6965 343.651C71.5269 341.418 68.5493 338.848 65.5958 336.447C53.6738 326.565 43.6494 314.596 36.0124 301.125C28.8845 287.22 23.6744 272.414 20.5243 257.11C16.5574 241.237 14.1447 225.016 13.3206 208.676C13.3206 206.707 13.0564 204.738 13.0564 202.769C35.316 203.754 54.43 198.255 69.7499 183.103C69.7499 184.328 69.1977 185.168 68.5253 196.814C56.2789 208.893 39.134 211.99 22.0851 210.381C23.1417 221.019 23.5259 275.215 54.7902 314.379C62.5702 323.984 74.6005 332.917 76.6415 333.421L78.3704 344.875V345.115ZM76.8336 332.269C76.3995 332.076 75.9887 331.834 75.609 331.548C68.6037 327.104 62.2924 321.651 56.8792 315.364C34.5956 288.134 26.0232 250.074 23.5739 215.064C23.5739 213.839 23.3098 212.662 23.3098 211.63C39.038 213.647 54.7181 211.63 68.6694 198.159C66.9645 240.853 71.2147 295.986 76.8336 332.269ZM69.6299 226.854C69.3417 214.007 69.87 199.408 69.774 197.487C77.6757 203.397 86.8546 207.369 96.5719 209.085C117.631 212.614 121.713 210.741 126.395 210.237C127.356 238.62 123.514 266.234 110.931 294.281C105.2 307.487 96.3699 319.117 85.19 328.187C82.8068 329.85 80.2747 331.289 77.626 332.485C77.53 332.221 71.0466 294.713 69.6299 226.854ZM132.807 271.613C128.34 296.706 107.81 329.243 84.3736 343.411C82.9496 344.389 81.2935 344.977 79.5711 345.115C78.9467 342.858 78.1543 335.991 77.8662 333.541C107.81 319.494 122.914 277.04 127.02 244.071C128.3 232.388 128.485 220.61 127.572 208.893C117.422 210.434 107.07 210.018 97.0762 207.668C82.1164 204.498 75.7531 200.728 70.0141 196.526C69.9421 192.155 70.304 187.787 71.0946 183.487C86.0064 198.375 116.118 201.929 135.76 197.895C140.462 222.371 139.426 247.604 132.735 271.613H132.807ZM183.233 256.125C178.614 258.2 173.847 259.926 168.97 261.288C154.226 265.73 147.935 265.73 136.265 267.195C138.186 259.189 139.503 251.05 140.203 242.846C140.203 242.102 140.203 241.862 140.683 241.357C144.109 238.194 147.726 235.243 151.512 232.521C151.993 232.017 152.737 231.776 153.217 231.296C153.698 230.816 153.217 230.312 152.977 229.807C151.627 226.157 149.981 222.624 148.055 219.242C145.022 214.084 143.256 208.28 142.901 202.306C142.546 196.333 143.613 190.361 146.014 184.88C147.383 181.516 149.483 178.498 152.161 176.043C152.615 175.496 153.202 175.074 153.866 174.819C154.37 174.555 155.09 175.059 155.595 175.299C159.142 176.989 162.59 178.881 165.92 180.966C172.211 185.24 177.35 189.611 184.362 200.872C191.565 211.702 198.769 222.916 198.361 236.027C198.025 245.464 191.805 252.403 183.137 256.125H183.233ZM283.941 187.762C285.408 189.912 287.012 191.965 288.744 193.909C290.713 195.878 292.442 197.847 294.411 199.576C291.376 195.257 287.864 191.294 283.941 187.762ZM322.193 88.1096C322.193 91.2793 320.777 92.7441 321.401 92.7441C323.394 90.4869 325.123 86.5008 329.973 86.7409C330.334 86.7409 330.694 86.957 330.286 86.4528C330.023 86.1959 329.713 85.992 329.373 85.8525C325.675 83.8114 326.828 79.7533 326.708 77.5682C326.708 76.8958 325.939 78.9849 323.202 80.9059C321.875 81.7207 320.363 82.1835 318.808 82.2506C316.262 82.3707 321.209 82.8269 322.193 88.1096ZM326.251 79.6092C325.926 80.9583 326.096 82.3795 326.731 83.6137C327.365 84.8479 328.422 85.8129 329.709 86.3327C328.454 86.3591 327.222 86.6687 326.103 87.2384C324.985 87.808 324.009 88.623 323.25 89.6224C323.366 88.1094 323.001 86.5982 322.208 85.3046C321.415 84.011 320.233 83.001 318.832 82.4187C320.205 82.613 321.605 82.4574 322.902 81.9663C324.199 81.4751 325.351 80.6644 326.251 79.6092ZM299.622 42.1977C300.102 42.4379 300.102 41.4534 299.862 41.2132C299.537 40.7829 299.304 40.2904 299.177 39.7662C299.05 39.2421 299.032 38.6975 299.125 38.1662C299.217 37.6349 299.417 37.1282 299.713 36.6775C300.01 36.2269 300.395 35.8418 300.846 35.5463C301.134 35.3542 301.831 35.066 301.831 34.8259C301.831 34.5858 301.278 34.5378 300.846 34.6338C299.616 35.0074 298.314 35.0734 297.052 34.8259C295.491 34.3697 294.867 33.073 294.219 31.7043C293.955 31.2 293.426 30.9599 293.474 31.4401C294.02 32.8536 294.215 34.378 294.044 35.8833C293.872 37.3886 293.339 38.8301 292.49 40.0846C292.346 40.2767 292.49 40.4688 292.682 40.3968C297.388 38.4038 298.733 41.7415 299.622 42.1977ZM294.675 33.7213C295.129 34.6016 295.894 35.2825 296.82 35.6327C297.747 35.983 298.771 35.9779 299.694 35.6183C299.174 36.1642 298.79 36.8247 298.574 37.5464C298.357 38.2681 298.313 39.0306 298.445 39.7725C297.781 39.2898 297.003 38.9855 296.188 38.8889C295.372 38.7922 294.545 38.9062 293.787 39.2202C294.694 37.5397 295.007 35.602 294.675 33.7213ZM203.716 55.2125C203.716 55.4286 203.716 55.6447 203.908 55.7168C204.1 55.7888 204.652 54.8763 204.772 54.6122C206.957 49.8097 210.439 52.211 210.799 51.8508V51.7067C209.931 51.3498 209.122 50.8641 208.398 50.2659C205.325 47.8647 208.782 43.7345 207.918 43.5665C207.053 43.3984 205.805 49.2334 200.714 48.537C200.378 48.537 199.994 48.537 200.474 48.8492C201.582 49.4712 202.482 50.4075 203.058 51.5399C203.635 52.6724 203.864 53.9503 203.716 55.2125ZM206.645 45.7756C206.316 46.7489 206.34 47.8071 206.713 48.7644C207.086 49.7218 207.785 50.5169 208.686 51.0103C207.951 50.8979 207.199 51.0014 206.521 51.3083C205.843 51.6152 205.269 52.1123 204.868 52.7392C204.763 51.8821 204.434 51.0676 203.916 50.3767C203.398 49.6858 202.708 49.1426 201.915 48.8012C202.203 48.7051 204.1 49.0893 206.645 45.7996V45.7756Z" fill="#0B0B14"/>
<path d="M118.351 140.121C118.783 139.232 119.168 137.359 118.087 137.359C117.679 137.359 117.511 137.935 117.439 138.272C117.367 138.608 116.934 140.001 117.439 140.289C117.583 140.383 117.759 140.419 117.929 140.387C118.098 140.356 118.25 140.261 118.351 140.121ZM119.216 149.173C116.614 150.504 113.755 151.257 110.835 151.382C112.3 151.827 113.859 151.855 115.338 151.465C116.818 151.075 118.16 150.282 119.216 149.173ZM117.487 134.166C118.375 134.622 119.264 135.03 120.176 135.39C120.092 135.125 119.952 134.88 119.768 134.672C119.583 134.464 119.356 134.297 119.103 134.181C118.85 134.066 118.575 134.005 118.297 134.002C118.018 133.999 117.742 134.055 117.487 134.166ZM115.518 126.53C117.29 125.843 119.014 125.041 120.68 124.128C116.902 125.318 113.269 126.929 109.851 128.931C111.831 128.365 113.734 127.558 115.518 126.53ZM105.048 126.602C106.105 126.073 108.266 125.065 108.146 124.825C105.836 125.481 103.669 126.564 101.759 128.018C101.855 128.258 103.968 127.25 105.048 126.602ZM112.084 147.204C110.355 147.204 108.434 147.204 108.674 145.115C109.13 142.474 110.475 138.968 110.835 137.119C109.336 139.359 108.269 141.859 107.69 144.491C107.498 145.523 107.377 146.748 108.386 147.42C108.969 147.706 109.615 147.836 110.263 147.798C110.911 147.76 111.538 147.556 112.084 147.204ZM105.937 139.256C106.129 139.856 106.705 139.808 107.089 139.256C107.618 138.32 107.714 136.423 106.633 136.615C105.553 136.807 105.769 138.584 105.937 139.256ZM105.192 134.67C106.177 134.406 107.353 133.949 108.146 133.829C107.906 133.659 107.63 133.544 107.339 133.495C107.049 133.445 106.751 133.461 106.468 133.541C106.184 133.622 105.922 133.765 105.702 133.961C105.481 134.156 105.307 134.398 105.192 134.67ZM465.836 213.263C446.842 212.879 430.009 209.613 414.689 197.03C413.835 196.346 413.032 195.6 412.288 194.797C412 194.485 411.496 193.717 410.992 193.645C410.487 193.572 410.103 194.245 409.719 194.629C406.843 197.625 403.44 200.066 399.682 201.833C385.442 183.775 369.09 183.895 368.009 183.487C365.608 177.076 365.488 175.515 364.023 175.659V175.011C367.463 175.959 371.113 175.816 374.468 174.603C382.993 171.337 382.08 158.13 380.544 151.791C382.72 151.05 384.643 149.71 386.091 147.925C386.731 146.58 386.98 145.082 386.811 143.602C386.475 141.441 386.547 138.8 384.41 137.479C383.866 136.56 383.369 135.615 382.921 134.646C378.887 126.241 367.793 122.015 358.332 121.967C361.659 122.706 364.743 124.283 367.289 126.548C369.836 128.813 371.762 131.692 372.884 134.91H371.515C369.915 131.222 367.26 128.09 363.885 125.907C360.51 123.723 356.565 122.587 352.545 122.64C340.539 124.344 329.733 141.033 336.121 157.121C325.891 155.729 299.429 152.655 296.236 152.319C309.38 155.171 322.735 156.946 336.169 157.626C338.066 162.428 341.908 167.231 346.806 165.31C347.864 164.774 348.793 164.016 349.531 163.087C350.268 162.159 350.797 161.082 351.08 159.931C351.714 157.515 352.132 155.048 352.329 152.559C361.43 149.197 365.104 147.444 378.743 148.045C379.542 151.936 380.008 155.888 380.135 159.859C380.348 163.259 379.661 166.655 378.142 169.704C377.344 171.016 376.242 172.116 374.93 172.914C373.618 173.712 372.134 174.184 370.602 174.29C365.8 174.939 363.399 173.618 363.111 174.05C362.822 174.483 363.111 175.083 363.111 175.539C361.838 175.371 348.487 173.93 348.487 174.098C348.487 170.16 348.487 170.52 348.343 170.208C347.884 169.279 347.716 168.233 347.863 167.207C347.863 167.063 347.863 166.15 347.983 166.078C346.612 166.695 345.08 166.854 343.612 166.534C344.145 167.352 344.596 168.221 344.957 169.128C345.145 169.619 345.472 170.045 345.899 170.352C346.325 170.659 346.833 170.835 347.358 170.857C347.503 171.828 347.503 172.815 347.358 173.786C345.341 173.426 345.726 172.898 344.453 178.589C343.708 181.782 343.805 181.902 343.036 182.094C340.947 182.623 338.882 183.343 336.793 183.871C328.338 185.777 320.331 189.299 313.213 194.245C305.192 199.528 300.51 207.452 295.131 215.088C292.586 212.278 285.094 205.483 280.075 200.44C280.611 196.814 280.692 193.136 280.315 189.49C278.274 183.559 270.134 181.038 265.908 180.534C267.421 177.388 282.477 144.995 283.701 142.282C287.615 133.661 288.264 133.301 288.504 130.972C288.459 129.801 288.029 128.678 287.279 127.778C286.343 126.938 289.08 128.739 251.26 105.567L238.774 105.735C237.797 105.668 236.82 105.858 235.94 106.287C234.345 107.138 232.848 108.161 231.474 109.337C201.074 130.155 198.049 131.668 199.009 135.222C199.623 136.796 200.43 138.288 201.41 139.664C201.554 139.905 225.423 180.486 225.423 180.63C221.029 180.966 214.233 182.647 211.592 186.585C209.887 189.298 210.607 192.732 210.871 195.686C211.111 199.119 210.871 202.889 210.871 206.251C210.535 225.269 212.096 238.356 212.096 272.646C212.096 276.32 211.856 280.017 211.856 283.715C211.856 286.117 211.28 291.255 211.352 294.521C211.266 296.013 211.699 297.489 212.576 298.699C212.84 299.203 213.561 299.444 213.825 299.924C214.089 300.404 213.537 342.186 213.825 346.148C213.832 347.442 214.237 348.703 214.984 349.759C215.731 350.816 216.785 351.617 218.003 352.055C220.769 353.512 223.753 354.51 226.84 355.008C241.064 357.479 255.651 356.89 269.63 353.28C272.166 352.771 274.482 351.487 276.257 349.606C277.141 348.491 277.578 347.087 277.482 345.668V299.876C277.516 299.538 277.622 299.212 277.791 298.918C277.961 298.624 278.191 298.369 278.467 298.171C280.219 294.953 279.283 292.264 279.211 287.846C278.995 275.143 279.715 271.373 279.715 243.59C279.715 216.48 279.139 208.028 279.715 201.473C285.478 207.404 293.45 215.184 294.291 216.216C293.066 217.969 281.804 231.416 283.269 247.168C283.693 250.35 284.82 253.397 286.569 256.089C288.317 258.78 290.644 261.048 293.378 262.728C296.715 264.869 300.284 266.625 304.016 267.963C289.944 308.04 307.33 333.037 321.449 381.638H320.729C323.61 392.11 324.865 402.962 324.45 413.815C324.266 421.11 323.251 428.361 321.425 435.426C320.921 437.828 319.624 439.797 320.44 442.366C321.105 443.435 322.031 444.316 323.133 444.926C324.234 445.535 325.473 445.853 326.732 445.848C333.287 446.376 335.952 445.584 341.547 445.656C343.959 445.679 346.35 445.222 348.583 444.311C350.984 442.918 348.847 440.589 347.142 439.653C344.501 438.26 341.091 438.476 338.426 437.083C351.503 420.953 360.939 402.187 366.088 382.071C351.76 383.431 337.329 383.278 323.034 381.614C310.715 341.153 305.096 330.156 301.807 313.827C299.22 298.651 300.374 283.073 305.168 268.443C315.23 272.333 334.152 277.328 345.678 276.992C349.506 293.744 356.938 309.46 367.457 323.048C370.573 341.289 370.141 359.959 366.184 378.036C366.184 378.517 365.92 379.189 365.92 379.669C365.92 380.15 366.184 380.126 366.424 380.366C370.961 362.024 371.777 342.959 368.826 324.296C376.134 334.058 385.288 342.29 395.768 348.525C398.409 349.918 400.954 351.215 403.86 350.086C403.493 361.5 400.432 372.665 394.927 382.671C391.565 383.295 367.961 382.431 367.721 382.431C367.481 382.431 367.241 382.167 367.241 382.647C365.697 388.938 363.723 395.116 361.334 401.137C360.594 403.131 359.686 405.059 358.62 406.9C358.164 408.22 357.204 408.22 357.636 411.054C357.453 419.091 356.448 427.089 354.634 434.922C354.082 437.323 352.401 440.229 353.866 442.558C354.636 443.547 355.629 444.338 356.765 444.868C357.9 445.399 359.145 445.652 360.397 445.608C363.383 445.919 366.392 445.919 369.378 445.608C375.141 445.055 382.873 445.608 382.489 442.198C382.489 440.565 380.087 439.412 378.623 438.908C376.07 438.528 373.561 437.901 371.131 437.035C384.086 420.817 393.531 402.083 398.865 382.023C398.361 382.023 397.641 382.239 397.16 382.239C401.338 372.442 404.988 361.06 405.036 350.35C405.036 349.173 405.277 349.197 406.285 348.669C411.518 345.004 416.499 340.993 421.197 336.663C432.71 326.833 441.959 314.628 448.307 300.884C455.102 285.78 460.481 269.092 465.116 241.694C466.989 228.655 466.821 228.943 467.901 217.849C468.096 216.618 468.185 215.373 468.165 214.127C468.237 212.83 466.604 213.287 465.836 213.263ZM367.889 147.084C360.873 147.607 354.098 149.868 348.175 153.664C346.23 154.36 345.774 152.271 346.014 150.902C347.406 144.995 353.866 138.896 362.102 137.071C368.68 135.522 375.527 135.522 382.104 137.071C383.116 137.459 383.996 138.129 384.638 139.001C385.281 139.874 385.66 140.912 385.73 141.994V146.076C385.554 147.022 385.106 147.896 384.441 148.591C383.776 149.286 382.922 149.772 381.984 149.99C383.281 149.269 383.353 147.228 379.895 146.892C375.895 146.621 371.879 146.685 367.889 147.084ZM379.895 148.093C380.457 148.078 381.018 148.159 381.552 148.333C382.489 148.621 381.792 149.269 381.288 149.702L380.328 150.614C380.32 149.764 380.216 148.918 380.015 148.093H379.895ZM285.79 134.67C285.79 134.838 274.192 158.154 272.007 162.933C271.743 163.605 262.402 183.415 261.922 183.823C261.442 184.232 254.502 186.873 252.797 187.593C252.797 187.353 263.819 140.745 264.299 138.248C264.779 138.08 286.631 131.044 287.111 130.852C286.941 132.186 286.535 133.479 285.91 134.67H285.79ZM252.173 187.497C247.987 187.709 243.791 187.637 239.614 187.281C237.213 178.445 234.091 169.704 231.642 161.396C228.016 149.077 228.256 152.919 224.438 138.248C225.519 137.791 262.282 137.936 263.459 138.248C262.354 143.242 253.806 178.469 252.269 187.617L252.173 187.497ZM250.564 106.767C251.476 107.151 285.358 127.49 286.823 128.859L287.135 129.531C285.862 130.083 264.755 136.591 263.675 136.903C262.786 135.582 249.459 111.402 246.674 106.551C248.01 106.548 249.344 106.661 250.66 106.887L250.564 106.767ZM245.954 106.575C247.558 110.02 249.37 113.364 251.38 116.588C252.557 118.75 247.49 109.625 262.786 137.191L224.366 137.335C224.366 136.495 233.395 121.751 234.62 119.638C236.84 115.24 239.301 110.967 241.992 106.839C243.624 106.887 244.921 106.767 246.05 106.695L245.954 106.575ZM207.894 126.794C215.914 120.887 223.982 115.196 233.251 108.976C234.453 108.117 235.761 107.415 237.141 106.887H240.743C240.575 107.127 225.663 132.941 223.622 137.071L200.666 132.941C202.765 130.553 205.2 128.482 207.894 126.794ZM202.803 139.088C201.844 137.462 201.078 135.73 200.522 133.925C200.522 133.685 223.214 138.056 223.454 138.056C223.694 138.056 227.32 151.503 229.049 156.401C235.124 175.443 236.517 178.204 238.414 187.209C236.589 186.345 228.953 183.871 228.809 183.775C228.545 183.175 205.445 144.371 202.803 139.088ZM276.305 347.324C275.681 349.726 270.999 351.527 268.693 352.127C259.088 354.912 249.964 355.081 239.878 355.081C232.73 355.088 225.643 353.752 218.988 351.142C218.106 350.848 217.298 350.368 216.619 349.734C215.94 349.1 215.404 348.327 215.05 347.469C214.665 345.572 214.809 348.237 214.809 300.26C215.27 300.459 215.774 300.542 216.274 300.5C216.754 300.5 217.499 300.74 218.003 300.74C225.207 301.148 225.855 305.183 232.411 306.407C238.198 306.719 239.614 304.606 245.689 305.183C250.492 306.263 253.782 308.112 258.704 307.392C264.035 305.951 264.515 303.454 270.518 301.965C272.745 301.694 274.906 301.036 276.906 300.02C275.777 313.971 277.53 342.762 276.305 347.324ZM225.423 218.738C225.663 218.257 225.903 218.497 225.903 218.738C225.903 224.885 226.912 231.176 226.167 247.264C225.72 262.901 224.405 278.501 222.229 293.993C221.965 294.233 221.725 293.729 221.725 293.488C221.725 292.504 221.965 291.76 221.965 290.775C225.711 253.772 225.423 218.497 225.423 218.738ZM235.316 204.498C236.06 203.754 235.82 205.219 235.82 205.483C235.82 212.975 234.428 257.23 235.316 274.062C235.316 274.302 235.58 275.047 235.316 275.287C235.052 275.527 234.836 275.047 234.836 274.807C234.836 274.567 232.435 238.02 235.58 207.188V205.963C235.004 205.219 235.004 204.738 235.316 204.498ZM255.727 252.523C255.967 252.283 256.231 252.523 256.231 252.763C256.231 253.003 257.936 298.387 257.696 298.387C257.456 298.387 257.215 297.883 257.215 297.643C257.215 297.402 254.79 253.292 255.655 252.427L255.727 252.523ZM267.037 296.778C266.556 296.778 266.556 296.034 266.556 296.034C266.556 296.034 260.553 223.372 264.587 219.338C265.332 219.098 264.827 221.547 264.827 221.739C262.522 244.071 267.949 296.682 266.965 296.682L267.037 296.778ZM272.944 234.346C272.704 234.61 272.439 234.85 272.199 234.346C271.959 233.841 272.199 233.385 272.199 232.881C271.644 225.764 271.484 218.621 271.719 211.486C271.839 206.683 272.439 202.721 272.439 200.68C273.64 199.48 272.968 206.371 272.944 233.121C272.872 233.505 273.112 233.745 272.872 234.226L272.944 234.346ZM275.897 192.804C267.685 197.823 241.055 201.473 220.813 195.205C217.859 194.245 210.007 191.291 212.96 186.849C215.194 183.487 220.5 182.479 224.174 181.71C224.549 181.662 224.928 181.662 225.303 181.71C226.239 181.878 226.984 184.112 227.152 184.112C227.3 184.208 227.462 184.281 227.632 184.328C243.048 189.418 234.836 188.098 248.907 189.13C250.69 189.273 252.482 189.036 254.166 188.434C256.946 187.632 259.679 186.678 262.354 185.576C263.435 185.168 263.483 184.784 265.236 181.686C278.106 183.559 280.388 190.835 275.825 192.684L275.897 192.804ZM398.601 201.977C396.464 202.985 394.327 203.97 392.19 204.786C390.069 198.809 386.668 193.367 382.224 188.842C388.18 192.3 394.111 195.686 398.601 201.977ZM345.774 174.29C349.207 174.651 363.783 176.043 364.215 176.235C364.513 176.497 364.73 176.839 364.839 177.22C365.536 179.165 366.088 181.182 366.616 183.175C366.616 182.767 353.217 182.07 344.237 181.71C345.101 178.877 345.365 175.515 345.774 174.29ZM327.764 272.502C317.896 270.661 308.242 267.821 298.949 264.025C290.401 260.495 284.35 254.132 284.013 244.983C283.797 232.161 290.713 222.387 297.989 211.942C302.629 204.39 308.968 198.026 316.502 193.356C320.317 191.073 324.336 189.152 328.509 187.617C331.981 189.981 334.673 193.325 336.241 197.222C338.546 202.395 339.56 208.049 339.196 213.7C338.832 219.351 337.101 224.829 334.152 229.663C332.27 232.834 330.663 236.16 329.349 239.604C329.109 240.277 328.605 240.541 329.109 240.973C329.613 241.405 330.309 241.669 330.79 242.126C334.499 244.715 338.059 247.513 341.451 250.506C341.932 250.986 341.932 251.202 341.908 251.923C342.578 259.653 343.846 267.32 345.702 274.855C341.956 274.326 328.316 272.934 327.86 272.502H327.764ZM401.002 348.309C399.296 348.145 397.652 347.586 396.2 346.676C359.245 324.152 340.011 273.198 343.66 226.614C344.126 220.785 344.928 214.989 346.062 209.253C360.859 211.707 376.017 210.837 390.437 206.707C397.73 204.805 404.453 201.163 410.031 196.094C410.223 197.751 410.631 200.704 411.064 206.827C411.064 207.86 411.28 208.604 410.295 209.229C409.311 209.853 401.819 215.4 384.194 218.834C374.317 220.992 364.129 221.334 354.13 219.842C354.13 220.995 353.914 222.243 353.866 223.3C352.78 242.892 355.154 262.522 360.877 281.29C368.081 304.246 384.89 332.461 402.731 337.695C402.443 340.025 401.507 345.764 401.002 348.309ZM406.189 313.659C405.397 321.583 404.004 328.715 403.019 336.399C392.79 333.998 376.293 313.419 370.242 300.38C362.842 284.099 358.076 266.746 356.123 248.969C355.25 239.752 355.001 230.486 355.379 221.235C359.989 221.715 364.023 223.636 384.89 220.274C394.4 218.724 403.433 215.028 411.304 209.469C411.232 210.477 413.009 244.479 406.189 313.659ZM412.336 210.141C418.527 215.182 425.672 218.922 433.342 221.138C441.012 223.353 449.05 223.999 456.975 223.036C456.302 232.971 455.044 242.857 453.205 252.643C450.354 269.683 444.793 286.156 436.733 301.437C425.903 321.511 410.319 333.926 403.812 336.399C404.796 330.3 405.901 324.393 406.621 318.197C410.463 283.739 413.825 244.911 412.336 210.141ZM466.604 220.226C465.188 245.319 457.432 283.307 443.889 307.176C436.357 320.024 426.428 331.306 414.641 340.409C406.813 346.58 404.604 348.117 401.963 348.453C401.963 347.997 403.644 337.743 403.692 337.503C410.583 335.943 448.067 311.906 457.023 235.546C457.528 231.128 457.528 226.518 458.056 221.859C449.939 223.212 441.624 222.751 433.706 220.509C425.789 218.267 418.466 214.3 412.264 208.892C412.264 208.556 411.616 197.967 411.16 195.974C426.6 210.381 445.497 215.544 466.989 214.775C466.965 216.528 466.604 218.497 466.604 220.226Z" fill="#0B0B14"/>
<path d="M363.831 152.679C362.726 152.511 363.231 154.432 363.423 154.888L363.567 155.177C363.655 155.297 363.779 155.388 363.921 155.435C364.063 155.483 364.216 155.484 364.359 155.441C364.936 155.177 364.599 154.048 364.359 153.544C364.119 153.039 364.263 152.751 363.831 152.679ZM370.915 165.886C368.052 165.765 365.246 165.045 362.678 163.773C363.736 164.83 365.059 165.584 366.508 165.956C367.956 166.327 369.478 166.303 370.915 165.886ZM361.79 150.71C362.707 150.376 363.605 149.991 364.479 149.558C364.228 149.449 363.957 149.393 363.683 149.393C363.41 149.393 363.139 149.448 362.887 149.556C362.635 149.664 362.408 149.822 362.22 150.02C362.031 150.219 361.885 150.454 361.79 150.71ZM371.995 144.563C368.55 142.851 364.997 141.367 361.358 140.121C364.823 141.788 368.374 143.27 371.995 144.563ZM379.991 143.771C378.097 142.381 375.965 141.347 373.7 140.721C375.678 141.966 377.788 142.989 379.991 143.771ZM369.786 161.876C370.324 162.183 370.927 162.356 371.545 162.381C372.164 162.406 372.779 162.282 373.34 162.02C374.324 161.42 374.204 160.267 374.012 159.283C373.514 156.769 372.509 154.384 371.059 152.271C371.515 154.408 372.74 157.386 373.148 159.811C373.316 161.78 371.443 161.876 369.786 161.876ZM374.709 154.624C375.045 155.008 375.645 155.057 375.837 154.624C376.005 153.808 375.837 152.223 375.141 152.223C374.444 152.223 374.108 153.664 374.709 154.624ZM373.676 149.318C374.666 149.493 375.639 149.759 376.582 150.11C376.458 149.853 376.28 149.625 376.061 149.442C375.841 149.259 375.585 149.126 375.31 149.051C375.034 148.975 374.746 148.96 374.464 149.006C374.182 149.052 373.913 149.159 373.676 149.318Z" fill="#0B0B14"/>
</svg>
