<svg viewBox="0 0 480 480" fill="none" xmlns="http://www.w3.org/2000/svg"><path d="M259.872 181.69c2.814.001 5.624.001 8.438-.001 3.329-.001 6.658-.002 9.992-.001h1.075l.538.001 3.603-.001c12.784-.006 25.563.156 38.338.487l3.061.077a339278.536 339278.536 0 0 0 10.893.276l5.722.145c.797.02 1.59.041 2.388.06 6.972.175 6.972.175 10.436.313l.663.024c1.595.069 3.092.276 4.602.829l.515.186c2.447 1.052 4.441 3.253 5.521 5.65.73 2.069.793 4.335.981 6.504l.054.637c.403 4.715.64 9.436.864 14.161.041.862.086 1.724.126 2.586.596 11.851.699 23.697.694 35.561v.984c-.004 10.698-.098 21.384-.506 32.075-.027.655-.049 1.31-.072 1.966-.457 12.28-.999 24.551-1.832 36.813-.054.767-.103 1.534-.157 2.302l-.403 5.961c-.202 2.869-.395 5.738-.578 8.607-.036.499-.067.998-.099 1.496-.515 3.959-.515 3.959-.009 7.795.636.724 1.34 1.334 2.084 1.949 1.039.869 2.047 1.745 3.002 2.711.161.163.322.326.493.494.309.313.618.631.918.953 1.358 1.353 2.761 1.616 4.616 1.921l.981.174c.892.156 1.783.302 2.675.446.964.156 1.931.315 2.895.474l.573.095c2.308.38 4.611.798 6.91 1.231l.744.138c3.643.679 7.263 1.429 10.87 2.282l.695.163c1.788.419 3.571.85 5.354 1.288l.905.223c3.988.982 7.905 2.088 11.79 3.442.6.203 1.205.387 1.814.565 8.563 2.528 17.7 6.504 24.448 12.466a159.4 159.4 0 0 1 1.618 1.437c.125.114.255.229.39.347.304.282.6.579.896.878v.484h.483c1.914 2.222 3.137 4.68 3.872 7.501.04.146.085.292.126.442.129.589.147 1.123.152 1.726 0 .241 0 .481.004.728v1.612c.005.887.005 1.773.005 2.66v.91c-.005 3.668-.036 7.329-.26 10.991l-.027.494c-.229 3.799-.784 6.764-3.63 9.473-3.831 3.189-8.002 5.067-12.595 6.926l-.735.3-.659.266c-.564.23-.564.23-1.013.735-.098.769-.098.769-.121 1.692-.013.364-.031.727-.044 1.091-.009.194-.018.388-.023.588a195.75 195.75 0 0 1-.779 11.222c-.036.335-.036.335-.068.677l-.255 2.613a200.927 200.927 0 0 0-.39 4.65c-.21 2.783-.488 5.56-.766 8.337-.054.523-.103 1.045-.157 1.567-.251 2.558-.524 5.112-.9 7.655-.027.187-.05.373-.077.566-.179 1.124-.439 2.073-1.259 2.896-1.496.141-1.496.141-2.271-.409-.834-1.191-.628-2.484-.516-3.874.013-.207.031-.413.045-.626.036-.445.067-.89.103-1.335.09-1.191.175-2.384.264-3.576.018-.239.032-.479.054-.726.139-1.958.251-3.917.354-5.878.211-3.795.516-7.583.825-11.37.036-.476.076-.952.112-1.427.354-4.383.779-8.754 1.272-13.124l-.856.233-3.186.865c-.457.123-.909.248-1.366.372-2.702.737-5.391 1.402-8.142 1.918-.515.109-1.031.22-1.546.332-1.859.403-3.724.772-5.588 1.142-1.362.27-2.715.548-4.068.842-2.312.501-4.638.902-6.972 1.281-1.233.201-2.469.41-3.702.624l-.533.093-.542.093c-3.58.621-7.16 1.212-10.759 1.749-.833.126-1.667.255-2.5.385a383.98 383.98 0 0 1-24.026 2.974c-1.08.1-2.155.212-3.231.336-2.662.304-5.323.537-7.989.75l-.749.06c-7.285.583-14.585 1.031-21.884 1.492l-.507.032-1.003.063c-.753.048-1.506.098-2.259.152-3.083.221-6.174.336-9.262.462l-.945.039-4.481.182c-1.515.062-3.029.123-4.539.187-7.851.33-15.697.594-23.556.687-2.684.034-5.364.088-8.048.236a63.849 63.849 0 0 1-4.221.098l-1.38-.006-.708-.005a342.95 342.95 0 0 0-13.684.173 71.987 71.987 0 0 1-6.076-.048c-3.119-.148-6.238-.189-9.361-.222l-3.092-.036-.537-.007-1.089-.014-1.658-.02c-12.34-.149-24.672-.318-36.999-.945a768.586 768.586 0 0 0-5.466-.255c-6.816-.3-13.622-.663-20.424-1.172a248.716 248.716 0 0 0-4.391-.281c-4.078-.233-8.147-.57-12.215-.913l-.914-.075c-3.76-.315-7.51-.682-11.256-1.11a210.043 210.043 0 0 0-4.952-.493c-10.646-1.004-21.248-2.466-31.8-4.185l-1.345-.219a532.016 532.016 0 0 1-4.947-.829l-.788-.134c-10.087-1.738-20.047-4.031-29.941-6.641.022.202.049.403.076.61a338.064 338.064 0 0 1 1.6 16.199c.062.776.125 1.551.183 2.326.39 4.913.708 9.826.964 14.747.076 1.426.17 2.85.269 4.274.21 3.243.21 3.243-.256 3.892-.502.355-.775.394-1.384.387l-.502.006c-.641-.132-.794-.298-1.192-.822a19.846 19.846 0 0 1-.484-1.89c-.04-.192-.08-.383-.126-.582-.488-2.389-.802-4.803-1.102-7.222-.031-.244-.058-.489-.094-.74-.57-4.539-.95-9.08-1.237-13.644-.08-1.231-.175-2.459-.282-3.688a177.43 177.43 0 0 1-.47-6.543l-.095-1.566c-.044-.79-.09-1.58-.13-2.371-.04-.743-.08-1.486-.125-2.228-.009-.226-.022-.453-.031-.687l-.04-.633-.028-.555c-.143-.604-.358-.822-.837-1.205-.489-.215-.982-.41-1.484-.59a48.99 48.99 0 0 1-3.84-1.588l-.654-.307c-3.76-1.822-8.532-4.275-10.499-8.201-2.334-7.224-.963-16.955-.461-24.4.018-.272.036-.544.053-.824.296-3.938 2.604-7.054 5.27-9.822l.636-.675c1.452-1.501 2.935-2.783 4.687-3.922.13-.086.26-.172.395-.259 2.392-1.536 4.933-2.792 7.483-4.036l.47-.232c2.33-1.14 4.696-2.105 7.138-2.974l.847-.305c6.565-2.329 13.214-4.528 20.007-6.086 1.277-.294 2.55-.61 3.822-.933 2.142-.544 4.284-1.061 6.457-1.475a93.517 93.517 0 0 0 2.348-.487c1.354-.293 2.711-.568 4.069-.838.533-.107 1.071-.216 1.604-.326 2.196-.451 2.196-.451 3.226-.551 2.639-.32 4.033-1.985 5.812-3.803.605-.599 1.241-1.122 1.909-1.65a25.96 25.96 0 0 0 2.487-2.259 22.43 22.43 0 0 1 1.295-1.189l.475-.427c.443-.375.887-.718 1.353-1.06 1.528-1.139 1.528-1.139 2.231-2.837a15.373 15.373 0 0 0-.461-2.156c-.233-.826-.403-1.663-.574-2.503-.04-.201-.08-.402-.125-.609-2.42-12.322-2.765-25.191-3.249-37.713-.004-.188-.013-.375-.022-.568-.332-8.668-.56-17.335-.56-26.01 0-.606 0-1.211-.005-1.817v-6.435c0-1.732-.004-3.465-.004-5.197-.023-10.344.071-20.667.47-31.004.076-1.928.135-3.857.193-5.785.166-5.572.493-11.127.905-16.685.036-.524.076-1.048.112-1.572 1.134-15.402 1.134-15.402 5.386-19.196 2.724-2.228 6.376-2.2 9.714-2.29l1.439-.042 2.518-.073c1.291-.036 2.586-.073 3.876-.112l.524-.015a412.78 412.78 0 0 0 6.386-.236c9.329-.417 18.658-.619 27.992-.83 2.298-.051 4.597-.105 6.896-.157 2.894-.068 5.784-.134 8.675-.199l.64-.015 2.492-.056c2.272-.051 4.548-.104 6.82-.163 2.558-.065 5.121-.12 7.684-.167l.865-.016c16.145-.291 32.294-.264 48.438-.257Zm-23.883 5.778c-.408 1.244-.215 2.196.242 3.402.686.773 1.394 1.082 2.406 1.256 1-.058 1.717-.317 2.51-.923.667-.897.891-1.455.833-2.586-.26-1.112-.569-1.764-1.452-2.495-1.873-.791-3.378-.304-4.539 1.346Zm12.327.06c-.269.717-.3 1.418-.242 2.178.332.656.332.656.968.968.726.161.726.161 1.452 0 .564-.429.874-.798 1.21-1.422 0-.876-.413-1.321-.968-1.966-.977-.325-1.569-.337-2.42.242Zm-78.684 10.859-2.263.062c-1.77.047-3.535.095-5.301.145-1.738.049-3.472.096-5.211.141-1.496.04-2.993.08-4.49.122l-2.603.07c-4.427.115-8.827.344-13.237.7a66.44 66.44 0 0 0-.761 5.474l-.072.748c-.081.829-.152 1.658-.229 2.488-.022.292-.049.584-.076.884-.546 6.275-.838 12.56-1.102 18.851-.014.358-.014.358-.031.722-.139 3.343-.269 6.687-.39 10.031-.009.181-.014.361-.023.547-.201 5.579-.286 11.158-.34 16.74-.014.925-.023 1.849-.032 2.773-.17 14.545-.085 29.089.005 43.633l.027 5.441c.009 1.795.022 3.589.031 5.384.009 1.228.014 2.455.023 3.682.022 4.4.085 8.796.188 13.194.013.48.027.96.036 1.44.027 1.156.053 2.313.085 3.469 21.23.121 42.465.224 112.976.369l.618.001 4.97.008c6.528.01 13.057.022 19.581.034 7.483.014 14.966.028 22.449.039l2.397.004.596.001 8.169.015c4.517.009 9.033.017 13.55.022h.511c10.57.013 21.141-.029 31.711-.251.009-9.486-.018-18.972-.076-28.459l-.014-1.568c-.018-3.321-.04-6.643-.062-9.964-.005-.757-.009-1.513-.018-2.27v-.569c-.023-2.812-.036-5.624-.054-8.436-.108-19.299-.372-38.583-.968-59.334-.018-.688-.04-1.376-.058-2.065-.103-12.06-.103-12.06-1.17-24.046a16.913 16.913 0 0 0-2.881-.292l-.842-.015-.914-.012-.964-.015c-.86-.014-1.725-.026-2.59-.037l-1.617-.023a752.745 752.745 0 0 0-15.903-.081c-2.478.012-4.951-.016-7.425-.095-5.471-.175-10.942-.191-16.413-.188l-4.042-.001h-17.13c-5.682-.001-11.368 0-17.05.001h-15.428c-5.82-.001-11.636-.002-17.457-.001h-1.877l-.933.001-6.385-.001c-16.498-.004-32.997.022-49.491.487Zm-48.487 151.32c-.453.554-.968 1.003-1.528 1.451-.614.495-.735.608-.995 1.392-.323.167-.645.327-.968.484-.314.285-.618.584-.91.892a32.64 32.64 0 0 1-2.038 1.935 32.478 32.478 0 0 0-2.133 2.012c-1.161 1.181-2.33 2.329-3.585 3.408-2.016 1.757-3.952 3.609-5.901 5.442a175.213 175.213 0 0 1-3.316 3.026 42.985 42.985 0 0 0-1.802 1.768 19.21 19.21 0 0 1-1.263 1.116c-.851.718-1.64 1.505-2.28 2.42v.483h-.485c-1.093 1.194-1.909 2.368-1.967 4.008.287.875.323.973 1.075 1.391 3.12 1.302 6.941 1.16 10.266 1.263l.955.031c3.589.11 7.178.159 10.767.204l.565.006a2912.612 2912.612 0 0 0 19.371.174l.967.006.982.006.497.003a7638.424 7638.424 0 0 1 43.98.41l12.004.143c10.328.124 20.661.245 30.99.361l.699.008a6524.372 6524.372 0 0 0 53.273.401l1.259.005c8.464.032 16.929.098 25.389.169l1.003.008 9.074.078c26.54.238 26.54.238 53.085.337l3.293.005c11.857.741 11.857.741 22.996-1.999.583-.472.583-.472.497-1.347-.201-1.363-1.075-2.24-1.949-3.251-.157-.21-.309-.419-.47-.635-.592-.681-1.246-1.243-1.931-1.828a23.789 23.789 0 0 1-1.349-1.287 37.443 37.443 0 0 0-2.258-2.086 102.127 102.127 0 0 1-1.735-1.544 156.504 156.504 0 0 0-5.363-4.614 28.02 28.02 0 0 1-1.896-1.798 50.575 50.575 0 0 0-3.087-2.914 125.244 125.244 0 0 1-1.918-1.714c-.219-.195-.434-.39-.654-.591a60.105 60.105 0 0 1-1.842-1.798l-.64-.632c-1.994-1.975-1.994-1.975-2.81-2.937a87.34 87.34 0 0 0-2.693-2.949l-.448-.495c-.927-.96-1.577-1.406-2.921-1.454l-.65-.002-.784-.032c-5.969-.238-11.946-.262-17.919-.338l-.637-.008c-7.465-.096-14.925-.126-22.395-.121h-.762c-3.862.003-7.725.009-11.583.015-3.401.006-6.806.011-10.207.013-1.452.001-2.904.003-4.356.007l-2.715.003c-.408.001-.816.001-1.223.003-2.568.008-5.126-.045-7.694-.128-4.476-.146-8.948-.18-13.429-.185-1.093-.001-2.191-.004-3.285-.007l-5.677-.011c-2.765-.004-5.525-.01-8.285-.016-4.512-.011-9.025-.02-13.537-.029l-.815-.002-4.082-.008a2925211.525 2925211.525 0 0 0-8.877-.017c-4.481-.009-8.962-.018-13.447-.029-2.496-.006-4.992-.01-7.492-.015a3281.595 3281.595 0 0 1-31.371-.181l-.703-.008c-6.542-.074-13.089-.16-19.631-.314a704.648 704.648 0 0 0-3.284-.069c-4.051-.079-8.097-.166-12.143-.45-.784-.054-1.573-.101-2.362-.151a88.357 88.357 0 0 1-3.293-.271c-3.504-.273-5.059.624-7.214 3.378Zm258.559 11.07c.565.715 1.098 1.366 1.797 1.95a99.547 99.547 0 0 1 3.02 2.719c.784.731 1.582 1.452 2.384 2.168 10.669 9.593 10.669 9.593 10.987 15.489.013.795.027 1.59.031 2.385 0 .341.005.681.014 1.022.045 2.165.071 4.179-1.416 5.897-5.489 5.153-19.953 3.578-27.1 3.733l-1.874.043c-11.359.261-22.722.177-34.085.104-2.909-.019-5.817-.034-8.725-.048-20.397-.102-40.789-.334-61.177-.812l-8.487-.196-2.083-.048-.69-.015-4.087-.095c-5.52-.129-5.52-.129-11.041-.238l-2.016-.036-1.313-.023a427.91 427.91 0 0 1-9.347-.275 881.954 881.954 0 0 0-34.651-.637h-.524c-4.45.002-8.895.011-13.34.023-6.277.017-12.55.026-18.828.035l-3.114.004c-10.786.017-21.567-.041-32.348-.227-1.702-.028-3.405-.052-5.108-.075-23.018-.32-23.018-.32-25.657-2.955-1.932-2.927-2.012-9.152-1.461-12.479.81-3.009 3.136-5.268 5.202-7.493.224-.252.453-.504.681-.756a58.408 58.408 0 0 1 4.405-4.395c1.174-1.059 2.272-2.193 3.383-3.318l.726-.726a41.164 41.164 0 0 0-4.629.726l-.74.156c-.873.188-1.747.378-2.616.57l-.529.116c-4.978 1.1-9.916 2.273-14.8 3.738-.677.198-1.349.39-2.021.578-3.11.869-6.17 1.841-9.222 2.888-.233.079-.466.158-.703.24-14.756 4.894-14.756 4.894-25.635 15.411-.972 2.079-1.201 4.104-.489 6.307 2.434 5.28 9.123 7.925 14.173 9.842a143.234 143.234 0 0 0 15.271 4.676l.592.145c3.356.815 6.743 1.459 10.14 2.084l.493.091.484.089c1.111.205 2.213.421 3.32.649 1.658.339 3.316.653 4.992.911l1.219.189.627.099c.833.13 1.662.263 2.496.396a429.58 429.58 0 0 0 18.707 2.606l.668.078a683.423 683.423 0 0 0 17.189 1.786c.851.079 1.698.167 2.545.257 2.957.312 5.919.527 8.885.749.386.028.771.058 1.156.087l.596.044c1.327.1 2.649.21 3.975.324 3.177.272 6.354.481 9.535.668l3.15.188.766.046c1.645.099 3.289.209 4.929.327 3.953.283 7.909.446 11.866.601l.797.031.811.032c1.94.077 3.881.165 5.817.257 20.939.992 41.896 1.148 115.351 0l.887-.037c8.15-.338 16.283-.822 24.42-1.409 2.133-.153 4.266-.28 6.399-.389 3.307-.171 6.591-.451 9.885-.787 2.16-.219 4.324-.394 6.488-.569 2.335-.19 4.674-.384 6.999-.663 1.452-.172 2.904-.283 4.356-.396a97.162 97.162 0 0 0 6.237-.7c1.698-.242 3.401-.435 5.104-.616 3.54-.379 7.057-.875 10.579-1.376 1.201-.17 2.397-.334 3.598-.494 3.93-.525 3.93-.525 7.824-1.256a55.797 55.797 0 0 1 2.894-.488c5.239-.798 10.441-1.903 15.607-3.07l.834-.186c18.246-3.454 18.246-3.454 33.306-13.303 1.125-1.828 1.519-3.434 1.04-5.557-.587-1.798-1.564-3.215-2.756-4.667l-.367-.449c-3.603-3.974-9.415-6.384-14.209-8.551a73.26 73.26 0 0 1-1.134-.53 48.298 48.298 0 0 0-3.719-1.546l-.511-.191a237.606 237.606 0 0 0-5.682-2.026c-.179-.063-.363-.125-.551-.19a116.819 116.819 0 0 0-9.41-2.79 201.23 201.23 0 0 1-2.092-.545 315.036 315.036 0 0 0-3.468-.903l-1.425-.369c-4.378-1.14-8.801-2.035-13.237-2.915l-.887-.178c-3.437-.688-6.838-1.282-10.333-1.561Z" fill="#000" fill-opacity=".969"/><path d="M253.976 10.005c1.174.3 1.819 1.192 2.567 2.097.238.247.48.489.726.726l.506-.318c2.339-1.385 2.339-1.385 3.832-1.277.945.269 1.572.851 2.195 1.595.453.83.484 1.21.484 2.178.278-.121.556-.238.847-.363 1.286-.48 2.393-.614 3.706-.09.663.57.936 1.09 1.254 1.905v.968c.175-.014.35-.023.529-.036 1.492-.054 2.42-.04 3.585 1.003.663.995.681 1.735.484 2.904-.386.87-.928 1.631-1.452 2.42-.48.775-.95 1.55-1.425 2.33-.233.385-.471.77-.708 1.156-.103.17-.202.336-.309.506-.072.121-.144.242-.22.363.641.86 1.259 1.47 2.146 2.07 4.221 3.003 8.218 6.722 11.162 10.996v.484h.484l.475.78c.834 1.2 1.936 1.505 3.276 1.971 2.764 1.035 5.439 2.21 8.119 3.45l.569.26a203.69 203.69 0 0 1 6.762 3.258c.784.399 1.573.78 2.366 1.16 8.961 4.334 8.961 4.334 10.373 7.269-.215 3.154-2.563 7.133-4.302 9.741l-.34.511c-.215.323-.439.645-.668.959-.726 1.07-.824 1.788-.614 3.065.117.533.117.533.372 1.223.605 1.895.081 3.213-.672 4.983-.744 1.931-.919 3.79-1.084 5.843-.758 9.145-2.272 18.797-8.178 26.182-.166.21-.332.421-.506.636-.551.681-1.107 1.353-1.672 2.025-.116.135-.228.274-.345.412-5.036 6.005-11.569 11.086-19.59 12.126-2.093.148-4.163-.247-6.17-.834-1.976-.551-1.976-.551-3.872.036-.685.421-1.362.851-2.034 1.295-4.113 2.698-8.738 4.588-13.456 5.937-.462.13-.919.269-1.38.412-7.174 2.102-14.975 2.425-22.355 1.425-.224-.031-.453-.058-.681-.089-4.849-.668-9.563-1.887-14.079-3.782l-.749-.3c-3.826-1.555-7.554-3.522-10.866-5.991-.224-.166-.452-.327-.681-.498-4.597-3.378-8.769-7.227-12.143-11.843-.21-.282-.421-.564-.632-.842-2.263-3.06-4.028-6.376-5.659-9.804-.143-.3-.143-.3-.291-.605-6.372-13.649-6.82-30.156-1.81-44.28 2.89-7.85 7.142-14.921 12.99-20.93.138-.144.277-.291.425-.44 7.183-7.41 16.069-12.613 25.949-15.53.255-.076.515-.157.784-.237 5.995-1.761 11.713-2.07 17.924-1.94l.752.013c.471.009.937.022 1.407.036l.632.013c.184.005.368.01.556.018.148-.027.295-.054.448-.08.573-.86.596-1.56.681-2.555.188-1.814.529-3.607 1.958-4.875.52-.322.865-.493 1.474-.556.484.162.484.162.968.422.166.094.332.183.506.273.507.3.977.623 1.43 1 .09-.27.089-.27.179-.547.686-1.502 1.447-1.847 3.061-1.793Zm-8.321 9.84c-4.181 4.347-5.772 11.059-5.745 16.889.103 2.72.878 4.593 2.72 6.627 1.403 1.237 2.908 1.528 4.718 1.649-.08.399-.161.797-.242 1.21-1.08.237-1.08.237-2.177.483-.05.18-.099.354-.153.538-.237.838-.475 1.676-.712 2.519l-.26.927a136.162 136.162 0 0 1-1.981 6.372 15.28 15.28 0 0 0-.766 3.92c-.027.328-.027.328-.049.66-.04 1.77.26 3.364 1.214 4.874.919.897 1.595 1.425 2.886 1.618 2.554-.157 4.387-2.07 6.112-3.764.206-.197.417-.39.632-.591 1.931-2.07 2.746-5.207 3.652-7.82a74.189 74.189 0 0 1 1.72-4.471c.296-.695.578-1.39.861-2.088a65.96 65.96 0 0 1 1.496-3.312l.408-.851c.426-.708.663-1.062 1.393-1.434.722-.072.722-.072 1.528-.076 1.354-.072 2.062-.287 3.025-1.237.493-.659.565-1.282.574-2.075.004-.165.004-.331.009-.497-.027-.551-.027-.551-.538-1.196-1.353-.31-2.353-.215-3.684.152l-.43.09c-.582-.583-.363-2.07-.372-2.873.041-2.254.78-4.162 1.605-6.233.6-1.577 1.044-2.988.923-4.686-.713-1.569-3.177-2.093-4.651-2.649-.283-.107-.565-.21-.852-.322-2.169-.811-4.333-1.542-6.573-2.11-.184-.046-.368-.095-.556-.144-.564-.14-1.134-.278-1.698-.417a28.91 28.91 0 0 1-.524-.125c-1.434-.332-2.29-.43-3.513.443Zm-28.794 7.017c-.162.068-.323.13-.489.197-8.567 3.513-16.709 9.778-22.256 17.225-.193.255-.386.506-.583.77-3.809 5.015-3.809 5.015-5.709 10.844a69.967 69.967 0 0 0 4.235-1.528 157.477 157.477 0 0 1 17.543-5.73l.6-.162c3.629-.959 3.629-.959 5.207-1.049 1.51.96 1.801 4.14 2.245 5.799.183.927.183.927.658 1.702.43.032.865.04 1.3.045.237.005.47.01.717.01a14.22 14.22 0 0 0 2.083-.297c1.739-.331 3.464-.313 5.23-.304.17.004.34.004.519.004 2.147.005 4.262.076 6.394.368 1.69.233 3.348.22 5.05.174.923-1.756 1.69-3.544 2.389-5.4.098-.255.201-.51.304-.774.095-.247.189-.493.283-.748.085-.225.17-.444.26-.673.17-.717.134-1.142-.09-1.841-.506-.435-.506-.435-1.134-.789-2.392-1.59-3.127-3.728-3.705-6.47-.623-3.473.336-6.793 1.178-10.15.058-.228.112-.457.17-.694a16.16 16.16 0 0 1 1.582-3.916l.215-.484c-.08-.162-.161-.318-.242-.484-8.137-.26-16.436 1.255-23.954 4.355Zm51.78 5.323c-1.308 2.438-1.308 2.438-1.545 5.064.327.538.327.538.712 1.017.574.744.65 1.47.591 2.388-.345 1.806-1.035 3.348-2.419 4.598-1.434.667-2.55.806-4.114.726a94.856 94.856 0 0 0-2.24 5.744 174.096 174.096 0 0 1-1.783 4.857c-.099.265-.202.53-.305.798a238.35 238.35 0 0 1-.596 1.519l-.264.69c-.081.197-.157.399-.242.605-.157.623-.157.927.107 1.514.65.337 1.273.61 1.949.879 2.254.945 4.248 2.115 6.278 3.477l.569.38c2.361 1.582 4.682 3.205 6.932 4.943.829-.672 1.187-1.609 1.618-2.554.085-.184.165-.363.25-.551a290.326 290.326 0 0 0 2.035-4.53 100.94 100.94 0 0 1 1.389-3.025 90.902 90.902 0 0 0 4.189-10.758c.404-1.26.404-1.26.717-1.838.305-.68.292-1.169.207-1.908-.377-.69-.377-.69-.924-1.345l-.295-.376c-.314-.399-.637-.789-.959-1.183a99.298 99.298 0 0 0-.341-.408 164.328 164.328 0 0 0-2.321-2.738c-.157-.188-.318-.376-.479-.569a21.677 21.677 0 0 0-2.613-2.599 62.271 62.271 0 0 1-1.823-1.657c-1.945-1.999-1.945-1.999-4.28-3.16Zm17.18 13.309c-.892 1.689-1.617 3.396-2.272 5.189a461.655 461.655 0 0 0-1.559 4.261c-1.47 4.069-3.15 8.025-5.131 11.87-.304.596-.6 1.196-.896 1.797a272.873 272.873 0 0 1-6.188 11.793 86.199 86.199 0 0 0-2.101 4.046c1.666.879 3.383 1.56 5.139 2.236.614.242 1.228.48 1.837.717l.462.18c.838.327 1.676.658 2.509 1.008 2.644 1.098 5.332 2.007 8.052 2.894 3.334 1.09 6.753 2.218 9.849 3.885.484.26.484.26 1.188.21.121-.272.237-.546.363-.824a323.98 323.98 0 0 1 2.477-5.498c.072-.147.139-.3.211-.452a38.91 38.91 0 0 1 1.165-2.285c.426-.968.538-1.757.381-2.796-.273-.628-.641-1.157-1.044-1.708-1.12-1.59-2.102-3.029-1.86-5.068.726-.483.726-.483 1.694-.483l-.121-.377c-.161-.78-.166-1.492-.121-2.285.471-.47.852-.69 1.452-.968-.049-.22-.103-.44-.152-.668-.094-.81-.045-1.084.394-1.752h1.694c.157-.56.318-1.12.484-1.694.752-.201.752-.201 1.693-.241a9.64 9.64 0 0 1 1.51 1.317c.453.462.915.905 1.394 1.344h.726c.345-.412.345-.412.65-.981.188-.336.188-.336.381-.672.138-.256.277-.507.421-.767.148-.273.3-.55.457-.833.502-.927.99-1.86 1.478-2.796l.269-.52c.269-.524.538-1.044.802-1.568.085-.161.166-.318.251-.484.421-.834.731-1.586.856-2.51-4.785-3.266-9.885-6.035-15.145-8.455-.807-.372-1.6-.766-2.393-1.165-1.873-.94-3.782-1.797-5.691-2.661a262.91 262.91 0 0 1-1.622-.73c-.331-.153-.663-.3-.999-.453a29.996 29.996 0 0 1-1.797-.86c-.457-.243-.457-.243-1.147-.193Zm-73.271 3.782a82.671 82.671 0 0 1-4.736 1.451c-5.23 1.457-10.53 3.115-15.477 5.368-.659.292-1.318.578-1.981.86-.65.283-1.304.565-1.953.848-.323.143-.65.282-.973.416-.452.197-.905.395-1.358.596-.259.112-.524.229-.797.345-.618.31-.619.31-.825.83-.018.59.09.994.292 1.55.067.197.139.398.215.6.076.21.157.421.233.64a218.875 218.875 0 0 0 .941 2.554c.058.162.116.324.179.49a139.48 139.48 0 0 0 2.24 5.56c.776-.282 1.367-.573 1.994-1.102.95-.713 1.914-.87 3.088-.834.493.498.412 1.524.484 2.178l.95.108c.954.103.954.103 1.227.376-.022.368-.062.74-.107 1.102-.036.3-.036.3-.076.61-.018.152-.041.304-.059.466.399.237.798.48 1.21.726-.125 1.044-.291 1.944-.726 2.903.717.121.717.121 1.452.242.224 1.793-.909 2.989-1.918 4.365-.121.16-.237.322-.358.488a50.11 50.11 0 0 1-.731.977c-.596.829-.869 1.241-.855 2.285.242.874.492 1.734.775 2.59a78.829 78.829 0 0 1 1.443 5.108 29.043 29.043 0 0 0 1.16 3.545c1.3-.135 2.487-.372 3.733-.771 3.661-1.116 7.402-1.918 11.13-2.756 7.752-1.411 7.752-1.411 15.141-3.974a55.795 55.795 0 0 0-1.635-4.84c-.086-.224-.171-.443-.256-.672a139.965 139.965 0 0 0-1.183-2.998c-.995-2.455-1.828-4.955-2.644-7.474-.053-.174-.112-.345-.17-.524a209.048 209.048 0 0 1-3.535-12.228c-.054-.202-.103-.403-.157-.61a148.374 148.374 0 0 1-2.084-9.226c-.053-.264-.103-.533-.156-.806-.063-.345-.063-.345-.13-.695-.13-.636-.13-.636-.632-1.304-.829 0-1.6.368-2.375.637Zm-28.355 17.269a108.02 108.02 0 0 0-.47 1.725l-.135.47c-2.272 8.675-.376 19.188 2.299 27.567h.242c.022-3.258.004-6.51-.099-9.769-.013-.582-.031-1.165-.049-1.752a181.31 181.31 0 0 0-.085-2.657c-.032-.878-.054-1.756-.076-2.639-.009-.26-.023-.52-.036-.793-.032-1.703.291-2.948 1.026-4.49.282-.636.457-1.165.529-1.855a16.795 16.795 0 0 0-.892-1.757c-.184-.318-.363-.64-.542-.963-.086-.157-.175-.309-.265-.47-.461-.847-.833-1.73-1.205-2.617h-.242Zm120.741 3.63c.305 1.487 1 2.62 1.802 3.902.358.663.542 1.156.618 1.904-.081.162-.161.319-.242.485-.936-.314-1.044-.664-1.546-1.497-1.021-1.85-1.021-1.85-2.643-3.07a11.644 11.644 0 0 0-.408-.03c.103 1.38.659 2.204 1.434 3.297l.658.946c.099.138.193.277.296.416.56.865.757 1.295.757 2.357-.726-.318-1.169-.645-1.671-1.255l-.381-.452c-.188-.233-.188-.233-.385-.47-.251-.31-.507-.614-.762-.924-.112-.134-.224-.273-.341-.412-.362-.421-.363-.421-1.057-.842.166 1.38.883 2.424 1.649 3.553.152.229.309.457.466.695.224.322.224.322.452.654.386.762.399 1.268.337 2.115l-.726.242c-.059-.13-.117-.265-.179-.399-.386-.713-.856-1.304-1.367-1.931a64.622 64.622 0 0 0-.565-.704c-.502-.542-.842-.815-1.519-1.08.144 1.035.511 1.766 1.044 2.662l.435.74c.435.68.909 1.299 1.425 1.922.614.896.636 1.855.484 2.903-.265.757-.614 1.46-.968 2.178a149.83 149.83 0 0 1-2.451 5.314c-.152.323-.305.641-.457.964-.22.47-.444.94-.672 1.411l-.399.843c-.377.663-.377.663-1.102 1.147-1.152-.023-1.95-.346-2.98-.847-1.264-.596-2.388-.955-3.795-.847-1.533.555-2.537 1.76-3.643 2.917a26.645 26.645 0 0 1-1.64 1.523c-3.379 2.922-6.444 6.13-8.675 10.02-.462.784-.991 1.505-1.528 2.236-.242-.081-.48-.162-.726-.242-.314-.874-.242-1.215.107-2.098.166-.331.336-.663.511-.99l.273-.52c.964-1.828 2.035-3.481 3.437-5.005.318-.331.318-.331.269-.824h.484c.273-.26.551-.524.811-.798.699-.726 1.425-1.425 2.142-2.133.461-.38.461-.38.435-.699-2.51-.058-4.965.121-7.457.35-1.286.112-2.572.224-3.862.331-.363.032-.726.063-1.089.099-.529.049-1.057.094-1.586.134-.305.032-.61.059-.923.086-.928-.036-1.327-.153-2.021-.758-.672-1.326-.663-2.912-.789-4.373-.027-.282-.049-.56-.076-.851l-.242-2.684c-.076-.897-.157-1.797-.242-2.693l-.148-1.676-.067-.762c-.018-.224-.04-.444-.058-.672-.059-.6-.058-.6-.314-1.29-.824.026-.824.026-1.694.241-.658.847-.811 1.43-.73 2.487.013.251.031.502.049.757l.068.82.062.856.215 2.76c.05.637.099 1.269.144 1.9.322 4.204.676 8.398 1.08 12.596.125 1.291.242 2.586.349 3.881.022.228.04.461.063.699a71.55 71.55 0 0 1 .21 3.526c.005.242.014.484.023.735.018.461.027.918.036 1.376.035 1.223.107 2.155.851 3.176 1.228.986 2.698 1.596 4.14 2.192.202.085.404.165.61.255 5.301 2.151 10.23 2.37 15.575.215 1.73-.789 3.374-1.676 4.84-2.903 2.419-1.936 2.419-1.936 3.065-2.447 4.991-4.037 8.71-10.113 11.211-15.943.116-.278.237-.556.358-.838 1.689-4.328 2.205-9.024 2.68-13.613.658-6.228.658-6.228 1.877-8.764.515-1.183.852-2.088.421-3.352a40.418 40.418 0 0 0-1.707-3.195h-.484c-.062-.139-.121-.278-.184-.426-.345-.622-.734-1.04-1.268-1.51h-.484ZM192.18 70.9c-.408.31-.811.623-1.21.937l-.681.528c-.175.157-.35.31-.529.47v.485h-.484c-.381.52-.381.52-.744 1.165-.125.215-.255.43-.385.654-.444.825-.6 1.46-.596 2.384v.551c.018.574.018.574.152 1.134.117.632.153 1.214.162 1.855.004.237.009.47.009.717.004.25.004.506.009.766.009.547.013 1.093.022 1.64l.014.865c.152 11.14.443 20.02 8.132 28.677.202.233.408.466.619.708 1.165 1.322 1.165 1.322 2.527 2.438.582-1.676 1.035-3.361 1.465-5.081a180.353 180.353 0 0 1 2.241-7.954c.049-.175.103-.349.156-.529.888-2.926.888-2.926 1.251-3.795.251-.56.251-.56.21-1.272a24.96 24.96 0 0 0-3.571.725c-.157.045-.318.085-.484.13-.672.184-1.335.377-1.994.596-.565.01-1.129.01-1.694 0-.806-1.514-1.389-3.042-1.922-4.673-.126-.381-.125-.381-.251-.771a103.954 103.954 0 0 1-1.456-4.826c-.05-.175-.103-.354-.153-.538-.421-1.604-.64-3.038.063-4.579.601-.914 1.277-1.775 1.963-2.626.125-.152.246-.305.372-.466l.9-1.12c-.08-.161-.161-.318-.242-.484-1.304.936-1.304.936-2.482 2.025-.421.395-.421.395-1.389.395.072-1.484.789-2.272 1.707-3.357.139-.165.273-.336.417-.506.336-.408.676-.815 1.021-1.219-.08-.16-.161-.318-.242-.483-.161.13-.322.255-.488.39l-1.931 1.545c-.318.273-.318.273-.641.547-.569.421-.569.421-1.295.421.108-1.228.448-1.833 1.255-2.751a54.913 54.913 0 0 0 2.617-3.298c-.95.327-1.6.744-2.344 1.407-.188.161-.372.322-.564.488-.511.556-.731 1.022-.964 1.734l-1.21-.242c.139-1.008.471-1.666 1.026-2.509l.462-.699a72.386 72.386 0 0 1 1.658-2.357l-.484-.242Z" fill="#000" fill-opacity=".945"/><path d="M411.187 58.515c4.068-.215 8.347 1.51 11.39 4.158 2.299 2.268 3.128 4.589 3.159 7.833-.009.838-.049 1.555-.247 2.37-.13.695-.13.695.31 1.192.725.556 1.483 1.049 2.254 1.537 2.8 1.82 5.619 4.105 7.787 6.668v.484l.726.242c.345.372.345.372.708.847l.399.524c.139.188.278.372.421.564.139.189.283.377.43.574.923 1.232 1.824 2.473 2.639 3.782.157.246.31.493.471.743 1.671 2.662 2.899 5.306 3.961 8.25.139.372.282.74.43 1.107 4.633 11.731 3.437 26.266-1.447 37.702-.166.363-.341.717-.511 1.075-.13.278-.264.551-.399.838-1.613 3.356-3.437 6.636-5.874 9.468-.659.762-1.255 1.568-1.855 2.379l-.341.381h-.484c-.062.139-.121.278-.183.421-1.107 2.012-3.374 3.505-5.14 4.903-.345.282-.345.282-.69.573-2.335 1.887-4.893 3.334-7.537 4.75-.188.098-.372.201-.564.305-5.445 2.899-11.521 4.364-17.583 5.26l-.533.081c-1.815.24-3.648.219-5.472.222h-.537c-2.698-.001-5.31-.155-7.963-.688a51.72 51.72 0 0 0-1.434-.256c-2.505-.448-4.888-1.205-7.29-2.021-.166-.053-.327-.107-.493-.161-4.207-1.389-8.267-3.531-11.847-6.13a33.448 33.448 0 0 1-.637-.439c-2.76-1.931-5.65-4.234-7.832-6.82v-.484l-.726-.242a24.025 24.025 0 0 1-1.228-1.496 73.511 73.511 0 0 0-.354-.462c-.363-.475-.721-.954-1.08-1.429-.107-.139-.21-.278-.318-.417-4.293-5.677-7.089-12.009-8.635-18.941-.071-.304-.138-.609-.21-.923-2.832-12.757.089-26.343 7.053-37.285 1.254-1.931 2.626-3.773 4.046-5.588l.488-.636c.529-.636 1.098-1.205 1.69-1.783.183-.188.363-.377.551-.57 1.429-1.46 2.926-2.768 4.53-4.028.251-.201.502-.403.757-.605 6.368-5.05 14.025-8.294 21.988-9.8l.542-.107c2.061-.394 4.055-.636 6.157-.632h.493a62.14 62.14 0 0 1 2.419.032c1.672.04 1.672.04 3.047-.78.43-.614.78-1.236 1.134-1.9 2.048-2.724 4.66-4.037 8.03-4.539a77.37 77.37 0 0 0 1.434-.103Zm-7.636 6.927c-1.55 1.55-2.182 3.621-2.863 5.664-.197.578-.399 1.156-.605 1.73-1.452 4.167-3.285 9.683-1.506 14.034 1.188 2.366 3.294 4.042 5.467 5.471.112.112.224.224.341.336v.968c-1.313-.112-2.227-.3-3.388-.968-.089.305-.179.61-.273.923-.852 2.514-2.03 4.454-4.293 5.897-.69.264-1.264.224-1.999.197-.752-.04-.752-.04-1.42 0-1.228 1.228-.788 4.015-.788 5.637.035 3.527.143 7.981 2.316 10.938.964.901 1.833 1.291 3.15 1.394 3.71-.26 7.286-4.141 9.84-6.596.193-.188.193-.188.395-.377.394-.381.784-.766 1.178-1.151.116-.117.237-.233.358-.35.776-.77 1.363-1.559 1.941-2.478-.135-.139-.265-.282-.399-.425-.175-.189-.345-.377-.525-.574-.17-.184-.344-.367-.519-.56-1.398-1.752-1.385-3.298-1.219-5.458.224-1.747.475-3.584 1.452-5.081a12.955 12.955 0 0 1 1.676-.923c1.286-.627 2.361-1.295 3.463-2.21 1.183-.931 1.967-1.164 3.455-1.187.995-.058 1.501-.407 2.294-1.003.663-.767.932-1.277 1.134-2.268-.211-1.106-.681-1.514-1.515-2.236-.555-.927-.331-1.734-.103-2.755.251-.91.543-1.802.847-2.693 1.241-3.45 1.241-3.45.771-6.955-.533-.672-.945-.968-1.797-1.11-.394-.032-.394-.032-.797-.068a50.961 50.961 0 0 0-.883-.085l-1.828-.162c-3.72-.358-6.52-1.178-9.137-3.93h-.484v-.483c-.452-.386-.452-.386-1.03-.757l-.578-.395c-.82-.43-1.331-.421-2.129.05Zm-37.155 14.895c-.211.18-.417.363-.632.551a47.489 47.489 0 0 0-10.741 13.725c-.103.193-.206.385-.309.587-2.254 4.328-4.965 9.916-4.803 14.93.009.309.018.619.031.937.82-.811 1.613-1.64 2.388-2.496.211-.233.426-.466.645-.708.471-.529.937-1.066 1.399-1.604 2.159-2.469 4.494-4.678 7.183-6.565l.412-.29c7.635-5.31 15.544-4.612 24.268-3.097 1.362.25 2.72.52 4.073.82 2.805.73 2.805.73 5.534.313.731-.537 1.089-1.138 1.55-1.922l.489-.802c.86-1.443.86-1.443 1.151-3.047-.273-.564-.618-1.022-1.003-1.519-2.187-3.105-2.599-6.197-1.985-9.876a83.69 83.69 0 0 1 2.079-8.433c.26-.87.475-1.752.694-2.634-11.516-.274-23.73 3.275-32.423 11.13Zm57.83-2.662c-.152.413-.153.413-.305.834a23.425 23.425 0 0 1-.95 2.177c-.488 1.09-.717 2.102-.439 3.28.547.73.547.73 1.21 1.21.39.39.3.807.318 1.345-.027 1.554-.43 2.598-1.497 3.732-.949.87-1.828 1.658-3.167 1.72-1.528.077-2.371.543-3.536 1.506-1.066.852-2.079 1.564-3.325 2.133-.699.363-.887.672-1.142 1.416-.892 2.64-.892 2.64-.717 5.328 1.254 1.882 2.8 3.249 4.597 4.597.17.13.341.256.515.39l3.065 2.299c1.17.874 2.335 1.752 3.495 2.635l.489.367a41.224 41.224 0 0 1 2.917 2.46c.385.367.385.367.892.318v.484c.389.385.389.385.891.784.646.547 1.215 1.08 1.739 1.743.17.202.34.408.515.619h.484c.058.134.117.264.175.403.376.69.842 1.255 1.335 1.864 2.653 3.45 3.589 7.918 4.373 12.121.121.627.256 1.241.404 1.859.313 1.389.47 2.801.636 4.212.036.269.067.538.099.811.08.655.156 1.304.237 1.958 2.837-2.769 4.284-7.456 5.565-11.13.09-.251.18-.502.269-.762.542-1.626.901-3.275 1.228-4.956l.121-.627c1.496-8.088.551-16.718-2.344-24.385-.098-.269-.201-.533-.3-.806a42.463 42.463 0 0 0-.91-2.097c-.076-.166-.147-.332-.224-.502-1.743-3.894-3.75-7.398-6.55-10.629l-.767-.914c-.264-.318-.528-.632-.793-.945a27.275 27.275 0 0 0-1.344-1.528h-.484c-.121-.359-.121-.359-.242-.726-.533-.502-.533-.502-1.196-1.013-.242-.193-.48-.38-.726-.578-.247-.193-.489-.39-.74-.587l-.663-.556c-.309-.255-.309-.255-.623-.52-.183-.152-.367-.309-.555-.465-.655-.444-1.273-.664-2.03-.879Zm-53.233 20.326c2.017 1.003 4.105 1.734 6.233 2.464 3.388 1.17 6.73 2.456 10.069 3.755.255.103.51.202.779.305.229.089.457.179.695.269.524.192 1.035.345 1.581.466l.121-1.273.068-.712c.071-1.273.062-2.546.053-3.823-1.174-.197-2.347-.398-3.521-.596-.399-.062-.798-.13-1.197-.197a311.84 311.84 0 0 0-3.992-.659l-.502-.08c-2.2-.34-4.351-.48-6.578-.466-.435 0-.435 0-.874-.005-.417 0-.417 0-.838.005h-.748c-.681.018-.681.018-1.349.547Zm-4.615 1.362c-.363.192-.363.192-.735.385a16.19 16.19 0 0 0-1.909 1.398c-.309.215-.614.426-.923.636-.255.189-.511.377-.771.574v.484a1350.34 1350.34 0 0 1 6.05 2.42c.34.138.34.138.69.277 7.402 2.976 14.755 6.171 21.942 9.625.561.292.561.292 1.08.26l-.228-1.044-.126-.587c-.13-.582-.13-.582-.372-1.272a30.695 30.695 0 0 1-.13-1.237c-.022-.238-.044-.475-.062-.722l-.068-.748c-.022-.251-.04-.502-.067-.762-.053-.618-.107-1.236-.157-1.855a314.561 314.561 0 0 0-12.398-4.714 578.293 578.293 0 0 1-6.753-2.478c-.26-.098-.519-.192-.784-.29-.228-.086-.457-.171-.69-.26-.219-.081-.444-.162-.668-.243a90.61 90.61 0 0 1-.766-.286c-.936-.27-1.313-.023-2.155.439Zm-6.757 4.929v.484l-.431.188c-.967.529-1.639 1.384-2.383 2.186-.166.171-.332.345-.498.52-.237.256-.237.256-.479.511-.144.152-.287.309-.435.466-.412.538-.632 1.053-.856 1.694.829.314 1.663.627 2.496.936.256.099.511.193.78.296a1096.862 1096.862 0 0 0 6.887 2.55c2.155.797 2.155.797 3.177 1.25.65.331.65.331 1.223.26.471-.206.471-.206.937-.605.233-.166.233-.166.47-.332.359.121.359.121.726.242-.081.48-.161.959-.242 1.452 1.47.842 2.998 1.434 4.598 1.981 5.65 1.931 11.175 4.207 16.695 6.488.198.081.399.166.605.251 1.792.744 3.536 1.573 5.279 2.424 5.206 2.554 10.534 4.956 16.135 6.52.238-.48.48-.959.726-1.452h.726c.014.148.023.291.036.443.027.193.054.386.085.583l.067.582c.471.915 1.322 1.161 2.232 1.537.219.094.434.184.663.278.744.309 1.492.605 2.24.901l.816.327c1.725.681 3.459 1.344 5.202 1.985.793.296 1.577.618 2.357.945.358.148.358.148.721.301.466.192.932.389 1.398.591 1.192.502 2.245.856 3.54.964-.071-.968-.157-1.936-.242-2.904-.018-.17-.031-.345-.049-.52a87.078 87.078 0 0 0-.166-1.644c-.013-.175-.031-.35-.044-.529-.117-1.062-.328-1.77-.95-2.63-.534-.354-.534-.354-1.152-.596-.233-.099-.466-.197-.704-.301a88.576 88.576 0 0 1-1.429-.595c-2.025-.852-4.091-1.618-6.152-2.38-.332-.121-.659-.246-.99-.367-.668-.247-1.336-.498-2.008-.744a1162.087 1162.087 0 0 1-10.131-3.804 154.968 154.968 0 0 0-4.992-1.811c-1.635-.569-3.231-1.241-4.83-1.908a67.19 67.19 0 0 0-4.046-1.528c-1.645-.565-3.231-1.219-4.826-1.914a255.355 255.355 0 0 0-4.674-1.976c-.215-.089-.425-.179-.649-.269-.87-.358-1.744-.721-2.613-1.08a268.62 268.62 0 0 1-8.142-3.495c-.752-.336-1.51-.667-2.263-.999l-.819-.363c-.538-.242-1.08-.479-1.622-.717a84.482 84.482 0 0 1-4.226-1.998 24.611 24.611 0 0 0-1.909-.829c-1.308-.533-2.563-1.143-3.822-1.788-1.04-.623-1.04-.623-2.043-.058Zm53.232 3.871a70.437 70.437 0 0 0-1.393 1.604c-.126.148-.256.296-.386.453-.784.923-1.563 1.85-2.334 2.782.206.068.408.13.618.198 4.069 1.304 8.066 2.679 11.996 4.364 1.402.6 2.805 1.178 4.238 1.707l.838.314c.708.264.708.264 1.425-.049-1.545-1.457-3.109-2.796-4.821-4.051a101.436 101.436 0 0 1-2.214-1.68 190.703 190.703 0 0 0-4.082-3.07c-.192-.143-.389-.291-.591-.439-1.541-1.349-1.541-1.349-3.294-2.133Zm-59.524 3.146c-.923.882-1.711 1.81-2.482 2.827l-.327.426c-.856 1.12-1.093 1.626-1.062 3.038 1.483.784 2.984 1.371 4.566 1.936 2.554.932 5.01 2.016 7.461 3.19l.762.363c.336.161.336.161.676.327.578.278.578.278 1.295.233a19.97 19.97 0 0 0 1.044-1.559c.193-.309.386-.623.578-.932.094-.153.188-.305.282-.466.466-.744.977-1.461 1.484-2.178.3-.453.3-.453.242-1.156l-.534-.206c-3.159-1.232-6.318-2.469-9.45-3.773-.233-.094-.466-.193-.708-.291a54.228 54.228 0 0 1-3.827-1.779Zm51.562 4.714c-.945.77-1.949 1.335-3.025 1.904-.752.403-1.111.636-1.595 1.367a86.96 86.96 0 0 0 4.92 1.841c.475.166.955.327 1.43.493.739.251 1.474.507 2.213.757a166.89 166.89 0 0 1 9.276 3.46c.967.394 1.935.775 2.908 1.16a319.19 319.19 0 0 1 9.382 3.894c.157.072.319.139.48.211.403.174.802.354 1.205.533.614.278.614.278 1.336.233-.941-5.135-.941-5.135-3.666-9.468-.891-.583-1.783-.878-2.791-1.192a23.601 23.601 0 0 0-.552-.179 80.25 80.25 0 0 0-2.271-.699c-1.703-.498-3.365-1.089-5.028-1.712a93.353 93.353 0 0 1-6.394-2.59c-4.109-1.985-4.109-1.985-7.828-.013Zm-35.215 2.594c-.435.497-.744 1.008-1.067 1.582-.188.336-.188.336-.385.676l-.394.704c-.197.345-.198.345-.395.699-.528.932-1.053 1.859-1.523 2.823 5.224 2.263 10.66 4.051 16.028 5.941a1018.575 1018.575 0 0 1 21.477 7.851c.448.17.896.341 1.348.511.632.237 1.268.479 1.905.717.448.17.9.345 1.353.515 1.461.556 2.922 1.12 4.369 1.721.452.192.453.192.945.165.363-1.474.569-2.952.695-4.462l.054-.511c.049-.542.049-.543-.023-1.318-.672-.775-1.667-1.021-2.617-1.362a67.238 67.238 0 0 1-1.039-.381c-.188-.067-.377-.139-.574-.206-1.138-.426-2.276-.86-3.41-1.304-.219-.08-.439-.166-.663-.251-1.788-.694-3.513-1.496-5.247-2.316-1.34-.632-2.688-1.242-4.037-1.855l-1.56-.713a108.001 108.001 0 0 0-5.291-2.258c-.417-.175-.829-.35-1.242-.529-1.684-.703-3.396-1.335-5.108-1.976a506.176 506.176 0 0 1-5.614-2.137 218.382 218.382 0 0 0-5.458-2.044c-.251-.089-.251-.089-.511-.179-1.053-.461-1.053-.461-2.016-.103Zm-19.976 1.645c.26 6.38 2.164 12.483 5.081 18.147.914-.305 1.027-.614 1.528-1.42.148-.247.301-.489.453-.74.381-.645.739-1.295 1.089-1.953.802-1.502 1.72-2.926 2.639-4.36.609-.946 1.205-1.9 1.775-2.877.103-.17.206-.345.309-.524.264-.507.264-.507-.05-1.192-.466-.305-.466-.305-1.053-.551l-.667-.301c-.233-.103-.471-.206-.717-.313-.238-.108-.48-.215-.731-.327a82.063 82.063 0 0 0-5.144-2.062c-1.156-.416-2.289-.864-3.432-1.312-.569-.242-.569-.242-1.08-.215Zm15.244 6.291c-.34.349-.341.349-.592.838-.103.179-.201.358-.309.542a30.862 30.862 0 0 1-.623 1.12c-.201.363-.407.726-.604 1.089-.193.34-.39.681-.592 1.012-.242.39-.457.798-.667 1.206.08.237.156.479.241.726.574.278.574.278 1.291.488.269.085.542.175.82.265.291.089.582.183.883.273.6.197 1.205.39 1.805.587.296.094.596.193.901.291 1.084.359 2.155.748 3.222 1.152 1.546.582 3.101 1.12 4.673 1.631 4.024 1.322 7.967 2.85 11.879 4.467 1.228.506 2.451.99 3.697 1.447 5.48 2.026 10.79 4.437 16.086 6.897 2.232 1.241 2.232 1.241 4.589 1.859.672-2.491 1.169-4.933 1.451-7.501-.313-.224-.622-.448-.941-.668l-.524-.371c-1.003-.578-2.057-.968-3.132-1.381-.542-.21-1.084-.425-1.622-.636-.61-.237-1.219-.475-1.828-.708-.161-.063-.323-.125-.489-.192a496.979 496.979 0 0 0-10.032-3.742c-.896-.327-1.788-.654-2.684-.986a279.023 279.023 0 0 0-5.633-2.021 431.01 431.01 0 0 1-5.713-2.038 270.219 270.219 0 0 0-4.073-1.439 204.003 204.003 0 0 1-6.385-2.334 45.827 45.827 0 0 1-.82-.31l-.776-.295c-.224-.09-.452-.175-.685-.265-.636-.277-.636-.277-1.264-.676-.613-.408-.613-.408-1.55-.327Zm-4.584 8.11c-.636.766-1.039 1.577-1.465 2.473l-.484.995c-.081.166-.157.332-.238.498-.17.349-.349.694-.533 1.035l-.273.519c-.085.153-.17.305-.255.462-.22.475-.22.475.089 1.152a24.79 24.79 0 0 0 2.021.743c.444.153.892.301 1.335.453l.726.242c1.317.443 2.626.914 3.939 1.376.278.098.551.197.838.3 6.094 2.16 12.165 4.328 18.102 6.887a85.637 85.637 0 0 0 4.956 1.954c1.008.376 1.976.828 2.953 1.281 1.138.515 2.294.986 3.45 1.461 1.873.779 3.746 1.564 5.61 2.361.202.085.404.175.614.26 1.148.493 2.294.999 3.433 1.51.251.117.506.229.766.345.493.22.986.439 1.474.663.22.099.444.202.672.301.193.089.39.179.592.268.609.184.918.13 1.51-.08.045-.274.094-.542.139-.825.067-.363.13-.73.192-1.098.032-.188.068-.376.099-.569.17-.967.354-1.922.582-2.876.26-1.183.26-1.183.198-2.375-1.103-.82-2.456-1.25-3.724-1.757a96.533 96.533 0 0 1-5.498-2.401c-1.573-.744-3.177-1.407-4.777-2.084-.932-.399-1.859-.802-2.782-1.214a76.111 76.111 0 0 0-4.656-1.882c-1.398-.516-2.773-1.085-4.154-1.658a97.364 97.364 0 0 0-5.753-2.169 123.867 123.867 0 0 1-4.346-1.595 155.33 155.33 0 0 0-4.992-1.828 321.4 321.4 0 0 1-5.409-1.927 39.68 39.68 0 0 1-3.284-1.385c-.708-.278-1.057-.291-1.667.184Zm55.639 2.294c-.515.516-.426 1.569-.502 2.285-.018.198-.04.395-.063.596a29.6 29.6 0 0 0-.161 4.136c1.537.533 3.083.986 4.656 1.407.47.126.941.256 1.416.381.237.067.475.13.717.197a317.257 317.257 0 0 1 3.956 1.094c1.586.457 3.132.99 4.66 1.604.883.34.883.34 1.806.282.645-.529 1.188-1.125 1.721-1.761.112-.121.224-.246.336-.372.762-.905.865-1.434.815-2.59a242.51 242.51 0 0 0-6.17-2.496 478.72 478.72 0 0 1-5.538-2.191c-3.733-1.626-3.733-1.626-7.649-2.572Zm-57.104 7.501c.367.847.869 1.439 1.496 2.115a93.476 93.476 0 0 1 2.012 2.254c.95 1.093 1.936 2.173 3.025 3.132h.484v.484c8.787 8.469 21.351 11.856 33.279 11.664a70.428 70.428 0 0 0 4.105-.26c.21-.022.417-.04.632-.058 1.102-.112 2.079-.296 3.118-.699-.685-.457-1.299-.74-2.057-1.044-.268-.112-.537-.22-.811-.332-.286-.116-.573-.228-.869-.349-.291-.117-.587-.238-.891-.359-.874-.354-1.753-.708-2.631-1.062-.457-.184-.914-.372-1.375-.556a210.404 210.404 0 0 0-5.834-2.262c-1.398-.52-2.774-1.089-4.15-1.658a93.283 93.283 0 0 0-5.39-2.053 53.614 53.614 0 0 1-3.581-1.389c-.949-.407-1.908-.788-2.872-1.169-.873-.35-1.747-.699-2.617-1.053a124.362 124.362 0 0 0-6.703-2.523 127.573 127.573 0 0 1-5.233-1.958c-1.045-.408-2.012-.735-3.137-.865Zm56.378 1.936c-.668.668-.694 1.376-.838 2.272-.031.183-.063.363-.094.551a175.352 175.352 0 0 0-.851 5.946l-.242 1.851c-.054.394-.103.793-.157 1.187-.023.184-.049.363-.072.551-.116.887-.192 1.748-.166 2.644a20.15 20.15 0 0 0 4.02-1.362c.192-.085.381-.171.578-.26 4.351-1.999 9.598-4.934 12.824-8.541v-.484c-1.205-.39-2.411-.784-3.612-1.174-.407-.134-.815-.264-1.223-.398-1.375-.444-2.747-.892-4.118-1.331-.188-.059-.372-.121-.564-.184-.529-.166-1.058-.336-1.586-.502-.453-.143-.453-.143-.915-.291-1.017-.296-1.926-.457-2.984-.475Z" fill="#000" fill-opacity=".855"/><path d="M79.997 74.413c1.613 1.268 3.203 1.515 5.233 1.734.668.09 1.335.184 2.003.283l.498.067c7.926 1.138 15.024 5.53 21.212 10.373.228.175.461.35.699.524.251.22.251.22.511.444v.484c.13.054.26.108.399.161.761.43 1.335 1.017 1.944 1.64.126.13.256.26.39.39 9.531 9.782 14.079 23.032 14.034 36.546-.219 12.103-4.49 23.905-12.837 32.787a36.475 36.475 0 0 0-1.345 1.536c-5.027 5.76-12.17 9.966-19.28 12.596-.328.129-.328.129-.655.26-12.072 4.683-25.64 3.529-37.326-1.611-2.016-.941-3.93-2.071-5.816-3.246-.148-.091-.296-.181-.444-.274-3.18-1.978-6.058-4.395-8.75-6.985a42.77 42.77 0 0 1-.44-.421c-8.98-8.613-14.15-20.693-14.455-33.114-.143-8.523 1.434-16.283 4.974-24.053.067-.157.139-.309.21-.471 1.958-4.279 4.925-8.814 8.397-12.017.372-.328.372-.328.587-.82h.484c.059-.14.117-.278.175-.422.954-1.698 2.935-2.908 4.45-4.1l.439-.345a35.222 35.222 0 0 1 2.375-1.698c.882-.65.985-1.232 1.142-2.29.538-2.473 2.886-4.852 4.817-6.358 1.766-1.13 3.558-1.743 5.642-1.954 1.46-.152 2.312-.466 3.468-1.353.744-.551 1.537-.815 2.415-1.08.152-.045.305-.094.466-.143 4.848-1.34 10.53-.332 14.384 2.93Zm-20.173 4.23c-.95 1.246-1.815 2.554-2.662 3.872-.116.174-.228.35-.35.533-.107.17-.219.345-.335.524l-.305.475c-.26.399-.26.399-.22.887l-.968-.242c-.116-1.46.215-2.352.905-3.63.086-.16.17-.326.256-.492a82.193 82.193 0 0 1 1.743-3.137c-1.904.144-3.401 1.277-4.678 2.63-2.08 2.653-2.805 5.951-2.47 9.254.252 1.85.543 3.696.857 5.538-.977-.735-1.42-1.313-1.936-2.42-.161-.08-.323-.16-.484-.242-.618 2.236-.632 5.073.345 7.183 1.636 2.716 4.136 3.876 6.914 5.158-.116.927-.22 1.752-.623 2.599-.47 1.209-.56 2.41-.345 3.692.533.762.883 1.093 1.752 1.407.784.054 1.555.049 2.34.031.506.014.506.014 1.231.256.166.322.328.645.485.968.81.542 1.106.551 2.056.542.233.004.462.004.704.004.68-.018.68-.018 1.353-.546.04-.915-.063-1.605-.484-2.42a12.776 12.776 0 0 0-1.725-.999c-3.128-1.501-4.463-3.594-5.776-6.744-.13-.394-.255-.793-.363-1.197-.327-1.115-1.044-1.783-1.828-2.616-1.13-1.304-1.654-2.787-1.555-4.517.533-2.863 3.007-4.92 4.956-6.914 2.733-2.805 4.476-6.022 5.807-9.679.08-.161.157-.318.242-.484.753-.076 1.102-.076 1.725.372.255.251.256.251.511.507 2.783 2.585 5.879 3.683 9.62 4.203l-.242.726c-.743.286-.743.286-1.451.484 0 .707 0 .707.242 1.451.658.381.658.381 1.478.592 1.77.614 2.819 1.245 3.675 2.935.905 2.236.896 3.88-.032 6.09-.282.546-.282.546-.658.976-.449.686-.435 1.098-.426 1.909v1.685c-.04 2.536-.359 4.62-1.309 6.967-.304.852-.434 1.421-.309 2.317.811.542 1.183.538 2.129.39 1.08-.3 2.11-.86 2.769-1.779.255-.762.17-1.385.09-2.182l-.081-.856c-.032-.323-.032-.323-.067-.654.143-.041.29-.081.439-.126 1.129-.34 1.958-.6 2.706-1.568.377-.753.31-1.344.242-2.178-.452-.82-.453-.82-.968-1.451-1.062.188-1.756.761-2.608 1.384-.537.309-.537.309-1.505.309.013-.529.013-.529.242-1.21a38.87 38.87 0 0 1 1.214-.846c2.102-1.6 3.352-4.365 3.867-6.897.538-4.503-1.335-8.464-4.037-11.919-3.038-3.49-6.856-5.48-11.435-6.08-4.306-.188-7.972 1.94-10.66 5.175Zm25.406 1.21c.336.874.713 1.72 1.102 2.568 1.712 3.786 2.313 7.949.834 11.95-.318.65-.65 1.277-1.017 1.9-.256.515-.256.515-.018 1.026.264.399.538.793.806 1.188.834 1.285.87 2.612.713 4.113-.27.887-.641 1.501-1.448 1.972-.255.134-.255.134-.52.264-.654.367-.89.52-1.12 1.25-.062.457-.116.914-.174 1.371-.247 1.362-.928 2.622-2.026 3.477-1.142.619-2.397.879-3.665 1.103.278 1.053.278 1.053.937 1.891 2.661 1.487 6.707.044 9.495-.574 7.527-1.626 14.141-1.004 20.768 3.029 4.405 2.935 8.644 6.47 12.255 10.342.323.367.323.367.825.314 1.604-4.979-.582-11.722-2.178-16.454-.103-.309-.201-.623-.304-.932-.69-2.052-1.6-3.925-2.599-5.843-.157-.318-.314-.636-.466-.95a34.374 34.374 0 0 0-1.622-2.845 55.492 55.492 0 0 0-.319-.507c-1.527-2.402-3.266-4.866-5.336-6.829h-.484l-.179-.42c-.941-1.681-2.899-2.891-4.405-4.07l-.408-.327c-.797-.622-.797-.623-1.783-.748v-.484c-.354-.278-.354-.278-.816-.533-.174-.103-.345-.202-.524-.31-.188-.107-.376-.21-.569-.322-.188-.107-.376-.22-.574-.331a284.56 284.56 0 0 0-1.63-.924l-.668-.376c-1.716-.91-3.558-1.496-5.39-2.12-.633-.219-1.255-.456-1.883-.694-1.832-.668-3.647-1.223-5.61-1.165ZM67.083 81.79c-.242 1.595-.48 3.195-.726 4.84h-1.452l-.242-3.146a55.2 55.2 0 0 0-1.922 2.527 32.476 32.476 0 0 1-1.708 2.204c-.537.53-.537.53-.483 1.076.138.022.277.05.425.072 1.277.246 2.142.591 3.204 1.38.18.076.358.147.542.228.605.363.69.811.91 1.465.282.336.282.337 1.07.274.825.031.825.031 1.35-.274.076-.448.134-.896.179-1.344.278-1.774.882-2.827 2.307-3.92a38.275 38.275 0 0 1 1.627-1.027c.237-.161.48-.318.726-.484-.22-.694-.363-1.115-.95-1.563l-.565-.287-.614-.314c-.21-.103-.42-.21-.64-.318l-.641-.327c-.793-.399-1.55-.78-2.397-1.062Zm3.63 7.985c-.601 1.075-.646 2.186-.485 3.387.417 1.286 1.022 2.165 2.178 2.904 1.353.453 2.827.412 4.19 0 1.218-.91 2.11-1.976 2.37-3.509.054-1.192-.264-2.088-.995-3.024-1.268-1.152-2.28-1.793-4.006-1.78-1.313.19-2.374 1.063-3.253 2.022Zm-26.89 3.114-.498.488c-.148.153-.3.305-.457.462-.139.139-.273.278-.412.417-.35.345-.35.345-.296.842h-.484c-.425.48-.82.959-1.21 1.465l-.358.466c-7.662 10.024-11.753 22.463-10.109 35.09 1.008 7.107 3.441 14.979 7.806 20.809h.484c.112-.618.22-1.241.331-1.859.032-.189.067-.377.103-.574a85.09 85.09 0 0 0 .502-3.208c1.16-7.595 4.387-15.096 10.584-19.918 2.953-2.101 6.18-3.786 9.374-5.48 3.526-1.752 3.526-1.752 6.206-4.53.228-.668.228-.668.242-1.21l-.834.256c-1.138.277-2.15.331-3.28-.014-.542-.331-1.017-.703-1.51-1.107-.806-.654-1.416-.829-2.455-.829-1.313 0-2.223-.197-3.249-1.044-1.29-1.586-1.124-3.289-1.012-5.247.116-.82.277-1.617.484-2.419a46.19 46.19 0 0 0-.57-.31c-3.132-1.765-5.404-3.66-6.447-7.191-.574-2.828.058-5.395 1.21-7.985.16-.404.322-.807.483-1.21-1.393 0-3.688 2.908-4.629 3.84Zm12.474-.287c-.954 1.264-1.205 2.353-1.07 3.948.501 1.465 1.218 2.397 2.607 3.132 1.26.556 2.353.618 3.683.255 1.331-.69 2.42-1.698 2.904-3.145.251-1.757-.193-3.155-1.21-4.598-.896-.927-1.882-1.035-3.132-1.088-1.532.058-2.715.349-3.782 1.496Zm10.786 2.496a37.28 37.28 0 0 0-.045 1.873l-.01.529c-.004.99.014 1.819.539 2.679.52.301.52.301 1.115.439.202.054.4.112.6.171.153.04.305.076.462.116-.08.48-.161.959-.242 1.452-1.008.058-1.908.09-2.876-.229-.771-.748-.973-1.648-1.237-2.675-.103.094-.206.193-.314.292-1.922 1.738-3.692 2.047-6.22 2.37l.485 1.21c.058.152.12.3.179.457.838 1.855 2.191 3.656 4.082 4.503 1.344.453 2.747.587 4.154.726.78.121.78.121 1.505.605l-.242.968c-.959.237-.959.237-1.935.484.04.273.085.551.13.833.367 2.568.712 5.22-.767 7.524-.676.806-1.42 1.429-2.267 2.047.135 1.237.421 2.33.874 3.495.067.166.13.332.197.502 1.084 2.805 2.344 5.53 3.63 8.245.26.565.515 1.138.757 1.707.278.641.56 1.264.878 1.887.143.282.287.569.44.86a26.92 26.92 0 0 0 4.668-.762c.206-.049.408-.103.618-.152.43-.108.86-.22 1.291-.327.645-.166 1.295-.327 1.94-.488 3.746-.659 3.746-.659 6.923-2.357.457-.816.197-1.578.014-2.447-.032-.166-.063-.336-.099-.506a54.382 54.382 0 0 0-.708-3.07 91.062 91.062 0 0 1-.995-4.516c-.076-.395-.076-.395-.156-.798-.319-1.609-.6-3.208-.78-4.839-.162-.659-.3-.892-.86-1.273-.655-.139-.655-.139-1.376-.197-1.842-.269-2.97-1.049-4.114-2.496-1.411-2.182-2.168-4.378-1.77-6.986.26-.824.57-1.608.906-2.406.775-1.891.999-3.809.546-5.82-.64-.319-1.178-.225-1.882-.189-1.72.068-3.047.09-4.445-1.04-.658-.685-1.21-1.424-1.73-2.217-.39-.493-.39-.493-1.052-.502-.56.018-.56.018-.811.318Zm25.406 19.841c.126 1.802.574 3.365 1.165 5.068.08.247.166.493.251.748 1.94 5.705 4.544 10.728 8.263 15.477.179.229.358.457.542.695a39.712 39.712 0 0 0 3.298 3.634c.623.623 1.192 1.281 1.765 1.949.691.775 1.434 1.497 2.178 2.218.444.457.444.457.686.941h.484c.053.13.112.255.165.385.422.771.955 1.439 1.497 2.124.78.995 1.519 1.994 2.209 3.056.972-.851 1.519-1.846 2.133-2.966.103-.193.211-.385.318-.583 2.613-4.83 5.763-11.645 5.292-17.26-.314-.717-.314-.717-.968-1.21l-.372-.327a90.982 90.982 0 0 0-.936-.815 71.857 71.857 0 0 1-1.927-1.77 76.368 76.368 0 0 0-4.992-4.347 78.657 78.657 0 0 0-.582-.484c-4.714-3.902-10.485-7.057-16.718-7.061-.202-.005-.404-.005-.61-.009-1.147-.005-2.065.094-3.14.537Zm-5.023.834c-.166.036-.336.071-.51.107-.413.085-.83.18-1.242.269.067 1.568.31 3.07.663 4.597.453 1.941.834 3.894 1.197 5.852.076.422.076.422.157.852 1.142 6.237 1.142 6.237.22 7.815-2.093 1.29-4.365 1.913-6.731 2.509-.69.179-1.38.376-2.066.573-2.42.686-4.826 1.367-7.326 1.681-.175.027-.35.049-.529.076-.775.076-1.192.098-1.806-.399-.528-.636-.829-1.223-1.156-1.98l-.367-.843c-.184-.435-.184-.435-.376-.878-.242-.565-.489-1.134-.735-1.698-.126-.283-.247-.565-.372-.852a128.589 128.589 0 0 0-1.51-3.284c-.417-.946-.73-1.909-1.04-2.89-.345-1.031-.77-2.026-1.2-3.025-.252-.605-.252-.605-.494-1.331-1.47.076-2.742.784-3.871 1.694-.3.775-.22 1.232.063 2.003.067.197.139.394.215.6.076.206.157.417.233.632l.237.659c.291.806.592 1.608.887 2.411 3.688 9.992 3.231 19.55.032 29.627-.274 1.08-.386 2.142-.489 3.253-.022.206-.04.412-.062.627-.3 2.771-.3 2.771.336 5.436 1.24.84 2.464 1.254 3.916 1.603l.645.155c6.385 1.465 13.703 1.47 20.12.178l.69-.138c4.946-1.031 9.79-2.711 14.07-5.428.68-.372 1.37-.739 2.06-1.098.659-.389 1.219-.837 1.811-1.321.224-.166.448-.332.676-.507 3.321-2.473 6.283-5.327 9.002-8.446.224-.256.224-.256.457-.511.314-.439.314-.439.234-.928-1.403-3.351-4.356-6.138-6.906-8.634-.779-.798-1.474-1.658-2.173-2.532a67.99 67.99 0 0 0-1.541-1.85c-6.372-7.434-10.27-15.222-12.574-24.744-.972-.381-1.864-.112-2.845.108Zm-32.625 11.135c-.17.125-.336.255-.51.385-.18.143-.36.282-.543.426l-.556.434c-7.173 5.628-10.62 12.533-11.74 21.544a61.472 61.472 0 0 0-.264 3.155c-.036.52-.08 1.039-.125 1.564-.104 1.797-.103 1.797.708 3.338.354.332.712.659 1.075.981.273.283.547.565.816.847 1.787 1.855 3.589 3.5 5.717 4.961.269.197.269.197.542.394 1.336.941 2.774 1.653 4.24 2.361.783.39.783.39 1.46.803.497.354.497.354 1.017.313.229-.691.273-1.149.296-1.869.134-3.338.654-6.389 1.5-9.611.077-.282.077-.282.153-.569.05-.184.099-.372.148-.565.099-.367.193-.735.291-1.102l.14-.533c.523-2.008.864-4.02 1.102-6.076l.094-.78c.063-.627.112-1.25.148-1.882l.026-.551c.17-6.354-1.998-12.681-4.14-18.564-.824 0-.963.112-1.595.596Z" fill="#000" fill-opacity=".867"/><path d="M423.742 224.065c.946.359 1.949.759 2.42 1.694l.672-.043c2.908-.107 2.908-.107 4.252.988.453.354.453.354 1.367.265l.421-.257c.847-.353 1.622-.212 2.483.015a7.466 7.466 0 0 1 2.903 2.662c.175.591.215 1.07.242 1.693l.739-.045c1.295.061 2.205.423 3.222 1.225.444.581.556 1.002.637 1.724h.484v.484l.725.242c.22.396.22.396.421.893.538 1.141 1.255 1.742 2.254 2.479.332.254.659.507.986.761.314.236.623.471.937.706 5.923 4.528 10.799 10.438 13.55 17.422.098.248.193.496.296.751 4.109 10.951 3.844 22.995-.874 33.717-1.586 3.455-3.518 6.653-5.955 9.57l-.354.426c-5.444 6.555-12.269 11.55-20.455 14.092l-.856.277c-3.249.997-6.641 1.513-10.033 1.659l-.614.03c-8.85.219-17.726-2.656-25.034-7.531l-.471-.312a38.606 38.606 0 0 1-5.444-4.403c-.26-.254-.524-.506-.789-.756a39.21 39.21 0 0 1-5.637-6.628c-.233-.335-.233-.335-.466-.676-3.445-5.214-5.663-10.998-6.309-17.229-.027-.25-.054-.498-.08-.755-1.053-11.393 1.671-23.986 9.087-32.969a84.397 84.397 0 0 1 1.64-1.846l.582-.671a29.363 29.363 0 0 1 3.531-3.442c.188-.157.377-.313.574-.474 2.527-2.058 5.229-4.103 8.285-5.288.47-.199.47-.199.82-.529.188-.591.26-1.16.336-1.775.3-1.34 1.228-2.342 2.29-3.173 1.317-.775 2.657-.716 4.149-.617l.108-.443c.295-1.053.474-1.614 1.326-2.34 1.281-.627 2.473-.751 3.889-.605.408.144.82.295 1.224.454.748.255 1.035.347 1.76.005.489-.371.928-.764 1.372-1.185 1.021-.511 2.276-.366 3.387-.242Zm-29.52 20.567-.582.543c-6.865 6.588-10.759 16.638-11.032 26.074-.009.275-.023.551-.032.835-.103 5.82.709 12.343 3.419 17.554.731-.156.731-.156.955-.623.071-.168.139-.337.21-.511l.247-.599.282-.686c6.076-14.619 6.076-14.619 11.812-17.211 4.023-1.609 8.088-2.014 12.412-1.542 1.317.132 2.63.174 3.947.196l.646.022c1.183.013 1.183.013 2.249-.446.565-.901.865-1.844 1.174-2.857.067-.203.13-.407.197-.616.161-.5.314-1.001.471-1.501-.628-.51-1.242-.987-1.923-1.422-2.021-1.402-3.033-3.091-3.535-5.516-.125-.937-.139-1.857-.135-2.799.005-.279.005-.279.005-.564 0-.589.004-1.178.004-1.767.005-.402.005-.803.005-1.204l.013-2.94-.47-.186c-.197-.084-.399-.167-.605-.253l-.605-.246c-.497-.283-.497-.283-.739-1.009-.067-.74-.108-1.481-.153-2.223-.045-.729-.044-.729-.573-1.406-.323.08-.641.159-.968.242.04.137.085.275.13.417.399 1.44.264 2.076-.372 3.454.049 1.037.148 1.554.726 2.42.089.695.089.695 0 1.452-.17.199-.341.399-.515.605-.148.199-.301.399-.453.605.148.741.385 1.287.771 1.935.295.735.143 1.162-.045 1.936-.354.799-.766 1.562-1.183 2.329l-.327.62c-.802 1.506-.802 1.506-1.295 2.162-.39.519-.56.986-.748 1.604a58.81 58.81 0 0 0-.189.586c-.04.145-.085.291-.129.442-1.394.242-1.394.242-1.936.242.103-1.122.183-1.638.968-2.42-.054-.59-.211-1.106-.395-1.667-.277-.914-.381-1.335-.062-2.265.43-.626.86-1.128 1.425-1.633-.238-.21-.471-.419-.713-.635-.726-.735-.981-1.206-.981-2.269.107-.492.237-.966.39-1.445.121-.65.067-1.075-.148-1.7-.448-.346-.448-.346-1.013-.575-1.286-.645-2.214-1.518-2.859-2.813-.188-1.791.054-3.65.726-5.323l.726-.242c.251-.758.224-.966 0-1.694-3.132 0-6.981 4.42-9.195 6.533Zm50.087-3.387c-.022.134-.044.269-.062.408-.197 1.064-.431 1.861-1.058 2.752-.56.823-.641 1.361-.573 2.371-.005 1.373-.453 2.723-1.394 3.724-.627.612-.627.612-.497 1.361.062.25.13.499.197.756.107 1.658.013 3.495-1.12 4.809-.292.273-.592.542-.892.808-.466.494-.672.936-.923 1.567-.394.963-.704 1.52-1.663 2.011-1.407.224-2.397-.003-3.629-.726h-.484c-1.757 2.024-2.379 4.04-2.756 6.624-.022.17-.049.34-.076.515-.148.914-.148.914.224 1.715.48.382.923.597 1.492.828.215.088.43.175.646.265l.694.276.722.291a88.599 88.599 0 0 0 4.709 1.72c3.011 1.024 6.022 2.267 8.379 4.462.144.132.287.264.439.4 4.553 4.644 5.592 13.153 6.224 19.296.054.666.054.666.596 1.113 5.431-6.953 7.77-15.943 7.743-24.681v-.582c-.018-5.21-1.34-10.144-3.387-14.903l-.233-.545c-1.797-4.223-4.316-8.052-7.269-11.554l-.604-.723c-1.443-1.668-3.298-3.642-5.445-4.358Zm-21.051 3.629c-.166.312-.322.625-.484.938a54.87 54.87 0 0 1-.273.527c-.247.459-.246.459-.211.955-.403.169-.806.329-1.209.484l-.803.348c-1.12.17-1.496-.098-2.392-.721a11.988 11.988 0 0 1-1.161-1.079c-.479 4.028-.878 9.168 1.595 12.644 1.058 1.263 2.232 2.151 3.728 2.842.059 1.423-.103 2.553-.546 3.902-.05.164-.099.327-.148.496-.547 1.703-1.322 2.922-2.877 3.837-.883.382-1.765.452-2.72.476.135 1.105.435 1.964.923 2.964.44.924.861 1.84 1.224 2.797a37.244 37.244 0 0 0 3.661 7.063c.806-.145 1.258-.416 1.872-.953.148-.127.296-.254.453-.384.39-.334.39-.334.336-.841l.426-.186c.6-.33.977-.695 1.447-1.19a26.77 26.77 0 0 1 1.905-1.8c.999-.86 1.94-1.779 2.876-2.706.153-.151.305-.302.466-.458l.435-.432c.125-.129.255-.257.39-.39.331-.327.331-.327.282-.822l-.461-.17c-3.316-1.263-3.316-1.263-4.199-2.402-.278-.885-.13-1.727-.013-2.631.022-.195.049-.389.071-.59.076-.57.162-1.139.247-1.708.036-.277.076-.554.116-.839.332-1.718 1.044-2.75 2.2-4.045.802-.936 1.448-1.956 2.102-2.996.582-.819 1.039-1.045 2.007-1.3.892-.18.892-.18 1.317-.983.139-.726.139-.726 0-1.452-.591-.456-1.169-.709-1.859-.983-.78-.652-.784-1.253-.932-2.231-.17-.983-.502-1.899-.838-2.835l-.43-.03c-1.443-.183-2.254-.6-3.365-1.543-1.649-1.339-3.088-1.485-5.158-1.573Zm-17.063 25.412c-3.419.047-6.367.941-8.827 3.382-1.909 2.033-5.081 6.063-5.081 8.953l.483.14c.749.215 1.493.431 2.236.647l.807.233c1.564.455 3.105.929 4.633 1.49.61.168 1.134.18 1.761.152.094-.201.193-.402.291-.61.13-.263.256-.526.39-.797l.381-.791c.336-.608.623-.963 1.116-1.432v-.484h.968c-.251.726-.507 1.452-.758 2.178-.076.22-.152.44-.233.666a121.327 121.327 0 0 1-1.295 3.549c-1.12 2.918-1.962 5.319-1.648 8.479.219 3.064-1.197 5.442-2.976 7.818a3.564 3.564 0 0 0-.591 1.507c3.051 2.252 6.152 4.365 9.678 5.807l.699.299c3.464 1.413 6.914 2.173 10.629 2.574l.874.098c2.877.278 5.677.019 8.531-.4l.655-.096c2.312-.297 2.312-.297 4.503-1.023.278-.834.305-1.535.345-2.415l.054-1.067.027-.573a412.866 412.866 0 0 1 .707-11.512c.283-4.047.283-4.047.803-5.968l.967.242c.009.216.023.432.036.654l.054.858c.027.421.027.421.049.851.099.74.175 1.142.587 1.751.484.162.484.162 1.058.166l.668.041.721.034a62.62 62.62 0 0 1 6.95.869c1.384.247 2.755.444 4.153.583-.349-6.03-1.545-13.704-6.049-18.147-1.801-1.583-3.826-2.549-6.049-3.388l-.488-.184a929.284 929.284 0 0 0-3.383-1.268c-1.672 1.398-3.195 2.929-4.719 4.477-3.934 3.985-3.934 3.985-6.022 5.414-.197.139-.399.278-.609.421-.87.574-1.398.619-2.442.577l-.726-.242a23.277 23.277 0 0 1-.484-1.21c-.233-.385-.466-.771-.708-1.151-2.07-3.272-3.589-6.785-4.651-10.505a37.87 37.87 0 0 0-.449-1.41c-.64-.319-1.12-.273-1.832-.274l-.834-.002c-1.653.007-3.307.025-4.96.039Zm-15.118 14.029c-.148.337-.292.673-.435 1.01-.094.214-.184.428-.278.649-.201.469-.403.937-.6 1.405-.852 2.003-.852 2.003-1.304 2.925-.726 1.495-.726 1.495-.592 3.1.888 1.98 2.214 4.075 3.693 5.671h.484l.161.393c.43.771 1.008 1.384 1.608 2.027.112.126.229.252.345.381a16.8 16.8 0 0 0 2.241 2.038c.125-.265.255-.531.39-.804.17-.352.345-.704.515-1.056.085-.174.17-.349.255-.529a14.2 14.2 0 0 1 1.743-2.692c.278-.802.251-1.53.216-2.373-.166-5.504-.166-5.504 1.16-7.91.39-.635.39-.635.318-1.573l-.752-.178c-1.766-.424-3.473-.881-5.167-1.529-1.326-.496-2.581-.955-4.001-.955Zm45.731 12.824c-1.353 3.288-1.003 7.145-.985 10.647.004.402.004.804.004 1.206l.013 2.907c1.614-.558 3.164-1.156 4.674-1.966.17-.093.345-.185.524-.281 1.766-.964 3.366-2.104 4.965-3.318l.65-.487c.986-.747 1.895-1.507 2.738-2.417.125-.132.255-.264.385-.4.816-.881 1.282-1.495 1.308-2.745a30.409 30.409 0 0 0-.242-.968 533.15 533.15 0 0 1-3.145-.484l-.686-.106c-5.578-.869-5.578-.869-8.294-1.463a8.657 8.657 0 0 0-1.909-.125Z" fill="#000" fill-opacity=".902"/><path d="M170.631 351.307h4.472c2.505-.001 5.01 0 7.515.001h8.576l7.465-.001h4.414c9.911-.005 19.814.121 29.721.458 8.505.289 17.005.393 25.514.429 1.994.008 3.984.02 5.973.031 3.572.02 7.143.04 10.714.057l.641.003 4.481.023 5.112.025.637.003c3.562.018 7.12.037 10.682.057 1.976.012 3.952.022 5.924.031 8.294.035 16.584.129 24.873.363l.565.016c25.173.713 25.173.713 30.335 5.447.52.472 1.044.935 1.573 1.395a98.356 98.356 0 0 1 2.917 2.674 158.665 158.665 0 0 0 3.28 3.025c.372.332.739.664 1.107.998l.636.573c.206.19.408.38.618.576l.556.511c.368.518.368.518.363 1.141-.296.724-.538.918-1.205 1.312-.699.09-.699.09-1.533.088l-.959.003-1.053-.008-1.116-.001c-1.017 0-2.038-.006-3.06-.012-.874-.005-1.747-.007-2.621-.01-9.983-.03-19.971-.185-29.955-.342-3.316-.053-6.631-.102-9.947-.15l-3.41-.05-.852-.012c-6.806-.1-13.612-.2-20.419-.314-4.458-.074-8.921-.144-13.38-.205l-.555-.008c-19.309-.264-38.617-.234-57.925-.234h-4.404c-17.028-.003-34.05-.006-51.078.201l-.676.008-.668.008-1.308.016-.641.008a1371.097 1371.097 0 0 1-15.939.077l-1.841.002h-.551c-3.325.001-6.65-.038-9.97-.135l-.946-.026c-6.9-.227-6.9-.227-9.096-1.565-.426-.605-.426-.605-.484-1.452.766-2.148 2.388-3.92 3.809-5.668.403-.509.784-1.033 1.165-1.561.291-.374.291-.374.591-.756h.484c.081-.195.081-.195.166-.393.851-1.54 2.142-2.6 3.464-3.72.148-.137.3-.273.457-.414l.434-.388.381-.345c.923-.671 1.846-.853 2.971-.907l.798-.042.865-.038.914-.045 1.926-.091c.95-.043 1.9-.09 2.85-.137 8.554-.415 17.09-.534 25.653-.53Zm-16.682 2.695c-.085.212-.166.426-.251.645l-.327.852a171.77 171.77 0 0 1-1.116 2.858h16.454c1.322-2.094 1.322-2.094 1.936-4.355-.749-.375-1.537-.277-2.357-.275l-.578-.001c-.628 0-1.25.001-1.878.003l-.636.001c-3.755.004-7.501.095-11.247.272Zm18.631 0c-.636 1.805-.636 1.805-.967 3.629.851.853 3.226.523 4.319.53l.941-.001.484.001c4.064-.001 8.11-.257 12.161-.53l.345-.805c.22-.519.444-1.037.668-1.554.237-.562.237-.562.197-1.27H172.58Zm20.568 0c-.668 1.742-.668 1.742-.726 3.387.56.28.869.27 1.492.265l.636-.002.695-.006.721-.003c1.022-.003 2.039-.01 3.06-.017 3.612-.022 7.206.057 10.817.247.157-1.277.318-2.555.484-3.871h-17.179Zm19.115 0c-.005.299-.005.6-.005.909 0 .169 0 .337-.004.511.009.767.072 1.463.251 2.209.807.58 1.595.55 2.563.561l.479.007c.525.008 1.045.012 1.564.016l1.089.014c.95.013 1.9.022 2.854.031a2717.741 2717.741 0 0 0 8.631.097c.34-.686.322-1.325.376-2.087l.063-.872c.013-.221.027-.442.044-.671-3.598-1.356-8.208-.755-11.995-.741a1938.026 1938.026 0 0 0-5.91.016Zm-70.511.073c-.452.012-.91.018-1.362.021-3.195-.038-3.195-.038-5.816 1.555-.332.407-.65.825-.95 1.254l-.879 1.104c-.412.49-.412.49-.573 1.074 3.145.005 6.287-.01 9.428-.111a91.91 91.91 0 0 1 1.9-.031c3.324.146 3.324.146 6.327-.956.806-.98 1.16-2.039 1.46-3.258.081-.239.157-.479.242-.725-4.888-.018-4.888-.018-9.777.073Zm90.352.652c.027.424.058.847.09 1.271.018.235.031.471.049.714.076.753.076.753.587 1.645h17.18c.251-1.252.201-1.917 0-3.146-.466-.464-1.304-.301-1.918-.318-.175-.005-.35-.011-.533-.015-.578-.017-1.161-.031-1.739-.045l-.6-.015c-4.369-.113-8.742-.116-13.116-.091Zm20.084.242.103.924c.022.171.04.343.062.519.108.707.283 1.427.802 1.945.623.023 1.246.03 1.869.027h.596c.65 0 1.299-.002 1.949-.004l1.353-.001 3.558-.005c1.21-.003 2.42-.004 3.63-.005 2.374-.003 4.754-.007 7.129-.012-.108-.52-.22-1.039-.336-1.558-.059-.289-.121-.578-.184-.876-.067-.235-.139-.47-.206-.712-.749-.374-1.542-.273-2.362-.269h-.587c-.64 0-1.281.002-1.922.004l-1.335.001c-1.17 0-2.339.003-3.509.006l-3.584.004-7.026.012Zm22.744.242c.05.218.103.436.153.661.121.52.246 1.04.367 1.561.153.707.153.707.69 1.166.713.077 1.407.125 2.124.153l.663.031c.726.031 1.448.06 2.174.088l.743.031c5.198.215 10.387.229 15.589.181-.322-1.358-.64-2.715-.968-4.114a7002.866 7002.866 0 0 0-9.512-.018c-.973-.003-1.95-.004-2.922-.004l-1.102-.003c-2.675-.01-5.332.095-7.999.267Zm23.955-.242c.341 2.239.341 2.24 1.452 4.114 1.057.322 2.106.327 3.204.348.322.012.645.026.972.04.852.036 1.707.059 2.559.081.856.024 1.711.059 2.563.093 3.432.131 6.864.204 10.301.164-.56-2.501-.56-2.501-1.936-4.598-1.084-.251-2.132-.271-3.239-.269h-.524c-.565 0-1.13.002-1.694.004l-1.183.001c-1.035 0-2.066.003-3.101.006l-3.168.004c-2.07.003-4.136.007-6.206.012Zm22.261.484c.269.677.542 1.352.816 2.027.076.192.152.384.233.582.076.184.148.368.224.558.071.169.139.339.21.514.202.478.202.478.695.917.73.152 1.443.273 2.178.375l.681.095c2.814.366 5.637.451 8.468.543l1.645.06c1.322.048 2.644.094 3.966.137a13.315 13.315 0 0 0-1.318-2.541c-.851-1.312-.851-1.312-1.174-1.989-.6-.802-1.134-.853-2.106-1.036a26.839 26.839 0 0 0-2.196-.151l-.663-.028c-3.88-.138-7.774-.082-11.659-.063Zm18.874.484c.103.164.21.328.318.497l.434.683.475.73c.291.475.578.958.843 1.45.17.321.17.321.349.648l.3.591c.601.684 1.251.819 2.12.967 1.044.063 2.083.056 3.127.047l.906-.002a1244.889 1244.889 0 0 1 4.781-.022c1.577-.005 3.159-.013 4.736-.023-.233-.271-.462-.541-.69-.811-.13-.15-.26-.3-.39-.455a24.705 24.705 0 0 0-1.582-1.638c-.161-.158-.318-.316-.484-.48-3.867-3.678-10.315-2.539-15.243-2.182Zm-148.568 4.114c-.421 1.333-.807 2.637-1.013 4.022-.04.248-.081.496-.116.751l-.081.55c6.771.347 13.546.266 20.325.242-.067-.883-.139-1.765-.215-2.647l-.054-.763c-.022-.239-.04-.479-.062-.725l-.054-.672-.099-.516c-.712-.356-1.429-.274-2.204-.27h-.538c-.587 0-1.174.002-1.761.004l-1.219.001c-1.071.001-2.137.003-3.208.006l-3.276.005c-2.142.002-4.283.006-6.425.012Zm-21.051.484-.713 1.996c-.067.188-.134.376-.201.57-.068.182-.13.365-.198.553-.058.167-.121.334-.179.507-.161.481-.287.962-.403 1.455 6.376.025 12.743.038 19.115-.242.157-.574.314-1.149.466-1.724a64.1 64.1 0 0 0 .135-.488c.255-.951.488-1.891.609-2.869-.488-.488-1.434-.284-2.083-.288h-1.708c-4.951.026-9.898.3-14.84.53Zm42.344-.242c.031.751.067 1.502.103 2.253.009.213.022.426.031.646.009.205.018.41.032.621l.027.573c.035.551.035.551.291 1.23 1.752.233 3.473.277 5.242.274l.874.001 1.82-.002c.923-.001 1.85 0 2.773.002l1.775-.001.838.002c1.308-.005 2.563-.043 3.857-.276-.062-.757-.129-1.513-.197-2.269-.018-.215-.036-.43-.053-.652a29.586 29.586 0 0 0-.059-.623c-.018-.191-.031-.381-.049-.577-.094-.571-.094-.571-.851-.96-2.097-.323-4.253-.275-6.368-.266l-.878.001c-.918.001-1.837.004-2.751.007l-1.882.004c-1.524.002-3.052.006-4.575.012Zm-61.944.726c-.488.641-.488.641-.878 1.406l-.417.761c-.134.243-.264.486-.398.736-.139.221-.274.441-.417.668-.35.508-.35.508-.309 1.026h18.631c.157-.959.318-1.917.484-2.904.152-.727.314-1.453.484-2.177-2.061-.012-4.122-.02-6.184-.025-.958-.003-1.917-.006-2.872-.012a854.41 854.41 0 0 0-2.773-.01c-.35 0-.704-.002-1.058-.004-.493-.004-.986-.004-1.479-.004l-.856-.004c-.761.06-1.281.189-1.958.543Zm81.785-.242c-.036 2.473-.036 2.473.242 4.839 2.16.26 4.297.254 6.466.212l1.08-.017c.936-.015 1.873-.031 2.814-.049a3527.233 3527.233 0 0 0 8.514-.146c-.072-.305-.139-.609-.215-.923a126.33 126.33 0 0 1-.753-3.916h-18.148Zm20.809 0c.036.462.077.925.112 1.388.023.258.041.516.063.781.027 1.436.027 1.436.551 2.67 2.742.421 5.597.325 8.362.378l.761.015c3.894.08 7.788.126 11.686.091-.143-.798-.291-1.594-.439-2.39l-.121-.687c-.04-.217-.085-.433-.125-.657-.058-.3-.058-.3-.112-.606-.144-.588-.144-.588-.896-.983a23.366 23.366 0 0 0-1.905-.055h-.587c-.64 0-1.281.004-1.922.007l-1.331.002c-1.169.002-2.334.007-3.504.012-1.192.005-2.384.008-3.576.01-2.339.005-4.678.013-7.017.024Zm-108.791-.025a315.813 315.813 0 0 0-4.566-.031c-.918-.001-1.837-.007-2.755-.025a95.694 95.694 0 0 0-2.68-.014c-.336 0-.672-.005-1.013-.015-1.519-.044-2.657-.038-3.844.976-.636.711-1.17 1.481-1.689 2.279-.162.23-.319.459-.484.697a32.42 32.42 0 0 0-.968 1.481c5.032.026 10.059.015 15.091-.106l.645-.015c.596-.013 1.197-.029 1.797-.044l.538-.013c.914-.014.914-.014 1.77-.306.193-.51.193-.51.345-1.119.22-.78.453-1.516.789-2.254.363-.718.363-.718.318-1.466l-.749.001c-.846-.001-1.698-.011-2.545-.026Zm131.778.267 1.21 5.081c.892.223 1.613.287 2.527.314l.964.029 1.044.028 1.084.032 2.276.064c.955.026 1.914.054 2.868.082 3.997.117 7.985.216 11.982.177-.13-.27-.13-.27-.26-.545-.632-1.337-1.152-2.649-1.537-4.077-.098-.458-.099-.458-.381-.701a24.575 24.575 0 0 0-1.299-.073l-.843-.029-.927-.028-.959-.032a687.81 687.81 0 0 0-2.03-.063c-.842-.026-1.689-.054-2.532-.083a327.61 327.61 0 0 0-13.187-.176Zm24.681.484c.148.62.3 1.24.452 1.86.041.174.086.349.126.528.233.931.488 1.811.874 2.693 1.483.212 2.935.291 4.436.318l.717.016 2.303.044 1.573.031c3.683.07 7.366.109 11.054.075-.152-.631-.3-1.261-.457-1.891-.041-.179-.081-.357-.126-.541-.206-.834-.389-1.445-.869-2.166a17.013 17.013 0 0 0-1.918-.221l-.587-.044c-.632-.046-1.263-.087-1.895-.128l-1.304-.091c-4.799-.333-9.571-.528-14.379-.483Zm23.229 1.209c.233.721.47 1.442.708 2.163l.206.623c.062.196.13.392.197.593.058.181.116.363.179.549.126.427.126.427.403.67.565.037 1.125.059 1.694.071l.533.015 1.766.043 1.219.032 3.217.079 3.28.083c2.146.055 4.293.108 6.439.161l-.955-1.921a69.366 69.366 0 0 0-.273-.554c-.085-.174-.174-.347-.264-.527-.076-.161-.157-.321-.238-.487-.183-.382-.183-.382-.448-.625-1.138-.199-2.245-.278-3.396-.301l-.982-.024-.511-.011c-2.984-.067-5.95-.199-8.925-.472a35.35 35.35 0 0 0-3.849-.16Zm20.809 1.21c.609 1.938.609 1.938 1.694 3.63 1.98.779 4.364.546 6.465.531l1.08-.002c.937-.002 1.873-.007 2.814-.012.959-.005 1.918-.007 2.882-.01 1.877-.005 3.754-.013 5.632-.023a75.647 75.647 0 0 0-2.572-2.466l-.69-.63c-1.026-.898-1.537-1.078-2.886-1.073h-.47c-.516 0-1.031.004-1.546.008l-1.071.002c-.937.002-1.878.007-2.819.012a2637.783 2637.783 0 0 0-8.513.033Z" fill="#000" fill-opacity=".855"/><path d="M59.237 232.762c2.299 1.278 4.405 1.674 7.012 1.859 7.062.502 14.648 2.593 20.433 6.866l.77.524c1.96 1.341 3.716 2.814 5.418 4.465.305.298.619.591.932.883 6.386 6.116 10.678 15.011 12.238 23.648l.094.51c.461 2.491.779 4.939.874 7.475l.026.638c.287 11.262-3.965 22.502-11.35 30.921-.55.619-.55.619-1.017 1.348h-.484c-.067.145-.134.29-.201.439-.457.853-1.152 1.433-1.855 2.087-.162.148-.319.296-.484.448-1.703 1.55-3.545 2.886-5.44 4.19-.426.295-.852.595-1.277.896-5.794 4.035-12.618 6.175-19.537 7.184l-.52.078c-1.823.24-3.665.223-5.502.225h-.538c-2.791-.002-5.467-.178-8.2-.787l-.529-.109c-10.763-2.242-20.379-8.11-26.997-16.916a88.988 88.988 0 0 0-.815-1.05c-7.035-9.211-9.271-21.293-7.909-32.617.596-4.39 1.806-8.41 3.585-12.461.12-.282.12-.282.246-.569.968-2.187 2.034-4.225 3.383-6.206.143-.23.291-.46.44-.697a37.42 37.42 0 0 1 4.633-5.845c1.684-1.749 2.572-4.053 3.575-6.233 1.77-3.747 4.418-6.296 8.29-7.792.363-.114.726-.225 1.089-.333 1.133-.357 2.03-.974 3.02-1.626 4.852-3.064 11.31-4.417 16.597-1.443Zm-16.109 3.16c-.17.124-.345.248-.52.376-1.223.977-1.958 2.091-2.715 3.456-.197.259-.197.259-.394.523h-.968c.08-.639.157-1.277.242-1.935-2.478.618-4.495 2.683-5.839 4.78-1.062 1.782-1.922 3.596-2.388 5.624-.067.257-.13.514-.197.779-1.457 6.029-.789 12.234 1.165 18.094 1.08-.169 2.057-.544 3.07-.953l.492-.194c.7-.279 1.223-.493 1.761-1.03.067-.516.067-.516.045-1.106 0-.217 0-.434-.005-.657l-.013-.687c0-.229-.005-.457-.005-.693-.004-.566-.013-1.131-.022-1.697 1.385.219 1.963.846 2.805 1.963.878 1.145.878 1.145 2.214 1.591 1.259-.131 2.486-.52 3.692-.892 0-.894-.242-1.159-.744-1.89-2.254-3.487-3.907-7.407-4.553-11.531-.174-.927-.174-.927-.837-1.608-.215-.096-.435-.192-.66-.291-.658-.299-.658-.299-1.191-.65-.197-.645-.197-.645-.242-1.21.802.101 1.412.332 2.115.711 2.612 1.351 5.113 1.131 7.864.32 2.137-.717 3.862-1.916 5.623-3.296.628-.409 1.085-.547 1.82-.638.058.203.12.407.183.617.328.91.753 1.732 1.224 2.574 1.34 2.417 2.401 4.95 3.459 7.501l.318.753.305.739c.098.233.197.466.296.706.237.592.43 1.184.622 1.791.278.821.278.821.879 1.097 1.052-.076 1.935-.45 2.903-.852l.596-.236c.825-.332 1.537-.644 2.28-1.14.055-.675.068-1.294.046-1.966-.005-.183-.01-.365-.01-.553-.008-.451-.022-.902-.035-1.352.874-.082 1.304-.113 2.016.431.175.182.345.364.525.551.793.808.793.808 1.873.983l.667-.272.695-.257.515-.227c-.117-1.324-.448-2.193-1.134-3.327l-.537-.898c-.09-.146-.175-.291-.265-.442-.327-.559-.614-1.137-.91-1.715-1.523-2.808-3.665-5.353-5.865-7.652-.161-.17-.318-.341-.48-.517-1.747-1.829-3.808-3.179-6.053-4.322-.17-.087-.345-.174-.52-.264-4.78-2.279-10.852-2.207-15.208.99Zm23.23 1.936c.205.239.416.479.63.726 3.702 4.327 8.676 10.344 9.29 16.211l-.404.195c-.403.206-.802.426-1.191.654-.225.129-.444.258-.677.391l-.668.395c-.802.349-1.281.428-2.142.301-.564-.423-.564-.423-1.062-.968l-.502-.544c-.125-.14-.246-.28-.371-.424-.229.737-.233 1.007-.063 1.8.063.862.063.862-.394 1.512-2.214 1.64-5.118 2.367-7.77 2.979-.547 3.006-.466 5.828 1.2 8.435 1.192 1.257 2.223 1.792 3.975 1.865.587.004 1.174.004 1.766-.001 6.13.078 11.632.982 16.046 5.429.08.16.156.32.242.484h.483c.054.165.108.33.166.499.404.904.937 1.611 1.528 2.405.47-.708.623-1.153.82-1.966.063-.246.126-.492.184-.746.063-.258.126-.516.188-.782.126-.504.247-1.007.372-1.511.058-.25.121-.501.184-.759a388.466 388.466 0 0 1 .757-3.074c.117-.446.251-.887.399-1.325h.968c-.153-1.125-.619-2.045-1.134-3.04-.09-.169-.175-.339-.264-.514a98.281 98.281 0 0 0-1.242-2.383 58.783 58.783 0 0 0-.766-1.431c-.264-.719-.201-1.102.018-1.827.811-.27 1.353-.184 2.178 0l-.336-1.255c-.058-.233-.121-.466-.184-.706-.193-.699-.193-.699-.47-1.343-.27-.697-.256-1.278-.22-2.019l1.936-.484v-1.936c.685-.013 1.07-.014 1.694.242.43.501.43.501.846 1.104.4.598.4.598.847 1.074.865.081.865.081 1.694 0 1.017.781 1.618 1.767 2.178 2.904.103.206.206.413.309.626 1.066 2.324 1.277 4.658 1.492 7.171.022.217.04.433.058.656.04.426.077.851.108 1.277.022.293.022.293.05.593l.04.525c.098.557.098.557.47 1.1 1.304 2.197 1.358 5.54 1.721 8.059l.08.544c.359 2.457.677 4.912.906 7.384.08.779.192 1.541.331 2.311h.242c1.994-11.433.363-22.994-6.291-32.666-.148-.212-.291-.425-.444-.644a60.104 60.104 0 0 0-2.885-3.727l-.337-.41c-.591-.7-1.088-1.113-1.9-1.51a41.566 41.566 0 0 1-.483-.968c-3.19-3.084-7.188-5.311-11.13-7.259-.252-.124-.503-.249-.758-.377-2.71-1.294-5.543-2.081-8.469-2.723l-.73-.161c-1.062-.224-2.026-.397-3.11-.368Zm-13.067 7.501c-.565.361-.565.361-1.134.876-3.2 2.642-6.39 3.373-10.48 3.479 2.42 8.184 2.42 8.184 7.984 14.276 1.68.561 3.594.223 5.324 0-.641 1.126-.641 1.127-1.12 1.588-.767.803-.614 1.992-.65 3.039-.068 1.418-.328 2.576-.955 3.853-.25.512-.25.512.063 1.199 1.107.858 2.357.969 3.701 1.165 1.273.207 1.273.207 1.842.632.345.5.547 1.019.748 1.59.56-.563.587-.839.753-1.603.408-1.462 1.259-2.273 2.393-3.236-.327-.706-.713-1.255-1.197-1.861-1.626-2.423-1.653-5.757-1.223-8.544l.242-1.21c.385-2.392-.574-4.028-1.68-6.057-1.174-2.192-2.088-4.511-2.98-6.827-.103-.265-.21-.529-.318-.802-.14-.367-.14-.367-.287-.742-.26-.652-.26-.652-1.026-.815Zm-25.958 8.764c-1.465 1.623-2.621 3.438-3.804 5.27l-.381.579c-1.483 2.297-2.433 4.736-3.298 7.315a63.53 63.53 0 0 1-.43 1.242c-.618 1.768-1.04 3.526-1.38 5.366-.054.261-.103.522-.157.79-2.043 10.771 1.17 20.923 6.802 30.019a7.38 7.38 0 0 0 1.021 1.146c-.004-.18-.004-.36-.004-.546-.013-1.996-.009-3.991.004-5.987v-.56c.032-5.634 2.568-10.935 6.48-14.879 3.567-3.442 7.953-5.804 12.331-8.047 3.63-1.729 3.63-1.729 6.551-4.401.57-1.803.386-3.665.045-5.504a62.793 62.793 0 0 0-.506-.142l-.659-.191c-.215-.062-.434-.123-.654-.187-.6-.206-.6-.206-1.326-.69-1.461.112-2.873.518-4.28.899-1.326.333-2.5.456-3.76-.22l-1.155-.921c-.023.166-.045.332-.063.504-.036.218-.072.436-.103.66l-.094.655c-.31.83-.636.956-1.434 1.326a38.91 38.91 0 0 1-2.133.772l-.564.2c-1.246.419-2.281.613-3.594.48-.981-.649-1.143-1.83-1.452-2.903a76.1 76.1 0 0 0-.246-.788c-1.103-3.793-1.3-7.621-1.206-11.553-.287-.027-.287-.027-.55.296Zm63.947 1.398c.138.903.398 1.565.847 2.359.613 1.178.78 2.127.846 3.448h-.726c-.345-.408-.344-.408-.698-.967a54.935 54.935 0 0 1-.753-1.21l-.363-.576c-.287-.452-.57-.905-.847-1.36-.08.159-.162.319-.242.484.318.629.318.629.77 1.331 1.327 2.217 2.044 4.381 2.617 6.896-.242.159-.479.319-.725.484l-.162-.4c-.43-.756-1.017-1.315-1.64-1.914-.116-.117-.237-.233-.358-.353-.327-.322-.659-.642-.986-.963l-.726-.726c.39 1.138 1.013 2.07 1.662 3.07.834 1.298 1.546 2.551 2.057 4.015.117.418.117.418.394.658.372.024.749.032 1.125.032l.69.001.726-.003.726.003.686-.001h.636c.493.022.493.022.735-.274.291-4.032-.336-9.369-2.904-12.582.157 1.357.318 2.715.484 4.113-1.089-.544-1.089-.544-1.46-1.335-.081-.168-.162-.336-.247-.508a69.4 69.4 0 0 0-.247-.531c-.16-.345-.327-.689-.493-1.033-.076-.163-.152-.326-.232-.493a15.68 15.68 0 0 0-.95-1.665h-.242Zm-.968 16.212c-1.896 10.809-1.896 10.809-3.15 21.707-.027.282-.05.564-.076.855-.018.246-.04.493-.059.747-.103.632-.269 1.064-.587 1.614h-.968c-.34-1.221-.241-2.424-.183-3.676.018-.361.018-.361.031-.729.108-2.208.368-4.393.695-6.579.192-1.413.309-2.313-.543-3.534l-.515-.799c-2.769-3.981-5.65-6.593-10.508-7.512-1.33-.239-2.616-.443-3.978-.4.094.105.183.21.282.319 1.451 1.66 2.487 2.947 2.38 5.246-.337.832-.337.832-.727 1.452-.08.239-.161.479-.242.726l-.968.484c-.667.584-.667.584-1.21 1.209v.484l.61.267c.26.121.524.243.798.368l.788.358c.865.562 1.102.938 1.434 1.911.255 3.041-1.452 5.908-2.8 8.544a38.3 38.3 0 0 1-.337.67c-1.003 1.909-1.003 1.909-2.186 2.4.085-1.953.721-3.443 1.541-5.202 1.42-2.826 1.42-2.826 2.133-5.868-.488-.926-1.286-1.337-2.222-1.754-.803-.22-1.6-.371-2.42-.484-.094-.771-.094-.771 0-1.694.484-.472.91-.824 1.452-1.209.412-.393.815-.798 1.21-1.21.134-.136.268-.271.403-.411.139-.144.273-.288.412-.436.125-.132.25-.265.385-.401.305-.447.305-.447.207-1.037-.646-2.009-1.999-3.287-3.827-4.248-1.515-.726-1.515-.726-3.146-.968.04.278.04.278.085.561.126.851.256 1.703.381 2.554l.135.883c.044.287.085.574.13.869l.12.791c.31 2.334.39 4.616.381 6.971v1.048c0 .911-.004 1.822-.008 2.733 0 .932 0 1.865-.005 2.797 0 1.825-.004 3.649-.009 5.473-.161-.079-.323-.16-.484-.242-.564-2.069-.587-4.268-.681-6.397-.193-3.897-.551-7.776-.923-11.66-.027-.292-.058-.584-.085-.885-.161-1.671-.323-3.342-.489-5.012l-.56.559c-.35.349-.703.697-1.07 1.025-.39.446-.471.799-.587 1.375a21.69 21.69 0 0 0-.126.588l-.121.611c-.067.307-.067.307-.13.62a88.15 88.15 0 0 0-.31 1.513c-.6.119-.6.119-1.209.242-.712-1.105-1.362-2.206-1.936-3.388-.443-.444-1.156-.398-1.756-.484a44.36 44.36 0 0 1-2.841-.484 21.25 21.25 0 0 0 1.371 3.842c.13.276.26.552.39.836.103.217.103.217.206.439.354.761.7 1.525 1.044 2.29 1.447 3.21 2.904 6.415 4.427 9.592.121.247.238.494.359.749.609 1.265.61 1.265 1.3 2.487.358.604.483 1.095.582 1.784-5.409-2.916-8.42-13.693-10.481-19.05-.421-1.088-.896-2.149-1.376-3.211-1.223.25-1.537.902-2.209 1.913-1.12 1.846-2.173 3.645-2.388 5.83 1.142.672 2.115.837 3.414.862 2.04.051 2.04.051 2.877.59-.134.997-.444 1.576-1.044 2.374-.95 1.314-1.72 2.463-2.025 4.068.237 1.176.918 1.575 1.86 2.269.743.481 1.51.921 2.28 1.361 1.645.966 3.244 1.971 4.781 3.1.161.117.327.234.497.355.686.516 1.107.851 1.376 1.68.005.172.009.344.018.521-1.792-.04-3.03-.981-4.494-1.936a329.352 329.352 0 0 1-2.312-1.486 120.19 120.19 0 0 0-1.788-1.132l-.888-.558c-.25-.155-.497-.31-.752-.47-.838-.597-1.64-1.229-2.106-2.161-.224-2.291.452-3.906 1.505-5.889.22-.402.22-.402.188-.886l-.725.045c-1.336-.002-2.47-.412-3.495-1.255-.57-.731-.713-1.446-.709-2.365.157-.969.587-1.834.986-2.725.31-.713.56-1.429.798-2.169-4.714 1.935-8.765 5.137-12.34 8.711l-.583.562c-4.127 4.275-5.072 9.929-5.04 15.639.026 1.535.106 3.063.236 4.593l.045.603c.274 2.719 2.429 4.459 4.432 6.124 3.002 2.436 6.148 4.484 9.647 6.135.47.227.937.468 1.398.71 1.04.522 2.11.892 3.218 1.248l.573.191c.914.301 1.815.573 2.77.732-.135-1.638-.579-3.051-1.121-4.597-1.116-3.26-2.15-6.542-3.177-9.831l-.233-.754a397.39 397.39 0 0 1-2.93-9.712c-.677-2.356-1.201-4.582-1.25-7.046.56.139.56.139 1.21.484a9.7 9.7 0 0 1 .662 1.648c.059.178.117.355.18.538.206.641.407 1.284.609 1.928.08.258.161.517.247.783.461 1.476.918 2.954 1.375 4.432 1.573 5.142 1.573 5.142 3.365 10.21 1.313 3.465 2.245 7.048 3.083 10.654.238 1.099.238 1.099.883 1.989 6.596 1.497 14.227.707 20.567-1.452l.515-.174c4.8-1.646 9.083-4.165 13.035-7.327.318-.244.64-.486.968-.726-.157-1.236-.704-2.266-1.241-3.373l-.3-.621a171.811 171.811 0 0 0-1.725-3.492c-.78-1.539-1.488-3.105-2.187-4.681a250.578 250.578 0 0 0-1.824-3.976c-.618-1.324-1.232-2.65-1.846-3.977-.202-.431-.399-.863-.6-1.294l-.915-1.985a381.67 381.67 0 0 1-.905-1.954c-.09-.195-.179-.391-.273-.592a64.436 64.436 0 0 0-1.555-3.159c-.242-.556-.255-1.029-.18-1.626 1.099.13 1.099.13 1.574.61 1.12 1.802 2.101 3.672 3.07 5.561l.277.544a259.485 259.485 0 0 1 4.902 10.155c.972 2.101 1.922 4.2 2.76 6.359.359.89.73 1.776 1.103 2.662.138.341.138.341.282.689.094.216.183.433.278.656.08.196.16.391.246.592.26.559.26.559.995.966 3.773-3.457 6.623-7.561 8.953-12.098l.434-.815c1.676-3.202 2.223-5.735 1.649-9.279a710.884 710.884 0 0 1-.336-2.111c-.641-4.03-1.232-8.06-1.69-12.117-.035-.288-.066-.576-.102-.874a220.99 220.99 0 0 1-.08-.749c-.113-.78-.113-.78-.601-1.881h-7.985Z" fill="#000" fill-opacity=".835"/><path d="M330.536 238.239c1.2.777 1.994 1.654 2.468 3.006.216 1.716.095 3.194-.967 4.597-1.067 1.127-2.124 2.118-3.724 2.212-.99.017-1.855-.023-2.809-.276-.081.109-.157.218-.242.331-.112.154-.22.309-.336.469l-.381.527-.847 1.173c-.717.992-1.434 1.985-2.147 2.979a355.975 355.975 0 0 1-7.075 9.489l-1.183 1.535c-2.083 2.718-4.176 5.423-6.399 8.027-.479.598-.891 1.16-1.232 1.845.193.701.193.701.484 1.451.184 1.896-.399 3.2-1.393 4.794a6.205 6.205 0 0 1-3.912 1.762c-1.793-.081-3.177-.911-4.374-2.2-.958-1.34-1.173-2.737-.967-4.356.233-.573.493-1.1.802-1.636.255-.834.045-1.198-.318-1.993a52.95 52.95 0 0 0-1.694-2.526c-.332-.477-.663-.954-.99-1.432-.162-.233-.323-.465-.493-.705a157.822 157.822 0 0 1-1.784-2.657 120.572 120.572 0 0 0-1.98-2.903c-.879-1.243-1.69-2.522-2.496-3.811-.09-.143-.179-.286-.274-.433-.609-.972-1.214-1.945-1.823-2.918-.56-.9-1.125-1.799-1.685-2.698-.206-.328-.408-.656-.614-.983-.148-.235-.296-.47-.443-.711l-.534.053-.708.068-.699.068c-.726.053-1.443.056-2.173.053-.09.174-.179.348-.273.526-1.533 2.963-3.07 5.925-4.624 8.875-.834 1.581-1.658 3.167-2.483 4.754a1318.43 1318.43 0 0 1-3.087 5.903 603.51 603.51 0 0 0-2.357 4.501l-1.452 2.783c-.108.201-.211.402-.318.609a489.127 489.127 0 0 1-3.616 6.786l-.354.654c-2.008 3.678-2.008 3.678-2.895 4.809-.376.436-.376.436-.305 1.025.198.671.198.671.726 1.225.861 1.21.628 2.848.471 4.249-.421 1.483-1.698 2.511-2.904 3.388-1.304.695-2.711.575-4.113.242-1.712-.797-2.657-1.878-3.464-3.569-.363-1.712-.076-3.196.865-4.662.381-1.028-.058-1.973-.479-2.926-.175-.375-.355-.75-.538-1.123-.099-.202-.193-.404-.296-.612-.932-1.921-1.967-3.78-3.02-5.638-1.752-3.105-3.423-6.228-4.925-9.465a75.256 75.256 0 0 0-1.33-2.705c-1.049-2.066-1.932-4.203-2.828-6.338a15.094 15.094 0 0 0-.439-.951c-.851-.154-1.577-.197-2.42 0-.914.835-1.424 1.918-2.007 2.997a119.848 119.848 0 0 1-2.877 5.003c-.161.263-.318.526-.484.797-.466.778-.936 1.556-1.407 2.334-.13.216-.264.432-.398.655a148.396 148.396 0 0 1-4.199 6.604c-.43.639-.86 1.279-1.286 1.92-.103.152-.206.304-.309.46-1.076 1.364-1.076 1.364-1.524 2.912.18.432.386.853.592 1.271.569 1.329.591 2.64.125 4.007-.779 1.69-1.622 2.548-3.271 3.418-1.635.545-2.854.309-4.4-.359-1.447-.81-2.267-2.15-2.751-3.709-.188-1.447-.05-2.854.726-4.113.815-.88 1.752-1.78 2.903-2.178.457.02.919.041 1.376.082 1.586.13 1.586.13 3.024-.44.466-.659.807-1.337 1.166-2.062.215-.384.434-.766.658-1.147.507-.873 1.008-1.748 1.506-2.628a179.185 179.185 0 0 1 2.007-3.469 336.507 336.507 0 0 0 2.572-4.437c.605-1.064 1.219-2.125 1.828-3.185l.341-.588a76.065 76.065 0 0 1 1.676-2.792c.107-.165.21-.33.318-.5.193-.309.394-.616.596-.921.296-.454.296-.454.596-1.142-.121-.551-.121-.551-.484-.968-1.125-1.556-1.197-2.945-.968-4.839.426-1.645 1.492-2.524 2.904-3.387 1.075-.607 2.182-.668 3.387-.484 1.936.653 3.168 1.726 4.203 3.462.39 1.684.296 3.086-.555 4.597a56.76 56.76 0 0 1-.744 1.135c.094.798.461 1.455.833 2.161.117.23.238.461.363.699.13.244.256.488.39.739.13.252.264.503.399.761a119.442 119.442 0 0 0 2.186 3.973c1.031 1.781 1.945 3.61 2.846 5.459a465.751 465.751 0 0 1 4.597 9.664l.314.689a139.792 139.792 0 0 1 2.106 4.891l3.387.242 1.452-3.009c.072-.15.144-.299.215-.453a457.378 457.378 0 0 0 2.523-5.294c1.685-3.601 3.527-7.123 5.373-10.644l.994-1.908a284.04 284.04 0 0 1 4.203-7.728c.184-.333.184-.333.377-.674 2.585-4.612 2.585-4.612 3.934-6.857.081-.143.166-.285.255-.432.426-.712.87-1.401 1.354-2.075 1.026-1.326 1.026-1.326 1.25-2.897-.251-.545-.251-.545-.578-1.056-.623-1.083-.659-2.322-.435-3.532.471-1.609 1.232-2.563 2.536-3.619 1.349-.696 2.908-.607 4.374-.393 1.474.566 2.563 1.656 3.378 2.992.48 1.221.466 2.501.251 3.783-.13.206-.255.412-.39.624-.39.56-.39.56-.313 1.185.259.728.609 1.277 1.048 1.911.175.255.35.51.533.773.094.135.184.27.283.409.497.725.981 1.458 1.469 2.191.619.93 1.242 1.86 1.864 2.787a127.459 127.459 0 0 1 3.271 5.1c.601.976 1.224 1.934 1.851 2.891.305.519.305.519.305 1.003h.484c.201.36.407.721.614 1.082.174.309.354.616.533.923.412.708.793 1.397 1.129 2.146.318.676.556 1.152 1.111 1.656.834.146 1.546.125 2.389.038.815-.041 1.227.14 1.967.446.506.028.506.028.967-.242.561-.589.561-.589 1.103-1.346.103-.139.21-.278.318-.422 1.039-1.404 2.021-2.848 3.007-4.293 2.2-3.228 4.561-6.331 6.945-9.425.13-.168.255-.335.39-.508a105.733 105.733 0 0 1 3.28-4.072c.331-.39.658-.781.99-1.173.453-.539.919-1.062 1.394-1.583 1.254-1.346 1.254-1.346 1.675-3.064a18.61 18.61 0 0 0-.712-1.94c-.282-1.557.197-3.011.968-4.356 2.003-2.306 4.602-2.525 7.21-1.07Z" fill="#000" fill-opacity=".89"/><path d="M329.133 250.924c.498.105.498.105.968.242.287 1.029.264 2.025.255 3.086-.004.326-.004.326-.004.658-.009.732-.013 1.465-.022 2.197l-.014 1.585-.04 4.353-.027 2.743a6750.665 6750.665 0 0 1-.376 31.502c-.014.941-.027 1.883-.036 2.824-.027 1.982-.058 3.964-.085 5.947l-.027 1.974c-.027 1.791-.054 3.581-.09 5.371-.013.64-.027 1.279-.036 1.919-.013.847-.036 1.695-.053 2.542a68.68 68.68 0 0 0-.027 1.435l-.027.872-.014.77c-.103.634-.103.634-.398 1.079-.574.374-.955.371-1.641.37l-.761.004-.838-.007-.896.002c-.82 0-1.645-.003-2.465-.007-.892-.003-1.788-.003-2.679-.003-1.766-.001-3.531-.006-5.301-.012-1.452-.005-2.908-.008-4.365-.01l-.631-.002-1.273-.001c-5.534-.009-11.063-.029-16.593-.051l-2.218-.008c-7.335-.028-14.67-.06-22.005-.096l-2.191-.011a5607.88 5607.88 0 0 1-31.77-.236l-2.043-.021a974.13 974.13 0 0 1-13.349-.213l-1.232-.029a515.012 515.012 0 0 1-2.2-.053c-1.129-.032-2.222-.098-3.334-.303-.537-.804-.551-1.072-.56-2.011-.009-.264-.013-.528-.018-.801 0-.287-.004-.575-.009-.871l-.013-.908c-.014-.808-.023-1.616-.031-2.425-.005-.665-.014-1.331-.023-1.996-.027-1.787-.045-3.574-.063-5.362l-.027-2.35c-.013-.994-.022-1.987-.026-2.981 0-.341-.005-.683-.009-1.024 0-.46-.005-.921-.005-1.382v-.753c.058-.607.058-.607.542-1.333.466.076.466.076.968.242.323.972.287 1.914.301 2.927.008.47.017.939.022 1.409.013.726.022 1.451.031 2.177.054 3.632.197 7.255.377 10.883l.067 1.421c.058 1.148.112 2.296.17 3.444l.618-.001c6.767-.007 13.533-.011 20.294-.014l.798-.001a6630.502 6630.502 0 0 1 47.632.141l2.536.018 6.779.045.601.004c11.489.076 22.978.077 34.467.05.197-.879.277-1.703.295-2.604.005-.279.014-.558.018-.845.005-.305.014-.61.018-.924.005-.326.014-.652.018-.978.023-.891.036-1.781.054-2.672.018-.951.04-1.902.058-2.853l.094-4.845.094-4.854c.148-7.208.292-14.417.386-21.626l.009-.611c.022-1.935.049-3.869.071-5.803.063-5.502.211-10.996.431-16.493l.026-.633c.112-2.484.112-2.484.847-3.219Z" fill="#000" fill-opacity=".788"/><path d="m170.206 81.063.811.273.596.21c.174.637.268 1.085.112 1.735-.543.676-1.116.766-1.945 1.003a256.217 256.217 0 0 1-2.281.65l-1.416.404a569.654 569.654 0 0 1-6.623 1.828 294.231 294.231 0 0 0-7.281 2.079c-2.003.6-4.006 1.183-6.013 1.765a289.74 289.74 0 0 0-7.945 2.393c-1.102.345-2.2.69-3.302 1.03l-1.241.39c-.726.23-1.457.458-2.187.682a38.84 38.84 0 0 0-.69.22c-4.62 1.424-4.62 1.424-6.372.582-.6-.672-.73-1.022-.712-1.923.506-1.653 1.375-2.428 2.84-3.248 4.428-2.25 9.101-3.791 13.842-5.234.26-.08.515-.161.784-.246.784-.247 1.573-.484 2.361-.722.305-.09.61-.183.923-.278 3.361-.98 6.78-1.68 10.208-2.383a95.38 95.38 0 0 1 8.254-1.394c.251-.027.497-.058.748-.09 2.236-.264 4.373-.47 6.529.274Z" fill="#000" fill-opacity=".922"/><path d="M424.952 164.542c1.398.3 2.129 1.017 2.904 2.177v.484h.484c1.528 3.33 2.016 6.783 2.419 10.405.018.166.041.332.063.503.273 2.475.224 4.969.229 7.456v.774c.004 1.356.004 2.712.009 4.068 0 1.106.004 2.212.008 3.318.032 6.04.041 12.004-.793 17.998-.04.297-.076.594-.116.901-.041.3-.081.602-.121.912-.054.41-.054.41-.112.828-.193 1.061-.507 1.784-1.103 2.682-.515.169-.515.169-.967.242v-.484h-.484c-.157-.7-.305-1.4-.457-2.102-.041-.188-.081-.376-.126-.57-1.115-5.356-1.071-10.972-1.308-16.42a2586.601 2586.601 0 0 0-.314-6.993c-.215-4.665-.452-9.33-.712-13.993a495.82 495.82 0 0 1-.189-3.662l-.094-1.682c-.053-.934-.103-1.868-.148-2.803a48.463 48.463 0 0 0-.058-.884 47.568 47.568 0 0 0-.036-.821c-.018-.363-.017-.363-.04-.73.121-.816.439-1.089 1.062-1.604Z" fill="#000" fill-opacity=".91"/><path d="M64.905 181.479c-.067 2.407-.313 4.758-.68 7.138-1.117 7.204-1.82 14.433-2.344 21.701-.018.218-.032.436-.05.661a313.034 313.034 0 0 0-.475 7.689c-.044.917-.09 1.835-.125 2.753-.014.328-.031.656-.05.984-.008.281-.022.562-.035.852-.135.971-.39 1.63-.838 2.502-.726.484-.726.484-1.452.423-.82-.205-1.295-.428-1.77-1.14-.824-1.596-1.178-3.069-1.375-4.848l-.081-.657c-.619-5.654.027-11.558 1.17-17.101.134-.708.237-1.417.34-2.13.269-1.777.663-3.515 1.08-5.262.071-.303.139-.607.215-.92 2.97-12.645 2.97-12.645 6.47-12.645Z" fill="#000" fill-opacity=".914"/><path d="M321.78 84.603c.278.063.551.13.833.197a77.874 77.874 0 0 1 7.004 2.07c.219.076.439.152.668.233 12.927 4.544 12.927 4.544 15.302 8.236-.081.237-.162.48-.242.726-1.815.072-3.446-.193-5.22-.574-.296-.063-.596-.125-.906-.192-5.986-1.282-11.959-2.752-17.789-4.634-.483-.152-.967-.3-1.456-.443-2.186-.641-4.418-1.358-6.327-2.626-.385-.77-.345-1.33-.242-2.178 1.985-2.473 5.727-1.474 8.375-.815Z" fill="#000" fill-opacity=".91"/><path d="M238.638 221.162c1.962 1.605 2.787 3.376 3.387 5.807.569 6.647-2.921 12.969-7.017 17.996l-.968 1.119c-.148.218-.291.436-.439.66-.529.55-.529.55-1.358.817-.864-.025-.864-.025-1.537-.488-.197-.216-.394-.433-.6-.656-.202-.212-.399-.425-.609-.644-.493-.6-.87-1.202-1.264-1.866-.161-.08-.323-.16-.484-.242-.228-.37-.434-.75-.636-1.135a65.688 65.688 0 0 0-1.551-2.778 33.768 33.768 0 0 1-2.41-5.04c-.085-.186-.166-.372-.251-.565-1.134-3.115-1.268-6.37-.049-9.46.466-.967 1.044-1.757 1.752-2.557.129-.15.259-.299.389-.453 3.625-3.897 9.558-3.466 13.645-.515Zm-13.161 3.402c-1.187 1.573-1.339 3.359-1.187 5.276.246 1.761.918 3.45 1.523 5.114.072.221.148.441.224.669.363.998.834 1.942 1.322 2.883l.327.625c.413.784.834 1.566 1.251 2.346.259.484.506.971.748 1.462h.484c.08.322.08.322.166.65.358.907.806 1.367 1.528 2.012 1.85-1.678 3.159-3.756 4.216-5.999.341-.7.713-1.375 1.098-2.052 1.828-3.266 3.607-7.354 2.653-11.141-.74-2.063-2.25-3.759-4.159-4.825-3.938-1.804-7.644-.233-10.194 2.98Z" fill="#000" fill-opacity=".8"/><path d="M157.336 239.067c1.802 1.998 2.304 3.867 2.254 6.51-.224 2.202-1.124 3.828-2.742 5.309-1.882 1.521-3.939 1.817-6.318 1.692-2.11-.299-3.652-1.272-5.05-2.864-1.586-2.129-1.649-4.231-1.452-6.775.448-2.139 1.873-3.985 3.688-5.188 3.199-1.569 6.972-.975 9.62 1.316Zm-9.92 2.178-.408.453c-.744 1.204-.945 2.512-.802 3.902.376 1.107.775 2.143 1.694 2.904h.484c.506-.589.9-1.222 1.21-1.936-.139-.656-.256-.982-.726-1.452-.112-1.173.112-1.902.726-2.903.891-.596 1.622-.624 2.661-.484.695.363.695.363 1.21.726h.484c.206 1.273.35 2.197-.242 3.387v.726h.484c.058.18.116.36.179.545.327.713.695 1.112 1.273 1.633 1.183-1.082 1.743-2.523 1.828-4.113-.09-1.83-.986-3.121-2.299-4.341-1.201-.968-2.285-1.346-3.849-1.301-1.608.236-2.863 1.026-3.907 2.254Z" fill="#000" fill-opacity=".863"/><path d="M155.885 212.209c1.586 1.009 2.872 2.604 3.356 4.431.009.295.018.589.031.892.009.22.023.439.036.666.081 2.477-.341 4.408-1.949 6.34-1.81 1.763-3.692 2.266-6.148 2.284-2.079-.036-4.015-.757-5.489-2.273-1.622-1.981-2.097-4.008-1.936-6.533.233-2.102 1.255-3.969 2.904-5.323h.484v-.484c2.881-1.318 5.852-1.495 8.711 0Zm-6.775 1.452v.484l-.529.151c-1.179.575-1.824 1.523-2.348 2.692-.515 1.548-.256 3.075.412 4.537.372.745.726 1.009 1.497 1.331.255-.334.506-.673.753-1.014l.425-.57c.35-.587.35-.587.081-1.195-.099-.201-.193-.402-.291-.609-.148-1.106-.216-2.081.389-3.04.722-.434 1.188-.573 2.03-.589.982.366 1.721.728 2.178 1.693.099 1.026.085 1.923-.242 2.904-.161.08-.323.159-.484.242.229.18.457.359.695.544.591.491.967.897 1.241 1.634 1.021-.365 1.402-1.02 1.936-1.936.51-1.666.38-3.245-.39-4.805-.843-1.289-2.017-2.231-3.482-2.696-.659-.067-.659-.067-1.331-.046l-.672.005a11.51 11.51 0 0 0-1.868.283Z" fill="#000" fill-opacity=".859"/><path d="M156.844 262.093c1.344 1.013 2.272 2.62 2.599 4.255.304 2.393.103 4.527-1.21 6.602-1.586 2.014-3.715 3.03-6.22 3.38-1.953.076-3.786-.662-5.386-1.739-1.814-1.855-2.697-3.731-2.693-6.322v-.548c.027-1.445.327-2.471 1.062-3.731h.484l.135-.53c.779-1.525 2.437-2.163 3.988-2.68 2.603-.648 4.96-.032 7.241 1.313Zm-9.182 2.153c-1.048 1.525-1.617 2.953-1.456 4.825.323 1.472.775 2.417 1.936 3.388.103-.26.206-.52.318-.787.22-.547.417-.921.802-1.375.426-.646.345-.919.193-1.665-.184-1.316.094-1.884.865-2.948.242-.242.242-.242.766-.275l.654.002.65-.002c.591.033.591.033 1.317.275.614 1.227.489 2.324.242 3.629-.081.239-.161.479-.242.726.305.495.627.979.968 1.452.166.319.332.64.484.968h.484c.376-.519.376-.519.739-1.165.13-.216.256-.432.386-.655.725-1.339.837-2.819.412-4.283-.641-1.422-1.627-2.438-3.038-3.101-2.151-.787-4.79-.773-6.48.991Z" fill="#000" fill-opacity=".855"/><path d="M155.298 286.919c2.048 1.049 3.432 2.735 4.23 4.854.623 2.11.349 4.172-.578 6.142-1.21 2.021-2.962 3.45-5.243 4.063-2.437.308-4.454.009-6.452-1.432-1.815-1.509-2.913-3.098-3.213-5.464-.117-2.516.569-4.626 2.209-6.548.439-.348.439-.348.923-.348v-.484l1.165-.469c.215-.087.43-.174.654-.263 1.981-.778 4.289-.746 6.305-.051Zm-8.003 3.914c-.874 1.786-1.062 3.396-.605 5.338a8.996 8.996 0 0 0 1.452 1.936l.726-.242c.251-.559.493-1.124.726-1.694.157-.16.318-.319.484-.484-.072-.448-.072-.448-.242-.968-.238-.912-.283-1.341.045-2.238.452-.689.627-.926 1.406-1.149.708-.106.708-.106 1.452 0 .775.587 1.143.976 1.407 1.92.045.742.045.742.014 1.513.036.824.174.868.757 1.406.278.554.497 1.117.726 1.694.708-.245.954-.467 1.376-1.104.64-1.681.734-3.256.076-4.945-.749-1.384-1.873-2.64-3.388-3.146-2.679-.275-4.624.059-6.412 2.163Z" fill="#000" fill-opacity=".859"/><path d="M156.611 312.625c.152.08.304.158.466.24 1.469.893 2.634 2.577 3.082 4.228.354 2.734.086 5.029-1.595 7.286-1.725 1.897-3.755 2.801-6.309 2.931-2.097-.079-3.746-.889-5.323-2.239-.161-.194-.323-.389-.484-.589l-.515-.56c-1.147-1.645-1.51-3.505-1.421-5.49a28.04 28.04 0 0 1 .968-3.387h.484c.063-.145.13-.29.197-.439.811-1.504 2.317-2.266 3.894-2.781 2.317-.521 4.468-.334 6.556.8Zm-8.711 3.146c-1.004 1.306-1.143 2.673-1.098 4.288.202 1.248.753 2.262 1.582 3.213h.484c.327-.481.649-.965.967-1.452.314-.331.632-.657.968-.968-.121-.21-.242-.419-.363-.635-.385-.867-.484-1.335-.363-2.268.547-1.122.547-1.122 1.21-1.452 1.716-.139 1.717-.139 2.523.377.645 1.005.654 1.936.547 3.101-.054.21-.112.419-.166.635-.161.08-.323.16-.484.242.798.719 1.595 1.437 2.42 2.178.842-.281.994-.471 1.451-1.21.552-1.693.659-3.408 0-5.081-.416-.644-.86-1.207-1.451-1.694h-.484v-.484c-2.823-1.277-5.485-1.05-7.743 1.21Z" fill="#000" fill-opacity=".847"/><path d="M174.019 214.355c.874.001 1.748 0 2.626-.001 2.473-.002 4.947.005 7.42.11l.529.016c.968.052 1.55.197 2.263.875-.018.438-.018.438-.242.967-1.64.867-3.258 1.003-5.095 1.053l-.574.017c-.627.019-1.254.034-1.877.049l-.654.016a253.29 253.29 0 0 1-9.939.041 207.39 207.39 0 0 0-1.38-.017c-.645-.007-1.286-.02-1.931-.035l-.578-.003c-.847-.027-1.358-.092-2.052-.586-.359-.535-.359-.535-.359-1.502 1.143-.67 2.12-.853 3.423-.891l.596-.024c2.608-.093 5.216-.09 7.824-.085Z" fill="#000" fill-opacity=".831"/><path d="M168.041 289.599a4202.642 4202.642 0 0 1 2.429-.01l.645-.002c1.125-.004 2.249-.006 3.37-.007 1.16-.001 2.316-.007 3.477-.014.891-.004 1.783-.006 2.679-.006l1.282-.006a213.13 213.13 0 0 1 1.788-.002l.533-.007c1.125.01 1.895.222 2.854.819.256.484.256.484.242.968-.47.67-.914.813-1.693.968-.404.035-.807.059-1.21.075l-.735.031-.798.028-.842.031c-3.056.103-6.117.113-9.177.108-.954-.001-1.913 0-2.868.002l-1.85-.001-.856.002c-3.903-.012-3.903-.012-4.651-.76.013-.59.013-.59.242-1.21 1.375-1.168 3.423-1.004 5.139-1.007Z" fill="#000" fill-opacity=".843"/><path d="m166.505 263.9.636-.003c.681-.002 1.367.002 2.052.005h1.434c1.004 0 2.003.002 3.002.006 1.282.006 2.563.006 3.845.004.986 0 1.971.001 2.957.004h1.416c.663 0 1.322.004 1.981.007l.591-.002c1.707.017 1.707.017 2.438.553.179.514.179.514.242.968-2.967 2.872-11.418 1.477-15.338 1.482l-.753.001c-7.407.015-7.407.015-8.59-.999.013-.56.013-.56.242-1.21 1.304-.714 2.379-.83 3.845-.816Z" fill="#000" fill-opacity=".839"/><path d="m170.833 240.236 1.071-.002c.739-.002 1.483-.002 2.223-.002.941 0 1.881-.003 2.822-.007.735-.003 1.47-.003 2.205-.003.345 0 .69-.002 1.04-.004 4.7-.023 4.7-.023 6.421.543.327.502.327.502.484.968-.408.587-.771.918-1.47 1.093-.704.087-1.407.137-2.115.177l-.856.055c-3.401.184-6.806.17-10.216.172l-.892.001c-.856 0-1.716-.002-2.572-.006l-.775-.001c-4.051-.025-4.051-.025-5.543-.523-.152-.56-.152-.56-.242-1.21.484-.726.484-.726 1.21-.968 2.393-.266 4.799-.281 7.205-.283Z" fill="#000" fill-opacity=".843"/><path d="m183.348 314.893.789.023c2.33.091 2.33.091 3.445.613.211.514.211.514.242.968-2.357 1.936-6.949 1.248-9.893 1.25l-1.13.003-2.339.001c-.994 0-1.989.003-2.988.007-.771.003-1.546.004-2.317.004-.367 0-.735.001-1.102.003-.515.002-1.026.002-1.537 0l-.883.001c-.82-.061-1.483-.249-2.249-.543-.153-.56-.153-.56-.242-1.21.484-.726.484-.726 1.21-.968a41.35 41.35 0 0 1 1.613-.077l.493-.015c.533-.016 1.066-.03 1.599-.044l.556-.016c4.911-.134 9.817-.16 14.733 0Z" fill="#000" fill-opacity=".816"/><path d="M235.035 224.428c1.16 1.008 1.895 2.065 2.15 3.599.09 1.558-.331 3.106-1.254 4.371-1.25 1.138-2.581 1.487-4.257 1.412-1.595-.196-2.828-.793-3.854-2.055-.43-.922-.475-1.738-.479-2.744-.005-.175-.004-.349-.009-.528.054-1.489.52-2.521 1.532-3.638 1.69-1.154 4.32-1.325 6.171-.417Zm-5.566 2.874c-.363.848-.327 1.211-.026 2.087.492.827 1.008 1.521 1.926 1.879 1.156.203 1.914-.027 2.913-.669.694-.696.667-1.333.748-2.288-.036-.923-.376-1.401-.99-2.068-.731-.572-1.519-.586-2.429-.56-1.021.164-1.532.848-2.142 1.619Z" fill="#000" fill-opacity=".831"/><path d="m168.346 219.679.681.003c1.904.013 3.809.052 5.713.105l1.411.036c5.467.171 5.467.172 6.834.855-.081.399-.161.798-.242 1.21-3.858.937-7.801 1.015-11.753 1.028l-.525.004c-6.058.034-6.058.034-7.563-1.274.044-.575.044-.575.242-1.21 1.519-.894 3.49-.765 5.202-.757Z" fill="#000" fill-opacity=".824"/><path d="m168.467 245.57.726.003a383.832 383.832 0 0 1 3.235.034c1.291.014 2.577.033 3.867.057.435.008.869.014 1.304.02.618.008 1.237.021 1.855.034l.56.005c1.232.034 2.106.297 3.213.845v.968a87.62 87.62 0 0 1-1.062.348l-.592.196c-2.056.488-4.176.465-6.273.473l-.873.004c-.605.003-1.21.004-1.815.005-.923.002-1.851.01-2.774.017l-1.77.004-.829.009c-3.047-.008-3.047-.008-4.095-1.056a21.223 21.223 0 0 1 0-1.21c1.519-.951 3.589-.765 5.323-.756Z" fill="#000" fill-opacity=".831"/><path d="m168.279 269.226.932-.001c.645.001 1.29.002 1.94.007.82.005 1.64.006 2.46.004.793-.001 1.586.002 2.379.004h.883c4.853.04 4.853.04 6.354 1.041v.968c-.955.438-1.77.571-2.814.637l-.964.062-1.035.057-.528.03c-2.64.151-5.279.233-7.922.242l-.915.007c-4.888-.016-4.888-.016-5.905-1.035-.032-.635-.032-.635 0-1.21 1.725-.803 3.253-.828 5.135-.813Zm1.084 25.732.793.017c.547.012 1.098.026 1.649.04.829.022 1.658.04 2.492.058 1.295.028 2.594.065 3.893.108.431.014.856.027 1.287.038.506.014 1.012.033 1.523.055l.807.03c.846.173 1.277.529 1.904 1.109-.081.24-.161.479-.242.726-15.885 2.636-15.885 2.636-20.083 0-.274-.484-.274-.484-.242-.968.708-.918 1.55-.954 2.643-1.127 1.197-.133 2.375-.12 3.576-.086Z" fill="#000" fill-opacity=".82"/><path d="m176.479 320.201.923.026a62.74 62.74 0 0 1 4.687.333l.905.098c.717.194.717.194 1.058.696l.143.466c-2.819 1.579-6.748 1.345-9.921 1.452l-.905.031c-1.891.031-3.759-.089-5.646-.243l-.721-.058c-1.192-.106-2.254-.248-3.374-.698v-1.21c3.714-1.689 8.867-1.013 12.851-.893Z" fill="#000" fill-opacity=".839"/><path d="M409.39 75.148c.56.108.56.108.802.35.211 1.393-.618 2.487-1.268 3.656-.547 1.004-.547 1.004-.636 2.124.269.663.56.883 1.178 1.237.52.17.52.17.968.242v1.21c-.918.528-1.564.578-2.599.434-.851-.3-1.237-.833-1.756-1.55-.39-.937-.417-1.784-.076-2.747.228-.502.479-.99.739-1.474.085-.166.17-.332.255-.502 1.47-2.827 1.47-2.828 2.393-2.98Z" fill="#000" fill-opacity=".78"/><path d="M250.736 25.894c.497.108.497.108.968.242-.13 1.25-.426 2.196-.968 3.325-.636 1.412-1.237 2.845-.968 4.418.426.56.851.816 1.452 1.21v.726c-.883.188-1.488.318-2.344 0-.905-.78-1.46-1.532-1.586-2.724.112-2.478 1.694-5.445 3.446-7.197Z" fill="#000" fill-opacity=".769"/><path d="m47.484 251.65 1.21.242c.058.276.12.553.183.838l.256 1.082c.04.183.076.365.12.554.113.472.256.936.408 1.397.69.315.69.315 1.22.054l.519-.281c.17-.092.345-.184.524-.279l.399-.22c.242.242.242.242.332.908-.09.786-.09.786-.605 1.466-.775.59-1.179.772-2.147.772-.78-.362-1.389-.795-1.935-1.452-.516-1.647-.552-3.371-.484-5.081Z" fill="#000" fill-opacity=".706"/><path d="M422.774 250.682h.968a2920.84 2920.84 0 0 0-.242 4.597l1.936.242c.081.319.157.639.242.968-.565.52-.914.716-1.681.847-.99-.162-1.326-.564-1.949-1.331-.591-1.764-.152-3.392.484-5.081.081-.08.157-.16.242-.242Z" fill="#000" fill-opacity=".69"/></svg>
