<svg viewBox="0 0 532 452" fill="none" xmlns="http://www.w3.org/2000/svg">
<path d="M175.375 175.027C175.683 174.775 175.375 174.271 175.067 174.467C166.918 179.396 118.355 211.827 113.902 214.796C113.594 215.02 113.902 215.524 114.21 215.3C130.286 205.161 170.978 178.22 175.375 175.027ZM176.58 154.946C176.62 154.907 176.646 154.855 176.653 154.799C176.66 154.743 176.648 154.686 176.619 154.637C176.59 154.589 176.545 154.552 176.492 154.531C176.44 154.511 176.382 154.51 176.328 154.526C170.306 157.831 92.3093 204.937 85.6719 209.082C85.6199 209.116 85.5833 209.168 85.5702 209.229C85.557 209.289 85.5684 209.352 85.6019 209.404C85.6353 209.456 85.688 209.493 85.7484 209.506C85.8088 209.519 85.8719 209.508 85.9239 209.474C97.9105 202.473 170.082 159.231 176.58 154.946ZM135.439 163.684C135.489 163.666 135.535 163.637 135.572 163.599C135.61 163.561 135.639 163.515 135.657 163.465C135.675 163.415 135.682 163.361 135.677 163.308C135.672 163.254 135.655 163.203 135.628 163.157C135.601 163.111 135.564 163.071 135.519 163.041C135.475 163.011 135.425 162.991 135.372 162.983C135.319 162.974 135.265 162.977 135.214 162.992C135.162 163.007 135.115 163.033 135.075 163.068C128.129 166.709 86.6241 191.074 82.7872 193.231C82.7427 193.28 82.7153 193.343 82.7092 193.409C82.703 193.475 82.7184 193.541 82.753 193.598C82.7877 193.655 82.8397 193.699 82.9014 193.723C82.9631 193.748 83.0311 193.752 83.0953 193.735C96.7623 186.061 131.686 166.037 135.439 163.684ZM211.615 262.714C212.591 262.395 213.489 261.872 214.247 261.18C215.005 260.487 215.607 259.641 216.012 258.698C216.418 257.754 216.618 256.735 216.598 255.709C216.579 254.682 216.341 253.671 215.9 252.744C215.676 252.744 215.256 252.744 215.312 252.968C216.18 258.765 213.072 261.37 211.419 262.014C210.999 262.238 211.167 262.882 211.615 262.714ZM207.134 256.048C206.977 256.197 206.786 256.305 206.578 256.363C206.37 256.422 206.151 256.43 205.939 256.386C205.728 256.342 205.53 256.247 205.362 256.111C205.195 255.974 205.063 255.799 204.978 255.6C204.39 254.62 202.373 245.21 201.897 244.762C201.851 244.722 201.796 244.694 201.737 244.681C201.678 244.667 201.616 244.669 201.557 244.686C201.499 244.703 201.445 244.734 201.402 244.776C201.359 244.819 201.327 244.872 201.309 244.93C201.735 248.142 202.409 251.316 203.325 254.424C203.383 255.013 203.587 255.578 203.92 256.068C204.253 256.557 204.703 256.955 205.23 257.225C205.439 257.32 205.665 257.372 205.894 257.377C206.123 257.382 206.351 257.34 206.564 257.253C206.777 257.167 206.969 257.038 207.13 256.874C207.291 256.71 207.416 256.515 207.498 256.301C207.442 256.076 207.134 255.88 207.134 256.048ZM211.615 247.115C211.363 245.568 210.998 244.043 210.523 242.55C210.505 242.485 210.474 242.425 210.432 242.373C210.391 242.32 210.339 242.277 210.28 242.244C210.222 242.211 210.158 242.191 210.091 242.183C210.025 242.176 209.957 242.181 209.893 242.199C209.829 242.218 209.768 242.249 209.716 242.29C209.664 242.332 209.62 242.384 209.587 242.442C209.555 242.501 209.534 242.565 209.527 242.631C209.519 242.698 209.524 242.765 209.543 242.83C209.894 244.351 210.343 245.848 210.887 247.311C210.943 247.361 211.01 247.397 211.083 247.414C211.156 247.432 211.232 247.431 211.305 247.411C211.377 247.392 211.444 247.354 211.498 247.303C211.552 247.251 211.592 247.186 211.615 247.115ZM198.004 247.087C197.963 246.99 197.886 246.914 197.789 246.874C197.692 246.835 197.583 246.836 197.486 246.876C197.39 246.917 197.313 246.995 197.274 247.092C197.234 247.189 197.235 247.298 197.276 247.395C197.611 248.703 198.15 249.95 198.872 251.091C198.928 251.124 198.99 251.143 199.055 251.147C199.119 251.152 199.183 251.141 199.243 251.117C199.302 251.093 199.355 251.055 199.398 251.007C199.441 250.959 199.472 250.901 199.489 250.839C199.187 249.52 198.686 248.255 198.004 247.087ZM212.091 239.077C212.287 239.077 212.455 239.077 212.539 238.741C212.623 238.405 211.979 237.48 211.503 237.256C209.403 236.36 206.91 237.761 207.134 238.881C207.106 238.971 207.109 239.067 207.143 239.155C207.176 239.243 207.238 239.318 207.319 239.366C207.4 239.415 207.495 239.434 207.588 239.423C207.682 239.411 207.768 239.368 207.834 239.301C208.371 238.709 209.119 238.353 209.917 238.311C210.714 238.269 211.496 238.545 212.091 239.077ZM196.38 242.129C196.38 242.129 196.576 241.961 196.576 241.821C196.576 241.681 195.932 241.177 195.624 241.177C194.167 241.177 192.991 242.494 193.383 243.11C193.406 243.157 193.442 243.197 193.487 243.225C193.531 243.253 193.583 243.268 193.635 243.268C193.688 243.268 193.74 243.253 193.784 243.225C193.829 243.197 193.864 243.157 193.887 243.11C194.096 242.656 194.472 242.3 194.936 242.118C195.401 241.935 195.918 241.939 196.38 242.129ZM328.345 272.292C328.625 272.012 328.345 271.34 327.897 271.536C327.412 271.83 326.857 271.987 326.291 271.99C325.725 271.994 325.168 271.845 324.68 271.557C324.191 271.27 323.79 270.856 323.518 270.359C323.246 269.862 323.114 269.301 323.136 268.735C323.136 268.594 323.079 268.459 322.98 268.359C322.88 268.259 322.745 268.203 322.603 268.203C322.462 268.203 322.327 268.259 322.227 268.359C322.127 268.459 322.071 268.594 322.071 268.735C322.043 269.479 322.22 270.216 322.582 270.866C322.945 271.516 323.479 272.054 324.126 272.421C324.774 272.788 325.51 272.97 326.254 272.948C326.998 272.925 327.721 272.698 328.345 272.292ZM334.226 265.206C335.206 264.702 335.038 263.246 335.15 262.406C335.29 261.034 335.962 254.676 335.906 254.004C335.85 253.332 335.29 253.472 335.178 254.004C334.898 255.068 334.366 262.77 334.282 263.834C334.282 264.394 334.114 264.87 333.442 264.898C332.903 264.842 332.389 264.638 331.957 264.31C331.914 264.297 331.867 264.298 331.823 264.312C331.78 264.327 331.742 264.354 331.715 264.391C331.687 264.427 331.672 264.471 331.67 264.517C331.668 264.563 331.681 264.608 331.705 264.646C332.406 265.038 333.162 265.683 334.226 265.206ZM326.86 253.192C326.672 254.311 326.615 255.448 326.692 256.581C326.737 256.634 326.793 256.676 326.856 256.706C326.919 256.735 326.987 256.75 327.056 256.75C327.126 256.75 327.194 256.735 327.257 256.706C327.32 256.676 327.376 256.634 327.42 256.581C327.673 255.427 327.842 254.257 327.925 253.08C327.91 252.939 327.839 252.809 327.729 252.72C327.619 252.631 327.478 252.589 327.336 252.604C327.195 252.619 327.066 252.689 326.977 252.799C326.887 252.909 326.845 253.051 326.86 253.192ZM340.303 258.401C340.33 258.511 340.392 258.609 340.481 258.679C340.57 258.749 340.68 258.787 340.793 258.787C340.907 258.787 341.016 258.749 341.105 258.679C341.194 258.609 341.257 258.511 341.283 258.401C341.283 258.401 341.48 256.16 341.48 255.6C341.451 255.477 341.382 255.366 341.283 255.287C341.183 255.208 341.06 255.165 340.933 255.165C340.806 255.165 340.683 255.208 340.584 255.287C340.485 255.366 340.415 255.477 340.387 255.6C340.331 256.16 340.275 258.317 340.303 258.401ZM343.552 251.876C344.784 251.876 342.376 249.523 341.339 248.739C341.305 248.706 341.263 248.68 341.218 248.663C341.174 248.645 341.126 248.637 341.078 248.639C341.029 248.64 340.982 248.651 340.938 248.67C340.894 248.69 340.854 248.718 340.821 248.753C340.788 248.788 340.762 248.829 340.745 248.874C340.728 248.919 340.72 248.967 340.721 249.015C340.722 249.063 340.733 249.11 340.753 249.154C340.772 249.198 340.8 249.238 340.835 249.271C341.199 249.747 343.664 251.876 343.552 251.876ZM324.48 249.271C325.604 248.13 326.91 247.184 328.345 246.47C328.569 246.47 328.345 245.798 328.093 245.826C326.356 246.308 324.865 247.428 323.92 248.963C323.696 249.159 324.2 249.551 324.48 249.271ZM461.682 242.634C461.76 242.663 461.846 242.661 461.922 242.627C461.999 242.592 462.058 242.529 462.088 242.452C462.117 242.374 462.115 242.287 462.081 242.211C462.047 242.135 461.984 242.075 461.906 242.045C459.889 240.813 399.788 216.84 394.691 214.964C394.411 214.964 394.299 215.3 394.691 215.412C412.055 222.413 459.189 241.933 461.682 242.634ZM403.177 202.725C421.269 208.326 467.171 224.878 472.296 226.418C472.604 226.418 472.8 226.026 472.52 225.886C468.263 223.897 408.582 203.481 403.373 201.997C403.276 201.971 403.173 201.984 403.087 202.034C403 202.084 402.937 202.166 402.911 202.263C402.885 202.359 402.898 202.462 402.948 202.549C402.998 202.636 403.08 202.699 403.177 202.725ZM474.228 214.179C474.648 214.179 474.929 213.675 474.536 213.479C470.111 211.463 408.918 188.61 403.597 186.901C396.287 184.829 468.067 212.303 474.228 214.179ZM403.821 123.86C404.521 125.209 405.628 126.304 406.986 126.988C408.343 127.672 409.882 127.91 411.383 127.669C414.603 127.444 414.799 125.792 418.048 129.461C419.165 130.771 420.107 132.22 420.849 133.774C421.129 134.39 421.941 134.11 422.137 133.606C423.425 130.497 426.254 123.44 426.59 123.328C426.926 123.216 464.986 110.277 468.123 108.652C469.487 108.047 470.704 107.156 471.695 106.04C472.685 104.924 473.425 103.609 473.864 102.183C474.448 98.8885 474.314 95.507 473.472 92.2688C472.8 88.292 472.044 84.3151 471.232 80.3382C471.005 77.1644 469.724 74.1576 467.591 71.7964C466.343 70.9312 464.933 70.3287 463.445 70.0254C461.958 69.7221 460.424 69.7243 458.937 70.032C455.408 70.4241 412.251 83.811 405.473 87.1157C398.696 90.4204 396.119 92.969 398.164 102.631C398.836 106.58 402.057 121.031 403.821 123.86ZM402.057 90.2524C404.857 88.32 459.441 70.9002 462.69 71.2643C464.287 71.3851 465.796 72.0434 466.971 73.1318C468.145 74.2202 468.917 75.6745 469.159 77.2576C470.912 84.3047 472.185 91.4627 472.968 98.6822C473.071 100.311 472.727 101.937 471.971 103.383C471.216 104.83 470.079 106.042 468.683 106.888C465.883 108.596 426.674 122.403 425.946 122.599C424.089 125.492 422.541 128.571 421.325 131.785C420.196 129.496 418.462 127.559 416.312 126.184C415.5 125.708 414.379 125.428 409.87 126.352C406.342 127.08 404.269 122.964 403.345 119.883C401.348 112.998 399.749 106.003 398.556 98.9343C398.254 97.3 398.422 95.6134 399.042 94.0713C399.662 92.5291 400.707 91.195 402.057 90.2244V90.2524Z" fill="#0B0B14"/>
<path d="M415.444 115.514C415.192 115.514 415.444 115.99 415.444 115.906C422.725 113.302 455.52 101.903 458.909 100.111C459.217 100.111 458.909 99.4947 458.685 99.5788C455.072 100.447 422.781 112.798 415.444 115.514ZM408.47 107.056C417.152 104.256 425.946 101.875 434.432 98.6546C434.491 98.6546 434.548 98.631 434.59 98.589C434.632 98.5469 434.656 98.4899 434.656 98.4305C434.656 98.3711 434.632 98.3141 434.59 98.2721C434.548 98.2301 434.491 98.2065 434.432 98.2065C425.666 100.587 417.124 103.808 408.526 106.832C408.51 106.803 408.485 106.779 408.455 106.764C408.424 106.749 408.391 106.744 408.357 106.748C408.324 106.753 408.293 106.767 408.268 106.79C408.243 106.812 408.225 106.841 408.217 106.874C408.208 106.907 408.21 106.941 408.222 106.973C408.233 107.004 408.254 107.032 408.281 107.051C408.309 107.071 408.341 107.082 408.375 107.083C408.409 107.084 408.442 107.074 408.47 107.056ZM410.795 96.5261C423.313 92.8853 456.388 81.0387 457.873 80.0865C457.917 80.0681 457.957 80.0412 457.991 80.0074C458.024 79.9735 458.051 79.9333 458.069 79.8891C458.088 79.8449 458.097 79.7975 458.097 79.7497C458.097 79.7019 458.087 79.6546 458.069 79.6104C458.05 79.5663 458.024 79.5262 457.99 79.4925C457.956 79.4587 457.916 79.432 457.871 79.4138C457.827 79.3956 457.78 79.3863 457.732 79.3864C457.684 79.3865 457.637 79.396 457.593 79.4144C455.996 79.6944 414.239 95.0418 410.711 96.218C410.515 96.246 410.599 96.5821 410.795 96.5261ZM267.095 67.9319C267.073 70.1947 267.737 72.4111 269 74.2893C270.046 75.5746 271.372 76.6037 272.877 77.2979C274.381 77.992 276.025 78.3328 277.682 78.2941C282.24 78.1776 286.801 78.2898 291.349 78.6302C291.426 79.506 291.426 80.387 291.349 81.2628C291.013 85.2116 289.78 86.864 285.747 87.5922C284.795 87.5922 285.215 89.1885 286.167 89.0485C286.167 89.0485 299.022 94.1456 303.419 79.4424C364.248 78.5462 359.431 78.6582 361.028 78.2941C361.994 78.0936 362.893 77.6484 363.639 77.0012C364.384 76.3539 364.951 75.5262 365.285 74.5973C366.097 72.5809 367.441 48.6917 367.777 43.1745C368.001 39.3377 368.953 34.0725 365.957 31.0199C364.42 29.6505 362.413 28.9281 360.356 29.0034C357.723 28.8074 275.217 34.0445 273.341 34.6046C268.72 36.089 267.179 39.2256 266.955 43.9587C266.759 49.3919 266.955 65.2713 267.095 67.9319ZM268.524 42.8664C269.084 37.7413 272.108 36.0609 277.206 35.4728C282.303 34.8847 350.189 30.2357 355.399 30.3757C357.849 30.2684 360.303 30.4564 362.708 30.9358C367.189 32.1961 366.601 37.4332 366.321 41.7462C364.444 71.5447 364.837 73.7011 362.848 75.7176C360.86 77.734 361.644 76.8658 303.027 78.2101C302.868 78.2229 302.719 78.2919 302.606 78.4048C302.493 78.5177 302.424 78.6671 302.411 78.8262C302.205 80.443 301.66 81.9979 300.812 83.3893C299.963 84.7806 298.83 85.9769 297.487 86.8998C296.143 87.8226 294.62 88.4512 293.017 88.7442C291.414 89.0373 289.767 88.9883 288.184 88.6004C290.078 87.8734 291.633 86.4658 292.545 84.653C293.457 82.8402 293.659 80.7525 293.113 78.7982C293.062 78.4442 292.915 78.1108 292.688 77.8344C292.461 77.5579 292.162 77.3489 291.825 77.2299C287.285 76.6341 282.696 76.5027 278.13 76.8378C276.559 76.972 274.98 76.7059 273.54 76.0643C272.1 75.4227 270.846 74.4266 269.896 73.169C268.772 71.0652 268.268 68.6863 268.44 66.3075C268.412 63.5909 268.272 45.2189 268.524 42.8664Z" fill="#0B0B14"/>
<path d="M289.248 47.7115C304.007 47.7115 342.068 47.7115 346.269 47.3474C346.549 47.3474 346.549 46.8993 346.269 46.8993C342.544 46.6193 293.477 47.3194 289.248 47.4595V47.7115ZM287.232 59.8382C300.619 59.5861 334.982 59.11 338.763 58.97C338.815 58.97 338.865 58.9493 338.902 58.9126C338.938 58.8758 338.959 58.8259 338.959 58.7739C338.959 58.7219 338.938 58.6721 338.902 58.6353C338.865 58.5985 338.815 58.5779 338.763 58.5779C325.376 58.5779 290.984 59.306 287.232 59.3901C286.924 59.3901 286.924 59.8662 287.232 59.8382ZM339.911 68.352C335.374 68.0439 317.114 68.212 312.549 68.352C312.482 68.352 312.418 68.3786 312.371 68.4258C312.324 68.4731 312.297 68.5372 312.297 68.6041C312.297 68.6709 312.324 68.735 312.371 68.7823C312.418 68.8296 312.482 68.8561 312.549 68.8561C317.114 68.8561 335.374 69.2202 339.911 68.8561C339.978 68.8561 340.042 68.8296 340.089 68.7823C340.137 68.735 340.163 68.6709 340.163 68.6041C340.163 68.5372 340.137 68.4731 340.089 68.4258C340.042 68.3786 339.978 68.352 339.911 68.352ZM100.991 56.3374C102.155 57.9337 103.891 59.0176 105.836 59.3621C110.933 60.6783 132.106 63.619 137.427 64.0391C150.996 65.1078 164.626 65.164 178.204 64.2071C178.361 65.9461 178.907 67.6276 179.8 69.128C180.693 70.6283 181.911 71.9093 183.365 72.8766C184.819 73.844 186.471 74.473 188.2 74.7175C189.929 74.962 191.69 74.8156 193.355 74.2893C193.478 74.2573 193.589 74.1897 193.673 74.095C193.758 74.0003 193.813 73.8827 193.831 73.7571C193.849 73.6314 193.829 73.5032 193.774 73.3886C193.72 73.274 193.632 73.1782 193.523 73.1131C192.025 72.0034 190.838 70.5259 190.078 68.8235C189.317 67.1211 189.009 65.2514 189.182 63.3949C193.694 64.5777 198.456 64.3727 202.849 62.8068C207.386 60.7624 208.843 57.2056 209.347 52.4446C209.907 47.1234 210.215 25.5587 209.851 20.1815C209.82 18.0296 209.272 15.9166 208.255 14.0202C207.356 12.2716 205.853 10.9083 204.026 10.1834C181.201 2.87378 113.118 -0.262896 110.653 0.0171652C108.679 0.100417 106.763 0.713862 105.107 1.79308C103.451 2.8723 102.117 4.37746 101.243 6.15049C95.726 19.0053 99.7309 54.405 100.991 56.3374ZM100.459 13.152C100.759 9.48292 102.417 6.05763 105.108 3.54593C108.749 0.745319 113.734 1.30544 118.047 1.5575C143.807 2.5989 169.485 5.13304 194.952 9.14714C202.065 10.3794 207.554 11.7237 208.339 19.0613C209.441 31.5365 209.036 44.099 207.134 56.4774C206.243 58.4892 204.755 60.1783 202.871 61.3155C200.987 62.4528 198.799 62.9832 196.604 62.8348C191.003 62.9748 188.202 61.2385 188.202 62.4707C187.891 64.4532 188.073 66.4818 188.733 68.3771C189.392 70.2724 190.508 71.976 191.983 73.3371C190.446 73.5735 188.876 73.4873 187.374 73.0838C185.872 72.6804 184.471 71.9687 183.259 70.9939C182.047 70.0192 181.051 68.8028 180.335 67.4221C179.619 66.0415 179.199 64.5269 179.1 62.9748C155.678 64.3756 132.172 62.8894 109.113 58.5499C106.87 58.4089 104.709 57.6532 102.868 56.3654C101.215 54.7971 101.299 52.1085 100.935 50.036C99.281 37.8062 99.1211 25.4205 100.459 13.152Z" fill="#0B0B14"/>
<path d="M117.879 22.5901C134.907 22.058 178.652 24.8866 183.525 25.1107C183.805 25.1107 183.889 24.6346 183.525 24.6346C143.168 21.3018 122.696 22.114 117.823 22.3101C117.804 22.3137 117.787 22.321 117.771 22.3314C117.756 22.3419 117.742 22.3553 117.732 22.3709C117.722 22.3865 117.714 22.404 117.711 22.4224C117.707 22.4408 117.707 22.4597 117.711 22.4781C117.715 22.4965 117.722 22.514 117.732 22.5296C117.743 22.5451 117.756 22.5585 117.772 22.5689C117.787 22.5793 117.805 22.5865 117.823 22.5902C117.842 22.5938 117.86 22.5938 117.879 22.5901ZM115.862 39.2257C126.225 39.4778 189.546 40.9061 195.344 40.7661C195.568 40.7661 195.568 40.43 195.344 40.402C185.009 39.7299 121.66 38.8897 115.862 38.7776C115.582 38.7776 115.582 39.1977 115.862 39.2257ZM181.005 52.3886C178.008 51.8565 149.806 52.3886 143.504 52.8367C143.14 52.8367 143.14 53.4248 143.504 53.3968C149.722 52.9487 177.812 53.1448 180.949 52.8927C181.229 52.8647 181.313 52.4446 181.005 52.3886ZM9.15925 122.432C10.0476 123.58 11.1904 124.507 12.4977 125.139C13.805 125.77 15.2411 126.09 16.6929 126.073C20.1656 126.241 53.801 123.412 55.9014 123.272C62.5108 122.936 64.3032 125.653 64.8354 132.57C64.8404 132.726 64.8953 132.876 64.992 132.998C65.0888 133.121 65.2223 133.209 65.3728 133.25C65.5233 133.29 65.683 133.282 65.8282 133.225C65.9735 133.168 66.0967 133.066 66.1796 132.934C67.7878 129.497 69.036 125.902 69.9045 122.208C75.2256 122.768 82.5632 123.804 85.5879 118.259C88.4395 106.92 88.7551 95.0907 86.5121 83.6154C86.3213 82.8109 85.8624 82.0953 85.2109 81.5863C84.5594 81.0773 83.754 80.8052 82.9273 80.8148C54.165 78.9384 12.436 81.0668 0.6454 81.879C0.47677 81.8859 0.316904 81.956 0.197566 82.0753C0.0782272 82.1947 0.0081508 82.3545 0.00125947 82.5232C-0.110765 99.8029 7.28284 119.939 9.15925 122.432ZM82.1431 81.767C83.0953 81.767 84.5796 81.767 84.9437 82.8312C88.8086 98.2066 84.5516 117.811 83.2914 119.043C80.1267 122.18 73.7413 121.256 69.2883 120.835C68.9522 120.835 67.5239 128.509 66.0396 130.47C65.8939 128.539 65.2993 126.669 64.3032 125.008C63.5001 123.843 62.3882 122.924 61.0922 122.355C59.7961 121.786 58.3672 121.59 56.9656 121.788C41.5623 123.664 16.7209 125.12 13.6682 124.056C10.6156 122.992 9.15925 119.603 8.06701 116.663C6.97478 113.722 1.0935 95.686 1.23353 82.9993C20.8378 81.655 44.699 81.1789 82.1431 81.767Z" fill="#0B0B14"/>
<path d="M15.6567 92.8295C23.6664 92.8295 74.8616 92.1293 77.046 91.7653C77.3541 91.7653 77.2421 91.2892 77.046 91.2611C75.0576 91.0091 20.1937 92.2974 15.7127 92.3814C15.3486 92.4094 15.3486 92.8575 15.6567 92.8295ZM21.706 104.452C21.3699 104.452 21.3699 105.012 21.706 104.984C36.7453 103.5 75.6177 102.492 79.8747 102.184C79.9415 102.184 80.0056 102.157 80.0529 102.11C80.1001 102.062 80.1267 101.998 80.1267 101.931C80.1267 101.865 80.1001 101.801 80.0529 101.753C80.0056 101.706 79.9415 101.679 79.8747 101.679C76.1218 101.287 25.9349 103.948 21.706 104.452ZM54.8092 111.285C52.2046 111.285 41.8424 111.958 39.2658 112.126C39.1841 112.126 39.1057 112.158 39.048 112.216C38.9902 112.274 38.9577 112.352 38.9577 112.434C38.9577 112.515 38.9902 112.594 39.048 112.652C39.1057 112.709 39.1841 112.742 39.2658 112.742C41.8424 112.742 52.2326 112.182 54.8092 111.902C55.2013 111.846 55.2013 111.285 54.8092 111.285ZM473.192 437.556C472.576 436.52 469.775 431.955 468.963 430.611C470.323 429.467 471.536 428.159 472.576 426.718C472.576 426.718 447.091 377.848 428.719 357.207C410.347 336.567 404.045 331.805 395.503 330.853C386.961 329.901 373.098 339.815 367.161 344.716C361.56 349.197 353.606 357.459 352.318 358.719C349.517 358.719 346.717 358.859 343.916 359.027C345.388 356.751 346.663 354.352 347.725 351.858C351.702 343.148 349.489 339.983 344.924 325.532C359.291 327.997 375.199 327.969 386.597 319.091C403.905 305.676 412.671 274.589 418.328 254.677C418.363 254.541 418.355 254.398 418.305 254.268C418.254 254.137 418.165 254.026 418.048 253.949L416.928 253.332C421.056 251.699 424.686 249.015 427.458 245.547C439.494 249.297 451.783 252.18 464.23 254.173C480.166 255.713 486.411 246.919 492.796 232.356C495.122 227.835 496.647 222.946 497.305 217.905C497.546 215.643 497.311 213.357 496.617 211.191C495.923 209.026 494.783 207.03 493.273 205.33C489.874 202.166 485.913 199.668 481.594 197.964C476.889 195.696 417.18 175.559 406.79 173.291C402.085 172.199 396.736 170.49 391.891 171.639C389.9 172.349 388.078 173.462 386.536 174.907C384.994 176.353 383.766 178.1 382.929 180.04C378.238 189.121 375.383 199.038 374.527 209.223C373.379 221.013 376.235 226.727 391.863 229.219C391.986 233.339 390.522 237.35 387.774 240.422C387.774 240.562 387.774 241.066 387.998 241.094C390.98 241.157 393.944 240.61 396.708 239.488C399.472 238.366 401.978 236.692 404.073 234.568C408.024 236.38 412.129 237.833 416.34 238.909C409.842 243.81 410.487 247.899 410.739 248.851C409.904 248.12 409.109 247.344 408.358 246.527C408.259 246.434 408.129 246.383 407.994 246.383C407.859 246.383 407.729 246.434 407.63 246.527C396.259 255.237 380.828 276.129 377.523 279.938C369.682 288.872 364.613 289.908 353.998 287.444C353.998 287.136 353.578 270.248 359.403 260.754C365.229 251.26 366.013 236.501 359.403 227.847C352.794 219.193 345.961 220.789 345.961 220.789C342.064 216.736 337.142 213.814 331.717 212.335C326.293 210.856 320.569 210.874 315.154 212.387C295.298 216.98 288.576 226.671 284.347 247.003C280.118 267.335 262.782 278.426 261.326 279.63C255.37 277.472 248.991 276.743 242.702 277.502C242.534 277.334 234.972 262.714 234.3 260.698C235.953 256.637 240.742 245.435 240.742 243.334C240.796 242.346 240.56 241.362 240.063 240.506C239.565 239.65 238.827 238.959 237.941 238.517C240.078 237.717 241.864 236.189 242.984 234.201C244.105 232.213 244.488 229.894 244.066 227.651C243.645 225.409 242.445 223.387 240.679 221.942C238.913 220.498 236.694 219.722 234.412 219.753C234.392 217.756 233.914 215.789 233.016 214.005C232.117 212.221 230.822 210.666 229.229 209.46C227.637 208.254 225.789 207.429 223.828 207.048C221.867 206.667 219.845 206.74 217.917 207.262C215.482 208.543 213.277 210.218 211.391 212.219C204.334 208.635 191.787 206.338 185.99 210.707C184.325 212.027 183.146 213.864 182.639 215.927C182.132 217.991 182.325 220.164 183.189 222.106C183.973 223.786 185.99 225.578 185.066 227.259C183.165 230.95 182.744 235.227 183.889 239.217C184.77 241.477 186.3 243.426 188.286 244.819C189.154 245.407 191.423 246.807 191.871 247.031C192.879 262.294 201.757 270.752 210.635 271.928C210.775 275.513 210.943 279.07 211.111 282.655C199.825 280.534 188.755 277.394 178.036 273.273C177.616 272.853 162.745 229.387 160.448 222.862C160.402 222.726 160.316 222.608 160.201 222.523C160.086 222.437 159.947 222.39 159.804 222.386H155.015C154.119 217.064 160.616 212.92 154.539 206.562C154.791 206.366 167.114 198.973 168.094 198.16C171.052 200.721 174.768 202.242 178.673 202.49C182.578 202.738 186.456 201.699 189.715 199.533C189.819 199.46 189.899 199.356 189.942 199.237C189.985 199.117 189.99 198.987 189.957 198.864C189.923 198.741 189.852 198.631 189.753 198.551C189.655 198.47 189.534 198.422 189.406 198.412C187.019 198.296 184.71 197.523 182.734 196.179C180.758 194.835 179.19 192.972 178.204 190.795C182.079 189.212 185.58 186.837 188.482 183.821C190.009 181.858 191.115 179.602 191.731 177.193C192.348 174.784 192.462 172.273 192.067 169.818C191.237 164.285 189.335 158.967 186.466 154.163C185.01 151.558 179.744 142.316 178.456 140.328C177.405 138.346 175.962 136.599 174.214 135.193C172.467 133.787 170.451 132.752 168.29 132.15C162.689 131.114 157.087 133.942 151.878 136.015C141.152 140.384 79.7346 173.207 74.8616 176.428C70.4393 179.293 66.2447 182.495 62.3148 186.006C60.825 188.116 59.8707 190.557 59.5341 193.119C59.1974 195.68 59.4886 198.285 60.3824 200.709C61.7267 205.694 78.6424 231.684 80.5748 233.476C81.9559 234.848 83.4872 236.06 85.1398 237.089C89.1 238.73 93.511 238.929 97.6025 237.649C100.403 236.837 131.21 221.013 140.06 215.832C141.235 218.946 143.336 221.624 146.081 223.506C145.185 223.674 144.289 223.842 143.28 224.066C141.207 233.798 139.72 243.646 138.827 253.556C137.651 270.164 140.032 287.528 150.03 300.859C160.028 314.19 176.636 320.267 193.103 325.056C191.955 327.184 189.322 344.268 191.759 356.283C191.339 356.283 178.988 354.266 178.848 354.462L178.26 355.275C176.3 354.462 175.011 355.107 172.827 351.774C171.567 349.925 170.362 347.937 167.898 347.741C166.709 347.645 165.516 347.851 164.428 348.341C163.341 348.83 162.396 349.587 161.68 350.542C159.972 352.641 158.842 355.152 158.404 357.823C158.404 358.187 158.712 358.411 159.02 358.439C162.913 358.831 163.501 356.955 165.153 358.439C162.521 358.663 159.86 358.831 157.227 358.999C154.427 356.199 109.057 296.994 105.556 293.829C105.36 293.661 48.3958 299.15 46.5194 299.738C46.2393 299.738 46.6594 300.691 46.8555 300.915C54.2491 308.308 98.2747 358.915 100.291 361.016C100.291 361.296 100.291 361.268 106.312 361.212C106.312 363.06 106.62 364.937 106.845 366.813C106.844 366.935 106.891 367.052 106.974 367.14C107.057 367.229 107.171 367.282 107.293 367.289L112.11 367.093C110.541 368.381 103.904 374.235 92.5054 390.618C84.533 402.052 77.624 414.192 71.8649 426.886C73.2764 428.12 74.7738 429.253 76.3459 430.275C75.6177 431.731 71.7809 439.601 71.7249 439.685C68.0561 442.121 59.7383 443.326 57.5258 444.306C56.9729 444.474 56.4673 444.77 56.0494 445.17C55.6316 445.569 55.3132 446.061 55.1198 446.605C54.9265 447.15 54.8635 447.732 54.936 448.306C55.0085 448.879 55.2145 449.428 55.5374 449.907C56.8816 451.896 78.9224 451.672 82.5352 451.027C86.148 450.383 79.1185 448.227 88.4445 437.388C91.2451 438.649 92.9535 439.293 92.9535 439.293C110.261 430.891 137.763 405.994 150.646 392.439C150.646 392.439 168.682 410.587 180.557 420.949C192.431 431.311 207.975 448.591 237.185 446.854C266.395 445.118 270.26 422.181 270.26 422.181C270.26 422.181 262.39 410.979 264.463 400.504C265.666 400.767 266.839 401.152 267.964 401.653C267.712 406.75 267.964 435.96 302.831 445.93C341.115 456.881 369.318 420.305 379.064 408.206C388.81 396.107 395.671 386.165 395.671 386.165C404.306 399.531 415.029 411.426 427.43 421.397C447.735 437.584 452.636 439.209 452.636 439.209C454.574 439.004 456.466 438.484 458.237 437.668C465.463 442.261 460.533 446.07 463.614 446.602C467.115 447.359 485.039 448.087 485.487 445.398C485.935 442.71 476.189 439.013 473.192 437.556ZM81.667 443.662C76.0658 445.678 73.7413 440.049 73.2652 439.013C73.8533 437.753 76.3179 432.263 76.99 430.779C78.1663 431.619 85.7559 436.156 87.6883 437.08C86.5401 438.313 82.5632 442.71 81.639 443.662H81.667ZM404.241 233.616C404.158 233.561 404.061 233.531 403.961 233.531C403.861 233.531 403.764 233.561 403.681 233.616C399.591 237.429 394.35 239.774 388.782 240.282C390.321 238.732 391.52 236.877 392.302 234.837C393.083 232.797 393.429 230.617 393.319 228.435C393.313 228.281 393.258 228.133 393.162 228.012C393.067 227.892 392.935 227.804 392.787 227.763C376.543 225.186 373.042 220.397 377.355 200.065C378.84 193.091 382.957 179.564 388.558 174.859C392.535 171.499 397.66 172.451 402.337 173.515C412.055 175.7 482.518 199.729 486.663 202.109C494.813 206.814 498.034 213.452 493.637 225.438C491.172 232.16 486.691 242.242 481.51 247.171C474.06 254.285 465.406 252.772 455.492 250.868C443.59 248.627 431.967 246.275 421.409 240.702C421.882 239.495 422.248 238.248 422.501 236.977C422.501 236.473 422.781 235.549 422.221 235.212C420.601 235.941 419.053 236.823 417.6 237.845C413 236.928 408.512 235.52 404.213 233.644L404.241 233.616ZM412.643 244.034C414.987 240.977 418.006 238.504 421.465 236.809C421.324 238.145 420.85 239.424 420.087 240.53C419.323 241.636 418.295 242.532 417.096 243.138C416.966 243.212 416.871 243.335 416.831 243.48C416.792 243.624 416.812 243.778 416.886 243.908C416.96 244.038 417.083 244.133 417.228 244.173C417.372 244.212 417.526 244.193 417.656 244.118C422.473 241.682 417.348 241.318 426.394 244.987C424.462 248.515 416.956 252.156 415.92 252.604C414.318 251.663 412.8 250.585 411.383 249.384C411.348 247.542 411.751 245.718 412.559 244.062L412.643 244.034ZM310.113 260.222C308.544 259.214 306.444 260.95 304.512 256.329C304.086 255.572 303.858 254.721 303.848 253.853C303.837 252.985 304.045 252.128 304.452 251.361C304.859 250.595 305.452 249.942 306.177 249.465C306.902 248.987 307.735 248.699 308.6 248.627C311.261 248.431 311.261 249.608 312.577 250.28C313.894 250.952 322.435 246.555 327.617 239.413C330.22 236.277 332.223 232.689 333.526 228.827C335.476 232.466 338.001 235.767 341.003 238.601C343.135 240.985 345.987 242.608 349.125 243.222C349.125 243.222 351.366 288.032 328.009 283.999C328.009 283.831 326.356 283.019 326.608 283.747C327.931 287.113 328.87 290.617 329.409 294.193C329.773 297.218 328.849 301.615 324.956 301.447C323.237 301.216 321.596 300.583 320.167 299.598C313.27 295.586 307.491 289.904 303.363 283.075C303.699 282.795 311.625 261.258 310.029 260.25L310.113 260.222ZM197.36 261.314C193.955 255.448 192.366 248.703 192.795 241.934C193.013 238.002 193.444 234.085 194.083 230.199C195.388 232.13 197.4 233.468 199.685 233.924C205.731 235.626 212.199 234.965 217.777 232.076C217.715 233.681 218.033 235.279 218.705 236.739C219.376 238.199 220.382 239.479 221.641 240.478C221.697 239.799 221.939 239.15 222.34 238.6C222.741 238.051 223.287 237.622 223.916 237.363C224.545 237.103 225.233 237.022 225.905 237.129C226.577 237.236 227.207 237.526 227.725 237.967C228.242 238.409 228.628 238.985 228.84 239.631C229.051 240.278 229.08 240.971 228.923 241.633C228.766 242.295 228.429 242.901 227.95 243.384C227.471 243.867 226.867 244.208 226.206 244.37C228.487 246.805 229.955 249.888 230.407 253.192C232.48 261.594 241.162 277.418 241.61 278.062C240.835 283.154 238.238 287.792 234.3 291.113C228.699 295.846 220.045 298.534 214.332 293.913C211.531 291.729 212.091 277.362 211.811 271.144C211.804 270.976 211.734 270.816 211.615 270.696C211.496 270.577 211.336 270.507 211.167 270.5C208.315 270.109 205.586 269.083 203.182 267.498C200.778 265.913 198.76 263.81 197.276 261.342L197.36 261.314ZM98.8908 235.408C94.8331 237.01 90.3408 237.129 86.204 235.745C84.4677 234.876 59.9623 203.454 60.9985 193.035C61.5027 187.658 65.4515 184.269 69.5964 181.441C73.9374 178.22 152.186 136.911 157.452 134.895C162.717 132.878 168.01 131.702 172.687 135.371C176.132 138.171 186.186 155.535 188.342 160.744C191.367 167.97 192.487 177.324 187.39 182.981C184.349 185.924 180.749 188.228 176.804 189.759C176.686 189.828 176.595 189.934 176.544 190.061C176.493 190.188 176.486 190.327 176.524 190.459C177.398 192.774 178.883 194.809 180.821 196.347C182.759 197.886 185.077 198.87 187.53 199.197C184.504 200.83 181.065 201.538 177.64 201.235C174.214 200.931 170.954 199.628 168.262 197.488C167.534 196.9 153.755 205.33 153.475 205.554C152.712 204.704 151.75 204.059 150.674 203.678C150.213 203.527 149.714 203.53 149.255 203.686C148.795 203.843 148.399 204.144 148.126 204.546C147.481 205.694 148.126 207.206 148.658 208.299C148.658 208.607 148.406 208.803 148.013 209.027C139.08 214.404 101.411 234.484 98.8068 235.436L98.8908 235.408ZM140.9 215.132L148.966 210.455C148.594 211.942 148.369 213.461 148.294 214.992C148.294 215.3 148.742 215.496 148.91 215.16C149.384 213.504 149.703 211.807 149.862 210.091C150.268 210.88 150.746 211.63 151.29 212.331C151.486 212.612 151.934 212.331 151.85 212.023C151.402 210.791 148.041 205.386 149.89 204.714C151.738 204.042 154.931 208.495 155.491 209.363C157.732 213.676 152.971 218.017 153.783 222.358C153.055 222.358 148.994 222.778 147.677 222.974C144.49 221.291 142.015 218.517 140.704 215.16L140.9 215.132ZM105.052 294.529C107.853 297.33 152.662 355.807 155.687 358.943L152.887 359.083C149.89 354.883 108.077 299.458 104.604 294.669L105.052 294.529ZM100.711 360.26C99.2829 358.159 51.7005 304.416 47.7797 300.131C49.208 300.131 103.428 295.202 103.512 295.089C116.143 311.893 148.322 354.826 151.822 359.083C149.078 359.167 106.116 359.868 100.711 360.26ZM107.629 366.113C107.461 364.405 107.293 362.696 106.985 361.016C114.266 361.016 162.997 359.56 165.965 359.223C166.919 360.378 168.094 361.33 169.422 362.023C170.749 362.715 172.202 363.135 173.695 363.256C173.947 363.256 174.115 362.78 173.695 362.752C170.806 362.135 168.228 360.519 166.413 358.187C165.657 357.263 164.929 356.423 163.613 356.507C162.315 357.093 160.882 357.315 159.468 357.151C160.008 354.866 161.073 352.737 162.577 350.934C163.292 349.97 164.31 349.275 165.469 348.96C166.627 348.645 167.857 348.728 168.962 349.197C170.754 350.262 171.483 352.586 172.883 354.042C174.062 355.253 175.649 355.982 177.336 356.087C175.867 358.417 174.647 360.895 173.695 363.48C156.723 364.18 112.53 365.861 107.713 366.057L107.629 366.113ZM220.353 394.707C205.425 389.952 190.954 383.869 177.112 376.531C175.425 375.814 174.073 374.483 173.331 372.806C172.743 370.79 177.7 357.739 178.932 354.77C180.248 355.527 193.187 357.963 220.325 358.943C224.33 359.083 228.335 358.943 232.34 358.607C232.442 358.606 232.542 358.582 232.634 358.536C232.725 358.491 232.805 358.425 232.867 358.344C232.929 358.263 232.971 358.169 232.992 358.069C233.012 357.969 233.009 357.866 232.984 357.767C231.611 353.922 230.937 349.863 230.996 345.781C230.975 345.711 230.932 345.65 230.874 345.607C230.816 345.564 230.746 345.54 230.673 345.54C230.601 345.54 230.531 345.564 230.473 345.607C230.415 345.65 230.372 345.711 230.351 345.781C229.694 349.681 230.061 353.686 231.416 357.403C218.411 358.193 205.362 357.79 192.431 356.199C190.912 339.55 193.659 322.789 200.413 307.496C200.581 307.132 200.049 306.964 199.797 307.244C196.744 310.829 194.196 320.827 193.411 323.208C178.708 318.755 163.165 314.106 152.803 301.979C132.918 278.65 140.872 243.978 143.617 224.766C148.711 223.741 153.916 223.374 159.104 223.674C163.165 235.549 176.3 273.805 176.664 274.085C187.652 278.713 199.164 281.985 210.943 283.831C210.439 293.465 213.436 295.342 215.704 296.462C224.806 300.831 240.91 292.177 242.73 278.258C248.651 277.606 254.642 278.335 260.234 280.386C251.832 287.444 243.122 296.63 244.046 309.765C245.055 323.768 252.056 331.917 255.249 330.069C249.143 350.598 245.895 387.005 263.511 399.468C249.368 403.641 233.964 399.076 220.353 394.707ZM321.875 394.483C308.684 399.44 290.116 403.501 276.729 402.297C272.857 401.844 269.131 400.546 265.816 398.494C262.501 396.442 259.678 393.686 257.545 390.422C253.656 382.771 251.731 374.273 251.944 365.693C251.495 348.576 255.053 331.591 262.334 316.094C270.484 298.87 283.675 283.495 302.579 283.775C306.18 289.244 310.579 294.143 315.63 298.31C317.954 299.991 322.127 302.763 324.984 302.735C327.841 302.707 330.725 299.935 330.585 295.089C332.378 298.898 334.982 302.287 338.679 302.651C346.549 303.435 353.354 295.398 354.026 288.648C363.184 290.749 368.926 290.412 376.039 283.271C380.464 278.846 391.246 264.675 396.343 258.878C399.928 254.845 404.241 251.512 408.05 247.675C410.635 250.448 413.629 252.81 416.928 254.677C411.719 272.993 403.681 301.615 388.306 315.87C382.959 320.81 376.223 323.988 369.01 324.972C360.888 326.232 352.822 325.14 344.672 324.72C344.084 322.872 340.023 310.577 338.483 306.292C338.483 306.24 338.462 306.19 338.425 306.153C338.389 306.117 338.339 306.096 338.287 306.096C338.235 306.096 338.185 306.117 338.148 306.153C338.111 306.19 338.091 306.24 338.091 306.292C339.799 312.453 347.165 335.67 348.089 339.311C348.528 341.097 348.717 342.935 348.649 344.772C348.649 349.029 343.048 358.943 343.048 359.055C327.198 360.022 311.574 363.296 296.67 368.773C296.67 368.129 296.446 346.817 296.194 344.8C296.194 344.436 295.634 344.576 295.578 344.8C295.382 346.873 295.746 368.269 295.998 368.914C293.533 369.866 291.097 370.846 288.66 371.91C288.38 371.91 288.66 372.47 288.856 372.358C311.144 363.486 335.039 359.365 359.011 360.26C359.011 360.876 360.692 370.286 360.72 370.398C360.748 370.51 336.158 389.078 321.959 394.483H321.875ZM361.308 367.765C361.308 366.841 360.356 361.66 360.328 361.576C361.959 358.074 364.878 355.335 368.477 353.93C368.218 355.133 367.626 356.239 366.769 357.123C366.461 357.515 366.769 358.271 367.357 357.907C367.945 357.543 367.357 357.403 367.917 358.551C367.95 358.653 368.02 358.739 368.114 358.792C368.207 358.844 368.318 358.858 368.421 358.831C369.906 358.411 371.222 357.963 372.846 357.459L361.308 367.765ZM392.115 345.22C392.1 346.223 391.807 347.202 391.268 348.048C390.729 348.894 389.965 349.573 389.062 350.009C386.961 350.934 373.098 356.115 368.365 357.963C368.225 357.711 368.085 357.459 367.917 357.207C368.852 356.04 369.4 354.611 369.486 353.118C369.479 352.987 369.424 352.862 369.331 352.769C369.237 352.676 369.113 352.621 368.982 352.614C368.841 350.093 369.738 349.337 371.782 348.021C373.827 346.705 391.386 337.239 391.386 337.267C391.531 337.326 391.659 337.422 391.757 337.544C391.855 337.667 391.92 337.812 391.947 337.967C392.238 340.373 392.341 342.798 392.255 345.22H392.115ZM463.446 440.581C462.69 439.937 459.861 437.781 459.189 437.276C462.55 435.85 465.603 433.786 468.179 431.199L471.624 437.22C469.217 438.904 466.475 440.051 463.586 440.581H463.446Z" fill="#0B0B14"/>
<path d="M531.641 412.015C529.737 410.474 520.439 417.168 518.226 419.044C517.974 419.044 510.216 418.848 508.648 418.736C508.83 418.066 508.961 417.382 509.04 416.692L464.23 408.598L474.06 426.242L470.392 431.115L474.2 436.464C474.761 436.464 503.355 434.588 503.355 434.588C504.046 433.308 504.663 431.989 505.203 430.639C507.024 430.639 515.621 430.023 516.126 429.967C518.088 430.8 520.213 431.183 522.343 431.087C525.676 430.807 533.797 413.751 531.641 412.015ZM515.874 429.154C515.341 429.154 507.108 429.883 505.427 429.939C506.099 428.23 508.228 420.445 508.508 419.408C510.048 419.604 517.582 419.968 517.694 419.968C517.638 421.621 517.834 426.998 515.874 429.154ZM403.177 399.86L387.942 399.636C381.855 408.663 375.145 417.254 367.861 425.346C353.298 442.149 338.707 444.95 338.707 444.95C417.124 445.706 449.835 439.741 449.835 439.741C434.124 430.275 413.399 415.151 403.177 399.86ZM70.6607 439.153L75.1976 430.443L70.6607 426.55L77.6342 412.547C54.8932 415.095 21.3419 427.25 21.3419 427.25C21.3419 427.25 21.0899 428.902 20.8658 431.703L10.3355 433.075C8.64271 430.882 7.16995 428.528 5.93857 426.046C4.39824 422.545 2.3818 422.433 1.56962 423.245C0.757445 424.057 0.757446 441.169 2.71787 442.849C4.6783 444.53 8.15105 441.365 21.0058 442.261C21.1933 443.411 21.5032 444.538 21.9301 445.622L53.801 446.182C53.801 446.182 53.801 445.622 54.8652 444.67C56.9377 442.877 63.6311 443.017 70.6607 439.153ZM11.5118 441.029C10.6152 440.061 10.0376 438.84 9.85732 437.533C9.67699 436.226 9.90258 434.894 10.5036 433.719L20.7818 432.879C19.8342 435.6 19.8342 438.561 20.7818 441.281C20.6138 441.141 14.3684 441.001 11.5118 441.029ZM156.527 401.736H142.524C136.911 408.1 130.876 414.078 124.46 419.632C114.847 427.93 104.268 435.038 92.9535 440.805L90.1529 439.181L87.5483 441.701V446.238L212.736 445.09C212.736 445.09 204.082 444.362 189.294 431.619C174.507 418.876 156.527 401.736 156.527 401.736Z" fill="#0B0B14"/>
</svg>
