<svg width="24" height="24" viewBox="0 0 24 24" fill="none" xmlns="http://www.w3.org/2000/svg">
<g clip-path="url(#clip0_1102_193)">
<path d="M12 24C18.6274 24 24 18.6274 24 12C24 5.37258 18.6274 0 12 0C5.37258 0 0 5.37258 0 12C0 18.6274 5.37258 24 12 24Z" fill="url(#paint0_linear_1102_193)"/>
<path d="M17.2005 16.1805L13.188 6.0315C12.96 5.5065 12.6255 5.25 12.1823 5.25H11.8275C11.3835 5.25 11.0482 5.50725 10.8217 6.0315L9.0765 10.4535H7.75575C7.35975 10.455 7.03875 10.7895 7.03575 11.2035V11.214C7.03875 11.6287 7.35975 11.9633 7.75575 11.9648H8.46525L6.7995 16.1805C6.76786 16.2733 6.75116 16.3705 6.75 16.4685C6.75 16.7048 6.819 16.89 6.94725 17.034C7.07475 17.178 7.2525 17.25 7.47975 17.25C7.62961 17.2476 7.77473 17.1971 7.89375 17.106C8.02125 17.0138 8.1105 16.8795 8.17875 16.7257L10.0132 11.9648H11.2852C11.6805 11.9633 12.0015 11.628 12.0052 11.214V11.1938C12.0015 10.779 11.6805 10.4437 11.2852 10.443H10.605L12.0045 6.79275L15.8197 16.725C15.8888 16.8787 15.9773 17.013 16.1055 17.1052C16.2263 17.1967 16.371 17.2478 16.5203 17.2493C16.7467 17.2493 16.9245 17.1772 17.0527 17.0333C17.1802 16.8893 17.2493 16.704 17.2493 16.4678C17.2532 16.3694 17.2366 16.2721 17.2005 16.1805Z" fill="white"/>
</g>
<defs>
<linearGradient id="paint0_linear_1102_193" x1="3" y1="20" x2="20" y2="3" gradientUnits="userSpaceOnUse">
<stop stop-color="#2EBAC6"/>
<stop offset="1" stop-color="#B7529E"/>
</linearGradient>
<clipPath id="clip0_1102_193">
<rect width="24" height="24" fill="white"/>
</clipPath>
</defs>
</svg>
