<svg width="24" height="24" viewBox="0 0 24 24" fill="none" xmlns="http://www.w3.org/2000/svg">
<rect width="24" height="24" rx="12" fill="#2C374B"/>
<g clip-path="url(#clip0_1105_112)">
<path d="M3.808 8.08V15.92C3.808 16.424 4.072 16.88 4.512 17.136L11.304 21.056C11.736 21.304 12.272 21.304 12.704 21.056L19.496 17.136C19.928 16.888 20.2 16.424 20.2 15.92V8.08C20.2 7.576 19.936 7.12 19.496 6.864L12.704 2.944C12.272 2.696 11.736 2.696 11.304 2.944L4.512 6.864C4.08 7.112 3.816 7.576 3.816 8.08H3.808Z" fill="#213147"/>
<path d="M13.48 13.52L12.512 16.176C12.488 16.248 12.488 16.328 12.512 16.408L14.176 20.976L16.104 19.864L13.792 13.52C13.736 13.376 13.536 13.376 13.48 13.52Z" fill="#12AAFF"/>
<path d="M15.424 9.056C15.368 8.912 15.168 8.912 15.112 9.056L14.144 11.712C14.12 11.784 14.12 11.864 14.144 11.944L16.872 19.424L18.8 18.312L15.424 9.064V9.056Z" fill="#12AAFF"/>
<path d="M12 3.24C12.048 3.24 12.096 3.256 12.136 3.28L19.48 7.52C19.568 7.568 19.616 7.664 19.616 7.76V16.24C19.616 16.336 19.56 16.432 19.48 16.48L12.136 20.72C12.096 20.744 12.048 20.76 12 20.76C11.952 20.76 11.904 20.744 11.864 20.72L4.52 16.48C4.432 16.432 4.384 16.336 4.384 16.24V7.752C4.384 7.656 4.44 7.56 4.52 7.512L11.864 3.272C11.904 3.248 11.952 3.232 12 3.232V3.24ZM12 2C11.736 2 11.48 2.064 11.24 2.2L3.896 6.44C3.424 6.712 3.136 7.208 3.136 7.752V16.232C3.136 16.776 3.424 17.272 3.896 17.544L11.24 21.784C11.472 21.92 11.736 21.984 12 21.984C12.264 21.984 12.52 21.92 12.76 21.784L20.104 17.544C20.576 17.272 20.864 16.776 20.864 16.232V7.752C20.864 7.208 20.576 6.712 20.104 6.44L12.752 2.2C12.52 2.064 12.256 2 11.992 2H12Z" fill="#9DCCED"/>
<path d="M7.136 19.432L7.816 17.576L9.176 18.704L7.904 19.872L7.136 19.432Z" fill="#213147"/>
<path d="M11.376 7.152H9.51201C9.37601 7.152 9.24801 7.24 9.20001 7.368L5.20801 18.312L7.13601 19.424L11.536 7.368C11.576 7.256 11.496 7.144 11.384 7.144L11.376 7.152Z" fill="white"/>
<path d="M14.64 7.152H12.776C12.64 7.152 12.512 7.24 12.464 7.368L7.90401 19.864L9.83201 20.976L14.792 7.368C14.832 7.256 14.752 7.144 14.64 7.144V7.152Z" fill="white"/>
</g>
<defs>
<clipPath id="clip0_1105_112">
<rect width="20" height="20" fill="white" transform="translate(2 2)"/>
</clipPath>
</defs>
</svg>
