<svg viewBox="0 0 24 25" fill="none" xmlns="http://www.w3.org/2000/svg">
<path d="M19.4012 4.11976H4.58282V17.5968H19.4012V4.11976Z" fill="white"/>
<path fill-rule="evenodd" clip-rule="evenodd" d="M23.992 12.008C23.992 18.6311 18.6231 24 12 24C5.377 24 0.00799561 18.6311 0.00799561 12.008C0.00799561 5.38497 5.377 0.0159681 12 0.0159681C18.6231 0.0159681 23.992 5.38497 23.992 12.008ZM8.60182 16.7802H6.2745C5.78546 16.7802 5.5439 16.7802 5.39661 16.686C5.23752 16.5828 5.14031 16.412 5.12852 16.2234C5.11968 16.0497 5.24047 15.8375 5.48204 15.4133L11.2285 5.28439C11.473 4.85428 11.5967 4.63922 11.7528 4.55968C11.9208 4.47425 12.1211 4.47425 12.289 4.55968C12.4452 4.63922 12.5689 4.85428 12.8134 5.28439L13.9947 7.34657L14.0008 7.35709C14.2649 7.81852 14.3988 8.05252 14.4573 8.29811C14.5221 8.5662 14.5221 8.84901 14.4573 9.11709C14.3983 9.36455 14.2658 9.60024 13.9977 10.0686L10.9792 15.4044L10.9714 15.4181C10.7056 15.8833 10.5709 16.1191 10.3841 16.297C10.1809 16.4915 9.93635 16.6328 9.66826 16.7125C9.42374 16.7802 9.14978 16.7802 8.60182 16.7802ZM14.4791 16.7802H17.8138C18.3058 16.7802 18.5533 16.7802 18.7007 16.6831C18.8597 16.58 18.9599 16.4061 18.9688 16.2176C18.9773 16.0495 18.8591 15.8456 18.6276 15.446C18.6196 15.4324 18.6116 15.4186 18.6034 15.4045L16.933 12.5469L16.914 12.5147C16.6793 12.1178 16.5608 11.9173 16.4086 11.8399C16.2408 11.7544 16.0433 11.7544 15.8754 11.8399C15.7222 11.9194 15.5985 12.1286 15.354 12.5498L13.6895 15.4074L13.6838 15.4173C13.4402 15.8379 13.3184 16.0481 13.3272 16.2205C13.339 16.4091 13.4362 16.5828 13.5953 16.686C13.7396 16.7802 13.9871 16.7802 14.4791 16.7802Z" fill="#E84142"/>
</svg>
