<svg viewBox="0 0 24 24" fill="none" xmlns="http://www.w3.org/2000/svg">
<g clip-path="url(#clip0_1105_71)">
<path fill-rule="evenodd" clip-rule="evenodd" d="M23.981 12C23.981 18.6274 18.6127 24 11.9905 24C5.36834 24 0 18.6274 0 12C0 5.37258 5.36834 0 11.9905 0C18.6127 0 23.981 5.37258 23.981 12ZM12.519 7.39282C12.519 6.48082 13.2536 5.74151 14.1598 5.74151C15.066 5.74151 15.8007 6.48082 15.8007 7.39287V12.1468H17.9461V8.70368C17.9461 8.17752 18.3699 7.75098 18.8927 7.75098C19.4155 7.75098 19.8394 8.17752 19.8394 8.70368V12.1468H17.9461V15.9652C17.9461 16.5615 17.4657 17.045 16.8732 17.045C16.2807 17.045 15.8003 16.5615 15.8003 15.9652V12.1468H12.519V16.9628C12.519 17.9099 11.756 18.6777 10.815 18.6777C9.87389 18.6777 9.11102 17.9099 9.11102 16.9628V12.1468H12.519V7.39282ZM6.96512 8.95639C6.96512 8.36007 7.44548 7.87665 8.03797 7.87665C8.63051 7.87665 9.11087 8.36007 9.11087 8.95639V12.1469H6.96512V8.95639ZM5.57673 15.1611C6.34351 15.1611 6.96512 14.5355 6.96512 13.7638V12.1469H4.18828V13.7638C4.18828 14.5355 4.80989 15.1611 5.57673 15.1611ZM21.8881 13.1943C21.8881 13.7769 21.4188 14.2491 20.84 14.2491C20.2612 14.2491 19.792 13.7769 19.792 13.1943V12.1514H21.8881V13.1943ZM3.14004 10.0535C2.56125 10.0535 2.09201 10.5258 2.09201 11.1083V12.1513H4.18808V11.1083C4.18808 10.5258 3.71888 10.0535 3.14004 10.0535Z" fill="url(#paint0_linear_1105_71)"/>
<path fill-rule="evenodd" clip-rule="evenodd" d="M12.519 7.39282C12.519 6.48082 13.2536 5.74151 14.1598 5.74151C15.066 5.74151 15.8007 6.48082 15.8007 7.39287V12.1468H17.9461V8.70368C17.9461 8.17751 18.3699 7.75098 18.8927 7.75098C19.4155 7.75098 19.8394 8.17751 19.8394 8.70368V12.1468H17.9461V15.9652C17.9461 16.5615 17.4657 17.045 16.8732 17.045C16.2807 17.045 15.8003 16.5615 15.8003 15.9652L15.8007 12.1468L12.519 12.1468V16.9628C12.519 17.9099 11.756 18.6777 10.815 18.6777C9.8739 18.6777 9.11102 17.9099 9.11102 16.9628V12.1468L12.519 12.1468V7.39282ZM6.96513 8.95639C6.96513 8.36007 7.44548 7.87665 8.03797 7.87665C8.63051 7.87665 9.11087 8.36007 9.11087 8.95639L9.11102 12.1468L6.96513 12.1469V8.95639ZM5.57673 15.1611C6.34351 15.1611 6.96513 14.5355 6.96513 13.7638V12.1469H4.18828V13.7638C4.18828 14.5355 4.8099 15.1611 5.57673 15.1611ZM21.8881 13.1943C21.8881 13.7769 21.4188 14.2491 20.84 14.2491C20.2612 14.2491 19.792 13.7769 19.792 13.1943V12.1514H21.8881V13.1943ZM3.14004 10.0535C2.56125 10.0535 2.09201 10.5258 2.09201 11.1083V12.1513H4.18808V11.1083C4.18808 10.5258 3.71889 10.0535 3.14004 10.0535Z" fill="white"/>
</g>
<defs>
<linearGradient id="paint0_linear_1105_71" x1="12" y1="24" x2="12" y2="1.1848e-07" gradientUnits="userSpaceOnUse">
<stop stop-color="#01CABE"/>
<stop offset="1" stop-color="#6C4BEF"/>
</linearGradient>
<clipPath id="clip0_1105_71">
<rect width="24" height="24" fill="white"/>
</clipPath>
</defs>
</svg>
