<svg width="299" height="298" viewBox="0 0 299 298" fill="none" xmlns="http://www.w3.org/2000/svg">
<path d="M-1.1869e-05 135.765C0.209856 121.807 0.903736 107.845 2.01731 94.0234L2.50981 88.1899L6.33886 83.6757C29.8781 56.1018 56.1371 29.9199 83.788 6.44055L88.3152 2.62013L94.1657 2.13615C130.383 -0.712035 167.507 -0.712032 203.724 2.13616L209.579 2.62014L214.106 6.44056C241.757 29.9199 268.012 56.1018 291.556 83.6757L295.385 88.19L295.873 94.0234C298.725 130.142 298.725 167.16 295.873 203.278L295.385 209.112L291.556 213.626C268.012 241.2 241.757 267.386 214.106 290.861L209.579 294.681L203.724 295.165C189.933 296.279 175.735 296.904 161.807 297.183C161.246 283.636 156.65 271.206 149.198 260.854C164.449 260.854 179.834 260.302 194.88 259.261C217.935 239.324 239.873 217.446 259.861 194.455C262.02 164.106 262.02 133.196 259.861 102.846C239.873 79.8553 217.935 57.9778 194.88 38.0404C164.441 35.8904 133.449 35.8904 103.01 38.0404C79.9591 57.9777 58.0173 79.8553 38.0286 102.846C36.9835 117.845 36.4268 133.26 36.4268 148.4C26.0491 141.038 13.5128 136.322 -1.1869e-05 135.765ZM10.6561 175.216C10.5875 175.147 10.4462 175.147 10.3091 175.079L9.67957 174.732C10.0308 174.873 10.3092 175.01 10.6561 175.216Z" fill="black"/>
<path d="M-1.1869e-05 135.765C0.209856 121.807 0.903736 107.845 2.01731 94.0234L2.50981 88.1899L6.33886 83.6757C29.8781 56.1018 56.1371 29.9199 83.788 6.44055L88.3152 2.62013L94.1657 2.13615C130.383 -0.712035 167.507 -0.712032 203.724 2.13616L209.579 2.62014L214.106 6.44056C241.757 29.9199 268.012 56.1018 291.556 83.6757L295.385 88.19L295.873 94.0234C298.725 130.142 298.725 167.16 295.873 203.278L295.385 209.112L291.556 213.626C268.012 241.2 241.757 267.386 214.106 290.861L209.579 294.681L203.724 295.165C189.933 296.279 175.735 296.904 161.807 297.183C161.246 283.636 156.65 271.206 149.198 260.854C164.449 260.854 179.834 260.302 194.88 259.261C217.935 239.324 239.873 217.446 259.861 194.455C262.02 164.106 262.02 133.196 259.861 102.846C239.873 79.8553 217.935 57.9778 194.88 38.0404C164.441 35.8904 133.449 35.8904 103.01 38.0404C79.9591 57.9777 58.0173 79.8553 38.0286 102.846C36.9835 117.845 36.4268 133.26 36.4268 148.4C26.0491 141.038 13.5128 136.322 -1.1869e-05 135.765ZM10.6561 175.216C10.5875 175.147 10.4462 175.147 10.3091 175.079L9.67957 174.732C10.0308 174.873 10.3092 175.01 10.6561 175.216Z" fill="url(#paint0_linear_2876_39761)"/>
<path fill-rule="evenodd" clip-rule="evenodd" d="M9.84571 174.858L0.296793 170.33L0.125619 159.058C0.0186171 151.381 0.0313996 143.69 0.172644 135.999C13.7234 136.545 26.2385 141.078 36.5578 148.444C53.4728 160.527 64.4941 180.249 64.4941 202.54C64.4941 219.313 78.1861 232.923 95.0454 232.923C117.456 232.923 137.307 243.874 149.497 260.681L149.501 260.698C156.936 270.963 161.507 283.408 162.055 296.877C154.329 297.023 146.595 297.035 138.869 296.929L127.54 296.762L122.661 286.583C117.747 276.328 107.222 269.23 95.0454 269.23C58.0311 269.23 27.9847 239.35 27.9848 202.54C27.9848 190.564 20.9868 180.24 10.8472 175.323C10.5177 175.166 10.1796 175.003 9.84571 174.858Z" fill="black"/>
<path fill-rule="evenodd" clip-rule="evenodd" d="M9.84571 174.858L0.296793 170.33L0.125619 159.058C0.0186171 151.381 0.0313996 143.69 0.172644 135.999C13.7234 136.545 26.2385 141.078 36.5578 148.444C53.4728 160.527 64.4941 180.249 64.4941 202.54C64.4941 219.313 78.1861 232.923 95.0454 232.923C117.456 232.923 137.307 243.874 149.497 260.681L149.501 260.698C156.936 270.963 161.507 283.408 162.055 296.877C154.329 297.023 146.595 297.035 138.869 296.929L127.54 296.762L122.661 286.583C117.747 276.328 107.222 269.23 95.0454 269.23C58.0311 269.23 27.9847 239.35 27.9848 202.54C27.9848 190.564 20.9868 180.24 10.8472 175.323C10.5177 175.166 10.1796 175.003 9.84571 174.858Z" fill="url(#paint1_linear_2876_39761)"/>
<path fill-rule="evenodd" clip-rule="evenodd" d="M1.68415 256.572C14.165 254.455 28.0035 254.476 40.4802 256.627C42.5991 269.112 42.5779 282.95 40.4252 295.426C27.9443 297.543 14.1059 297.522 1.62923 295.371C-0.489688 282.887 -0.468603 269.048 1.68415 256.572Z" fill="black"/>
<path fill-rule="evenodd" clip-rule="evenodd" d="M1.68415 256.572C14.165 254.455 28.0035 254.476 40.4802 256.627C42.5991 269.112 42.5779 282.95 40.4252 295.426C27.9443 297.543 14.1059 297.522 1.62923 295.371C-0.489688 282.887 -0.468603 269.048 1.68415 256.572Z" fill="url(#paint2_linear_2876_39761)"/>
<defs>
<linearGradient id="paint0_linear_2876_39761" x1="35.0537" y1="106.81" x2="257.802" y2="196.931" gradientUnits="userSpaceOnUse">
<stop stop-color="#91F1BD"/>
<stop offset="0.25" stop-color="#2BD5C1"/>
<stop offset="0.5" stop-color="#13CFC2"/>
<stop offset="1" stop-color="#079AC6"/>
</linearGradient>
<linearGradient id="paint1_linear_2876_39761" x1="81.0538" y1="136" x2="81.0538" y2="297" gradientUnits="userSpaceOnUse">
<stop stop-color="#00D1FF"/>
<stop offset="1" stop-color="#0039CB"/>
</linearGradient>
<linearGradient id="paint2_linear_2876_39761" x1="21.0544" y1="254.999" x2="21.0544" y2="296.999" gradientUnits="userSpaceOnUse">
<stop stop-color="#00D1FF"/>
<stop offset="1" stop-color="#0039CB"/>
</linearGradient>
</defs>
</svg>
