<svg width="24" height="24" viewBox="0 0 24 24" fill="none" xmlns="http://www.w3.org/2000/svg">
<g clip-path="url(#clip0_1105_132)">
<path d="M12 24C18.6274 24 24 18.6274 24 12C24 5.37258 18.6274 0 12 0C5.37258 0 0 5.37258 0 12C0 18.6274 5.37258 24 12 24Z" fill="white"/>
<path d="M20.1098 4.43323L19.3989 5.14408C21.0951 6.99898 22.0358 9.42151 22.0358 11.935C22.0358 14.4485 21.0951 16.8711 19.3989 18.726L20.1098 19.4368C21.9961 17.3907 23.0434 14.7097 23.0434 11.9267C23.0434 9.14378 21.9961 6.46274 20.1098 4.41664V4.43323ZM5.1607 4.49484C7.01561 2.79864 9.43813 1.85801 11.9516 1.85801C14.4652 1.85801 16.8877 2.79864 18.7426 4.49484L19.4534 3.78399C17.4073 1.89764 14.7263 0.850362 11.9434 0.850362C9.16041 0.850362 6.47937 1.89764 4.43327 3.78399L5.1607 4.49484ZM4.49488 18.7331C2.80069 16.8786 1.8613 14.4575 1.8613 11.9457C1.8613 9.43383 2.80069 7.01279 4.49488 5.15829L3.78403 4.44745C1.89768 6.49354 0.850403 9.17458 0.850403 11.9575C0.850403 14.7405 1.89768 17.4215 3.78403 19.4676L4.49488 18.7331ZM18.7331 19.3894C16.8782 21.0856 14.4557 22.0262 11.9422 22.0262C9.42866 22.0262 7.00613 21.0856 5.15123 19.3894L4.44038 20.1003C6.48648 21.9866 9.16751 23.0339 11.9505 23.0339C14.7334 23.0339 17.4145 21.9866 19.4606 20.1003L18.7331 19.3894Z" fill="#84818C"/>
<path d="M16.4323 9.57264C16.2902 8.08935 15.0106 7.59175 13.3923 7.44011V5.39761H12.1412V7.4022H11.1413V5.39761H9.89966V7.45432H7.36194V8.79308C7.36194 8.79308 8.28604 8.7765 8.27182 8.79308C8.43844 8.77475 8.60568 8.82182 8.73828 8.92437C8.87088 9.02691 8.9585 9.17693 8.98267 9.3428V14.9727C8.97911 15.0312 8.96385 15.0884 8.93781 15.1409C8.91176 15.1934 8.87545 15.2401 8.83102 15.2784C8.78743 15.3173 8.73641 15.3471 8.68103 15.3658C8.62565 15.3845 8.56706 15.3919 8.50877 15.3874C8.52536 15.4016 7.59889 15.3874 7.59889 15.3874L7.36194 16.8825H9.87596V18.9724H11.1271V16.9133H12.127V18.9629H13.3804V16.8967C15.494 16.7688 16.9678 16.2475 17.1527 14.269C17.3019 12.6767 16.5532 11.9658 15.3566 11.6791C16.084 11.3213 16.5342 10.6579 16.4323 9.57264ZM14.6789 14.0225C14.6789 15.5769 12.0156 15.3992 11.1673 15.3992V12.6411C12.0156 12.6435 14.6789 12.3994 14.6789 14.0225ZM14.0984 10.1366C14.0984 11.5583 11.8758 11.3853 11.1697 11.3853V8.87839C11.8758 8.87839 14.0984 8.65565 14.0984 10.1366Z" fill="#F09340"/>
</g>
<defs>
<clipPath id="clip0_1105_132">
<rect width="24" height="24" fill="white"/>
</clipPath>
</defs>
</svg>
