<svg viewBox="0 0 481 479" fill="none" xmlns="http://www.w3.org/2000/svg">
<path d="M24.3617 46.1524C27.4364 46.1524 32.3176 46.4051 39.3135 46.1701C113.087 43.7245 142.925 52.4737 156.27 46.1701C158.213 45.253 157.367 41.9357 154.916 41.1474C148.649 39.1965 142.097 38.3192 135.538 38.5527C134.78 38.5527 135.717 37.82 136.548 35.4401C137.66 32.239 133.714 28.1132 124.674 29.6594C125.955 27.7956 127.074 25.8262 128.021 23.7727C133.203 12.4312 128.835 0.288857 116.4 2.91894C111.486 4.06862 106.868 6.23488 102.842 9.27815C98.4084 12.9542 99.0526 15.1775 98.234 14.0785C94.4948 8.98508 91.0866 2.10541 83.2772 5.2888C79.6149 6.97704 76.4735 9.61838 74.1817 12.9365C70.7482 17.56 71.4834 19.8768 70.3617 22.4614C68.4845 21.3346 65.0939 16.6656 59.1036 14.1593C53.5074 11.8198 47.3831 15.1699 44.5762 19.374C40.938 24.8237 42.3024 27.3856 42.3504 29.9651C38.1993 29.9651 33.7603 25.2052 26.9387 33.4416C26.5991 33.7842 26.3683 34.2195 26.2753 34.6928C26.1822 35.1661 26.2311 35.6564 26.4157 36.102C26.921 37.249 22.1383 37.2036 14.6018 39.5835C8.92222 41.3824 9.45026 46.1398 24.3617 46.1524Z" fill="#FDF8F2"/>
<path d="M21.1578 46.2585C23.5378 46.3368 27.9187 46.3823 35.857 46.2913C111.508 45.4247 142.728 52.5722 156.27 46.1726C158.213 45.2554 157.367 41.9381 154.916 41.1499C148.649 39.1989 142.097 38.3217 135.538 38.5552C134.78 38.5552 135.717 37.8225 136.548 35.4425C137.66 32.2414 133.713 28.1157 124.674 29.6619C125.954 27.798 127.074 25.8287 128.021 23.7751C133.203 12.4337 128.835 0.291298 116.399 2.92139C111.486 4.0703 106.868 6.23569 102.842 9.27806C98.4081 12.9541 99.0524 15.1774 98.2338 14.0784C94.4945 8.98499 91.0863 2.10533 83.2769 5.28872C79.6146 6.97696 76.4733 9.61829 74.1815 12.9364C70.748 17.5599 71.4832 19.8767 70.3614 22.4613C68.4842 21.3345 65.0937 16.6656 59.1033 14.1593C53.5071 11.8197 47.3829 15.1699 44.5759 19.374C40.9378 24.8236 42.3021 27.3855 42.3501 29.9651C38.1991 29.9651 33.76 25.2051 26.9384 33.4415C26.5989 33.7841 26.3681 34.2194 26.275 34.6927C26.182 35.166 26.2308 35.6563 26.4155 36.1019C26.9208 37.249 22.1381 37.2035 14.6015 39.5834C9.2024 41.2888 8.52782 45.834 21.1578 46.2585ZM28.5579 36.4809C27.8 34.9221 27.8 34.7907 29.0253 33.5805C33.6185 29.0833 36.529 30.4653 43.242 32.0242C44.1136 32.2263 44.773 31.8119 44.5759 30.9125C44.0731 29.354 43.9221 27.7033 44.134 26.0794C44.3459 24.4555 44.9153 22.8988 45.8013 21.5215C48.6183 16.5544 53.6739 13.9041 59.596 16.6453C63.56 19.0771 67.2016 21.9989 70.4347 25.3416C71.6828 26.6301 72.3472 26.0717 72.322 25.2582C72.0895 17.2947 79.4341 7.84301 86.3314 6.75662C89.5704 6.25132 92.8599 9.56861 94.8887 12.5676C97.544 16.4887 97.8826 19.4978 100.076 15.6802C104.499 7.97439 121.665 -0.327693 126.536 8.72223C128.847 13.0173 127.872 17.8176 126.205 22.3982C124.875 25.5675 123.13 28.5462 121.015 31.2561C120.677 31.7614 120.917 32.4385 121.649 32.2945L126.407 31.39C128.681 30.8847 133.082 31.15 134.345 34.01C135.196 35.9428 131.061 40.2934 133.026 40.3616C162.164 41.3722 161.828 46.5869 139.555 46.5869C139.555 46.5313 100.174 43.9922 19.5004 44.5127C14.8668 44.543 9.86434 42.4232 17.4792 40.5637C27.752 38.0625 29.6317 38.7143 28.5579 36.4809Z" fill="black"/>
<path d="M259.786 43.055C269.093 44.725 271.132 43.5376 283.606 43.5376C316.137 43.5376 294.816 44.2955 329.371 43.5376C365.896 42.7316 373.701 45.5588 382.9 45.7584C390.019 45.91 394.471 45.5057 399.461 46.1576C406.774 47.0756 414.169 47.1417 421.497 46.3546C425.082 46.0489 425.363 39.4143 415.494 37.7645C397.665 34.811 412.043 38.045 391.454 34.0708C389.64 33.7196 392.561 32.3629 390.949 28.2346C390.509 27.3201 389.807 26.5574 388.931 26.0435C388.056 25.5297 387.048 25.288 386.035 25.3493C384.069 25.42 390.345 17.9719 387.91 13.2979C386.817 10.8444 385.115 8.71117 382.965 7.10106C380.816 5.49095 378.29 4.45747 375.628 4.09889C372.207 3.6638 368.744 3.6638 365.323 4.09889C361.49 4.59167 357.79 5.82473 354.428 7.72948C350.246 10.2091 346.606 13.5051 343.724 17.4211C343.074 14.1691 341.728 11.0963 339.777 8.41416C327.625 -7.87672 304.012 3.00745 298.3 15.7208C294.434 24.3109 296.382 28.1007 295.068 26.0087C291.948 21.0265 284.894 19.5055 279.01 20.3367C274.765 20.938 271.362 23.7829 270.278 30.564C269.925 32.7747 267.461 26.8071 256.865 32.8378C249.293 37.1506 251.903 41.6351 259.786 43.055Z" fill="#FDF8F2"/>
<path d="M259.786 43.055C269.093 44.725 271.132 43.5376 283.606 43.5376C316.137 43.5376 294.816 44.2955 329.371 43.5376C365.896 42.7316 373.701 45.5588 382.9 45.7584C390.019 45.91 394.471 45.5057 399.461 46.1576C406.774 47.0756 414.169 47.1417 421.497 46.3546C425.082 46.0489 425.363 39.4143 415.494 37.7645C397.665 34.811 412.043 38.045 391.454 34.0708C389.64 33.7196 392.561 32.3629 390.949 28.2346C390.509 27.3201 389.807 26.5574 388.931 26.0435C388.056 25.5297 387.048 25.288 386.035 25.3493C384.069 25.42 390.345 17.9719 387.91 13.2979C386.817 10.8444 385.115 8.71117 382.965 7.10106C380.816 5.49095 378.29 4.45747 375.628 4.09889C372.207 3.6638 368.744 3.6638 365.323 4.09889C361.49 4.59167 357.79 5.82473 354.428 7.72948C350.246 10.2091 346.606 13.5051 343.724 17.4211C343.074 14.1691 341.728 11.0963 339.777 8.41416C327.625 -7.87672 304.012 3.00745 298.3 15.7208C294.434 24.3109 296.382 28.1007 295.068 26.0087C291.948 21.0265 284.894 19.5055 279.01 20.3367C274.765 20.938 271.362 23.7829 270.278 30.564C269.925 32.7747 267.461 26.8071 256.865 32.8378C249.293 37.1506 251.903 41.6351 259.786 43.055ZM256.287 35.4376C259.917 33.0273 265.205 30.7282 268.947 32.8429C274.139 35.7787 269.364 26.4963 276.88 22.7571C279.83 21.7673 282.993 21.5927 286.034 22.2518C294.232 24.1012 294.194 29.1567 296.529 31.327C296.616 31.4243 296.731 31.4936 296.858 31.5261C296.984 31.5587 297.118 31.553 297.242 31.5098C297.365 31.4666 297.473 31.3878 297.552 31.2834C297.631 31.1789 297.678 31.0535 297.686 30.9228C297.805 30.132 297.18 27.7267 297.193 26.0719C297.312 14.8845 309.646 3.56328 319.722 2.47941C333.901 0.963506 342.688 10.9356 342.031 20.794C341.985 21.4888 341.844 22.1886 342.445 22.4135C343.047 22.6384 343.623 22.0952 343.784 21.4939C344.81 17.7041 350.368 10.9912 359.474 7.6461C378.382 0.703276 388.387 11.4359 386.169 18.169C384.352 23.6742 380.863 26.9031 386.651 27.3528C388.925 27.5297 389.709 30.9127 388.673 33.1638C387.804 35.0637 387.409 35.4022 394.213 36.7009C409.84 39.667 417.962 38.6437 421.515 42.6786C421.686 42.8162 421.808 43.0051 421.864 43.2175C421.92 43.4298 421.906 43.6545 421.824 43.8584C421.743 44.0623 421.598 44.2347 421.411 44.3503C421.225 44.4658 421.006 44.5183 420.787 44.5002C413.506 45.2915 406.153 45.148 398.908 44.0732C392.129 43.2016 386.217 44.3107 376.702 43.2496C349.78 40.2506 322.536 41.8928 308.896 41.865C295.334 41.8347 305.197 41.4507 282.368 41.4658C279.083 41.4658 272.459 42.2238 265.693 41.8372C258.601 41.4482 250.332 39.3941 256.287 35.4376Z" fill="black"/>
<path d="M1.15036 122.655C182.505 115.429 324.838 116.96 460.867 122.655C461 122.668 461.122 122.731 461.209 122.831C461.297 122.931 461.342 123.06 461.337 123.193C461.332 123.326 461.276 123.452 461.182 123.545C461.087 123.638 460.96 123.691 460.827 123.693C277.817 117.006 161.184 118.413 1.19331 123.693C1.06034 123.691 0.933173 123.639 0.837901 123.546C0.742629 123.453 0.686483 123.327 0.680987 123.194C0.675491 123.062 0.721064 122.932 0.808349 122.831C0.895634 122.731 1.01801 122.668 1.15036 122.655V122.655Z" fill="black"/>
<path d="M391.669 271.61C393.119 263.98 391.704 224.533 391.207 218.073C389.021 216.83 315.237 179.956 314.401 179.572C310.359 177.738 310.429 178.023 299.447 177.407C294.596 177.136 24.8462 168.42 23.1661 168.311C18.1131 167.993 19.1009 168.041 12.5952 174.486C12.1962 174.878 11.9159 175.374 11.7867 175.919C11.4277 178.312 11.3929 180.744 11.6831 183.147C11.9585 184.663 19.3864 184.236 134.767 188.071C154.173 188.715 288.426 192.947 303.39 193.311C310.97 195.724 361.063 221.297 380.469 231.418C380.722 235.43 382.056 257.754 381.666 263.068C365.439 270.576 31.0665 408.892 30.8037 409.423C30.6023 409.739 30.4642 410.09 30.3969 410.459C30.2782 415.426 29.5202 421.201 30.8189 422.129C32.3348 423.215 39.6136 428.283 40.6722 426.676C40.7101 426.618 334.828 306.435 389.329 278.808C390.865 278.022 390.737 276.534 391.669 271.61Z" fill="#FDF8F2"/>
<path d="M453.773 190.928C451.582 189.683 378.412 152.778 377.561 152.384C373.518 150.542 373.592 150.818 362.609 150.221C357.758 149.956 42.8626 141.224 41.1825 141.103C36.1446 140.747 37.1123 140.825 30.6141 147.273C29.414 148.463 29.7652 149.471 29.5227 154.009C29.3054 158.124 24.0402 155.883 163.917 159.377C181.926 159.827 360.611 165.527 364.554 165.79C371.487 166.257 366.351 164.729 442.1 203.387C441.825 210.936 441.865 290.493 440.89 301.498C424.117 309.318 99.7594 460.61 99.4941 461.145C99.2946 461.463 99.1574 461.815 99.0899 462.184C98.9711 467.148 98.2132 472.924 99.5093 473.851C101.025 474.937 108.302 480.006 109.342 478.399C109.368 478.358 393.263 347.021 449.364 318.259C450.92 317.461 450.41 315.902 451.719 311.063C455.562 296.849 454.369 197.631 453.773 190.928Z" fill="#FDF8F2"/>
<path d="M391.207 218.073C389.021 216.83 315.237 179.956 314.401 179.572C310.359 177.738 310.429 178.023 299.447 177.407C294.596 177.136 24.8462 168.42 23.1661 168.311C18.1131 167.993 19.1009 168.041 12.5952 174.486C12.1962 174.878 11.9159 175.374 11.7867 175.919C11.4277 178.312 11.3929 180.744 11.6831 183.147C11.9585 184.663 19.3864 184.236 134.767 188.071C154.173 188.715 288.426 192.947 303.39 193.311C310.97 195.724 361.063 221.297 380.469 231.418C380.722 235.43 382.056 257.754 381.667 263.068C365.439 270.576 31.0665 408.892 30.8037 409.423C30.6023 409.739 30.4642 410.09 30.3969 410.459C30.2782 415.426 29.5202 421.201 30.8189 422.129C32.3348 423.215 39.6136 428.283 40.6722 426.676C40.7101 426.618 334.808 306.397 389.329 278.808C390.888 278.02 390.747 276.534 391.677 271.612C393.109 263.985 391.704 224.533 391.207 218.073ZM304.136 191.141C280.104 189.91 14.2677 182.707 13.7675 181.881C13.5085 180.584 13.5085 179.249 13.7675 177.952C19.2096 178.17 303.373 186.639 309.065 186.99C315.247 189.347 374.049 220.716 380.146 223.341C380.315 225.136 380.363 226.941 380.29 228.743C380.221 228.685 307.579 191.318 304.136 191.141V191.141ZM38.224 424.941C36.3002 423.505 34.2455 422.254 32.0872 421.204C31.2837 420.764 31.7436 421.067 32.4661 411.964C32.5141 411.335 32.7769 411.82 34.9295 413.043C38.6914 415.178 38.9921 415.249 38.9466 416.676C38.6712 425.249 38.8607 425.337 38.224 424.941ZM388.576 276.579C388.576 279.131 43.5171 423.783 40.695 424.592C40.695 424.541 40.7632 418.503 40.8137 417.816C40.8844 416.841 41.0512 416.416 41.4782 416.323C64.2445 407.301 388.597 271.567 389.213 271.271C390.459 270.675 388.571 275.192 388.576 276.579V276.579ZM390.044 268.525C389.959 269.515 40.4853 415.178 39.8284 414.398C38.0153 412.723 36.0105 411.268 33.8557 410.065C34.6389 409.494 371.017 270.389 383.47 264.619C384.284 261.678 382.874 240.311 382.485 222.351C380.062 220.938 341.131 200.875 333.797 196.926C315.732 187.212 311.685 185.029 305.629 184.584C300.96 184.241 13.4744 176.752 14.3056 175.82C16.5795 173.233 18.4592 171.121 18.919 170.58C19.1717 170.274 19.3915 170.191 20.8392 170.269C21.2687 170.269 292.711 178.943 300.71 179.089C310.247 179.264 308.678 178.66 314.532 181.646C315.305 182.04 377.311 213.207 388.907 219.081C389.221 226.967 391.159 255.582 390.044 268.515V268.525Z" fill="black"/>
<path d="M453.773 190.928C451.582 189.683 378.412 152.778 377.561 152.384C373.518 150.542 373.592 150.818 362.609 150.221C357.758 149.956 42.8626 141.224 41.1825 141.103C36.1446 140.747 37.1123 140.825 30.6141 147.273C29.414 148.463 29.7652 149.471 29.5227 154.009C29.3054 158.124 24.0402 155.883 163.917 159.377C181.926 159.827 360.611 165.527 364.554 165.79C371.487 166.257 366.351 164.729 442.1 203.387C441.825 210.936 441.865 290.493 440.89 301.498C424.117 309.318 99.7594 460.61 99.4941 461.145C99.2946 461.463 99.1574 461.815 99.0899 462.184C98.9711 467.148 98.2132 472.924 99.5093 473.851C101.025 474.937 108.302 480.006 109.342 478.399C109.368 478.358 393.263 347.021 449.364 318.259C450.92 317.461 450.41 315.902 451.719 311.063C455.562 296.849 454.369 197.631 453.773 190.928ZM442.025 200.954C397.366 178.051 372 164.2 366.523 163.761C352.068 163.47 71.2731 155.818 40.4574 155.009C34.083 154.842 32.0972 155.103 31.5969 154.284C31.4314 153.101 31.4314 151.902 31.5969 150.719C37.0239 150.926 116.654 152.644 305.722 157.667C382.677 159.711 367.829 157.068 383.286 165.214C416.636 182.79 438.017 193.892 441.987 195.863C441.984 197.202 442.141 199.319 442.025 200.954ZM107.448 468.922C107.536 470.792 107.526 472.666 107.417 474.536C107.491 476.466 107.541 477.047 106.945 476.663C105.039 475.202 102.982 473.95 100.808 472.929C100.002 472.487 100.464 472.79 101.187 463.687C101.235 463.06 101.495 463.543 103.65 464.766C107.41 466.901 107.753 466.645 107.526 468.03C107.454 468.321 107.428 468.622 107.448 468.922V468.922ZM448.694 315.46C448.694 318.014 109.689 475.698 109.678 475.599C109.517 474.363 109.441 473.117 109.451 471.87C109.451 468.715 109.274 468.629 109.956 468.472C113.584 467.646 161.199 444.943 425.567 322.324C442.201 314.608 448.136 310.77 449.432 310.141C450.728 309.512 448.689 314.105 448.694 315.46ZM444.046 194.607C441.623 193.202 404.311 173.693 396.982 169.754C378.91 160.049 374.868 157.856 368.814 157.412C364.143 157.068 31.511 149.58 32.3473 148.642C34.6212 146.053 36.5009 143.946 36.9632 143.402C37.2159 143.104 37.4306 143.018 38.8783 143.097C39.3078 143.097 355.889 151.77 363.895 151.917C373.43 152.091 371.864 151.492 377.717 154.476L452.158 192.242C452.35 201.484 452.388 286.14 450.223 307.198C448.932 309.035 436.416 314.858 302.769 376.967C102.288 470.142 109.633 467.439 108.526 466.125C106.71 464.454 104.704 463 102.551 461.792C103.339 461.226 440.428 304.924 442.81 303.145C444.819 286.857 444.139 209.741 444.046 194.607Z" fill="black"/>
<path d="M67.2585 408.104L53.3072 414.506L53.7645 420.913L107.978 458.884L128.559 447.677L67.2585 408.104Z" fill="black"/>
<path d="M107.546 390.909L93.5952 397.313L94.0524 403.721L149.817 439.607L170.403 428.402L107.546 390.909Z" fill="black"/>
<path d="M150.517 372.814L136.565 379.221L137.023 385.623L192.783 418.829L214.677 408.493L150.517 372.814Z" fill="black"/>
<path d="M195.183 355.288L181.231 361.695L181.689 368.097L238.179 397.215L260.205 387.018L195.183 355.288Z" fill="black"/>
<path d="M239.664 336.713L225.713 343.12L226.168 349.522L284.108 376.197L305.54 365.813L239.664 336.713Z" fill="black"/>
<path d="M284.636 317.65L270.68 324.052L271.142 330.46L327.642 355.677L349.171 345.386L284.636 317.65Z" fill="black"/>
<path d="M334.363 296.506L320.412 302.911L320.867 309.313L375.798 333.38L397.268 323.087L334.363 296.506Z" fill="black"/>
<path d="M382.988 276.152L369.037 282.555L369.494 288.959L421.98 311.958L442.618 301.316L382.988 276.152Z" fill="black"/>
<path d="M414.968 183.91L429.321 191.52L429.155 196.502L384.317 216.143L363.645 205.638L414.968 183.91Z" fill="black"/>
<path d="M371.252 161.548L385.603 169.158L385.671 173.673L347.182 196.704L325.75 186.176L371.252 161.548Z" fill="black"/>
<path d="M278.264 158.688L294.111 159.062L294.012 163.14L282.509 177.402L259.551 176.53L278.264 158.688Z" fill="black"/>
<path d="M320.063 160.057L337.159 160.431L337.056 164.509L316.788 182.129L309.946 178.705H295.123L320.063 160.057Z" fill="black"/>
<path d="M44.9749 152.94L61.2936 153.344L61.1875 157.417L56.799 171.136L29.7199 169.974L44.9749 152.94Z" fill="black"/>
<path d="M84.2194 153.162L98.6861 153.566L99.06 172.088L75.0532 170.934L84.2194 153.162Z" fill="black"/>
<path d="M121.99 154.118L136.123 154.522L138.604 173.044L117.955 171.881L121.99 154.118Z" fill="black"/>
<path d="M160.804 155.621L175.769 156.027L178.394 174.549L156.53 173.392L160.804 155.621Z" fill="black"/>
<path d="M200.067 157.131L214.859 157.536L217.452 176.057L195.837 174.895L200.067 157.131Z" fill="black"/>
<path d="M238.699 157.781L252.342 158.268C252.342 162.816 252.868 159.17 249.093 177.101L228.945 176.045L238.699 157.781Z" fill="black"/>
<path d="M390.931 266.87L442.461 271.026L443.313 256.044L391.295 253.214L390.931 266.87Z" fill="black"/>
<path d="M390.178 237.474L443.121 233.614L442.747 218.349L390.542 223.813L390.178 237.474Z" fill="black"/>
<path d="M137.369 100.899C137.088 96.2328 136.702 95.7073 135.295 95.5709C124.178 94.4996 116.988 94.727 115.307 94.5325C111.748 94.1232 119.668 87.3572 110.909 71.5287C98.6325 49.346 65.3281 57.3298 63.9941 82.8449C63.8949 85.3605 64.043 87.8797 64.4363 90.3663C65.1942 93.8377 65.8259 93.9918 64.1356 94.0398C62.1163 93.7092 60.046 94.1385 58.3247 95.245C48.7245 102.055 39.5645 109.464 30.8995 117.43C30.2931 118.239 30.2704 117.061 30.2451 129.12C30.2072 147.44 30.9222 164.774 31.7231 168.084C31.9278 168.925 32.0541 169.165 32.8298 169.423C34.8307 170.087 38.4563 169.865 38.5826 170.264C40.6366 176.699 44.3304 178.031 47.0615 178.213C49.308 178.349 51.5397 177.769 53.436 176.557C55.3322 175.345 56.7953 173.563 57.6147 171.467C59.1711 171.3 75.7171 172.023 84.5624 172.546C85.1081 181.045 98.6653 183.958 103.276 173.258C103.363 173.049 103.519 172.877 103.719 172.771C103.918 172.665 104.149 172.632 104.37 172.677C106.272 173.068 108.238 173.004 110.11 172.49C112.637 171.636 134.127 157.079 138.832 150.464C139.574 146.283 137.528 103.534 137.369 100.899Z" fill="#FDF8F2"/>
<path d="M94.7369 106.217C117.508 102.339 113.648 63.5651 89.6409 62.8804C85.7893 62.9202 82.0632 64.2551 79.0625 66.6701C63.0798 80.0505 75.7982 109.444 94.7369 106.217ZM89.5575 64.2118C105.295 64.6868 114.61 85.533 104.802 98.6228C95.3887 111.19 75.0377 104.199 72.9862 85.2728C71.675 73.1531 80.8209 63.9491 89.5575 64.2118Z" fill="black"/>
<path d="M137.369 100.899C137.088 96.2328 136.702 95.7073 135.295 95.5709C124.178 94.4996 116.988 94.727 115.307 94.5325C111.748 94.1232 119.668 87.3572 110.909 71.5287C98.6325 49.346 65.3281 57.3298 63.9941 82.8449C63.8949 85.3605 64.043 87.8797 64.4363 90.3663C65.1942 93.8377 65.8259 93.9918 64.1356 94.0398C62.1163 93.7092 60.046 94.1385 58.3247 95.245C48.7245 102.055 39.5645 109.464 30.8995 117.43C30.2931 118.239 30.2704 117.061 30.2451 129.12C30.2072 147.44 30.9222 164.774 31.7231 168.084C31.9278 168.925 32.0541 169.165 32.8298 169.423C34.8307 170.087 38.4563 169.865 38.5826 170.264C40.6366 176.699 44.3304 178.031 47.0615 178.213C49.308 178.349 51.5397 177.769 53.436 176.557C55.3322 175.345 56.7953 173.563 57.6147 171.467C59.1711 171.3 75.7171 172.023 84.5624 172.546C85.1081 181.045 98.6653 183.958 103.276 173.258C103.363 173.049 103.519 172.877 103.719 172.771C103.918 172.665 104.149 172.632 104.37 172.677C106.272 173.068 108.238 173.004 110.11 172.49C112.637 171.636 134.127 157.079 138.832 150.464C139.574 146.283 137.528 103.534 137.369 100.899ZM127.682 132.602C127.624 132.641 127.556 132.663 127.486 132.667C127.416 132.67 127.346 132.654 127.284 132.621C127.223 132.588 127.171 132.538 127.135 132.478C127.099 132.418 127.081 132.349 127.081 132.278C127.131 125.171 127.286 109.05 127.283 108.128C127.283 106.725 127.44 106.468 128.099 105.965C133.117 102.107 132.985 101.48 132.985 102.587C132.985 128.261 133.273 128.049 132.872 128.486C131.273 130.016 129.536 131.393 127.682 132.602ZM86.8565 60.0306C106.116 57.5824 119.663 80.7883 110.83 98.3475C103.635 112.65 85.0399 113.585 74.5903 101.127C62.0235 86.1597 68.317 62.3878 86.8565 60.0306ZM70.0906 69.7803C68.5729 73.1159 67.5572 76.6577 67.0765 80.2906C65.6894 94.3935 75.3533 107.349 85.6008 110.187C90.9064 111.657 85.5629 110.98 84.9616 110.841C81.0324 109.902 77.3833 108.041 74.3159 105.412C71.2485 102.783 68.851 99.4616 67.3215 95.7225C62.9179 85.6569 66.1391 72.7844 70.0906 69.7803ZM32.9005 117.658C33.9414 116.778 58.6405 95.5886 60.4924 95.6239C65.6818 95.7199 65.8789 95.3056 66.2427 96.2758C67.8982 100.399 70.5703 104.037 74.0103 106.85C77.4503 109.662 81.5463 111.559 85.9166 112.362C90.2443 112.858 94.6277 112.303 98.6955 110.745C102.763 109.187 106.395 106.671 109.284 103.411C113.339 98.5496 112.766 96.0585 114.021 96.1065C129.322 96.6775 134.158 96.5208 135.171 96.9781C125.337 103.927 116.014 111.572 107.273 119.853C106.01 121.046 104.63 120.245 99.9715 120.02C91.4319 119.608 45.6214 117.493 33.0672 118.701C31.7585 118.827 31.4932 118.85 32.9005 117.658ZM113.882 141.21C113.327 141.541 113.481 140.689 113.498 134.982C113.551 117.395 113.415 125.452 113.751 117.898C113.799 116.859 114.534 116.397 117.743 113.875C120.05 112.061 120.247 111.738 120.247 112.895C120.247 113.135 119.764 133.041 119.741 134.957C119.673 137.935 118.973 138.147 113.882 141.21ZM92.8013 121.852C85.3027 144.747 86.2172 144.726 85.0803 144.628C76.6544 143.9 78.0693 145.75 79.7949 139.926C85.2546 121.5 84.6609 121.076 85.434 121.094C93.7083 121.265 93.0236 121.172 92.8013 121.852ZM40.3789 142.584C40.3789 142.521 40.1566 143.357 45.4041 125.876C47.1727 120.015 46.963 120.131 47.7715 120.169C53.6405 120.452 53.8098 119.749 53.3601 120.995C50.7434 127.891 48.5497 134.941 46.7912 142.104C46.4249 143.367 46.2429 143.001 44.9317 143.003C44.9317 143.003 41.5891 142.981 40.9878 142.968C40.3107 142.948 40.336 142.869 40.3789 142.584ZM107.604 171.53C91.1262 170.055 37.0819 169.132 33.0319 167.824C32.5114 162.756 31.9202 147.425 32.0667 144.269C32.9738 144.398 61.0482 145.166 61.1215 145.166C67.7485 145.265 66.6343 145.613 66.6444 143.953C66.5016 137.136 66.7876 130.316 67.5009 123.534C68.0315 120.265 69.1861 121.106 69.1886 122.463C69.2442 146.735 67.3468 145.74 70.5327 145.676C75.5857 145.575 104.625 146.94 104.994 146.94C105.929 146.94 106.285 146.798 106.318 147.458C107.329 168.887 108.923 171.646 107.604 171.53ZM137.275 149.802C128.883 157.595 119.773 164.579 110.067 170.658C109.077 171.01 109.549 168.582 108.658 156.732C108.658 150.217 106.851 130 107.212 124.838C107.356 122.791 108.238 124.282 108.281 124.681C108.413 125.856 108.205 128.559 108.961 136.556C109.944 146.99 109.466 146.311 110.358 145.939C119.698 140.682 128.541 134.587 136.778 127.728C136.934 135.76 137.442 143.486 137.275 149.795V149.802Z" fill="black"/>
<path d="M232.893 102.456C232.641 97.7866 232.224 97.2637 230.816 97.1272C219.7 96.056 212.512 96.2834 210.832 96.0914C207.272 95.6821 215.19 88.9161 206.433 73.085C194.172 50.92 160.855 58.9088 159.534 84.4164C159.435 86.9328 159.583 89.4528 159.976 91.9403C160.734 95.4117 161.365 95.5633 159.675 95.6138C157.656 95.2834 155.586 95.7118 153.864 96.8165C144.261 103.627 135.096 111.037 126.426 119.002C125.807 119.828 125.797 118.726 125.775 130.697C125.737 149.011 126.454 166.351 127.253 169.655C127.455 170.497 127.584 170.739 128.357 170.995C130.121 171.381 131.918 171.604 133.723 171.659C133.798 171.651 133.874 171.663 133.943 171.695C134.012 171.727 134.07 171.778 134.112 171.841C136.166 178.271 139.86 179.602 142.588 179.784C144.835 179.923 147.068 179.344 148.965 178.131C150.861 176.919 152.324 175.136 153.142 173.038C154.698 172.874 171.244 173.594 180.092 174.117C180.643 182.707 194.258 185.459 198.806 174.835C198.892 174.625 199.048 174.452 199.247 174.345C199.447 174.238 199.678 174.204 199.9 174.249C201.803 174.64 203.771 174.576 205.645 174.062C208.171 173.21 229.647 158.65 234.361 152.036C235.081 147.839 233.04 105.081 232.893 102.456Z" fill="#FDF8F2"/>
<path d="M190.261 107.774C213.029 103.893 209.171 65.1317 185.165 64.4369C181.313 64.4763 177.587 65.8113 174.586 68.2266C158.601 81.607 171.312 111.003 190.261 107.774ZM185.079 65.7684C200.814 66.2433 210.129 87.0895 200.321 100.179C190.907 112.746 170.556 105.76 168.507 86.8293C167.196 74.7096 176.345 65.5056 185.079 65.7684Z" fill="black"/>
<path d="M232.893 102.456C232.641 97.7866 232.224 97.2637 230.816 97.1272C219.7 96.056 212.512 96.2834 210.832 96.0914C207.272 95.6821 215.19 88.9161 206.433 73.085C194.172 50.92 160.855 58.9088 159.534 84.4164C159.435 86.9328 159.583 89.4528 159.976 91.9403C160.734 95.4117 161.365 95.5633 159.675 95.6138C157.656 95.2834 155.586 95.7118 153.864 96.8165C144.261 103.627 135.096 111.037 126.426 119.002C125.807 119.828 125.797 118.726 125.775 130.697C125.737 149.011 126.454 166.351 127.253 169.655C127.455 170.497 127.584 170.739 128.357 170.995C130.121 171.381 131.918 171.604 133.723 171.659C133.798 171.651 133.874 171.663 133.943 171.695C134.012 171.727 134.07 171.778 134.112 171.841C136.166 178.271 139.86 179.602 142.588 179.784C144.835 179.923 147.068 179.344 148.965 178.131C150.861 176.919 152.324 175.136 153.142 173.038C154.698 172.874 171.244 173.594 180.092 174.117C180.643 182.707 194.258 185.459 198.806 174.835C198.892 174.625 199.048 174.452 199.247 174.345C199.447 174.238 199.678 174.204 199.9 174.249C201.803 174.64 203.771 174.576 205.645 174.062C208.171 173.21 229.647 158.65 234.361 152.036C235.081 147.839 233.04 105.081 232.893 102.456ZM223.186 134.158C223.125 134.193 223.057 134.211 222.987 134.211C222.917 134.211 222.848 134.193 222.787 134.158C222.726 134.123 222.675 134.073 222.639 134.013C222.603 133.953 222.584 133.885 222.583 133.815C222.583 126.713 222.787 110.586 222.785 109.664C222.785 108.267 222.944 108.004 223.601 107.499C228.618 103.643 228.487 103.016 228.487 104.123C228.487 130.621 228.74 129.641 228.373 130.022C226.82 131.608 225.078 132.997 223.186 134.158V134.158ZM182.378 61.5945C201.638 59.1463 215.185 82.3522 206.355 99.9114C199.157 114.219 180.564 115.154 170.112 102.691C157.54 87.7135 163.841 63.9442 182.378 61.5945ZM165.595 71.3443C164.081 74.682 163.069 78.2255 162.593 81.8596C161.204 95.96 170.868 108.921 181.115 111.753C186.421 113.221 181.077 112.544 180.476 112.408C176.543 111.475 172.89 109.616 169.822 106.985C166.753 104.354 164.358 101.028 162.836 97.2839C158.432 87.2183 161.661 74.3458 165.595 71.3367V71.3443ZM128.425 119.214C129.463 118.335 154.145 97.1449 155.997 97.1803C161.184 97.2788 161.381 96.8695 161.744 97.8397C163.403 101.961 166.076 105.597 169.515 108.409C172.955 111.221 177.049 113.118 181.418 113.923C185.748 114.423 190.134 113.87 194.205 112.312C198.275 110.753 201.909 108.235 204.799 104.972C208.841 100.111 208.28 97.6224 209.536 97.6679C224.836 98.2086 229.672 98.0822 230.683 98.5395C220.86 105.501 211.54 113.145 202.79 121.414C201.527 122.607 200.145 121.806 195.491 121.581C186.944 121.169 141.133 119.055 128.559 120.262C127.283 120.386 127.015 120.406 128.425 119.214ZM209.409 142.766C208.849 143.102 209.005 142.245 209.02 136.538C209.073 118.951 208.939 127.008 209.273 119.454C209.318 118.416 210.056 117.953 213.262 115.432C215.572 113.618 215.769 113.294 215.769 114.451C215.769 114.691 215.286 134.598 215.263 136.513C215.198 139.492 214.493 139.706 209.409 142.766ZM188.326 123.408C180.827 146.308 181.739 146.285 180.605 146.189C172.176 145.479 173.591 147.306 175.317 141.482C180.777 123.062 180.183 122.64 180.956 122.655C189.233 122.827 188.548 122.736 188.326 123.408ZM135.901 144.14C135.901 144.077 135.673 144.898 140.929 127.433C142.697 121.571 142.485 121.7 143.293 121.753C149.157 122.127 149.334 121.326 148.882 122.572C140.115 146.695 143.632 144.648 140.446 144.648V144.519C135.812 144.499 135.812 144.679 135.901 144.14V144.14ZM203.126 173.086C186.514 171.614 132.596 170.691 128.554 169.388C128.036 164.312 127.445 148.981 127.589 145.826C128.498 145.957 156.573 146.722 156.643 146.725C163.273 146.823 162.629 147.503 162.636 145.841C162.77 121.334 164.705 121.457 164.713 124.019C164.766 148.291 162.871 147.293 166.057 147.233C171.11 147.134 200.15 148.496 200.516 148.496C201.451 148.496 201.812 148.355 201.845 149.014C202.939 170.441 204.47 173.205 203.126 173.086ZM232.8 151.359C224.408 159.155 215.298 166.14 205.592 172.222C204.601 172.574 205.087 170.146 204.18 158.296C204.18 150.969 201.893 126.286 202.982 125.224C203.823 126.174 203.189 125.745 204.377 138.312C205.364 148.744 204.993 147.877 205.893 147.503C215.232 142.245 224.075 136.15 232.312 129.292C232.456 137.316 232.966 145.042 232.8 151.351V151.359Z" fill="black"/>
<path d="M328.837 104.545C328.565 99.876 328.168 99.3505 326.761 99.2166C315.644 98.1428 308.456 98.3702 306.776 98.1782C303.209 97.7689 311.139 91.0004 302.375 75.1719C290.091 52.9892 256.789 60.9805 255.463 86.4881C255.362 89.0044 255.509 91.5246 255.902 94.012C256.645 97.4834 257.29 97.635 255.597 97.6855C253.582 97.3624 251.519 97.7923 249.801 98.8932C240.197 105.701 231.032 113.107 222.361 121.068C221.754 121.877 221.732 120.912 221.706 132.756C221.668 151.076 222.386 168.41 223.187 171.717C223.389 172.556 223.518 172.801 224.291 173.054C226.053 173.44 227.847 173.662 229.65 173.718C229.847 173.718 230.013 173.801 230.044 173.9C232.098 180.33 235.792 181.666 238.523 181.848C240.769 181.986 243.001 181.407 244.898 180.196C246.794 178.984 248.257 177.201 249.076 175.105C250.632 174.938 267.178 175.658 276.024 176.189C276.572 184.703 290.172 187.578 294.74 176.899C294.826 176.69 294.983 176.518 295.182 176.412C295.382 176.306 295.612 176.272 295.834 176.318C297.735 176.704 299.7 176.639 301.571 176.126C304.098 175.277 325.588 160.714 330.295 154.102C331.036 149.913 328.984 107.157 328.837 104.545Z" fill="#FDF8F2"/>
<path d="M286.197 109.851C308.966 105.97 305.11 67.1958 281.104 66.5061C277.248 66.5508 273.52 67.8899 270.518 70.3085C254.535 83.6762 267.251 113.085 286.197 109.851ZM281.02 67.8401C296.755 68.3176 306.058 89.1612 296.263 102.259C286.841 114.858 266.513 107.852 264.459 88.9263C263.148 76.7839 272.281 67.5799 281.02 67.8452V67.8401Z" fill="black"/>
<path d="M328.837 104.545C328.565 99.876 328.168 99.3505 326.761 99.2166C315.644 98.1428 308.456 98.3702 306.776 98.1782C303.209 97.7689 311.139 91.0004 302.375 75.1719C290.091 52.9892 256.789 60.9805 255.463 86.4881C255.362 89.0044 255.509 91.5246 255.902 94.012C256.645 97.4834 257.29 97.635 255.597 97.6855C253.582 97.3624 251.519 97.7923 249.801 98.8932C240.197 105.701 231.032 113.107 222.361 121.068C221.754 121.877 221.732 120.912 221.706 132.756C221.668 151.076 222.386 168.41 223.187 171.717C223.389 172.556 223.518 172.801 224.291 173.054C226.053 173.44 227.847 173.662 229.65 173.718C229.847 173.718 230.013 173.801 230.044 173.9C232.098 180.33 235.792 181.666 238.523 181.848C240.769 181.986 243.001 181.407 244.898 180.196C246.794 178.984 248.257 177.201 249.076 175.105C250.632 174.938 267.178 175.658 276.024 176.189C276.572 184.703 290.172 187.578 294.74 176.899C294.826 176.69 294.983 176.518 295.182 176.412C295.382 176.306 295.612 176.272 295.834 176.318C297.735 176.704 299.7 176.639 301.571 176.126C304.098 175.277 325.588 160.714 330.295 154.102C331.036 149.913 328.984 107.157 328.837 104.545ZM319.136 136.232C319.075 136.267 319.006 136.285 318.937 136.285C318.867 136.285 318.798 136.267 318.737 136.233C318.676 136.199 318.625 136.149 318.59 136.089C318.554 136.029 318.534 135.961 318.532 135.891C318.532 128.787 318.737 112.663 318.734 111.743C318.734 110.343 318.891 110.083 319.55 109.575C324.553 105.712 324.434 105.093 324.431 106.202C324.373 131.162 324.777 131.604 324.323 132.071C322.768 133.662 321.026 135.059 319.136 136.232V136.232ZM278.307 63.6687C297.562 61.218 311.114 84.4239 302.284 101.978C295.086 116.286 276.493 117.22 266.041 104.757C253.487 89.7902 259.781 66.026 278.307 63.6687ZM261.534 73.4109C260.015 76.7504 258.999 80.2966 258.52 83.9338C257.13 98.0367 266.819 110.998 277.042 113.83C282.347 115.298 277.001 114.623 276.397 114.484C272.469 113.544 268.82 111.682 265.753 109.053C262.685 106.423 260.288 103.102 258.757 99.3631C254.359 89.3001 257.59 76.42 261.544 73.4109H261.534ZM224.364 121.291C225.403 120.411 250.092 99.2217 251.946 99.2545C257.133 99.348 257.33 98.9437 257.694 99.9139C259.349 104.037 262.02 107.673 265.459 110.486C268.899 113.298 272.993 115.194 277.363 115.998C281.693 116.495 286.08 115.942 290.151 114.383C294.222 112.824 297.857 110.307 300.748 107.044C304.79 102.185 304.229 99.6966 305.485 99.7421C320.786 100.313 325.621 100.154 326.632 100.609C316.809 107.575 307.487 115.222 298.734 123.494C297.471 124.689 296.089 123.888 291.433 123.66C282.893 123.244 237.08 121.119 224.503 122.344C223.23 122.458 222.954 122.483 224.364 121.291ZM305.341 144.84C304.785 145.176 304.952 144.335 304.967 138.615C305.02 121.025 304.886 129.082 305.22 121.528C305.265 120.492 306.003 120.027 309.209 117.503C311.518 115.687 311.715 115.366 311.715 116.528C311.715 116.766 311.235 136.669 311.21 138.582C311.152 141.566 310.422 141.773 305.341 144.84ZM284.26 125.482C276.842 148.41 277.691 148.362 276.552 148.264C268.126 147.538 269.535 149.385 271.259 143.559C276.708 125.133 276.125 124.714 276.898 124.729C285.167 124.901 284.482 124.802 284.262 125.482H284.26ZM231.87 146.232C231.87 146.172 231.63 146.99 236.878 129.502C238.646 123.638 238.434 123.769 239.238 123.82C245.102 124.196 245.279 123.395 244.826 124.638C236.062 148.761 239.581 146.715 236.395 146.715V146.586C231.757 146.586 231.762 146.758 231.848 146.217L231.87 146.232ZM299.075 175.158C282.16 173.642 228.561 172.771 224.498 171.459C223.993 166.391 223.394 151.053 223.533 147.9C224.44 148.029 252.519 148.797 252.588 148.797C259.215 148.898 258.57 149.575 258.581 147.915C258.344 140.777 258.804 133.632 259.955 126.584C260.541 124.206 261.097 124.881 261.099 126.119C261.153 150.391 258.826 149.363 261.999 149.304C267.052 149.201 296.092 150.568 296.46 150.568C297.395 150.568 297.754 150.424 297.784 151.088C298.785 172.52 300.384 175.287 299.065 175.161L299.075 175.158ZM328.749 153.43C320.357 161.225 311.245 168.209 301.536 174.287C300.548 174.64 301.016 172.212 300.124 160.36C300.124 153.034 297.85 128.35 298.931 127.291C299.77 128.241 299.141 127.796 300.326 140.376C301.311 150.81 300.942 149.941 301.842 149.57C311.181 144.311 320.024 138.216 328.261 131.359C328.395 139.393 328.903 147.119 328.739 153.433L328.749 153.43Z" fill="black"/>
<path d="M416.459 126.884C410.395 124.194 400.898 119.699 397.677 117.991C397.205 117.738 397.26 117.513 397.278 117.415C398.465 111.678 398.137 105.73 396.326 100.158C394.514 94.5867 391.281 89.5834 386.947 85.6416C377.217 77.908 366.808 77.2789 357.483 82.481C353.775 84.5499 350.413 87.1866 347.521 90.2954C345.081 93.5112 343.323 97.1915 342.356 101.111C341.389 105.03 341.233 109.105 341.897 113.087C333.016 117.139 324.412 121.774 316.142 126.96C315.03 127.642 314.719 127.806 314.704 128.585C314.32 148.45 314.671 175.279 314.863 176.224C314.908 176.606 315.044 176.97 315.261 177.287C315.478 177.603 315.769 177.862 316.109 178.041C317.597 178.832 317.713 178.912 318.537 179.304C318.807 179.658 318.171 187.028 321.844 190.039C325.07 192.684 329.825 191.611 333.658 187.007C333.782 186.856 350.373 195.63 353.933 197.429C352.811 202.806 354.438 207.283 357.622 208.766C360.401 210.059 365.323 209.342 369.145 204.834C371.283 205.683 371.25 205.757 373.347 204.496C387.432 196.04 400.284 190.115 415.264 178.149C415.577 177.897 415.517 178.023 415.56 177.644C417.25 161.326 417.775 144.907 417.129 128.514C417.103 128.097 417.139 127.185 416.459 126.884Z" fill="#FDF8F2"/>
<path d="M416.459 126.884C410.395 124.194 400.898 119.699 397.677 117.991C397.205 117.738 397.26 117.513 397.278 117.415C398.465 111.678 398.137 105.73 396.326 100.158C394.514 94.5867 391.281 89.5834 386.947 85.6416C377.217 77.908 366.808 77.2789 357.483 82.481C353.775 84.5499 350.413 87.1866 347.521 90.2954C345.081 93.5112 343.323 97.1915 342.356 101.111C341.389 105.03 341.233 109.105 341.897 113.087C333.016 117.139 324.412 121.774 316.142 126.96C315.03 127.642 314.719 127.806 314.704 128.585C314.32 148.45 314.671 175.279 314.863 176.224C314.908 176.606 315.044 176.97 315.261 177.287C315.478 177.603 315.769 177.862 316.109 178.041C317.597 178.832 317.713 178.912 318.537 179.304C318.807 179.658 318.171 187.028 321.844 190.039C325.07 192.684 329.825 191.611 333.658 187.007C333.782 186.856 350.373 195.63 353.933 197.429C352.811 202.806 354.438 207.283 357.622 208.766C360.401 210.059 365.323 209.342 369.145 204.834C371.283 205.683 371.25 205.757 373.347 204.496C387.432 196.04 400.284 190.115 415.264 178.149C415.577 177.897 415.517 178.023 415.56 177.644C417.25 161.326 417.775 144.907 417.129 128.514C417.103 128.097 417.139 127.185 416.459 126.884ZM377.551 81.9529C382.699 83.6878 387.167 87.0068 390.315 91.4349C404.271 113.226 392.589 134.145 374.749 135.901C362.566 137.096 351.682 127.65 347.695 116.922C339.813 95.7022 358.163 75.1541 377.546 81.9529H377.551ZM350.113 89.3025C350.139 89.2893 350.169 89.2852 350.197 89.291C350.226 89.2968 350.251 89.3121 350.27 89.3343C350.289 89.3566 350.3 89.3845 350.3 89.4136C350.301 89.4427 350.292 89.4713 350.275 89.4946C346.134 95.0731 344.233 102 344.946 108.911C345.312 113.679 346.72 118.31 349.071 122.475C351.422 126.64 354.658 130.238 358.552 133.016C361.358 135.006 364.519 136.441 367.864 137.245C362.723 137.768 356.301 134.067 352.344 130.593C341.733 121.27 340.419 103.112 347.038 92.8169C347.763 91.4148 348.816 90.209 350.108 89.3025H350.113ZM370.1 179.726C369.848 205.441 370.446 203.801 369.421 203.288C353.855 195.504 347.791 191.601 320.96 178.781C316.531 176.661 316.079 177.043 316.094 175.979C316.159 171.709 316.028 174.779 316.364 156.341C316.41 153.829 315.045 154.428 325.947 159.213C341.076 165.858 340.894 166.204 340.697 164.802C340.133 160.76 340.515 144.772 341.589 142.45C342.309 140.896 342.109 154.499 342.046 154.499C342.046 166.555 341.657 166.179 343.011 166.785C347.16 168.64 357.877 173.66 360.459 174.784C370.841 179.307 370.108 178.258 370.095 179.726H370.1ZM327.685 135.484C328.031 134.706 327.569 134.956 333.865 137.546C334.269 137.713 334.29 137.67 333.077 139.936C323.931 157.013 325.429 156.022 324.51 156.669C322.913 155.964 321.533 155.406 319.59 154.595C317.999 153.925 319.28 154.416 327.685 135.484ZM353.223 159.332C357.955 147.458 357.129 148.079 358.084 148.509C364.906 151.581 363.749 151.05 364.31 151.454C356.076 171.57 357.235 171.821 356.247 171.305C355.26 170.79 350.656 168.566 349.984 168.273C349.156 167.94 349.737 168.081 353.223 159.332ZM316.768 128.668C324.958 123.414 333.447 118.643 342.193 114.378C343.235 121.075 346.545 127.211 351.568 131.76C359.249 138.984 366.669 140.017 376.773 138.029C381.295 137.025 385.482 134.875 388.933 131.786C392.385 128.697 394.983 124.772 396.479 120.389C396.899 119.257 397.081 119.59 399.984 120.843C406.585 123.701 411.681 126.033 415.512 127.817C402.419 134.921 372.114 153.559 372.015 153.645C364.683 148.814 316.826 128.693 316.768 128.668ZM414.102 177.111C394.286 190.615 372.25 202.927 371.518 203.22C371.518 203.167 371.798 155.583 372.68 155.077C377.354 152.394 407.187 134.676 415.845 128.928C416.078 135.836 415.107 166.856 414.102 177.111Z" fill="black"/>
<path d="M378.334 131.578C388.837 128.294 396.343 113.544 390.345 99.08C380.82 76.1091 351.452 80.8589 350.394 105.217C349.648 122.4 364.267 135.972 378.334 131.578ZM360.232 88.3121C376.571 77.4987 396.909 97.4631 390.113 117.761C389.094 121.243 387.095 124.358 384.356 126.736C381.616 129.114 378.251 130.654 374.661 131.174C363.857 131.892 355.894 124.204 352.807 114.939C349.588 105.285 351.99 93.7769 360.232 88.3222V88.3121Z" fill="black"/>
<path d="M469.674 208.485C469.03 202.674 466.958 198.415 461.784 187.369C449.24 160.588 452.628 171.722 453.005 160.249C453.298 151.346 449.154 139.572 442.002 133.562C437.946 129.952 433.004 127.486 427.682 126.417C421.648 125.745 415.545 126.689 409.996 129.151C406.059 130.882 402.39 133.167 399.099 135.937C393.96 140.689 389.946 149.426 390.256 161.672C390.289 163.046 390.464 162.26 384.294 164.582C383.096 165.032 381.962 165.664 380.757 166.139C380.252 166.343 380.186 166.644 380.15 167.124C379.393 176.502 377.035 216.754 378.576 225.332C378.682 226.062 378.856 226.78 379.097 227.477C375.711 233.205 376.972 241.145 382.869 241.373C384.574 247.499 386.659 254.599 388.814 261.193C387.859 263.07 387.382 265.155 387.426 267.261C387.47 269.367 388.033 271.429 389.066 273.265C390.209 274.938 391.915 276.144 393.874 276.663C395.833 277.182 397.913 276.978 399.733 276.089C411.58 280.154 434.624 277.252 447.057 275.218C448.478 276.368 450.288 276.926 452.11 276.774C453.34 276.738 454.538 276.377 455.583 275.727C456.627 275.076 457.48 274.161 458.055 273.073C459.824 272.668 461.592 272.234 463.378 271.751C465.839 271.087 465.786 270.344 466.491 265.779C466.996 262.482 471.228 222.492 469.674 208.485Z" fill="#FDF8F2"/>
<path d="M414.357 183.556C430.102 191.606 447.184 177.523 446.82 158.708C447.687 143.145 432.725 126.859 416.249 132.824C396.095 140.131 394.567 173.44 414.357 183.556ZM424.049 133.228C436.282 133.617 444.612 145.889 445.223 156.136C446.188 172.306 437.138 181.699 427.452 183.758C414.43 186.525 401.111 173.948 401.631 157.968C401.242 145.525 411.068 132.817 424.049 133.228Z" fill="black"/>
<path d="M469.674 208.485C469.03 202.674 466.958 198.415 461.784 187.369C449.24 160.588 452.628 171.722 453.005 160.249C453.298 151.346 449.154 139.572 442.002 133.562C437.946 129.952 433.004 127.486 427.682 126.417C421.648 125.745 415.545 126.689 409.996 129.151C406.059 130.882 402.39 133.167 399.099 135.937C393.96 140.689 389.946 149.426 390.256 161.672C390.289 163.046 390.464 162.26 384.294 164.582C383.096 165.032 381.962 165.664 380.757 166.139C380.252 166.343 380.186 166.644 380.15 167.124C379.393 176.502 377.035 216.754 378.576 225.332C378.682 226.062 378.856 226.78 379.097 227.477C375.711 233.205 376.972 241.145 382.869 241.373C384.574 247.499 386.659 254.599 388.814 261.193C387.859 263.07 387.382 265.155 387.426 267.261C387.47 269.367 388.033 271.429 389.066 273.265C390.209 274.938 391.915 276.144 393.874 276.663C395.833 277.182 397.913 276.978 399.733 276.089C411.58 280.154 434.624 277.252 447.057 275.218C448.478 276.368 450.288 276.926 452.11 276.774C453.34 276.738 454.538 276.377 455.583 275.727C456.627 275.076 457.48 274.161 458.055 273.073C459.824 272.668 461.592 272.234 463.378 271.751C465.839 271.087 465.786 270.344 466.491 265.779C466.996 262.482 471.228 222.492 469.674 208.485ZM447.552 143.453C450.419 148.861 451.783 154.939 451.501 161.053C451.219 167.168 449.301 173.094 445.948 178.215C429.935 201.558 397.869 187.697 395.726 161.54C392.97 127.923 432.252 114.664 447.552 143.453ZM403.187 134.476C398.673 139.508 395.711 145.738 394.658 152.415C393.895 157.221 394.095 162.13 395.248 166.858C396.4 171.586 398.482 176.038 401.371 179.953C407.075 187.477 410.911 188.104 413.498 189.898C410.739 190.226 398.753 184.355 393.887 171.74C387.108 154.135 396.959 137.405 403.187 134.464V134.476ZM463.133 269.7C460.069 270.24 457.471 270.91 455.751 271.304C435.193 275.998 397.831 279.687 393.581 268.679C388.507 254.324 384.177 239.717 380.61 224.915C380.148 218.904 380.021 212.873 380.229 206.848C383.22 216.234 391.234 239.157 394.797 246.282C396.287 249.258 398.672 248.977 400.608 248.985C414.097 249.028 458.747 245.074 463.661 244.17C465.468 243.836 466.259 243.775 466.188 244.725C464.366 267.168 465.412 269.288 463.133 269.687V269.7ZM466.784 205.031C452.573 206.846 420.264 209.7 398.92 210.524C394.395 198.074 383.69 171.545 383.003 169.122C382.664 167.94 382.096 167.215 382.919 166.97C390.875 164.587 390.459 164.524 390.542 165.287C391.517 172.835 395.203 179.771 400.914 184.802C406.624 189.833 413.969 192.616 421.58 192.631C428.032 192.693 434.339 190.722 439.607 186.996C444.874 183.27 448.835 177.98 450.925 171.876C451.074 171.442 451.112 170.944 451.572 170.674C452.477 172.288 467.795 204.989 466.784 205.031Z" fill="black"/>
<path d="M396.831 321.215C400.699 319.651 400.277 319.881 401.033 321C401.031 321.011 401.027 321.021 401.021 321.029C401.015 321.037 401.007 321.044 400.997 321.048C401.401 321.505 401.81 321.96 402.223 322.413C403.071 322.16 403.261 323.567 406.892 324.181C408.995 324.523 411.148 324.385 413.191 323.777C415.233 323.168 417.111 322.106 418.685 320.669C423.15 316.913 423.152 313.282 424.688 312.14C424.723 311.167 424.817 310.196 424.969 309.234C425.055 307.926 424.393 308.666 435.345 303.502C442.331 300.217 441.353 300.273 442.199 301.15C443.055 302.253 444.2 303.099 445.506 303.594C446.812 304.088 448.23 304.212 449.602 303.952C451.542 303.708 453.416 303.092 455.122 302.138C457.545 300.894 459.629 299.08 461.194 296.851C462.759 294.623 463.757 292.047 464.104 289.346C464.16 288.969 466.335 287.706 466.734 287.504C468.222 286.746 468.452 284.621 468.851 283.184C470.994 275.473 478.452 248.988 480.68 228.129C478.189 225.115 454.167 210.643 450.759 208.606C450.714 201.918 448.29 195.463 443.921 190.398C439.553 185.333 433.524 181.988 426.914 180.961C408.546 177.758 395.419 187.429 389.464 204.501C385.987 214.47 388.658 217.871 387.081 218.51C381.018 220.969 369.873 226.378 368.18 227.179C363.11 229.587 345.379 276.797 344.315 280.538C343.913 281.948 344.214 282.522 344.735 283.052C353.282 291.789 394.711 322.077 396.831 321.215Z" fill="#FDF8F2"/>
<path d="M396.831 321.215C400.699 319.651 400.277 319.881 401.033 321C401.031 321.011 401.027 321.021 401.021 321.029C401.015 321.037 401.007 321.044 400.997 321.048C401.401 321.505 401.81 321.96 402.223 322.413C403.071 322.16 403.261 323.567 406.892 324.181C408.995 324.523 411.148 324.385 413.191 323.777C415.233 323.168 417.111 322.106 418.685 320.669C423.15 316.913 423.152 313.282 424.688 312.14C424.723 311.167 424.817 310.196 424.969 309.234C425.055 307.926 424.393 308.666 435.345 303.502C442.331 300.217 441.353 300.273 442.199 301.15C443.055 302.253 444.2 303.099 445.506 303.594C446.812 304.088 448.23 304.212 449.602 303.952C451.542 303.708 453.416 303.092 455.122 302.138C457.545 300.894 459.629 299.08 461.194 296.851C462.759 294.623 463.757 292.047 464.104 289.346C464.16 288.969 466.335 287.706 466.734 287.504C468.222 286.746 468.452 284.621 468.851 283.184C470.994 275.473 478.452 248.988 480.68 228.129C478.189 225.115 454.167 210.643 450.759 208.606C450.714 201.918 448.29 195.463 443.921 190.398C439.553 185.333 433.524 181.988 426.914 180.961C408.546 177.758 395.419 187.429 389.464 204.501C385.987 214.47 388.658 217.871 387.081 218.51C381.018 220.969 369.873 226.378 368.18 227.179C363.11 229.587 345.379 276.797 344.315 280.538C343.913 281.948 344.214 282.522 344.735 283.052C353.282 291.789 394.711 322.077 396.831 321.215ZM438.741 187.722C448.185 194.971 452.576 209.483 447.192 224.041C440.8 241.327 424.067 245.769 423.15 244.986C423.89 244.783 426.725 243.369 427.414 243.02C440.342 236.512 449.551 217.25 444.567 200.368C442.896 194.595 439.578 189.436 435.019 185.522C436.364 186.062 437.619 186.804 438.741 187.722ZM389.497 211.434C390.632 203.956 393.886 196.959 398.872 191.272C401.497 188.436 404.666 186.156 408.189 184.567C411.712 182.979 415.519 182.114 419.383 182.025C448.743 181.894 454.248 228.465 424.893 242.128C419.432 244.793 413.162 245.279 407.356 243.488C401.55 241.698 396.644 237.764 393.632 232.487C389.844 226.165 388.379 218.72 389.489 211.434H389.497ZM369.108 228.429C369.522 228.177 381.278 222.924 381.321 222.904C388.329 219.592 387.698 220.031 387.768 220.58C388.386 226.389 390.593 231.916 394.145 236.555C401.151 245.377 409.362 245.88 414.09 246.931C428.69 250.183 445.789 238.859 450.057 219.407C451.691 211.952 450.107 210.1 451.974 211.252C481.807 229.68 479.225 227.927 478.354 228.255C425.067 247.745 415.191 258.535 413.14 257.163C373.691 230.617 367.794 229.243 369.1 228.429H369.108ZM470.643 235.056C469.849 237.702 463.692 256.347 459.903 266.016C459.294 267.57 458.998 267.428 453.248 270.099C449.832 271.683 450.216 272.694 460.138 247.108C460.138 247.062 463.768 237.76 464.054 237.416C466.004 236.198 468.058 235.157 470.193 234.304C470.663 234.106 470.635 234.283 470.635 235.056H470.643ZM433.058 251.097C431.527 257.429 423.493 279.763 422.402 282.83C421.179 286.264 419.58 286.463 412.97 289.399C414.14 285.303 415.569 281.286 417.25 277.373C425.911 253.624 424.208 255.289 427.301 253.77C433.531 250.713 432.553 251.16 433.051 251.097H433.058ZM384.365 280.859C385.732 279.581 402.72 264.965 406.275 262.416C406.326 262.38 406.387 262.361 406.449 262.361C406.511 262.362 406.572 262.382 406.622 262.419C406.672 262.456 406.709 262.508 406.728 262.567C406.747 262.626 406.747 262.69 406.727 262.749C406.447 263.588 401.657 276.607 401.02 277.224C393.807 284.235 393.61 284.679 391.775 286.683C391.333 287.165 391.69 287.143 386.331 283.242C384.226 281.703 383.539 281.627 384.358 280.859H384.365ZM378.382 270.031C373.564 274.058 373.926 273.982 373.388 273.596C365.507 267.946 365.674 268.404 366.222 268.037C369.1 266.14 375.141 260.918 379.282 257.805C384.57 253.826 390.992 249.422 393.178 247.823C393.771 247.391 393.668 247.249 398.367 250.097C399.209 250.601 399.991 251.201 400.696 251.883C400.671 251.928 383.317 265.902 378.375 270.031H378.382ZM356.084 257.464C359.99 247.52 359.714 246.6 368.395 240.536C374.274 236.421 373.789 235.261 375.659 236.193C377.639 237.19 379.477 238.447 381.124 239.93C380.677 240.645 356.339 260.061 356.296 260.071C354.78 260.488 355.497 258.909 356.058 257.472L356.084 257.464ZM369.143 300.548C358.249 292.572 346.314 282.61 345.973 282.155C345.515 281.539 345.508 281.521 345.758 280.796C347.021 277.161 348.259 273.487 349.765 269.932C353.069 262.1 352.653 262.05 353.302 262.492C353.35 262.525 388.749 288.515 398.888 296.175C399.623 296.731 400.229 289.586 406.151 271.332C406.909 268.987 409.484 261.39 410.446 258.922C410.848 257.891 411.123 258.568 412.154 259.245C412.846 259.697 406.492 273.409 397.026 312.036C396.692 313.391 397.708 313.54 398.064 312.451C400.31 305.548 400.992 303.588 402.591 298.515C402.844 297.686 402.634 298.196 410.136 294.437C413.769 292.618 415.231 291.754 428.326 285.218C440.509 279.136 440.095 279.781 440.342 278.441C446.616 244.718 445.916 245.109 446.793 245.314C447.497 245.478 447.404 245.786 447.684 247.446C444.951 269.154 442.06 276.408 442.199 278.328C442.844 278.131 465.797 266.855 471.446 264.712C471.55 265.283 471.896 263.419 468.634 277.684C466.716 286.077 467.027 285.693 466.166 286.213C458.334 290.95 416.669 310.629 408.225 314.543C396.978 319.757 396.715 320.101 395.686 319.368C395.916 319.363 385.227 312.327 369.135 300.548H369.143Z" fill="black"/>
<path d="M432.008 191.661C416.728 176.788 393.1 192.578 393.148 214.93C393.117 220.59 394.74 226.135 397.817 230.885C399.482 233.498 401.72 235.698 404.361 237.318C407.002 238.938 409.977 239.935 413.06 240.235C416.144 240.535 419.256 240.13 422.159 239.049C425.063 237.968 427.683 236.241 429.82 233.998C443.145 221.065 441.606 201.002 432.008 191.661ZM425.586 235.165C403.415 249.372 381.806 217.085 403.706 193.528C406.968 190.367 411.143 188.313 415.639 187.659C431.204 185.638 443.832 204.056 435.424 223.331C433.428 228.18 429.995 232.301 425.586 235.14V235.165Z" fill="black"/>
<path d="M385.377 292.911C384.149 293.664 383.192 294.785 382.641 296.115C382.09 297.446 381.974 298.916 382.309 300.316C384.189 306.706 392.906 303.813 392.789 297.39C392.878 296.489 392.709 295.581 392.303 294.771C391.897 293.962 391.27 293.283 390.495 292.815C389.719 292.346 388.827 292.107 387.922 292.124C387.016 292.141 386.134 292.414 385.377 292.911V292.911ZM389.086 301.539C388.571 301.95 387.949 302.202 387.295 302.267C386.64 302.332 385.98 302.205 385.396 301.903C384.811 301.601 384.327 301.136 384.001 300.564C383.675 299.992 383.522 299.338 383.56 298.681C383.628 294.412 387.327 292.517 389.04 293.654C388.988 293.698 388.93 293.737 388.868 293.767C388.092 294.006 387.411 294.485 386.925 295.135C386.439 295.785 386.172 296.573 386.162 297.385C386.153 298.197 386.402 298.991 386.873 299.652C387.345 300.314 388.014 300.808 388.785 301.064C389.179 301.195 389.437 301.269 389.086 301.539V301.539ZM388.199 298.805C387.957 298.5 387.792 298.141 387.718 297.758C387.644 297.375 387.663 296.981 387.774 296.607C387.885 296.234 388.085 295.892 388.356 295.612C388.627 295.332 388.961 295.121 389.331 294.998C391.375 294.258 391.572 296.746 391.056 298.858C390.834 299.77 388.969 299.677 388.211 298.805H388.199Z" fill="black"/>
<path d="M358.145 272.418C355.618 270.352 351.27 272.37 350.944 277.151C350.843 278.005 351.014 278.871 351.433 279.623C351.852 280.375 352.497 280.976 353.277 281.339C354.057 281.703 354.933 281.812 355.778 281.649C356.623 281.487 357.396 281.062 357.986 280.435C358.548 279.935 359.002 279.323 359.317 278.64C359.632 277.956 359.802 277.214 359.817 276.462C359.832 275.709 359.691 274.961 359.404 274.265C359.116 273.569 358.687 272.941 358.145 272.418V272.418ZM352.334 278.697C351.986 277.736 351.946 276.691 352.217 275.706C352.489 274.72 353.059 273.844 353.85 273.197C355.406 272.065 356.963 272.676 357.228 273.373C356.99 273.565 356.114 273.811 355.853 273.975C355.411 274.227 355.039 274.586 354.77 275.018C354.502 275.451 354.346 275.944 354.316 276.453C354.287 276.961 354.385 277.469 354.602 277.929C354.819 278.39 355.147 278.79 355.558 279.091C355.765 279.22 355.77 279.2 356.75 279.682C356.429 279.997 356.035 280.227 355.602 280.351C355.17 280.474 354.713 280.488 354.274 280.39C353.835 280.292 353.428 280.086 353.089 279.79C352.75 279.494 352.491 279.118 352.334 278.697V278.697ZM358.286 277.466C358.153 277.954 357.746 278.136 356.952 277.972C356.78 277.957 356.612 277.909 356.458 277.83C356.305 277.751 356.168 277.642 356.056 277.51C355.945 277.378 355.86 277.225 355.808 277.06C355.755 276.895 355.735 276.722 355.75 276.549C355.876 275.011 358.024 273.851 358.312 275.253C358.455 275.985 358.448 276.738 358.292 277.466H358.286Z" fill="black"/>
<path d="M306.334 364.999C310.52 363.309 310.06 363.557 310.881 364.772C310.881 364.772 310.881 364.797 310.841 364.823C311.281 365.31 311.723 365.808 312.17 366.295C313.092 366.015 313.309 367.559 317.198 368.205C319.473 368.578 321.803 368.431 324.013 367.775C326.223 367.118 328.256 365.97 329.959 364.416C334.795 360.348 334.795 356.419 336.455 355.179C336.495 354.136 336.596 353.097 336.758 352.066C336.856 350.651 336.139 351.45 348.006 345.841C355.56 342.268 354.507 342.344 355.424 343.299C356.35 344.494 357.588 345.409 359.002 345.944C360.416 346.479 361.95 346.613 363.435 346.331C365.532 346.067 367.559 345.399 369.403 344.365C372.024 343.021 374.279 341.058 375.973 338.648C377.667 336.237 378.748 333.45 379.125 330.528C379.185 330.116 381.543 328.759 381.975 328.534C383.587 327.718 383.829 325.422 384.261 323.865C386.575 315.528 394.637 286.867 397.06 264.293C394.357 261.009 368.367 245.365 364.686 243.164C364.65 235.923 362.032 228.933 357.304 223.45C352.576 217.966 346.047 214.349 338.89 213.248C319.017 209.784 304.805 220.244 298.363 238.712C294.601 249.5 297.493 253.189 295.768 253.889C289.199 256.557 277.148 262.403 275.316 263.27C269.826 265.872 250.647 316.963 249.493 321.01C249.05 322.567 249.379 323.161 249.945 323.737C257.562 330.659 265.557 337.153 273.893 343.191C287.15 352.804 304.54 365.724 306.334 364.999Z" fill="#FDF8F2"/>
<path d="M306.334 364.999C310.52 363.309 310.06 363.557 310.881 364.772C310.881 364.772 310.881 364.797 310.841 364.823C311.281 365.31 311.723 365.808 312.17 366.295C313.092 366.015 313.309 367.559 317.198 368.205C319.473 368.578 321.803 368.431 324.013 367.775C326.223 367.118 328.256 365.97 329.959 364.416C334.795 360.348 334.795 356.419 336.455 355.179C336.495 354.136 336.596 353.097 336.758 352.066C336.856 350.651 336.139 351.45 348.006 345.841C355.56 342.268 354.507 342.344 355.424 343.299C356.35 344.494 357.588 345.409 359.002 345.944C360.416 346.479 361.95 346.613 363.435 346.331C365.532 346.067 367.559 345.399 369.403 344.365C372.024 343.021 374.279 341.058 375.973 338.648C377.667 336.237 378.748 333.45 379.125 330.528C379.185 330.116 381.543 328.759 381.975 328.534C383.587 327.718 383.829 325.422 384.261 323.865C386.575 315.528 394.637 286.867 397.06 264.293C394.357 261.009 368.367 245.365 364.686 243.164C364.65 235.923 362.032 228.933 357.304 223.45C352.576 217.966 346.047 214.349 338.89 213.248C319.017 209.784 304.805 220.244 298.363 238.712C294.601 249.5 297.493 253.189 295.768 253.889C289.199 256.557 277.148 262.403 275.316 263.27C269.826 265.872 250.647 316.963 249.493 321.01C249.05 322.567 249.379 323.161 249.945 323.737C257.562 330.659 265.557 337.153 273.893 343.191C287.15 352.804 304.54 365.724 306.334 364.999ZM351.677 220.549C361.897 228.412 366.646 244.094 360.818 259.857C353.898 278.57 335.805 283.376 334.795 282.524C335.596 282.307 338.668 280.771 339.413 280.397C353.43 273.371 363.372 252.522 357.973 234.22C354.552 222.629 347.849 219.096 347.637 218.136C349.093 218.742 350.454 219.554 351.677 220.549V220.549ZM298.38 246.206C299.61 238.115 303.13 230.545 308.524 224.39C311.365 221.32 314.793 218.852 318.606 217.134C322.419 215.415 326.538 214.48 330.72 214.385C362.493 214.246 368.445 264.629 336.687 279.417C330.778 282.301 323.993 282.828 317.71 280.89C311.427 278.953 306.117 274.698 302.857 268.987C298.763 262.144 297.18 254.089 298.38 246.206V246.206ZM276.324 264.599C276.771 264.321 289.487 258.641 289.535 258.621C297.2 255.205 296.435 255.508 296.513 256.095C297.18 262.382 299.567 268.365 303.413 273.383C310.993 282.934 319.871 283.469 324.992 284.626C340.78 288.191 359.289 275.887 363.9 254.839C365.669 246.777 363.956 244.768 365.974 246.019C398.235 265.993 395.466 264.071 394.511 264.417C336.803 285.387 326.149 297.173 323.948 295.687C281.311 266.908 274.912 265.483 276.324 264.599ZM386.184 271.769C385.327 274.629 378.69 294.816 374.562 305.27C373.91 306.92 373.589 306.799 367.361 309.692C363.665 311.407 364.077 312.494 374.817 284.818C374.817 284.77 378.776 274.733 379.054 274.331C381.164 273.014 383.386 271.888 385.696 270.966C386.227 270.736 386.189 270.933 386.189 271.769H386.184ZM345.527 289.129C343.867 295.973 335.169 320.149 333.984 323.466C332.667 327.183 330.927 327.42 323.779 330.578C323.425 329.982 326.958 321.546 328.41 317.567C337.796 291.862 335.942 293.676 339.307 292.024C346.055 288.709 344.984 289.202 345.527 289.129V289.129ZM292.835 321.334C295.3 319.02 312.938 304.04 316.536 301.374C316.59 301.334 316.656 301.312 316.723 301.312C316.791 301.311 316.857 301.332 316.911 301.372C316.966 301.412 317.006 301.469 317.026 301.533C317.047 301.598 317.045 301.667 317.023 301.731C316.725 302.587 311.498 316.7 310.828 317.37C303.12 325.055 302.814 325.434 300.823 327.602C300.348 328.107 300.76 328.095 294.937 323.876C292.681 322.231 291.95 322.16 292.835 321.334ZM286.359 309.613C281.144 313.969 281.523 313.888 280.947 313.474C272.436 307.335 272.61 307.85 273.191 307.466C276.306 305.445 282.845 299.763 287.319 296.392C293.029 292.097 299.987 287.297 302.365 285.591C303.006 285.127 302.888 284.983 308.006 288.055C308.92 288.599 309.768 289.247 310.533 289.985C310.485 290.023 291.698 305.149 286.359 309.613V309.613ZM262.203 296.018C266.425 285.25 266.124 284.27 275.526 277.689C281.887 273.237 281.352 271.994 283.375 273.02C285.515 274.1 287.502 275.459 289.285 277.062C288.802 277.84 262.466 298.853 262.421 298.853C260.836 299.313 261.594 297.57 262.203 296.018V296.018ZM305.068 362.996C295.174 355.947 290.753 353.203 276.337 342.637C264.563 334.009 251.62 323.231 251.261 322.734C250.771 322.062 250.756 322.051 251.031 321.261C252.436 317.327 253.734 313.353 255.364 309.5C258.944 301.031 258.477 300.965 259.182 301.453C259.235 301.483 297.549 329.598 308.514 337.9C309.307 338.501 309.974 330.773 316.389 311.018C317.215 308.476 319.989 300.26 321.033 297.587C321.462 296.483 321.773 297.183 322.88 297.933C323.62 298.439 316.725 313.259 306.516 355.063C306.157 356.531 307.274 356.692 307.658 355.51C310.136 348.054 310.821 345.924 312.556 340.427C312.837 339.535 312.605 340.088 320.722 336.018C324.651 334.047 326.235 333.115 340.406 326.038C353.589 319.469 353.14 320.157 353.41 318.711C360.201 282.221 359.438 282.64 360.388 282.865C361.146 283.045 361.05 283.371 361.353 285.172C358.39 308.669 355.272 316.501 355.421 318.593C356.111 318.373 380.939 306.175 387.071 303.856C387.179 304.475 387.576 302.458 384.039 317.918C381.954 326.996 382.295 326.584 381.361 327.147C372.887 332.261 327.799 353.577 318.666 357.799C306.455 363.433 306.167 363.779 305.068 363.006V362.996Z" fill="black"/>
<path d="M344.395 224.784C327.865 208.695 302.276 225.779 302.37 249.958C302.332 256.084 304.089 262.088 307.423 267.229C316.409 280.192 332.107 280.205 342.053 270.571C356.447 256.64 354.787 234.892 344.395 224.784ZM337.45 271.852C313.448 287.236 290.086 252.297 313.759 226.828C317.289 223.405 321.807 221.181 326.672 220.471C343.509 218.27 357.162 238.209 348.082 259.073C345.928 264.32 342.217 268.78 337.45 271.852V271.852Z" fill="black"/>
<path d="M293.934 334.373C292.604 335.184 291.565 336.397 290.969 337.837C290.374 339.276 290.251 340.868 290.619 342.382C292.641 349.302 302.102 346.172 301.961 339.219C302.054 338.244 301.869 337.262 301.429 336.387C300.988 335.512 300.309 334.779 299.471 334.273C298.632 333.767 297.668 333.508 296.688 333.525C295.709 333.543 294.754 333.837 293.934 334.373V334.373ZM297.951 343.721C297.393 344.167 296.718 344.441 296.007 344.51C295.297 344.579 294.581 344.44 293.948 344.111C293.314 343.781 292.79 343.275 292.439 342.653C292.087 342.032 291.924 341.321 291.969 340.609C292.042 335.99 296.046 333.941 297.903 335.172C297.844 335.217 297.782 335.259 297.716 335.295C296.874 335.551 296.134 336.068 295.606 336.773C295.077 337.477 294.787 338.331 294.777 339.212C294.767 340.092 295.038 340.953 295.551 341.669C296.064 342.385 296.791 342.919 297.628 343.193C298.078 343.332 298.333 343.418 297.951 343.711V343.721ZM296.991 340.763C296.722 340.433 296.537 340.042 296.453 339.624C296.369 339.207 296.388 338.775 296.508 338.366C296.629 337.957 296.847 337.584 297.144 337.279C297.442 336.974 297.809 336.746 298.214 336.614C300.048 335.957 300.139 337.372 300.415 339.02C300.316 339.575 300.23 340.187 300.084 340.788C299.839 341.796 297.805 341.718 297.004 340.753L296.991 340.763Z" fill="black"/>
<path d="M264.469 312.198C261.733 309.98 257.034 312.145 256.688 317.317C256.579 318.241 256.765 319.176 257.218 319.988C257.671 320.801 258.369 321.45 259.212 321.844C260.055 322.237 261 322.355 261.914 322.181C262.828 322.006 263.664 321.548 264.303 320.872C264.909 320.329 265.398 319.667 265.737 318.927C266.077 318.187 266.26 317.385 266.276 316.571C266.291 315.757 266.139 314.949 265.828 314.196C265.517 313.444 265.055 312.764 264.469 312.198ZM258.211 318.989C257.836 317.949 257.793 316.817 258.088 315.751C258.384 314.684 259.003 313.736 259.861 313.037C261.564 311.814 263.259 312.471 263.494 313.229C263.229 313.436 262.284 313.701 261.998 313.878C261.519 314.151 261.115 314.54 260.824 315.009C260.533 315.478 260.365 316.012 260.333 316.563C260.302 317.114 260.409 317.664 260.644 318.163C260.88 318.661 261.237 319.093 261.683 319.419C261.905 319.56 261.913 319.533 262.976 320.058C262.629 320.396 262.203 320.643 261.736 320.775C261.27 320.907 260.777 320.92 260.304 320.814C259.831 320.708 259.392 320.485 259.027 320.167C258.661 319.848 258.381 319.444 258.211 318.989V318.989ZM264.626 317.66C264.479 318.178 264.06 318.386 263.209 318.231C262.833 318.201 262.485 318.022 262.241 317.734C261.997 317.447 261.877 317.074 261.907 316.698C262.044 315.033 264.371 313.772 264.687 315.296C264.83 316.08 264.809 316.885 264.626 317.66V317.66Z" fill="black"/>
<path d="M207.523 407.384C211.85 405.636 211.373 405.888 212.222 407.144C212.22 407.155 212.216 407.166 212.209 407.176C212.201 407.185 212.192 407.192 212.181 407.197C212.639 407.715 213.093 408.233 213.556 408.753C214.506 408.458 214.738 410.047 218.745 410.724C221.1 411.108 223.511 410.955 225.797 410.275C228.084 409.595 230.187 408.406 231.949 406.798C236.951 402.589 236.951 398.496 238.667 397.24C238.707 396.152 238.813 395.067 238.985 393.991C239.084 392.528 238.346 393.362 250.607 387.574C258.439 383.882 257.345 383.948 258.285 384.939C259.242 386.178 260.527 387.126 261.993 387.676C263.46 388.226 265.051 388.356 266.587 388.051C268.759 387.774 270.857 387.081 272.767 386.012C275.482 384.625 277.818 382.596 279.572 380.102C281.325 377.607 282.442 374.722 282.827 371.697C282.888 371.273 285.319 369.855 285.768 369.623C287.428 368.761 287.691 366.394 288.141 364.782C290.533 356.152 298.891 326.496 301.385 303.135C298.542 299.717 271.678 283.542 267.883 281.276C267.843 279.674 267.693 278.076 267.433 276.494C267.383 276.352 267.347 276.205 267.325 276.056C266.247 269.559 263.139 263.569 258.447 258.946C253.754 254.323 247.719 251.305 241.206 250.324C220.638 246.734 205.933 257.565 199.266 276.675C195.375 287.838 198.366 291.653 196.598 292.375C189.809 295.154 177.326 301.19 175.433 302.082C169.734 304.77 149.933 357.602 148.721 361.831C148.274 363.39 148.605 364.049 149.186 364.643C157.072 371.804 165.346 378.527 173.971 384.779C187.695 394.746 205.661 408.134 207.523 407.384Z" fill="#FDF8F2"/>
<path d="M207.523 407.384C211.85 405.636 211.373 405.888 212.222 407.144C212.22 407.155 212.216 407.166 212.209 407.176C212.201 407.185 212.192 407.192 212.181 407.197C212.639 407.715 213.093 408.233 213.556 408.753C214.506 408.458 214.738 410.047 218.745 410.724C221.1 411.108 223.511 410.955 225.797 410.275C228.084 409.595 230.187 408.406 231.949 406.798C236.951 402.589 236.951 398.496 238.667 397.24C238.707 396.152 238.813 395.067 238.985 393.991C239.084 392.528 238.346 393.362 250.607 387.574C258.439 383.882 257.345 383.948 258.285 384.939C259.242 386.178 260.527 387.126 261.993 387.676C263.46 388.226 265.051 388.356 266.587 388.051C268.759 387.774 270.857 387.081 272.767 386.012C275.482 384.625 277.818 382.596 279.572 380.102C281.325 377.607 282.442 374.722 282.827 371.697C282.888 371.273 285.319 369.855 285.768 369.623C287.428 368.761 287.691 366.394 288.141 364.782C290.533 356.152 298.891 326.496 301.385 303.135C298.542 299.717 271.678 283.542 267.883 281.276C267.843 279.674 267.693 278.076 267.433 276.494C267.383 276.352 267.347 276.205 267.325 276.056C266.247 269.559 263.139 263.569 258.447 258.946C253.754 254.323 247.719 251.305 241.206 250.324C220.638 246.734 205.933 257.565 199.266 276.675C195.375 287.838 198.366 291.653 196.598 292.375C189.809 295.154 177.326 301.19 175.433 302.082C169.734 304.77 149.933 357.602 148.721 361.831C148.274 363.39 148.605 364.049 149.186 364.643C157.072 371.804 165.346 378.527 173.971 384.779C187.695 394.746 205.661 408.134 207.523 407.384ZM254.435 257.916C265.046 266.001 269.927 282.302 263.899 298.593C256.736 317.951 238.005 322.926 236.976 322.044C238.605 321.389 240.199 320.653 241.754 319.838C256.221 312.567 266.534 291.008 260.955 272.105C257.418 260.112 250.478 256.458 250.261 255.503C251.779 256.064 253.191 256.88 254.435 257.916V257.916ZM199.284 284.465C199.466 279.096 204.218 267.62 209.784 261.89C212.723 258.713 216.27 256.158 220.214 254.375C224.158 252.593 228.42 251.62 232.747 251.514C265.627 251.322 271.749 303.436 238.917 318.802C232.814 321.799 225.798 322.353 219.3 320.352C212.802 318.352 207.313 313.947 203.953 308.037C199.711 300.958 198.06 292.626 199.284 284.465V284.465ZM176.454 303.497C176.916 303.206 190.08 297.332 190.125 297.312C198.061 293.775 197.265 294.091 197.348 294.717C198.042 301.224 200.514 307.413 204.493 312.607C212.325 322.461 221.514 323.044 226.802 324.229C243.136 327.918 262.295 315.187 267.075 293.406C268.906 285.056 267.133 282.982 269.222 284.273C302.61 304.917 299.735 302.954 298.754 303.31C239.058 325.02 228.012 337.203 225.739 335.664C181.611 305.927 175.006 304.404 176.454 303.497ZM290.147 310.915C289.26 313.878 282.357 334.76 278.105 345.578C277.431 347.291 277.095 347.157 270.655 350.149C266.83 351.917 267.252 353.057 278.363 324.416C278.363 324.368 282.469 313.977 282.754 313.567C284.934 312.199 287.233 311.032 289.624 310.081C290.182 309.841 290.142 310.048 290.142 310.915H290.147ZM248.058 328.878C246.347 335.952 237.348 360.965 236.125 364.408C234.758 368.248 232.959 368.496 225.562 371.765C225.198 371.151 228.846 362.417 230.362 358.274C240.041 331.672 238.141 333.537 241.61 331.844C248.603 328.428 247.535 328.944 248.053 328.878H248.058ZM193.581 362.203C197.346 358.724 215.057 343.875 218.106 341.538C218.162 341.496 218.23 341.472 218.3 341.472C218.37 341.471 218.438 341.493 218.495 341.534C218.551 341.575 218.593 341.633 218.614 341.7C218.635 341.767 218.634 341.839 218.611 341.905C218.293 342.832 212.904 357.392 212.204 358.087C204.228 366.04 203.955 366.477 201.845 368.678C201.34 369.209 201.767 369.183 195.749 364.823C193.417 363.13 192.644 363.062 193.576 362.203H193.581ZM186.836 350.075C181.434 354.575 181.836 354.499 181.237 354.065C172.447 347.68 172.589 348.239 173.205 347.847C176.434 345.732 183.213 339.904 187.859 336.427C193.796 331.991 200.969 327.034 203.425 325.25C204.086 324.767 203.945 324.616 209.261 327.799C210.203 328.357 211.075 329.027 211.855 329.795C211.818 329.805 192.381 345.447 186.83 350.073L186.836 350.075ZM161.864 336.008C163.576 331.739 165.547 327.579 167.766 323.55C170.243 321.214 172.869 319.042 175.628 317.046C182.197 312.438 181.664 311.142 183.748 312.183C185.962 313.297 188.018 314.703 189.86 316.362C189.354 317.17 162.114 338.906 162.068 338.918C160.449 339.436 161.227 337.61 161.859 336.005L161.864 336.008ZM206.214 405.315C195.941 398.051 191.383 395.176 176.464 384.246C164.279 375.318 150.896 364.163 150.522 363.653C150.017 362.953 150.017 362.943 150.29 362.137C151.71 358.057 153.087 353.956 154.772 349.964C158.473 341.207 158.008 341.144 158.726 341.627C158.771 341.665 198.412 370.767 209.761 379.342C210.585 379.966 211.277 371.973 217.912 351.528C218.763 348.903 221.648 340.411 222.712 337.632C223.151 336.49 223.47 337.215 224.619 337.991C225.403 338.514 218.263 353.731 207.692 397.124C207.32 398.64 208.465 398.809 208.874 397.584C211.441 389.878 212.146 387.67 213.927 381.983C222.133 377.463 228.076 374.403 242.744 367.091C256.388 360.282 255.92 361.005 256.198 359.512C263.174 321.748 262.423 322.193 263.424 322.425C264.207 322.607 264.104 322.931 264.422 324.808C261.355 349.115 258.123 357.235 258.282 359.388C259 359.166 284.697 346.541 291.026 344.138C291.142 344.777 291.531 342.693 287.878 358.665C285.728 368.067 286.079 367.635 285.111 368.218C276.347 373.524 229.698 395.57 220.259 399.936C207.644 405.77 207.361 406.128 206.209 405.312L206.214 405.315Z" fill="black"/>
<path d="M246.903 262.295C229.784 245.637 203.319 263.333 203.397 288.35C203.363 294.688 205.181 300.897 208.627 306.215C217.919 319.633 234.157 319.651 244.458 309.674C259.359 295.24 257.654 272.757 246.903 262.295ZM239.715 310.993C214.872 326.91 190.701 290.781 215.208 264.402C218.861 260.862 223.536 258.564 228.569 257.833C245.986 255.559 260.107 276.178 250.718 297.784C248.495 303.213 244.653 307.825 239.715 310.993V310.993Z" fill="black"/>
<path d="M194.681 375.692C193.303 376.534 192.229 377.792 191.612 379.283C190.995 380.775 190.867 382.425 191.247 383.994C193.321 391.149 203.122 387.905 202.983 380.709C203.079 379.7 202.889 378.684 202.434 377.779C201.979 376.873 201.277 376.114 200.409 375.59C199.542 375.066 198.544 374.797 197.53 374.815C196.517 374.833 195.529 375.137 194.681 375.692V375.692ZM198.832 385.358C198.255 385.814 197.56 386.094 196.828 386.164C196.097 386.233 195.36 386.09 194.708 385.752C194.056 385.413 193.516 384.893 193.152 384.254C192.789 383.616 192.618 382.886 192.659 382.152C192.733 377.374 196.879 375.252 198.799 376.523C198.74 376.573 198.675 376.616 198.607 376.652C197.734 376.914 196.967 377.448 196.419 378.177C195.871 378.905 195.57 379.79 195.559 380.701C195.549 381.613 195.83 382.504 196.361 383.245C196.893 383.986 197.647 384.537 198.513 384.82C198.976 384.969 199.241 385.052 198.842 385.358H198.832ZM197.841 382.291C197.57 381.949 197.386 381.547 197.303 381.119C197.22 380.69 197.242 380.249 197.365 379.83C197.489 379.412 197.712 379.03 198.015 378.716C198.317 378.402 198.691 378.165 199.105 378.026C201.005 377.341 201.103 378.799 201.378 380.512C201.28 381.088 201.189 381.725 201.035 382.349C200.8 383.37 198.723 383.269 197.851 382.291H197.841Z" fill="black"/>
<path d="M164.203 352.743C161.371 350.447 156.51 352.693 156.141 358.049C156.03 359.005 156.223 359.972 156.692 360.813C157.161 361.654 157.883 362.325 158.756 362.732C159.628 363.139 160.606 363.261 161.552 363.081C162.498 362.901 163.363 362.427 164.024 361.728C164.654 361.167 165.161 360.481 165.514 359.715C165.867 358.949 166.058 358.118 166.075 357.275C166.092 356.431 165.934 355.593 165.612 354.814C165.29 354.034 164.811 353.329 164.203 352.743V352.743ZM157.731 359.765C157.34 358.688 157.294 357.516 157.6 356.412C157.905 355.308 158.547 354.327 159.436 353.605C161.205 352.342 162.948 353.024 163.226 353.802C162.722 354.06 162.202 354.285 161.669 354.477C161.175 354.757 160.759 355.158 160.459 355.641C160.159 356.124 159.985 356.674 159.953 357.241C159.92 357.809 160.031 358.376 160.274 358.89C160.517 359.404 160.884 359.849 161.343 360.184C161.578 360.333 161.581 360.308 162.677 360.848C162.32 361.204 161.88 361.464 161.396 361.605C160.912 361.746 160.401 361.763 159.908 361.656C159.416 361.548 158.959 361.318 158.578 360.988C158.198 360.657 157.906 360.237 157.731 359.765V359.765ZM164.365 358.4C164.216 358.918 163.779 359.135 162.897 358.981C162.508 358.949 162.147 358.764 161.894 358.466C161.641 358.168 161.517 357.782 161.548 357.392C161.69 355.682 164.059 354.36 164.423 355.939C164.557 356.756 164.537 357.591 164.363 358.4H164.365Z" fill="black"/>
<path d="M103.064 457.128C107.639 455.281 107.137 455.572 108.034 456.876C108.034 456.876 108.034 456.901 107.988 456.926C108.471 457.447 108.953 458.008 109.441 458.541C110.451 458.235 110.686 459.9 114.941 460.615C117.429 461.021 119.976 460.858 122.392 460.14C124.808 459.422 127.031 458.166 128.892 456.466C134.178 452.017 134.178 447.717 135.994 446.36C136.035 445.21 136.146 444.063 136.328 442.927C136.431 441.371 135.651 442.262 148.624 436.146C156.889 432.247 155.726 432.321 156.732 433.367C157.745 434.673 159.099 435.673 160.644 436.258C162.19 436.843 163.868 436.99 165.491 436.681C167.785 436.391 170.001 435.66 172.017 434.529C174.891 433.068 177.362 430.925 179.216 428.287C181.069 425.65 182.248 422.598 182.649 419.4C182.712 418.953 185.289 417.46 185.761 417.22C187.53 416.33 187.783 413.806 188.263 412.103C190.789 402.983 199.619 371.637 202.272 346.97C199.298 343.38 170.89 326.273 166.871 323.871C166.831 322.177 166.671 320.489 166.393 318.818C166.341 318.667 166.303 318.512 166.28 318.355C165.136 311.489 161.849 305.162 156.889 300.279C151.929 295.396 145.55 292.208 138.667 291.173C116.939 287.383 101.402 298.823 94.3576 319.02C90.2445 330.813 93.4102 334.853 91.5406 335.621C84.3754 338.572 71.1795 344.929 69.1785 345.879C63.1629 348.741 42.193 404.635 40.9423 409.011C40.4674 410.679 40.8211 411.358 41.4476 411.985C49.7877 419.542 58.5295 426.643 67.6348 433.258C82.1066 443.783 101.098 457.924 103.064 457.128Z" fill="#FDF8F2"/>
<path d="M103.064 457.128C107.639 455.281 107.137 455.572 108.034 456.876C108.034 456.876 108.034 456.901 107.988 456.926C108.471 457.447 108.953 458.008 109.441 458.541C110.451 458.235 110.686 459.9 114.941 460.615C117.429 461.021 119.976 460.858 122.392 460.14C124.808 459.422 127.031 458.166 128.892 456.466C134.178 452.017 134.178 447.717 135.994 446.36C136.035 445.21 136.146 444.063 136.328 442.927C136.431 441.371 135.651 442.262 148.624 436.146C156.889 432.247 155.726 432.321 156.732 433.367C157.745 434.673 159.099 435.673 160.644 436.258C162.19 436.843 163.868 436.99 165.491 436.681C167.785 436.391 170.001 435.66 172.017 434.529C174.891 433.068 177.362 430.925 179.216 428.287C181.069 425.65 182.248 422.598 182.649 419.4C182.712 418.953 185.289 417.46 185.761 417.22C187.53 416.33 187.783 413.806 188.263 412.103C190.789 402.983 199.619 371.637 202.272 346.97C199.298 343.38 170.89 326.273 166.871 323.871C166.831 322.177 166.671 320.489 166.393 318.818C166.341 318.667 166.303 318.512 166.28 318.355C165.136 311.489 161.849 305.162 156.889 300.279C151.929 295.396 145.55 292.208 138.667 291.173C116.939 287.383 101.402 298.823 94.3576 319.02C90.2445 330.813 93.4102 334.853 91.5406 335.621C84.3754 338.572 71.1795 344.929 69.1785 345.879C63.1629 348.741 42.193 404.635 40.9423 409.011C40.4674 410.679 40.8211 411.358 41.4476 411.985C49.7877 419.542 58.5295 426.643 67.6348 433.258C82.1066 443.783 101.098 457.924 103.064 457.128ZM152.639 299.189C163.819 307.779 169.008 324.934 162.636 342.17C155.074 362.635 135.279 367.885 134.188 366.955C135.065 366.717 138.422 365.035 139.241 364.625C154.534 356.93 165.428 334.153 159.531 314.164C155.792 301.488 148.465 297.628 148.235 296.599C149.83 297.227 151.316 298.101 152.639 299.189V299.189ZM94.3778 327.243C94.58 321.566 99.5698 309.444 105.472 303.376C108.577 300.022 112.323 297.326 116.49 295.447C120.656 293.568 125.157 292.545 129.726 292.438C164.488 292.284 170.969 347.367 136.25 363.521C129.788 366.672 122.37 367.246 115.501 365.126C108.632 363.006 102.828 358.351 99.2666 352.107C94.7948 344.64 93.0659 335.847 94.3778 327.243V327.243ZM70.2573 347.354C70.745 347.049 84.6584 340.841 84.7064 340.816C93.0009 336.897 92.2505 337.413 92.3339 338.067C93.0589 344.943 95.6717 351.484 99.8831 356.968C108.18 367.41 117.877 367.998 123.476 369.264C140.737 373.163 160.974 359.706 166.019 336.698C167.955 327.875 166.082 325.68 168.293 327.046C203.583 348.858 200.536 346.773 199.501 347.162C136.641 370.704 124.754 382.965 122.344 381.348C75.6489 349.974 68.7086 348.317 70.2523 347.354H70.2573ZM190.375 355.186C189.435 358.299 182.181 380.386 177.666 391.821C176.954 393.627 176.603 393.488 169.791 396.651C165.749 398.526 166.196 399.716 177.942 369.459C177.942 369.406 182.277 358.428 182.581 357.993C184.888 356.553 187.319 355.32 189.844 354.307C190.418 354.06 190.37 354.279 190.37 355.194L190.375 355.186ZM145.918 374.173C144.107 381.659 134.592 408.089 133.286 411.714C131.838 415.777 129.946 416.037 122.126 419.499C121.742 418.849 125.598 409.645 127.179 405.272C137.419 377.162 135.408 379.138 139.054 377.341C146.482 373.711 145.322 374.244 145.918 374.173ZM88.3142 409.385C90.5477 407.291 109.81 390.83 114.244 387.533C114.303 387.496 114.373 387.478 114.443 387.481C114.513 387.484 114.581 387.508 114.637 387.55C114.693 387.592 114.735 387.65 114.758 387.716C114.781 387.783 114.783 387.855 114.764 387.922C114.438 388.86 108.713 404.319 107.993 405.022C99.4713 413.329 99.2237 413.839 97.0559 416.214C96.5355 416.783 96.97 416.719 90.6159 412.141C88.1551 410.373 87.339 410.289 88.3142 409.385ZM75.3356 400.795C66.0153 394.107 66.2099 394.645 66.8592 394.226C70.2801 392.005 77.4099 385.81 82.3037 382.122C88.5467 377.417 96.1464 372.225 98.7411 370.313C99.4435 369.807 99.3096 369.651 104.906 373.006C105.904 373.6 106.83 374.308 107.665 375.116C73.6757 402.28 76.2401 401.444 75.3255 400.79L75.3356 400.795ZM54.8128 381.702C59.4262 369.934 59.123 368.862 69.4009 361.664C76.3538 356.798 75.7803 355.434 77.9909 356.528C80.3324 357.704 82.5052 359.19 84.4512 360.944C83.9308 361.796 55.1438 384.764 55.0781 384.779C53.3171 385.31 54.1458 383.402 54.8128 381.702ZM101.679 454.938C90.8155 447.28 86.0505 444.225 70.2826 432.674C57.3974 423.243 43.249 411.452 42.8675 410.914C42.3471 410.186 42.337 410.156 42.6149 409.304C44.0449 404.966 45.5709 400.656 47.3521 396.444C51.2631 387.187 50.778 387.096 51.5284 387.624C51.5789 387.66 93.4683 418.402 105.487 427.475C106.359 428.134 107.104 419.698 114.1 398.084C114.999 395.305 118.033 386.318 119.173 383.395C119.64 382.2 119.992 382.958 121.194 383.774C122.02 384.335 114.413 400.643 103.294 446.247C102.905 447.848 104.115 448.015 104.544 446.734C107.255 438.586 108.006 436.254 109.901 430.246C110.209 429.266 109.951 429.867 118.829 425.421C123.124 423.268 124.86 422.255 140.35 414.524C154.766 407.331 154.271 408.091 154.567 406.51C162.005 366.614 161.161 367.074 162.199 367.316C163.03 367.511 162.919 367.872 163.235 369.843C159.999 395.525 156.585 404.087 156.75 406.378C157.508 406.146 184.665 392.806 191.363 390.269C191.481 390.944 191.888 388.754 188.035 405.643C185.774 415.575 186.133 415.118 185.11 415.734C175.84 421.32 126.555 444.635 116.561 449.251C103.195 455.418 102.897 455.799 101.679 454.94V454.938Z" fill="black"/>
<path d="M144.68 303.818C126.603 286.218 98.6271 304.907 98.6978 331.357C98.6635 338.052 100.587 344.611 104.231 350.227C114.049 364.406 131.204 364.421 142.106 353.86C157.838 338.62 156.037 314.874 144.68 303.818ZM137.075 355.288C110.838 372.114 85.2821 333.901 111.176 306.054C115.038 302.316 119.977 299.886 125.294 299.106C143.7 296.695 158.631 318.499 148.697 341.313C146.344 347.05 142.287 351.928 137.075 355.288V355.288Z" fill="black"/>
<path d="M89.507 423.642C88.0546 424.531 86.921 425.858 86.2683 427.431C85.6157 429.004 85.4777 430.743 85.8739 432.399C88.0821 439.963 98.4256 436.555 98.274 428.938C98.3778 427.872 98.178 426.798 97.6976 425.841C97.2171 424.883 96.4757 424.082 95.5589 423.528C94.6421 422.974 93.5873 422.691 92.5164 422.711C91.4456 422.731 90.4022 423.054 89.507 423.642V423.642ZM93.8955 433.852C93.2852 434.332 92.5495 434.626 91.7764 434.699C91.0032 434.772 90.2255 434.621 89.536 434.263C88.8466 433.906 88.2747 433.357 87.8887 432.684C87.5027 432.01 87.319 431.239 87.3595 430.464C87.4378 425.411 91.8162 423.2 93.845 424.519C93.7818 424.569 93.7142 424.614 93.6429 424.653C92.7183 424.928 91.9061 425.492 91.325 426.262C90.744 427.032 90.4246 427.968 90.4136 428.933C90.4026 429.898 90.7005 430.841 91.2638 431.624C91.8272 432.407 92.6263 432.989 93.5444 433.286C94.0294 433.442 94.3149 433.531 93.8955 433.854V433.852ZM92.847 430.615C92.5621 430.252 92.3684 429.826 92.2824 429.373C92.1964 428.92 92.2205 428.453 92.3527 428.011C92.4849 427.569 92.7214 427.165 93.0422 426.833C93.363 426.502 93.7588 426.252 94.1962 426.105C96.1997 425.383 96.3033 426.924 96.6039 428.736C96.4953 429.342 96.4044 430.019 96.2401 430.676C95.9723 431.76 93.7616 431.649 92.847 430.618V430.615Z" fill="black"/>
<path d="M57.2911 399.388C54.2947 396.965 49.1608 399.337 48.7717 404.992C48.6473 406.005 48.8471 407.032 49.3424 407.925C49.8376 408.819 50.603 409.532 51.5287 409.964C52.4544 410.395 53.4929 410.522 54.4954 410.327C55.4979 410.132 56.4129 409.624 57.1092 408.877C57.7739 408.284 58.309 407.56 58.6809 406.75C59.0528 405.941 59.2536 405.063 59.2707 404.172C59.2878 403.281 59.1208 402.397 58.7801 401.573C58.4395 400.75 57.9326 400.006 57.2911 399.388ZM50.4493 406.818C50.0351 405.681 49.9862 404.443 50.3096 403.276C50.633 402.11 51.3125 401.074 52.2533 400.312C54.1102 398.968 55.9647 399.688 56.2477 400.515C55.9647 400.742 54.9314 401.033 54.6206 401.23C54.0958 401.528 53.6541 401.953 53.3356 402.466C53.0172 402.979 52.8323 403.564 52.7976 404.167C52.7629 404.769 52.8797 405.371 53.1372 405.917C53.3947 406.463 53.7848 406.936 54.2719 407.293C54.5246 407.447 54.5246 407.422 55.6843 407.993C55.3045 408.368 54.8367 408.642 54.3236 408.79C53.8105 408.937 53.2685 408.954 52.7475 408.837C52.2264 408.721 51.743 408.475 51.3415 408.123C50.9399 407.772 50.6332 407.324 50.4493 406.823V406.818ZM57.4579 405.36C57.3164 405.944 56.8414 406.154 55.9015 405.987C55.6979 405.97 55.4996 405.914 55.3178 405.821C55.1361 405.727 54.9745 405.599 54.8424 405.443C54.7103 405.287 54.6102 405.107 54.5479 404.912C54.4855 404.718 54.4622 404.513 54.4791 404.309C54.6282 402.505 57.1294 401.116 57.5109 402.776C57.671 403.634 57.6529 404.515 57.4579 405.365V405.36Z" fill="black"/>
</svg>
