<svg width="24" height="24" viewBox="0 0 24 24" fill="none" xmlns="http://www.w3.org/2000/svg">
<path d="M19.1708 4H4.82922C4.82922 4 2 4 2 7.08721V16.9114C2 16.9114 2 20 4.82922 20H19.1708C19.1708 20 22 20 22 16.9114V7.08766C22 7.08766 22 4.00009 19.1708 4.00009V4ZM19.2569 8.34423L13.0195 13.1101C12.7385 13.324 12.4895 13.444 12.2727 13.4993C12.2042 13.5199 12.1285 13.5334 12.0477 13.5378C11.8765 13.5503 11.7303 13.523 11.608 13.4767C11.4089 13.4134 11.1859 13.3002 10.9371 13.1099L4.69981 8.34451C4.69981 8.34451 3.43562 7.37794 4.05058 6.41956C4.05058 6.41956 4.66553 5.46203 5.92961 6.42722L11.9784 11.0492L18.0272 6.42722C19.2914 5.46203 19.9066 6.41956 19.9066 6.41956C20.5214 7.37794 19.2572 8.34451 19.2572 8.34451L19.2569 8.34423Z" fill="#FDF8F2"/>
</svg>
