<svg viewBox="0 0 24 24" fill="none" xmlns="http://www.w3.org/2000/svg">
<g clip-path="url(#clip0_1006_179)">
<mask id="mask0_1006_179" style="mask-type:luminance" maskUnits="userSpaceOnUse" x="0" y="0" width="24" height="24">
<path d="M24 0H0V24H24V0Z" fill="white"/>
</mask>
<g mask="url(#mask0_1006_179)">
<path d="M4.99999 2.30002L23.6 15L19 21.8L0.399994 9.00002L4.99999 2.30002Z" fill="url(#paint0_linear_1006_179)"/>
<path d="M23.6 15C22 17.3 16.6 16.4 11.5 12.8C6.29999 9.30001 3.49999 4.60001 4.99999 2.30001C6.59999 5.72205e-06 12 0.900006 17.1 4.50001C22.3 7.90001 25.1 12.7 23.6 15Z" fill="url(#paint1_linear_1006_179)"/>
<path d="M19 21.7C17.4 24 12 23.1 6.89999 19.5C1.79999 15.9 -1.10001 11.3 0.499993 8.90001C2.09999 6.60001 7.49999 7.50001 12.6 11.1C17.7 14.7 20.5 19.4 19 21.7Z" fill="url(#paint2_linear_1006_179)"/>
<path d="M23.6 15L19 21.8C17.4 24.1 12 23.1 6.89999 19.6C5.89999 18.9 4.99999 18.2 4.09999 17.4C4.79999 17.3 5.69999 16.9 6.59999 15.9C8.19999 14.2 8.99999 13.8 9.69999 13.9C10.4 13.9 11.2 14.6 12.5 16.3C13.8 18 15.6 18.5 16.7 17.6C16.8 17.5 16.9 17.5 17 17.4C17.9 16.7 18.2 16.4 19.9 13.2C20.3 12.4 21.7 11.1 23.6 11.7C24.1 13 24.1 14.1 23.6 15Z" fill="#0E0F23"/>
<path fill-rule="evenodd" clip-rule="evenodd" d="M22.9 14.6C21.5 16.6 16.6 15.6 11.9 12.3C7.1 9 4.3 4.8 5.7 2.8C7.1 0.799998 12 1.8 16.7 5.1C21.4 8.4 24.2 12.6 22.9 14.6ZM18.5 11.6C17.8 12.6 15.4 12.1 13 10.5C10.7 8.9 9.3 6.8 10 5.8C10.7 4.8 13.1 5.3 15.5 6.9C17.8 8.5 19.2 10.6 18.5 11.6Z" fill="white"/>
<path d="M4.6 4.60001C4.6 4.50001 4.5 4.40001 4.4 4.50001C4.3 4.60001 4.2 4.60001 4.2 4.70001C4.3 5.00001 4.4 5.20001 4.4 5.40001C4.4 5.50001 4.5 5.60001 4.6 5.50001C4.7 5.50001 4.8 5.40001 4.7 5.30001C4.7 5.10001 4.7 4.90001 4.6 4.60001Z" fill="white"/>
<path d="M5.09999 6.20002C5.09999 6.10002 4.99999 6.00002 4.89999 6.10002C4.79999 6.20002 4.79999 6.20002 4.79999 6.30002C5.89999 8.80002 8.19999 11.5 11.2 13.5C11.3 13.6 11.4 13.5 11.5 13.5C11.6 13.4 11.5 13.3 11.5 13.2C8.39999 11.2 6.19999 8.60002 5.09999 6.20002Z" fill="white"/>
<path d="M17.2 16C17.1 16 17 16 17 16.1C17 16.2 17 16.3 17.1 16.3C17.4 16.4 17.8 16.5 18.1 16.6C18.2 16.6 18.3 16.6 18.3 16.5C18.3 16.4 18.3 16.3 18.2 16.3C17.9 16.2 17.5 16.1 17.2 16Z" fill="white"/>
<path d="M19 16.4C18.9 16.4 18.8 16.5 18.8 16.6C18.8 16.7 18.9 16.8 19 16.8C19.8 16.9 20.7 17 21.4 16.9C21.5 16.9 21.6 16.8 21.6 16.7C21.6 16.6 21.5 16.5 21.4 16.5C20.6 16.6 19.8 16.5 19 16.4Z" fill="white"/>
</g>
</g>
<defs>
<linearGradient id="paint0_linear_1006_179" x1="8.64419" y1="0.494318" x2="12.3328" y2="13.1605" gradientUnits="userSpaceOnUse">
<stop stop-color="#03B8FF"/>
<stop offset="1" stop-color="#FA52A0"/>
</linearGradient>
<linearGradient id="paint1_linear_1006_179" x1="11.6818" y1="-0.390394" x2="15.3705" y2="12.2759" gradientUnits="userSpaceOnUse">
<stop stop-color="#03B8FF"/>
<stop offset="1" stop-color="#FA52A0"/>
</linearGradient>
<linearGradient id="paint2_linear_1006_179" x1="5.61599" y1="1.37611" x2="9.30469" y2="14.0424" gradientUnits="userSpaceOnUse">
<stop stop-color="#03B8FF"/>
<stop offset="1" stop-color="#FA52A0"/>
</linearGradient>
<clipPath id="clip0_1006_179">
<rect width="24" height="24" fill="white"/>
</clipPath>
</defs>
</svg>
