<svg viewBox="0 0 24 24" fill="none" xmlns="http://www.w3.org/2000/svg">
<path d="M9.30942 4.9452C9.07497 4.90884 9.06506 4.90455 9.17542 4.88761C9.38687 4.85506 9.88614 4.89941 10.2302 4.9812C11.0335 5.17214 11.7644 5.66126 12.5446 6.5299L12.7518 6.76069L13.0483 6.71302C14.2975 6.51228 15.5682 6.6718 16.6311 7.16281C16.9235 7.29789 17.3845 7.56681 17.4421 7.63591C17.4605 7.6579 17.4942 7.79969 17.517 7.95094C17.5959 8.47425 17.5564 8.8754 17.3964 9.17498C17.3093 9.33803 17.3044 9.38968 17.363 9.52922C17.4097 9.64058 17.54 9.72297 17.6691 9.72281C17.9332 9.72245 18.2175 9.29545 18.3492 8.70135L18.4016 8.46538L18.5052 8.58277C19.0738 9.22695 19.5204 10.1055 19.5971 10.7308L19.6171 10.8938L19.5215 10.7456C19.357 10.4906 19.1918 10.3169 18.9801 10.1769C18.5987 9.92447 18.1953 9.83859 17.1271 9.78228C16.1623 9.73144 15.6163 9.64905 15.0748 9.47247C14.1536 9.17213 13.6893 8.77215 12.595 7.33645C12.109 6.69881 11.8085 6.34598 11.5097 6.06185C10.8307 5.41626 10.1635 5.07767 9.30942 4.9452Z" fill="#FF007A"/>
<path d="M17.6597 6.36897C17.684 5.9417 17.742 5.65981 17.8585 5.40245C17.9046 5.30056 17.9478 5.21717 17.9545 5.21717C17.9611 5.21717 17.9411 5.29237 17.9099 5.38427C17.8252 5.63409 17.8113 5.97573 17.8696 6.37327C17.9437 6.87763 17.9858 6.95039 18.5189 7.49525C18.769 7.75081 19.0598 8.0731 19.1652 8.21147L19.3569 8.46309L19.1652 8.28327C18.9308 8.06339 18.3916 7.63455 18.2725 7.57323C18.1927 7.53213 18.1808 7.53281 18.1315 7.58186C18.0861 7.62704 18.0766 7.6949 18.0703 8.01583C18.0605 8.51599 17.9923 8.83704 17.8278 9.15805C17.7388 9.33165 17.7248 9.29461 17.8053 9.09865C17.8654 8.95233 17.8715 8.888 17.8711 8.40378C17.8702 7.43096 17.7547 7.19708 17.0773 6.79641C16.9057 6.69492 16.623 6.54852 16.4491 6.47111C16.2751 6.39369 16.1369 6.32623 16.1419 6.32122C16.1611 6.30211 16.8217 6.4949 17.0876 6.59716C17.483 6.74929 17.5483 6.769 17.5963 6.75066C17.6285 6.73838 17.6441 6.64459 17.6597 6.36897Z" fill="#FF007A"/>
<path d="M9.76487 8.03325C9.28887 7.37795 8.99439 6.37319 9.05812 5.62209L9.07786 5.38965L9.18618 5.40944C9.38968 5.44656 9.74047 5.57714 9.90477 5.67691C10.3556 5.95069 10.5507 6.31114 10.7493 7.23677C10.8074 7.50785 10.8837 7.81466 10.9188 7.91856C10.9754 8.08574 11.189 8.47626 11.3626 8.72989C11.4877 8.91252 11.4046 8.99909 11.1281 8.97412C10.7059 8.936 10.1339 8.54127 9.76487 8.03325Z" fill="#FF007A"/>
<path d="M17.0824 12.9105C14.8579 12.0148 14.0745 11.2374 14.0745 9.92567C14.0745 9.73264 14.0811 9.57469 14.0892 9.57469C14.0973 9.57469 14.1834 9.63842 14.2805 9.71627C14.7315 10.0781 15.2367 10.2326 16.635 10.4366C17.4579 10.5567 17.921 10.6536 18.3481 10.7953C19.7058 11.2455 20.5459 12.1593 20.7462 13.404C20.8044 13.7656 20.7702 14.4438 20.6758 14.8012C20.6014 15.0836 20.374 15.5924 20.3137 15.6119C20.297 15.6174 20.2806 15.5533 20.2763 15.4661C20.2534 14.9988 20.0173 14.5438 19.6206 14.2029C19.1697 13.8154 18.5638 13.5069 17.0824 12.9105Z" fill="#FF007A"/>
<path d="M15.5208 13.2825C15.4929 13.1167 15.4445 12.9049 15.4133 12.8119L15.3566 12.6428L15.462 12.7611C15.6079 12.9248 15.7232 13.1344 15.8209 13.4135C15.8955 13.6265 15.9038 13.6898 15.9033 14.036C15.9027 14.3758 15.8934 14.447 15.8246 14.6388C15.716 14.9411 15.5812 15.1555 15.3551 15.3856C14.9487 15.7991 14.4263 16.0281 13.6724 16.1231C13.5414 16.1396 13.1594 16.1674 12.8237 16.1848C11.9774 16.2288 11.4205 16.3198 10.92 16.4955C10.8481 16.5208 10.7838 16.5361 10.7773 16.5296C10.7571 16.5095 11.0978 16.3063 11.3793 16.1708C11.7761 15.9796 12.1711 15.8753 13.0562 15.7279C13.4934 15.6551 13.9449 15.5667 14.0596 15.5316C15.1423 15.1996 15.6989 14.3429 15.5208 13.2825Z" fill="#FF007A"/>
<path d="M16.5404 15.0935C16.2449 14.4582 16.1771 13.8448 16.339 13.2726C16.3563 13.2115 16.3841 13.1615 16.4009 13.1615C16.4176 13.1615 16.4874 13.1992 16.5559 13.2453C16.6921 13.337 16.9652 13.4914 17.6929 13.8881C18.601 14.3832 19.1188 14.7666 19.4709 15.2046C19.7792 15.5882 19.97 16.0251 20.0619 16.5578C20.1138 16.8596 20.0834 17.5857 20.006 17.8896C19.7618 18.8477 19.1944 19.6003 18.385 20.0394C18.2664 20.1038 18.16 20.1566 18.1485 20.1569C18.1369 20.1571 18.1801 20.0472 18.2445 19.9127C18.5167 19.3436 18.5477 18.79 18.3419 18.1737C18.2158 17.7964 17.9589 17.336 17.44 16.5579C16.8368 15.6533 16.6889 15.4125 16.5404 15.0935Z" fill="#FF007A"/>
<path d="M8.18515 18.5215C9.01064 17.8245 10.0377 17.3294 10.9733 17.1774C11.3765 17.1119 12.0482 17.1379 12.4216 17.2334C13.0201 17.3866 13.5555 17.7297 13.8339 18.1384C14.106 18.5379 14.2228 18.886 14.3443 19.6605C14.3922 19.966 14.4444 20.2728 14.4602 20.3423C14.5514 20.7437 14.7291 21.0645 14.9492 21.2256C15.2988 21.4815 15.9008 21.4974 16.493 21.2665C16.5935 21.2272 16.6807 21.2001 16.6869 21.2063C16.7084 21.2276 16.4102 21.4272 16.1998 21.5323C15.9167 21.6737 15.6916 21.7284 15.3925 21.7284C14.8502 21.7284 14.3999 21.4524 14.0241 20.8898C13.9502 20.7791 13.784 20.4475 13.6548 20.1529C13.2581 19.248 13.0622 18.9724 12.6015 18.6707C12.2007 18.4082 11.6837 18.3612 11.2948 18.5519C10.7839 18.8024 10.6414 19.4552 11.0073 19.869C11.1527 20.0334 11.4239 20.1752 11.6457 20.2028C12.0605 20.2544 12.417 19.9388 12.417 19.5199C12.417 19.248 12.3125 19.0928 12.0493 18.974C11.6899 18.8119 11.3036 19.0014 11.3055 19.3391C11.3063 19.483 11.369 19.5734 11.5133 19.6387C11.6058 19.6806 11.608 19.684 11.5325 19.6683C11.2027 19.5999 11.1255 19.2023 11.3906 18.9384C11.7089 18.6216 12.3672 18.7614 12.5933 19.1939C12.6882 19.3755 12.6993 19.7373 12.6165 19.9558C12.4311 20.4447 11.8909 20.7018 11.3427 20.5619C10.9696 20.4666 10.8177 20.3635 10.3678 19.9001C9.58596 19.0948 9.28245 18.9387 8.15537 18.7628L7.93938 18.729L8.18515 18.5215Z" fill="#FF007A"/>
<path fill-rule="evenodd" clip-rule="evenodd" d="M2.28993 0.481698C4.90077 3.65048 8.92589 8.58409 9.12574 8.86031C9.29072 9.08838 9.22864 9.29341 8.94599 9.45409C8.7888 9.54347 8.46562 9.634 8.30381 9.634C8.12082 9.634 7.91466 9.54587 7.76453 9.40345C7.65838 9.3028 7.23011 8.66327 6.24139 7.12914C5.48488 5.9553 4.85177 4.98152 4.83452 4.96523C4.79459 4.9275 4.79527 4.92879 6.16426 7.37827C7.02387 8.91638 7.31406 9.46015 7.31406 9.53287C7.31406 9.68079 7.27373 9.75853 7.09125 9.96207C6.78706 10.3014 6.65109 10.6827 6.55293 11.4718C6.44285 12.3565 6.13344 12.9813 5.27592 14.0508C4.77396 14.6768 4.69181 14.7916 4.56516 15.0439C4.4056 15.3616 4.36173 15.5396 4.34395 15.9409C4.32517 16.3651 4.36177 16.6391 4.4914 17.0447C4.60485 17.3999 4.72327 17.6343 5.02606 18.1033C5.28736 18.508 5.43785 18.8088 5.43785 18.9264C5.43785 19.02 5.45571 19.0202 5.86063 18.9287C6.8296 18.7099 7.61645 18.325 8.05897 17.8534C8.33283 17.5615 8.39712 17.4003 8.39921 17.0003C8.40057 16.7386 8.39138 16.6838 8.32067 16.5333C8.20553 16.2883 7.99593 16.0846 7.53394 15.7688C6.92864 15.355 6.67012 15.0219 6.59868 14.5638C6.54009 14.1878 6.60807 13.9226 6.94293 13.2208C7.28954 12.4943 7.37542 12.1848 7.43353 11.4525C7.47105 10.9794 7.52302 10.7929 7.65895 10.6431C7.80069 10.4869 7.92831 10.4341 8.27913 10.3861C8.85108 10.308 9.21527 10.16 9.51465 9.88418C9.77434 9.64488 9.88301 9.41428 9.89971 9.06715L9.91235 8.80405L9.76724 8.63486C9.24168 8.02205 1.93797 0 1.90563 0C1.89872 0 2.07166 0.21678 2.28993 0.481698ZM5.73285 16.4209C5.85168 16.2105 5.78855 15.9399 5.58979 15.8077C5.40197 15.6828 5.11022 15.7417 5.11022 15.9044C5.11022 15.9541 5.13771 15.9902 5.19959 16.0221C5.30377 16.0757 5.31136 16.136 5.22937 16.2592C5.14634 16.384 5.15304 16.4937 5.24827 16.5683C5.40177 16.6885 5.61904 16.6224 5.73285 16.4209Z" fill="#FF007A"/>
<path fill-rule="evenodd" clip-rule="evenodd" d="M10.2733 10.5241C10.0048 10.6066 9.7438 10.8912 9.66298 11.1896C9.61369 11.3716 9.64167 11.691 9.71551 11.7896C9.83478 11.9488 9.95011 11.9908 10.2625 11.9886C10.8739 11.9844 11.4055 11.7221 11.4673 11.3942C11.518 11.1255 11.2845 10.7531 10.9629 10.5896C10.797 10.5052 10.444 10.4717 10.2733 10.5241ZM10.9881 11.0831C11.0824 10.9491 11.0412 10.8043 10.8808 10.7064C10.5754 10.5199 10.1135 10.6742 10.1135 10.9627C10.1135 11.1064 10.3544 11.263 10.5752 11.263C10.7221 11.263 10.9232 11.1754 10.9881 11.0831Z" fill="#FF007A"/>
</svg>
