<?xml version="1.0" encoding="UTF-8" standalone="no"?>
<svg
   inkscape:export-ydpi="96"
   inkscape:export-xdpi="96"
   inkscape:export-filename="/Users/moo/code/ts/frontend/src/lib/assets/brand-mark.png"
   sodipodi:docname="logo-square-narrow-brand-mark.svg"
   inkscape:version="1.1 (c4e8f9e, 2021-05-24)"
   id="svg8"
   version="1.1"
   viewBox="0 0 203.27147 237.24815"
   height="237.24815mm"
   width="203.27147mm"
   xmlns:inkscape="http://www.inkscape.org/namespaces/inkscape"
   xmlns:sodipodi="http://sodipodi.sourceforge.net/DTD/sodipodi-0.dtd"
   xmlns="http://www.w3.org/2000/svg"
   xmlns:svg="http://www.w3.org/2000/svg"
   xmlns:rdf="http://www.w3.org/1999/02/22-rdf-syntax-ns#"
   xmlns:cc="http://creativecommons.org/ns#"
   xmlns:dc="http://purl.org/dc/elements/1.1/">
  <defs
     id="defs2" />
  <sodipodi:namedview
     inkscape:window-maximized="0"
     inkscape:window-y="25"
     inkscape:window-x="0"
     inkscape:window-height="997"
     inkscape:window-width="1627"
     inkscape:guide-bbox="true"
     showguides="true"
     showgrid="false"
     inkscape:document-rotation="0"
     inkscape:current-layer="layer1"
     inkscape:document-units="mm"
     inkscape:cy="492.13954"
     inkscape:cx="765.17"
     inkscape:zoom="0.5841839"
     inkscape:pageshadow="2"
     inkscape:pageopacity="0"
     borderopacity="1.0"
     bordercolor="#666666"
     pagecolor="#fff1e5"
     id="base"
     inkscape:pagecheckerboard="0"
     fit-margin-top="0"
     fit-margin-left="0"
     fit-margin-right="0"
     fit-margin-bottom="0">
    <sodipodi:guide
       position="103.60174,468.83908"
       orientation="1,0"
       id="guide8069" />
  </sodipodi:namedview>
  <metadata
     id="metadata5">
    <rdf:RDF>
      <cc:Work
         rdf:about="">
        <dc:format>image/svg+xml</dc:format>
        <dc:type
           rdf:resource="http://purl.org/dc/dcmitype/StillImage" />
      </cc:Work>
    </rdf:RDF>
  </metadata>
  <g
     id="layer1"
     inkscape:groupmode="layer"
     inkscape:label="Layer 1"
     transform="translate(-46.278283,-34.312947)">
    <g
       id="g105"
       transform="matrix(1.5675837,0,0,2.0239688,-91.265326,-862.31857)">
      <rect
         y="458.67325"
         x="120.36565"
         height="56.750374"
         width="9.3301592"
         id="rect26-7"
         style="fill:#458b00;fill-opacity:1;fill-rule:evenodd;stroke-width:0.109314" />
      <rect
         style="fill:#cc0000;fill-opacity:1;fill-rule:evenodd;stroke-width:0.0612387"
         id="rect26-1-0"
         width="9.3301592"
         height="17.809958"
         x="131.52126"
         y="458.67325" />
      <rect
         y="471.92862"
         x="143.28539"
         height="19.345909"
         width="9.3301592"
         id="rect26-1-4-3"
         style="fill:#cc0000;fill-opacity:1;fill-rule:evenodd;stroke-width:0.0638242" />
      <rect
         style="fill:#cc0000;fill-opacity:1;fill-rule:evenodd;stroke-width:0.0594046"
         id="rect26-1-4-5-9"
         width="9.3301592"
         height="16.759441"
         x="153.83252"
         y="487.04544" />
      <rect
         style="fill:#458b00;fill-opacity:1;fill-rule:evenodd;stroke-width:0.064777"
         id="rect26-9-8"
         width="9.3301592"
         height="19.927677"
         x="164.78532"
         y="471.95294" />
      <rect
         y="448.0842"
         x="175.33244"
         height="33.231178"
         width="9.3301592"
         id="rect26-9-2-6"
         style="fill:#458b00;fill-opacity:1;fill-rule:evenodd;stroke-width:0.0836503" />
    </g>
    <g
       aria-label="TRADING STRATEGY.AI"
       transform="scale(1.0127285,0.98743147)"
       id="text1504-5"
       style="font-size:47.14px;line-height:1.25;font-family:'Saira Condensed';-inkscape-font-specification:'Saira Condensed, ';stroke-width:1.17851">
      <path
         d="M 80.45375,233.25296 V 204.7804 h -6.88244 v -3.95976 h 18.19604 v 3.95976 h -6.88244 v 28.47256 z"
         style="font-weight:500;font-stretch:condensed;-inkscape-font-specification:'Saira Condensed,  Medium Condensed';text-align:center;text-anchor:middle"
         id="path12583" />
      <path
         d="m 109.35352,233.25296 -3.7712,-12.53924 h -0.28284 -5.421105 v 12.53924 h -4.43116 V 200.82064 H 105.6766 q 3.34694,0 5.04398,1.22564 1.69704,1.1785 2.21558,3.25266 0.51854,2.07416 0.51854,5.46824 0,3.5355 -0.75424,5.84536 -0.7071,2.26272 -2.92268,3.25266 l 4.2426,13.38776 z m -4.80828,-16.35758 q 1.97988,0 2.92268,-0.61282 0.9428,-0.61282 1.22564,-1.83846 0.28284,-1.27278 0.28284,-3.67692 0,-2.45128 -0.28284,-3.67692 -0.2357,-1.22564 -1.1785,-1.79132 -0.89566,-0.61282 -2.92268,-0.61282 h -4.714005 v 12.20926 z"
         style="font-weight:500;font-stretch:condensed;-inkscape-font-specification:'Saira Condensed,  Medium Condensed';text-align:center;text-anchor:middle"
         id="path12585" />
      <path
         d="m 133.78088,233.25296 -1.97988,-8.29664 h -9.14516 l -1.93274,8.29664 h -4.43116 l 7.96666,-32.43232 h 6.1282 l 7.91952,32.43232 z m -6.41104,-27.62404 H 127.087 l -3.5355,15.50906 h 7.35384 z"
         style="font-weight:500;font-stretch:condensed;-inkscape-font-specification:'Saira Condensed,  Medium Condensed';text-align:center;text-anchor:middle"
         id="path12587" />
      <path
         d="m 141.94272,200.82064 h 8.0138 q 4.80828,0 6.8353,1.27278 2.07416,1.27278 2.63984,4.43116 0.56568,3.11124 0.56568,10.51222 0,7.40098 -0.56568,10.55936 -0.56568,3.11124 -2.63984,4.38402 -2.02702,1.27278 -6.8353,1.27278 h -8.0138 z m 7.91952,28.56684 q 2.8284,0 3.86548,-0.61282 1.08422,-0.65996 1.4142,-3.01696 0.37712,-2.40414 0.37712,-8.7209 0,-6.26962 -0.37712,-8.67376 -0.32998,-2.40414 -1.4142,-3.01696 -1.03708,-0.65996 -3.86548,-0.65996 h -3.48836 v 24.70136 z"
         style="font-weight:500;font-stretch:condensed;-inkscape-font-specification:'Saira Condensed,  Medium Condensed';text-align:center;text-anchor:middle"
         id="path12589" />
      <path
         d="m 165.42286,233.25296 v -32.43232 h 4.4783 v 32.43232 z"
         style="font-weight:500;font-stretch:condensed;-inkscape-font-specification:'Saira Condensed,  Medium Condensed';text-align:center;text-anchor:middle"
         id="path12591" />
      <path
         d="m 190.43358,233.25296 -9.94654,-22.95718 h -0.18856 v 22.95718 h -4.28974 v -32.43232 h 4.61972 l 9.61656,22.20294 h 0.18856 v -22.20294 h 4.28974 v 32.43232 z"
         style="font-weight:500;font-stretch:condensed;-inkscape-font-specification:'Saira Condensed,  Medium Condensed';text-align:center;text-anchor:middle"
         id="path12593" />
      <path
         d="m 209.59083,219.25238 v -3.7712 h 8.4852 v 17.25324 q -1.69704,0.37712 -3.86548,0.61282 -2.16844,0.28284 -3.95976,0.28284 -4.33688,0 -6.45818,-1.27278 -2.07416,-1.31992 -2.92268,-4.76114 -0.80138,-3.44122 -0.80138,-10.55936 0,-7.071 0.80138,-10.51222 0.84852,-3.44122 2.96982,-4.76114 2.1213,-1.31992 6.55246,-1.31992 1.83846,0 3.95976,0.28284 2.16844,0.2357 3.62978,0.65996 v 3.58264 q -3.86548,-0.65996 -5.98678,-0.65996 -3.58264,0 -4.99684,0.65996 -1.4142,0.65996 -1.97988,3.20552 -0.51854,2.54556 -0.51854,8.86232 0,5.84536 0.37712,8.39092 0.37712,2.54556 1.55562,3.48836 1.1785,0.9428 3.81834,0.9428 1.79132,0 3.5355,-0.32998 v -10.27652 z"
         style="font-weight:500;font-stretch:condensed;-inkscape-font-specification:'Saira Condensed,  Medium Condensed';text-align:center;text-anchor:middle"
         id="path12595" />
      <path
         d="m 54.511813,275.01766 q -1.8856,0 -4.14832,-0.18856 -2.26272,-0.18856 -4.0069,-0.4714 v -3.72406 q 4.05404,0.51854 6.8353,0.51854 1.79132,0 2.8284,-0.2357 1.08422,-0.28284 1.69704,-0.89566 0.56568,-0.56568 0.75424,-1.60276 0.18856,-1.03708 0.18856,-2.73411 0,-2.30986 -0.2357,-3.25266 -0.18856,-0.98994 -0.9428,-1.36706 -0.7071,-0.42426 -2.49842,-0.7071 l -5.09112,-0.84852 q -2.54556,-0.42426 -3.39408,-2.40414 -0.80138,-2.02702 -0.80138,-6.08106 0,-5.09112 2.16844,-7.11814 2.21558,-2.07416 6.78816,-2.07416 1.97988,0 3.95976,0.2357 2.02702,0.18856 3.25266,0.51854 v 3.62978 q -3.01696,-0.51854 -6.1282,-0.51854 -1.93274,0 -3.01696,0.28284 -1.08422,0.28284 -1.6499,0.89566 -0.56568,0.61282 -0.75424,1.55562 -0.18856,0.9428 -0.18856,2.49842 0,1.97988 0.18856,2.87554 0.18856,0.84852 0.7071,1.22564 0.56568,0.32998 1.83846,0.51854 l 4.80828,0.80138 q 1.8856,0.32998 3.01696,1.08422 1.1785,0.7071 1.83846,2.40414 0.56568,1.60276 0.56568,5.32682 0,3.81833 -0.89566,5.98677 -0.84852,2.1213 -2.68698,3.01696 -1.83846,0.84852 -4.99684,0.84852 z"
         style="font-weight:500;font-stretch:condensed;-inkscape-font-specification:'Saira Condensed,  Medium Condensed';text-align:center;text-anchor:middle"
         id="path12597" />
      <path
         d="m 72.349883,274.64054 v -28.47255 h -6.88244 v -3.95976 h 18.19604 v 3.95976 h -6.88244 v 28.47255 z"
         style="font-weight:500;font-stretch:condensed;-inkscape-font-specification:'Saira Condensed,  Medium Condensed';text-align:center;text-anchor:middle"
         id="path12599" />
      <path
         d="m 101.24965,274.64054 -3.7712,-12.53923 h -0.28284 -5.4211 v 12.53923 h -4.43116 v -32.43231 h 10.22938 q 3.34694,0 5.04398,1.22564 1.69704,1.1785 2.21558,3.25266 0.51854,2.07416 0.51854,5.46824 0,3.5355 -0.75424,5.84536 -0.7071,2.26272 -2.92268,3.25266 l 4.2426,13.38775 z m -4.80828,-16.35757 q 1.97988,0 2.92268,-0.61282 0.9428,-0.61282 1.22564,-1.83846 0.28284,-1.27278 0.28284,-3.67692 0,-2.45128 -0.28284,-3.67692 -0.2357,-1.22564 -1.1785,-1.79132 -0.89566,-0.61282 -2.92268,-0.61282 h -4.714 v 12.20926 z"
         style="font-weight:500;font-stretch:condensed;-inkscape-font-specification:'Saira Condensed,  Medium Condensed';text-align:center;text-anchor:middle"
         id="path12601" />
      <path
         d="m 125.67701,274.64054 -1.97988,-8.29664 h -9.14516 l -1.93274,8.29664 h -4.43116 l 7.96666,-32.43231 h 6.1282 l 7.91952,32.43231 z m -6.41104,-27.62403 h -0.28284 l -3.5355,15.50906 h 7.35384 z"
         style="font-weight:500;font-stretch:condensed;-inkscape-font-specification:'Saira Condensed,  Medium Condensed';text-align:center;text-anchor:middle"
         id="path12603" />
      <path
         d="m 136.24668,274.64054 v -28.47255 h -6.88244 v -3.95976 h 18.19604 v 3.95976 h -6.88244 v 28.47255 z"
         style="font-weight:500;font-stretch:condensed;-inkscape-font-specification:'Saira Condensed,  Medium Condensed';text-align:center;text-anchor:middle"
         id="path12605" />
      <path
         d="m 151.24015,274.64054 v -32.43231 h 15.46192 v 3.86548 h -11.03076 v 10.22938 h 9.56942 v 3.86548 h -9.56942 v 10.60649 h 11.03076 v 3.86548 z"
         style="font-weight:500;font-stretch:condensed;-inkscape-font-specification:'Saira Condensed,  Medium Condensed';text-align:center;text-anchor:middle"
         id="path12607" />
      <path
         d="m 180.3108,260.63997 v -3.7712 h 8.4852 V 274.122 q -1.69704,0.37712 -3.86548,0.61282 -2.16844,0.28284 -3.95976,0.28284 -4.33688,0 -6.45818,-1.27278 -2.07416,-1.31992 -2.92268,-4.76114 -0.80138,-3.44121 -0.80138,-10.55935 0,-7.071 0.80138,-10.51222 0.84852,-3.44122 2.96982,-4.76114 2.1213,-1.31992 6.55246,-1.31992 1.83846,0 3.95976,0.28284 2.16844,0.2357 3.62978,0.65996 v 3.58264 q -3.86548,-0.65996 -5.98678,-0.65996 -3.58264,0 -4.99684,0.65996 -1.4142,0.65996 -1.97988,3.20552 -0.51854,2.54556 -0.51854,8.86232 0,5.84536 0.37712,8.39091 0.37712,2.54556 1.55562,3.48836 1.1785,0.9428 3.81834,0.9428 1.79132,0 3.5355,-0.32998 v -10.27651 z"
         style="font-weight:500;font-stretch:condensed;-inkscape-font-specification:'Saira Condensed,  Medium Condensed';text-align:center;text-anchor:middle"
         id="path12609" />
      <path
         d="m 199.46731,274.64054 v -12.06783 l -8.10808,-20.36448 h 4.61972 l 5.70394,15.0848 h 0.28284 l 5.6568,-15.0848 h 4.43116 l -8.10808,20.36448 v 12.06783 z"
         style="letter-spacing:-6.4255px"
         id="path12611" />
      <path
         d="m 208.28718,274.64054 v -4.80828 h 4.714 v 4.80828 z"
         style="letter-spacing:-0.0160638px;fill:#458b00"
         id="path12613" />
      <path
         d="m 233.67884,274.64054 -1.97988,-8.29664 h -9.14516 l -1.93274,8.29664 h -4.43116 l 7.96666,-32.43231 h 6.1282 l 7.91952,32.43231 z m -6.41104,-27.62403 h -0.28284 l -3.5355,15.50906 h 7.35384 z"
         style="font-weight:500;font-stretch:condensed;-inkscape-font-specification:'Saira Condensed,  Medium Condensed';text-align:center;text-anchor:middle"
         id="path12615" />
      <path
         d="m 241.93498,274.64054 v -32.43231 h 4.4783 v 32.43231 z"
         style="font-weight:500;font-stretch:condensed;-inkscape-font-specification:'Saira Condensed,  Medium Condensed';text-align:center;text-anchor:middle"
         id="path12617" />
    </g>
  </g>
</svg>
