<?xml version="1.0" encoding="UTF-8" standalone="no"?>
<svg
   inkscape:export-ydpi="162.50999"
   inkscape:export-xdpi="162.50999"
   inkscape:export-filename="/Users/mikkoohtamaa/Downloads/logo-t-shirt.png"
   sodipodi:docname="logo-polo-shirt.svg"
   inkscape:version="1.1 (c4e8f9e, 2021-05-24)"
   id="svg8"
   version="1.1"
   viewBox="0 0 296.96958 74.807205"
   height="74.807205mm"
   width="296.96957mm"
   xmlns:inkscape="http://www.inkscape.org/namespaces/inkscape"
   xmlns:sodipodi="http://sodipodi.sourceforge.net/DTD/sodipodi-0.dtd"
   xmlns="http://www.w3.org/2000/svg"
   xmlns:svg="http://www.w3.org/2000/svg"
   xmlns:rdf="http://www.w3.org/1999/02/22-rdf-syntax-ns#"
   xmlns:cc="http://creativecommons.org/ns#"
   xmlns:dc="http://purl.org/dc/elements/1.1/">
  <defs
     id="defs2" />
  <sodipodi:namedview
     inkscape:window-maximized="0"
     inkscape:window-y="144"
     inkscape:window-x="1489"
     inkscape:window-height="997"
     inkscape:window-width="1787"
     inkscape:guide-bbox="true"
     showguides="true"
     showgrid="false"
     inkscape:document-rotation="0"
     inkscape:current-layer="text1504-9"
     inkscape:document-units="mm"
     inkscape:cy="144.64496"
     inkscape:cx="420.01509"
     inkscape:zoom="0.8261608"
     inkscape:pageshadow="2"
     inkscape:pageopacity="0"
     borderopacity="1.0"
     bordercolor="#666666"
     pagecolor="#000000"
     id="base"
     inkscape:pagecheckerboard="0"
     fit-margin-top="0"
     fit-margin-left="0"
     fit-margin-right="0"
     fit-margin-bottom="0">
    <sodipodi:guide
       position="83.699301,175.54469"
       orientation="0,-1"
       id="guide2123" />
    <sodipodi:guide
       position="115.4493,242.44647"
       orientation="0,-1"
       id="guide2125" />
  </sodipodi:namedview>
  <metadata
     id="metadata5">
    <rdf:RDF>
      <cc:Work
         rdf:about="">
        <dc:format>image/svg+xml</dc:format>
        <dc:type
           rdf:resource="http://purl.org/dc/dcmitype/StillImage" />
      </cc:Work>
    </rdf:RDF>
  </metadata>
  <g
     id="layer1"
     inkscape:groupmode="layer"
     inkscape:label="Layer 1"
     transform="translate(-28.9376,-183.13628)">
    <rect
       y="197.59865"
       x="28.937599"
       height="53.467335"
       width="8.7904043"
       id="rect26-90"
       style="fill:#55d400;fill-opacity:1;fill-rule:evenodd;stroke-width:0.10299;stroke:#00ff00" />
    <rect
       style="fill:#ff2a2a;fill-opacity:1;fill-rule:evenodd;stroke-width:0.057696"
       id="rect26-1-5"
       width="8.7904043"
       height="16.779642"
       x="39.447865"
       y="197.59865" />
    <rect
       y="210.08719"
       x="50.531422"
       height="18.226738"
       width="8.7904043"
       id="rect26-1-4-56"
       style="fill:#ff2a2a;fill-opacity:1;fill-rule:evenodd;stroke-width:0.0601319" />
    <rect
       style="fill:#ff2a2a;fill-opacity:1;fill-rule:evenodd;stroke-width:0.055968"
       id="rect26-1-4-5-3"
       width="8.7904043"
       height="15.789899"
       x="60.468395"
       y="224.3295" />
    <rect
       style="fill:#55d400;fill-opacity:1;fill-rule:evenodd;stroke-width:0.0610296"
       id="rect26-9-26"
       width="8.7904043"
       height="18.774851"
       x="70.787575"
       y="210.11006" />
    <rect
       y="187.62218"
       x="80.724556"
       height="31.308737"
       width="8.7904043"
       id="rect26-9-2-8"
       style="fill:#55d400;fill-opacity:1;fill-rule:evenodd;stroke-width:0.0788111;stroke:#00ff00" />
    <g
       aria-label="TRADING
STRATEGY.AI"
       transform="scale(1.0127285,0.98743147)"
       id="text1504-9"
       style="font-size:47.8701px;line-height:1.25;font-family:'Saira Condensed';-inkscape-font-specification:'Saira Condensed, ';letter-spacing:0.836112px;stroke-width:1.19472">
      <path
         d="m 113.82397,218.78492 v -28.91354 h -6.98903 v -4.02109 h 18.47786 v 4.02109 h -6.98904 v 28.91354 z"
         id="path21155"
         style="fill:#ffffff" />
      <path
         d="m 144.00745,218.78492 -3.82961,-12.73345 h -0.28722 -5.50506 v 12.73345 h -4.49979 v -32.93463 h 10.38781 q 3.39878,0 5.1221,1.24462 1.72332,1.19676 2.2499,3.30304 0.52657,2.10629 0.52657,5.55293 0,3.59026 -0.76593,5.9359 -0.71805,2.29776 -2.96794,3.30303 l 4.30831,13.59511 z M 139.1247,202.174 q 2.01054,0 2.96794,-0.62232 0.95741,-0.62231 1.24463,-1.86693 0.28722,-1.29249 0.28722,-3.73387 0,-2.48924 -0.28722,-3.73386 -0.23935,-1.24463 -1.19676,-1.81907 -0.90953,-0.62231 -2.96794,-0.62231 h -4.78701 V 202.174 Z"
         id="path21157"
         style="fill:#ffffff" />
      <path
         d="m 169.64925,218.78492 -2.01055,-8.42514 h -9.2868 l -1.96267,8.42514 h -4.49979 l 8.09005,-32.93463 h 6.22311 l 8.04217,32.93463 z m -6.51034,-28.05188 h -0.28722 l -3.59026,15.74926 h 7.46774 z"
         id="path21159"
         style="fill:#ffffff" />
      <path
         d="m 178.77362,185.85029 h 8.13791 q 4.88275,0 6.94117,1.29249 2.10628,1.2925 2.68072,4.49979 0.57444,3.15943 0.57444,10.67504 0,7.5156 -0.57444,10.7229 -0.57444,3.15942 -2.68072,4.45192 -2.05842,1.29249 -6.94117,1.29249 h -8.13791 z m 8.04217,29.00928 q 2.87221,0 3.92535,-0.62231 1.10101,-0.67018 1.4361,-3.06369 0.38296,-2.44137 0.38296,-8.85596 0,-6.36673 -0.38296,-8.8081 -0.33509,-2.44138 -1.4361,-3.06369 -1.05314,-0.67018 -3.92535,-0.67018 h -3.54238 v 25.08393 z"
         id="path21161"
         style="fill:#ffffff" />
      <path
         d="m 203.45352,218.78492 v -32.93463 h 4.54766 v 32.93463 z"
         id="path21163"
         style="fill:#ffffff" />
      <path
         d="m 229.68771,218.78492 -10.10059,-23.31274 h -0.19148 v 23.31274 h -4.35618 v -32.93463 h 4.69127 l 9.7655,22.54682 h 0.19148 v -22.54682 h 4.35618 v 32.93463 z"
         id="path21165"
         style="fill:#ffffff" />
      <path
         d="m 249.97779,204.5675 v -3.82961 h 8.61662 v 17.52046 q -1.72333,0.38296 -3.92535,0.62231 -2.20203,0.28722 -4.02109,0.28722 -4.40405,0 -6.5582,-1.29249 -2.10629,-1.34036 -2.96795,-4.83488 -0.81379,-3.49452 -0.81379,-10.7229 0,-7.18052 0.81379,-10.67504 0.86166,-3.49451 3.01582,-4.83488 2.15415,-1.34036 6.65394,-1.34036 1.86693,0 4.02109,0.28722 2.20202,0.23935 3.686,0.67018 v 3.63813 q -3.92535,-0.67018 -6.07951,-0.67018 -3.63812,0 -5.07423,0.67018 -1.4361,0.67018 -2.01054,3.25517 -0.52657,2.58498 -0.52657,8.99958 0,5.93589 0.38296,8.52087 0.38296,2.58499 1.57971,3.54239 1.19676,0.9574 3.87748,0.9574 1.81906,0 3.59026,-0.33509 V 204.5675 Z"
         id="path21167"
         style="fill:#ffffff" />
      <path
         d="m 116.83979,261.22672 q -1.91481,0 -4.21257,-0.19148 -2.29776,-0.19148 -4.06896,-0.4787 v -3.78174 q 4.11683,0.52657 6.94117,0.52657 1.81906,0 2.8722,-0.23935 1.10101,-0.28722 1.72333,-0.90953 0.57444,-0.57444 0.76592,-1.62759 0.19148,-1.05314 0.19148,-2.77646 0,-2.34564 -0.23935,-3.30304 -0.19148,-1.00527 -0.95741,-1.38823 -0.71805,-0.43083 -2.53711,-0.71805 l -5.16997,-0.86166 q -2.58499,-0.43084 -3.44665,-2.44138 -0.81379,-2.05841 -0.81379,-6.17524 0,-5.16997 2.20202,-7.22839 2.2499,-2.10628 6.8933,-2.10628 2.01054,0 4.02109,0.23935 2.05841,0.19148 3.30303,0.52657 v 3.686 q -3.06368,-0.52657 -6.22311,-0.52657 -1.96267,0 -3.06369,0.28722 -1.10101,0.28722 -1.67545,0.90953 -0.57444,0.62231 -0.76592,1.57971 -0.19148,0.9574 -0.19148,2.53712 0,2.01054 0.19148,2.92007 0.19148,0.86167 0.71805,1.24463 0.57444,0.33509 1.86694,0.52657 l 4.88275,0.81379 q 1.9148,0.33509 3.06368,1.10101 1.19675,0.71805 1.86694,2.44138 0.57444,1.62758 0.57444,5.40932 0,3.87747 -0.90954,6.0795 -0.86166,2.15415 -2.72859,3.06369 -1.86693,0.86166 -5.07423,0.86166 z"
         style="fill:#ffffff"
         id="path21169" />
      <path
         d="m 135.79025,260.84376 v -28.91354 h -6.98904 v -4.02109 h 18.47786 v 4.02109 h -6.98903 v 28.91354 z"
         style="fill:#ffffff"
         id="path21171" />
      <path
         d="m 165.97372,260.84376 -3.82961,-12.73345 h -0.28722 -5.50506 v 12.73345 h -4.49979 v -32.93463 h 10.38781 q 3.39878,0 5.1221,1.24462 1.72332,1.19675 2.2499,3.30304 0.52657,2.10628 0.52657,5.55293 0,3.59026 -0.76592,5.93589 -0.71806,2.29777 -2.96795,3.30304 l 4.30831,13.59511 z m -4.88275,-16.61093 q 2.01054,0 2.96794,-0.62231 0.95741,-0.62231 1.24463,-1.86693 0.28722,-1.2925 0.28722,-3.73387 0,-2.48925 -0.28722,-3.73387 -0.23935,-1.24462 -1.19676,-1.81906 -0.90953,-0.62231 -2.96794,-0.62231 h -4.78701 v 12.39835 z"
         style="fill:#ffffff"
         id="path21173" />
      <path
         d="m 191.61552,260.84376 -2.01054,-8.42514 h -9.2868 l -1.96268,8.42514 h -4.49979 l 8.09005,-32.93463 h 6.22311 l 8.04218,32.93463 z m -6.51033,-28.05188 h -0.28722 l -3.59026,15.74926 h 7.46773 z"
         style="fill:#ffffff"
         id="path21175" />
      <path
         d="m 203.185,260.84376 v -28.91354 h -6.98903 v -4.02109 h 18.47786 v 4.02109 h -6.98904 v 28.91354 z"
         style="fill:#ffffff"
         id="path21177" />
      <path
         d="m 219.2468,260.84376 v -32.93463 h 15.70139 v 3.92535 h -11.2016 v 10.38781 h 9.71763 v 3.92535 h -9.71763 v 10.77077 h 11.2016 v 3.92535 z"
         style="fill:#ffffff"
         id="path21179" />
      <path
         d="m 249.6038,246.62634 v -3.82961 h 8.61661 v 17.52046 q -1.72332,0.38296 -3.92534,0.62231 -2.20203,0.28722 -4.02109,0.28722 -4.40405,0 -6.55821,-1.2925 -2.10628,-1.34036 -2.96794,-4.83488 -0.81379,-3.49451 -0.81379,-10.7229 0,-7.18051 0.81379,-10.67503 0.86166,-3.49452 3.01581,-4.83488 2.15416,-1.34036 6.65395,-1.34036 1.86693,0 4.02109,0.28722 2.20202,0.23935 3.68599,0.67018 v 3.63813 q -3.92534,-0.67018 -6.0795,-0.67018 -3.63813,0 -5.07423,0.67018 -1.4361,0.67018 -2.01054,3.25516 -0.52657,2.58499 -0.52657,8.99958 0,5.9359 0.38296,8.52088 0.38296,2.58499 1.57971,3.54239 1.19675,0.9574 3.87748,0.9574 1.81906,0 3.59026,-0.33509 v -10.43568 z"
         style="fill:#ffffff"
         id="path21181" />
      <path
         d="m 269.89312,260.84376 v -12.25475 l -8.23365,-20.67988 h 4.69126 l 5.79229,15.31843 h 0.28722 l 5.74441,-15.31843 h 4.49979 l -8.23366,20.67988 v 12.25475 z"
         style="letter-spacing:-3.96875px;fill:#ffffff"
         id="path21183" />
      <path
         d="m 281.40587,260.84376 v -4.88275 h 4.78701 v 4.88275 z"
         style="fill:#55d400;fill-opacity:1"
         id="path21185" />
      <path
         d="m 308.04322,260.84376 -2.01055,-8.42514 h -9.2868 l -1.96267,8.42514 h -4.49979 l 8.09005,-32.93463 h 6.22311 l 8.04218,32.93463 z m -6.51034,-28.05188 h -0.28722 l -3.59026,15.74926 h 7.46774 z"
         style="fill:#ffffff"
         id="path21187" />
      <path
         d="m 317.26333,260.84376 v -32.93463 h 4.54766 v 32.93463 z"
         style="fill:#ffffff"
         id="path21189" />
    </g>
  </g>
</svg>
