<?xml version="1.0" encoding="UTF-8" standalone="no"?>
<svg
   inkscape:export-ydpi="96"
   inkscape:export-xdpi="96"
   inkscape:export-filename="/Users/moo/code/ts/frontend/src/lib/assets/brand-mark.png"
   sodipodi:docname="logo-web-beta-2.svg"
   inkscape:version="1.1 (c4e8f9e, 2021-05-24)"
   id="svg8"
   version="1.1"
   viewBox="0 0 746.26752 92.959968"
   height="92.959969mm"
   width="746.26752mm"
   xmlns:inkscape="http://www.inkscape.org/namespaces/inkscape"
   xmlns:sodipodi="http://sodipodi.sourceforge.net/DTD/sodipodi-0.dtd"
   xmlns="http://www.w3.org/2000/svg"
   xmlns:svg="http://www.w3.org/2000/svg"
   xmlns:rdf="http://www.w3.org/1999/02/22-rdf-syntax-ns#"
   xmlns:cc="http://creativecommons.org/ns#"
   xmlns:dc="http://purl.org/dc/elements/1.1/">
  <defs
     id="defs2" />
  <sodipodi:namedview
     inkscape:window-maximized="0"
     inkscape:window-y="80"
     inkscape:window-x="1767"
     inkscape:window-height="1173"
     inkscape:window-width="1811"
     inkscape:guide-bbox="true"
     showguides="true"
     showgrid="false"
     inkscape:document-rotation="0"
     inkscape:current-layer="layer1"
     inkscape:document-units="mm"
     inkscape:cy="-756.96564"
     inkscape:cx="1532.1166"
     inkscape:zoom="0.21995715"
     inkscape:pageshadow="2"
     inkscape:pageopacity="0"
     borderopacity="1.0"
     bordercolor="#666666"
     pagecolor="#fff1e5"
     id="base"
     inkscape:pagecheckerboard="0"
     inkscape:snap-global="false"
     fit-margin-top="0"
     fit-margin-left="0"
     fit-margin-right="0"
     fit-margin-bottom="0">
    <sodipodi:guide
       position="53.227701,73.112356"
       orientation="0,-1"
       id="guide2123" />
    <sodipodi:guide
       position="64.955838,24.696201"
       orientation="0,-1"
       id="guide2125" />
  </sodipodi:namedview>
  <metadata
     id="metadata5">
    <rdf:RDF>
      <cc:Work
         rdf:about="">
        <dc:format>image/svg+xml</dc:format>
        <dc:type
           rdf:resource="http://purl.org/dc/dcmitype/StillImage" />
      </cc:Work>
    </rdf:RDF>
  </metadata>
  <g
     id="layer1"
     inkscape:groupmode="layer"
     inkscape:label="Layer 1"
     transform="translate(-13.565289,-176.09294)">
    <rect
       y="196.42453"
       x="13.565289"
       height="72.62838"
       width="12.879988"
       id="rect26-90"
       style="fill:#458b00;fill-opacity:1;fill-rule:evenodd;stroke-width:0.145298" />
    <rect
       style="fill:#cc0000;fill-opacity:1;fill-rule:evenodd;stroke-width:0.0734739"
       id="rect26-1-5"
       width="12.879988"
       height="18.571651"
       x="28.965273"
       y="196.72525" />
    <rect
       y="209.0094"
       x="45.205261"
       height="26.706413"
       width="12.879988"
       id="rect26-1-4-56"
       style="fill:#cc0000;fill-opacity:1;fill-rule:evenodd;stroke-width:0.0881073" />
    <rect
       style="fill:#cc0000;fill-opacity:1;fill-rule:evenodd;stroke-width:0.0820062"
       id="rect26-1-4-5-3"
       width="12.879988"
       height="23.135876"
       x="59.765244"
       y="221.45752" />
    <rect
       style="fill:#458b00;fill-opacity:1;fill-rule:evenodd;stroke-width:0.0894226"
       id="rect26-9-26"
       width="12.879988"
       height="27.509525"
       x="74.885246"
       y="209.04294" />
    <rect
       y="176.09294"
       x="89.445229"
       height="45.874584"
       width="12.879988"
       id="rect26-9-2-8"
       style="fill:#458b00;fill-opacity:1;fill-rule:evenodd;stroke-width:0.115477" />
    <g
       aria-label="TRADINGSTRATEGY.AI"
       transform="matrix(1.1575354,0,0,1.1286213,-19.678817,-30.401817)"
       id="text1504-9"
       style="font-size:75.6128px;line-height:1.25;font-family:'Saira Condensed';-inkscape-font-specification:'Saira Condensed, ';letter-spacing:1.32292px;stroke-width:1.89032">
      <path
         d="m 132.03211,243.37271 v -45.67013 h -11.03946 v -6.35148 h 29.18654 v 6.35148 h -11.03947 v 45.67013 z"
         id="path12691" />
      <path
         d="m 175.45145,243.37271 -5.09995,-16.95734 h -0.3825 -7.33118 v 16.95734 h -5.99244 V 199.51312 H 170.479 q 4.5262,0 6.82118,1.65748 2.29498,1.59374 2.99622,4.39871 0.70125,2.80498 0.70125,7.39493 0,4.78121 -1.01999,7.90493 -0.95624,3.05997 -3.95247,4.39871 l 5.73745,18.10483 z m -6.50244,-22.12104 q 2.67748,0 3.95246,-0.82875 1.27499,-0.82874 1.65749,-2.48622 0.38249,-1.72124 0.38249,-4.97246 0,-3.31497 -0.38249,-4.97245 -0.31875,-1.65748 -1.59374,-2.42248 -1.21124,-0.82874 -3.95246,-0.82874 h -6.37494 v 16.5111 z"
         style="font-size:63.7494px"
         id="path12693" />
      <path
         d="m 209.80851,243.37271 -2.67747,-11.2199 h -12.36739 l -2.61372,11.2199 h -5.99245 l 10.77365,-43.85959 h 8.28742 l 10.7099,43.85959 z m -8.66992,-37.35715 h -0.38249 l -4.78121,20.97355 h 9.94491 z"
         style="font-size:63.7494px"
         id="path12695" />
      <path
         d="m 222.16904,199.51312 h 10.8374 q 6.50244,0 9.24366,1.72123 2.80498,1.72124 3.56997,5.99245 0.76499,4.20746 0.76499,14.21611 0,10.00866 -0.76499,14.27987 -0.76499,4.20746 -3.56997,5.92869 -2.74122,1.72124 -9.24366,1.72124 h -10.8374 z m 10.7099,38.63214 q 3.82497,0 5.22745,-0.82875 1.46624,-0.89249 1.91248,-4.07996 0.51,-3.25122 0.51,-11.79364 0,-8.47867 -0.51,-11.72989 -0.44624,-3.25122 -1.91248,-4.07996 -1.40248,-0.89249 -5.22745,-0.89249 h -4.71745 v 33.40469 z"
         style="font-size:63.7494px"
         id="path12697" />
      <path
         d="m 255.24513,243.37271 v -43.85959 h 6.0562 v 43.85959 z"
         style="font-size:63.7494px"
         id="path12699" />
      <path
         d="m 290.3911,243.37271 -13.45113,-31.04596 h -0.255 v 31.04596 h -5.80119 v -43.85959 h 6.24744 l 13.00488,30.02597 h 0.255 v -30.02597 h 5.80119 v 43.85959 z"
         style="font-size:63.7494px"
         id="path12701" />
      <path
         d="m 317.62119,224.43914 v -5.09996 h 11.47489 v 23.33228 q -2.29498,0.51 -5.22745,0.82875 -2.93247,0.38249 -5.35495,0.38249 -5.86495,0 -8.73367,-1.72123 -2.80497,-1.78498 -3.95246,-6.43869 -1.08374,-4.65371 -1.08374,-14.27987 0,-9.56241 1.08374,-14.21611 1.14749,-4.65371 4.01621,-6.43869 2.86872,-1.78499 8.86117,-1.78499 2.48622,0 5.35495,0.3825 2.93247,0.31875 4.9087,0.89249 v 4.84496 q -5.22745,-0.89249 -8.09617,-0.89249 -4.84496,0 -6.75744,0.89249 -1.91248,0.89249 -2.67748,4.33496 -0.70124,3.44246 -0.70124,11.98488 0,7.90493 0.51,11.3474 0.50999,3.44246 2.10373,4.71745 1.59373,1.27499 5.1637,1.27499 2.42248,0 4.7812,-0.44625 v -13.89736 z"
         style="font-size:63.7494px"
         id="path12703" />
      <path
         d="m 350.68328,243.97761 q -3.02451,0 -6.65393,-0.30245 -3.62941,-0.30245 -6.42709,-0.75613 v -5.97341 q 6.50271,0.83174 10.96386,0.83174 2.87329,0 4.53677,-0.37806 1.73909,-0.45368 2.72206,-1.43665 0.90735,-0.90735 1.2098,-2.57083 0.30246,-1.66348 0.30246,-4.38554 0,-3.70503 -0.37807,-5.21729 -0.30245,-1.58787 -1.51225,-2.19277 -1.1342,-0.68051 -4.00748,-1.13419 l -8.16619,-1.36103 q -4.08309,-0.68052 -5.44412,-3.85625 -1.28541,-3.25135 -1.28541,-9.75406 0,-8.16618 3.47818,-11.41753 3.55381,-3.32696 10.88825,-3.32696 3.17574,0 6.35147,0.37806 3.25135,0.30245 5.21729,0.83174 v 5.82219 q -4.83922,-0.83174 -9.82967,-0.83174 -3.10012,0 -4.83922,0.45367 -1.73909,0.45368 -2.64645,1.43665 -0.90735,0.98296 -1.2098,2.49522 -0.30245,1.51226 -0.30245,4.00748 0,3.17574 0.30245,4.61238 0.30245,1.36103 1.13419,1.96593 0.90736,0.52929 2.9489,0.83174 l 7.71251,1.28542 q 3.02451,0.52929 4.83922,1.7391 1.89032,1.13419 2.9489,3.85625 0.90735,2.57083 0.90735,8.54424 0,6.12464 -1.43664,9.60283 -1.36103,3.40258 -4.30993,4.83922 -2.9489,1.36103 -8.01496,1.36103 z"
         style="font-weight:500;font-stretch:condensed;-inkscape-font-specification:'Saira Condensed,  Medium Condensed'"
         id="path12705" />
      <path
         d="m 378.7204,243.37271 v -38.50464 h -9.30742 v -5.35495 h 24.60727 v 5.35495 h -9.30741 v 38.50464 z"
         style="font-size:63.7494px"
         id="path12707" />
      <path
         d="m 419.1257,243.37271 -5.09995,-16.95734 h -0.38249 -7.33118 v 16.95734 h -5.99245 v -43.85959 h 13.83362 q 4.52621,0 6.82119,1.65748 2.29498,1.59374 2.99622,4.39871 0.70124,2.80498 0.70124,7.39493 0,4.78121 -1.01999,7.90493 -0.95624,3.05997 -3.95246,4.39871 l 5.73745,18.10483 z m -6.50243,-22.12104 q 2.67747,0 3.95246,-0.82875 1.27499,-0.82874 1.65748,-2.48622 0.3825,-1.72124 0.3825,-4.97246 0,-3.31497 -0.3825,-4.97245 -0.31874,-1.65748 -1.59373,-2.42248 -1.21124,-0.82874 -3.95246,-0.82874 h -6.37494 v 16.5111 z"
         style="font-size:63.7494px"
         id="path12709" />
      <path
         d="m 453.48274,243.37271 -2.67747,-11.2199 h -12.36738 l -2.61373,11.2199 h -5.99244 l 10.77364,-43.85959 h 8.28743 l 10.7099,43.85959 z m -8.66991,-37.35715 h -0.3825 l -4.78121,20.97355 h 9.94491 z"
         style="font-size:63.7494px"
         id="path12711" />
      <path
         d="m 469.09949,243.37271 v -38.50464 h -9.30742 v -5.35495 h 24.60727 v 5.35495 h -9.30741 v 38.50464 z"
         style="font-size:63.7494px"
         id="path12713" />
      <path
         d="m 490.69869,243.37271 v -43.85959 h 20.9098 v 5.22745 h -14.91736 v 13.83362 h 12.94113 v 5.22745 h -12.94113 v 14.34362 h 14.91736 v 5.22745 z"
         style="font-size:63.7494px"
         id="path12715" />
      <path
         d="m 531.33507,224.43914 v -5.09996 h 11.47489 v 23.33228 q -2.29498,0.51 -5.22745,0.82875 -2.93247,0.38249 -5.35495,0.38249 -5.86494,0 -8.73367,-1.72123 -2.80497,-1.78498 -3.95246,-6.43869 -1.08374,-4.65371 -1.08374,-14.27987 0,-9.56241 1.08374,-14.21611 1.14749,-4.65371 4.01621,-6.43869 2.86872,-1.78499 8.86117,-1.78499 2.48623,0 5.35495,0.3825 2.93247,0.31875 4.9087,0.89249 v 4.84496 q -5.22745,-0.89249 -8.09617,-0.89249 -4.84496,0 -6.75744,0.89249 -1.91248,0.89249 -2.67747,4.33496 -0.70125,3.44246 -0.70125,11.98488 0,7.90493 0.51,11.3474 0.50999,3.44246 2.10373,4.71745 1.59373,1.27499 5.1637,1.27499 2.42248,0 4.78121,-0.44625 v -13.89736 z"
         style="font-size:63.7494px"
         id="path12717" />
      <path
         d="m 558.56415,243.37271 v -16.31985 l -10.96489,-27.53974 h 6.24744 l 7.71368,20.39981 h 0.38249 l 7.64993,-20.39981 h 5.99244 l -10.96489,27.53974 v 16.31985 z"
         style="font-size:63.7494px"
         id="path12719" />
      <path
         d="m 580.50404,243.37271 v -6.50244 h 6.37494 v 6.50244 z"
         style="font-size:63.7494px;fill:#458b00"
         id="path12721" />
      <path
         d="m 616.18688,243.37271 -2.67748,-11.2199 h -12.36738 l -2.61373,11.2199 h -5.99244 l 10.77365,-43.85959 h 8.28742 l 10.7099,43.85959 z m -8.66992,-37.35715 h -0.3825 l -4.7812,20.97355 h 9.9449 z"
         style="font-size:63.7494px"
         id="path12723" />
      <path
         d="m 628.67491,243.37271 v -43.85959 h 6.0562 v 43.85959 z"
         style="font-size:63.7494px"
         id="path12725" />
    </g>
    <rect
       style="fill:#458b00;fill-opacity:1;stroke:#458b00;stroke-width:1.48268;stroke-linecap:round;stroke-linejoin:round;stroke-miterlimit:4;stroke-dasharray:none;stroke-opacity:1;paint-order:markers fill stroke"
       id="rect4860"
       width="55.748646"
       height="25.248848"
       x="-258.38431"
       y="730.04102"
       ry="7.2496686"
       transform="rotate(-90.887842)" />
    <text
       xml:space="preserve"
       style="font-size:20.6586px;line-height:1.25;font-family:'Saira Condensed';-inkscape-font-specification:'Saira Condensed, ';letter-spacing:2.0718px;fill:#fff1e5;fill-opacity:1;stroke:#458b00;stroke-width:5.26205e-06;stroke-linejoin:round;stroke-miterlimit:4;stroke-dasharray:none;stroke-opacity:1"
       x="-260.90604"
       y="749.98181"
       id="text569"
       transform="rotate(-90.887842)"><tspan
         sodipodi:role="line"
         id="tspan567"
         style="font-weight:bold;fill:#fff1e5;fill-opacity:1;stroke:#458b00;stroke-width:5.26205e-06;stroke-linejoin:round;stroke-miterlimit:4;stroke-dasharray:none;stroke-opacity:1"
         x="-260.90604"
         y="749.98181"
         dx="7.8304291">BETA</tspan></text>
  </g>
</svg>
