<svg viewBox="0 0 24 24" fill="none" xmlns="http://www.w3.org/2000/svg">
<g clip-path="url(#clip0_1127_121)">
<path d="M19.808 19.8024C20.1263 19.8024 20.4315 19.676 20.6565 19.4509C20.8816 19.2259 21.008 18.9207 21.008 18.6024V5.49519C21.0072 5.15272 20.8708 4.8245 20.6287 4.58226C20.3866 4.34002 20.0585 4.20345 19.716 4.20239H4.2936C3.95282 4.20345 3.62631 4.33934 3.38542 4.58039C3.14453 4.82143 3.00884 5.14802 3.008 5.48879V18.5104C3.00884 18.8528 3.14523 19.1809 3.38735 19.423C3.62946 19.6652 3.9576 19.8015 4.3 19.8024H19.808Z" stroke="#131210" stroke-linecap="round" stroke-linejoin="round"/>
<path d="M3.008 7.8024H21.008" stroke="#131210" stroke-linecap="round" stroke-linejoin="round"/>
<path d="M7.80804 4.20239V7.80239" stroke="#131210" stroke-linecap="round" stroke-linejoin="round"/>
<path d="M11.408 4.20239V7.80239" stroke="#131210" stroke-linecap="round" stroke-linejoin="round"/>
</g>
<path d="M15.4667 15.8542V16.3875C15.4667 16.6704 15.3543 16.9417 15.1542 17.1417C14.9542 17.3418 14.6829 17.4542 14.4 17.4542H9.06667C8.78377 17.4542 8.51246 17.3418 8.31242 17.1417C8.11238 16.9417 8 16.6704 8 16.3875V12.6542C8 12.3713 8.11238 12.1 8.31242 11.8999C8.51246 11.6999 8.78377 11.5875 9.06667 11.5875H14.4C14.6829 11.5875 14.9542 11.6999 15.1542 11.8999C15.3543 12.1 15.4667 12.3713 15.4667 12.6542V13.1875" stroke="black" stroke-linecap="round" stroke-linejoin="round"/>
<path d="M14.4 11.5875L13.5719 9.93133C13.5406 9.86866 13.4972 9.81277 13.4443 9.76685C13.3914 9.72094 13.3299 9.68591 13.2635 9.66375C13.197 9.6416 13.1268 9.63275 13.0569 9.63773C12.987 9.6427 12.9188 9.6614 12.8562 9.69275L9.06665 11.5875" stroke="black" stroke-linecap="round" stroke-linejoin="round"/>
<path d="M15.4667 15.8542C15.6081 15.8542 15.7438 15.798 15.8438 15.698C15.9438 15.598 16 15.4623 16 15.3208V13.7208C16 13.5794 15.9438 13.4437 15.8438 13.3437C15.7438 13.2437 15.6081 13.1875 15.4667 13.1875H14.1333C13.7797 13.1875 13.4406 13.328 13.1905 13.578C12.9405 13.8281 12.8 14.1672 12.8 14.5208C12.8 14.8745 12.9405 15.2136 13.1905 15.4637C13.4406 15.7137 13.7797 15.8542 14.1333 15.8542H15.4667Z" stroke="black" stroke-linecap="round" stroke-linejoin="round"/>
<path d="M14.1333 14.6542C14.0597 14.6542 14 14.5945 14 14.5208C14 14.4472 14.0597 14.3875 14.1333 14.3875" stroke="black"/>
<path d="M14.1333 14.6542C14.2069 14.6542 14.2666 14.5945 14.2666 14.5208C14.2666 14.4472 14.2069 14.3875 14.1333 14.3875" stroke="black"/>
<defs>
<clipPath id="clip0_1127_121">
<rect width="19.2" height="19.2" fill="white" transform="translate(2.40002 2.39999)"/>
</clipPath>
</defs>
</svg>
