<svg width="209" height="43" viewBox="0 0 209 43" fill="none" xmlns="http://www.w3.org/2000/svg">
  <g clip-path="url(#clip0_497_2546)">
  <path d="M57.1879 14.5231H59.4491L65.7763 29.1637H62.789L61.4198 25.8137H55.0512L53.7235 29.1637H50.7985L57.1879 14.5231ZM60.507 23.5804L58.2459 17.6249L55.9432 23.5804H60.507Z" fill="black"/>
  <path d="M68.5799 14.5231H71.5879L75.5916 25.5863L79.7197 14.5231H82.5414L76.6082 29.1637H74.3471L68.5799 14.5231Z" fill="black"/>
  <path d="M91.8825 14.5231H94.1442L100.471 29.1637H97.4837L96.1148 25.8137H89.7459L88.418 29.1637H85.4934L91.8825 14.5231ZM95.2018 23.5804L92.9407 17.6249L90.638 23.5804H95.2018Z" fill="black"/>
  <path d="M106.252 14.5231H108.866V26.8063H115.11V29.1637H106.252V14.5231Z" fill="black"/>
  <path d="M125.909 14.5231H128.171L134.497 29.1637H131.51L130.141 25.8137H123.772L122.445 29.1637H119.52L125.909 14.5231ZM129.228 23.5804L126.967 17.6249L124.664 23.5804H129.228Z" fill="black"/>
  <path d="M140.279 14.5231H143.743L150.858 25.4002H150.9V14.5231H153.513V29.1637H150.195L142.934 17.9351H142.893V29.1637H140.279V14.5231Z" fill="black"/>
  <path d="M171.02 17.9558C170.481 17.3768 169.955 16.9908 169.444 16.7978C168.946 16.6048 168.441 16.5083 167.93 16.5083C167.169 16.5083 166.477 16.6461 165.855 16.9218C165.246 17.1838 164.721 17.556 164.278 18.0385C163.836 18.5073 163.49 19.0586 163.241 19.6928C163.006 20.327 162.888 21.0093 162.888 21.74C162.888 22.5258 163.006 23.2496 163.241 23.9113C163.49 24.573 163.836 25.1451 164.278 25.6277C164.721 26.1102 165.246 26.4893 165.855 26.765C166.477 27.0407 167.169 27.1785 167.93 27.1785C168.524 27.1785 169.098 27.0407 169.651 26.765C170.218 26.4754 170.743 26.0205 171.228 25.4002L173.385 26.9304C172.721 27.8403 171.912 28.502 170.958 28.9156C170.004 29.3292 168.987 29.5359 167.909 29.5359C166.774 29.5359 165.73 29.3567 164.776 28.9983C163.836 28.6261 163.02 28.1091 162.328 27.4474C161.65 26.7718 161.118 25.9654 160.731 25.028C160.343 24.0905 160.15 23.0497 160.15 21.9054C160.15 20.7336 160.343 19.6722 160.731 18.7209C161.118 17.7559 161.65 16.9357 162.328 16.2602C163.02 15.5847 163.836 15.0677 164.776 14.7092C165.73 14.337 166.774 14.1509 167.909 14.1509C168.904 14.1509 169.824 14.3301 170.668 14.6886C171.525 15.0332 172.32 15.626 173.053 16.4669L171.02 17.9558Z" fill="black"/>
  <path d="M179.289 14.5231H181.902V20.3545H188.769V14.5231H191.383V29.1637H188.769V22.7119H181.902V29.1637H179.289V14.5231Z" fill="black"/>
  <path d="M198.814 14.5231H208.543V16.8805H201.428V20.4786H208.17V22.836H201.428V26.8063H208.917V29.1637H198.814V14.5231Z" fill="black"/>
  <path fill-rule="evenodd" clip-rule="evenodd" d="M21.9943 42.8306C33.6293 42.8306 43.0613 33.4286 43.0613 21.8306C43.0613 10.2327 33.6293 0.830627 21.9943 0.830627C10.3593 0.830627 0.927307 10.2327 0.927307 21.8306C0.927307 33.4286 10.3593 42.8306 21.9943 42.8306ZM15.6288 31.3446H10.6867C9.51494 31.3446 8.92903 31.3446 8.57816 31.1183C8.19895 30.8739 7.95969 30.4637 7.93436 30.0146C7.91085 29.5989 8.20103 29.0921 8.7814 28.0787L8.78166 28.0783L19.6022 9.18227C20.1911 8.15375 20.4855 7.6395 20.8603 7.44806C21.265 7.24126 21.745 7.2409 22.1501 7.44715C22.525 7.638 22.8202 8.15187 23.4106 9.17947L25.9062 13.5228L25.9063 13.5229C26.3357 14.2701 26.5503 14.6438 26.6447 15.0379C26.7475 15.4671 26.7477 15.9141 26.6453 16.3433C26.5513 16.7376 26.3369 17.1115 25.9081 17.8591L19.4376 29.1426C19.0026 29.9012 18.7851 30.2805 18.4871 30.564C18.1628 30.8726 17.7694 31.1 17.3395 31.2275C16.9445 31.3446 16.5059 31.3446 15.6288 31.3446ZM33.2608 31.3446H27.531C26.3486 31.3446 25.7574 31.3446 25.4054 31.1164C25.0251 30.8698 24.7865 30.4566 24.7641 30.0053C24.7432 29.5876 25.0408 29.0787 25.6358 28.0611L28.496 23.1696C29.0836 22.1649 29.3774 21.6625 29.7494 21.4743C30.1514 21.2709 30.6267 21.2706 31.029 21.4733C31.4013 21.6609 31.6957 22.1629 32.2846 23.1667L32.2848 23.167L35.1544 28.0584C35.7518 29.0766 36.0504 29.5858 36.0301 30.0038C36.008 30.4555 35.7696 30.8692 35.3891 31.1161C35.0371 31.3446 34.445 31.3446 33.2608 31.3446Z" fill="black"/>
  </g>
  <defs>
  <clipPath id="clip0_497_2546">
  <rect width="208" height="42" fill="white" transform="translate(0.917358 0.830627)"/>
  </clipPath>
  </defs>
</svg>
