<svg viewBox="0 0 804 196" fill="#0B0B14" xmlns="http://www.w3.org/2000/svg">
<path fill-rule="evenodd" d="M3.419.186c-1.22.519-1.216.49-1.216 7.507 0 9.184-3.375 7.992 23.007 8.132 20.992.112 21.635.127 23.31.538 17.463 4.285 16.615 27.227-1.114 30.159-2.148.355-25.908.45-26.453.105-.259-.163-.32-1.345-.405-7.898l-.102-7.706-.562-.562-.561-.562-7.696-.057c-8.475-.064-8.59-.05-9.22 1.17-.46.89-.368 78.505.094 79.203.596.898.304.888 24.242.816 22.343-.068 22.957-.08 25.595-.509 17.668-2.873 27.34-12.79 27.945-28.652.48-12.575-4.347-21.4-14.786-27.03-2.173-1.172-2.175-1.221-.095-2.283 9.264-4.731 13.224-11.612 13.217-22.962C78.61 12.435 69.55 3.022 50.58.46 47.923.1 4.215-.153 3.419.186Zm112.759.127c-.304.167-.645.478-.76.691-.14.263-.208 17.973-.208 54.641v54.252l.593.593.592.592h71.82l.593-.592.592-.593v-6.617c0-4.15-.078-6.762-.209-7.006-.559-1.047.687-1.003-28.321-1.003-20.675 0-26.986-.056-27.173-.243-.188-.188-.243-10.907-.243-47.016V1.24l-.489-.568-.489-.57-7.873-.045c-6.671-.04-7.957 0-8.425.257ZM223.556.192c-1.34.548-1.21-5.054-1.275 54.915-.063 57.502-.105 55.115.969 55.67.861.446 15.543.455 16.403.011 1.092-.565 1.04 2.363.983-55.517l-.053-54.088-.663-.591-.661-.592-7.65.013c-4.206.007-7.83.088-8.053.179ZM275.1.315c-.945.514-.969.708-.969 7.695v6.616l.592.593.594.592h26.442c27.943 0 27.307-.02 26.774.853-.088.144-12.236 17.535-26.997 38.646-31.439 44.966-27.405 38.025-27.405 47.167v7.42l.592.593.594.592h36.207c40.263 0 37.178.113 37.611-1.369.148-.502.203-2.868.161-6.988l-.063-6.229-.562-.562-.563-.561-26.597-.102c-24.367-.092-26.603-.129-26.662-.431-.034-.182 11.945-17.5 26.642-38.514 14.685-21 26.937-38.594 27.223-39.096l.519-.912V1.226l-.562-.562-.563-.562L311.88.058C280.185.02 275.582.053 275.1.315ZM381.24.69l-.689.689v6.456c.002 6.613.054 7.09.857 7.823.03.026 12.093.095 26.81.152 24.865.095 26.759.127 26.82.444.036.196-11.338 16.648-26.796 38.757-14.773 21.128-27.025 38.716-27.225 39.084-.46.845-.677 14.773-.246 15.815.523 1.262-2.345 1.172 37.442 1.172h36.355l.594-.592.592-.593v-6.617c0-4.122-.079-6.762-.207-7.004-.496-.928.349-.898-27.665-1.005-26.392-.1-26.554-.103-26.536-.506.01-.223 12.154-17.755 26.986-38.959 14.834-21.204 27.071-38.845 27.195-39.203.3-.859.316-15.044.018-15.6C454.98-.054 457.003 0 418.041 0h-36.112l-.689.69Zm141.074-.4c-.843.371.896-4.85-18.529 55.657-17.625 54.905-17.392 54.138-16.624 54.762.632.511 17.062.582 18.039.077.752-.389-.809 4.507 14.189-44.501 15.592-50.94 12.27-54.415 40.668 42.547.179.609.578 1.35.898 1.672l.58.578h8.686c9.572 0 9.588-.002 9.588-1.207 0-1.146-34.833-108.71-35.384-109.266l-.503-.507-10.486-.046c-8.554-.037-10.603.006-11.122.235Zm91.752-.146c-.166.06-.509.298-.76.526l-.456.415v108.948l.624.525.622.524h15.759l.567-.489.57-.489.053-23.159c.038-16.598.117-23.235.279-23.43.4-.481 19.942-.39 20.356.095.172.201 5.055 10.714 10.853 23.362 6.14 13.398 10.747 23.207 11.039 23.502l.503.507 8.351.057c10.541.073 10.352.134 8.897-2.895-.428-.892-5.593-11.557-11.477-23.7-7.436-15.343-10.644-22.165-10.521-22.36.1-.153.998-.553 1.999-.888 31.45-10.54 24.029-58.08-9.521-60.98-2.51-.217-47.155-.284-47.737-.071Zm112.805.042c-1.22.518-1.216.491-1.216 7.508 0 9.185-3.391 7.992 23.108 8.126 21.475.109 21.706.114 23.354.552 8.171 2.172 12.677 7.928 13.447 17.176.377 4.53.142 44.574-.276 46.622-1.534 7.55-6.026 12.648-12.808 14.535-1.944.54-26.099.846-27.309.345-1.246-.516-1.171 1.54-1.171-32.454-.002-30.443-.011-31.088-.398-31.723-.64-1.05-1.137-1.106-9.277-1.036l-7.344.062-.663.663-.663.663v39.188c0 42.29-.061 39.94 1.046 40.444.663.303 41.141.314 44.461.012 18.825-1.708 30.949-12.322 32.631-28.57.282-2.712.274-50.898-.008-53.472C802.074 13.2 791.333 3.172 773.398.457c-2.392-.363-45.718-.614-46.527-.271Zm-66.082 16.186c14.828 4.07 16.458 25.691 2.364 31.384-3.059 1.235-2.497 1.197-17.87 1.197h-14.088l-.053-16.295c-.039-12.215.008-16.367.186-16.581.454-.547 27.376-.277 29.461.295Zm-613.08 45.95c18.174 2.756 19.887 27.489 2.23 32.187-1.708.455-1.834.458-15.506.458H20.649l-.053-16.216c-.028-8.919-.008-16.33.045-16.47.15-.395 24.433-.358 27.069.041ZM218.47 166.113c-3.466.755-6.006 3.143-6.902 6.49-.411 1.539-.389 14.985.026 16.585 2.601 9.983 19.361 8.335 19.361-1.903v-.739l-1.237-.129c-1.544-.162-1.524-.176-1.696 1.234-.787 6.467-10.336 8-13.221 2.124l-.569-1.158v-15.609l.5-1.013c2.929-5.919 12.233-4.536 13.259 1.972l.215 1.373 1.121-.004c1.678-.004 1.753-.097 1.498-1.859-.787-5.461-6.219-8.699-12.355-7.364Zm160.714.006c-3.525.766-6.292 3.549-6.942 6.983-.268 1.409-.266 14.024.002 15.435 1.984 10.469 19.386 9.432 19.451-1.158l.004-.833-1.236-.129c-1.537-.161-1.521-.173-1.656 1.153-.716 6.927-11.623 8.03-13.559 1.371-.55-1.887-.377-15.495.211-16.798 2.748-6.079 12.752-4.597 13.348 1.977l.113 1.237 1.338-.06 1.34-.059.069-.709c.541-5.517-5.883-9.844-12.483-8.41Zm36.13-.099c-3.233.649-5.858 2.762-7.046 5.671-.679 1.669-.813 15.503-.168 17.619 2.761 9.063 16.772 8.698 19.168-.499.446-1.715.452-14.258.008-15.966-1.303-5.002-6.442-7.933-11.962-6.825Zm34.967.005c-4.709.817-7.462 4.946-6.177 9.269.698 2.35 2.419 3.734 7.111 5.718 8.115 3.432 9.722 4.932 9 8.402-1.315 6.337-14.191 4.861-14.191-1.626 0-1.412-.091-1.504-1.486-1.499-1.352.005-1.429.126-1.299 2.024.707 10.315 19.901 10.217 19.901-.102 0-4.082-2.039-5.98-9.908-9.221-5.592-2.304-6.584-3.176-6.596-5.799-.03-7.001 12.659-6.506 13.519.527l.16 1.317h2.635l.067-.708c.529-5.566-5.575-9.544-12.736-8.302Zm67.703.005c-3.942.7-6.486 3.517-6.486 7.181 0 3.538 1.804 5.432 7.437 7.805 8.078 3.404 9.813 5.046 8.984 8.501-1.496 6.239-14.192 4.692-14.192-1.729 0-1.412-.091-1.504-1.485-1.499-1.353.005-1.43.126-1.3 2.024.706 10.296 19.942 10.217 19.908-.081-.014-4.162-2.076-6.037-10.385-9.446-8.903-3.651-8.122-11.438 1.044-10.434 3.896.427 5.972 2.179 6.353 5.366l.156 1.317h2.635l-.036-1.565c-.126-5.307-5.806-8.653-12.633-7.44Zm-508.688.441c-.314.877-9.273 28.671-9.295 28.835-.044.318 2.604.373 2.85.059.112-.144.586-1.47 1.051-2.948l.847-2.685h12.918l.852 2.685c1.046 3.296.964 3.193 2.56 3.193 1.643 0 2.04 1.748-3.399-14.949l-4.704-14.443h-1.795c-1.253 0-1.822.076-1.885.253Zm23.507.102c.076.195 2.15 6.648 4.61 14.341 5.284 16.526 4.521 14.696 6.124 14.696 1.693 0 1.107 1.365 6.29-14.666 5.322-16.466 4.949-14.726 3.162-14.726h-1.41l-.41 1.368c-1.433 4.782-7.285 23.404-7.388 23.507-.23.23-.323-.043-3.384-9.897a11073.98 11073.98 0 0 0-3.856-12.394l-.808-2.584H34.2c-1.378 0-1.52.036-1.397.355Zm41.19.6c-.16.534-2.267 7.06-4.683 14.502-4.806 14.804-4.62 13.936-2.99 13.932 1.534-.004 1.458.088 2.485-3.038l.898-2.736H82.63l.935 2.838.936 2.838 1.297.061c.713.033 1.367-.012 1.454-.102.087-.089-1.971-6.684-4.574-14.655l-4.731-14.494-1.831-.058-1.832-.058-.29.97Zm29.104 13.69.053 14.646h18.243v-2.433l-7.754-.053-7.753-.053v-26.752h-2.84l.051 14.645Zm42.186-14.34c-.892 2.326-9.325 28.827-9.21 28.945.087.09.742.135 1.456.102l1.296-.061.929-2.838.929-2.838h12.94l.893 2.736c.491 1.505.992 2.804 1.114 2.886.332.222 2.511.186 2.653-.045.11-.177-8.807-27.955-9.257-28.837-.249-.489-3.557-.532-3.743-.05Zm28.964 14.34.052 14.646h2.635l.052-11.808c.029-6.494.12-11.804.203-11.8.083.004 3.333 5.201 7.224 11.549 7.89 12.874 7.373 12.16 8.779 12.16 1.588 0 1.487 1.054 1.429-14.921l-.052-14.37h-2.838l-.101 11.845-.101 11.844-7.078-11.54c-8.347-13.612-7.35-12.25-8.969-12.25h-1.287l.052 14.645Zm73.068-14.518c-.308.307-.166 28.791.144 29.048.168.141.772.213 1.469.177l1.182-.061.053-6.74.055-6.74h13.771l.055 6.74.053 6.74h2.635l.053-14.646.05-14.645h-2.833l-.055 6.638-.053 6.639-6.839.053-6.837.054-.055-6.642-.053-6.641-1.325-.059c-.73-.032-1.391.006-1.47.085Zm37 14.518.052 14.646h18.649v-2.433l-7.956-.053-7.956-.053v-10.941h11.351v-2.426l-5.625-.054-5.625-.054-.055-5.422-.052-5.423h16.019v-2.432h-18.853l.051 14.645Zm54.122 0 .052 14.646h18.649v-2.433l-7.956-.053-7.956-.053v-10.941h11.351v-2.426l-5.625-.054-5.625-.054-.055-5.422-.052-5.423h16.02v-2.432h-18.854l.051 14.645Zm138.487-14.3c.077.201 2.072 3.831 4.433 8.067l4.296 7.703.059 6.537.058 6.537h2.822v-13.006l4.358-7.877c5.033-9.097 4.752-8.306 2.96-8.306h-1.399l-3.62 6.537c-4.32 7.801-3.288 7.798-7.569.025l-3.56-6.461-1.49-.06c-1.36-.055-1.475-.029-1.348.304Zm68.223.867v1.212l4.206.055 4.206.055.101 13.378.101 13.379h2.636l.101-13.379.101-13.378 4.409-.055 4.409-.055v-2.424h-20.27v1.212Zm36.13 13.431.052 14.648h18.852v-2.433l-8.062-.053-8.059-.053.052-5.42.055-5.42 5.676-.101 5.676-.102.06-1.162.061-1.162-5.736-.054-5.737-.054v-10.743l8.007-.102 8.007-.101v-2.23l-9.479-.053-9.476-.052.051 14.647Zm35.155-14.508c-.199.197-.161 28.702.038 29.014.116.183.564.245 1.466.203l1.299-.061.101-11.96.102-11.959 3.521 5.323c4.812 7.276 4.173 7.282 8.969-.092l3.523-5.416.106 12.052c.059 6.628.125 12.079.152 12.112.026.032.663.032 1.415 0l1.368-.06v-29.19l-1.36-.06-1.36-.059-.568.781c-.31.43-2.116 3.167-4.009 6.082-4.16 6.396-3.136 6.495-7.912-.764l-4.001-6.081h-1.358c-.746 0-1.419.061-1.492.135Zm58.741.116c-.052.141-.073 6.732-.044 14.648l.052 14.392 1.3.061c1.729.081 1.634.491 1.638-7.001l.002-6.534 5.625-.054 5.625-.054.061-1.165.06-1.166h-11.371v-10.941l7.956-.053 7.956-.053v-2.23l-9.381-.053c-7.397-.041-9.402.002-9.479.203Zm34.164 10.551c0 13.062.039 13.302 2.485 15.891 3.937 4.162 12.233 3.819 15.604-.646 1.728-2.288 1.667-1.78 1.732-14.645l.056-11.402h-2.85v10.808c0 9.078-.048 10.974-.308 11.845-1.678 5.653-10.828 6.074-13.297.611l-.483-1.068-.06-11.098-.059-11.098h-2.82v10.802Zm37.144 3.843.052 14.646h2.636l.052-11.808c.029-6.494.12-11.807.203-11.807.083 0 3.298 5.124 7.143 11.387 8.429 13.722 7.433 12.362 8.992 12.287l1.245-.059v-29.19H764l.049 11.808c.026 6.494-.028 11.807-.122 11.807-.093 0-3.403-5.267-7.354-11.706-8.12-13.23-7.214-12.003-8.876-12.007l-1.267-.003.051 14.645Zm37.703 0 .052 14.646 5.169.059c12.9.148 14.192-1.184 14.188-14.641-.002-13.535-1.079-14.709-13.49-14.709h-5.97l.051 14.645ZM420.335 168.78c1.541.495 2.846 1.666 3.629 3.252l.675 1.373v7.302c0 11.474-3.436 15.375-10.486 11.904-3.304-1.626-3.501-2.284-3.501-11.697v-7.703l.564-1.147c1.548-3.155 5.306-4.508 9.119-3.284Zm377.136.457c1.285.58 2.343 1.747 2.781 3.068.515 1.547.363 16.614-.176 17.629-1.383 2.602-2.617 3.041-8.55 3.041h-4.553v-12.027c0-6.615.067-12.094.148-12.176.426-.424 9.261-.028 10.35.465Zm-783.369 9.295c1.516 4.766 2.715 8.734 2.663 8.818-.163.266-11.218.185-11.218-.082 0-.22.585-2.082 4.079-12.993 1.745-5.448 1.235-5.933 4.476 4.257Zm62.669-7.095c1.707 5.227 4.993 15.651 4.993 15.84 0 .263-11.06.328-11.223.066-.128-.207 5.375-17.476 5.569-17.476.081 0 .379.706.661 1.57Zm73.254 6.909c1.477 4.661 2.686 8.629 2.686 8.816 0 .31-.492.34-5.575.34-4.59 0-5.574-.049-5.574-.279 0-.212 4.915-15.876 5.367-17.103.234-.636.573.264 3.096 8.226Z" clip-rule="evenodd"/>
</svg>
