<svg viewBox="0 0 362 134" fill="#0B0B14" xmlns="http://www.w3.org/2000/svg">
<path d="M0 57.455C0 39.127 14.569 24.275 32.898 24.275C42.861 24.275 51.509 28.504 57.242 35.272L51.039 40.536C46.715 35.461 40.136 32.171 32.898 32.171C19.269 32.171 8.554 43.544 8.554 57.455C8.554 71.272 19.269 82.74 32.898 82.74C40.136 82.74 46.715 79.45 51.039 74.374L57.242 79.638C51.509 86.406 42.861 90.635 32.898 90.635C14.569 90.634 0 75.784 0 57.455Z"/>
<path d="M107.92 64.316V89.695H99.743V64.787C99.743 57.455 95.231 52.943 89.121 52.943C83.011 52.943 75.68 56.422 75.68 65.915V89.695H67.502V21.832H75.68V52.474C78.312 47.117 85.455 44.861 90.249 44.861C101.153 44.86 108.014 52.004 107.92 64.316Z"/>
<path d="M164.426 45.799V89.695H156.248V82.74C153.334 87.815 146.943 90.635 140.645 90.635C128.614 90.635 118.65 81.518 118.65 67.701C118.65 53.789 128.52 44.86 140.551 44.86C147.131 44.86 153.334 47.492 156.248 52.662V45.8H164.426V45.799ZM156.248 67.606C156.248 58.113 148.541 52.567 141.303 52.567C133.313 52.567 126.922 58.771 126.922 67.606C126.922 76.347 133.314 82.927 141.303 82.927C149.199 82.927 156.248 77.005 156.248 67.606Z"/>
<path d="M204.092 46.551L202.776 54.259C200.426 53.131 198.076 52.755 196.384 52.755C187.643 52.755 184.165 62.06 184.165 73.621V89.694H175.894V45.799H184.165V55.763C186.421 48.055 190.651 44.86 196.478 44.86C199.58 44.86 202.776 45.706 204.092 46.551Z"/>
<path d="M212.175 70.99V52.849V45.799V33.957L220.352 31.419V45.8H229.657V52.85H220.352V70.897C220.258 76.067 221.292 81.989 228.529 81.989H231.067V89.696H227.871C216.029 89.695 212.175 81.893 212.175 70.99Z"/>
<g opacity="50%">
<path d="M271.034 24.933H279.588V89.695H271.034V24.933Z"/>
<path d="M231.333 107.642H358.818C360.392 107.642 361.669 108.918 361.669 110.493C361.669 112.067 360.393 113.344 358.818 113.344H231.333C229.759 113.344 228.482 112.068 228.482 110.493C228.482 108.919 229.759 107.642 231.333 107.642Z"/>
<path d="M248.325 130.336V2.851C248.325 1.277 249.601 0 251.176 0C252.75 0 254.027 1.276 254.027 2.851V130.336C254.027 131.91 252.751 133.187 251.176 133.187C249.601 133.186 248.325 131.91 248.325 130.336Z"/>
<path d="M361.127 82.114C356.644 82.114 352.354 80.647 348.854 77.997C353.233 72.347 355.819 65.216 355.819 57.455C355.819 39.032 341.437 24.182 322.921 24.182C304.498 24.182 290.211 39.033 290.211 57.455C290.211 75.784 304.498 90.635 322.921 90.635C330.455 90.635 337.304 88.176 342.779 84.025C347.905 88.256 354.36 90.619 361.128 90.619H361.67V82.115H361.127V82.114ZM298.764 57.455C298.764 43.544 309.291 32.077 322.92 32.077C336.737 32.077 347.265 43.544 347.265 57.455C347.265 62.87 345.643 67.92 342.845 72.064C337.569 67.271 330.695 64.574 323.462 64.574H322.92V73.078H323.462C328.479 73.078 333.252 74.918 336.948 78.194C333.026 81.05 328.216 82.74 322.92 82.74C309.291 82.74 298.764 71.272 298.764 57.455Z"/>
</g>
</svg>
