<svg viewBox="0 0 600 135" fill="#0B0B14" xmlns="http://www.w3.org/2000/svg">
<path fill-rule="evenodd" clip-rule="evenodd" d="M78.023 9.725C65.5349 10.4798 54.0259 14.9901 44.3658 22.9145C43.0985 23.9538 36.2103 30.7879 26.4602 40.6785C17.7449 49.5196 8.22613 59.1692 5.30709 62.1221C2.38825 65.0748 0 67.5469 0 67.6157C0 68.0029 44.3144 113.635 46.1652 115.154C65.8959 131.344 97.0509 130.901 117.819 114.135C121.159 111.438 124.42 108.18 153.201 78.7853C168.882 62.7691 182.241 49.2294 182.887 48.6972C190.699 42.2616 200.234 40.9691 208.475 45.2288C210.504 46.2771 215.355 50.8475 228.61 64.196L232.7 68.3157L224.931 76.2327C213.055 88.3332 211.506 89.5904 206.294 91.3602C195.899 94.8901 187.268 91.7474 175.617 80.191L171.218 75.8273L147.738 99.3871L152.799 104.432C162.326 113.928 169.817 119.239 178.775 122.85C196.184 129.866 216.262 127.737 232.009 117.205C237.373 113.618 237.056 113.923 266.798 83.7303L281.365 68.9422L260.424 47.2339C236.244 22.1684 235.723 21.6437 232.706 19.3711C215.386 6.32001 187.207 6.27556 167.787 19.2688C161.9 23.2078 162.722 22.4127 129.556 56.2516C98.0143 88.4332 98.7531 87.6973 96.2808 89.3957C89.4816 94.0669 81.6021 95.0754 74.4895 92.1848C71.3665 90.9155 71.0873 90.6728 59.4006 79.0746L48.4182 68.1753L57.5861 59.003C69.6743 46.909 71.6983 45.479 78.383 44.3098C87.9962 42.6282 94.0568 45.5583 105.634 57.4847L109.32 61.2812L132.934 37.5971L128.208 32.8422C117.075 21.6435 110.03 16.5986 100.561 13.0453C94.8607 10.9063 85.5997 9.27267 80.7925 9.55813C80.7925 9.55813 79.2836 9.64894 78.023 9.725Z"/>
<path d="M325.837 0.529204V33.8691H317.735V0.529204H325.837Z"/>
<path d="M344.81 11.1662C344.836 11.5148 344.861 11.8612 344.884 12.2054C344.993 13.8684 345.062 15.48 345.089 17.0404C345.125 19.0866 345.142 21.1682 345.142 23.285V33.8691H337.68V0.529204H345.142L352.498 11.6954C353.813 13.7064 355.074 15.7703 356.282 17.8871C357.234 19.4799 358.019 20.959 358.638 22.3246C358.828 22.7436 359.002 23.152 359.161 23.5496H359.267L359.264 23.509C359.25 23.3462 359.237 23.1833 359.224 23.0204C359.203 22.7449 359.182 22.4695 359.163 22.194C359.047 20.5291 358.976 18.8641 358.948 17.1991C358.912 15.047 358.894 12.9126 358.894 10.7958V0.529204H366.357V33.8691H358.894L351.112 22.4912C349.833 20.6213 348.66 18.7162 347.594 16.7758C346.771 15.2771 346.043 13.7152 345.41 12.0903C345.224 11.6113 345.046 11.1269 344.876 10.637H344.769L344.772 10.6725C344.785 10.8375 344.798 11.0021 344.81 11.1662Z"/>
<path d="M386.288 20.9036V33.8691H378.186V0.529204H400.04V6.66798H386.288V14.8177H398.867V20.9036H386.288Z"/>
<path d="M417.788 0.529204V33.8691H409.686V0.529204H417.788Z"/>
<path d="M436.761 11.1662C436.787 11.5148 436.812 11.8612 436.834 12.2054C436.944 13.8684 437.013 15.48 437.04 17.0404C437.075 19.0866 437.093 21.1682 437.093 23.285V33.8691H429.631V0.529204H437.093L444.449 11.6954C445.763 13.7064 447.025 15.7703 448.233 17.8871C449.185 19.4799 449.97 20.9591 450.589 22.3246C450.779 22.7436 450.953 23.152 451.111 23.5496H451.218L451.215 23.509C451.201 23.3461 451.188 23.1833 451.175 23.0204C451.154 22.7449 451.133 22.4695 451.114 22.194C450.998 20.5291 450.926 18.8641 450.898 17.1991C450.863 15.047 450.845 12.9126 450.845 10.7958V0.529204H458.307V33.8691H450.845L443.063 22.4912C441.784 20.6213 440.611 18.7162 439.545 16.7758C438.722 15.2771 437.994 13.7152 437.361 12.0903C437.175 11.6113 436.996 11.1269 436.826 10.637H436.72L436.723 10.6725C436.736 10.8375 436.749 11.0021 436.761 11.1662Z"/>
<path d="M478.238 0.529204V33.8691H470.136V0.529204H478.238Z"/>
<path d="M496.051 6.77382H487.096V0.529204H513.321V6.77382H504.153V33.8691H496.051V6.77382Z"/>
<path fill-rule="evenodd" clip-rule="evenodd" d="M326.37 34.3983V0H317.202V34.3983H326.37ZM345.431 0H337.147V34.3983H345.675V23.285C345.675 21.1652 345.657 19.0807 345.622 17.0313C345.603 15.953 345.565 14.8508 345.507 13.7247C345.999 14.8576 346.538 15.9591 347.126 17.0292C348.201 18.985 349.382 20.9048 350.671 22.7885L358.612 34.3983H366.89V0H358.361V10.7958C358.361 12.9155 358.379 15.053 358.415 17.208C358.435 18.4382 358.48 19.6683 358.548 20.8985C358.031 19.8618 357.429 18.7695 356.744 17.6217C355.531 15.4974 354.265 13.4259 352.945 11.4073L345.431 0ZM344.81 11.1662C344.836 11.5148 344.861 11.8612 344.884 12.2054C344.993 13.8684 345.062 15.48 345.089 17.0404C345.125 19.0866 345.142 21.1682 345.142 23.285V33.8691H337.68V0.529204H345.142L352.498 11.6954C353.813 13.7064 355.074 15.7703 356.282 17.8871C357.234 19.4799 358.019 20.959 358.638 22.3246C358.828 22.7436 359.002 23.152 359.161 23.5496H359.267L359.264 23.509C359.25 23.3462 359.237 23.1833 359.224 23.0204C359.203 22.7449 359.182 22.4695 359.163 22.194C359.047 20.5291 358.976 18.8641 358.948 17.1991C358.912 15.047 358.894 12.9126 358.894 10.7958V0.529204H366.357V33.8691H358.894L351.112 22.4912C349.833 20.6213 348.66 18.7162 347.594 16.7758C346.771 15.2771 346.043 13.7152 345.41 12.0903C345.224 11.6113 345.046 11.1269 344.876 10.637H344.769L344.772 10.6725C344.785 10.8375 344.798 11.0021 344.81 11.1662ZM400.573 7.19718V0H377.653V34.3983H386.821V21.4328H399.4V14.2885H386.821V7.19718H400.573ZM398.867 20.9036H386.288V33.8691H378.186V0.529204H400.04V6.66798H386.288V14.8177H398.867V20.9036ZM418.321 34.3983V0H409.153V34.3983H418.321ZM437.381 0H429.098V34.3983H437.626V23.285C437.626 21.1652 437.608 19.0807 437.573 17.0313C437.554 15.953 437.516 14.8508 437.458 13.7247C437.949 14.8576 438.489 15.9591 439.077 17.0292C440.151 18.985 441.333 20.9048 442.622 22.7885L450.563 34.3983H458.84V0H450.312V10.7958C450.312 12.9155 450.33 15.0529 450.365 17.2078C450.386 18.4381 450.43 19.6683 450.499 20.8985C449.982 19.8618 449.38 18.7694 448.694 17.6216C447.482 15.4973 446.216 13.4258 444.896 11.4073L444.895 11.4058L437.381 0ZM436.761 11.1662C436.787 11.5148 436.812 11.8612 436.834 12.2054C436.944 13.8684 437.013 15.48 437.04 17.0404C437.075 19.0866 437.093 21.1682 437.093 23.285V33.8691H429.631V0.529204H437.093L444.449 11.6954C445.763 13.7064 447.025 15.7703 448.233 17.8871C449.185 19.4799 449.97 20.9591 450.589 22.3246C450.779 22.7436 450.953 23.152 451.111 23.5496H451.218L451.215 23.509C451.201 23.3461 451.188 23.1833 451.175 23.0204C451.154 22.7449 451.133 22.4695 451.114 22.194C450.998 20.5291 450.926 18.8641 450.898 17.1991C450.863 15.047 450.845 12.9126 450.845 10.7958V0.529204H458.307V33.8691H450.845L443.063 22.4912C441.784 20.6213 440.611 18.7162 439.545 16.7758C438.722 15.2771 437.994 13.7152 437.361 12.0903C437.175 11.6113 436.996 11.1269 436.826 10.637H436.72L436.723 10.6725C436.736 10.8375 436.749 11.0021 436.761 11.1662ZM478.771 34.3983V0H469.603V34.3983H478.771ZM513.854 7.30302V0H486.563V7.30302H495.518V34.3983H504.686V7.30302H513.854ZM496.051 33.8691V6.77382H487.096V0.529204H513.321V6.77382H504.153V33.8691H496.051ZM317.735 0.529204H325.837V33.8691H317.735V0.529204ZM409.686 0.529204H417.788V33.8691H409.686V0.529204ZM470.136 0.529204H478.238V33.8691H470.136V0.529204Z"/>
<path d="M532.037 33.8691V20.1627L520.417 0.529204H529.532L536.301 12.8067L543.124 0.529204H552.025L540.139 20.1627V33.8691H532.037Z"/>
<path fill-rule="evenodd" clip-rule="evenodd" d="M325.269 49.4806L329.811 63.77C330.345 65.4686 330.915 67.3781 331.52 69.498C331.943 70.9542 332.331 72.419 332.684 73.8924C333.029 72.4213 333.401 70.9588 333.798 69.5048L333.799 69.5008L333.8 69.4968C334.405 67.4117 334.993 65.4845 335.563 63.7153C335.563 63.7148 335.563 63.7142 335.564 63.7137L340.05 49.4806H349.505L337.571 83.8789H327.806L315.542 49.4806H325.269ZM336.071 63.8749C335.503 65.639 334.916 67.5617 334.312 69.6433C333.822 71.4398 333.371 73.2494 332.959 75.0722C332.897 75.3494 332.835 75.6269 332.774 75.9047C332.772 75.9167 332.769 75.9288 332.767 75.9408H332.607C332.604 75.9288 332.601 75.9167 332.599 75.9047C332.538 75.6271 332.476 75.3498 332.413 75.0728C331.997 73.2498 331.529 71.44 331.008 69.6433C330.403 67.5265 329.835 65.6213 329.302 63.9279L324.878 50.0098H316.296L328.183 83.3497H337.191L348.757 50.0098H340.442L336.071 63.8749ZM357.927 49.4806H381.38V56.6778H367.095V62.4461H379.994V69.5904H367.095V76.6817H381.539V83.8789H357.927V49.4806ZM366.561 77.2109V69.0611H379.461V62.9753H366.561V56.1486H380.847V50.0098H358.46V83.3497H381.006V77.2109H366.561ZM391.157 49.4806H399.441L406.954 60.8863L406.955 60.8879C408.275 62.9064 409.541 64.9779 410.754 67.1022C411.44 68.25 412.041 69.3424 412.558 70.3791C412.49 69.1489 412.446 67.9187 412.425 66.6885C412.389 64.5336 412.372 62.3961 412.372 60.2764V49.4806H420.9V83.8789H412.622L404.681 72.2691C403.393 70.3854 402.211 68.4656 401.137 66.5098C400.549 65.4397 400.009 64.3382 399.517 63.2052C399.575 64.3314 399.613 65.4336 399.632 66.5118C399.668 68.5612 399.686 70.6458 399.686 72.7656V83.8789H391.157V49.4806ZM398.894 61.686C398.871 61.3418 398.847 60.9954 398.821 60.6468C398.808 60.4827 398.795 60.3181 398.782 60.1531C398.781 60.1412 398.78 60.1294 398.779 60.1176H398.886C399.056 60.6075 399.234 61.0919 399.421 61.5709C400.053 63.1958 400.781 64.7577 401.604 66.2564C402.671 68.1968 403.843 70.1019 405.122 71.9718L412.905 83.3497H420.367V50.0098H412.905V60.2764C412.905 62.3932 412.922 64.5276 412.958 66.6797C412.986 68.3447 413.058 70.0096 413.174 71.6746C413.193 71.9501 413.213 72.2255 413.235 72.501C413.248 72.6639 413.261 72.8267 413.274 72.9896C413.275 73.0031 413.277 73.0167 413.278 73.0302H413.171C413.013 72.6325 412.838 72.2242 412.648 71.8052C412.03 70.4396 411.244 68.9605 410.293 67.3677C409.085 65.2509 407.823 63.187 406.508 61.176L399.153 50.0098H391.69V83.3497H399.153V72.7656C399.153 70.6488 399.135 68.5672 399.099 66.521C399.072 64.9606 399.004 63.349 398.894 61.686ZM457.035 49.4806V56.7836H447.867V83.8789H438.699V56.7836H429.744V49.4806H457.035ZM439.232 56.2544V83.3497H447.334V56.2544H456.502V50.0098H430.277V56.2544H439.232ZM465.816 49.4806H474.984V69.9608C474.984 72.4022 475.487 74.2151 476.424 75.4663C477.329 76.674 478.747 77.3167 480.794 77.3167C482.809 77.3167 484.143 76.69 484.938 75.5361L484.94 75.5337C485.823 74.2672 486.284 72.6336 486.284 70.5958V49.4806H495.452V69.9079C495.452 74.6641 494.254 78.3284 491.765 80.8C489.275 83.2716 485.584 84.461 480.794 84.461C476.223 84.461 472.546 83.2705 469.829 80.8316L469.826 80.8292C467.119 78.3647 465.816 74.5975 465.816 69.6433V49.4806ZM506.75 49.4806H520.609C522.576 49.4806 524.33 49.7694 525.859 50.3607C527.409 50.9111 528.702 51.6882 529.724 52.7016C530.772 53.7062 531.561 54.8808 532.086 56.2214C532.609 57.5563 532.869 58.98 532.869 60.488C532.869 61.9161 532.648 63.2007 532.192 64.3322C531.783 65.4019 531.241 66.3506 530.563 67.1736C529.894 67.9853 529.162 68.6575 528.367 69.184C527.803 69.5573 527.264 69.8751 526.749 70.1354L534.978 83.8789H524.382L518.412 71.8659H515.918V83.8789H506.75V49.4806ZM515.385 71.3367H518.743L524.713 83.3497H534.041L525.993 69.9079C526.15 69.8382 526.312 69.7621 526.476 69.6795C526.977 69.4276 527.509 69.1156 528.071 68.7436C528.818 68.2497 529.511 67.6147 530.15 66.8385C530.79 66.0623 531.305 65.1627 531.696 64.1395C532.122 63.0811 532.336 61.864 532.336 60.488C532.336 59.0415 532.087 57.6833 531.589 56.4132C531.092 55.1431 530.346 54.0317 529.351 53.0792C528.391 52.1266 527.165 51.3857 525.673 50.8565C524.216 50.292 522.528 50.0098 520.609 50.0098H507.283V83.3497H515.385V71.3367ZM515.918 64.7217H517.837C519.617 64.7217 520.998 64.3644 522.022 63.6971C522.974 63.0771 523.487 62.0673 523.487 60.541C523.487 59.2958 523.076 58.3542 522.281 57.6563C521.488 56.9599 520.301 56.5719 518.637 56.5719H515.918V64.7217ZM517.837 65.2509C519.685 65.2509 521.178 64.8804 522.315 64.1395C523.452 63.3987 524.02 62.1991 524.02 60.541C524.02 59.165 523.558 58.0713 522.635 57.2599C521.711 56.4484 520.378 56.0427 518.637 56.0427H515.385V65.2509H517.837ZM542.09 49.4806H565.543V56.6778H551.258V62.4461H564.157V69.5904H551.258V76.6817H565.703V83.8789H542.09V49.4806ZM550.725 77.2109V69.0611H563.624V62.9753H550.725V56.1486H565.01V50.0098H542.623V83.3497H565.17V77.2109H550.725ZM583.103 69.3787C581.859 68.92 580.704 68.4085 579.638 67.844C578.572 67.2795 577.649 66.6092 576.867 65.833C576.121 65.0568 575.534 64.1572 575.108 63.1341C574.681 62.1109 574.468 60.8938 574.468 59.4826C574.468 58.0361 574.735 56.6954 575.268 55.4606C575.836 54.2258 576.654 53.1674 577.72 52.2854C578.821 51.3681 580.154 50.6625 581.717 50.1686C583.316 49.6394 585.146 49.3748 587.207 49.3748C589.553 49.3748 591.578 49.6217 593.284 50.1156C594.99 50.5743 596.464 51.1388 597.708 51.8091L595.896 57.6833C595.735 57.6013 595.574 57.5215 595.412 57.4438C594.184 56.8528 592.941 56.3857 591.685 56.0427C590.299 55.6194 588.966 55.4077 587.687 55.4077C586.053 55.4077 584.809 55.7076 583.956 56.3073C583.103 56.9071 582.677 57.7009 582.677 58.6887C582.677 59.8177 583.085 60.6468 583.903 61.176C584.72 61.6699 585.981 62.1991 587.687 62.7636L590.832 63.7691C592.076 64.1925 593.231 64.7217 594.297 65.3567C595.363 65.9565 596.269 66.6621 597.015 67.4735C597.797 68.285 598.401 69.2023 598.827 70.2254C599.254 71.2485 599.467 72.3599 599.467 73.5594C599.467 74.9706 599.2 76.3112 598.667 77.5813C598.134 78.8161 597.317 79.9098 596.216 80.8624C595.149 81.815 593.781 82.5735 592.111 83.138C590.477 83.6672 588.54 83.9318 586.301 83.9318C584.205 83.9318 582.197 83.7201 580.278 83.2967C578.395 82.8381 576.654 82.2031 575.054 81.3916L576.867 75.5174C577.029 75.5962 577.191 75.6732 577.353 75.7484C578.712 76.3803 580.042 76.8855 581.344 77.2638C582.801 77.6872 584.329 77.8989 585.928 77.8989C587.811 77.8989 589.162 77.599 589.979 76.9992C590.832 76.3642 591.258 75.5174 591.258 74.459C591.258 74.1062 591.187 73.7534 591.045 73.4006C590.903 73.0478 590.619 72.695 590.192 72.3422C589.801 71.9894 589.233 71.6542 588.487 71.3367C587.776 70.9839 586.852 70.6311 585.715 70.2783L583.103 69.3787ZM589.66 76.575C590.378 76.04 590.725 75.3504 590.725 74.459C590.725 74.1786 590.669 73.8923 590.55 73.5972C590.452 73.3544 590.238 73.0689 589.851 72.7488L589.842 72.7415L589.834 72.7338C589.504 72.4359 588.994 72.1286 588.277 71.8231L588.262 71.817L588.248 71.8101C587.572 71.4745 586.678 71.1315 585.556 70.7834L585.548 70.781L582.923 69.8768L582.918 69.8748C581.654 69.4087 580.477 68.8876 579.388 68.3109C578.279 67.7241 577.312 67.0235 576.49 66.2072L576.485 66.2029L576.481 66.1984C575.688 65.3734 575.066 64.418 574.615 63.3364C574.156 62.2341 573.935 60.9449 573.935 59.4826C573.935 57.97 574.214 56.5577 574.778 55.2521L574.78 55.2463L574.783 55.2406C575.385 53.9326 576.252 52.8108 577.378 51.8788C578.539 50.9125 579.934 50.1769 581.552 49.6653C583.216 49.1154 585.103 48.8455 587.207 48.8455C589.586 48.8455 591.663 49.0955 593.428 49.6062C595.162 50.0729 596.676 50.6506 597.962 51.344L598.345 51.5504L596.219 58.4426L595.652 58.1541C594.297 57.4642 592.928 56.9309 591.543 56.553L591.536 56.5509L591.528 56.5485C590.186 56.1386 588.907 55.9369 587.687 55.9369C586.105 55.9369 584.989 56.2294 584.264 56.7392C583.544 57.2456 583.21 57.8825 583.21 58.6887C583.21 59.6699 583.552 60.3142 584.187 60.7284C584.953 61.1895 586.165 61.702 587.853 62.2608C587.854 62.261 587.855 62.2613 587.856 62.2616L591 63.2669L591.005 63.2685C592.28 63.7025 593.467 64.2459 594.565 64.8996C595.671 65.5222 596.619 66.259 597.405 67.1125C598.229 67.9695 598.869 68.9404 599.32 70.0231C599.775 71.1155 600 72.2963 600 73.5594C600 75.0386 599.72 76.4486 599.159 77.7849L599.157 77.7898C598.591 79.1021 597.725 80.2584 596.569 81.2583C595.439 82.2673 594.005 83.057 592.283 83.6389L592.28 83.6401L592.276 83.6411C590.575 84.1919 588.58 84.461 586.301 84.461C584.168 84.461 582.122 84.2456 580.162 83.8134L580.157 83.8121L580.151 83.8107C578.231 83.3431 576.45 82.6943 574.812 81.8628L574.414 81.6609L576.54 74.77L577.101 75.0419C578.605 75.7712 580.069 76.3419 581.494 76.7559C582.9 77.1644 584.377 77.3697 585.928 77.3697C587.78 77.3697 588.985 77.0698 589.66 76.575ZM466.349 50.0098V69.6433C466.349 74.512 467.628 78.1105 470.187 80.439C472.781 82.7675 476.316 83.9318 480.794 83.9318C490.211 83.9318 494.919 79.2572 494.919 69.9079V50.0098H486.817V70.5958C486.817 72.7127 486.337 74.459 485.378 75.835C484.454 77.1756 482.926 77.8459 480.794 77.8459C478.626 77.8459 477.027 77.158 475.997 75.782C474.966 74.4061 474.451 72.4657 474.451 69.9608V50.0098H466.349Z"/>
<path d="M334.312 69.6433C334.916 67.5617 335.503 65.639 336.071 63.8749L340.442 50.0098H348.757L337.191 83.3497H328.183L316.296 50.0098H324.878L329.302 63.9279C329.835 65.6213 330.403 67.5265 331.008 69.6433C331.529 71.44 331.997 73.2498 332.413 75.0728C332.476 75.3498 332.538 75.6271 332.599 75.9047L332.607 75.9408H332.767L332.774 75.9047C332.835 75.6269 332.897 75.3494 332.959 75.0722C333.371 73.2494 333.822 71.4398 334.312 69.6433Z"/>
<path d="M366.561 77.2109H381.006V83.3497H358.46V50.0098H380.847V56.1486H366.561V62.9753H379.461V69.0611H366.561V77.2109Z"/>
<path d="M398.821 60.6468C398.847 60.9954 398.871 61.3418 398.894 61.686C399.004 63.349 399.072 64.9606 399.099 66.521C399.135 68.5672 399.153 70.6488 399.153 72.7656V83.3497H391.69V50.0098H399.153L406.508 61.176C407.823 63.187 409.085 65.2509 410.293 67.3677C411.244 68.9605 412.03 70.4396 412.648 71.8052C412.838 72.2242 413.013 72.6325 413.171 73.0302H413.278L413.274 72.9896C413.261 72.8267 413.248 72.6639 413.235 72.501C413.213 72.2255 413.193 71.9501 413.174 71.6746C413.058 70.0096 412.986 68.3447 412.958 66.6797C412.922 64.5276 412.905 62.3932 412.905 60.2764V50.0098H420.367V83.3497H412.905L405.122 71.9718C403.843 70.1019 402.671 68.1968 401.604 66.2564C400.781 64.7577 400.053 63.1958 399.421 61.5709C399.234 61.0919 399.056 60.6075 398.886 60.1176H398.779L398.782 60.1531C398.795 60.3181 398.808 60.4827 398.821 60.6468Z"/>
<path d="M439.232 56.2544H430.277V50.0098H456.502V56.2544H447.334V83.3497H439.232V56.2544Z"/>
<path d="M470.187 80.439C467.628 78.1105 466.349 74.512 466.349 69.6433V50.0098H474.451V69.9608C474.451 72.4657 474.966 74.4061 475.997 75.782C477.027 77.158 478.626 77.8459 480.794 77.8459C482.926 77.8459 484.454 77.1756 485.378 75.835C486.337 74.459 486.817 72.7127 486.817 70.5958V50.0098H494.919V69.9079C494.919 79.2572 490.211 83.9318 480.794 83.9318C476.316 83.9318 472.781 82.7675 470.187 80.439Z"/>
<path fill-rule="evenodd" clip-rule="evenodd" d="M524.713 83.3497L518.743 71.3367H515.385V83.3497H507.283V50.0098H520.609C522.528 50.0098 524.216 50.292 525.673 50.8565C527.165 51.3857 528.391 52.1266 529.351 53.0792C530.346 54.0317 531.092 55.1431 531.589 56.4132C532.087 57.6833 532.336 59.0415 532.336 60.488C532.336 61.864 532.122 63.0811 531.696 64.1395C531.305 65.1627 530.79 66.0623 530.15 66.8385C529.511 67.6147 528.818 68.2497 528.071 68.7436C527.509 69.1156 526.977 69.4276 526.476 69.6795C526.312 69.7621 526.15 69.8382 525.993 69.9079L534.041 83.3497H524.713ZM522.315 64.1395C521.178 64.8804 519.685 65.2509 517.837 65.2509H515.385V56.0427H518.637C520.378 56.0427 521.711 56.4484 522.635 57.2599C523.558 58.0713 524.02 59.165 524.02 60.541C524.02 62.1991 523.452 63.3987 522.315 64.1395Z"/>
<path d="M550.725 77.2109H565.17V83.3497H542.623V50.0098H565.01V56.1486H550.725V62.9753H563.624V69.0611H550.725V77.2109Z"/>
<path d="M583.103 69.3787C581.859 68.92 580.704 68.4085 579.638 67.844C578.572 67.2795 577.649 66.6092 576.867 65.833C576.121 65.0568 575.534 64.1572 575.108 63.1341C574.681 62.1109 574.468 60.8938 574.468 59.4826C574.468 58.0361 574.735 56.6954 575.268 55.4606C575.836 54.2258 576.654 53.1674 577.72 52.2854C578.821 51.3681 580.154 50.6625 581.717 50.1686C583.316 49.6394 585.146 49.3748 587.207 49.3748C589.553 49.3748 591.578 49.6217 593.284 50.1156C594.99 50.5743 596.464 51.1388 597.708 51.8091L595.896 57.6833C595.735 57.6013 595.574 57.5215 595.412 57.4438C594.184 56.8528 592.941 56.3857 591.685 56.0427C590.299 55.6194 588.966 55.4077 587.687 55.4077C586.053 55.4077 584.809 55.7076 583.956 56.3073C583.103 56.9071 582.677 57.7009 582.677 58.6887C582.677 59.8177 583.085 60.6468 583.903 61.176C584.72 61.6699 585.981 62.1991 587.687 62.7636L590.832 63.7691C592.076 64.1925 593.231 64.7217 594.297 65.3567C595.363 65.9565 596.269 66.6621 597.015 67.4735C597.797 68.285 598.401 69.2023 598.827 70.2254C599.254 71.2485 599.467 72.3599 599.467 73.5594C599.467 74.9706 599.2 76.3112 598.667 77.5813C598.134 78.8161 597.317 79.9098 596.216 80.8624C595.149 81.815 593.781 82.5735 592.111 83.138C590.477 83.6672 588.54 83.9318 586.301 83.9318C584.205 83.9318 582.197 83.7201 580.278 83.2967C578.395 82.8381 576.654 82.2031 575.054 81.3916L576.867 75.5174C577.029 75.5962 577.191 75.6732 577.353 75.7484C578.712 76.3803 580.042 76.8855 581.344 77.2638C582.801 77.6872 584.329 77.8989 585.928 77.8989C587.811 77.8989 589.162 77.599 589.979 76.9992C590.832 76.3642 591.258 75.5174 591.258 74.459C591.258 74.1062 591.187 73.7534 591.045 73.4006C590.903 73.0478 590.619 72.695 590.192 72.3422C589.801 71.9894 589.233 71.6542 588.487 71.3367C587.776 70.9839 586.852 70.6311 585.715 70.2783L583.103 69.3787Z"/>
<path fill-rule="evenodd" clip-rule="evenodd" d="M343.166 125.975L345.061 132.813L344.714 133.019C343.937 133.482 342.722 133.921 341.114 134.347C339.49 134.786 337.503 135 335.165 135C332.48 135 330 134.586 327.731 133.75C325.465 132.915 323.518 131.732 321.898 130.197L321.896 130.194L321.893 130.192C320.276 128.623 319.01 126.745 318.096 124.567L318.094 124.562L318.092 124.557C317.212 122.335 316.776 119.869 316.776 117.166C316.776 114.534 317.194 112.123 318.037 109.938L318.038 109.936L318.039 109.934C318.917 107.718 320.147 105.837 321.734 104.298C323.354 102.726 325.302 101.524 327.569 100.688C329.876 99.8161 332.446 99.3846 335.272 99.3846C337.642 99.3846 339.601 99.6152 341.129 100.095C342.636 100.523 343.847 100.976 344.747 101.459L345.13 101.666L342.996 108.584L342.419 108.26C341.641 107.823 340.701 107.431 339.59 107.087L339.588 107.086L339.586 107.085C338.545 106.752 337.375 106.582 336.071 106.582C334.704 106.582 333.43 106.785 332.247 107.188L332.24 107.19L332.233 107.192C331.067 107.556 330.055 108.15 329.192 108.974C328.335 109.792 327.646 110.868 327.136 112.218L327.135 112.22L327.134 112.223C326.632 113.52 326.37 115.145 326.37 117.113C326.37 118.935 326.613 120.512 327.085 121.854C327.595 123.203 328.285 124.317 329.149 125.209C330.019 126.072 331.02 126.718 332.155 127.149C333.333 127.583 334.619 127.803 336.018 127.803C337.589 127.803 338.891 127.664 339.936 127.396C341 127.124 341.871 126.771 342.56 126.347L343.166 125.975ZM331.967 127.644C330.759 127.185 329.693 126.497 328.769 125.58C327.845 124.628 327.117 123.446 326.584 122.034C326.086 120.623 325.837 118.983 325.837 117.113C325.837 115.102 326.104 113.408 326.637 112.033C327.17 110.621 327.898 109.475 328.822 108.593C329.746 107.711 330.83 107.076 332.074 106.688C333.317 106.264 334.65 106.053 336.071 106.053C337.422 106.053 338.648 106.229 339.749 106.582C340.672 106.868 341.489 107.189 342.202 107.545C342.367 107.628 342.527 107.712 342.681 107.799L344.493 101.925C343.64 101.466 342.468 101.025 340.975 100.602C339.518 100.143 337.617 99.9138 335.272 99.9138C332.5 99.9138 329.995 100.337 327.756 101.184C325.553 101.995 323.67 103.16 322.106 104.677C320.578 106.158 319.388 107.975 318.535 110.127C317.718 112.244 317.309 114.59 317.309 117.166C317.309 119.812 317.735 122.211 318.588 124.363C319.477 126.48 320.702 128.297 322.266 129.814C323.83 131.296 325.713 132.442 327.916 133.254C330.119 134.065 332.536 134.471 335.165 134.471C337.475 134.471 339.412 134.259 340.975 133.836C342.574 133.412 343.729 132.989 344.44 132.566L342.841 126.797C342.689 126.891 342.529 126.981 342.363 127.067C341.711 127.403 340.946 127.684 340.069 127.909C338.967 128.191 337.617 128.332 336.018 128.332C334.561 128.332 333.211 128.103 331.967 127.644ZM354.739 100.02H368.597C370.565 100.02 372.318 100.308 373.848 100.9C375.397 101.45 376.691 102.227 377.712 103.241C378.761 104.245 379.549 105.42 380.074 106.76C380.597 108.095 380.857 109.519 380.857 111.027C380.857 112.455 380.636 113.739 380.181 114.871C379.772 115.941 379.229 116.89 378.551 117.713C377.882 118.524 377.151 119.197 376.355 119.723C375.791 120.096 375.252 120.414 374.737 120.674L382.967 134.418H372.37L366.4 122.405H363.907V134.418H354.739V100.02ZM363.374 121.876H366.732L372.702 133.889H382.03L373.981 120.447C374.139 120.377 374.3 120.301 374.464 120.219C374.966 119.967 375.498 119.655 376.06 119.283C376.806 118.789 377.499 118.154 378.139 117.377C378.778 116.601 379.293 115.702 379.684 114.679C380.111 113.62 380.324 112.403 380.324 111.027C380.324 109.581 380.075 108.222 379.578 106.952C379.08 105.682 378.334 104.571 377.339 103.618C376.38 102.666 375.154 101.925 373.661 101.396C372.204 100.831 370.516 100.549 368.597 100.549H355.272V133.889H363.374V121.876ZM363.907 115.261H365.826C367.606 115.261 368.986 114.903 370.011 114.236C370.962 113.616 371.476 112.606 371.476 111.08C371.476 109.835 371.064 108.893 370.27 108.195C369.477 107.499 368.29 107.111 366.625 107.111H363.907V115.261ZM365.826 115.79C367.673 115.79 369.166 115.419 370.303 114.679C371.44 113.938 372.009 112.738 372.009 111.08C372.009 109.704 371.547 108.61 370.623 107.799C369.699 106.987 368.366 106.582 366.625 106.582H363.374V115.79H365.826ZM396.471 100.02L402.926 111.728L409.433 100.02H419.591L407.295 120.329V134.418H398.127V120.326L386.109 100.02H396.471ZM398.66 120.182V133.889H406.762V120.182L418.649 100.549H409.747L402.925 112.826L396.155 100.549H387.04L398.66 120.182ZM425.225 100.02H437.911C439.976 100.02 441.856 100.253 443.546 100.728C445.234 101.201 446.684 101.898 447.884 102.828C449.118 103.757 450.06 104.896 450.702 106.242C451.384 107.561 451.716 109.073 451.716 110.762C451.716 112.77 451.33 114.534 450.536 116.036C449.753 117.516 448.688 118.759 447.345 119.759L447.343 119.76C446.039 120.722 444.502 121.437 442.741 121.91L442.737 121.911L442.733 121.912C441.016 122.347 439.195 122.564 437.271 122.564H434.393V134.418H425.225V100.02ZM433.86 133.889H425.758V100.549H437.911C439.936 100.549 441.766 100.778 443.401 101.237C445.036 101.695 446.421 102.366 447.559 103.248C448.731 104.13 449.62 105.206 450.224 106.476C450.863 107.711 451.183 109.14 451.183 110.762C451.183 112.703 450.81 114.379 450.064 115.79C449.318 117.201 448.305 118.383 447.026 119.336C445.782 120.253 444.307 120.941 442.601 121.399C440.931 121.823 439.155 122.034 437.271 122.034H433.86V133.889ZM441.87 113.15L441.876 113.14C442.171 112.641 442.335 111.998 442.335 111.186C442.335 109.807 441.86 108.833 440.954 108.173L440.95 108.17L440.947 108.168C440.036 107.482 438.776 107.111 437.111 107.111H434.393V115.419H436.792C437.533 115.419 438.255 115.336 438.96 115.169C439.655 115.005 440.233 114.763 440.703 114.452C441.2 114.112 441.585 113.683 441.864 113.161L441.87 113.15ZM441.002 114.89C440.469 115.243 439.83 115.508 439.084 115.684C438.337 115.86 437.573 115.949 436.792 115.949H433.86V106.582H437.111C438.853 106.582 440.238 106.97 441.269 107.746C442.335 108.522 442.868 109.669 442.868 111.186C442.868 112.068 442.69 112.809 442.335 113.408C442.015 114.008 441.571 114.502 441.002 114.89ZM485.949 100.02V107.323H476.781V134.418H467.613V107.323H458.658V100.02H485.949ZM468.146 106.793V133.889H476.248V106.793H485.416V100.549H459.191V106.793H468.146ZM515.87 133.8L515.867 133.801C513.74 134.602 511.437 135 508.962 135C506.487 135 504.184 134.602 502.057 133.801C499.931 133.001 498.091 131.851 496.543 130.351L496.541 130.349L496.539 130.347C494.991 128.81 493.78 126.949 492.903 124.771L492.901 124.766L492.899 124.761C492.055 122.54 491.639 120.041 491.639 117.272C491.639 114.569 492.074 112.12 492.956 109.931C493.834 107.718 495.062 105.821 496.645 104.249C498.226 102.68 500.083 101.476 502.209 100.639L502.212 100.638C504.375 99.8008 506.698 99.3846 509.175 99.3846C511.651 99.3846 513.956 99.8003 516.084 100.638C518.211 101.439 520.051 102.607 521.599 104.144C523.149 105.683 524.342 107.564 525.184 109.778C526.064 112.001 526.499 114.502 526.499 117.272C526.499 119.975 526.045 122.426 525.126 124.616C524.249 126.794 523.02 128.671 521.439 130.241C519.891 131.778 518.032 132.963 515.872 133.8L515.87 133.8ZM524.633 124.416C525.521 122.299 525.966 119.918 525.966 117.272C525.966 114.555 525.539 112.121 524.686 109.969C523.869 107.817 522.714 106 521.222 104.518C519.729 103.036 517.952 101.907 515.891 101.131C513.83 100.319 511.592 99.9138 509.175 99.9138C506.759 99.9138 504.502 100.319 502.406 101.131C500.345 101.942 498.55 103.107 497.022 104.624C495.494 106.141 494.304 107.975 493.451 110.127C492.598 112.244 492.172 114.626 492.172 117.272C492.172 119.988 492.581 122.423 493.398 124.575C494.251 126.691 495.423 128.491 496.916 129.973C498.408 131.419 500.185 132.53 502.246 133.307C504.307 134.083 506.546 134.471 508.962 134.471C511.378 134.471 513.617 134.083 515.678 133.307C517.775 132.495 519.569 131.348 521.062 129.867C522.59 128.35 523.78 126.533 524.633 124.416ZM512.152 127.268L512.155 127.267C513.105 126.844 513.928 126.209 514.624 125.353C515.317 124.501 515.876 123.402 516.287 122.041C516.695 120.69 516.904 119.103 516.904 117.272C516.904 115.371 516.678 113.753 516.237 112.408L516.235 112.4L516.233 112.393C515.822 111 515.248 109.889 514.525 109.04C513.791 108.179 512.948 107.542 511.995 107.118L511.992 107.116L511.989 107.115C511.069 106.691 510.063 106.476 508.962 106.476C507.906 106.476 506.901 106.705 505.942 107.164L505.939 107.166L505.935 107.168C505.025 107.587 504.219 108.236 503.52 109.129C502.822 110.02 502.262 111.14 501.85 112.502C501.442 113.853 501.233 115.44 501.233 117.272C501.233 119.1 501.442 120.686 501.849 122.035C502.294 123.393 502.885 124.491 503.612 125.344C504.348 126.208 505.175 126.845 506.092 127.268C507.05 127.694 508.076 127.909 509.175 127.909C510.238 127.909 511.227 127.695 512.149 127.27L512.152 127.268ZM505.871 127.75C504.876 127.291 503.987 126.603 503.205 125.686C502.424 124.769 501.802 123.604 501.34 122.193C500.913 120.782 500.7 119.142 500.7 117.272C500.7 115.402 500.913 113.761 501.34 112.35C501.766 110.939 502.353 109.757 503.099 108.804C503.845 107.852 504.716 107.146 505.711 106.688C506.741 106.194 507.825 105.947 508.962 105.947C510.135 105.947 511.219 106.176 512.214 106.635C513.244 107.093 514.15 107.781 514.932 108.699C515.714 109.616 516.318 110.798 516.744 112.244C517.206 113.655 517.437 115.331 517.437 117.272C517.437 119.142 517.224 120.782 516.798 122.193C516.371 123.604 515.785 124.769 515.039 125.686C514.292 126.603 513.404 127.291 512.373 127.75C511.378 128.209 510.312 128.438 509.175 128.438C508.003 128.438 506.901 128.209 505.871 127.75Z"/>
<path d="M328.769 125.58C329.693 126.497 330.759 127.185 331.967 127.644C333.211 128.103 334.561 128.332 336.018 128.332C337.617 128.332 338.967 128.191 340.069 127.909C340.946 127.684 341.711 127.403 342.363 127.067C342.529 126.981 342.689 126.891 342.841 126.797L344.44 132.566C343.729 132.989 342.574 133.412 340.975 133.836C339.412 134.259 337.475 134.471 335.165 134.471C332.536 134.471 330.119 134.065 327.916 133.254C325.713 132.442 323.83 131.296 322.266 129.814C320.702 128.297 319.477 126.48 318.588 124.363C317.735 122.211 317.309 119.812 317.309 117.166C317.309 114.59 317.718 112.244 318.535 110.127C319.388 107.975 320.578 106.158 322.106 104.677C323.67 103.16 325.553 101.995 327.756 101.184C329.995 100.337 332.5 99.9138 335.272 99.9138C337.617 99.9138 339.518 100.143 340.975 100.602C342.468 101.025 343.64 101.466 344.493 101.925L342.681 107.799C342.527 107.712 342.367 107.628 342.202 107.545C341.489 107.189 340.672 106.868 339.749 106.582C338.648 106.229 337.422 106.053 336.071 106.053C334.65 106.053 333.317 106.264 332.074 106.688C330.83 107.076 329.746 107.711 328.822 108.593C327.898 109.475 327.17 110.621 326.637 112.033C326.104 113.408 325.837 115.102 325.837 117.113C325.837 118.983 326.086 120.623 326.584 122.034C327.117 123.446 327.845 124.628 328.769 125.58Z"/>
<path fill-rule="evenodd" clip-rule="evenodd" d="M372.702 133.889L366.732 121.876H363.374V133.889H355.272V100.549H368.597C370.516 100.549 372.204 100.831 373.661 101.396C375.154 101.925 376.38 102.666 377.339 103.618C378.334 104.571 379.08 105.682 379.578 106.952C380.075 108.222 380.324 109.581 380.324 111.027C380.324 112.403 380.111 113.62 379.684 114.679C379.293 115.702 378.778 116.601 378.139 117.377C377.499 118.154 376.806 118.789 376.06 119.283C375.498 119.655 374.966 119.967 374.464 120.219C374.3 120.301 374.139 120.377 373.981 120.447L382.03 133.889H372.702ZM370.303 114.679C369.166 115.419 367.673 115.79 365.826 115.79H363.374V106.582H366.625C368.366 106.582 369.699 106.987 370.623 107.799C371.547 108.61 372.009 109.704 372.009 111.08C372.009 112.738 371.44 113.938 370.303 114.679Z"/>
<path d="M398.66 133.889V120.182L387.04 100.549H396.155L402.925 112.826L409.747 100.549H418.649L406.762 120.182V133.889H398.66Z"/>
<path fill-rule="evenodd" clip-rule="evenodd" d="M437.911 100.549C439.936 100.549 441.766 100.778 443.401 101.237C445.036 101.695 446.421 102.366 447.559 103.248C448.731 104.13 449.62 105.206 450.224 106.476C450.863 107.711 451.183 109.14 451.183 110.762C451.183 112.703 450.81 114.379 450.064 115.79C449.318 117.201 448.305 118.383 447.026 119.336C445.782 120.253 444.307 120.941 442.601 121.399C440.931 121.823 439.155 122.034 437.271 122.034H433.86V133.889H425.758V100.549H437.911ZM441.002 114.89C440.469 115.243 439.83 115.508 439.084 115.684C438.337 115.86 437.573 115.949 436.792 115.949H433.86V106.582H437.111C438.853 106.582 440.238 106.97 441.269 107.746C442.335 108.522 442.868 109.669 442.868 111.186C442.868 112.068 442.69 112.809 442.335 113.408C442.015 114.008 441.571 114.502 441.002 114.89Z"/>
<path d="M468.146 106.793H459.191V100.549H485.416V106.793H476.248V133.889H468.146V106.793Z"/>
<path fill-rule="evenodd" clip-rule="evenodd" d="M525.966 117.272C525.966 119.918 525.521 122.299 524.633 124.416C523.78 126.533 522.59 128.35 521.062 129.867C519.569 131.348 517.775 132.495 515.678 133.307C513.617 134.083 511.378 134.471 508.962 134.471C506.546 134.471 504.307 134.083 502.246 133.307C500.185 132.53 498.408 131.419 496.916 129.973C495.423 128.491 494.251 126.691 493.398 124.575C492.581 122.423 492.172 119.988 492.172 117.272C492.172 114.626 492.598 112.244 493.451 110.127C494.304 107.975 495.494 106.141 497.022 104.624C498.55 103.107 500.345 101.942 502.406 101.131C504.502 100.319 506.759 99.9138 509.175 99.9138C511.592 99.9138 513.83 100.319 515.891 101.131C517.952 101.907 519.729 103.036 521.222 104.518C522.714 106 523.869 107.817 524.686 109.969C525.539 112.121 525.966 114.555 525.966 117.272ZM505.871 127.75C504.876 127.291 503.987 126.603 503.205 125.686C502.424 124.769 501.802 123.604 501.34 122.193C500.913 120.782 500.7 119.142 500.7 117.272C500.7 115.402 500.913 113.761 501.34 112.35C501.766 110.939 502.353 109.757 503.099 108.804C503.845 107.852 504.716 107.146 505.711 106.688C506.741 106.194 507.825 105.947 508.962 105.947C510.135 105.947 511.219 106.176 512.214 106.635C513.244 107.093 514.15 107.781 514.932 108.699C515.714 109.616 516.318 110.798 516.744 112.244C517.206 113.655 517.437 115.331 517.437 117.272C517.437 119.142 517.224 120.782 516.798 122.193C516.371 123.604 515.785 124.769 515.039 125.686C514.292 126.603 513.404 127.291 512.373 127.75C511.378 128.209 510.312 128.438 509.175 128.438C508.003 128.438 506.901 128.209 505.871 127.75Z"/>
</svg>
