<svg viewBox="0 0 1000 200" fill="#0B0B14" xmlns="http://www.w3.org/2000/svg">
<path d="M4.49844 7.91082C3.34868 8.08576 2.26791 8.67044 1.44928 9.54977C0.639855 10.4245 0.170755 11.4604 0.0465811 12.6758C-0.0132062 13.2973 -0.0178053 125.152 0.0465811 125.806C0.175354 127.104 0.787024 128.356 1.72982 129.236C2.62203 130.069 3.7258 130.557 4.98593 130.667C5.68958 130.732 24.679 130.727 25.3826 130.667C26.7623 130.543 27.8983 130.004 28.8365 129.028C29.6551 128.172 30.161 127.109 30.3082 125.925C30.3403 125.658 30.3541 111.99 30.3541 82.3318C30.3541 49.6814 30.3679 39.088 30.4093 38.9545C30.4829 38.7105 30.7267 38.4342 30.9888 38.3053L31.205 38.1994H45.4619L45.6781 38.3053C45.9402 38.4342 46.184 38.7105 46.2576 38.9545C46.299 39.088 46.3128 49.6722 46.3128 82.2995C46.3128 112.63 46.3266 125.599 46.3633 125.912C46.5657 127.739 47.7017 129.337 49.3711 130.143C49.992 130.442 50.5807 130.603 51.2797 130.667C51.988 130.727 70.9773 130.732 71.681 130.667C74.1322 130.451 75.9949 128.789 76.5651 126.321C76.6341 126.022 76.6433 122.661 76.6663 84.7442L76.6893 43.4938L76.7905 43.3005C77.0526 42.8125 77.7149 42.5961 78.2254 42.8263C78.3358 42.8769 78.7543 43.1347 79.1498 43.3972C87.0325 48.6271 92.165 57.1396 93.0572 66.467C93.0986 66.8721 93.14 67.3049 93.1584 67.4338C93.1722 67.5581 93.1998 80.6514 93.2182 96.53L93.2504 125.396L93.347 125.787C93.9908 128.356 95.8902 130.156 98.4197 130.608C98.8796 130.686 99.3717 130.69 108.4 130.69C117.492 130.69 117.915 130.686 118.356 130.603C119.888 130.318 121.208 129.544 122.137 128.393C122.772 127.606 123.199 126.708 123.425 125.686C123.503 125.318 123.507 124.125 123.507 94.8266C123.507 62.5261 123.517 63.9855 123.296 61.5409C122.496 52.614 119.713 44.1016 115.077 36.4039C109.926 27.8546 102.54 20.6174 93.8897 15.6545C85.5746 10.8803 76.4777 8.27452 66.7784 7.8832C66.0656 7.85558 54.545 7.84176 35.2751 7.84176C9.93908 7.84637 4.83416 7.85557 4.49844 7.91082Z"/>
<path d="M138.652 7.91082C136.412 8.2561 134.586 10.0976 134.246 12.3443C134.214 12.5469 134.205 31.6666 134.208 69.4595L134.223 126.271L134.347 126.722C134.596 127.624 135.088 128.467 135.741 129.125C136.642 130.027 137.778 130.552 139.075 130.667C139.792 130.727 251.245 130.732 251.958 130.667C254.345 130.456 256.231 128.784 256.746 126.432C256.828 126.054 256.833 125.626 256.833 115.912V105.784L256.709 105.342C256.465 104.444 256.175 103.868 255.647 103.206C254.842 102.207 253.669 101.525 252.372 101.318C252.009 101.258 246.338 101.249 207.775 101.249H163.588V84.6291H190.253C208.212 84.6291 217.047 84.6107 217.327 84.583C219.82 84.293 221.752 82.3594 222.041 79.8641C222.106 79.2886 222.106 60.4406 222.041 59.9065C221.894 58.7049 221.411 57.6829 220.597 56.8311C219.848 56.0485 219.006 55.5651 217.902 55.2889L217.511 55.1876L163.588 55.1646V37.3017L207.913 37.2879C249.741 37.2787 252.252 37.2741 252.556 37.1958C253.687 36.9196 254.446 36.5236 255.173 35.8285C256.051 34.9952 256.612 33.9271 256.787 32.7577C256.888 32.0902 256.888 13.0625 256.792 12.395C256.438 10.0608 254.635 8.2561 252.303 7.90161C251.664 7.80493 139.268 7.81414 138.652 7.91082Z"/>
<path d="M272.7 7.8832C270.331 8.19626 268.464 10.0608 268.124 12.464C268.059 12.9336 268.059 125.566 268.128 126.045C268.294 127.247 268.887 128.375 269.789 129.217C270.451 129.834 271.219 130.253 272.134 130.497L272.516 130.598H293.073L293.524 130.474C295.713 129.871 297.254 128.029 297.465 125.764C297.498 125.424 297.511 111.06 297.511 81.2775V37.3017L315.484 37.3155C335.118 37.3293 333.623 37.3109 335.568 37.5825C343.125 38.6368 350.055 42.6191 354.829 48.6363C358.186 52.8765 360.316 57.8348 361.042 63.1292C361.341 65.293 361.318 62.4386 361.346 95.8624L361.369 126.179L361.493 126.616C361.755 127.574 362.187 128.338 362.836 129.001C363.466 129.65 364.096 130.06 364.896 130.341C365.761 130.64 365.025 130.626 376.201 130.612L386.342 130.598L386.686 130.497C387.593 130.239 388.305 129.866 388.908 129.342C389.749 128.6 390.274 127.749 390.609 126.575L390.711 126.225L390.724 94.3892C390.734 71.6141 390.724 62.2406 390.688 61.4488C390.449 56.2787 389.542 51.325 387.947 46.4495C384.759 36.7308 378.923 28.0342 371.073 21.3034C363.995 15.2309 355.386 10.977 346.298 9.06177C343.143 8.39422 340.108 8.02131 336.787 7.8832C335.435 7.82795 273.123 7.82795 272.7 7.8832Z"/>
<path d="M405.52 7.88779C403.229 8.22387 401.403 9.99175 401.017 12.2522C400.953 12.6436 400.943 13.6748 400.943 22.5694C400.943 33.4299 400.93 32.7991 401.219 33.6739C401.817 35.4601 403.289 36.7492 405.239 37.2004C405.538 37.2695 407.396 37.2741 426.85 37.2879L448.129 37.3017V81.3281C448.129 109.195 448.148 125.516 448.175 125.806C448.3 127.072 448.957 128.421 449.836 129.213C450.47 129.783 451.312 130.253 452.117 130.474L452.568 130.598L462.662 130.612C469.276 130.621 472.863 130.608 473.061 130.575C475.333 130.23 477.154 128.402 477.494 126.123C477.554 125.728 477.563 120.231 477.563 81.4893V37.3017L498.848 37.2879C518.692 37.2741 520.15 37.2695 520.472 37.1958C522.721 36.6848 524.308 35.0504 524.708 32.836C524.763 32.5505 524.772 30.7228 524.772 22.5234C524.772 11.6031 524.791 12.3581 524.515 11.5156C523.894 9.61423 522.229 8.20546 520.256 7.90621C519.86 7.84636 512.874 7.83716 462.8 7.84074C430.708 7.84636 405.676 7.86477 405.52 7.88779Z"/>
<path d="M540.409 7.86938C538.905 8.06274 537.636 8.79475 536.743 9.97334C536.389 10.4383 536.008 11.2302 535.842 11.8241L535.718 12.2799V126.179L535.814 126.547C536.352 128.545 537.718 129.935 539.696 130.488L540.087 130.598L550.228 130.612C561.472 130.626 560.672 130.644 561.578 130.322C562.746 129.903 563.73 129.074 564.393 127.951C564.59 127.615 564.834 127.021 564.954 126.561L565.06 126.179L565.083 83.9846H628.273L628.287 105.01C628.296 124.742 628.305 126.059 628.379 126.363C628.646 127.454 629.064 128.25 629.759 128.992C630.361 129.641 631.341 130.221 632.251 130.469L632.711 130.598H653.269L653.729 130.469C655.817 129.889 657.325 128.2 657.638 126.091C657.698 125.663 657.707 119.775 657.707 69.2707C657.707 28.4807 657.693 12.8093 657.656 12.51C657.403 10.4659 655.95 8.71649 653.982 8.09497C653.145 7.82795 653.563 7.83711 642.99 7.83711C632.417 7.83711 632.84 7.82795 631.998 8.09497C631.226 8.33897 630.564 8.73029 629.961 9.30577C629.147 10.0792 628.641 10.9862 628.374 12.1371C628.305 12.4364 628.301 14.2641 628.287 33.4897L628.273 54.52H565.083V33.6002C565.083 14.9271 565.073 12.639 565.014 12.2752C564.609 9.96412 562.797 8.21928 560.461 7.8832C560.157 7.84176 540.74 7.82795 540.409 7.86938Z"/>
<path d="M728.946 7.86938C711.373 8.41263 694.982 16.4279 683.682 30C675.675 39.6174 670.791 51.5091 669.738 63.9579C669.545 66.2368 669.549 65.1871 669.549 96.3458V126.179L669.646 126.547C669.959 127.703 670.501 128.591 671.352 129.342C671.955 129.866 672.668 130.239 673.574 130.497L673.918 130.598L684.059 130.612C695.235 130.626 694.499 130.64 695.364 130.341C697.029 129.756 698.27 128.398 698.767 126.616L698.891 126.179L698.914 94.8956H762.749V110.074C762.749 120.12 762.762 125.428 762.795 125.764C763.006 128.029 764.547 129.871 766.736 130.474L767.187 130.598H787.744L788.126 130.497C789.694 130.078 790.95 129.061 791.63 127.657C791.883 127.132 792.058 126.57 792.132 126.045C792.201 125.562 792.201 68.419 792.136 66.8353C792.109 66.2276 792.058 65.293 792.021 64.7635C791.125 52.3792 786.53 40.6487 778.767 30.9208C776.38 27.9329 773.414 24.8759 770.498 22.4037C765.057 17.786 758.89 14.1674 752.189 11.6675C744.9 8.94208 736.833 7.62538 728.946 7.86938ZM732.878 37.3477C737.196 37.6286 741.267 38.7243 745.098 40.6441C749.057 42.6283 752.539 45.386 755.367 48.7883C758.991 53.1435 761.369 58.3136 762.307 63.8658C762.395 64.386 762.482 64.9615 762.5 65.1411L762.532 65.4771H699.144L699.167 65.3022C699.397 63.6356 699.668 62.2591 700.018 60.947C702.534 51.5413 709.29 43.7332 718.253 39.866C721.376 38.5217 724.899 37.647 728.233 37.3938C728.587 37.3661 728.96 37.3385 729.061 37.3339C729.534 37.2925 732.225 37.3063 732.878 37.3477Z"/>
<path d="M410.211 154.142C409.162 154.451 408.398 155.275 408.187 156.334C408.123 156.67 408.118 158.594 408.127 176.982C408.141 196.557 408.146 197.271 408.224 197.515C408.509 198.358 409.107 199.039 409.833 199.352C410.381 199.587 410.473 199.591 414.074 199.578L417.431 199.564L417.73 199.453C418.631 199.131 419.284 198.454 419.597 197.515C419.68 197.276 419.685 196.972 419.698 192.511L419.712 187.76L428.942 187.741C438.95 187.723 438.357 187.741 439.805 187.479C445.848 186.388 450.88 181.986 452.793 176.121C453.989 172.443 453.892 168.479 452.512 164.874C450.806 160.404 447.251 156.854 442.749 155.128C441.663 154.713 440.242 154.354 438.908 154.161C438.393 154.087 437.372 154.083 424.421 154.073C411.241 154.059 410.473 154.064 410.211 154.142ZM438.632 166.062C439.18 166.214 439.952 166.614 440.389 166.969C442.252 168.465 442.698 171.149 441.429 173.202C441.13 173.69 440.352 174.454 439.874 174.735C439.433 174.989 439.037 175.159 438.54 175.292L438.173 175.394L419.753 175.417V165.933L438.265 165.956L438.632 166.062Z"/>
<path d="M477.95 154.124C472.536 154.635 467.662 156.918 463.881 160.707C460.455 164.137 458.27 168.414 457.488 173.211C457.203 174.966 457.217 174.303 457.203 186.374C457.19 194.5 457.199 197.483 457.24 197.713C457.383 198.588 458.04 199.292 458.914 199.518C459.314 199.619 465.941 199.619 466.378 199.518C467.165 199.329 467.781 198.74 468.016 197.934C468.08 197.708 468.089 197.096 468.089 192.35V187.018H491.82V192.382C491.82 197.695 491.82 197.75 491.917 198.035C492.17 198.795 492.846 199.393 493.609 199.541C493.766 199.568 495.145 199.587 497.288 199.587C501.06 199.587 500.991 199.591 501.529 199.306C502.03 199.039 502.393 198.597 502.591 198.026L502.697 197.722V186.719C502.697 175.311 502.697 175.348 502.508 173.874C501.671 167.323 497.978 161.435 492.413 157.77C491.512 157.176 490.91 156.836 489.82 156.311C487.428 155.146 485.165 154.497 482.392 154.165C481.541 154.064 478.837 154.036 477.95 154.124ZM481.219 165.012C483.905 165.311 486.393 166.499 488.288 168.387C489.171 169.266 489.953 170.334 490.5 171.416C491.117 172.627 491.438 173.672 491.705 175.288L491.728 175.417H468.181L468.209 175.219C468.397 173.907 468.756 172.746 469.354 171.526C470.876 168.423 473.755 166.108 477.112 165.293C477.614 165.173 478.336 165.044 478.805 164.998C479.173 164.961 480.838 164.971 481.219 165.012Z"/>
<path d="M505.962 154.133C505.751 154.244 505.613 154.382 505.521 154.584C505.438 154.764 505.433 155.477 505.433 176.77C505.433 194.012 505.447 198.813 505.488 198.961C505.562 199.2 505.82 199.458 506.059 199.532C506.206 199.573 507.434 199.587 511.256 199.587C516.029 199.587 516.273 199.582 516.453 199.499C516.701 199.384 516.917 199.117 516.977 198.841C517.009 198.689 517.023 196.065 517.023 190.789V182.967L530.829 182.99L535 191.019C537.41 195.655 539.231 199.108 539.314 199.191C539.388 199.274 539.535 199.38 539.632 199.43C539.802 199.513 539.976 199.518 544.019 199.545C546.332 199.559 548.351 199.55 548.503 199.532C549.745 199.357 550.609 198.058 550.297 196.848C550.242 196.64 545.022 185.946 542.888 181.673L542.736 181.365L543.297 181.043C544.461 180.37 545.422 179.62 546.415 178.607C548.609 176.37 549.924 173.718 550.421 170.537C550.508 169.957 550.522 169.69 550.522 168.511C550.527 167.061 550.485 166.651 550.246 165.509C549.777 163.286 548.807 161.241 547.335 159.395C546.875 158.815 545.771 157.71 545.169 157.232C542.984 155.491 540.427 154.437 537.626 154.119C537.143 154.064 534.573 154.055 521.576 154.059C507.553 154.059 506.086 154.064 505.962 154.133ZM536.679 166.135C537.737 166.453 538.532 167.268 538.799 168.304C538.887 168.658 538.891 169.422 538.799 169.777C538.762 169.929 538.652 170.21 538.56 170.398C538.325 170.882 537.741 171.467 537.258 171.701C536.578 172.033 537.415 172.01 526.694 172.01H517.023V166.025L526.718 166.039C535.906 166.048 536.421 166.052 536.679 166.135Z"/>
<path d="M700.013 154.161C699.88 154.234 699.765 154.345 699.673 154.492L699.535 154.713V176.77C699.535 188.901 699.549 198.882 699.572 198.951C699.622 199.136 699.875 199.403 700.087 199.499C700.262 199.582 700.538 199.587 705.311 199.587H710.357L710.6 199.458C710.798 199.357 710.872 199.283 710.973 199.085L711.102 198.841V182.967H724.922L729.084 190.987C731.374 195.397 733.306 199.076 733.379 199.163C733.517 199.32 733.752 199.462 733.959 199.509C734.023 199.522 736.001 199.541 738.351 199.545C742.527 199.55 742.633 199.55 742.913 199.458C743.506 199.269 743.971 198.855 744.251 198.266C744.399 197.952 744.421 197.856 744.435 197.487C744.449 197.184 744.435 196.995 744.376 196.797C744.334 196.65 742.623 193.123 740.577 188.97C738.53 184.813 736.856 181.392 736.856 181.374C736.856 181.351 737.049 181.227 737.279 181.102C738.733 180.306 740.31 178.985 741.405 177.631C742.632 176.116 743.603 174.247 744.123 172.401C744.725 170.247 744.812 167.857 744.376 165.661C743.92 163.396 742.954 161.324 741.501 159.487C741.014 158.866 739.823 157.678 739.202 157.185C737.219 155.611 734.966 154.63 732.303 154.179L731.728 154.083L700.22 154.055L700.013 154.161ZM730.404 166.075C731.54 166.232 732.482 167.019 732.841 168.115C732.942 168.433 732.961 168.571 732.961 169.04C732.965 169.524 732.947 169.639 732.837 169.961C732.57 170.739 732.046 171.356 731.369 171.688C730.652 172.037 731.535 172.01 720.773 172.01H711.102V166.025H720.571C727.12 166.025 730.155 166.039 730.404 166.075Z"/>
<path d="M555.42 154.446C554.583 154.612 553.774 155.247 553.419 156.012C553.144 156.61 553.148 156.536 553.148 160.178C553.148 163.226 553.157 163.543 553.231 163.815C553.53 164.929 554.427 165.753 555.526 165.933C555.714 165.96 558.322 165.979 562.953 165.979H570.095L570.118 197.584L570.243 197.957C570.528 198.795 571.149 199.444 571.963 199.753C572.473 199.941 572.892 199.964 576.212 199.946C579.312 199.927 579.317 199.927 579.639 199.822C580.425 199.564 581.027 199.062 581.359 198.385C581.713 197.667 581.685 199.126 581.685 181.669V165.979L589.011 165.97C595.988 165.956 596.347 165.951 596.586 165.873C597.377 165.606 597.993 165.086 598.329 164.409C598.655 163.746 598.655 163.774 598.655 160.178C598.655 156.582 598.655 156.61 598.329 155.947C597.993 155.27 597.377 154.75 596.586 154.483C596.342 154.405 595.638 154.4 576.028 154.391C559.444 154.386 555.668 154.396 555.42 154.446Z"/>
<path d="M603.737 154.423C602.956 154.58 602.28 155.174 602.036 155.919C601.944 156.191 601.944 156.444 601.944 177.166V198.137L602.054 198.436C602.114 198.602 602.215 198.818 602.28 198.915C602.592 199.416 603.232 199.822 603.829 199.909C604.262 199.969 610.489 199.969 610.912 199.909C611.79 199.78 612.526 199.126 612.751 198.275C612.811 198.031 612.82 196.194 612.82 181.646V165.284L619.825 165.302C627.496 165.316 627.073 165.302 628.292 165.592C631.111 166.264 633.548 168.074 635.043 170.596C635.701 171.711 636.133 172.894 636.4 174.312C636.473 174.721 636.482 175.518 636.505 186.42L636.528 198.091L636.625 198.376C636.873 199.09 637.425 199.633 638.138 199.849C638.396 199.927 638.658 199.932 641.978 199.932C645.299 199.932 645.561 199.927 645.818 199.849C646.531 199.628 647.106 199.071 647.318 198.385C647.401 198.114 647.405 197.759 647.405 186.498C647.405 179.16 647.387 174.694 647.359 174.358C647.115 171.572 646.421 169.013 645.244 166.6C642.572 161.122 637.706 156.992 631.906 155.279C630.283 154.801 628.738 154.534 626.985 154.423C626.075 154.368 604.018 154.368 603.737 154.423Z"/>
<path d="M653.177 154.409C652.901 154.446 652.528 154.571 652.229 154.727C651.622 155.049 651.107 155.643 650.864 156.311L650.739 156.656L650.726 177.005C650.716 192.018 650.726 197.428 650.762 197.63C650.873 198.196 651.232 198.823 651.668 199.218C651.958 199.472 652.538 199.776 652.924 199.872C653.301 199.964 693.616 199.964 693.993 199.868C694.393 199.771 694.959 199.476 695.253 199.209C695.598 198.901 695.925 198.404 696.067 197.971L696.178 197.63V194.154C696.178 190.697 696.178 190.678 696.077 190.356C695.805 189.491 695.102 188.782 694.223 188.478L693.924 188.376L662.26 188.353V182.967L671.472 182.953C679.796 182.944 680.702 182.935 680.918 182.866C681.944 182.543 682.634 181.857 682.946 180.835C683.057 180.481 683.084 174.326 682.983 173.722C682.831 172.843 682.27 172.083 681.479 171.692C680.771 171.342 681.488 171.365 671.357 171.365H662.26V165.979L693.878 165.956L694.269 165.813C694.766 165.638 695.115 165.408 695.46 165.03C695.791 164.671 695.989 164.298 696.109 163.833C696.196 163.497 696.201 163.313 696.201 160.178C696.201 157.043 696.196 156.859 696.109 156.523C695.989 156.058 695.791 155.685 695.46 155.326C695.115 154.948 694.766 154.718 694.269 154.543L693.878 154.4L673.597 154.396C662.444 154.391 653.255 154.4 653.177 154.409Z"/>
<path d="M760.702 155.118C758.803 155.229 757.041 155.694 755.321 156.541C753.85 157.268 752.787 158.028 751.601 159.202C749.264 161.518 747.848 164.473 747.498 167.774C747.402 168.709 747.434 170.329 747.567 171.204C747.765 172.521 748.142 173.824 748.648 174.952C749.927 177.815 752.217 180.265 754.949 181.682C756.609 182.543 757.966 182.967 759.989 183.252C760.274 183.289 762.923 183.312 769.877 183.331C779.31 183.358 779.374 183.358 779.632 183.455C780.685 183.837 781.342 184.767 781.338 185.872C781.333 186.83 780.837 187.654 780.009 188.091C779.374 188.422 780.643 188.399 764.197 188.399C747.995 188.399 749.145 188.381 748.597 188.662C748.28 188.818 747.908 189.187 747.719 189.514C747.429 190.02 747.434 189.914 747.434 194.2C747.434 197.649 747.443 198.127 747.507 198.348C747.774 199.246 748.487 199.849 749.416 199.955C749.922 200.015 778.284 200.015 779.42 199.955C782.492 199.799 785.229 198.781 787.593 196.912C788.154 196.465 789.368 195.259 789.809 194.707C790.646 193.662 791.594 192 792.017 190.84C792.592 189.265 792.854 187.921 792.904 186.282C793.024 182.364 791.543 178.639 788.77 175.868C786.811 173.916 784.392 172.608 781.664 172.037C780.289 171.747 780.924 171.766 770.498 171.738C759.879 171.706 760.831 171.738 760.242 171.388C759.713 171.071 759.332 170.596 759.125 170.012C758.973 169.574 758.964 168.911 759.106 168.465C759.359 167.682 759.902 167.111 760.679 166.808L760.978 166.692L791.194 166.646L791.433 166.545C792.187 166.237 792.716 165.643 792.868 164.929C792.904 164.759 792.918 163.516 792.918 160.855C792.918 157.558 792.909 156.983 792.849 156.748C792.624 155.896 791.888 155.243 791.01 155.114C790.628 155.063 761.64 155.063 760.702 155.118Z"/>
<path fill-rule="evenodd" clip-rule="evenodd" d="M889.382 0.0795139C868.633 2.29573 849.88 10.7004 834.666 24.6027C833.09 26.0421 831.563 27.5265 830.263 28.8814C813.536 46.3184 804.215 68.579 803.469 92.8716C803.37 96.0915 803.432 189.213 803.533 189.778C804.473 195.009 808.269 198.662 813.35 199.222C814.062 199.301 907.948 199.264 909.069 199.184C909.51 199.153 910.384 199.093 911.011 199.051C931.103 197.699 950.331 189.939 965.748 176.961C966.226 176.559 966.709 176.153 966.822 176.06C967.168 175.772 968.446 174.63 969.052 174.067C973.927 169.542 978.03 164.935 981.733 159.831C981.946 159.536 982.264 159.097 982.439 158.855C984.199 156.422 986.561 152.639 988.315 149.441C989.483 147.313 990.722 144.811 991.737 142.531C996.314 132.253 999.013 121.397 999.786 110.147C999.828 109.531 999.888 108.666 999.919 108.225C999.997 107.113 1000.03 10.1707 999.958 9.48911C999.473 5.20519 996.701 1.70799 992.614 0.224478L991.996 0L941.004 0.0060341C897.92 0.0111436 889.915 0.0225306 889.382 0.0795139ZM951.43 39.0944C956.253 39.8991 959.708 43.559 960.142 48.3215C960.177 48.6995 960.193 54.3953 960.193 65.8763L960.194 82.8716H845.516L845.516 82.7134C845.523 81.5251 846.301 77.9753 847.043 75.7426C853.752 55.5801 878.664 39.4577 903.801 39.011C907.827 38.9395 950.954 39.0149 951.43 39.0944ZM955.727 116.582C955.726 117.087 955.326 119.461 955.048 120.609C950.45 139.613 929.381 156.123 905.246 159.634C903.641 159.868 901.563 160.065 899.213 160.206C897.332 160.319 850.617 160.296 849.885 160.182C845.197 159.45 841.716 155.927 841.148 151.34C841.114 151.059 841.097 145.441 841.097 133.664V116.4H955.727L955.727 116.582Z" fill-opacity="50%"/>
</svg>
