<svg viewBox="0 0 905 166" fill="#0B0B14" xmlns="http://www.w3.org/2000/svg">
<path d="M236.34 74.8737C236.34 88.6264 226.422 96.8594 209.956 96.8594H191.245V118.284H186.473V52.7936H209.956C226.422 52.7936 236.34 61.0266 236.34 74.8737ZM231.474 74.8737C231.474 63.5525 223.99 57.0969 209.956 57.0969H191.245V92.5561H209.956C223.99 92.5561 231.474 86.1005 231.474 74.8737Z"/>
<path d="M291.918 94.9885H249.911C250.379 106.59 258.892 114.448 270.587 114.448C276.762 114.448 282.469 112.203 286.211 107.619L288.924 110.706C284.62 115.946 277.885 118.659 270.493 118.659C255.711 118.659 245.326 108.367 245.326 93.8655C245.326 79.3641 255.337 69.0724 268.716 69.0724C282.095 69.0724 292.012 79.177 292.012 93.6784C292.012 94.0527 291.918 94.5206 291.918 94.9885ZM250.004 91.3396H287.427C286.773 80.7678 279.101 73.1892 268.716 73.1892C258.331 73.1892 250.753 80.6742 250.004 91.3396Z"/>
<path d="M330.746 115.197C328.313 117.536 324.384 118.659 320.735 118.659C312.128 118.659 307.45 113.607 307.45 105.373V73.47H298.468V69.4467H307.45V58.7814H312.128V69.4467H327.659V73.47H312.128V104.905C312.128 111.174 315.216 114.635 321.203 114.635C324.104 114.635 326.817 113.7 328.781 111.922L330.746 115.197Z"/>
<path d="M390.719 118.284L375.094 96.3915C373.036 96.6722 370.978 96.8594 368.732 96.8594H350.021V118.284H345.249V52.7936H368.732C385.199 52.7936 395.116 61.0266 395.116 74.8737C395.116 85.2582 389.502 92.4625 379.773 95.3628L396.145 118.284H390.719ZM368.732 92.6497C382.767 92.6497 390.251 86.1005 390.251 74.8737C390.251 63.5525 382.767 57.0969 368.732 57.0969H350.021V92.6497H368.732Z"/>
<path d="M405.784 93.8655C405.784 79.3641 416.169 69.0724 430.203 69.0724C444.237 69.0724 454.622 79.3641 454.622 93.8655C454.622 108.367 444.237 118.659 430.203 118.659C416.169 118.659 405.784 108.367 405.784 93.8655ZM449.85 93.8655C449.85 81.6093 441.43 73.2828 430.203 73.2828C418.976 73.2828 410.556 81.6093 410.556 93.8655C410.556 106.122 418.976 114.448 430.203 114.448C441.43 114.448 449.85 106.122 449.85 93.8655Z"/>
<path d="M463.793 93.8655C463.793 79.2705 474.178 69.0724 488.493 69.0724C496.258 69.0724 502.994 72.0662 507.017 78.054L503.556 80.5806C500 75.6216 494.574 73.2828 488.493 73.2828C476.985 73.2828 468.565 81.5157 468.565 93.8655C468.565 106.215 476.985 114.448 488.493 114.448C494.574 114.448 500 112.109 503.556 107.151L507.017 109.677C502.994 115.571 496.258 118.659 488.493 118.659C474.178 118.659 463.793 108.367 463.793 93.8655Z"/>
<path d="M537.614 92.1818L524.89 103.783V118.284H520.212V48.864H524.89V97.9823L556.139 69.4467H562.127L541.076 89.1879L564.185 118.284H558.384L537.614 92.1818Z"/>
<path d="M594.5 85.539C594.5 66.4528 609.002 52.3257 628.462 52.3257C637.725 52.3257 646.051 55.3196 651.758 61.4009L648.764 64.4884C643.151 58.9685 636.321 56.7233 628.649 56.7233C611.902 56.7233 599.272 69.0724 599.272 85.539C599.272 102.006 611.902 114.355 628.649 114.355C636.321 114.355 643.151 112.016 648.764 106.496L651.758 109.583C646.051 115.665 637.725 118.752 628.462 118.752C609.002 118.752 594.5 104.625 594.5 85.539Z"/>
<path d="M700.693 87.3163V118.284H696.202V109.583C693.115 115.197 687.127 118.659 678.613 118.659C667.667 118.659 661.024 113.045 661.024 104.719C661.024 97.3272 665.703 91.0588 679.268 91.0588H696.015V87.1291C696.015 78.0539 691.056 73.1892 681.513 73.1892C674.778 73.1892 668.696 75.7151 664.673 79.3641L662.334 75.9959C667.199 71.6926 674.31 69.0723 681.888 69.0723C693.957 69.0723 700.693 75.2472 700.693 87.3163ZM696.015 103.876V94.7077H679.362C669.257 94.7077 665.703 98.9174 665.703 104.532C665.703 110.893 670.661 114.823 679.268 114.823C687.501 114.823 693.208 110.893 696.015 103.876Z"/>
<path d="M768.618 93.8655C768.618 108.554 758.234 118.659 744.48 118.659C735.873 118.659 728.576 114.448 724.646 107.151V136.435H719.969V69.4467H724.459V80.9542C728.295 73.4699 735.686 69.0724 744.48 69.0724C758.234 69.0724 768.618 79.2705 768.618 93.8655ZM763.941 93.8655C763.941 81.6093 755.427 73.2828 744.2 73.2828C732.973 73.2828 724.553 81.6093 724.553 93.8655C724.553 106.122 732.973 114.448 744.2 114.448C755.427 114.448 763.941 106.122 763.941 93.8655Z"/>
<path d="M781.626 53.823C781.626 51.7642 783.311 49.9869 785.462 49.9869C787.614 49.9869 789.298 51.6707 789.298 53.7295C789.298 55.8811 787.614 57.5648 785.462 57.5648C783.311 57.5648 781.626 55.8811 781.626 53.823ZM783.123 69.4467H787.801V118.284H783.123V69.4467Z"/>
<path d="M831.773 115.197C829.34 117.536 825.411 118.659 821.762 118.659C813.155 118.659 808.477 113.607 808.477 105.373V73.47H799.495V69.4467H808.477V58.7814H813.155V69.4467H828.686V73.47H813.155V104.905C813.155 111.174 816.242 114.635 822.23 114.635C825.13 114.635 827.843 113.7 829.808 111.922L831.773 115.197Z"/>
<path d="M880.051 87.3163V118.284H875.56V109.583C872.472 115.197 866.485 118.659 857.971 118.659C847.025 118.659 840.382 113.045 840.382 104.719C840.382 97.3272 845.06 91.0588 858.626 91.0588H875.372V87.1291C875.372 78.0539 870.414 73.1892 860.871 73.1892C854.135 73.1892 848.054 75.7151 844.031 79.3641L841.692 75.9959C846.557 71.6926 853.668 69.0723 861.245 69.0723C873.314 69.0723 880.051 75.2472 880.051 87.3163ZM875.372 103.876V94.7077H858.719C848.615 94.7077 845.06 98.9174 845.06 104.532C845.06 110.893 850.019 114.823 858.626 114.823C866.859 114.823 872.566 110.893 875.372 103.876Z"/>
<path d="M899.326 48.864H904.004V118.284H899.326V48.864Z"/>
<path fill-rule="evenodd" clip-rule="evenodd" d="M96.1617 166V164.478C96.1617 139.605 116.325 119.441 141.199 119.441H142.721V69.8383H141.199C88.9306 69.8383 46.559 112.21 46.559 164.478H48.081L48.081 166H96.1617ZM139.677 72.8946C90.2981 73.699 50.4198 113.577 49.6153 162.956H93.1415C93.9295 137.611 114.332 117.209 139.677 116.421V72.8946Z"/>
<path fill-rule="evenodd" clip-rule="evenodd" d="M48.0809 3.04392C23.2076 3.04392 3.04392 23.2076 3.04392 48.0808L3.04396 117.919C3.04396 142.283 22.3903 162.128 46.5589 162.931L46.559 69.8383H139.677V48.0808C139.677 23.2076 119.513 3.04392 94.6397 3.04392H48.0809ZM48.081 164.478L48.081 166C21.5267 166 3.87055e-05 144.474 3.87055e-05 117.919L0 48.0808C0 21.5265 21.5265 0 48.0809 0H94.6397C121.194 0 142.721 21.5265 142.721 48.0808V72.8822H49.6029L49.6028 164.478L48.081 164.478Z"/>
<path fill-rule="evenodd" clip-rule="evenodd" d="M111.751 164.478C111.751 148.214 124.935 135.03 141.199 135.03C157.463 135.03 170.647 148.214 170.647 164.478V166H111.751V164.478ZM114.838 162.956H167.56C166.771 149.082 155.271 138.074 141.199 138.074C127.127 138.074 115.626 149.082 114.838 162.956Z"/>
</svg>
