<svg viewBox="0 0 152 40" fill="#0B0B14" xmlns="http://www.w3.org/2000/svg">
<defs><filter id="invert" color-interpolation-filters="sRGB"><feColorMatrix in="SourceGraphic" type="matrix" values="-1 0 0 0 1 0 -1 0 0 1 0 0 -1 0 1 0 0 0 1 0"/></filter></defs>
<path d="M20.421 40C31.7 40 40.842 31.046 40.842 20C40.842 8.954 31.7 0 20.422 0C9.141 0 0 8.954 0 20C0 31.046 9.143 40 20.421 40Z" opacity="5%"/>
<path d="M20.422 33.382C27.981 33.382 34.109 27.378 34.109 19.972C34.109 12.566 27.981 6.562 20.422 6.562C12.862 6.562 6.73401 12.566 6.73401 19.972C6.73401 27.378 12.862 33.382 20.422 33.382V33.382Z" opacity="30%"/>
<path d="M29.48 18.654C30.303 16.693 29.704 14.594 28.142 13.965C26.58 13.337 24.647 14.418 23.825 16.379C23.002 18.34 23.601 20.439 25.163 21.068C26.724 21.696 28.657 20.616 29.48 18.654ZM20.454 36.595C22.622 36.595 24.379 34.732 24.379 32.434C24.379 30.135 22.622 28.272 20.454 28.272C18.286 28.272 16.529 30.135 16.529 32.434C16.529 34.732 18.286 36.595 20.454 36.595ZM15.813 21.066C17.375 20.437 17.973 18.338 17.151 16.376C16.328 14.416 14.395 13.334 12.833 13.963C11.272 14.591 10.673 16.691 11.495 18.652C12.318 20.613 14.251 21.694 15.813 21.065V21.066Z"  filter="url(#invert)"/>
<path d="M27.38 32.873C31.614 30.65 34.619 26.465 35.12 21.556L37.49 24.223C36.169 29.487 32.372 33.803 27.384 35.918C27.432 35.498 27.456 35.026 27.456 34.488C27.4519 33.9489 27.4262 33.4101 27.379 32.873H27.38ZM15.647 33.826C17.14 34.321 18.733 34.586 20.397 34.586C22.133 34.586 23.793 34.297 25.343 33.76C25.018 35.026 24.513 36.133 23.869 37.002C22.749 37.222 21.589 37.338 20.402 37.338C19.286 37.338 18.199 37.235 17.14 37.044C16.487 36.18 15.976 35.077 15.647 33.826V33.826ZM13.497 32.915C9.195 30.692 6.147 26.451 5.666 21.476L3.353 24.423C4.726 29.631 8.527 33.882 13.496 35.96C13.449 35.53 13.425 35.045 13.425 34.493C13.425 33.961 13.449 33.433 13.496 32.915H13.497ZM32.277 11.453L33.956 9.099C32.756 7.68308 31.3395 6.46602 29.759 5.493L26.926 7.086C29.0299 8.09808 30.8637 9.5947 32.277 11.453V11.453ZM11.227 5.372C9.57324 6.36066 8.09374 7.61514 6.848 9.085L8.742 11.163C10.1329 9.42781 11.8965 8.02789 13.902 7.067L11.226 5.372H11.227ZM10.659 19.986C10.659 15.642 13.62 11.976 17.674 10.813C17.855 10.313 18.084 9.878 18.342 9.523C13.325 10.472 9.538 14.797 9.538 19.986C9.538 23.662 11.436 26.903 14.326 28.818C14.455 28.454 14.593 28.103 14.746 27.763C12.271 26.03 10.659 23.19 10.659 19.986V19.986Z"/>
<path d="M12.58 16.791L13.405 17.001C14.158 15.3085 15.5054 13.9509 17.192 13.185C17.216 12.863 17.249 12.545 17.302 12.242C16.2515 12.6475 15.2926 13.2589 14.4817 14.0403C13.6708 14.8216 13.0242 15.7572 12.58 16.792V16.791ZM12.877 21.168H12.028C12.191 22.2493 12.5666 23.2876 13.133 24.223C13.6994 25.1584 14.4454 25.9724 15.328 26.618C15.472 26.376 15.619 26.142 15.777 25.918C14.2348 24.7672 13.196 23.0657 12.877 21.168V21.168ZM27.45 17.03L28.271 16.819C27.289 14.479 25.247 12.671 22.729 11.976C22.791 12.265 22.844 12.569 22.882 12.886C24.942 13.568 26.602 15.086 27.451 17.029L27.45 17.03ZM28.915 18.94L28.028 18.043L25.114 18.5L24.666 19.813L26.006 20.691L28.466 19.813L28.916 18.94H28.915ZM12.047 18.94L12.929 18.043L15.848 18.5L16.291 19.813L14.951 20.691L12.495 19.813L12.047 18.94ZM28.5 22.503C28.6421 22.0675 28.7478 21.621 28.816 21.168H27.966C27.924 21.425 27.866 21.672 27.8 21.92C28.048 22.116 28.281 22.307 28.5 22.503V22.503ZM25.81 25.278C25.591 25.488 25.362 25.694 25.12 25.876C25.276 26.1 25.43 26.334 25.572 26.576C25.9483 26.2925 26.3008 25.9788 26.626 25.638C26.3509 25.5261 26.0791 25.406 25.811 25.278H25.81Z"/>
<path d="M30.184 19.986C30.1831 21.1948 29.9499 22.3922 29.497 23.513C29.826 23.896 30.074 24.265 30.237 24.596C30.9437 23.1621 31.3105 21.5846 31.309 19.986C31.309 14.484 27.055 9.958 21.589 9.389C21.862 9.72 22.105 10.131 22.305 10.603C26.793 11.463 30.184 15.334 30.184 19.986V19.986ZM27.947 26.072C27.4239 26.6914 26.826 27.2436 26.167 27.716C26.32 28.052 26.464 28.407 26.587 28.772C27.6035 28.0855 28.497 27.2325 29.23 26.249C28.7966 26.2447 28.3654 26.1852 27.947 26.072ZM21.356 18.683C21.346 18.683 21.341 18.678 21.336 18.673L20.421 9.313H19.567L18.785 18.739H18.79C18.79 18.758 18.785 18.776 18.785 18.795C18.79 18.954 18.805 19.103 18.833 19.248C18.847 19.407 18.895 19.57 18.971 19.734C19.133 20.144 19.396 20.454 19.706 20.598C19.777 20.654 19.853 20.705 19.93 20.757C19.944 20.767 19.963 20.775 19.977 20.785V20.789L29.477 25.904L29.973 25.227L21.356 18.683V18.683ZM22.567 31.495C21.828 31.495 21.203 31 21.022 30.332L24.537 29.015L23.697 26.969L20.421 28.267L17.141 26.973L16.306 29.015L19.787 30.36C19.68 30.7133 19.4538 31.0186 19.1469 31.2237C18.8399 31.4289 18.4714 31.5212 18.104 31.485L17.393 32.462C17.66 32.55 17.946 32.597 18.247 32.597C19.129 32.597 19.911 32.186 20.407 31.547C20.7643 32.0041 21.2575 32.3359 21.8156 32.4944C22.3737 32.653 22.9678 32.6301 23.512 32.429L22.815 31.476C22.733 31.4895 22.6501 31.4958 22.567 31.495Z"/>
<path d="M31.357 11.905L30.217 13.175C31.6545 15.1495 32.4277 17.5296 32.425 19.972C32.425 24.119 30.231 27.767 26.917 29.86C27.065 30.41 27.184 30.985 27.275 31.578C31.357 29.258 34.104 24.928 34.104 19.972C34.114 16.945 33.084 14.152 31.357 11.905V11.905ZM8.41801 19.973C8.41801 17.446 9.23301 15.106 10.621 13.186L9.48101 11.916C7.69826 14.2229 6.73203 17.0565 6.73401 19.972C6.73401 24.961 9.51401 29.314 13.644 31.622C13.735 31.028 13.85 30.454 13.998 29.907C10.64 27.819 8.41801 24.153 8.41801 19.973V19.973ZM20.421 6.562C18.318 6.562 16.325 7.029 14.546 7.856L15.386 9.295C16.9672 8.57766 18.6837 8.20767 20.42 8.21C22.214 8.21 23.916 8.598 25.447 9.29L26.287 7.85C24.4481 6.99959 22.4461 6.55974 20.42 6.561L20.421 6.562ZM53.872 28.435H50.39V14.62H45.826V11.832H58.407V14.62H53.872V28.436V28.435ZM63.261 13.648C63.261 14.619 62.498 15.367 61.482 15.367C60.438 15.367 59.68 14.619 59.68 13.624C59.68 12.602 60.443 11.859 61.482 11.859C62.522 11.859 63.262 12.602 63.262 13.648H63.261ZM63.08 28.435H59.851V16.913H63.08V28.435ZM68.531 16.81V18.253C69.271 16.983 70.258 16.413 71.761 16.413C73.286 16.413 74.402 17.086 74.965 18.328C75.752 17.006 76.844 16.413 78.523 16.413C79.715 16.413 80.707 16.787 81.37 17.483C82.08 18.253 82.31 19.052 82.31 20.794V28.337H79.08V21.392C79.08 19.822 78.494 19.075 77.278 19.075C76.081 19.075 75.399 19.921 75.399 21.392V28.337H72.17V21.49C72.17 19.897 71.56 19.075 70.391 19.075C69.171 19.075 68.536 19.897 68.536 21.49V28.337H65.308V16.81H68.531ZM119.156 27.206C117.806 28.402 116.409 28.926 114.63 28.926C111.043 28.926 108.401 26.338 108.401 22.826C108.401 19.192 110.996 16.599 114.654 16.599C116.409 16.599 117.858 17.197 119.356 18.514L117.196 20.429C116.485 19.733 115.722 19.406 114.782 19.406C113.004 19.406 111.682 20.826 111.682 22.718C111.682 24.684 113.032 26.104 114.911 26.104C115.751 26.104 116.361 25.857 117.2 25.133L119.156 27.206V27.206ZM129.194 17.001H132.423V28.528H129.194V26.936C128.102 28.304 126.828 28.926 125.102 28.926C121.797 28.926 119.432 26.413 119.432 22.9C119.432 19.266 121.921 16.604 125.355 16.604C126.957 16.604 128.049 17.151 129.194 18.472V17.002V17.001ZM122.889 22.849C122.889 24.867 124.239 26.385 125.989 26.385C127.792 26.385 129.242 24.74 129.242 22.751C129.242 20.71 127.921 19.266 126.013 19.266C124.186 19.266 122.889 20.733 122.889 22.849V22.849ZM134.574 28.636V12.032H137.803V28.636H134.574ZM96.136 23.647H86.436C86.574 24.483 86.95 25.151 87.556 25.647C88.166 26.142 88.939 26.389 89.883 26.389C91.013 26.389 91.982 26.001 92.793 25.231L95.339 26.403C94.705 27.286 93.947 27.935 93.059 28.36C92.173 28.78 91.123 28.995 89.907 28.995C88.019 28.995 86.483 28.411 85.296 27.244C84.108 26.076 83.516 24.614 83.516 22.863C83.516 21.064 84.108 19.57 85.291 18.383C86.473 17.197 87.957 16.599 89.745 16.599C91.638 16.599 93.183 17.192 94.371 18.384C95.559 19.57 96.15 21.139 96.15 23.091L96.136 23.647V23.647ZM93.116 21.317C92.9198 20.6634 92.5041 20.0976 91.939 19.715C91.352 19.304 90.67 19.098 89.893 19.098C89.049 19.098 88.309 19.332 87.675 19.789C87.275 20.079 86.907 20.588 86.569 21.317H93.117H93.116ZM151.985 23.755H142.285C142.423 24.591 142.8 25.259 143.406 25.755C144.016 26.249 144.789 26.497 145.733 26.497C146.863 26.497 147.831 26.109 148.642 25.339L151.189 26.511C150.554 27.394 149.796 28.043 148.909 28.468C148.022 28.888 146.973 29.103 145.757 29.103C143.868 29.103 142.333 28.519 141.145 27.352C139.958 26.184 139.366 24.722 139.366 22.971C139.366 21.172 139.958 19.678 141.14 18.491C142.323 17.305 143.806 16.707 145.595 16.707C147.488 16.707 149.033 17.3 150.221 18.491C151.408 19.678 151.999 21.247 151.999 23.199L151.985 23.755V23.755ZM148.966 21.425C148.77 20.7711 148.354 20.2052 147.788 19.823C147.202 19.411 146.52 19.206 145.742 19.206C144.898 19.206 144.159 19.439 143.525 19.897C143.124 20.187 142.757 20.696 142.418 21.425H148.966V21.425ZM98.305 24.947C98.439 25.049 99.311 25.675 100.909 26.189C101.596 26.409 102.612 26.45 103.384 26.306C103.761 26.236 104.166 26.137 104.472 25.899C104.61 25.7979 104.714 25.6559 104.767 25.493C104.843 25.227 104.729 24.933 104.534 24.732C104.271 24.461 103.885 24.325 103.522 24.227C102.777 24.027 102.025 23.8542 101.267 23.709C100.485 23.555 99.75 23.405 99.087 23.064C98.234 22.62 97.59 22.13 97.299 21.172C97.032 20.294 97.213 19.182 97.799 18.356C98.863 16.856 100.752 16.52 101.782 16.45C105.029 16.24 107.39 18.22 107.486 18.305L105.683 20.327L105.688 20.332C105.673 20.318 104.061 18.931 102.015 19.062C100.818 19.141 100.361 19.556 100.222 19.729C100.098 19.889 100.022 20.07 100.036 20.229C100.065 20.537 100.232 20.855 101.748 21.186C102.678 21.392 103.26 21.514 104.281 21.826C106.136 22.392 107.8 23.573 107.528 25.722C107.223 28.108 104.643 28.996 102.502 28.996C101.715 28.996 100.785 28.884 100.06 28.65C97.819 27.931 96.765 27.184 96.603 27.062L98.305 24.946V24.947Z"/>
</svg>
